<?xml version="1.0" encoding="UTF-8" standalone="no"?>
<!DOCTYPE svg PUBLIC "-//W3C//DTD SVG 1.1//EN" "http://www.w3.org/Graphics/SVG/1.1/DTD/svg11.dtd">
<svg width="105.00" height="100.00" viewBox="0.00 0.00 105.00 100.00" xmlns="http://www.w3.org/2000/svg" xmlns:xlink="http://www.w3.org/1999/xlink">
<g stroke-linecap="round" id="圖層_10">
<path d="M45.75,41.00 C45.75,41.00 45.50,41.00 45.50,41.00 C45.50,41.00 46.38,42.38 46.38,42.38 C45.94,42.13 43.92,40.79 39.16,45.23 C39.16,45.23 43.69,41.29 43.69,41.29 C43.69,41.29 35.87,49.44 35.87,49.44 C35.87,49.44 44.66,42.05 44.66,42.05 C44.66,42.05 38.77,47.72 38.77,47.72 C38.77,47.72 41.49,44.50 41.49,44.50 C41.49,44.50 37.66,47.23 37.66,47.23 C37.66,47.23 39.36,43.88 39.36,43.88 C39.36,43.88 36.51,46.35 36.51,46.35 C36.51,46.35 37.66,44.65 37.66,44.65 C35.55,45.76 29.55,53.51 28.91,56.09 C28.88,56.22 28.87,56.28 28.90,56.29 C28.90,56.29 33.98,47.10 33.98,47.10 C30.99,47.16 27.18,60.03 27.14,61.05 C27.14,61.05 33.96,47.97 33.96,47.97 C33.96,47.97 31.06,53.61 31.06,53.61 C31.06,53.61 36.30,48.34 36.30,48.34 C34.85,50.00 29.47,55.76 28.59,57.04 C26.52,60.12 26.10,64.30 26.18,65.36 C26.18,65.36 28.94,55.91 28.94,55.91 C27.62,57.46 25.83,66.08 26.42,70.09 C26.83,72.85 27.21,74.66 27.25,74.68 C27.25,74.68 26.47,64.72 26.47,64.72 C26.06,65.31 25.82,69.40 25.99,71.28 C26.40,75.43 29.73,81.72 30.74,83.56 C30.26,80.07 26.04,72.28 25.62,72.50 C25.62,72.50 30.88,80.24 30.88,80.24 C30.88,80.24 29.51,77.76 29.51,77.76 C29.51,77.76 33.87,83.50 33.87,83.50 C33.87,83.50 32.75,83.88 32.75,83.88 C32.75,83.88 32.95,83.88 32.95,83.88" fill="none" stroke="rgb(0, 0, 0)" stroke-width="2.00" stroke-opacity="0.50" stroke-linejoin="round"/>
<path d="M39.88,88.62 C39.88,88.62 39.88,88.50 39.88,88.50 C39.87,88.63 39.18,90.31 39.29,90.47 C40.33,91.85 43.20,92.82 45.34,93.38 C45.34,93.38 40.56,90.03 40.56,90.03 C40.56,89.99 44.05,91.61 45.48,92.08 C46.72,92.49 49.95,92.87 49.94,92.88 C49.94,92.88 43.72,90.91 43.72,90.91 C43.72,90.91 54.38,93.00 54.38,93.00 C54.38,93.00 45.12,91.00 45.12,91.00 C45.12,91.00 50.95,93.61 50.95,93.61 C50.95,93.61 45.27,92.78 45.27,92.78 C45.27,92.78 56.71,94.00 56.71,94.00 C56.71,94.00 48.10,93.15 48.10,93.15 C48.10,93.15 58.11,92.27 58.11,92.27 C58.11,92.27 56.69,93.11 56.69,93.11 C56.69,93.11 59.88,92.75 59.88,92.75 C59.88,92.75 58.77,91.52 58.77,91.52 C58.77,91.52 60.30,92.64 60.30,92.64 C60.30,92.64 60.02,90.88 60.02,90.88 C60.02,90.88 61.34,92.44 61.34,92.44 C61.34,92.44 61.43,89.70 61.43,89.70 C61.43,89.70 63.03,91.97 63.03,91.97 C63.03,91.97 62.63,89.55 62.63,89.55 C62.63,89.55 64.25,91.38 64.25,91.38 C64.25,91.38 64.01,88.95 64.01,88.95 C64.01,88.95 65.86,90.85 65.86,90.85 C65.86,90.85 65.15,88.16 65.15,88.16 C65.15,88.16 66.88,90.12 66.88,90.12 C66.88,90.12 66.52,88.59 66.52,88.59 C66.52,88.59 67.72,90.05 67.72,90.05 C67.72,90.05 66.80,88.50 66.80,88.50 C66.80,88.50 67.88,89.61 67.88,89.61 C67.88,89.61 67.88,89.53 67.88,89.53" fill="none" stroke="rgb(0, 0, 0)" stroke-width="2.00" stroke-opacity="0.50" stroke-linejoin="round"/>
<path d="M34.71,4.60 C34.71,4.60 34.40,4.59 34.40,4.59 C34.84,4.50 35.28,4.45 35.74,4.44 C56.44,4.27 70.74,5.01 72.25,5.14 C72.25,5.14 72.12,5.27 72.12,5.27" fill="none" stroke="rgb(0, 0, 0)" stroke-width="3.00" stroke-opacity="1.00" stroke-linejoin="round"/>
<path d="M34.01,5.00 C33.97,5.34 33.79,7.20 33.65,8.71 C33.29,12.83 33.21,18.42 33.20,19.88" fill="none" stroke="rgb(0, 0, 0)" stroke-width="3.00" stroke-opacity="1.00" stroke-linejoin="round"/>
<path d="M71.78,5.63 C71.78,5.63 71.84,5.47 71.84,5.47 C71.84,5.47 72.01,5.47 72.01,5.47 C72.01,5.47 72.95,18.33 72.95,18.33" fill="none" stroke="rgb(0, 0, 0)" stroke-width="3.00" stroke-opacity="1.00" stroke-linejoin="round"/>
<path d="M33.24,14.69 C33.24,14.69 33.53,28.67 33.53,28.67 C33.53,28.67 33.75,28.83 33.75,28.83" fill="none" stroke="rgb(0, 0, 0)" stroke-width="3.00" stroke-opacity="1.00" stroke-linejoin="round"/>
<path d="M73.07,13.15 C73.06,16.26 72.61,27.06 72.56,28.24 C72.55,28.53 72.54,28.82 72.53,29.11" fill="none" stroke="rgb(0, 0, 0)" stroke-width="3.00" stroke-opacity="1.00" stroke-linejoin="round"/>
<path d="M34.12,28.62 C34.12,28.62 34.03,28.46 34.03,28.46 C37.75,30.10 46.61,33.81 48.91,34.69 C48.97,34.71 49.13,34.77 49.08,34.75" fill="none" stroke="rgb(0, 0, 0)" stroke-width="3.00" stroke-opacity="1.00" stroke-linejoin="round"/>
<path d="M72.22,29.34 C72.22,29.34 72.84,29.34 72.84,29.34 C72.76,29.33 72.09,29.41 71.60,29.55 C71.27,29.65 56.37,34.66 55.54,34.98 C55.32,35.07 54.84,35.22 54.11,35.43" fill="none" stroke="rgb(0, 0, 0)" stroke-width="3.00" stroke-opacity="1.00" stroke-linejoin="round"/>
<path d="M49.67,34.92 C49.67,34.92 49.52,34.92 49.52,34.92 C49.92,34.80 52.35,36.01 52.98,35.75 C53.08,35.72 53.31,35.68 53.67,35.61" fill="none" stroke="rgb(0, 0, 0)" stroke-width="3.00" stroke-opacity="1.00" stroke-linejoin="round"/>
<path d="M51.76,39.52 C48.60,39.46 45.04,39.88 44.22,39.92 C41.96,40.17 37.15,42.43 35.06,43.91 C33.36,45.14 30.04,48.43 28.53,50.66 C27.02,52.92 24.88,58.32 24.17,61.47 C23.58,64.24 23.52,69.30 23.96,71.93 C24.34,73.98 26.15,79.31 27.82,82.18 C29.77,85.45 34.97,90.69 38.29,92.48 C41.46,94.14 48.55,95.80 51.99,95.86 C55.09,95.88 61.51,94.72 64.32,93.63 C67.36,92.41 72.29,88.80 74.30,86.22 C76.11,83.86 79.08,77.82 79.91,74.96 C80.75,71.99 81.40,65.77 81.10,62.75 C80.72,59.37 78.71,53.41 77.04,50.72 C75.43,48.20 71.40,44.27 69.07,42.86 C67.36,41.86 62.56,40.15 58.42,39.67 C56.80,39.49 55.72,39.39 55.18,39.38 C54.69,39.38 53.77,39.42 52.42,39.51" fill="none" stroke="rgb(0, 0, 0)" stroke-width="3.00" stroke-opacity="1.00" stroke-linejoin="round"/>
<path d="M50.75,36.25 C50.75,36.25 50.75,36.00 50.75,36.00 C50.73,36.62 50.90,37.56 51.15,38.10 C51.21,38.23 51.31,38.34 51.44,38.44" fill="none" stroke="rgb(0, 0, 0)" stroke-width="3.00" stroke-opacity="1.00" stroke-linejoin="round"/>
<path d="M54.75,36.25 C54.75,36.25 54.75,38.19 54.75,38.19 C54.75,38.19 53.75,38.50 53.75,38.50" fill="none" stroke="rgb(0, 0, 0)" stroke-width="3.00" stroke-opacity="1.00" stroke-linejoin="round"/>
<path d="M52.75,37.75 C52.75,37.75 53.00,37.75 53.00,37.75" fill="none" stroke="rgb(0, 0, 0)" stroke-width="3.00" stroke-opacity="1.00" stroke-linejoin="round"/>
<path d="M37.75,5.75 C37.75,5.75 37.50,5.75 37.50,5.75 C37.50,5.75 37.50,5.50 37.50,5.50 C37.50,5.50 37.25,29.60 37.25,29.60 C37.25,29.60 37.25,26.47 37.25,26.47" fill="none" stroke="rgb(0, 0, 0)" stroke-width="2.00" stroke-opacity="1.00" stroke-linejoin="round"/>
<path d="M41.25,5.25 C41.25,5.25 41.25,5.06 41.25,5.06 C41.25,5.06 41.75,27.96 41.75,27.96 C41.75,27.96 39.50,5.08 39.50,5.08 C39.50,5.08 38.75,26.50 38.75,26.50 C38.75,26.50 39.00,13.33 39.00,13.33 C39.00,13.33 39.00,29.00 39.00,29.00 C39.00,29.00 41.44,30.12 41.44,30.12 C41.44,30.12 41.75,3.50 41.75,3.50 C41.75,3.50 41.75,4.10 41.75,4.10" fill="none" stroke="rgb(0, 0, 0)" stroke-width="2.00" stroke-opacity="1.00" stroke-linejoin="round"/>
<path d="M40.25,26.75 C40.25,26.75 40.25,26.50 40.25,26.50 C40.25,26.50 40.59,28.17 40.59,28.17 C40.68,27.18 40.73,26.56 40.75,26.31 C40.77,26.06 40.77,25.84 40.75,25.65" fill="none" stroke="rgb(0, 0, 0)" stroke-width="2.00" stroke-opacity="1.00" stroke-linejoin="round"/>
<path d="M68.75,6.00 C68.75,6.00 68.75,5.50 68.75,5.50 C68.75,5.50 68.50,30.66 68.50,30.66 C68.50,30.66 68.50,30.13 68.50,30.13" fill="none" stroke="rgb(0, 0, 0)" stroke-width="2.00" stroke-opacity="1.00" stroke-linejoin="round"/>
<path d="M63.00,6.00 C63.00,6.00 63.00,5.75 63.00,5.75 C63.00,5.75 63.04,31.79 63.04,31.79 C63.04,31.79 64.50,9.60 64.50,9.60 C64.50,9.60 65.25,26.90 65.25,26.90 C65.25,26.90 65.50,6.77 65.50,6.77 C65.50,6.77 65.73,10.48 65.73,10.48 C65.73,10.48 64.57,7.43 64.57,7.43 C64.57,7.43 66.85,7.10 66.85,7.10 C66.85,7.10 66.03,10.13 66.03,10.13 C66.03,10.13 66.84,6.90 66.84,6.90 C66.84,6.90 66.98,25.38 66.98,25.38 C66.98,25.38 66.75,19.55 66.75,19.55 C66.75,19.55 66.75,28.75 66.75,28.75 C66.75,28.75 64.58,29.98 64.58,29.98 C64.58,29.98 65.79,30.01 65.79,30.01 C65.79,30.01 66.45,30.25 66.45,30.25" fill="none" stroke="rgb(0, 0, 0)" stroke-width="2.00" stroke-opacity="1.00" stroke-linejoin="round"/>
<path d="M42.50,6.00 C42.59,5.71 42.73,5.50 42.75,5.43 C42.76,5.40 42.76,5.34 42.75,5.25 C42.75,28.77 42.72,30.24 42.75,30.38 C42.79,30.53 42.92,30.78 43.16,31.11" fill="none" stroke="rgb(0, 0, 0)" stroke-width="2.00" stroke-opacity="1.00" stroke-linejoin="round"/>
<path d="M47.00,4.75 C46.86,4.57 46.77,4.45 46.75,4.40 C46.73,4.35 46.73,4.30 46.75,4.25 C46.75,17.19 47.35,31.98 47.25,32.90 C47.25,32.92 50.30,33.75 50.55,33.93 C50.59,33.97 50.72,34.06 50.93,34.20" fill="none" stroke="rgb(0, 0, 0)" stroke-width="2.00" stroke-opacity="1.00" stroke-linejoin="round"/>
<path d="M59.50,4.25 C59.50,4.25 59.50,4.38 59.50,4.38 C59.50,4.38 59.25,4.56 59.25,4.56 C59.25,4.56 59.00,31.50 59.00,31.50 C59.00,31.50 59.00,31.09 59.00,31.09" fill="none" stroke="rgb(0, 0, 0)" stroke-width="2.00" stroke-opacity="1.00" stroke-linejoin="round"/>
<path d="M59.25,32.00 C59.25,32.00 59.00,32.25 59.00,32.25 C59.00,32.25 58.75,33.42 58.75,33.42 C58.75,33.19 58.75,32.96 58.75,32.73 C58.75,32.37 58.75,32.01 58.75,31.65" fill="none" stroke="rgb(0, 0, 0)" stroke-width="2.00" stroke-opacity="1.00" stroke-linejoin="round"/>
<path d="M49.00,5.50 C49.00,5.50 48.04,5.25 48.04,5.25 C48.04,5.25 55.49,5.73 55.49,5.73 C55.49,5.73 48.42,7.36 48.42,7.36 C48.42,7.36 57.46,8.27 57.46,8.27 C57.46,8.27 50.90,9.69 50.90,9.69 C50.90,9.69 50.74,7.00 50.74,7.00 C49.13,25.94 51.00,29.17 51.33,29.33 C52.00,29.02 52.81,26.52 53.10,23.65 C53.84,16.12 53.34,10.65 53.08,8.96 C52.72,8.67 52.40,28.44 53.35,29.88 C53.39,29.93 53.53,30.08 53.77,30.33 C54.71,29.09 55.28,22.03 55.17,18.02 C55.07,15.05 54.24,10.58 53.54,9.29 C52.80,9.95 52.43,10.87 52.27,12.90 C51.62,21.53 53.03,26.57 53.75,27.27 C54.72,26.61 55.59,20.02 55.81,15.73 C55.89,14.10 56.00,5.92 56.00,5.94 C56.00,5.94 55.52,18.35 55.52,18.35 C55.52,18.35 57.00,5.29 57.00,5.29 C58.22,6.94 57.25,33.90 57.25,35.33 C57.11,33.47 57.01,29.39 56.99,23.71 C56.98,19.26 56.35,14.10 54.94,12.17 C54.27,11.29 53.47,10.50 52.79,9.96 C51.89,10.69 51.61,15.87 51.51,21.49 C51.50,23.27 51.50,26.29 51.50,27.52 C51.63,18.18 49.40,8.22 48.98,7.04 C48.98,7.04 48.75,26.71 48.75,26.71 C48.75,26.71 48.67,10.77 48.67,10.77 C48.67,10.77 48.92,31.96 48.92,31.96 C48.92,31.96 50.75,30.75 50.75,30.75 C50.23,30.87 50.41,32.59 51.28,33.40 C52.40,34.39 53.51,31.43 53.13,30.65 C53.13,30.65 51.68,31.59 51.68,31.59 C51.68,31.59 55.31,31.90 55.31,31.90 C55.31,31.90 53.84,34.78 53.84,34.78 C54.51,34.17 54.75,33.93 54.75,33.81 C54.75,33.69 54.75,33.54 54.75,33.36" fill="none" stroke="rgb(0, 0, 0)" stroke-width="2.00" stroke-opacity="1.00" stroke-linejoin="round"/>
<path d="M55.25,29.75 C55.25,29.75 54.75,29.75 54.75,29.75 C54.75,29.75 54.75,31.73 54.75,31.73 C54.75,31.73 55.00,30.18 55.00,30.18 C55.00,30.18 52.51,33.96 52.51,33.96 C52.51,33.96 52.69,34.19 52.69,34.19" fill="none" stroke="rgb(0, 0, 0)" stroke-width="2.00" stroke-opacity="1.00" stroke-linejoin="round"/>
<path d="M30.75,57.12 C30.59,57.27 29.41,59.53 28.88,61.06 C28.52,62.11 27.85,66.54 28.02,69.65 C28.31,74.37 32.90,82.76 34.21,83.89 C39.23,88.09 41.91,89.44 47.22,90.96 C47.80,91.12 48.11,91.21 48.16,91.21 C48.29,91.22 48.56,91.20 48.97,91.15" fill="none" stroke="rgb(0, 0, 0)" stroke-width="2.00" stroke-opacity="1.00" stroke-linejoin="round"/>
<path d="M30.62,56.75 C30.64,56.15 32.04,54.55 32.59,53.93 C33.64,52.75 38.46,47.87 39.77,47.17 C42.80,45.59 46.82,43.98 47.54,43.81 C51.85,42.82 55.46,42.98 58.81,43.83 C59.11,43.91 59.71,44.11 60.60,44.42" fill="none" stroke="rgb(0, 0, 0)" stroke-width="2.00" stroke-opacity="1.00" stroke-linejoin="round"/>
<path d="M63.36,45.49 C67.43,47.34 70.59,50.15 71.43,51.30 C71.74,51.74 74.31,55.15 75.76,59.89 C76.97,63.87 76.82,68.82 76.74,69.92 C76.72,70.20 76.69,70.48 76.64,70.76" fill="none" stroke="rgb(0, 0, 0)" stroke-width="2.00" stroke-opacity="1.00" stroke-linejoin="round"/>
<path d="M49.62,91.62 C52.72,91.61 54.72,91.44 56.49,90.91 C58.20,90.36 64.37,88.23 65.82,87.43 C67.54,86.45 69.97,84.36 71.29,82.71 C71.34,82.65 71.53,82.48 71.57,82.38 C71.58,82.35 71.60,82.28 71.61,82.18" fill="none" stroke="rgb(0, 0, 0)" stroke-width="2.00" stroke-opacity="1.00" stroke-linejoin="round"/>
<path d="M72.75,81.12 C72.76,80.88 73.41,80.03 73.68,79.49 C74.41,78.05 75.52,75.24 75.95,73.22 C75.99,73.02 75.98,72.82 76.01,72.61 C76.02,72.58 76.04,72.51 76.09,72.42" fill="none" stroke="rgb(0, 0, 0)" stroke-width="2.00" stroke-opacity="1.00" stroke-linejoin="round"/>
<path d="M40.27,58.47 C40.27,58.47 40.14,58.38 40.14,58.38 C38.07,60.30 40.53,75.97 40.79,76.84 C40.89,77.17 41.09,77.68 41.39,78.35" fill="none" stroke="rgb(0, 0, 0)" stroke-width="3.00" stroke-opacity="1.00" stroke-linejoin="round"/>
<path d="M40.37,60.95 C40.18,60.12 43.53,57.90 46.42,58.21 C48.57,58.48 51.72,60.55 52.44,62.16 C53.22,63.94 52.13,67.50 50.17,68.95 C48.38,70.24 42.63,72.29 40.25,72.59 C35.47,73.16 32.47,70.08 32.34,69.79 C32.30,69.69 32.25,69.50 32.20,69.22" fill="none" stroke="rgb(0, 0, 0)" stroke-width="3.00" stroke-opacity="1.00" stroke-linejoin="round"/>
<path d="M55.34,76.38 C55.27,76.35 55.04,76.24 54.98,76.08 C54.69,75.34 54.53,69.51 54.85,67.55 C55.59,63.24 58.33,59.08 59.50,58.61 C60.76,58.12 63.63,59.14 64.93,60.93 C66.31,62.86 67.99,68.30 68.15,70.94 C68.28,73.27 67.40,75.81 66.65,76.18 C66.52,76.24 66.29,76.30 65.94,76.36" fill="none" stroke="rgb(0, 0, 0)" stroke-width="3.00" stroke-opacity="1.00" stroke-linejoin="round"/>
<path d="M49.64,75.64 C49.94,74.93 56.19,71.09 61.21,69.73 C64.96,68.73 71.12,68.94 71.56,69.31 C71.56,69.31 71.51,69.39 71.51,69.39" fill="none" stroke="rgb(0, 0, 0)" stroke-width="3.00" stroke-opacity="1.00" stroke-linejoin="round"/>
</g>
</svg>
