<?xml version="1.0" encoding="UTF-8" standalone="no"?>
<!DOCTYPE svg PUBLIC "-//W3C//DTD SVG 1.1//EN" "http://www.w3.org/Graphics/SVG/1.1/DTD/svg11.dtd">
<svg width="105.00" height="100.00" viewBox="0.00 0.00 105.00 100.00" xmlns="http://www.w3.org/2000/svg" xmlns:xlink="http://www.w3.org/1999/xlink">
<g stroke-linecap="round" id="圖層_12">
<path d="M18.67,9.57 C18.67,9.57 18.36,9.72 18.36,9.72 C18.14,22.47 18.01,46.89 19.00,59.95 C20.09,72.16 21.66,90.21 22.22,91.01 C22.22,91.01 22.09,89.87 22.09,89.87" fill="none" stroke="rgb(0, 0, 0)" stroke-width="3.00" stroke-opacity="1.00" stroke-linejoin="round"/>
<path d="M19.14,8.64 C18.92,8.73 18.80,8.78 18.75,8.80 C18.70,8.81 18.68,8.81 18.67,8.80 C19.46,8.78 39.52,9.09 41.37,8.94 C52.76,7.85 74.43,7.39 85.74,7.43 C85.74,7.43 85.80,7.55 85.80,7.55" fill="none" stroke="rgb(0, 0, 0)" stroke-width="3.00" stroke-opacity="1.00" stroke-linejoin="round"/>
<path d="M86.73,7.87 C86.73,7.87 86.50,7.50 86.50,7.50 C86.50,7.50 86.42,7.48 86.42,7.48 C86.45,12.83 86.63,29.99 86.82,33.35 C86.89,34.52 88.35,48.56 88.87,61.80 C89.14,68.67 91.35,90.50 91.36,91.79 C91.36,91.79 91.49,91.56 91.49,91.56" fill="none" stroke="rgb(0, 0, 0)" stroke-width="3.00" stroke-opacity="1.00" stroke-linejoin="round"/>
<path d="M21.45,91.82 C21.45,91.82 20.68,91.82 20.68,91.82 C33.50,91.81 56.01,91.34 67.70,91.43 C71.34,91.32 85.98,92.13 88.06,92.13 C88.06,92.13 87.86,92.13 87.86,92.13" fill="none" stroke="rgb(0, 0, 0)" stroke-width="3.00" stroke-opacity="1.00" stroke-linejoin="round"/>
<path d="M89.04,92.28 C89.04,92.28 90.89,92.31 90.89,92.31 C90.89,92.31 90.77,92.53 90.77,92.53" fill="none" stroke="rgb(0, 0, 0)" stroke-width="3.00" stroke-opacity="1.00" stroke-linejoin="round"/>
<path d="M18.52,8.95 C18.52,8.95 18.52,8.66 18.52,8.66 C18.52,8.66 18.36,8.49 18.36,8.49 C18.36,9.49 18.36,10.49 18.36,11.49 C18.36,12.68 18.36,13.86 18.36,15.04" fill="none" stroke="rgb(0, 0, 0)" stroke-width="3.00" stroke-opacity="1.00" stroke-linejoin="round"/>
<path d="M29.62,18.28 C29.62,18.28 28.85,18.13 28.85,18.13 C28.85,18.13 34.03,19.96 34.03,19.96 C34.03,19.96 29.07,21.97 29.07,21.97 C29.57,22.19 34.79,22.00 35.63,21.88 C35.74,21.87 35.85,21.85 35.96,21.83" fill="none" stroke="rgb(0, 0, 0)" stroke-width="2.00" stroke-opacity="1.00" stroke-linejoin="round"/>
<path d="M31.94,19.83 C31.94,19.83 31.86,19.83 31.86,19.83 C31.61,19.59 32.28,25.54 32.23,26.95 C32.21,27.36 32.03,27.72 31.98,27.81" fill="none" stroke="rgb(0, 0, 0)" stroke-width="2.00" stroke-opacity="1.00" stroke-linejoin="round"/>
<path d="M30.24,25.85 C30.24,25.85 29.93,25.69 29.93,25.69 C31.10,25.39 35.51,23.61 35.95,23.07 C36.00,23.01 36.19,22.74 36.52,22.27" fill="none" stroke="rgb(0, 0, 0)" stroke-width="2.00" stroke-opacity="1.00" stroke-linejoin="round"/>
<path d="M34.72,19.52 C34.72,19.52 34.41,19.36 34.41,19.36 C34.41,19.36 39.21,26.31 39.21,26.31 C39.21,26.31 39.33,26.32 39.33,26.32" fill="none" stroke="rgb(0, 0, 0)" stroke-width="2.00" stroke-opacity="1.00" stroke-linejoin="round"/>
<path d="M37.49,19.36 C37.49,19.36 37.49,19.06 37.49,19.06 C36.32,23.47 35.61,26.62 35.54,27.54 C35.51,27.87 35.58,28.12 35.75,28.28" fill="none" stroke="rgb(0, 0, 0)" stroke-width="2.00" stroke-opacity="1.00" stroke-linejoin="round"/>
<path d="M41.28,19.98 C42.44,20.00 43.51,19.96 44.82,19.83 C44.83,19.83 44.86,19.83 44.85,19.83" fill="none" stroke="rgb(0, 0, 0)" stroke-width="2.00" stroke-opacity="1.00" stroke-linejoin="round"/>
<path d="M41.75,20.14 C41.45,20.58 41.42,24.45 41.61,25.31 C41.71,25.75 42.14,27.36 42.21,27.59 C42.21,27.59 42.21,27.44 42.21,27.44" fill="none" stroke="rgb(0, 0, 0)" stroke-width="2.00" stroke-opacity="1.00" stroke-linejoin="round"/>
<path d="M42.21,22.60 C42.21,22.60 42.21,22.53 42.21,22.53 C42.46,22.31 43.52,22.34 43.89,23.00 C44.28,23.75 44.41,26.45 44.16,26.85 C44.15,26.87 44.04,27.02 43.84,27.30" fill="none" stroke="rgb(0, 0, 0)" stroke-width="2.00" stroke-opacity="1.00" stroke-linejoin="round"/>
<path d="M41.59,26.15 C41.48,26.05 41.30,25.83 41.28,25.71 C41.28,25.65 41.29,25.56 41.33,25.43 C41.55,25.01 43.51,24.34 44.02,24.34 C44.13,24.34 44.24,24.37 44.34,24.43" fill="none" stroke="rgb(0, 0, 0)" stroke-width="2.00" stroke-opacity="1.00" stroke-linejoin="round"/>
<path d="M42.06,26.77 C42.06,26.77 41.90,26.77 41.90,26.77 C42.97,26.68 43.92,26.08 44.36,25.68 C44.49,25.56 44.78,25.28 45.21,24.85" fill="none" stroke="rgb(0, 0, 0)" stroke-width="2.00" stroke-opacity="1.00" stroke-linejoin="round"/>
<path d="M46.22,18.13 C46.22,18.13 46.07,18.27 46.07,18.27 C46.06,19.57 46.44,20.40 46.98,20.60 C47.68,20.84 49.19,21.00 49.36,21.66 C49.82,23.70 49.25,27.10 49.12,27.34 C49.05,27.45 48.88,27.66 48.61,27.96" fill="none" stroke="rgb(0, 0, 0)" stroke-width="2.00" stroke-opacity="1.00" stroke-linejoin="round"/>
<path d="M44.83,24.92 C44.83,24.92 44.68,24.77 44.68,24.77 C45.86,24.18 48.01,23.74 48.90,23.69 C49.05,23.68 49.21,23.68 49.38,23.69" fill="none" stroke="rgb(0, 0, 0)" stroke-width="2.00" stroke-opacity="1.00" stroke-linejoin="round"/>
<path d="M53.17,20.75 C53.17,20.75 52.56,20.60 52.56,20.60 C54.12,20.59 55.53,20.62 56.06,20.72 C56.20,20.74 56.35,20.80 56.51,20.88" fill="none" stroke="rgb(0, 0, 0)" stroke-width="2.00" stroke-opacity="1.00" stroke-linejoin="round"/>
<path d="M53.94,22.91 C53.94,22.91 53.79,22.91 53.79,22.91 C54.60,22.91 55.42,22.91 56.23,22.91 C56.44,22.91 56.65,22.91 56.86,22.91" fill="none" stroke="rgb(0, 0, 0)" stroke-width="2.00" stroke-opacity="1.00" stroke-linejoin="round"/>
<path d="M53.79,26.31 C54.55,26.33 55.97,25.90 56.91,25.12 C57.05,25.00 57.32,24.76 57.72,24.38" fill="none" stroke="rgb(0, 0, 0)" stroke-width="2.00" stroke-opacity="1.00" stroke-linejoin="round"/>
<path d="M57.65,18.75 C57.65,18.75 57.49,18.75 57.49,18.75 C59.02,18.75 61.04,18.64 61.75,18.59 C61.95,18.58 62.07,18.58 62.10,18.59" fill="none" stroke="rgb(0, 0, 0)" stroke-width="2.00" stroke-opacity="1.00" stroke-linejoin="round"/>
<path d="M58.88,21.37 C58.88,21.37 58.57,21.52 58.57,21.52 C59.56,21.58 61.09,21.22 61.93,20.85 C62.07,20.79 62.22,20.72 62.39,20.62" fill="none" stroke="rgb(0, 0, 0)" stroke-width="2.00" stroke-opacity="1.00" stroke-linejoin="round"/>
<path d="M59.50,19.21 C58.42,19.79 59.16,27.37 60.81,28.17 C62.24,28.05 62.63,26.29 62.60,25.95 C62.60,25.95 59.17,26.12 59.17,26.12 C59.17,26.12 59.29,26.15 59.29,26.15" fill="none" stroke="rgb(0, 0, 0)" stroke-width="2.00" stroke-opacity="1.00" stroke-linejoin="round"/>
<path d="M66.81,18.52 C66.81,18.52 66.21,18.29 66.21,18.29 C66.90,18.22 67.47,18.20 68.42,18.21 C68.57,18.21 68.68,18.21 68.77,18.21" fill="none" stroke="rgb(0, 0, 0)" stroke-width="2.00" stroke-opacity="1.00" stroke-linejoin="round"/>
<path d="M65.73,20.37 C65.73,20.37 65.58,20.37 65.58,20.37 C67.15,20.62 68.99,20.45 69.92,20.29 C70.09,20.26 70.22,20.24 70.33,20.22" fill="none" stroke="rgb(0, 0, 0)" stroke-width="2.00" stroke-opacity="1.00" stroke-linejoin="round"/>
<path d="M66.66,21.76 C66.66,21.76 66.51,21.82 66.51,21.82 C66.50,22.47 66.62,23.35 66.84,24.04 C66.89,24.20 66.98,24.41 67.10,24.66" fill="none" stroke="rgb(0, 0, 0)" stroke-width="2.00" stroke-opacity="1.00" stroke-linejoin="round"/>
<path d="M67.28,22.22 C67.28,22.22 70.48,22.37 70.48,22.37 C70.47,22.68 70.38,23.01 70.14,23.23 C70.03,23.32 69.75,23.52 69.28,23.84" fill="none" stroke="rgb(0, 0, 0)" stroke-width="2.00" stroke-opacity="1.00" stroke-linejoin="round"/>
<path d="M67.28,23.61 C67.28,23.61 67.48,23.16 67.48,23.16 C68.24,22.73 68.95,22.45 69.57,22.38 C69.67,22.36 69.77,22.36 69.86,22.38" fill="none" stroke="rgb(0, 0, 0)" stroke-width="2.00" stroke-opacity="1.00" stroke-linejoin="round"/>
<path d="M67.43,24.54 C67.74,24.52 68.26,24.25 69.51,23.42 C69.70,23.29 69.89,23.17 70.08,23.04 C70.13,23.01 70.22,22.95 70.34,22.86" fill="none" stroke="rgb(0, 0, 0)" stroke-width="2.00" stroke-opacity="1.00" stroke-linejoin="round"/>
<path d="M68.36,18.67 C68.36,18.67 68.28,18.60 68.28,18.60 C68.28,18.60 68.20,18.64 68.20,18.64 C68.20,20.41 68.66,23.68 68.83,24.90 C68.89,25.36 68.94,25.82 68.97,26.28" fill="none" stroke="rgb(0, 0, 0)" stroke-width="2.00" stroke-opacity="1.00" stroke-linejoin="round"/>
<path d="M68.05,24.85 C68.05,24.85 68.11,24.69 68.11,24.69 C68.17,24.71 69.38,24.45 70.28,24.25 C70.49,24.21 70.61,24.20 70.65,24.23" fill="none" stroke="rgb(0, 0, 0)" stroke-width="2.00" stroke-opacity="1.00" stroke-linejoin="round"/>
<path d="M68.20,26.70 C70.12,26.68 70.94,26.37 71.21,26.22 C71.29,26.17 71.40,26.09 71.55,25.97" fill="none" stroke="rgb(0, 0, 0)" stroke-width="2.00" stroke-opacity="1.00" stroke-linejoin="round"/>
<path d="M71.44,21.14 C72.00,20.00 75.17,20.26 75.38,20.42 C76.05,21.51 75.28,24.46 74.94,24.76 C74.87,24.82 74.71,24.90 74.46,25.01" fill="none" stroke="rgb(0, 0, 0)" stroke-width="2.00" stroke-opacity="1.00" stroke-linejoin="round"/>
<path d="M72.06,17.41 C72.14,21.24 72.40,24.92 72.81,28.24 C72.82,28.34 72.86,28.64 72.83,28.54" fill="none" stroke="rgb(0, 0, 0)" stroke-width="2.00" stroke-opacity="1.00" stroke-linejoin="round"/>
<path d="M67.28,26.70 C67.28,26.70 67.12,26.54 67.12,26.54 C67.35,26.48 67.53,26.44 67.68,26.42 C67.83,26.41 68.16,26.39 68.65,26.39" fill="none" stroke="rgb(0, 0, 0)" stroke-width="2.00" stroke-opacity="1.00" stroke-linejoin="round"/>
<path d="M30.25,39.27 C30.25,39.27 29.48,38.96 29.48,38.96 C29.62,40.02 32.05,41.11 32.39,39.93 C32.43,39.81 32.49,39.50 32.58,39.00 C32.58,39.00 34.44,40.39 34.44,40.39 C34.44,40.39 35.31,40.11 35.31,40.11" fill="none" stroke="rgb(0, 0, 0)" stroke-width="2.00" stroke-opacity="1.00" stroke-linejoin="round"/>
<path d="M41.67,38.03 C41.67,38.03 41.51,37.88 41.51,37.88 C41.51,37.88 43.33,40.98 43.33,40.98 C43.33,40.98 44.55,39.38 44.55,39.38 C44.55,39.38 46.76,40.29 46.76,40.29 C46.76,40.29 48.22,39.50 48.22,39.50 C48.55,39.77 48.76,39.98 48.84,40.12 C48.92,40.26 48.98,40.53 49.03,40.93" fill="none" stroke="rgb(0, 0, 0)" stroke-width="2.00" stroke-opacity="1.00" stroke-linejoin="round"/>
<path d="M56.02,38.80 C56.02,38.80 55.86,38.79 55.86,38.79 C55.86,38.79 58.25,41.01 58.25,41.01 C58.25,41.01 59.84,39.02 59.84,39.02 C60.16,38.84 62.48,39.80 63.23,39.99 C63.47,40.05 63.84,40.11 64.35,40.17" fill="none" stroke="rgb(0, 0, 0)" stroke-width="2.00" stroke-opacity="1.00" stroke-linejoin="round"/>
<path d="M64.81,39.73 C67.09,40.17 70.56,38.68 71.84,38.78 C73.17,38.88 74.27,38.92 74.63,38.87" fill="none" stroke="rgb(0, 0, 0)" stroke-width="2.00" stroke-opacity="1.00" stroke-linejoin="round"/>
<path d="M31.48,47.60 C31.48,47.60 31.02,47.44 31.02,47.44 C31.02,47.44 32.44,48.45 32.44,48.45 C32.44,48.45 35.44,47.08 35.44,47.08 C35.55,47.08 35.67,47.15 35.80,47.27 C35.92,47.39 36.22,47.73 36.69,48.31" fill="none" stroke="rgb(0, 0, 0)" stroke-width="2.00" stroke-opacity="1.00" stroke-linejoin="round"/>
<path d="M29.01,46.98 C29.01,46.98 28.86,46.83 28.86,46.83 C28.96,46.77 29.50,47.28 29.60,47.49 C29.64,47.58 29.69,47.71 29.77,47.87" fill="none" stroke="rgb(0, 0, 0)" stroke-width="2.00" stroke-opacity="1.00" stroke-linejoin="round"/>
<path d="M43.36,47.91 C43.36,47.91 43.21,47.75 43.21,47.75 C44.72,48.82 45.33,48.73 45.91,47.94 C46.80,46.73 49.26,48.11 49.70,48.31 C49.70,48.31 49.96,47.86 49.96,47.86" fill="none" stroke="rgb(0, 0, 0)" stroke-width="2.00" stroke-opacity="1.00" stroke-linejoin="round"/>
<path d="M56.48,47.29 C56.48,47.29 56.17,47.14 56.17,47.14 C56.17,47.14 58.99,48.03 58.99,48.03 C59.69,47.75 60.68,46.95 61.37,47.00 C61.71,47.02 63.03,47.19 63.50,47.14 C63.72,47.11 64.17,47.03 64.85,46.89" fill="none" stroke="rgb(0, 0, 0)" stroke-width="2.00" stroke-opacity="1.00" stroke-linejoin="round"/>
<path d="M65.28,46.52 C65.31,46.50 65.34,46.47 65.35,46.44 C65.37,46.41 65.40,46.33 65.43,46.21 C65.79,46.14 69.23,46.83 69.93,46.83 C70.06,46.82 70.23,46.82 70.45,46.83" fill="none" stroke="rgb(0, 0, 0)" stroke-width="2.00" stroke-opacity="1.00" stroke-linejoin="round"/>
<path d="M76.08,46.67 C76.08,46.67 79.63,46.55 79.63,46.55" fill="none" stroke="rgb(0, 0, 0)" stroke-width="2.00" stroke-opacity="1.00" stroke-linejoin="round"/>
<path d="M31.94,57.32 C31.94,57.32 31.64,57.01 31.64,57.01 C31.64,57.01 33.06,59.08 33.06,59.08 C33.06,59.08 34.29,56.98 34.29,56.98 C34.29,56.98 37.27,58.73 37.27,58.73 C37.27,58.73 37.91,57.63 37.91,57.63" fill="none" stroke="rgb(0, 0, 0)" stroke-width="2.00" stroke-opacity="1.00" stroke-linejoin="round"/>
<path d="M45.68,58.09 C45.68,58.09 45.52,57.94 45.52,57.94 C45.61,57.93 48.09,58.54 48.61,58.19 C49.48,57.58 50.15,57.48 50.37,57.53 C50.42,57.54 50.67,57.61 51.11,57.74" fill="none" stroke="rgb(0, 0, 0)" stroke-width="2.00" stroke-opacity="1.00" stroke-linejoin="round"/>
<path d="M58.80,55.16 C58.80,55.16 58.33,55.20 58.33,55.20 C58.33,55.20 60.37,57.91 60.37,57.91 C60.95,57.79 62.93,56.03 63.53,55.80 C63.97,55.65 67.75,57.15 68.43,56.74 C69.85,55.80 74.59,55.86 76.44,56.15" fill="none" stroke="rgb(0, 0, 0)" stroke-width="2.00" stroke-opacity="1.00" stroke-linejoin="round"/>
<path d="M31.02,67.04 C31.02,67.04 30.71,67.04 30.71,67.04 C30.71,67.04 33.26,69.02 33.26,69.02 C33.26,69.02 34.53,67.00 34.53,67.00 C36.75,68.01 36.98,67.87 37.11,67.68 C37.16,67.61 37.28,67.42 37.46,67.12" fill="none" stroke="rgb(0, 0, 0)" stroke-width="2.00" stroke-opacity="1.00" stroke-linejoin="round"/>
<path d="M45.37,67.97 C45.37,67.97 45.28,67.97 45.28,67.97 C50.11,67.98 53.36,67.17 54.46,67.54 C54.57,67.57 54.74,67.60 54.97,67.64" fill="none" stroke="rgb(0, 0, 0)" stroke-width="2.00" stroke-opacity="1.00" stroke-linejoin="round"/>
<path d="M61.73,66.27 C61.73,66.27 61.27,65.96 61.27,65.96 C61.27,65.96 64.23,67.76 64.23,67.76 C64.23,67.76 66.49,65.91 66.49,65.91 C66.49,65.91 69.16,67.38 69.16,67.38 C69.16,67.38 71.41,66.05 71.41,66.05 C71.77,66.18 72.13,66.31 72.49,66.43 C72.85,66.56 73.21,66.69 73.57,66.82" fill="none" stroke="rgb(0, 0, 0)" stroke-width="2.00" stroke-opacity="1.00" stroke-linejoin="round"/>
<path d="M47.07,75.99 C47.07,75.99 46.91,75.99 46.91,75.99 C46.91,75.99 48.63,76.25 48.63,76.25 C48.63,76.25 49.41,75.20 49.41,75.20 C49.41,75.20 52.18,75.95 52.18,75.95 C52.18,75.95 53.01,75.46 53.01,75.46" fill="none" stroke="rgb(0, 0, 0)" stroke-width="2.00" stroke-opacity="1.00" stroke-linejoin="round"/>
<path d="M43.21,75.38 C43.21,75.38 43.06,75.45 43.06,75.45 C43.68,75.92 43.91,76.04 44.14,75.99 C44.19,75.98 44.28,75.98 44.43,75.99" fill="none" stroke="rgb(0, 0, 0)" stroke-width="2.00" stroke-opacity="1.00" stroke-linejoin="round"/>
<path d="M62.20,74.91 C62.20,74.91 62.04,74.76 62.04,74.76 C63.10,75.73 64.11,76.15 64.71,76.02 C65.08,75.94 67.77,74.30 68.73,74.54 C72.05,75.39 75.83,74.72 76.05,74.69 C77.29,74.53 78.44,74.66 79.48,74.83" fill="none" stroke="rgb(0, 0, 0)" stroke-width="2.00" stroke-opacity="1.00" stroke-linejoin="round"/>
<path d="M32.72,76.92 C33.32,76.79 34.58,76.75 37.59,76.77 C38.02,76.77 38.32,76.77 38.48,76.77" fill="none" stroke="rgb(0, 0, 0)" stroke-width="2.00" stroke-opacity="1.00" stroke-linejoin="round"/>
</g>
</svg>
