<?xml version="1.0" encoding="UTF-8" standalone="no"?>
<!DOCTYPE svg PUBLIC "-//W3C//DTD SVG 1.1//EN" "http://www.w3.org/Graphics/SVG/1.1/DTD/svg11.dtd">
<svg width="105.00" height="100.00" viewBox="0.00 0.00 105.00 100.00" xmlns="http://www.w3.org/2000/svg" xmlns:xlink="http://www.w3.org/1999/xlink">
<g stroke-linecap="round" id="圖層_12">
<path d="M22.97,21.12 C22.40,21.39 21.65,22.28 21.47,22.49 C17.31,27.60 13.19,35.97 12.83,37.46 C12.52,38.73 11.17,45.39 11.12,48.51 C11.11,54.50 11.65,60.48 13.60,65.62 C14.61,68.38 16.27,71.58 18.27,75.17 C19.43,77.23 21.75,79.85 23.03,81.41 C23.90,82.46 26.00,83.57 26.21,83.74 C26.34,83.85 26.64,84.12 27.11,84.57" fill="none" stroke="rgb(0, 0, 0)" stroke-width="3.00" stroke-opacity="1.00" stroke-linejoin="round"/>
<path d="M24.66,19.42 C24.66,19.42 24.36,19.26 24.36,19.26 C24.89,18.31 31.71,14.66 33.31,13.72 C35.80,12.25 43.60,10.01 49.66,9.28 C50.88,9.20 54.81,8.83 58.13,9.35 C62.90,10.14 67.11,11.69 67.53,12.05 C67.63,12.14 67.74,12.24 67.86,12.35" fill="none" stroke="rgb(0, 0, 0)" stroke-width="3.00" stroke-opacity="1.00" stroke-linejoin="round"/>
<path d="M28.33,85.37 C28.53,85.37 28.83,85.47 29.35,85.82 C33.19,88.40 45.19,92.13 50.13,92.76 C53.13,93.16 62.14,90.99 68.40,88.79 C72.47,87.39 79.38,82.26 81.02,80.50 C81.25,80.25 81.46,79.98 81.66,79.68" fill="none" stroke="rgb(0, 0, 0)" stroke-width="3.00" stroke-opacity="1.00" stroke-linejoin="round"/>
<path d="M69.48,13.54 C69.48,13.54 69.32,13.38 69.32,13.38 C69.69,13.48 70.04,13.62 70.38,13.79 C74.43,15.88 84.57,25.51 85.94,27.64 C87.80,30.56 91.26,38.12 91.58,39.24 C92.80,43.77 92.90,55.02 91.57,59.72 C89.52,66.89 86.00,75.23 83.08,78.20 C82.94,78.34 82.52,78.62 82.34,78.84" fill="none" stroke="rgb(0, 0, 0)" stroke-width="3.00" stroke-opacity="1.00" stroke-linejoin="round"/>
<path d="M24.51,27.64 C24.51,27.64 24.12,27.69 24.12,27.69 C22.15,30.05 18.57,38.72 17.60,46.07 C17.28,48.54 17.23,55.93 17.48,58.09 C17.84,61.00 19.38,65.68 20.47,68.02 C21.69,70.57 25.46,75.45 27.66,77.43 C29.19,78.80 33.41,81.97 34.48,82.51 C35.07,82.79 35.66,83.08 36.25,83.36" fill="none" stroke="rgb(0, 0, 0)" stroke-width="2.00" stroke-opacity="1.00" stroke-linejoin="round"/>
<path d="M25.30,26.08 C25.40,26.05 28.08,23.85 29.14,22.99 C30.28,22.11 36.27,18.33 37.20,17.91 C41.96,15.83 52.47,14.37 53.54,14.89 C53.68,14.96 54.03,15.18 54.60,15.54" fill="none" stroke="rgb(0, 0, 0)" stroke-width="2.00" stroke-opacity="1.00" stroke-linejoin="round"/>
<path d="M54.96,15.05 C55.46,15.02 57.59,15.40 59.91,15.60 C62.77,15.87 67.03,17.77 69.71,19.83 C69.94,20.01 78.44,26.95 79.24,27.81 C80.61,29.33 81.53,30.79 82.34,32.18" fill="none" stroke="rgb(0, 0, 0)" stroke-width="2.00" stroke-opacity="1.00" stroke-linejoin="round"/>
<path d="M82.81,32.99 C82.79,32.96 84.24,35.35 85.11,38.10 C85.98,40.95 86.53,44.73 86.83,48.56 C86.96,50.42 87.17,53.46 87.24,54.86 C87.27,55.33 87.29,55.81 87.31,56.29" fill="none" stroke="rgb(0, 0, 0)" stroke-width="2.00" stroke-opacity="1.00" stroke-linejoin="round"/>
<path d="M37.29,83.64 C37.29,83.64 37.37,83.87 37.37,83.87 C37.58,84.07 43.30,86.31 43.52,86.37 C45.19,86.82 50.73,87.16 53.62,86.90 C55.94,86.68 60.62,85.70 64.23,84.34 C67.47,83.10 73.57,79.18 76.53,77.16 C77.16,76.72 78.81,75.50 80.17,73.25 C81.48,71.04 83.65,68.25 84.16,67.22 C84.43,66.67 86.42,58.98 86.37,58.41 C86.34,58.16 86.19,57.74 85.91,57.17" fill="none" stroke="rgb(0, 0, 0)" stroke-width="2.00" stroke-opacity="1.00" stroke-linejoin="round"/>
<path d="M49.98,22.20 C49.98,22.20 49.98,22.04 49.98,22.04 C49.98,22.04 50.76,55.99 50.76,55.99" fill="none" stroke="rgb(0, 0, 0)" stroke-width="2.00" stroke-opacity="1.00" stroke-linejoin="round"/>
<path d="M50.78,55.72 C50.78,55.72 51.07,22.82 51.07,22.82 C51.07,22.82 51.08,55.21 51.08,55.21" fill="none" stroke="rgb(0, 0, 0)" stroke-width="2.00" stroke-opacity="1.00" stroke-linejoin="round"/>
<path d="M50.91,53.47 C50.91,53.47 50.14,41.02 50.14,41.02 C50.14,41.02 49.98,54.95 49.98,54.95 C49.98,54.95 50.45,47.82 50.45,47.82 C50.45,47.82 50.14,55.88 50.14,55.88" fill="none" stroke="rgb(0, 0, 0)" stroke-width="2.00" stroke-opacity="1.00" stroke-linejoin="round"/>
<path d="M51.54,53.40 C51.54,53.40 51.38,53.40 51.38,53.40 C51.38,53.40 68.17,45.03 68.17,45.03 C67.19,45.45 55.85,52.94 51.25,55.04 C50.83,55.23 50.72,55.27 50.61,55.26 C50.61,55.27 50.66,55.27 50.74,55.26 C50.82,55.25 51.05,55.21 51.42,55.14" fill="none" stroke="rgb(0, 0, 0)" stroke-width="2.00" stroke-opacity="1.00" stroke-linejoin="round"/>
<path d="M50.86,56.19 C50.86,56.19 51.86,56.07 51.86,56.07" fill="none" stroke="rgb(255, 255, 255)" stroke-width="2.00" stroke-opacity="1.00" stroke-linejoin="round"/>
</g>
</svg>
