<?xml version="1.0" encoding="UTF-8" standalone="no"?>
<!DOCTYPE svg PUBLIC "-//W3C//DTD SVG 1.1//EN" "http://www.w3.org/Graphics/SVG/1.1/DTD/svg11.dtd">
<svg width="105.00" height="100.00" viewBox="0.00 0.00 105.00 100.00" xmlns="http://www.w3.org/2000/svg" xmlns:xlink="http://www.w3.org/1999/xlink">
<g stroke-linecap="round" id="圖層_6">
<path d="M39.09,65.29 C39.02,65.64 38.21,66.27 34.95,66.56 C32.97,66.72 27.98,66.61 26.07,66.06 C23.74,65.34 18.78,61.56 16.77,58.83 C13.81,54.72 10.54,45.36 10.09,41.01 C9.87,38.75 10.05,34.40 10.48,32.30 C11.36,28.13 16.12,19.17 19.56,15.78 C21.45,13.94 26.09,10.83 28.66,9.69 C31.16,8.60 37.03,7.04 39.88,6.69 C42.79,6.36 48.78,6.57 51.52,7.14 C54.33,7.75 59.88,10.04 62.37,11.59 C64.82,13.13 68.95,16.87 70.54,19.00 C72.12,21.17 74.39,26.02 75.16,28.78 C75.87,31.37 76.55,36.57 76.57,39.33 C76.58,41.97 75.66,47.06 74.71,49.54 C73.86,51.68 70.46,57.06 67.98,59.52 C66.43,61.03 61.06,64.67 58.37,65.57 C56.14,66.29 52.79,66.28 51.90,66.18 C51.64,66.15 51.09,66.07 50.25,65.94" fill="none" stroke="rgb(0, 0, 0)" stroke-width="2.00" stroke-opacity="1.00" stroke-linejoin="round"/>
<path d="M38.25,67.50 C38.25,67.50 38.25,67.00 38.25,67.00 C38.04,67.20 37.62,67.55 37.37,68.00 C34.92,72.58 30.17,89.03 30.58,92.87 C30.62,93.19 30.79,93.45 31.08,93.65 C31.08,93.65 31.61,93.55 31.61,93.55" fill="none" stroke="rgb(0, 0, 0)" stroke-width="2.00" stroke-opacity="1.00" stroke-linejoin="round"/>
<path d="M50.50,66.50 C50.89,66.65 52.10,67.84 53.35,69.41 C59.83,77.63 62.39,91.39 62.75,93.69 C62.75,93.71 62.75,93.77 62.75,93.75" fill="none" stroke="rgb(0, 0, 0)" stroke-width="2.00" stroke-opacity="1.00" stroke-linejoin="round"/>
<path d="M52.25,68.00 C52.29,68.02 53.53,69.02 54.08,69.36 C57.10,71.22 64.54,73.33 67.55,73.54 C69.23,73.63 72.48,73.22 73.93,72.68 C76.86,71.53 81.68,66.68 83.83,63.33 C84.75,61.86 85.73,58.78 85.66,57.68" fill="none" stroke="rgb(0, 0, 0)" stroke-width="2.00" stroke-opacity="1.00" stroke-linejoin="round"/>
<path d="M89.62,57.90 C89.11,60.02 87.54,63.93 86.01,66.27 C84.20,68.99 81.51,71.87 79.56,72.88 C78.46,73.42 69.70,75.40 69.52,75.42 C62.44,75.99 57.08,74.33 56.64,73.75 C56.39,73.41 56.15,73.07 55.90,72.72" fill="none" stroke="rgb(0, 0, 0)" stroke-width="2.00" stroke-opacity="1.00" stroke-linejoin="round"/>
<path d="M55.50,71.25 C55.50,71.25 55.25,71.25 55.25,71.25 C55.32,71.23 55.71,71.50 56.36,72.03 C60.20,75.10 64.70,74.94 66.48,74.75 C66.48,74.75 56.79,72.50 56.79,72.50 C56.79,72.50 67.92,75.25 67.92,75.25 C67.92,75.25 57.79,75.71 57.79,75.71 C59.76,76.66 73.39,76.11 74.71,75.17 C74.93,74.98 75.16,74.80 75.38,74.62" fill="none" stroke="rgb(0, 0, 0)" stroke-width="2.00" stroke-opacity="1.00" stroke-linejoin="round"/>
<path d="M62.25,75.50 C62.25,75.50 62.00,75.50 62.00,75.50 C63.13,75.86 64.17,76.02 66.24,76.13 C73.82,76.47 78.28,74.73 79.39,74.30" fill="none" stroke="rgb(0, 0, 0)" stroke-width="2.00" stroke-opacity="1.00" stroke-linejoin="round"/>
<path d="M73.75,76.00 C73.80,75.99 75.23,75.91 77.89,73.77 C81.63,70.75 85.85,65.26 86.00,65.02 C86.00,65.02 77.58,73.17 77.58,73.17 C77.58,73.17 85.48,64.08 85.48,64.08 C85.48,64.08 78.83,71.17 78.83,71.17 C78.83,71.17 87.98,58.52 87.98,58.52 C87.98,58.52 86.00,61.18 86.00,61.18 C86.00,61.18 87.32,57.76 87.32,57.76" fill="none" stroke="rgb(0, 0, 0)" stroke-width="2.00" stroke-opacity="1.00" stroke-linejoin="round"/>
<path d="M87.68,58.62 C87.68,58.62 87.39,59.56 87.39,59.56" fill="none" stroke="rgb(0, 0, 0)" stroke-width="2.00" stroke-opacity="1.00" stroke-linejoin="round"/>
<path d="M86.50,63.25 C86.46,63.21 86.04,64.06 85.71,64.75 C85.62,64.92 85.24,65.59 84.56,66.78 C84.14,67.52 83.88,67.99 83.79,68.18 C83.73,68.30 83.72,68.39 83.75,68.45" fill="none" stroke="rgb(0, 0, 0)" stroke-width="2.00" stroke-opacity="1.00" stroke-linejoin="round"/>
<path d="M74.25,75.25 C73.90,75.86 70.58,76.87 68.46,77.31 C65.85,77.83 60.69,78.05 56.79,77.54 C56.34,77.48 55.81,77.39 55.20,77.28" fill="none" stroke="rgb(0, 0, 0)" stroke-width="2.00" stroke-opacity="1.00" stroke-linejoin="round"/>
<path d="M80.25,69.25 C79.93,69.26 74.50,71.78 72.18,72.31 C71.07,72.55 68.20,72.74 66.23,72.71 C65.58,72.69 64.45,72.63 62.86,72.52" fill="none" stroke="rgb(0, 0, 0)" stroke-width="2.00" stroke-opacity="1.00" stroke-linejoin="round"/>
<path d="M32.50,93.75 C32.50,93.75 62.34,93.26 62.34,93.26 C62.34,93.26 62.47,93.45 62.47,93.45" fill="none" stroke="rgb(0, 0, 0)" stroke-width="2.00" stroke-opacity="1.00" stroke-linejoin="round"/>
<path d="M35.00,23.00 C35.00,23.00 30.64,18.92 30.64,18.92 C30.34,20.60 31.44,24.99 32.82,28.61 C34.30,32.46 37.34,39.04 37.68,39.67 C39.67,43.31 44.11,48.95 46.19,50.51 C49.54,52.96 53.47,54.00 55.05,53.58 C56.62,53.12 58.48,50.76 58.89,48.71 C59.24,46.71 58.55,40.76 57.70,37.60 C56.97,35.03 54.65,29.84 53.22,27.60 C51.54,25.02 47.42,20.51 45.71,19.48 C43.92,18.46 41.08,18.25 40.10,19.19 C39.07,20.27 38.48,25.10 39.15,28.48 C40.16,33.44 44.22,42.18 46.95,45.94 C48.62,48.17 53.15,52.17 56.27,53.54 C57.52,54.06 61.27,54.66 63.01,54.20 C64.84,53.68 67.10,51.03 67.64,48.81 C68.14,46.61 67.94,40.94 67.27,37.96 C66.51,34.78 63.99,29.44 62.10,27.01 C60.27,24.71 56.15,21.66 53.63,20.68 C51.42,19.86 46.39,19.31 44.86,19.83 C44.01,20.15 42.68,21.38 42.25,22.24 C41.42,24.07 41.85,29.78 43.20,33.74 C43.69,35.15 45.89,39.61 46.82,41.16 C49.18,44.99 53.38,49.83 55.66,51.46 C57.48,52.72 61.52,54.05 62.75,53.90 C64.00,53.70 65.52,51.32 65.68,49.43 C66.07,43.85 62.87,26.31 60.60,20.84 C59.44,18.12 56.87,14.54 55.44,13.74 C53.64,12.79 49.18,13.44 46.57,15.01 C41.86,17.93 34.83,27.04 32.57,30.74 C31.18,33.05 28.20,39.03 27.23,41.77 C26.19,44.85 26.43,46.01 27.19,47.56 C28.51,48.23 31.68,48.26 33.94,47.54 C36.47,46.70 41.86,42.99 44.81,40.12 C50.48,34.57 57.85,24.23 58.15,21.98 C58.15,21.98 56.94,20.60 56.94,20.60 C54.94,20.29 50.20,20.78 47.64,21.69 C44.45,22.87 39.56,26.12 37.38,28.17 C34.06,31.30 27.36,39.86 24.23,44.91 C20.28,51.34 17.79,57.33 17.50,59.25 C17.50,59.25 18.48,61.15 18.48,61.15 C19.92,61.56 23.50,60.61 25.92,59.12 C29.34,57.00 36.47,50.22 41.39,44.80 C60.28,23.25 60.88,22.07 61.23,20.85 C58.14,21.17 47.57,30.33 42.48,35.90 C30.78,48.96 26.86,56.74 26.52,58.72 C26.39,59.57 26.76,60.30 27.75,61.48 C29.02,61.75 31.65,60.61 34.00,58.71 C37.55,55.79 64.99,25.91 65.67,24.60 C63.42,24.37 51.30,34.97 46.32,40.34 C34.14,53.63 31.26,60.03 31.08,60.85 C31.08,60.85 31.69,62.25 31.69,62.25 C34.29,62.01 39.17,59.20 42.15,57.08 C51.28,50.53 69.15,32.99 71.06,30.12 C70.38,29.71 63.53,35.87 55.75,44.02 C41.21,59.40 38.82,63.95 38.10,65.58 C40.02,65.43 41.06,65.14 42.01,64.34 C49.04,58.32 70.95,37.69 71.60,37.17 C71.60,37.17 45.77,66.12 45.77,66.12 C47.58,66.55 56.93,58.41 64.69,51.26 C65.99,50.04 67.91,48.22 68.54,47.62 C68.54,47.62 54.62,60.92 54.62,60.92 C54.62,60.92 65.19,55.65 65.19,55.65 C65.19,55.65 59.56,60.23 59.56,60.23 C60.26,60.74 65.04,58.05 66.96,56.42 C69.71,54.02 70.23,52.38 69.79,51.42 C69.02,49.84 65.64,47.31 63.67,47.42 C61.64,47.59 57.94,50.81 57.29,52.65 C56.78,54.26 58.01,57.34 59.40,58.10 C60.76,58.79 64.11,57.94 65.73,56.42 C67.36,54.82 69.41,49.99 69.56,47.52 C69.67,45.53 68.91,41.60 68.08,40.10 C67.04,38.27 63.86,37.18 62.71,37.94 C61.70,38.67 61.17,42.22 61.54,44.17 C61.93,46.03 63.68,48.01 64.98,48.52 C66.11,48.93 67.71,48.58 68.25,47.48 C68.87,46.10 68.84,41.74 68.06,39.54 C67.25,37.35 65.96,36.12 65.33,35.75 C64.55,36.61 64.26,37.48 64.48,38.96 C64.91,41.83 66.75,46.43 67.96,47.62 C68.56,48.21 69.32,48.46 70.06,48.46 C71.12,47.80 72.02,44.62 71.77,42.46 C71.51,40.48 69.65,36.42 68.77,35.44 C67.89,34.50 66.30,34.64 65.50,34.98 C65.50,34.98 66.72,28.74 66.72,28.74 C67.84,28.90 68.54,29.35 69.08,30.48 C70.05,32.57 71.21,36.92 72.20,41.84 C72.20,41.84 68.33,23.08 68.33,23.08 C70.19,24.28 74.20,32.62 74.98,34.42 C74.98,34.42 67.31,18.65 67.31,18.65 C67.31,18.65 72.96,24.83 72.96,24.83" fill="none" stroke="rgb(0, 0, 0)" stroke-width="2.00" stroke-opacity="1.00" stroke-linejoin="round"/>
<path d="M72.59,25.20 C64.90,19.71 58.48,16.06 55.65,15.79 C59.42,18.37 62.63,19.66 64.33,19.71 C65.10,19.72 65.79,19.54 66.29,19.29 C66.25,18.32 65.98,17.74 65.12,17.10 C61.22,14.26 56.53,13.49 55.46,13.60 C55.46,13.60 64.90,17.00 64.90,17.00 C64.90,17.00 55.62,10.29 55.62,10.29 C55.62,10.29 61.31,11.00 61.31,11.00 C57.27,10.56 53.69,10.04 51.32,9.86 C47.63,9.62 43.19,10.13 41.85,10.98 C42.04,11.79 44.25,12.25 44.25,12.26 C44.24,12.53 44.31,13.35 44.45,14.72" fill="none" stroke="rgb(0, 0, 0)" stroke-width="2.00" stroke-opacity="1.00" stroke-linejoin="round"/>
<path d="M47.75,13.25 C46.81,12.04 44.60,11.52 41.75,11.85 C39.07,12.24 34.67,15.24 31.48,18.69 C28.31,22.16 24.83,27.99 24.34,29.56 C23.88,31.22 25.09,34.08 26.77,35.19 C28.18,36.06 31.73,36.94 33.58,36.75 C35.49,36.52 39.22,34.73 41.00,33.25 C44.28,30.45 47.02,25.33 47.10,24.42 C47.17,23.14 46.48,21.52 45.37,20.75 C43.03,19.21 36.25,18.29 33.59,18.70 C31.16,19.13 27.11,20.51 25.03,21.61 C20.60,23.98 17.09,27.86 16.42,29.34 C15.87,30.68 17.74,33.46 19.87,34.52 C21.58,35.32 25.77,36.32 27.73,36.37 C29.67,36.40 32.82,35.55 34.00,34.75 C35.22,33.87 37.00,30.73 36.58,28.87 C36.30,27.80 34.77,25.77 33.54,24.90 C31.21,23.29 24.43,21.48 22.69,21.44 C18.83,21.39 15.83,22.78 15.13,23.74 C14.31,24.95 14.10,28.80 14.71,30.77 C15.86,34.31 19.31,39.53 21.00,41.12 C22.73,42.72 25.88,44.58 27.44,45.04 C29.13,45.50 32.58,45.04 33.42,43.33 C33.86,42.35 34.02,39.59 33.73,38.00 C33.38,36.30 31.92,32.89 30.83,31.31 C29.71,29.74 26.89,27.07 25.31,26.08 C23.83,25.19 20.59,24.04 19.04,23.83 C17.34,23.62 15.42,23.92 13.67,24.50" fill="none" stroke="rgb(0, 0, 0)" stroke-width="2.00" stroke-opacity="1.00" stroke-linejoin="round"/>
<path d="M10.05,34.22 C10.62,37.87 12.30,42.54 14.44,45.35 C15.70,46.97 19.59,49.59 21.68,50.33 C23.60,50.98 26.96,51.22 28.35,50.84 C29.70,50.43 31.37,48.68 31.81,47.21 C32.18,45.92 32.21,41.09 31.29,38.17 C30.29,35.04 27.20,31.40 26.02,30.58 C24.45,29.54 21.59,29.03 20.16,29.61 C18.76,30.24 16.47,32.92 15.54,34.98 C14.69,36.92 13.61,41.49 13.48,43.59 C13.38,45.69 13.96,48.85 14.70,50.32 C15.06,50.98 16.41,52.27 17.29,52.73 C19.09,53.61 22.37,52.14 23.50,50.71 C25.49,48.08 27.90,38.40 27.33,35.17 C27.25,34.75 26.62,32.83 26.27,32.48 C25.38,31.64 23.90,31.05 23.14,31.23 C21.58,31.68 19.33,33.49 18.22,35.18 C15.88,38.84 13.72,47.41 13.85,50.48 C13.85,50.48 14.67,51.40 14.67,51.40 C16.37,51.41 19.26,48.81 20.21,46.92 C21.53,44.20 23.28,38.74 24.10,35.30 C24.96,31.56 24.93,27.35 24.12,25.90 C24.12,25.90 22.42,25.21 22.42,25.21 C21.08,25.56 19.14,27.60 18.29,29.77 C17.43,32.07 16.43,38.52 16.33,42.10 C16.26,45.68 17.01,51.73 17.79,53.77 C18.57,55.72 20.92,57.72 22.35,57.90 C23.75,58.03 26.64,56.72 27.90,55.33 C29.15,53.91 31.03,49.81 31.56,47.46 C32.07,45.11 32.11,40.53 31.60,38.56 C31.07,36.59 28.95,33.56 27.50,32.69 C26.01,31.84 22.93,31.87 21.71,32.87 C20.44,33.98 19.19,38.04 19.42,40.71 C19.70,43.50 22.09,49.51 24.10,52.48 C26.10,55.36 30.87,60.10 33.29,61.62 C35.57,63.02 39.73,64.18 41.50,64.02 C43.46,63.78 46.12,61.61 46.14,60.23 C46.08,58.44 44.48,54.47 42.73,51.60 C39.14,45.81 29.20,34.09 26.58,33.27 C26.28,33.18 25.50,33.03 24.23,32.83 C23.41,34.20 23.17,35.14 23.48,36.42 C24.20,39.25 26.63,44.48 28.78,47.74 C30.92,50.93 35.56,56.17 37.79,57.88 C39.85,59.41 43.90,61.02 45.47,61.03 C47.05,60.99 49.32,59.62 49.96,58.29 C50.65,56.77 50.56,53.07 49.68,50.44 C47.88,45.22 39.17,32.36 35.26,28.85 C33.35,27.18 32.02,26.76 31.31,26.73 C30.62,28.03 30.47,29.03 30.83,30.53 C31.92,34.88 37.13,44.88 40.12,48.59 C41.93,50.81 46.44,54.53 48.17,55.35 C50.08,56.24 53.80,56.53 54.46,55.98 C55.34,55.19 56.10,53.61 56.06,52.56 C55.83,48.73 51.51,37.58 48.43,31.64 C45.78,26.55 41.25,19.70 39.42,18.02 C38.75,19.87 45.06,32.77 47.22,36.35 C50.92,42.44 57.98,51.14 61.02,52.35 C61.67,51.52 60.09,45.77 58.62,42.13 C57.02,38.27 53.98,32.28 51.65,28.60 C47.15,21.62 43.44,19.06 42.44,18.44 C42.44,18.44 40.96,18.65 40.96,18.65 C40.57,21.44 45.33,30.72 48.31,35.49 C50.12,38.36 58.53,49.55 63.06,53.50 C63.85,54.18 64.44,54.40 65.46,54.58 C65.97,52.78 61.75,37.61 59.86,32.28 C56.92,24.18 51.94,14.50 49.85,12.65 C49.16,13.63 49.04,14.45 49.61,15.81 C52.14,21.82 65.54,45.05 67.62,47.12 C68.19,44.62 66.90,37.72 66.25,35.13 C62.61,20.69 57.89,15.15 57.21,14.54 C57.21,14.54 71.46,41.83 71.46,41.83 C71.46,41.83 65.58,20.25 65.58,20.25 C65.58,20.25 71.94,37.67 71.94,37.67 C71.94,37.67 69.33,24.77 69.33,24.77 C69.33,24.77 74.21,41.65 74.21,41.65 C74.21,41.65 73.00,34.06 73.00,34.06 C73.00,34.06 73.98,47.83 73.98,47.83 C72.46,46.99 72.21,41.85 72.50,42.06 C72.50,42.06 71.79,53.83 71.79,53.83 C71.79,53.83 72.40,48.71 72.40,48.71 C72.43,50.03 71.18,53.06 70.00,54.52 C67.79,57.22 66.62,57.75 66.48,57.69 C66.48,57.69 69.23,50.83 69.23,50.83 C69.23,50.83 60.02,61.15 60.02,61.15 C60.02,61.15 63.44,58.06 63.44,58.06 C62.20,60.01 58.14,61.40 56.90,61.27 C56.29,61.20 53.28,59.34 52.25,59.04 C51.98,59.58 54.48,61.32 56.52,62.08 C58.97,62.98 62.38,63.25 63.52,62.71 C63.51,61.67 63.21,61.11 62.31,60.83 C60.61,60.33 57.21,60.62 55.33,61.40 C53.92,62.00 52.35,63.38 52.40,63.44 C56.54,63.82 62.73,61.27 62.77,61.10 C57.14,63.47 50.58,65.35 47.69,65.56 C46.71,65.61 44.63,61.24 44.17,60.71 C43.11,59.52 40.55,58.35 39.27,58.40 C36.04,58.61 34.37,62.79 34.54,63.65 C35.18,63.33 35.24,62.98 34.58,62.27 C32.04,59.56 25.82,57.13 24.35,57.58 C24.33,58.92 24.61,59.82 25.48,60.75 C28.75,64.21 31.03,63.47 31.46,63.12 C31.20,61.90 30.81,61.23 29.94,60.77 C25.96,58.73 24.09,59.27 23.67,59.60 C23.25,60.63 23.81,62.41 25.15,63.00 C26.50,63.55 30.92,63.46 32.27,63.29 C32.27,63.29 25.42,61.69 25.42,61.69 C25.34,62.17 26.27,62.79 28.62,63.62 C32.64,65.05 34.53,65.49 34.50,65.40 C30.85,62.59 25.72,55.48 21.25,47.23 C21.09,46.93 20.98,46.86 20.94,47.02 C20.46,49.84 22.69,55.99 23.85,57.83 C23.85,57.83 21.29,53.56 21.29,53.56 C21.29,54.68 21.99,56.08 23.15,56.42 C24.63,56.79 28.77,55.88 31.00,54.35 C32.69,53.17 42.52,43.24 44.40,42.31 C44.76,44.17 44.69,45.64 44.00,47.79 C42.88,51.23 40.83,56.38 39.42,59.37 C39.42,59.37 43.15,45.92 43.15,45.92 C41.83,45.65 40.88,45.94 39.94,47.15 C36.33,51.79 35.97,55.31 36.12,55.94 C37.04,56.50 39.57,55.68 40.40,54.27 C41.24,52.74 40.85,49.80 39.48,48.58 C37.92,47.26 36.12,46.53 35.27,46.35 C34.67,47.99 34.63,49.31 35.31,50.92 C36.42,53.48 38.40,55.41 39.42,55.62 C40.05,54.70 38.89,52.25 36.01,49.05 C32.14,44.78 29.38,41.42 27.52,38.25 C25.88,35.41 24.94,31.80 25.67,30.10 C27.01,27.12 34.90,20.69 36.31,19.62 C36.31,19.62 25.67,26.67 25.67,26.67 C24.91,25.75 25.11,21.93 26.10,20.08 C28.66,15.55 33.01,14.82 33.92,14.87 C34.73,16.19 34.95,17.12 34.46,18.12 C33.50,20.02 29.92,22.70 27.04,23.90 C25.04,24.71 20.88,25.79 19.38,25.69 C18.45,25.61 17.19,24.80 16.92,24.17 C16.45,22.89 18.25,19.79 20.46,17.83 C26.55,12.53 29.15,12.00 29.88,12.06 C30.56,12.57 30.68,14.12 30.00,15.04 C27.37,18.43 21.10,20.28 18.90,20.23 C19.65,17.16 30.24,13.75 31.27,14.00 C32.48,15.06 22.45,21.94 22.54,21.90 C25.59,19.07 27.71,12.38 27.96,12.17 C27.96,12.17 37.42,18.71 37.42,18.71 C37.42,18.71 32.33,9.46 32.33,9.46 C32.33,9.46 41.92,16.23 41.92,16.23 C36.21,12.60 34.12,8.82 34.27,8.58 C34.80,8.23 37.58,8.76 39.42,9.77 C41.69,11.06 46.23,15.40 47.56,17.58 C48.73,19.55 48.87,20.94 48.77,21.42 C46.97,21.15 43.83,18.06 42.04,15.73 C40.05,13.09 38.11,9.58 37.79,8.19 C37.79,8.19 45.58,18.48 45.58,18.48 C43.54,17.05 41.00,10.71 41.02,9.62 C42.25,9.18 43.19,9.16 44.19,9.71 C46.03,10.76 49.18,14.22 50.85,16.10 C50.85,16.10 44.38,9.83 44.38,9.83 C44.85,9.09 46.64,8.45 47.92,8.65 C49.22,8.88 51.36,10.57 52.33,12.15 C53.25,13.69 53.49,16.08 53.33,16.25 C51.95,16.26 49.76,13.86 49.00,12.17 C48.27,10.51 47.82,8.89 47.88,8.35 C49.35,9.05 52.71,11.63 54.77,12.97 C57.28,14.61 59.88,16.97 60.48,18.67 C61.07,20.44 60.73,25.37 59.87,27.56 C59.00,29.73 56.92,32.46 56.29,32.52 C56.04,31.78 57.01,28.39 58.19,26.27 C59.35,24.23 61.32,22.44 62.60,22.27 C63.05,23.17 62.04,26.44 60.62,28.58 C58.99,31.01 55.67,33.79 53.75,34.12 C53.75,34.12 52.48,33.52 52.48,33.52 C51.45,31.67 51.40,24.32 51.40,23.31 C51.39,21.69 51.19,20.69 50.83,19.98 C49.33,22.02 48.86,27.55 48.81,29.46 C48.68,35.63 49.13,42.57 50.23,43.62 C51.62,42.89 52.36,42.06 52.71,40.50 C53.30,37.83 53.47,34.31 53.52,30.48 C53.89,33.41 54.65,39.54 54.87,42.19 C55.04,44.44 54.47,47.02 53.04,47.40 C51.33,47.74 46.74,45.90 43.56,44.03 C37.67,40.59 26.45,34.08 22.19,32.75 C20.74,32.30 19.27,32.17 18.27,32.25 C17.84,33.83 17.92,35.23 18.73,37.66 C21.58,46.17 23.57,47.44 24.15,47.56 C24.64,46.43 24.68,45.51 24.10,44.25 C22.99,41.87 19.11,36.38 17.38,34.65 C15.81,33.12 13.53,32.41 12.71,32.81 C11.92,33.27 11.86,36.03 12.94,38.02 C13.54,39.10 15.01,40.67 15.81,41.10 C16.55,41.47 17.84,41.38 18.35,40.96 C19.25,40.15 19.74,36.76 19.10,35.56 C17.30,32.37 13.55,32.20 12.90,32.40 C12.22,33.35 11.96,37.40 12.35,38.96 C12.85,40.71 16.11,43.22 19.65,45.02 C23.32,46.87 31.16,50.80 32.98,52.15 C35.79,54.28 41.02,61.86 41.44,62.44 C41.44,62.44 39.35,54.79 39.35,54.79 C40.32,54.36 46.69,80.47 46.90,80.87 C47.34,77.51 42.77,62.45 41.60,61.12 C41.46,60.97 41.13,60.69 40.60,60.29 C39.87,61.27 40.14,66.11 40.56,68.90 C40.97,71.42 42.35,76.67 42.96,78.23 C45.68,84.98 49.69,86.81 50.42,86.96 C51.19,85.53 51.46,84.25 51.17,82.35 C50.40,77.54 45.30,62.72 44.25,61.54 C43.85,63.88 48.92,80.84 51.44,85.02 C52.14,86.17 52.97,86.85 53.65,87.08 C54.78,84.89 54.21,79.97 53.81,77.73 C52.52,70.59 50.61,64.18 50.25,63.23 C50.07,72.66 56.86,83.94 57.31,84.10 C57.31,84.10 53.35,70.17 53.35,70.17 C53.35,70.17 56.77,82.69 56.77,82.69 C54.95,81.56 49.40,74.21 48.15,72.83 C45.87,70.34 44.84,69.93 43.46,69.52 C43.46,69.52 42.23,70.29 42.23,70.29 C41.22,72.57 40.93,78.95 41.06,82.40 C41.12,83.94 41.46,84.91 41.96,85.52 C41.96,85.52 42.94,85.29 42.94,85.29 C44.39,83.66 45.87,78.08 45.83,74.06 C45.72,67.13 43.35,64.63 42.27,64.19 C41.12,64.38 40.02,65.07 39.40,66.29 C38.29,68.53 37.69,76.28 37.85,80.17 C38.01,83.17 38.62,84.10 39.15,84.46 C40.35,84.42 42.63,81.67 43.79,78.40 C44.62,76.01 45.53,71.29 45.19,70.04 C44.95,69.27 43.50,68.37 42.54,68.29 C40.62,68.20 38.10,70.47 37.58,71.94 C35.66,77.77 36.29,86.11 36.79,86.71 C37.58,86.51 39.29,83.57 40.23,80.40 C42.04,74.20 41.71,71.69 41.27,70.96 C39.93,70.39 37.11,71.81 35.69,73.90 C34.19,76.19 33.14,80.75 33.15,82.71 C33.21,84.61 34.19,87.41 35.73,88.27 C37.30,88.31 39.57,85.88 40.46,83.56 C41.28,81.34 41.03,79.97 40.69,79.35 C39.67,78.75 37.41,79.32 36.31,80.65 C35.32,81.89 33.90,85.56 33.65,87.25 C33.43,88.93 34.40,90.62 35.73,90.79 C37.06,90.91 39.18,89.01 39.67,87.48 C40.07,86.08 39.03,84.25 37.69,83.94 C36.32,83.66 34.21,84.54 33.81,85.81 C33.45,87.08 33.82,90.34 34.50,90.94 C35.24,91.52 38.52,91.33 40.00,90.75 C40.00,90.75 31.10,88.77 31.10,88.77 C30.86,90.06 32.48,91.96 33.29,92.58 C34.32,93.36 35.87,93.76 36.28,93.48 C36.76,92.27 33.43,88.26 32.31,88.66 C31.89,89.08 32.00,90.62 32.79,91.61 C33.77,92.81 36.61,93.85 37.92,93.54 C39.23,93.19 40.93,91.27 40.81,90.27 C40.49,88.27 36.63,87.08 35.94,86.96 C35.81,88.24 39.04,91.41 41.06,92.50 C43.25,93.64 46.65,93.80 47.48,92.75 C48.31,91.58 47.63,88.03 46.10,86.25 C44.75,84.72 41.72,82.81 40.87,82.67 C41.30,84.61 46.10,89.66 48.23,90.77 C49.74,91.52 51.84,91.79 52.62,91.60 C52.53,90.17 49.33,87.48 47.02,86.35 C44.45,85.13 42.99,85.18 42.42,85.44 C42.18,86.38 44.50,89.44 46.83,91.02 C51.91,94.40 54.84,93.15 55.23,92.73 C55.20,91.57 52.56,89.23 49.87,88.27 C44.68,86.49 42.15,88.07 41.75,88.52 C42.35,89.60 43.01,90.15 44.27,90.42 C46.19,90.81 52.34,91.01 53.83,90.85 C55.82,90.62 57.78,89.14 57.83,87.92 C57.83,86.55 55.27,83.65 53.31,82.62 C51.66,81.78 50.26,81.30 50.19,81.50 C50.29,83.41 56.20,90.60 57.69,90.65 C59.41,88.98 57.66,83.12 57.50,82.79 C57.50,82.79 60.52,89.67 60.52,89.67 C60.52,89.67 60.85,84.56 60.85,84.56 C60.85,84.56 58.71,90.94 58.71,90.94 C57.55,90.39 55.19,85.04 53.92,82.14 C50.65,74.43 48.50,63.90 48.33,63.27 C48.33,63.27 50.83,72.94 50.83,72.94 C50.83,72.94 52.65,70.29 52.65,70.29 C51.83,69.37 46.71,68.18 46.17,67.54 C45.28,66.40 44.33,63.20 44.04,60.70 C43.77,58.38 43.08,52.45 43.10,51.33 C43.14,50.61 45.82,49.82 48.17,49.87 C48.76,49.89 55.71,50.30 55.79,49.98 C55.79,49.98 47.58,48.92 47.58,48.92 C47.95,49.22 52.00,49.52 54.85,49.08 C58.30,48.52 63.85,45.71 65.77,43.46 C67.42,41.46 68.85,37.15 68.96,34.67 C69.03,32.37 68.52,29.74 68.06,29.21 C67.67,32.35 72.35,40.94 73.10,42.06 C70.13,37.97 63.12,32.77 61.60,31.69 C61.70,31.67 66.41,33.64 67.77,33.81 C69.78,34.04 72.15,33.04 72.27,31.67 C72.34,30.16 70.19,26.21 68.31,24.54 C66.20,22.74 60.74,21.25 56.94,21.71 C53.75,22.12 47.40,24.29 44.88,25.19 C44.96,24.81 48.11,19.81 49.08,16.48 C49.61,14.59 48.92,12.37 47.71,12.00 C46.51,11.65 44.49,11.32 43.35,11.25 C43.35,11.25 55.35,12.31 55.35,12.31 C53.85,13.75 51.52,12.18 51.10,11.75 C51.53,10.93 52.12,10.56 53.19,10.71 C55.36,11.05 59.15,13.75 60.50,15.77 C61.50,17.33 61.69,19.43 60.96,19.98 C60.18,20.51 56.80,20.85 56.62,20.67 C56.62,20.67 62.94,15.75 62.94,15.75 C62.94,15.75 60.69,15.98 60.69,15.98 C60.69,15.98 64.01,15.71 64.01,15.71 C63.82,16.31 63.39,16.45 61.61,16.20 C57.40,15.65 53.89,15.90 52.87,16.49 C52.42,16.75 52.06,17.23 51.91,17.61 C51.91,17.61 56.83,14.25 56.83,14.25 C54.93,14.90 52.59,17.57 50.13,21.60 C47.87,25.31 44.78,29.74 43.06,31.46 C42.89,31.63 42.58,32.00 42.14,32.56" fill="none" stroke="rgb(0, 0, 0)" stroke-width="2.00" stroke-opacity="1.00" stroke-linejoin="round"/>
<path d="M17.00,54.00 C17.00,54.00 16.88,54.12 16.88,54.12 C17.00,54.95 20.39,59.56 20.77,60.01 C22.83,62.39 27.03,63.94 27.75,64.25 C27.75,64.25 28.83,66.32 28.83,66.32" fill="none" stroke="rgb(0, 0, 0)" stroke-width="2.00" stroke-opacity="1.00" stroke-linejoin="round"/>
<path d="M37.25,75.75 C37.25,75.75 36.75,75.75 36.75,75.75 C36.75,75.75 50.60,78.00 50.60,78.00 C50.60,78.00 43.71,76.17 43.71,76.17 C43.71,76.17 54.46,88.50 54.46,88.50 C54.46,88.50 50.81,85.58 50.81,85.58 C50.81,85.58 59.72,92.39 59.72,92.39 C59.72,92.39 58.71,91.66 58.71,91.66" fill="none" stroke="rgb(0, 0, 0)" stroke-width="2.00" stroke-opacity="1.00" stroke-linejoin="round"/>
<path d="M89.00,57.50 C89.06,57.49 89.10,57.49 89.12,57.50 C89.15,57.51 89.19,57.54 89.25,57.58 C89.33,59.02 87.87,63.15 86.74,65.74 C85.47,68.57 82.36,73.10 79.96,74.96 C71.57,81.36 58.27,82.69 55.88,82.75 C55.51,82.76 55.12,82.76 54.72,82.75" fill="none" stroke="rgb(0, 0, 0)" stroke-width="2.00" stroke-opacity="1.00" stroke-linejoin="round"/>
<path d="M75.50,77.00 C75.50,77.00 75.86,76.55 75.86,76.55 C75.86,76.55 76.50,76.50 76.50,76.50 C75.65,76.67 73.24,77.40 72.29,77.70 C68.52,78.86 61.51,80.51 58.90,80.75 C59.56,79.80 64.78,78.47 67.21,77.74 C69.48,77.06 70.46,76.82 71.10,76.75 C71.10,76.75 55.08,81.56 55.08,81.56 C55.08,81.56 58.15,79.38 58.15,79.38 C58.32,79.24 57.40,78.54 55.83,77.62 C55.59,77.48 55.49,77.44 55.53,77.51" fill="none" stroke="rgb(0, 0, 0)" stroke-width="2.00" stroke-opacity="1.00" stroke-linejoin="round"/>
<path d="M86.50,57.25 C86.45,57.26 86.03,57.21 85.90,57.15 C82.95,55.89 80.71,53.95 80.52,53.67 C82.03,52.48 85.09,53.37 85.25,53.50 C83.71,47.08 84.67,44.69 84.98,44.58 C84.98,44.58 86.95,50.22 86.95,50.22 C86.90,46.56 89.27,44.37 89.78,44.32 C89.78,44.32 89.50,49.66 89.50,49.66 C89.76,47.22 92.78,45.15 92.97,45.13 C92.97,45.13 91.50,51.25 91.50,51.25 C91.50,51.25 96.87,48.92 96.87,48.92 C96.72,50.00 91.97,53.27 92.00,53.28 C92.40,53.27 91.66,56.73 89.88,57.47 C88.99,57.83 87.41,58.03 87.13,57.93 C86.59,57.58 86.65,56.18 86.70,56.12 C86.72,56.12 86.73,56.08 86.74,56.02" fill="none" stroke="rgb(0, 0, 0)" stroke-width="2.00" stroke-opacity="1.00" stroke-linejoin="round"/>
<path d="M92.75,53.75 C92.75,53.75 92.50,53.88 92.50,53.88 C92.96,54.49 93.06,56.49 91.73,57.75 C90.66,58.73 87.66,58.29 87.53,58.21 C87.41,58.12 87.33,58.06 87.29,58.04" fill="none" stroke="rgb(0, 0, 0)" stroke-width="2.00" stroke-opacity="1.00" stroke-linejoin="round"/>
<path d="M82.00,54.25 C81.96,54.21 81.92,54.17 81.88,54.12 C81.83,54.08 81.79,54.04 81.75,54.00 C81.75,54.00 88.10,56.23 88.10,56.23 C88.10,56.23 84.87,54.29 84.87,54.29 C84.87,54.29 89.89,56.48 89.89,56.48 C89.89,56.48 86.67,52.75 86.67,52.75 C86.67,52.75 89.94,56.12 89.94,56.12 C90.71,54.80 87.43,51.73 86.44,51.31 C86.13,52.98 90.03,55.17 90.33,54.83 C90.74,54.40 89.70,50.45 88.60,49.62 C88.53,49.57 88.45,49.54 88.38,49.54 C88.38,49.54 90.18,53.43 90.18,53.43 C90.64,52.48 90.77,51.74 90.38,50.99 C90.09,50.42 89.25,48.98 89.05,48.48 C89.05,48.48 89.73,49.30 89.73,49.30 C89.75,48.91 90.29,50.01 89.94,50.98 C89.81,51.34 89.68,51.70 89.56,52.07" fill="none" stroke="rgb(0, 0, 0)" stroke-width="2.00" stroke-opacity="1.00" stroke-linejoin="round"/>
<path d="M40.00,23.25 C39.96,22.56 40.12,20.05 40.25,18.23 C40.28,17.52 40.24,15.85 40.25,15.79 C39.43,17.00 38.89,32.59 39.27,39.23 C39.54,43.53 40.02,45.03 40.54,46.06 C42.00,44.93 42.85,43.46 43.31,40.98 C44.20,36.21 43.97,26.44 42.94,24.00 C42.31,22.53 41.40,21.43 40.42,20.81 C40.42,20.81 39.10,20.83 39.10,20.83 C37.50,22.25 36.66,27.37 36.80,30.76 C37.11,36.53 38.62,43.49 39.54,44.27 C40.75,43.63 42.08,38.87 42.41,35.59 C43.05,28.13 41.64,24.92 41.31,24.60 C41.31,24.60 40.17,38.04 40.17,38.04 C41.58,34.89 40.95,26.90 40.62,25.98 C40.02,26.88 39.72,29.81 39.40,36.71 C39.18,41.89 38.73,45.26 38.15,45.69 C38.15,45.69 37.41,45.17 37.41,45.17" fill="none" stroke="rgb(0, 0, 0)" stroke-width="2.00" stroke-opacity="1.00" stroke-linejoin="round"/>
<path d="M19.25,26.25 C19.08,25.94 18.93,25.70 18.78,25.53 C18.62,25.35 18.27,25.02 17.72,24.51 C17.43,25.41 17.91,29.78 18.68,32.14 C19.39,34.27 21.33,37.52 22.60,38.58 C23.30,39.15 25.25,40.04 26.12,40.21 C26.46,40.27 27.22,40.36 28.41,40.49" fill="none" stroke="rgb(0, 0, 0)" stroke-width="2.00" stroke-opacity="1.00" stroke-linejoin="round"/>
<path d="M24.25,29.50 C24.25,29.50 22.88,29.25 22.88,29.25 C22.68,29.47 32.47,46.05 34.20,48.36 C36.47,51.38 38.47,53.33 39.83,53.81 C40.34,52.89 40.32,51.87 39.52,50.15 C38.04,46.98 35.56,43.14 34.16,41.35 C32.39,39.14 28.12,35.51 26.06,34.85 C25.75,37.14 25.80,38.42 26.37,39.62 C27.14,41.21 30.36,47.25 31.25,48.53 C33.67,51.96 36.11,53.98 37.02,53.79 C37.67,52.65 36.61,47.70 35.02,44.46 C33.59,41.59 31.01,38.41 30.25,38.44 C29.28,40.75 32.45,49.97 33.31,51.44 C33.99,51.26 34.41,50.13 34.57,47.62 C34.80,43.89 34.51,38.80 33.81,38.15 C32.57,38.41 31.83,38.97 31.54,40.21 C30.31,45.82 32.65,52.87 33.19,54.12 C34.86,54.15 25.97,44.03 24.96,44.44 C24.54,45.09 25.66,49.41 27.31,52.56 C28.84,55.43 31.01,57.43 31.81,57.31 C31.78,55.48 29.05,51.78 27.23,50.02 C26.36,49.19 25.39,48.44 24.75,48.04 C24.75,48.04 30.60,57.21 30.60,57.21 C30.60,57.21 23.00,52.42 23.00,52.42 C22.99,52.41 26.03,55.56 26.73,56.17 C27.18,56.56 28.15,57.34 29.63,58.50" fill="none" stroke="rgb(0, 0, 0)" stroke-width="2.00" stroke-opacity="1.00" stroke-linejoin="round"/>
<path d="M46.25,45.00 C46.25,45.00 45.12,43.62 45.12,43.62 C44.87,43.72 45.50,50.04 46.11,53.09 C46.72,55.98 47.92,58.04 48.92,58.23 C49.74,57.67 50.33,54.61 50.56,49.86 C50.82,44.82 51.07,41.76 51.15,40.81 C51.15,40.81 49.27,56.73 49.27,56.73 C49.59,56.69 55.39,46.11 56.31,44.94 C56.51,44.69 56.99,44.13 57.74,43.26" fill="none" stroke="rgb(0, 0, 0)" stroke-width="2.00" stroke-opacity="1.00" stroke-linejoin="round"/>
<path d="M63.50,32.25 C63.41,35.83 62.70,39.17 61.16,44.80 C60.24,48.33 59.96,51.66 60.54,52.28 C61.71,51.60 62.48,50.36 63.28,47.60 C64.83,42.08 66.55,35.96 66.73,35.35 C66.51,41.84 65.13,48.75 64.90,49.12 C64.77,49.32 64.44,49.60 63.92,49.97" fill="none" stroke="rgb(0, 0, 0)" stroke-width="2.00" stroke-opacity="1.00" stroke-linejoin="round"/>
<path d="M32.75,30.25 C32.75,30.25 33.08,25.44 33.08,25.44 C32.79,24.79 28.03,25.34 25.98,26.80 C22.20,29.61 21.81,33.50 21.90,34.08 C25.19,33.42 30.24,27.10 30.19,26.40 C29.89,26.39 28.78,27.93 28.25,29.67 C27.66,31.67 27.51,34.30 28.12,34.85 C29.66,34.32 31.06,30.01 30.85,29.77 C30.85,29.77 26.92,32.58 26.92,32.58 C26.92,32.58 20.29,26.96 20.29,26.96 C19.36,28.67 23.22,33.34 24.31,33.46 C25.20,32.87 26.00,30.30 25.73,29.06 C25.39,27.70 24.09,26.66 22.77,25.79 C22.77,25.79 22.79,30.79 22.79,30.79 C23.34,30.66 24.88,27.75 25.69,25.50 C25.87,24.98 26.26,23.81 26.85,21.98" fill="none" stroke="rgb(0, 0, 0)" stroke-width="2.00" stroke-opacity="1.00" stroke-linejoin="round"/>
<path d="M30.00,14.50 C30.00,14.50 29.75,14.50 29.75,14.50 C29.75,14.50 44.97,19.18 44.97,19.18 C44.90,18.40 40.46,15.91 37.25,14.85 C36.10,14.48 35.21,14.52 34.42,14.75 C33.83,15.79 34.98,19.48 36.42,21.37 C37.69,23.01 39.93,24.01 40.75,23.79 C41.65,22.42 38.48,17.88 37.67,17.23 C36.75,17.72 36.79,24.47 37.23,25.25 C37.31,25.38 37.49,25.54 37.77,25.73 C38.73,24.78 39.19,23.91 39.23,22.67 C39.27,20.32 37.74,17.46 36.29,16.85 C35.19,16.44 33.25,17.07 31.71,18.87 C31.14,19.54 30.90,19.68 30.46,19.73 C29.38,19.26 29.26,13.66 30.37,12.61 C30.95,12.14 33.73,12.48 33.92,13.19 C34.04,13.90 33.16,15.10 32.23,15.19 C30.42,15.34 29.35,14.71 29.36,14.04 C29.42,12.96 31.50,11.19 33.17,10.98 C40.54,10.12 42.68,11.39 42.87,11.71 C42.92,11.80 42.96,11.94 42.99,12.15" fill="none" stroke="rgb(0, 0, 0)" stroke-width="2.00" stroke-opacity="1.00" stroke-linejoin="round"/>
<path d="M40.00,9.25 C40.00,9.25 40.00,9.00 40.00,9.00 C40.11,8.74 40.58,8.54 42.50,8.06 C45.03,7.44 47.40,7.17 48.81,7.38 C51.01,7.73 50.93,11.05 50.81,11.50 C49.40,11.88 48.11,11.81 47.02,11.10 C46.07,10.49 45.34,9.59 45.08,8.92 C47.14,8.61 51.84,9.04 53.67,9.90 C55.18,10.67 58.10,14.43 58.58,15.10 C58.77,15.37 59.04,15.71 59.39,16.13" fill="none" stroke="rgb(0, 0, 0)" stroke-width="2.00" stroke-opacity="1.00" stroke-linejoin="round"/>
<path d="M54.25,10.50 C55.35,11.57 56.14,12.32 56.62,12.75 C60.13,15.92 63.23,19.85 64.80,22.84 C66.33,25.83 68.19,31.14 68.53,33.02 C68.56,33.17 68.62,33.58 68.72,34.25" fill="none" stroke="rgb(0, 0, 0)" stroke-width="2.00" stroke-opacity="1.00" stroke-linejoin="round"/>
<path d="M66.75,24.25 C67.25,24.62 67.58,24.91 67.75,25.12 C68.74,26.47 70.73,33.01 71.03,37.25 C71.58,45.72 69.72,50.98 69.07,51.24 C68.92,51.30 68.54,51.38 67.92,51.50" fill="none" stroke="rgb(0, 0, 0)" stroke-width="2.00" stroke-opacity="1.00" stroke-linejoin="round"/>
<path d="M65.75,53.00 C64.83,53.49 64.17,53.86 63.75,54.12 C63.31,54.41 62.52,54.96 61.38,55.79 C61.17,55.94 60.96,56.10 60.75,56.25" fill="none" stroke="rgb(0, 0, 0)" stroke-width="2.00" stroke-opacity="1.00" stroke-linejoin="round"/>
<path d="M18.50,30.50 C18.50,30.50 18.14,29.50 18.14,29.50 C17.25,29.52 16.75,29.63 16.48,30.01 C15.70,31.18 15.42,36.13 15.78,38.87 C16.09,41.01 17.32,45.99 18.67,48.33 C19.37,49.54 20.44,50.35 21.35,50.67 C21.35,50.67 22.27,50.25 22.27,50.25 C22.99,48.71 22.72,43.74 21.60,41.10 C20.41,38.37 18.24,36.28 17.25,35.56 C16.24,36.50 16.02,37.74 16.52,40.19 C17.97,47.31 19.45,51.21 20.12,52.48 C20.54,52.11 20.69,48.71 20.00,46.31 C19.32,44.00 17.06,40.24 16.33,39.92 C14.76,41.52 17.26,51.70 17.69,52.81 C17.69,52.81 17.31,48.21 17.31,48.21 C20.39,51.54 25.02,55.26 27.54,56.37 C29.72,57.31 33.35,57.47 34.21,56.87 C34.58,56.59 35.04,55.76 35.12,55.23 C35.15,55.05 35.19,54.65 35.24,54.01" fill="none" stroke="rgb(0, 0, 0)" stroke-width="2.00" stroke-opacity="1.00" stroke-linejoin="round"/>
<path d="M27.25,53.50 C27.22,54.28 29.57,56.76 31.88,58.28 C35.79,60.78 39.88,61.80 39.86,61.39 C39.90,60.13 33.45,57.38 31.50,57.85 C30.92,59.25 30.92,60.16 31.71,61.08 C34.74,64.56 39.59,65.53 40.23,65.19 C39.34,63.05 35.11,62.73 34.37,63.04 C34.04,63.66 34.86,65.53 35.92,66.15 C37.02,66.75 38.91,66.17 39.17,65.52 C39.19,65.44 39.22,65.30 39.25,65.08" fill="none" stroke="rgb(0, 0, 0)" stroke-width="2.00" stroke-opacity="1.00" stroke-linejoin="round"/>
<path d="M31.25,65.25 C31.62,65.25 32.00,65.25 32.38,65.25 C35.51,65.25 39.63,65.25 40.61,65.25 C40.82,65.25 41.03,65.25 41.24,65.25" fill="none" stroke="rgb(0, 0, 0)" stroke-width="2.00" stroke-opacity="1.00" stroke-linejoin="round"/>
<path d="M41.75,67.75 C41.88,67.75 42.00,67.75 42.12,67.75 C42.33,67.75 42.54,67.75 42.75,67.75" fill="none" stroke="rgb(0, 0, 0)" stroke-width="2.00" stroke-opacity="1.00" stroke-linejoin="round"/>
</g>
</svg>
