<?xml version="1.0" encoding="UTF-8" standalone="no"?>
<!DOCTYPE svg PUBLIC "-//W3C//DTD SVG 1.1//EN" "http://www.w3.org/Graphics/SVG/1.1/DTD/svg11.dtd">
<svg width="105.00" height="100.00" viewBox="0.00 0.00 105.00 100.00" xmlns="http://www.w3.org/2000/svg" xmlns:xlink="http://www.w3.org/1999/xlink">
<g stroke-linecap="round" id="圖層_7">
<path d="M47.71,93.45 C47.71,93.45 38.46,91.99 38.46,91.99 C34.21,90.07 31.89,88.65 28.61,85.97 C27.99,85.45 21.80,80.18 19.70,77.25 C18.08,74.96 15.29,69.77 14.09,66.79 C12.76,63.44 11.54,56.15 11.42,51.99 C11.34,48.29 12.10,41.99 12.94,38.86 C13.89,35.45 16.56,29.49 18.74,26.10 C20.89,22.80 24.93,18.59 28.12,16.29 C31.41,13.96 37.90,10.61 42.03,9.44 C45.49,8.48 54.44,8.29 58.97,9.20 C63.68,10.16 73.24,13.65 76.80,15.85 C80.83,18.38 87.30,25.21 89.53,29.40 C90.55,31.35 92.33,35.74 92.92,37.60 C94.23,41.88 94.99,47.67 94.83,51.55 C94.51,58.08 91.63,69.71 89.94,73.39 C88.83,75.74 85.89,79.78 84.03,81.66 C81.44,84.23 71.26,89.55 68.96,90.34 C65.74,91.42 53.67,93.48 47.58,93.58 C47.10,93.58 44.83,93.39 44.17,93.26 C43.71,93.17 42.79,93.02 41.43,92.80" fill="none" stroke="rgb(0, 0, 0)" stroke-width="3.00" stroke-opacity="1.00" stroke-linejoin="round"/>
<path d="M49.29,88.26 C45.32,87.44 39.31,85.94 37.15,84.83 C36.02,84.23 28.77,79.49 27.37,78.24 C25.04,76.14 21.34,70.68 20.00,67.32 C18.30,62.94 16.87,50.94 17.01,47.12 C17.10,44.93 17.73,40.48 18.15,38.91 C19.33,34.73 22.90,28.29 25.46,25.40 C29.01,21.44 36.71,16.62 40.77,15.47 C44.95,14.31 54.50,14.24 59.05,15.04 C63.59,15.86 71.46,18.83 74.64,21.17 C78.04,23.72 83.26,30.52 85.23,34.92 C87.21,39.41 88.90,48.06 88.90,52.66 C88.89,54.49 88.44,59.62 87.79,62.42 C87.04,65.54 84.10,71.35 82.21,73.72 C80.60,75.70 76.74,79.47 74.71,80.88 C72.80,82.18 67.76,84.42 67.13,84.75 C63.30,86.78 60.34,87.51 56.20,87.89 C55.15,87.98 54.10,88.07 53.04,88.16" fill="none" stroke="rgb(0, 0, 0)" stroke-width="2.00" stroke-opacity="1.00" stroke-linejoin="round"/>
<path d="M65.25,33.00 C64.84,33.05 63.49,32.44 63.35,32.38 C61.83,31.66 56.67,30.46 54.60,30.25 C50.97,29.92 46.59,30.69 44.74,31.38 C40.47,32.98 32.45,37.62 31.17,39.69 C29.40,42.63 28.96,47.33 29.62,48.17 C30.42,49.03 32.70,50.00 36.80,50.82 C40.48,51.54 57.58,52.32 60.91,53.22 C63.94,54.07 68.00,55.83 69.38,57.00 C70.56,58.05 71.85,60.38 71.83,61.27 C71.71,63.23 70.91,64.87 68.05,67.09 C65.76,68.82 61.00,69.76 59.86,70.08 C56.66,70.97 48.17,70.33 42.08,69.29 C36.82,68.37 35.84,68.16 34.58,67.83 C34.29,67.35 33.46,67.11 32.78,67.00 C32.77,67.00 32.74,67.00 32.75,67.00" fill="none" stroke="rgb(0, 0, 0)" stroke-width="4.00" stroke-opacity="1.00" stroke-linejoin="round"/>
<path d="M43.50,26.25 C43.50,26.25 43.50,25.50 43.50,25.50 C43.48,26.10 44.63,60.56 46.28,73.68 C46.57,75.92 46.68,77.02 46.75,78.21" fill="none" stroke="rgb(0, 0, 0)" stroke-width="4.00" stroke-opacity="1.00" stroke-linejoin="round"/>
<path d="M58.75,26.75 C58.75,26.75 58.50,26.50 58.50,26.50 C58.50,45.29 59.82,73.81 61.25,76.73 C61.25,76.73 61.25,76.34 61.25,76.34" fill="none" stroke="rgb(0, 0, 0)" stroke-width="4.00" stroke-opacity="1.00" stroke-linejoin="round"/>
<path d="M65.00,33.50 C65.00,33.50 70.23,36.23 70.23,36.23 C70.23,36.23 72.10,37.80 72.10,37.80" fill="none" stroke="rgb(0, 0, 0)" stroke-width="4.00" stroke-opacity="1.00" stroke-linejoin="round"/>
</g>
</svg>
