<?xml version="1.0" encoding="utf-8"?>
<!-- Generator: Adobe Illustrator 26.2.1, SVG Export Plug-In . SVG Version: 6.00 Build 0)  -->
<svg version="1.1" id="圖層_1" xmlns="http://www.w3.org/2000/svg" xmlns:xlink="http://www.w3.org/1999/xlink" x="0px" y="0px"
	 viewBox="0 0 89.04 86.79" style="enable-background:new 0 0 89.04 86.79;" xml:space="preserve">
<style type="text/css">
	.st0{fill:#BF1A20;stroke:#000000;stroke-width:3;stroke-linecap:round;stroke-linejoin:round;}
</style>
<g id="圖層_1_00000182518067932123509770000012138701299007410362_" transform="translate(0.00, 28.00)">
	<path class="st0" d="M39.02,56.59c-4.27-1.47-9.29-4.05-12.52-6.65c-4.86-4.02-14.62-17.38-17.53-22.9
		c-1.42-2.73-4.26-9.61-5.07-12.23C2.7,10.84,1.46,3.47,1.5-0.01c0.08-3.76,0.73-8.05,1.52-10.12c0.99-2.44,4.01-7.41,6.1-9.39
		c1.03-0.94,3.78-2.34,5.22-2.73c3.12-0.77,8.87,0.1,12.06,1.52c2.77,1.28,7.93,5.82,9.55,7.96c5.16,6.94,7.91,14.71,8.94,19.62
		c-0.2-2.7-1.45-6.63-0.93-9.1c0.62-2.57,2.01-8.35,3.88-11.16c2.08-3.07,8-8.51,11.51-10.38c3.52-1.83,10.2-3.14,13.1-2.58
		c2.67,0.58,8.45,4,10.41,6.01c2.22,2.37,4.3,9.23,4.59,12.67c0.26,3.66-0.1,9.61-0.84,13.36c-1.16,5.76-6.7,19.22-10.18,25.24
		c-2.6,4.45-10.57,14.9-14.14,18.06c-4.52,3.91-12.35,6.78-13.99,7.34l-7.93,0.98"/>
	<path class="st0" d="M36.16,54.48"/>
</g>
</svg>
