<?xml version="1.0" encoding="UTF-8" standalone="no"?>
<!DOCTYPE svg PUBLIC "-//W3C//DTD SVG 1.1//EN" "http://www.w3.org/Graphics/SVG/1.1/DTD/svg11.dtd">
<svg width="105.00" height="100.00" viewBox="0.00 0.00 105.00 100.00" xmlns="http://www.w3.org/2000/svg" xmlns:xlink="http://www.w3.org/1999/xlink">
<g stroke-linecap="round" transform="translate(0.00, 28.00)" id="圖層_1">
<path d="M47.09,63.71 C42.82,62.24 37.80,59.66 34.57,57.06 C29.71,53.04 19.95,39.68 17.04,34.16 C15.62,31.43 12.78,24.55 11.97,21.93 C10.77,17.96 9.53,10.59 9.57,7.11 C9.65,3.35 10.30,-0.94 11.09,-3.01 C12.08,-5.45 15.10,-10.42 17.19,-12.40 C18.22,-13.34 20.97,-14.74 22.41,-15.13 C25.53,-15.90 31.28,-15.03 34.47,-13.61 C37.24,-12.33 42.40,-7.79 44.02,-5.65 C49.18,1.29 51.93,9.06 52.96,13.97 C52.76,11.27 51.51,7.34 52.03,4.87 C52.65,2.30 54.04,-3.48 55.91,-6.29 C57.99,-9.36 63.91,-14.80 67.42,-16.67 C70.94,-18.50 77.62,-19.81 80.52,-19.25 C83.19,-18.67 88.97,-15.25 90.93,-13.24 C93.15,-10.87 95.23,-4.01 95.52,-0.57 C95.78,3.09 95.42,9.04 94.68,12.79 C93.52,18.55 87.98,32.01 84.50,38.03 C81.90,42.48 73.93,52.93 70.36,56.09 C65.84,60.00 58.01,62.87 56.37,63.43 C56.37,63.43 48.44,64.41 48.44,64.41" fill="none" stroke="rgb(0, 0, 0)" stroke-width="3.00" stroke-opacity="1.00" stroke-linejoin="round"/>
<path d="M44.23,61.60" fill="none" stroke="rgb(0, 0, 0)" stroke-width="3.00" stroke-opacity="1.00" stroke-linejoin="round"/>
</g>
</svg>
