<?xml version="1.0" encoding="utf-8"?>
<!-- Generator: Adobe Illustrator 26.2.1, SVG Export Plug-In . SVG Version: 6.00 Build 0)  -->
<svg version="1.1" id="圖層_1" xmlns="http://www.w3.org/2000/svg" xmlns:xlink="http://www.w3.org/1999/xlink" x="0px" y="0px"
	 viewBox="0 0 89 86.8" style="enable-background:new 0 0 89 86.8;" xml:space="preserve">
<style type="text/css">
	.st0{fill:none;stroke:#000000;stroke-width:2;stroke-linecap:round;stroke-linejoin:round;}
	.st1{fill:none;stroke:#000000;stroke-linecap:round;stroke-linejoin:round;}
</style>
<g id="圖層_1_00000182518067932123509770000012138701299007410362_" transform="translate(0.00, 28.00)">
	<path class="st0" d="M39,56.6c-4.3-1.5-9.3-4-12.5-6.7C21.6,45.9,11.9,32.6,9,27c-1.4-2.7-4.3-9.6-5.1-12.2C2.7,10.8,1.5,3.5,1.5,0
		C1.6-3.8,2.2-8.1,3-10.1c1-2.4,4-7.4,6.1-9.4c1-0.9,3.8-2.3,5.2-2.7c3.1-0.8,8.9,0.1,12.1,1.5c2.8,1.3,7.9,5.8,9.5,8
		c5.2,6.9,7.9,14.7,8.9,19.6c-0.2-2.7-1.5-6.6-0.9-9.1c0.6-2.6,2-8.4,3.9-11.2c2.1-3.1,8-8.5,11.5-10.4c3.5-1.8,10.2-3.1,13.1-2.6
		c2.7,0.6,8.4,4,10.4,6c2.2,2.4,4.3,9.2,4.6,12.7c0.3,3.7-0.1,9.6-0.8,13.4c-1.2,5.8-6.7,19.2-10.2,25.2
		C73.8,35.4,65.9,45.8,62.3,49c-4.5,3.9-12.3,6.8-14,7.3l-7.9,1"/>
	<path class="st1" d="M36.2,54.5"/>
</g>
</svg>
