<?xml version="1.0" encoding="UTF-8" standalone="no"?>
<!DOCTYPE svg PUBLIC "-//W3C//DTD SVG 1.1//EN" "http://www.w3.org/Graphics/SVG/1.1/DTD/svg11.dtd">
<svg width="105.00" height="100.00" viewBox="0.00 0.00 105.00 100.00" xmlns="http://www.w3.org/2000/svg" xmlns:xlink="http://www.w3.org/1999/xlink">
<g stroke-linecap="round" id="圖層_1">
<path d="M47.09,91.71 C42.82,90.24 37.80,87.66 34.57,85.06 C29.71,81.04 19.95,67.68 17.04,62.16 C15.62,59.43 12.78,52.55 11.97,49.93 C10.77,45.96 9.53,38.59 9.57,35.11 C9.65,31.35 10.30,27.06 11.09,24.99 C12.08,22.55 15.10,17.58 17.19,15.60 C18.22,14.66 20.97,13.26 22.41,12.87 C25.53,12.10 31.28,12.97 34.47,14.39 C37.24,15.67 42.40,20.21 44.02,22.35 C49.18,29.29 51.93,37.06 52.96,41.97 C52.76,39.27 51.51,35.34 52.03,32.87 C52.65,30.30 54.04,24.52 55.91,21.71 C57.99,18.64 63.91,13.20 67.42,11.33 C70.94,9.50 77.62,8.19 80.52,8.75 C83.19,9.33 88.97,12.75 90.93,14.76 C93.15,17.13 95.23,23.99 95.52,27.43 C95.78,31.09 95.42,37.04 94.68,40.79 C93.52,46.55 87.98,60.01 84.50,66.03 C81.90,70.48 73.93,80.93 70.36,84.09 C65.84,88.00 58.01,90.87 56.37,91.43 C56.37,91.43 48.44,92.41 48.44,92.41" fill="none" stroke="rgb(0, 0, 0)" stroke-width="3.00" stroke-opacity="1.00" stroke-linejoin="round"/>
<path d="M44.23,89.60" fill="none" stroke="rgb(0, 0, 0)" stroke-width="3.00" stroke-opacity="1.00" stroke-linejoin="round"/>
<path d="M30.88,20.38 C30.27,20.30 29.86,20.24 29.67,20.21 C29.47,20.18 29.21,20.12 28.87,20.04 C35.60,25.04 41.72,28.54 45.12,29.12 C46.01,29.27 46.86,29.24 47.33,29.12 C47.59,28.11 45.39,24.73 42.12,22.00 C36.22,17.14 31.67,16.41 31.29,16.75 C31.55,18.16 34.85,22.24 37.29,24.32 C42.20,28.36 46.62,28.95 47.25,28.96 C47.04,27.09 43.17,22.64 40.75,20.71 C38.51,18.97 34.02,17.27 32.42,17.42 C32.42,17.42 31.58,18.08 31.58,18.08 C31.18,19.80 33.05,23.82 35.79,27.33 C38.01,30.11 40.32,31.64 41.33,31.71 C41.66,30.72 41.58,29.69 40.92,27.92 C39.09,23.13 38.64,21.72 38.04,19.62 C36.91,24.46 39.06,33.15 39.33,33.62 C40.46,33.41 41.12,32.83 41.46,31.46 C41.95,29.41 42.01,24.55 41.83,23.58 C41.55,22.16 40.75,20.31 40.00,19.58 C39.21,18.85 37.56,18.59 36.42,18.92 C35.46,19.23 33.23,21.91 32.08,24.17 C30.71,26.93 26.77,40.80 27.29,41.58 C29.02,41.28 32.64,37.62 34.10,34.94 C35.15,32.92 36.72,28.88 37.17,25.29 C37.35,23.70 36.78,20.11 35.12,18.88 C33.36,17.61 29.88,17.30 28.50,17.92 C27.24,18.53 24.87,21.06 23.83,22.83 C20.96,27.94 21.16,34.54 21.71,35.46 C22.46,36.61 24.08,37.47 25.62,37.54 C26.80,37.57 29.92,35.90 31.12,34.54 C32.33,33.15 33.91,29.40 34.04,27.71 C34.30,23.91 33.40,20.75 32.66,19.67 C31.84,18.52 29.70,16.98 28.24,16.45 C26.78,15.95 23.68,16.39 22.21,17.58 C20.79,18.82 18.46,23.36 18.08,26.50 C17.72,29.74 18.79,33.50 19.64,34.75 C20.69,36.25 23.59,38.10 25.56,38.53 C27.49,38.92 31.32,38.62 32.86,37.98 C34.13,37.43 36.38,35.19 36.58,33.21 C36.66,32.10 35.64,29.91 34.54,28.83 C32.65,27.04 26.93,23.85 24.75,22.83 C22.40,21.77 18.47,20.84 16.92,21.71 C14.96,22.88 13.12,27.64 13.12,30.79 C13.15,32.10 14.25,35.08 15.12,36.37 C16.07,37.72 18.57,39.69 20.17,40.17 C21.86,40.65 25.89,40.32 27.83,39.58 C31.70,38.05 34.75,33.68 34.96,32.58 C35.17,31.17 34.69,29.43 33.67,28.46 C32.03,26.97 25.97,25.20 23.88,25.08 C22.00,25.01 18.80,25.75 17.42,26.62 C14.88,28.27 12.05,32.94 12.08,34.42 C12.14,35.25 13.17,36.45 14.29,36.96 C16.36,37.84 21.69,37.79 23.40,37.44 C24.93,37.10 30.50,34.66 32.75,32.92 C35.06,31.11 35.99,29.25 36.04,28.75 C35.13,28.03 30.54,27.67 27.85,27.92 C25.82,28.12 20.80,29.20 18.04,30.79 C16.78,31.52 15.23,33.13 13.75,34.92 C14.94,34.96 18.99,32.04 21.66,29.66 C24.14,27.39 26.85,24.26 27.67,22.71 C27.67,22.71 16.79,25.42 16.79,25.42 C15.82,24.05 16.25,20.07 16.90,17.89 C17.69,15.35 18.37,14.24 18.75,14.00 C18.95,13.85 19.92,13.04 20.83,13.00 C22.92,12.93 25.69,14.31 26.00,14.25 C25.78,14.38 23.20,14.21 22.88,14.75 C22.18,16.17 24.18,19.79 24.96,20.00 C26.31,19.44 26.88,12.48 27.04,12.79 C29.04,15.12 29.95,15.76 32.00,15.75 C32.00,15.75 19.38,15.29 19.38,15.29 C19.16,16.06 19.93,19.61 21.33,22.00 C24.89,27.97 28.77,30.09 29.62,30.17 C30.30,28.30 25.02,19.60 24.04,19.42 C23.58,20.63 25.07,26.16 26.85,30.27 C28.67,34.40 31.07,39.48 32.70,42.61 C34.15,45.34 36.55,48.67 38.67,49.79 C38.67,49.79 39.79,49.58 39.79,49.58 C40.62,48.14 40.22,41.99 39.13,38.94 C37.88,35.55 36.10,31.54 34.31,28.41 C32.27,24.91 29.81,22.60 28.50,21.79 C28.50,21.79 26.92,22.08 26.92,22.08 C26.00,23.14 25.61,26.72 26.29,29.67 C28.29,38.04 38.84,56.39 42.36,60.87 C44.52,63.59 45.78,64.54 47.42,65.50 C47.42,65.50 48.71,65.00 48.71,65.00 C49.15,63.65 48.50,59.56 47.23,55.82 C42.59,42.53 33.18,24.91 31.92,24.71 C31.69,26.88 38.39,41.66 41.38,47.99 C46.30,57.86 50.65,65.36 53.54,67.25 C53.96,65.53 53.95,64.50 53.23,62.82 C43.61,40.44 35.54,23.35 34.33,22.12 C35.63,25.29 43.36,39.50 46.91,45.96 C54.46,59.32 58.66,62.95 59.25,63.38 C59.44,61.73 59.24,60.68 58.18,58.75 C51.19,45.14 39.75,23.59 39.12,22.67 C39.83,24.24 49.00,40.37 52.90,47.10 C57.56,54.80 59.71,56.86 60.79,57.79 C60.50,56.29 52.03,40.55 48.11,33.22 C45.43,28.27 44.85,27.40 44.04,26.29 C51.84,39.60 62.45,52.48 63.92,53.87 C63.92,53.87 50.54,33.67 50.54,33.67 C50.54,33.67 66.71,47.58 66.71,47.58 C66.71,47.58 55.21,31.33 55.21,31.33 C56.27,31.25 60.72,32.70 63.39,33.11 C65.43,33.42 70.53,33.46 71.58,32.62 C72.13,32.18 72.42,31.25 72.46,30.37 C70.95,29.46 69.70,29.27 68.21,29.96 C67.60,30.24 56.81,36.01 56.29,36.17 C57.35,29.98 70.83,17.66 72.58,16.67 C73.16,17.54 73.27,18.63 72.71,20.17 C71.67,22.95 67.98,27.86 66.12,29.71 C64.19,31.58 60.21,34.35 58.00,34.87 C58.00,34.87 56.88,34.46 56.88,34.46 C56.19,32.98 56.50,28.80 57.58,26.46 C58.94,23.61 63.14,18.31 64.62,17.46 C65.03,18.74 65.05,19.90 64.42,21.04 C62.29,24.86 56.68,30.16 55.67,30.71 C55.01,30.45 55.57,24.78 56.92,22.00 C57.94,19.95 61.56,14.71 63.21,13.21 C64.20,12.31 65.47,11.93 66.46,11.96 C67.63,13.04 68.16,18.52 67.33,22.33 C66.65,25.36 61.09,37.06 59.92,40.87 C59.66,41.73 59.51,42.45 59.54,42.50 C60.61,38.77 63.53,27.01 65.29,22.40 C68.15,14.99 70.27,13.14 70.92,12.71 C70.92,12.71 72.08,13.33 72.08,13.33 C74.68,20.92 70.01,37.20 69.75,37.08 C69.75,37.08 61.29,18.33 61.29,18.33 C60.29,18.84 59.87,20.02 60.25,22.08 C61.93,30.88 73.45,49.44 74.92,50.67 C74.92,50.67 76.04,50.75 76.04,50.75 C76.67,47.78 74.63,35.34 73.04,29.74 C70.63,21.60 67.94,17.47 66.62,16.92 C66.34,18.97 66.59,20.73 67.66,23.33 C75.96,43.44 80.81,47.90 82.17,49.00 C82.17,49.00 83.12,48.71 83.12,48.71 C83.44,45.78 78.64,28.54 77.81,24.74 C75.57,14.54 74.65,12.67 73.87,12.37 C73.49,13.50 74.08,17.69 74.99,20.40 C81.21,38.65 85.93,41.38 87.08,41.79 C87.08,41.79 87.83,40.96 87.83,40.96 C87.78,37.21 85.12,29.86 81.23,20.47 C77.97,12.85 75.96,11.35 75.04,10.83 C74.45,12.27 74.30,13.02 74.69,14.24 C76.76,20.75 84.30,33.71 87.54,36.83 C89.29,38.47 90.26,38.75 91.37,38.88 C92.30,38.07 92.03,34.26 91.39,32.09 C89.70,26.59 83.75,14.31 81.54,12.08 C79.75,10.33 78.60,10.29 78.08,10.42 C77.48,11.88 85.80,26.36 88.71,29.54 C90.21,31.18 91.71,32.27 92.79,32.62 C93.77,31.34 94.02,30.02 93.33,28.08 C89.18,16.42 82.59,11.03 82.12,11.08 C81.92,11.89 83.94,16.07 86.40,19.74 C88.99,23.55 92.14,27.40 94.46,29.21 C94.46,29.21 88.88,16.33 88.88,16.33 C89.49,16.35 90.72,18.34 90.88,20.04 C91.01,21.79 89.82,25.38 88.08,27.46 C80.83,36.04 72.70,37.46 71.67,37.50 C70.86,36.34 72.35,31.87 74.88,28.33 C78.47,23.38 83.78,19.73 84.46,20.12 C84.55,23.38 68.99,39.17 66.09,41.10 C65.35,41.60 64.77,41.64 63.87,41.42 C63.72,39.42 64.88,36.68 65.99,35.06 C68.24,31.85 79.22,23.41 83.12,21.96 C85.32,21.19 86.39,21.16 87.79,21.29 C88.45,22.02 88.85,23.11 88.62,24.37 C88.03,27.66 80.43,39.21 76.82,43.42 C72.13,48.84 66.86,52.99 65.50,53.87 C64.98,53.30 71.60,43.79 75.75,39.38 C80.54,34.32 85.91,30.87 88.00,30.58 C88.83,31.93 88.92,33.08 87.96,34.62 C86.53,36.91 81.30,43.58 80.10,44.93 C78.43,46.79 73.61,50.88 70.62,52.54 C66.08,55.04 63.72,55.09 62.67,54.92 C62.04,53.63 64.55,49.22 67.23,46.03 C71.07,41.52 80.47,33.43 83.50,31.42 C83.67,33.18 80.72,37.35 77.33,41.66 C74.94,44.62 70.39,49.53 68.21,51.62 C62.69,56.85 58.67,57.89 58.17,57.67 C58.00,56.06 59.38,51.62 61.32,46.52 C64.61,38.37 66.81,35.01 67.25,34.50 C67.25,34.50 59.08,50.33 59.08,50.33 C61.19,49.63 66.32,41.67 66.08,41.25 C65.32,41.51 62.20,44.23 60.25,46.62 C55.68,52.36 56.03,55.95 56.25,57.17 C57.12,58.02 59.99,57.91 61.71,57.29 C63.55,56.59 68.29,53.29 70.79,50.96 C73.40,48.49 79.42,40.40 79.83,39.83 C73.74,46.51 64.38,63.58 63.08,66.08 C64.69,65.99 66.33,65.16 68.46,63.21 C76.43,55.88 83.92,41.82 84.92,39.79 C83.05,40.12 79.59,44.04 76.78,48.04 C72.47,54.24 65.77,67.09 65.50,70.53 C65.45,71.36 65.71,72.00 66.37,72.96 C68.89,72.98 72.28,71.36 73.85,69.87 C78.86,65.03 87.06,47.22 87.46,45.67 C85.77,46.26 77.23,61.31 75.41,64.86 C74.71,66.23 72.41,71.64 72.46,73.12 C74.14,73.38 76.45,72.37 77.76,71.20 C80.29,68.86 87.12,56.08 88.83,50.92 C89.53,48.77 90.09,44.12 89.67,42.46 C89.67,42.46 88.83,41.87 88.83,41.87 C87.03,42.36 84.36,46.72 82.92,50.56 C81.72,53.86 80.73,58.27 80.60,60.68 C80.56,62.95 81.98,64.62 83.21,65.25 C84.61,65.14 85.34,64.93 85.84,64.36 C87.00,63.04 88.56,59.73 89.11,57.78 C89.88,55.03 90.75,47.81 90.75,45.25 C90.72,40.48 89.72,38.51 89.08,37.92 C87.61,38.22 86.82,38.76 86.42,39.96 C85.90,41.52 85.72,46.55 86.33,46.96 C87.32,47.47 89.59,46.38 90.83,43.79 C91.85,41.61 93.23,36.24 93.50,35.00 C91.82,36.20 91.45,42.26 91.79,43.08 C92.66,42.87 93.08,42.57 93.29,41.42 C94.14,36.74 93.79,35.67 93.33,34.83 C92.52,34.39 91.49,34.23 90.67,34.67 C88.58,35.81 74.37,59.48 73.25,61.00 C73.56,60.52 75.19,56.73 76.79,55.79 C77.97,55.14 82.48,54.18 85.50,54.00 C85.50,54.00 75.67,57.75 75.67,57.75 C75.92,58.20 79.76,58.64 81.79,58.42 C87.29,57.76 88.77,54.83 88.92,54.21 C87.85,52.81 80.56,50.87 79.79,51.12 C78.95,51.48 78.65,53.10 79.46,53.75 C80.64,54.64 84.61,55.09 86.17,54.21 C89.16,52.44 88.71,50.03 88.50,49.58 C87.54,49.13 85.11,49.93 83.46,51.92 C79.38,56.93 79.02,60.97 79.08,61.50 C79.08,61.50 81.12,61.42 81.12,61.42 C81.34,60.45 80.42,58.55 78.54,57.88 C76.35,57.12 71.01,56.94 70.92,57.54 C71.23,58.69 74.90,62.34 77.33,63.62 C79.28,64.63 80.84,64.72 81.42,64.62 C81.85,64.03 81.29,61.51 79.67,59.58 C75.88,55.18 72.04,53.92 70.62,53.62 C70.62,53.62 69.62,54.25 69.62,54.25 C69.43,55.83 69.38,56.57 69.68,57.29 C70.93,60.30 73.49,63.89 75.86,66.54 C77.27,68.08 79.07,68.88 79.92,68.92 C80.61,67.60 80.74,66.54 80.08,65.46 C78.88,63.53 73.06,58.86 70.42,57.67 C67.99,56.61 66.71,56.84 66.29,57.12 C65.90,58.41 67.41,61.70 70.04,64.46 C74.51,69.06 77.80,69.93 78.12,69.88 C78.29,69.21 76.27,66.25 73.08,63.38 C67.75,58.65 63.79,57.37 62.92,57.25 C62.60,58.58 62.57,59.16 63.10,59.98 C65.26,63.23 67.92,66.59 70.54,69.38 C71.94,70.84 75.10,72.31 76.62,72.04 C76.87,70.45 76.58,69.33 75.29,68.08 C73.15,66.03 68.44,62.64 66.12,61.29 C63.41,59.73 61.24,59.35 60.38,59.38 C60.15,61.04 60.64,62.56 62.17,64.58 C62.88,65.52 66.84,70.12 68.04,71.25 C70.86,73.87 73.73,75.09 74.38,74.79 C74.58,73.81 72.95,69.99 70.21,66.83 C67.29,63.53 59.63,58.91 56.92,58.33 C55.42,58.03 54.22,58.33 53.17,59.04 C52.30,61.32 52.85,64.69 53.55,66.53 C55.86,72.41 59.53,75.38 60.96,75.96 C60.96,75.96 62.67,75.67 62.67,75.67 C63.60,74.29 64.01,73.38 64.01,72.34 C63.99,68.90 59.13,52.66 57.03,46.85 C54.53,39.99 52.50,38.51 51.75,38.17 C50.05,38.52 49.20,38.90 48.47,39.76 C47.00,41.52 44.22,46.79 43.17,49.82 C42.27,52.48 41.00,58.30 40.83,61.79 C40.75,63.90 41.37,67.78 42.17,68.75 C43.19,69.94 44.92,70.72 46.21,70.58 C47.17,70.45 49.49,67.76 50.00,66.21 C50.97,63.16 51.83,56.19 51.85,53.13 C51.83,49.79 50.54,44.59 49.17,42.50 C48.00,40.81 45.14,38.94 43.45,38.80 C41.61,38.71 38.03,40.50 36.03,42.54 C34.11,44.55 30.92,49.60 29.84,52.22 C29.07,54.14 28.08,59.14 28.83,60.67 C29.57,62.06 34.65,62.11 36.62,61.46 C38.60,60.76 42.51,58.04 44.38,55.92 C46.17,53.84 49.27,48.69 50.17,46.54 C50.98,44.54 51.59,40.84 51.37,39.33 C51.12,37.79 49.24,36.20 47.54,35.71 C45.83,35.24 41.83,35.20 39.79,35.79 C37.67,36.44 33.49,39.04 31.62,40.83 C29.89,42.52 27.22,46.20 26.46,47.92 C25.57,50.05 25.73,51.09 26.25,52.42 C28.76,53.42 32.53,53.23 34.28,52.60 C36.58,51.75 40.64,48.38 42.46,45.80 C45.66,41.16 47.45,34.56 47.62,32.44 C47.67,31.58 47.02,30.38 46.17,29.75 C45.47,29.26 41.39,29.22 39.25,29.96 C36.80,30.85 31.67,34.70 29.29,37.50 C27.04,40.20 23.81,46.03 22.87,48.62 C21.93,51.36 21.98,52.51 22.29,53.79 C23.62,54.63 26.61,53.88 27.96,52.75 C29.18,51.67 31.19,47.93 32.13,44.40 C32.73,42.08 33.59,35.71 33.41,34.29 C32.95,31.05 31.01,28.59 30.37,28.17 C28.36,26.89 25.62,27.57 24.50,28.87 C23.59,30.01 21.71,34.31 21.16,36.56 C20.70,38.47 20.07,42.88 20.24,45.94 C20.29,46.74 20.63,47.22 21.42,48.04 C23.17,47.51 25.03,43.69 26.24,39.92 C26.97,37.61 28.16,33.15 28.42,30.50 C27.66,30.23 24.63,32.41 22.96,35.17 C21.15,38.24 20.40,45.97 20.92,48.37 C22.46,48.57 23.42,48.20 24.12,46.79 C27.47,40.04 27.72,33.81 27.58,32.96 C26.28,32.63 25.35,32.74 24.71,33.58 C22.03,37.25 22.01,47.97 22.54,48.67 C23.97,48.01 24.66,47.17 24.87,45.37 C25.26,42.16 25.15,36.93 24.79,35.87 C23.89,33.47 20.79,31.38 18.96,31.50 C17.65,32.69 17.55,37.29 17.96,39.79 C18.37,42.17 19.86,46.39 20.79,48.17 C21.94,50.29 23.01,51.33 24.37,52.42 C24.37,52.42 25.83,52.46 25.83,52.46 C26.77,51.61 27.54,50.20 27.79,48.37 C28.22,45.20 27.28,39.54 26.62,38.46 C25.88,37.32 24.52,36.18 23.42,35.83 C22.54,35.59 20.66,35.54 20.04,35.79 C18.61,36.47 17.12,41.75 17.38,45.12 C17.66,48.31 18.93,50.34 19.58,51.00 C20.89,50.73 21.66,50.04 21.92,48.50 C22.42,45.30 22.00,38.44 21.33,36.89 C20.57,35.33 17.76,33.45 16.46,34.25 C15.13,35.17 13.76,40.18 13.79,43.87 C13.83,45.58 14.71,49.15 15.79,50.17 C16.37,50.70 17.20,50.89 18.00,50.83 C19.36,49.82 20.31,46.38 20.21,42.62 C20.13,40.85 19.08,37.59 17.71,36.46 C16.63,35.60 13.58,34.70 12.62,35.17 C12.03,36.11 11.66,41.29 12.00,42.88 C13.26,48.31 16.74,49.64 17.50,49.67 C17.50,49.67 18.33,49.04 18.33,49.04 C18.80,47.47 18.66,42.76 18.04,41.08 C16.35,36.76 13.14,36.80 12.46,37.04 C11.71,38.36 11.92,42.89 13.12,45.67 C13.68,46.88 16.41,49.91 18.21,50.33 C19.12,50.52 20.59,50.10 21.25,49.46 C21.98,48.68 22.64,46.86 22.67,45.46 C22.66,42.97 20.29,36.56 19.00,33.25 C17.78,29.91 16.95,24.70 16.75,23.83 C16.66,27.32 20.79,39.14 23.68,44.10 C25.34,46.89 28.75,50.86 30.54,52.04 C33.88,54.15 36.42,53.87 37.83,53.54 C38.58,52.73 38.99,51.73 38.96,50.38 C38.89,48.24 36.71,44.63 35.54,43.71 C34.47,42.92 31.91,42.44 30.54,42.83 C29.16,43.27 27.10,45.10 26.21,46.79 C23.81,51.54 23.48,57.23 23.92,58.37 C24.85,58.68 26.04,58.64 27.83,58.17 C29.02,57.84 33.53,54.22 35.64,51.81 C36.51,50.80 40.76,45.57 42.08,43.50 C40.20,43.93 36.17,47.14 34.50,48.79 C31.91,51.38 27.85,56.86 27.23,58.21 C26.68,59.44 25.72,62.36 25.71,63.08 C25.75,64.82 26.29,66.45 27.21,67.08 C28.88,68.17 33.80,67.49 35.75,66.46 C37.62,65.42 40.54,62.78 42.46,60.54 C45.41,57.03 48.57,50.65 48.62,50.33 C47.07,50.78 39.37,59.49 36.92,63.12 C33.99,67.49 33.71,69.74 33.71,71.00 C33.71,71.00 34.75,71.58 34.75,71.58 C37.13,71.42 40.80,69.17 43.04,67.29 C46.85,64.04 53.06,57.29 53.37,55.92 C52.79,55.53 36.94,58.22 32.94,58.19 C30.80,58.17 28.49,57.83 26.08,57.25 C27.67,58.28 32.42,62.06 35.18,64.16 C38.01,66.31 43.77,69.89 46.54,70.62 C47.93,70.98 49.19,70.75 50.04,70.25 C50.38,69.28 50.35,68.01 49.71,66.79 C48.34,64.24 43.61,59.76 40.26,57.58 C33.93,53.54 28.89,51.93 27.38,52.21 C27.38,52.21 27.12,53.42 27.12,53.42 C28.05,55.70 32.19,60.12 33.79,61.29 C37.17,63.71 41.16,64.66 42.25,64.08 C42.51,62.93 40.82,59.50 38.08,56.04 C36.49,54.05 33.35,51.21 31.92,50.87 C31.26,52.57 33.48,56.94 36.21,61.52 C38.22,64.75 41.83,70.56 41.96,70.42 C41.91,68.12 32.47,56.29 27.23,50.98 C25.05,48.78 22.35,46.61 20.67,46.17 C20.67,46.17 19.92,47.08 19.92,47.08 C19.96,49.89 21.79,54.68 23.59,58.02 C26.95,64.16 31.80,70.30 33.67,71.12 C34.43,69.64 34.40,68.21 33.42,66.37 C30.18,60.38 18.24,47.77 16.83,46.92 C16.58,49.18 16.59,50.31 17.07,51.42 C18.41,54.44 21.69,59.65 23.66,62.45 C29.35,70.43 32.64,71.14 33.25,70.96 C33.65,69.70 31.99,65.60 30.71,63.71 C28.96,61.18 25.48,57.30 22.32,54.00 C19.32,50.93 17.26,49.27 16.62,49.46 C16.21,50.55 17.09,54.93 18.83,58.33 C26.29,72.59 33.00,74.69 33.62,74.54 C34.09,73.23 33.55,70.59 31.54,67.29 C29.28,63.62 17.98,52.06 16.29,51.96 C15.50,53.02 15.82,56.58 16.93,59.58 C17.92,62.20 20.76,67.06 22.49,69.42 C27.30,75.89 30.96,76.93 31.67,76.83 C32.48,75.78 31.24,70.61 28.97,66.67 C27.21,63.71 18.09,52.61 17.12,52.46 C16.55,53.32 16.95,57.56 18.48,61.14 C19.56,63.61 23.42,69.96 25.49,72.74 C27.53,75.45 32.72,80.79 35.56,82.56 C36.36,83.05 37.83,83.50 38.97,83.76 C39.84,83.91 41.65,83.57 42.37,83.00 C43.74,81.86 43.54,76.84 42.79,74.96 C42.07,73.24 39.65,70.00 38.08,68.67 C34.41,65.61 31.49,65.49 29.92,65.67 C29.13,66.88 28.85,67.68 29.02,68.58 C29.39,70.48 31.03,73.90 32.39,75.62 C34.90,78.77 39.41,82.66 40.96,83.25 C42.68,83.86 46.48,83.98 47.42,82.79 C48.48,81.35 48.26,76.60 47.60,74.64 C46.84,72.66 43.90,69.42 41.83,69.58 C41.51,69.62 40.93,69.81 40.08,70.17 C38.73,72.07 39.02,76.54 39.83,78.46 C40.59,80.14 42.97,82.88 44.33,83.71 C45.64,84.48 48.79,85.03 49.58,84.71 C50.70,84.23 52.02,83.21 52.59,82.38 C54.75,79.06 54.92,69.91 54.46,68.48 C54.14,67.64 53.06,66.33 52.17,65.79 C50.58,64.88 47.41,66.09 46.37,67.25 C45.34,68.52 44.13,73.08 44.08,76.62 C44.09,78.51 45.71,80.88 47.22,81.15 C49.00,81.41 52.07,81.10 53.74,80.44 C55.50,79.71 58.63,77.25 59.79,75.70 C60.87,74.21 61.91,71.55 62.42,69.27 C62.63,68.29 62.53,67.48 62.08,65.92 C60.24,64.62 55.34,64.57 53.25,65.08 C51.23,65.62 47.63,67.73 46.12,69.21 C42.94,72.41 42.39,75.27 42.37,76.50 C43.81,77.36 49.33,76.83 51.50,76.00 C57.05,73.82 67.88,65.33 67.42,65.25 C60.48,67.44 45.66,77.54 44.33,78.50 C44.33,78.50 64.96,67.04 64.96,67.04 C61.88,69.03 50.67,78.25 48.16,79.71 C46.56,80.62 43.86,81.73 42.79,81.87 C41.88,81.95 39.80,78.27 38.08,73.88 C37.53,72.44 36.38,71.20 35.83,71.29 C35.17,71.44 34.34,73.42 34.92,74.17 C35.73,75.12 40.14,75.60 42.71,74.62 C44.60,73.88 48.26,71.04 48.08,71.04 C45.18,71.98 37.45,78.45 35.79,80.46 C46.54,71.25 59.99,62.94 63.12,61.58 C62.26,61.92 57.40,66.10 54.97,69.58 C53.15,72.23 51.49,75.38 51.54,75.42 C52.15,75.10 54.73,72.15 56.08,69.12 C57.04,66.97 58.95,61.23 59.00,60.88 C59.00,60.88 54.75,79.67 54.75,79.67 C54.75,79.67 56.96,64.21 56.96,64.21 C55.67,64.33 52.55,81.34 51.79,83.50 C51.50,84.32 51.13,84.77 50.75,84.96 C50.75,84.96 41.83,78.38 41.83,78.38 C43.29,82.35 48.39,87.91 48.75,88.00 C46.74,84.54 41.53,81.64 39.88,81.50 C39.70,82.12 40.66,85.41 41.38,86.33 C42.27,87.37 47.93,88.24 51.01,87.68 C53.58,87.16 57.91,83.41 60.14,80.08 C61.04,78.72 62.42,76.22 62.62,75.71 C61.17,75.08 56.75,75.88 54.08,77.42 C52.92,78.11 50.61,80.67 50.17,81.67 C48.99,84.41 49.43,85.96 50.00,86.67 C51.90,87.30 56.84,86.13 59.62,84.33 C65.06,80.74 66.67,76.46 66.75,76.00 C65.16,76.18 61.87,80.13 60.58,82.42 C59.96,83.53 59.64,84.63 59.54,85.58 C60.85,86.34 61.99,86.62 63.04,86.21 C65.10,85.35 68.50,80.22 69.67,76.71 C70.09,75.40 70.42,73.77 70.50,72.92 C69.33,72.60 68.13,72.57 67.17,73.00 C65.42,73.80 62.77,77.76 62.37,79.46 C62.04,81.12 62.40,84.40 63.62,85.08 C64.30,85.42 66.00,85.27 66.67,84.75 C68.02,83.61 69.52,77.49 69.42,74.42 C69.33,72.68 68.75,71.32 68.00,70.00 C66.61,70.35 65.99,71.07 66.04,72.71 C66.14,75.29 67.16,78.61 68.17,80.00 C68.73,80.77 69.62,81.22 70.46,81.37 C71.59,81.00 72.29,79.06 73.04,74.25 C73.37,72.16 73.63,70.98 73.75,70.79 C73.75,70.79 73.79,77.71 73.79,77.71 C73.79,77.71 79.46,71.79 79.46,71.79 C76.24,75.89 74.01,78.32 72.71,78.96 C71.39,79.56 68.72,79.30 68.04,78.21 C67.50,77.28 67.50,73.75 67.58,73.54 C68.59,73.78 69.69,76.36 69.42,78.58 C69.26,79.61 66.28,82.95 64.75,84.08 C63.95,84.65 62.66,85.01 61.96,84.83 C59.56,84.13 55.39,78.67 54.62,77.62 C54.62,77.62 61.00,84.71 61.00,84.71 C61.00,84.71 54.58,80.25 54.58,80.25 C54.58,80.25 57.25,86.50 57.25,86.50 C57.25,86.50 52.29,82.79 52.29,82.79 C52.29,82.79 55.92,87.42 55.92,87.42 C55.92,87.42 50.75,86.29 50.75,86.29 C50.75,86.29 49.54,87.00 49.54,87.00 C49.54,87.00 45.00,86.00 45.00,86.00 C49.99,89.31 51.31,89.23 52.21,88.96 C52.21,88.96 52.92,86.50 52.92,86.50 C51.93,86.43 50.69,87.53 50.75,88.79 C50.82,89.56 52.04,90.10 53.33,89.96 C56.86,89.47 58.73,86.58 58.75,86.25 C58.32,87.50 57.95,88.06 57.79,88.17 C56.93,88.69 46.68,88.75 45.75,88.21 C45.74,88.21 40.37,84.28 39.33,83.42 C34.56,79.42 30.20,77.18 29.21,76.62 C29.21,76.62 28.25,70.25 28.25,70.25 C28.25,70.25 25.33,70.42 25.33,70.42 C25.01,70.02 23.30,65.18 21.96,57.83 C21.70,56.72 20.40,51.50 19.21,49.71 C16.92,46.34 15.34,42.41 15.04,41.79 C15.04,41.79 16.25,42.00 16.25,42.00 C16.25,42.00 14.50,41.00 14.50,41.00 C14.94,41.07 20.72,43.27 21.17,43.58 C21.83,44.05 23.21,45.26 23.44,45.52" fill="none" stroke="rgb(0, 0, 0)" stroke-width="2.00" stroke-opacity="1.00" stroke-linejoin="round"/>
<path d="M51.00,69.12 C51.00,69.12 51.00,69.00 51.00,69.00 C51.00,69.00 53.25,73.71 53.25,73.71 C52.34,71.47 50.21,68.10 49.12,66.88 C48.91,66.63 48.68,66.44 48.44,66.28" fill="none" stroke="rgb(0, 0, 0)" stroke-width="2.00" stroke-opacity="1.00" stroke-linejoin="round"/>
<path d="M70.62,49.00 C70.62,49.00 70.33,48.75 70.33,48.75" fill="none" stroke="rgb(0, 0, 0)" stroke-width="2.00" stroke-opacity="1.00" stroke-linejoin="round"/>
<path d="M68.25,44.25 C68.25,44.25 67.00,40.38 67.00,40.38 C67.00,40.38 82.12,53.33 82.12,53.33 C82.12,53.33 71.33,37.67 71.33,37.67 C71.85,37.87 75.91,41.61 77.85,43.44 C79.51,44.92 82.38,46.00 83.54,45.21 C83.88,43.36 83.27,40.09 81.72,36.27 C80.63,33.61 80.37,33.00 80.00,32.25" fill="none" stroke="rgb(0, 0, 0)" stroke-width="2.00" stroke-opacity="1.00" stroke-linejoin="round"/>
<path d="M74.50,16.38 C74.50,16.38 73.79,16.42 73.79,16.42 C73.73,17.08 77.88,22.64 79.50,24.58 C83.52,29.38 89.99,33.03 90.88,33.00 C90.88,33.00 78.04,15.79 78.04,15.79 C78.13,16.18 80.33,20.51 81.50,21.25 C84.79,23.22 86.80,19.23 86.96,18.54 C85.90,17.67 84.50,17.38 82.21,17.73 C79.02,18.23 75.72,20.13 74.29,21.21 C78.71,16.81 81.26,14.54 82.08,14.50 C82.56,14.50 84.13,14.22 85.08,14.00 C85.41,16.35 81.58,24.77 81.08,26.88 C81.08,26.88 87.96,23.83 87.96,23.83 C87.86,24.33 85.31,27.63 83.54,28.79 C80.82,30.51 74.91,31.39 73.16,30.77 C71.62,30.15 69.71,28.08 69.16,26.57 C68.10,23.61 67.53,17.44 67.00,12.83 C67.00,12.83 66.75,19.75 66.75,19.75 C66.83,18.68 62.59,18.25 61.88,18.21 C61.12,17.07 65.49,14.14 66.21,14.25 C66.21,14.25 64.75,39.75 64.75,39.75 C64.75,39.75 68.38,24.71 68.38,24.71 C67.28,25.05 64.86,28.58 64.04,30.75 C62.82,34.01 58.50,49.07 58.50,49.04 C58.50,49.04 58.88,31.62 58.88,31.62 C57.89,34.03 57.54,40.60 57.58,43.64 C57.77,53.77 59.16,56.76 59.67,57.33 C60.55,56.57 61.00,55.55 61.12,53.58 C61.60,45.82 60.35,43.96 59.29,42.83 C59.29,42.83 57.67,43.25 57.67,43.25 C55.96,46.26 55.34,50.33 54.88,54.77 C54.53,58.25 53.93,64.60 54.08,64.67 C55.54,64.20 67.29,47.56 68.66,46.09 C69.76,44.92 71.95,43.53 72.54,42.08 C74.65,36.73 74.75,28.05 74.33,26.42 C73.53,26.34 73.18,27.01 73.29,29.04 C73.37,30.44 74.13,39.18 74.50,41.73 C75.01,44.94 75.43,47.04 76.50,48.50 C76.50,48.50 77.50,48.33 77.50,48.33 C80.30,44.57 82.31,23.55 82.58,23.04 C82.66,22.87 85.10,27.54 86.25,28.21 C86.63,28.42 88.75,29.47 88.83,29.54 C88.87,29.57 88.94,29.66 89.03,29.78" fill="none" stroke="rgb(0, 0, 0)" stroke-width="2.00" stroke-opacity="1.00" stroke-linejoin="round"/>
<path d="M86.50,38.25 C86.50,38.25 85.75,38.25 85.75,38.25 C85.00,38.83 77.63,54.55 74.51,58.74 C72.80,61.00 69.41,64.44 68.50,64.54 C68.10,64.01 65.94,60.28 64.46,59.42 C63.00,58.61 59.18,58.53 57.25,59.54 C56.21,60.11 54.35,61.68 53.38,62.79 C53.08,63.13 52.49,63.85 51.61,64.96" fill="none" stroke="rgb(0, 0, 0)" stroke-width="2.00" stroke-opacity="1.00" stroke-linejoin="round"/>
<path d="M46.00,54.25 C46.00,54.25 45.58,54.29 45.58,54.29 C45.72,54.82 50.01,58.13 52.42,59.33 C54.59,60.40 59.86,61.50 60.62,61.46 C60.83,60.29 47.63,52.29 47.62,52.29 C47.55,52.27 47.46,52.26 47.33,52.25 C47.33,52.25 55.42,60.00 55.42,60.00 C52.66,59.88 39.49,53.73 36.38,51.62 C38.23,51.37 41.11,52.09 45.42,53.96 C47.19,54.73 49.62,55.69 49.92,55.75 C48.47,55.17 47.03,54.46 45.92,53.71 C44.85,52.99 43.80,52.10 43.25,51.50" fill="none" stroke="rgb(0, 0, 0)" stroke-width="2.00" stroke-opacity="1.00" stroke-linejoin="round"/>
<path d="M44.38,42.38 C44.73,42.29 44.98,42.25 45.12,42.25 C47.48,42.27 53.75,48.56 53.71,49.00 C52.60,49.39 50.30,48.00 47.93,45.52 C46.57,44.08 45.84,42.99 45.04,41.29 C46.02,40.91 47.02,41.02 48.08,41.79 C48.33,41.97 48.78,42.34 49.43,42.90" fill="none" stroke="rgb(0, 0, 0)" stroke-width="2.00" stroke-opacity="1.00" stroke-linejoin="round"/>
</g>
</svg>
