<?xml version="1.0" encoding="UTF-8" standalone="no"?>
<!DOCTYPE svg PUBLIC "-//W3C//DTD SVG 1.1//EN" "http://www.w3.org/Graphics/SVG/1.1/DTD/svg11.dtd">
<svg width="105.00" height="100.00" viewBox="0.00 0.00 105.00 100.00" xmlns="http://www.w3.org/2000/svg" xmlns:xlink="http://www.w3.org/1999/xlink">
<g stroke-linecap="round" id="圖層_5">
<path d="M48.92,50.72 C48.92,50.72 45.50,54.80 45.50,54.80 C45.50,54.80 41.89,78.76 41.89,78.76" fill="none" stroke="rgb(0, 0, 0)" stroke-width="2.00" stroke-opacity="1.00" stroke-linejoin="round"/>
<path d="M55.63,83.45 C55.63,83.45 56.16,86.53 56.16,86.53" fill="none" stroke="rgb(0, 0, 0)" stroke-width="2.00" stroke-opacity="1.00" stroke-linejoin="round"/>
<path d="M56.69,89.36 C56.69,89.36 58.22,97.44 58.22,97.44 C58.22,97.44 62.42,97.19 62.42,97.19 C62.31,96.94 60.85,95.07 61.03,93.55 C61.10,93.01 62.33,90.56 62.68,89.65 C63.59,87.31 62.69,76.20 60.62,66.52 C59.93,63.31 58.07,54.56 57.74,53.28" fill="none" stroke="rgb(0, 0, 0)" stroke-width="2.00" stroke-opacity="1.00" stroke-linejoin="round"/>
<path d="M46.59,54.99 C46.59,54.99 44.42,58.34 44.42,58.34 C46.85,58.96 51.21,54.94 52.38,53.71" fill="none" stroke="rgb(0, 0, 0)" stroke-width="2.00" stroke-opacity="1.00" stroke-linejoin="round"/>
<path d="M49.82,55.31 C47.29,58.67 44.51,65.47 44.92,66.95 C46.73,67.02 54.87,57.13 54.95,55.16 C54.95,55.07 54.93,54.94 54.88,54.76 C53.50,54.93 46.90,65.05 45.50,69.03 C44.27,72.56 43.98,75.39 44.02,75.45" fill="none" stroke="rgb(0, 0, 0)" stroke-width="2.00" stroke-opacity="1.00" stroke-linejoin="round"/>
<path d="M50.35,72.56 C52.40,68.96 54.34,61.60 53.51,59.88 C51.99,59.87 50.98,60.30 50.06,61.62 C47.18,65.77 45.45,72.26 45.19,73.40" fill="none" stroke="rgb(0, 0, 0)" stroke-width="2.00" stroke-opacity="1.00" stroke-linejoin="round"/>
<path d="M50.09,73.59 C50.09,73.59 50.03,66.24 50.03,66.24 C48.76,66.51 47.88,67.17 47.17,68.74 C46.45,70.31 45.68,72.45 45.44,73.37" fill="none" stroke="rgb(0, 0, 0)" stroke-width="2.00" stroke-opacity="1.00" stroke-linejoin="round"/>
<path d="M51.13,74.23 C51.13,74.23 52.04,62.37 52.04,62.37 C52.04,62.37 51.27,73.61 51.27,73.61" fill="none" stroke="rgb(0, 0, 0)" stroke-width="2.00" stroke-opacity="1.00" stroke-linejoin="round"/>
<path d="M52.55,75.24 C52.55,75.24 54.98,57.80 54.98,57.80 C54.98,57.80 55.83,74.71 55.83,74.71 C55.83,74.71 55.67,54.39 55.67,54.39" fill="none" stroke="rgb(0, 0, 0)" stroke-width="2.00" stroke-opacity="1.00" stroke-linejoin="round"/>
<path d="M56.30,54.88 C56.30,54.88 59.38,78.01 59.38,78.01 C59.38,78.01 58.55,64.82 58.55,64.82 C58.55,64.82 58.18,82.00 58.18,82.00 C55.97,76.97 54.85,76.68 54.44,76.74" fill="none" stroke="rgb(0, 0, 0)" stroke-width="2.00" stroke-opacity="1.00" stroke-linejoin="round"/>
<path d="M55.55,81.45 C55.55,81.45 57.93,79.93 57.93,79.93 C57.93,79.93 55.40,76.08 55.40,76.08 C55.11,76.06 56.14,81.44 56.93,83.01 C57.13,83.39 57.62,84.20 58.40,85.45 C58.40,85.45 59.00,79.00 59.00,79.00 C59.00,79.00 59.00,90.00 59.00,90.00 C59.00,90.00 60.00,82.00 60.00,82.00 C60.00,82.00 59.70,92.01 59.70,92.01 C59.70,92.01 59.67,85.80 59.67,85.80 C59.67,85.80 59.38,89.78 59.38,89.78 C61.03,88.56 61.54,78.99 60.95,76.15 C60.95,76.15 62.00,84.20 62.00,84.20 C62.00,84.20 62.02,79.36 62.02,79.36 C61.95,80.90 60.83,83.74 60.53,84.13 C60.36,84.35 60.19,84.56 60.02,84.78" fill="none" stroke="rgb(0, 0, 0)" stroke-width="2.00" stroke-opacity="1.00" stroke-linejoin="round"/>
<path d="M51.45,70.72 C51.45,70.72 51.01,69.10 51.01,69.10 C51.01,69.10 50.77,68.96 50.77,68.96 C50.77,68.96 49.11,71.59 49.11,71.59" fill="none" stroke="rgb(0, 0, 0)" stroke-width="2.00" stroke-opacity="1.00" stroke-linejoin="round"/>
<path d="M49.02,73.16 C49.02,73.16 48.81,71.80 48.81,71.80" fill="none" stroke="rgb(0, 0, 0)" stroke-width="2.00" stroke-opacity="1.00" stroke-linejoin="round"/>
<path d="M50.23,73.30 C50.24,73.26 50.25,73.11 50.25,72.85 C50.26,72.11 50.27,71.37 50.28,70.63" fill="none" stroke="rgb(0, 0, 0)" stroke-width="2.00" stroke-opacity="1.00" stroke-linejoin="round"/>
<path d="M50.86,59.27 C50.86,59.27 50.57,59.12 50.57,59.12 C50.57,61.29 50.82,65.85 51.42,67.72 C51.95,69.31 53.19,70.63 53.63,70.64 C53.63,70.64 53.56,57.50 53.56,57.50 C54.61,60.14 55.20,61.70 55.69,63.18 C55.88,63.74 56.07,64.31 56.25,64.87" fill="none" stroke="rgb(0, 0, 0)" stroke-width="2.00" stroke-opacity="1.00" stroke-linejoin="round"/>
<path d="M57.95,54.11 C60.28,58.95 63.12,68.89 63.36,75.76 C63.62,84.77 61.22,90.26 61.00,90.47 C60.79,90.63 60.57,90.79 60.36,90.95" fill="none" stroke="rgb(0, 0, 0)" stroke-width="2.00" stroke-opacity="1.00" stroke-linejoin="round"/>
<path d="M57.96,53.67 C59.57,56.17 61.46,61.32 62.38,65.27 C63.29,69.26 64.09,75.95 64.11,79.85 C64.12,85.61 61.35,92.33 60.88,92.79 C60.75,92.92 60.46,93.07 60.00,93.24" fill="none" stroke="rgb(0, 0, 0)" stroke-width="2.00" stroke-opacity="1.00" stroke-linejoin="round"/>
<path d="M62.32,90.40 C61.62,92.37 61.15,93.41 60.89,93.95 C60.70,94.41 60.55,95.12 60.56,95.40 C60.56,95.45 60.56,95.53 60.56,95.64" fill="none" stroke="rgb(0, 0, 0)" stroke-width="2.00" stroke-opacity="1.00" stroke-linejoin="round"/>
<path d="M62.02,92.16 C62.02,92.16 61.73,92.16 61.73,92.16 C61.35,92.56 61.12,92.88 61.04,93.12 C60.94,93.37 60.88,93.86 60.85,94.59 C60.85,94.65 60.84,94.83 60.85,94.77" fill="none" stroke="rgb(0, 0, 0)" stroke-width="2.00" stroke-opacity="1.00" stroke-linejoin="round"/>
<path d="M47.78,55.71 C47.78,55.71 45.87,55.27 45.87,55.27 C45.09,55.13 42.40,58.79 41.00,61.52 C38.89,65.73 36.61,74.81 36.18,76.10 C36.18,76.10 31.49,76.69 31.49,76.69 C31.83,77.85 32.14,78.41 32.88,78.65 C35.18,79.40 37.14,79.66 37.74,79.71 C37.96,79.51 45.24,66.92 45.25,64.55 C45.24,64.14 44.98,63.71 44.75,63.46 C43.49,63.68 42.66,64.28 41.80,65.79 C40.89,67.40 40.24,69.18 39.52,71.81 C39.52,71.81 41.36,64.53 41.36,64.53 C41.36,64.53 37.80,77.09 37.80,77.09 C36.47,77.68 35.68,77.82 35.13,77.56 C35.06,77.53 35.03,77.51 35.03,77.50" fill="none" stroke="rgb(0, 0, 0)" stroke-width="2.00" stroke-opacity="1.00" stroke-linejoin="round"/>
<path d="M57.91,52.81 C57.76,52.77 57.68,52.75 57.66,52.75 C57.62,52.75 57.73,52.79 57.77,52.81" fill="none" stroke="rgb(0, 0, 0)" stroke-width="2.00" stroke-opacity="1.00" stroke-linejoin="round"/>
<path d="M58.20,53.21 C58.20,53.21 62.70,59.19 62.70,59.19 C64.18,61.64 67.67,68.13 68.97,73.66 C69.30,75.06 69.64,75.82 70.89,76.28 C72.18,76.74 73.63,78.00 73.61,78.82 C73.01,79.59 70.63,80.07 69.00,79.81 C68.02,79.63 67.55,79.02 67.14,77.45 C66.87,76.35 63.93,65.44 63.49,62.23 C63.49,62.23 68.19,77.47 68.19,77.47 C68.55,77.51 69.66,78.68 70.21,78.58 C70.32,78.56 70.49,78.50 70.73,78.40" fill="none" stroke="rgb(0, 0, 0)" stroke-width="2.00" stroke-opacity="1.00" stroke-linejoin="round"/>
<path d="M54.39,47.81 C54.36,47.73 53.60,48.32 53.25,48.52 C51.51,49.48 46.42,49.62 44.85,48.92 C42.27,47.69 37.93,43.23 35.94,39.69 C34.96,37.90 33.58,34.34 33.17,32.52 C32.43,29.02 33.41,23.36 34.47,21.41 C35.45,19.69 38.33,16.71 40.34,15.36 C44.26,12.77 53.70,9.91 58.40,9.42 C61.29,9.17 67.66,10.07 70.17,11.91 C71.40,12.86 73.12,15.22 73.81,16.85 C74.90,19.57 75.64,25.96 75.63,28.05 C75.54,32.64 73.66,38.20 71.20,41.28 C70.28,42.37 66.52,44.66 63.61,45.82 C60.39,47.05 56.05,48.06 52.38,48.11 C48.24,48.11 45.04,47.68 42.18,46.79 C39.74,46.00 36.12,44.16 34.61,43.04 C32.82,41.66 30.19,38.00 29.45,35.53 C28.71,32.92 28.71,26.80 29.48,23.29 C30.23,19.98 32.67,14.26 34.03,12.50 C35.69,10.43 40.54,7.89 43.57,6.90 C46.22,6.06 49.48,5.17 51.94,4.64 C54.95,4.04 61.00,4.01 63.84,5.52 C66.19,6.85 71.41,12.41 72.96,14.54 C75.83,18.53 78.39,25.53 78.61,30.13 C78.70,32.90 77.27,39.26 75.14,42.16 C73.11,44.81 67.67,48.10 64.15,49.18 C58.46,50.88 51.88,51.48 50.86,51.56" fill="none" stroke="rgb(0, 0, 0)" stroke-width="2.00" stroke-opacity="1.00" stroke-linejoin="round"/>
<path d="M47.92,50.44 C47.92,50.44 47.63,50.12 47.63,50.12" fill="none" stroke="rgb(0, 0, 0)" stroke-width="2.00" stroke-opacity="1.00" stroke-linejoin="round"/>
<path d="M49.65,51.03 C49.65,51.03 41.36,50.08 41.36,50.08 C37.53,49.20 33.61,47.98 32.07,47.10 C30.36,46.09 28.22,43.19 27.62,41.15 C26.63,37.62 27.03,23.80 28.35,20.43 C29.20,18.34 32.24,14.62 34.88,12.67 C37.76,10.59 44.00,7.64 47.22,6.89 C49.32,6.43 55.33,5.92 57.80,6.11 C61.63,6.45 67.50,9.01 70.55,11.51 C73.23,13.78 77.18,18.75 78.32,21.46 C79.43,24.20 79.99,30.59 79.28,33.70 C78.45,37.16 75.19,42.37 73.25,44.15 C71.33,45.83 66.68,48.12 64.01,48.94 C61.64,49.64 56.59,50.62 54.06,50.65 C51.33,50.65 47.41,49.92 44.16,48.94 C39.79,47.58 36.06,46.06 34.64,44.63 C33.09,43.02 29.92,39.11 28.46,36.86 C27.22,34.87 27.02,28.31 27.67,25.49 C28.56,21.98 31.83,17.76 34.44,15.62 C36.58,13.94 41.07,11.39 44.55,9.90 C48.14,8.41 52.63,7.56 56.90,7.57 C62.56,7.60 65.42,8.89 65.88,9.11 C65.88,9.11 60.35,7.36 60.35,7.36 C62.77,6.85 67.71,8.31 70.64,10.26 C71.36,10.75 71.56,10.97 71.69,11.26 C71.47,12.58 64.47,6.46 63.93,5.95 C64.92,6.01 69.88,8.44 71.64,9.93 C73.39,11.45 75.70,14.54 76.67,16.70 C78.55,20.99 78.43,27.49 77.93,27.84 C77.58,27.83 77.11,27.73 76.84,27.46 C76.46,27.07 76.20,26.60 76.05,26.05 C75.80,25.11 74.66,18.18 74.66,17.90 C75.58,18.93 76.73,23.57 76.66,25.47 C76.54,27.69 74.85,31.41 73.01,32.92 C70.99,34.52 65.52,36.05 62.81,35.60 C61.60,35.39 45.96,28.10 43.72,26.40 C40.74,24.17 36.66,23.05 33.88,23.22 C32.74,23.31 30.52,24.98 30.09,26.01 C29.04,28.64 29.29,33.21 30.41,35.26 C30.55,35.52 30.87,36.03 31.36,36.78" fill="none" stroke="rgb(0, 0, 0)" stroke-width="2.00" stroke-opacity="1.00" stroke-linejoin="round"/>
<path d="M29.13,21.97 C29.13,21.97 29.13,21.82 29.13,21.82 C29.13,21.82 28.99,21.68 28.99,21.68 C28.99,21.68 28.27,21.73 28.27,21.73 C27.19,22.64 25.65,25.37 25.19,27.22 C24.76,29.05 24.42,34.63 24.76,36.35 C25.19,38.34 28.47,43.98 29.57,45.05 C31.03,46.41 33.73,47.54 34.76,47.81 C35.08,47.90 35.78,48.06 36.84,48.29" fill="none" stroke="rgb(0, 0, 0)" stroke-width="2.00" stroke-opacity="1.00" stroke-linejoin="round"/>
<path d="M46.46,11.10 C46.46,11.10 46.46,10.52 46.46,10.52 C33.75,26.16 31.87,30.34 31.64,31.46 C31.64,31.46 56.05,9.83 56.05,9.83 C45.04,20.25 35.05,32.90 34.08,35.48 C35.70,35.65 37.16,35.10 39.34,33.42 C41.60,31.67 60.69,14.21 63.44,11.94 C63.44,11.94 35.32,39.27 35.32,39.27 C36.74,39.23 39.92,36.78 43.54,33.82 C59.26,20.50 66.46,15.55 67.31,15.12 C67.31,15.12 35.89,43.36 35.89,43.36 C37.35,43.35 42.16,40.49 45.67,38.02 C55.99,30.71 66.73,23.67 71.50,21.48 C72.04,22.07 49.60,38.82 40.98,43.87 C41.85,43.60 55.42,34.87 62.00,30.64 C66.67,27.73 73.45,24.85 73.87,25.00 C74.23,26.18 65.49,33.67 59.08,38.01 C49.33,44.50 45.72,46.64 44.82,47.13 C47.17,45.87 61.39,37.61 64.65,36.15 C67.72,34.85 72.38,33.54 72.91,34.11 C72.53,36.04 70.15,37.90 67.12,39.95 C58.34,45.70 57.66,46.33 57.62,46.64 C59.82,47.15 61.36,47.31 63.32,47.16 C64.07,47.10 64.81,47.04 65.56,46.98" fill="none" stroke="rgb(0, 0, 0)" stroke-width="2.00" stroke-opacity="1.00" stroke-linejoin="round"/>
<path d="M47.34,11.10 C47.34,11.10 47.16,11.46 47.16,11.46 C47.16,11.46 61.55,42.66 61.55,42.66 C61.55,42.66 52.46,10.37 52.46,10.37 C55.89,13.08 65.83,37.83 66.87,39.66 C66.87,39.66 58.35,8.68 58.35,8.68 C58.35,8.68 71.62,37.34 71.62,37.34 C71.62,37.34 62.34,9.29 62.34,9.29 C62.47,9.02 70.79,23.69 72.65,28.65 C72.76,28.94 72.94,29.44 73.18,30.14 C73.18,30.14 67.07,11.91 67.07,11.91 C67.07,11.91 76.05,28.82 76.05,28.82 C76.05,28.82 72.08,19.45 72.08,19.45 C73.72,22.83 74.44,30.13 74.59,33.50 C74.66,36.24 72.38,39.48 71.03,40.35 C70.99,40.37 70.93,40.40 70.85,40.46" fill="none" stroke="rgb(0, 0, 0)" stroke-width="2.00" stroke-opacity="1.00" stroke-linejoin="round"/>
<path d="M39.70,14.92 C39.70,14.92 39.12,14.63 39.12,14.63 C39.99,17.49 48.80,38.97 49.35,39.74 C49.58,40.06 50.14,40.71 51.05,41.67 C52.05,40.40 51.95,35.52 51.75,34.04 C50.12,22.54 45.69,14.21 44.70,12.52 C44.38,12.84 48.45,25.24 52.08,34.66 C55.26,42.67 57.25,44.76 58.13,45.54 C59.20,43.72 58.39,38.29 57.89,36.07 C55.05,23.72 49.58,13.80 48.66,12.74 C47.57,13.41 54.13,40.94 54.78,43.53 C52.36,36.26 47.05,20.63 45.85,18.15 C44.08,14.56 42.94,13.14 42.40,12.60 C42.16,14.90 44.02,21.41 45.35,25.44 C49.04,36.35 52.21,44.06 52.97,44.14 C53.35,42.49 50.08,31.22 47.93,26.13 C44.70,18.61 41.99,15.62 41.27,15.07 C40.75,17.17 40.61,18.37 40.87,19.56 C44.34,35.37 49.60,42.38 49.98,42.67 C50.74,41.38 46.19,29.96 43.54,25.57 C41.98,23.01 39.00,19.38 37.72,18.96 C36.72,20.48 36.39,22.12 36.82,24.29 C37.61,28.29 42.15,37.13 45.10,41.04 C47.13,43.69 49.25,45.26 50.18,45.59 C50.79,43.57 50.78,41.79 50.03,39.52 C48.66,35.39 42.75,25.39 40.24,22.43 C37.94,19.75 36.39,18.68 35.67,18.35 C35.18,20.55 35.08,21.84 35.43,23.11 C37.00,28.87 41.70,39.33 44.18,41.82 C44.95,42.58 45.98,42.99 46.78,43.07 C47.25,41.14 47.06,39.40 46.04,37.29 C39.88,24.68 33.00,22.66 32.24,22.83 C31.56,24.18 32.31,28.69 33.12,31.00 C33.87,33.06 36.13,37.39 37.18,38.88 C39.64,42.31 41.28,43.31 42.03,43.48 C42.50,42.09 42.41,40.83 41.44,39.22 C38.65,34.61 32.05,28.20 30.09,27.18 C29.19,28.62 29.03,29.95 29.72,32.20 C31.03,36.39 34.42,42.17 36.50,43.75 C37.47,44.47 38.67,44.88 39.63,44.97 C40.44,43.78 40.48,42.78 39.48,41.35 C34.87,34.80 30.35,32.14 29.52,31.88 C28.60,32.85 28.27,33.71 28.57,34.94 C29.22,37.42 32.22,41.44 34.74,43.24 C36.90,44.75 40.21,46.04 41.03,45.81 C41.19,44.51 32.63,38.17 30.43,37.90 C30.10,38.88 30.26,39.72 31.14,40.67 C32.84,42.44 37.99,44.64 41.27,44.97 C47.70,45.57 53.89,44.97 53.63,44.83 C53.63,44.83 46.61,42.70 46.61,42.70 C47.44,44.16 51.23,45.72 53.75,45.93 C55.63,46.06 59.90,45.29 60.34,45.17 C60.34,45.17 53.04,45.93 53.04,45.93 C53.88,46.98 56.67,47.49 58.57,47.20 C60.11,46.94 66.15,44.06 66.82,42.77 C67.15,42.07 67.31,40.60 67.31,38.95 C67.31,38.29 67.31,37.63 67.31,36.96" fill="none" stroke="rgb(0, 0, 0)" stroke-width="2.00" stroke-opacity="1.00" stroke-linejoin="round"/>
<path d="M61.14,36.36 C60.85,39.23 60.86,40.81 61.31,41.55 C62.27,43.04 65.47,44.21 67.30,43.56 C70.44,42.35 74.00,37.08 74.92,35.55 C72.28,36.47 71.10,41.57 71.30,42.43 C73.70,42.33 77.18,35.64 77.23,35.15 C77.23,35.15 74.41,40.10 74.41,40.10 C74.41,40.10 76.71,30.51 76.71,30.51 C76.35,32.35 75.50,34.78 74.53,36.38 C74.28,36.79 73.88,37.32 73.34,37.96" fill="none" stroke="rgb(0, 0, 0)" stroke-width="2.00" stroke-opacity="1.00" stroke-linejoin="round"/>
<path d="M47.34,13.75 C47.34,13.75 46.61,13.16 46.61,13.16 C46.61,13.16 46.17,13.16 46.17,13.16 C49.07,15.54 52.70,17.15 54.88,17.43 C56.44,17.61 58.18,16.33 58.11,15.34 C57.98,14.35 56.57,13.11 54.90,11.79 C54.90,11.79 64.01,15.80 64.01,15.80 C59.24,14.57 55.10,13.62 53.04,13.60 C52.14,13.61 50.03,14.04 49.25,14.53 C48.86,14.78 47.85,15.51 46.22,16.70" fill="none" stroke="rgb(0, 0, 0)" stroke-width="2.00" stroke-opacity="1.00" stroke-linejoin="round"/>
<path d="M37.36,14.04 C36.74,14.62 36.31,15.06 36.05,15.35 C34.41,17.23 33.06,20.34 32.95,23.86 C32.94,24.40 32.94,25.29 32.97,26.55 C32.97,26.55 32.19,19.77 32.19,19.77 C31.31,20.11 30.28,23.44 30.11,27.70 C30.05,29.61 30.48,36.17 31.04,38.66 C31.55,40.84 32.73,41.93 33.51,41.74 C33.51,41.74 32.73,36.56 32.73,36.56 C31.82,37.12 31.47,40.47 31.65,41.92 C31.87,43.51 32.90,45.34 33.95,45.76 C34.41,44.11 30.54,42.15 29.74,42.23 C29.74,42.23 32.91,43.91 32.91,43.91 C32.91,43.91 30.65,41.11 30.65,41.11 C31.60,42.25 35.28,44.08 38.04,44.48 C38.56,44.56 39.66,44.67 41.34,44.82" fill="none" stroke="rgb(0, 0, 0)" stroke-width="2.00" stroke-opacity="1.00" stroke-linejoin="round"/>
<path d="M65.84,39.88 C64.74,40.76 64.32,41.33 64.23,42.23 C64.06,43.82 63.63,44.84 63.54,44.88 C63.54,44.88 67.58,41.47 67.58,41.47 C67.58,41.47 64.74,44.48 64.74,44.48 C64.74,44.48 67.90,43.70 67.90,43.70 C67.92,43.75 67.85,43.78 67.70,43.81 C67.56,43.83 67.12,43.89 66.40,43.98" fill="none" stroke="rgb(0, 0, 0)" stroke-width="2.00" stroke-opacity="1.00" stroke-linejoin="round"/>
<path d="M58.82,49.31 C58.82,49.31 57.62,46.05 57.62,46.05 C57.62,46.05 57.38,46.29 57.38,46.29" fill="none" stroke="rgb(0, 0, 0)" stroke-width="2.00" stroke-opacity="1.00" stroke-linejoin="round"/>
<path d="M54.98,49.28 C54.98,49.28 54.98,49.13 54.98,49.13 C54.98,49.13 54.83,48.99 54.83,48.99 C54.83,48.99 51.25,52.65 51.25,52.65" fill="none" stroke="rgb(0, 0, 0)" stroke-width="2.00" stroke-opacity="1.00" stroke-linejoin="round"/>
<path d="M56.10,51.92 C56.10,51.92 56.59,50.87 56.59,50.87 C56.59,50.87 54.29,52.82 54.29,52.82" fill="none" stroke="rgb(0, 0, 0)" stroke-width="2.00" stroke-opacity="1.00" stroke-linejoin="round"/>
<path d="M55.06,50.54 C55.13,50.57 57.77,52.49 58.15,52.80 C58.24,52.87 57.92,52.76 57.81,52.71" fill="none" stroke="rgb(0, 0, 0)" stroke-width="2.00" stroke-opacity="1.00" stroke-linejoin="round"/>
<path d="M43.72,80.29 C43.72,80.29 42.12,80.84 42.12,80.84" fill="none" stroke="rgb(0, 0, 0)" stroke-width="2.00" stroke-opacity="1.00" stroke-linejoin="round"/>
<path d="M55.21,84.30 C55.21,84.30 55.47,84.61 55.47,84.61" fill="none" stroke="rgb(0, 0, 0)" stroke-width="2.00" stroke-opacity="1.00" stroke-linejoin="round"/>
<path d="M45.19,76.57 C45.19,76.57 47.07,75.53 47.07,75.53" fill="none" stroke="rgb(0, 0, 0)" stroke-width="2.00" stroke-opacity="1.00" stroke-linejoin="round"/>
<path d="M51.66,75.37 C51.66,75.37 52.27,75.38 52.27,75.38" fill="none" stroke="rgb(0, 0, 0)" stroke-width="2.00" stroke-opacity="1.00" stroke-linejoin="round"/>
<path d="M52.10,75.59 C52.10,75.59 51.99,75.24 51.99,75.24" fill="none" stroke="rgb(0, 0, 0)" stroke-width="2.00" stroke-opacity="1.00" stroke-linejoin="round"/>
<path d="M53.30,76.48 C53.30,76.48 53.28,76.11 53.28,76.11" fill="none" stroke="rgb(0, 0, 0)" stroke-width="2.00" stroke-opacity="1.00" stroke-linejoin="round"/>
<path d="M51.59,75.36 C51.59,75.36 51.17,74.35 51.17,74.35" fill="none" stroke="rgb(0, 0, 0)" stroke-width="2.00" stroke-opacity="1.00" stroke-linejoin="round"/>
<path d="M54.52,84.86 C54.52,84.86 55.75,87.36 55.75,87.36" fill="none" stroke="rgb(0, 0, 0)" stroke-width="2.00" stroke-opacity="1.00" stroke-linejoin="round"/>
<path d="M48.55,73.98 C48.55,73.98 50.72,74.24 50.72,74.24" fill="none" stroke="rgb(0, 0, 0)" stroke-width="2.00" stroke-opacity="1.00" stroke-linejoin="round"/>
<path d="M50.90,76.17 C50.90,76.17 49.08,74.30 49.08,74.30" fill="none" stroke="rgb(0, 0, 0)" stroke-width="2.00" stroke-opacity="1.00" stroke-linejoin="round"/>
<path d="M50.38,75.44 C50.38,75.44 51.32,77.94 51.32,77.94" fill="none" stroke="rgb(0, 0, 0)" stroke-width="2.00" stroke-opacity="1.00" stroke-linejoin="round"/>
<path d="M51.89,77.38 C51.89,77.38 50.59,75.13 50.59,75.13" fill="none" stroke="rgb(0, 0, 0)" stroke-width="2.00" stroke-opacity="1.00" stroke-linejoin="round"/>
<path d="M52.17,79.95 C52.17,79.95 52.25,82.34 52.25,82.34" fill="none" stroke="rgb(0, 0, 0)" stroke-width="2.00" stroke-opacity="1.00" stroke-linejoin="round"/>
<path d="M48.15,74.49 C48.15,74.49 48.74,75.60 48.74,75.60" fill="none" stroke="rgb(0, 0, 0)" stroke-width="2.00" stroke-opacity="1.00" stroke-linejoin="round"/>
<path d="M48.76,74.89 C48.76,74.89 46.70,74.41 46.70,74.41" fill="none" stroke="rgb(0, 0, 0)" stroke-width="2.00" stroke-opacity="1.00" stroke-linejoin="round"/>
<path d="M47.61,74.33 C47.61,74.33 48.55,75.81 48.55,75.81" fill="none" stroke="rgb(0, 0, 0)" stroke-width="2.00" stroke-opacity="1.00" stroke-linejoin="round"/>
<path d="M42.14,81.52 C42.14,81.52 46.17,95.76 46.17,95.76 C46.17,95.76 44.84,97.23 44.84,97.23 C44.84,97.23 48.69,97.38 48.69,97.38 C49.13,97.36 49.39,90.97 50.33,87.75 C50.86,85.98 51.30,85.46 52.20,85.26 C52.31,85.24 53.08,84.84 53.26,84.82 C53.39,84.81 53.64,84.79 53.21,84.62" fill="none" stroke="rgb(0, 0, 0)" stroke-width="2.00" stroke-opacity="1.00" stroke-linejoin="round"/>
<path d="M46.49,76.82 C46.49,76.82 49.79,75.76 49.79,75.76" fill="none" stroke="rgb(0, 0, 0)" stroke-width="2.00" stroke-opacity="1.00" stroke-linejoin="round"/>
<path d="M46.01,75.29 C46.01,75.29 44.78,81.14 44.78,81.14 C45.99,81.56 46.90,81.43 47.86,80.43 C48.91,79.34 49.90,77.96 50.55,76.82" fill="none" stroke="rgb(0, 0, 0)" stroke-width="2.00" stroke-opacity="1.00" stroke-linejoin="round"/>
<path d="M46.08,75.41 C44.34,79.53 43.51,83.69 43.94,84.91 C44.38,86.02 45.32,86.36 45.84,86.36 C46.76,85.74 48.16,82.60 48.45,80.39 C48.73,78.04 48.19,76.38 47.81,75.74 C46.72,76.07 46.09,76.60 45.52,77.87 C43.24,83.11 44.52,86.69 45.65,89.26 C45.65,89.26 47.15,83.86 47.15,83.86 C47.15,83.86 46.30,91.56 46.30,91.56 C46.30,91.56 47.10,89.41 47.10,89.41 C47.10,89.41 46.79,93.31 46.79,93.31 C46.79,93.31 47.27,91.26 47.27,91.26 C47.27,91.26 47.35,94.43 47.35,94.43 C47.35,94.43 51.66,78.21 51.66,78.21" fill="none" stroke="rgb(0, 0, 0)" stroke-width="2.00" stroke-opacity="1.00" stroke-linejoin="round"/>
<path d="M51.65,79.15 C51.65,79.15 51.32,80.59 51.32,80.59 C51.32,80.59 52.23,79.27 52.23,79.27" fill="none" stroke="rgb(0, 0, 0)" stroke-width="2.00" stroke-opacity="1.00" stroke-linejoin="round"/>
<path d="M49.40,76.28 C49.40,76.28 47.35,86.34 47.35,86.34 C47.35,86.34 50.25,76.96 50.25,76.96" fill="none" stroke="rgb(0, 0, 0)" stroke-width="2.00" stroke-opacity="1.00" stroke-linejoin="round"/>
<path d="M49.13,77.02 C49.13,77.02 48.40,82.97 48.40,82.97 C48.40,82.97 51.01,76.77 51.01,76.77" fill="none" stroke="rgb(0, 0, 0)" stroke-width="2.00" stroke-opacity="1.00" stroke-linejoin="round"/>
<path d="M24.73,31.07 C24.73,31.07 24.43,31.07 24.43,31.07 C24.49,31.19 24.63,25.41 25.87,22.97 C27.00,20.85 29.65,16.84 31.41,14.92 C34.22,11.91 42.98,7.77 44.57,7.43 C45.02,7.34 45.99,7.20 47.50,7.02" fill="none" stroke="rgb(0, 0, 0)" stroke-width="2.00" stroke-opacity="1.00" stroke-linejoin="round"/>
<path d="M48.22,55.16 C48.22,55.16 47.93,55.16 47.93,55.16 C47.93,55.16 51.72,53.13 51.72,53.13 C51.72,53.13 47.48,55.11 47.48,55.11 C47.48,55.11 48.42,54.07 48.42,54.07" fill="none" stroke="rgb(0, 0, 0)" stroke-width="2.00" stroke-opacity="1.00" stroke-linejoin="round"/>
<path d="M48.62,54.33" fill="none" stroke="rgb(0, 0, 0)" stroke-width="2.00" stroke-opacity="1.00" stroke-linejoin="round"/>
<path d="M48.74,52.59 C48.74,52.59 49.32,51.92 49.32,51.92 C49.32,51.92 48.27,52.61 48.27,52.61 C48.34,52.60 49.60,51.94 49.66,51.92 C49.68,51.92 49.71,51.92 49.75,51.92" fill="none" stroke="rgb(0, 0, 0)" stroke-width="2.00" stroke-opacity="1.00" stroke-linejoin="round"/>
<path d="M47.96,53.47 C47.96,53.47 47.93,53.40 47.93,53.40 C47.93,53.40 49.32,51.71 49.32,51.71 C49.32,51.71 48.23,52.73 48.23,52.73 C48.18,52.76 49.47,51.29 49.62,51.16 C49.66,51.13 49.79,51.02 50.01,50.86" fill="none" stroke="rgb(0, 0, 0)" stroke-width="2.00" stroke-opacity="1.00" stroke-linejoin="round"/>
<path d="M47.56,53.54 C47.56,53.54 47.49,53.43 47.49,53.43 C47.50,53.10 48.78,51.61 49.31,51.18 C49.38,51.13 49.57,50.98 49.90,50.73" fill="none" stroke="rgb(0, 0, 0)" stroke-width="2.00" stroke-opacity="1.00" stroke-linejoin="round"/>
<path d="M60.85,22.82 C60.85,22.82 59.63,21.89 59.63,21.89 C59.26,23.10 61.09,35.60 62.37,38.76 C62.89,39.98 64.25,41.35 65.57,41.34 C66.66,40.72 67.45,39.10 67.65,37.18 C67.89,34.83 67.12,29.13 66.32,27.06 C65.96,26.19 64.56,24.53 63.59,24.40 C62.27,24.27 59.85,26.26 59.23,27.60 C55.18,37.04 59.36,41.08 60.09,41.36 C61.36,41.13 62.57,39.87 62.93,39.15 C65.12,34.62 65.50,26.97 65.05,26.32 C64.29,26.38 62.44,28.94 61.52,31.69 C59.72,37.20 60.43,39.60 60.89,40.59 C62.01,41.34 63.93,40.72 64.80,39.92 C65.66,39.07 67.57,35.88 68.22,33.72 C68.55,32.58 68.33,31.91 67.90,31.18 C66.60,30.85 64.93,31.51 64.13,32.11 C61.74,33.93 59.52,38.07 59.44,38.74 C59.41,38.97 59.44,39.39 59.53,39.98" fill="none" stroke="rgb(0, 0, 0)" stroke-width="2.00" stroke-opacity="1.00" stroke-linejoin="round"/>
<path d="M70.16,26.08 C69.60,26.33 68.78,29.00 68.56,32.12 C68.23,37.10 69.15,38.51 69.59,38.81 C70.71,38.25 71.30,37.68 71.62,36.58 C73.03,31.71 72.43,27.37 71.59,26.47 C71.59,26.47 70.50,26.56 70.50,26.56 C67.80,28.76 66.30,35.54 66.61,36.75 C67.60,36.71 68.20,36.39 68.73,35.42 C69.53,33.92 71.54,29.26 71.74,28.72 C71.74,28.72 68.83,37.62 68.83,37.62 C69.26,37.25 70.73,33.36 71.12,30.79 C71.54,27.95 71.16,24.38 70.78,23.23 C70.36,21.99 68.68,19.67 67.71,18.95 C66.71,18.24 64.13,17.58 62.70,17.64 C61.01,17.76 56.44,19.29 54.22,20.77 C52.32,22.05 50.96,24.22 51.43,25.10 C52.00,26.08 54.82,26.70 56.14,26.53 C58.73,26.14 62.97,22.58 63.22,20.96 C63.31,20.11 62.90,18.91 62.20,18.28 C60.64,16.95 55.17,15.37 52.40,15.47 C50.48,15.56 47.45,16.72 46.32,17.37 C46.32,17.37 52.39,12.90 52.39,12.90 C52.39,12.90 47.64,13.19 47.64,13.19 C47.64,13.19 51.64,9.78 51.64,9.78 C51.68,9.78 45.66,10.29 43.97,11.12 C43.11,11.58 41.15,13.37 40.54,14.23 C37.13,19.18 37.53,23.48 37.83,24.03 C38.19,24.66 39.08,25.95 39.61,26.63" fill="none" stroke="rgb(0, 0, 0)" stroke-width="2.00" stroke-opacity="1.00" stroke-linejoin="round"/>
<path d="M49.98,38.65 C49.97,38.64 53.11,39.83 55.85,40.09 C57.68,40.24 62.50,40.16 62.67,40.01 C62.67,40.01 49.80,35.73 49.80,35.73 C49.80,35.73 60.64,37.09 60.64,37.09 C59.41,35.72 53.21,35.42 52.78,36.29 C52.91,36.67 53.05,36.91 53.65,37.62 C54.78,38.96 55.60,40.00 56.09,40.71" fill="none" stroke="rgb(0, 0, 0)" stroke-width="2.00" stroke-opacity="1.00" stroke-linejoin="round"/>
<path d="M46.57,45.02 C46.97,45.32 50.91,46.26 54.85,46.39 C56.09,46.43 57.22,46.28 57.91,46.11 C55.84,44.59 48.33,44.47 47.15,45.33 C47.46,45.61 49.31,45.85 50.05,45.98 C51.05,46.16 52.77,46.76 54.05,47.29" fill="none" stroke="rgb(0, 0, 0)" stroke-width="2.00" stroke-opacity="1.00" stroke-linejoin="round"/>
<path d="M59.14,72.96 C58.77,72.73 58.22,71.98 57.05,70.31 C56.28,69.21 55.97,68.80 55.93,68.84 C55.93,68.84 61.54,78.20 61.54,78.20 C61.54,78.20 62.04,72.73 62.04,72.73 C61.64,73.60 60.01,78.29 59.14,78.93 C57.16,80.25 52.29,78.77 52.02,78.66 C52.79,79.23 54.49,80.45 55.06,80.84 C55.48,81.12 56.02,81.48 56.69,81.92 C56.94,82.07 57.18,82.23 57.43,82.39" fill="none" stroke="rgb(0, 0, 0)" stroke-width="2.00" stroke-opacity="1.00" stroke-linejoin="round"/>
<path d="M55.88,83.20 C56.09,83.77 56.64,84.87 57.34,86.04 C57.80,86.81 58.73,88.25 58.78,88.39 C58.88,88.68 58.94,88.98 59.02,89.27 C59.05,89.37 59.08,89.46 59.12,89.52" fill="none" stroke="rgb(0, 0, 0)" stroke-width="2.00" stroke-opacity="1.00" stroke-linejoin="round"/>
<path d="M57.44,86.46 C57.94,87.45 58.37,88.37 58.47,88.88 C58.57,89.35 58.63,89.94 58.68,90.67 C58.69,90.90 58.69,91.23 58.68,91.64" fill="none" stroke="rgb(0, 0, 0)" stroke-width="2.00" stroke-opacity="1.00" stroke-linejoin="round"/>
<path d="M57.59,87.55 C58.07,88.69 58.79,90.44 58.90,90.94 C59.13,91.96 59.33,93.49 59.43,94.80 C59.44,94.99 59.45,95.13 59.45,95.23" fill="none" stroke="rgb(0, 0, 0)" stroke-width="2.00" stroke-opacity="1.00" stroke-linejoin="round"/>
<path d="M59.92,94.85 C59.92,94.85 59.92,95.43 59.92,95.43 C59.92,95.43 59.92,94.52 59.92,94.52" fill="none" stroke="rgb(0, 0, 0)" stroke-width="2.00" stroke-opacity="1.00" stroke-linejoin="round"/>
<path d="M47.35,95.93 C47.35,95.93 47.65,95.67 47.65,95.67 C47.64,95.48 48.22,86.20 48.90,83.24 C49.93,78.96 49.88,78.35 49.87,78.19" fill="none" stroke="rgb(0, 0, 0)" stroke-width="2.00" stroke-opacity="1.00" stroke-linejoin="round"/>
<path d="M47.19,79.79 C47.19,79.79 47.03,79.48 47.03,79.48 C47.03,79.48 46.88,79.48 46.88,79.48 C46.88,79.48 47.36,86.18 47.36,86.18 C48.17,84.50 45.54,77.73 45.30,77.73 C44.85,78.24 45.39,82.11 46.04,83.57 C46.12,83.74 46.21,83.87 46.32,83.95 C46.32,83.95 46.40,83.86 46.40,83.86" fill="none" stroke="rgb(0, 0, 0)" stroke-width="2.00" stroke-opacity="1.00" stroke-linejoin="round"/>
<path d="M46.10,82.58 C47.08,82.28 50.11,81.13 51.68,81.06 C53.08,81.01 54.69,81.15 55.49,81.39 C55.63,81.43 55.84,81.50 56.12,81.61" fill="none" stroke="rgb(0, 0, 0)" stroke-width="2.00" stroke-opacity="1.00" stroke-linejoin="round"/>
<path d="M50.61,82.89 C53.19,82.86 54.71,82.99 55.51,83.37 C55.82,83.52 56.40,84.21 56.74,84.64" fill="none" stroke="rgb(0, 0, 0)" stroke-width="2.00" stroke-opacity="1.00" stroke-linejoin="round"/>
<path d="M52.93,83.82 C53.60,83.86 54.51,84.18 55.54,84.78 C55.56,84.80 56.79,85.59 56.94,85.68 C56.96,85.70 57.02,85.74 57.10,85.82" fill="none" stroke="rgb(0, 0, 0)" stroke-width="2.00" stroke-opacity="1.00" stroke-linejoin="round"/>
<path d="M58.21,72.65 C58.21,72.65 58.21,72.41 58.21,72.41 C58.21,72.41 60.02,76.01 60.02,76.01 C60.02,76.01 62.67,70.28 62.67,70.28 C62.67,70.28 61.10,74.38 61.10,74.38 C60.97,74.05 60.74,71.41 60.42,70.97 C60.29,70.80 59.93,70.55 59.78,70.51 C59.73,70.50 59.63,70.49 59.49,70.47" fill="none" stroke="rgb(0, 0, 0)" stroke-width="2.00" stroke-opacity="1.00" stroke-linejoin="round"/>
<path d="M71.72,78.39 C71.72,78.42 71.72,78.44 71.72,78.47 C71.72,78.49 71.72,78.52 71.72,78.55" fill="none" stroke="rgb(0, 0, 0)" stroke-width="2.00" stroke-opacity="1.00" stroke-linejoin="round"/>
<path d="M70.47,77.93 C70.47,77.93 70.36,77.93 70.36,77.93 C70.36,77.93 71.40,77.93 71.40,77.93 C71.40,77.93 70.20,78.33 70.20,78.33" fill="none" stroke="rgb(0, 0, 0)" stroke-width="2.00" stroke-opacity="1.00" stroke-linejoin="round"/>
<path d="M63.95,71.25 C63.95,71.25 63.95,71.10 63.95,71.10 C63.92,71.15 64.96,73.46 65.75,75.02 C66.01,75.53 66.40,76.22 66.91,77.10 C67.05,77.33 67.13,77.47 67.16,77.52" fill="none" stroke="rgb(0, 0, 0)" stroke-width="2.00" stroke-opacity="1.00" stroke-linejoin="round"/>
<path d="M34.46,77.15 C34.46,77.15 34.31,77.07 34.31,77.07 C34.36,76.98 34.40,76.91 34.43,76.87 C34.46,76.83 34.52,76.77 34.62,76.68" fill="none" stroke="rgb(0, 0, 0)" stroke-width="2.00" stroke-opacity="1.00" stroke-linejoin="round"/>
<path d="M49.98,58.99 C49.98,58.99 49.60,58.83 49.60,58.83 C49.60,58.83 48.14,72.22 48.14,72.22 C48.14,72.22 48.77,59.27 48.77,59.27 C47.93,60.02 49.78,74.35 51.37,77.49 C51.57,77.89 51.81,78.15 52.08,78.29 C52.18,78.33 52.45,78.42 52.91,78.55" fill="none" stroke="rgb(0, 0, 0)" stroke-width="2.00" stroke-opacity="1.00" stroke-linejoin="round"/>
<path d="M55.11,72.80 C55.11,72.80 55.03,72.80 55.03,72.80 C54.68,73.75 56.08,77.00 56.75,76.56 C57.58,75.99 57.73,75.00 57.64,74.82 C56.72,74.20 52.69,77.08 52.62,77.12 C52.32,77.32 51.90,77.52 51.38,77.72" fill="none" stroke="rgb(0, 0, 0)" stroke-width="2.00" stroke-opacity="1.00" stroke-linejoin="round"/>
<path d="M43.62,76.68 C43.62,76.68 43.46,77.82 43.46,77.82 C43.52,77.69 43.60,76.92 43.62,76.03 C43.63,75.69 43.63,74.99 43.62,73.92" fill="none" stroke="rgb(0, 0, 0)" stroke-width="2.00" stroke-opacity="1.00" stroke-linejoin="round"/>
<path d="M43.00,63.80 C42.93,63.65 42.89,63.28 42.97,63.05 C43.16,62.54 44.14,61.79 44.46,61.63 C44.54,61.59 44.65,61.55 44.81,61.49" fill="none" stroke="rgb(0, 0, 0)" stroke-width="2.00" stroke-opacity="1.00" stroke-linejoin="round"/>
<path d="M68.61,46.41 C68.61,46.41 67.84,46.57 67.84,46.57 C68.01,44.81 70.00,43.37 70.91,43.16 C70.91,43.16 69.47,44.39 69.47,44.39 C69.84,44.20 70.15,44.02 70.37,43.83 C70.60,43.64 71.07,43.19 71.79,42.48" fill="none" stroke="rgb(0, 0, 0)" stroke-width="2.00" stroke-opacity="1.00" stroke-linejoin="round"/>
<path d="M71.10,14.13 C71.10,14.13 71.10,13.97 71.10,13.97 C71.10,13.97 71.99,19.40 71.99,19.40 C71.99,19.40 71.87,15.52 71.87,15.52 C71.87,15.52 73.42,19.91 73.42,19.91 C74.39,18.89 73.32,16.44 72.96,16.00 C71.20,16.55 70.07,19.20 69.85,20.01 C69.76,20.39 69.58,21.20 69.33,22.44" fill="none" stroke="rgb(0, 0, 0)" stroke-width="2.00" stroke-opacity="1.00" stroke-linejoin="round"/>
</g>
</svg>
