<?xml version="1.0" encoding="UTF-8" standalone="no"?>
<!DOCTYPE svg PUBLIC "-//W3C//DTD SVG 1.1//EN" "http://www.w3.org/Graphics/SVG/1.1/DTD/svg11.dtd">
<svg width="105.00" height="100.00" viewBox="0.00 0.00 105.00 100.00" xmlns="http://www.w3.org/2000/svg" xmlns:xlink="http://www.w3.org/1999/xlink">
<g stroke-linecap="round" id="圖層_16_的複製">
<path d="M16.22,71.39 C17.64,73.46 20.58,76.70 22.89,78.47 C25.07,80.10 30.51,82.85 32.45,83.45 C40.39,85.63 42.63,85.99 47.62,86.38 C47.62,86.38 49.22,86.49 49.22,86.49" fill="none" stroke="rgb(0, 0, 0)" stroke-width="3.00" stroke-opacity="1.00" stroke-linejoin="round"/>
<path d="M84.77,75.96 C83.34,77.63 77.81,82.09 71.62,84.44 C69.32,85.29 60.43,87.58 53.16,88.26 C53.16,88.26 50.02,88.24 50.02,88.24" fill="none" stroke="rgb(0, 0, 0)" stroke-width="3.00" stroke-opacity="1.00" stroke-linejoin="round"/>
<path d="M30.20,84.95 C30.48,84.88 41.20,88.35 45.80,88.66 C47.45,88.76 56.02,88.74 56.78,88.83 C56.95,88.86 57.13,88.91 57.32,89.00" fill="none" stroke="rgb(0, 0, 0)" stroke-width="3.00" stroke-opacity="1.00" stroke-linejoin="round"/>
<path d="M57.01,88.34 C57.35,88.35 58.23,88.29 59.01,88.10 C63.33,87.05 69.15,84.47 71.04,83.78 C71.16,83.73 71.23,83.71 71.25,83.69" fill="none" stroke="rgb(0, 0, 0)" stroke-width="3.00" stroke-opacity="1.00" stroke-linejoin="round"/>
<path d="M72.68,83.68 C72.93,83.40 73.15,83.19 73.32,83.04 C73.92,82.55 74.73,81.87 74.93,81.61" fill="none" stroke="rgb(0, 0, 0)" stroke-width="3.00" stroke-opacity="1.00" stroke-linejoin="round"/>
<path d="M22.16,80.65 C22.46,81.06 24.59,82.52 27.06,83.91 C27.32,84.05 27.67,84.24 28.09,84.46" fill="none" stroke="rgb(0, 0, 0)" stroke-width="3.00" stroke-opacity="1.00" stroke-linejoin="round"/>
<path d="M77.19,81.14 C79.67,79.45 80.71,78.14 80.80,77.98 C80.81,77.96 80.83,77.93 80.86,77.90" fill="none" stroke="rgb(0, 0, 0)" stroke-width="3.00" stroke-opacity="1.00" stroke-linejoin="round"/>
<path d="M19.19,77.33 C19.24,77.67 19.34,78.08 19.53,78.29 C19.82,78.63 20.67,79.25 20.96,79.44 C21.00,79.48 21.02,79.52 21.02,79.56" fill="none" stroke="rgb(0, 0, 0)" stroke-width="3.00" stroke-opacity="1.00" stroke-linejoin="round"/>
<path d="M50.10,89.89" fill="none" stroke="rgb(0, 0, 0)" stroke-width="2.00" stroke-opacity="1.00" stroke-linejoin="round"/>
<path d="M31.47,86.93 C31.47,86.93 31.33,86.93 31.33,86.93 C31.29,86.86 30.30,86.86 28.76,88.63 C28.62,88.79 28.54,88.95 28.53,89.11" fill="none" stroke="rgb(0, 0, 0)" stroke-width="2.00" stroke-opacity="1.00" stroke-linejoin="round"/>
<path d="M69.29,86.93 C69.29,86.93 69.43,86.93 69.43,86.93 C69.47,86.86 70.46,86.86 72.00,88.63 C72.14,88.79 72.22,88.95 72.23,89.11" fill="none" stroke="rgb(0, 0, 0)" stroke-width="2.00" stroke-opacity="1.00" stroke-linejoin="round"/>
<path d="M43.75,89.75 C43.75,89.75 43.55,89.81 43.55,89.81 C43.24,90.26 42.84,90.98 42.64,91.53 C42.45,92.05 42.34,92.73 42.34,93.12 C42.34,93.19 42.34,93.23 42.34,93.25" fill="none" stroke="rgb(0, 0, 0)" stroke-width="2.00" stroke-opacity="1.00" stroke-linejoin="round"/>
<path d="M57.01,89.75 C57.01,89.75 57.21,89.81 57.21,89.81 C57.52,90.26 57.92,90.98 58.11,91.53 C58.30,92.05 58.42,92.73 58.42,93.12 C58.42,93.19 58.42,93.23 58.42,93.25" fill="none" stroke="rgb(0, 0, 0)" stroke-width="2.00" stroke-opacity="1.00" stroke-linejoin="round"/>
<path d="M13.16,69.43 C13.16,69.43 12.96,69.15 12.96,69.15 C13.65,71.06 15.25,75.42 18.50,78.68 C21.87,82.02 31.85,87.17 35.94,88.11 C41.62,89.37 46.58,89.41 49.50,89.37 C49.50,89.37 49.68,89.20 49.68,89.20" fill="none" stroke="rgb(0, 0, 0)" stroke-width="3.00" stroke-opacity="1.00" stroke-linejoin="round"/>
<path d="M87.77,67.52 C86.97,69.79 80.63,78.03 76.01,81.21 C73.05,83.23 68.47,85.53 66.57,86.11 C60.90,87.78 55.94,87.81 53.02,87.75 C53.02,87.75 52.84,87.52 52.84,87.52" fill="none" stroke="rgb(0, 0, 0)" stroke-width="3.00" stroke-opacity="1.00" stroke-linejoin="round"/>
<path d="M29.69,89.13 C31.67,89.83 40.59,92.03 45.79,92.49 C46.84,92.60 50.24,93.36 52.14,93.37 C52.18,93.37 52.28,93.37 52.25,93.37" fill="none" stroke="rgb(0, 0, 0)" stroke-width="2.00" stroke-opacity="1.00" stroke-linejoin="round"/>
<path d="M72.84,89.09 C70.83,89.83 61.96,92.06 56.76,92.50 C55.72,92.62 52.33,93.36 50.42,93.37 C50.39,93.37 50.29,93.37 50.32,93.37" fill="none" stroke="rgb(0, 0, 0)" stroke-width="2.00" stroke-opacity="1.00" stroke-linejoin="round"/>
<path d="M35.01,86.24 C36.48,87.15 42.72,87.73 45.62,87.92 C49.37,88.13 52.66,87.85 53.07,87.81 C53.32,87.79 53.88,87.74 54.74,87.66" fill="none" stroke="rgb(0, 0, 0)" stroke-width="2.00" stroke-opacity="1.00" stroke-linejoin="round"/>
<path d="M67.75,86.24 C66.28,87.15 60.04,87.73 57.14,87.92 C53.38,88.13 50.10,87.85 49.69,87.81 C49.43,87.79 48.88,87.74 48.02,87.66" fill="none" stroke="rgb(0, 0, 0)" stroke-width="2.00" stroke-opacity="1.00" stroke-linejoin="round"/>
<path d="M17.65,76.36 C18.14,77.34 29.81,85.24 32.62,86.43 C37.97,88.62 46.52,90.13 47.82,90.27 C48.18,90.31 48.63,90.33 49.18,90.33" fill="none" stroke="rgb(0, 0, 0)" stroke-width="2.00" stroke-opacity="1.00" stroke-linejoin="round"/>
<path d="M85.11,76.36 C84.62,77.34 72.95,85.24 70.14,86.43 C64.79,88.62 56.24,90.13 54.94,90.27 C54.58,90.31 54.12,90.33 53.58,90.33" fill="none" stroke="rgb(0, 0, 0)" stroke-width="2.00" stroke-opacity="1.00" stroke-linejoin="round"/>
<path d="M49.69,90.33 C50.25,90.33 51.33,90.33 51.35,90.33 C51.40,90.33 51.45,90.31 51.52,90.30 C51.52,90.30 51.52,90.21 51.52,90.21" fill="none" stroke="rgb(0, 0, 0)" stroke-width="2.00" stroke-opacity="1.00" stroke-linejoin="round"/>
<path d="M53.07,90.33 C52.51,90.33 51.43,90.33 51.41,90.33 C51.36,90.33 51.30,90.31 51.24,90.30 C51.24,90.30 51.24,90.21 51.24,90.21" fill="none" stroke="rgb(0, 0, 0)" stroke-width="2.00" stroke-opacity="1.00" stroke-linejoin="round"/>
<path d="M16.73,87.65 C16.36,86.47 20.30,82.07 21.63,81.54 C21.77,81.48 21.93,81.45 22.11,81.44" fill="none" stroke="rgb(0, 0, 0)" stroke-width="3.00" stroke-opacity="1.00" stroke-linejoin="round"/>
<path d="M86.02,87.65 C86.40,86.47 82.46,82.07 81.13,81.54 C80.99,81.48 80.83,81.45 80.65,81.44" fill="none" stroke="rgb(0, 0, 0)" stroke-width="3.00" stroke-opacity="1.00" stroke-linejoin="round"/>
<path d="M34.45,96.82 C34.45,96.82 34.25,96.71 34.25,96.71 C34.02,96.11 34.54,91.28 35.37,89.41 C35.58,88.97 36.41,88.17 36.71,87.99 C36.83,87.93 37.06,87.83 37.40,87.69" fill="none" stroke="rgb(0, 0, 0)" stroke-width="3.00" stroke-opacity="1.00" stroke-linejoin="round"/>
<path d="M68.31,96.82 C68.31,96.82 68.51,96.71 68.51,96.71 C68.74,96.11 68.22,91.28 67.39,89.41 C67.18,88.97 66.35,88.17 66.05,87.99 C65.93,87.93 65.70,87.83 65.36,87.69" fill="none" stroke="rgb(0, 0, 0)" stroke-width="3.00" stroke-opacity="1.00" stroke-linejoin="round"/>
<path d="M51.38,89.91 C51.38,92.65 51.37,96.80 51.24,99.56 C51.23,99.78 51.23,99.90 51.24,99.92 C51.24,99.92 51.24,99.82 51.24,99.82" fill="none" stroke="rgb(0, 0, 0)" stroke-width="3.00" stroke-opacity="1.00" stroke-linejoin="round"/>
<path d="M11.30,67.75 C11.23,68.36 17.34,77.34 19.30,79.42 C21.11,81.31 25.25,84.36 27.01,85.26 C27.35,85.44 28.22,85.86 29.61,86.53" fill="none" stroke="rgb(0, 0, 0)" stroke-width="3.00" stroke-opacity="1.00" stroke-linejoin="round"/>
<path d="M76.08,84.12 C80.24,81.60 85.12,76.68 88.82,70.94" fill="none" stroke="rgb(0, 0, 0)" stroke-width="3.00" stroke-opacity="1.00" stroke-linejoin="round"/>
<path d="M12.15,67.19 C12.15,67.19 10.30,66.62 10.30,66.62" fill="none" stroke="rgb(0, 0, 0)" stroke-width="3.00" stroke-opacity="1.00" stroke-linejoin="round"/>
<path d="M90.49,70.10 C90.49,70.10 89.64,71.89 89.64,71.89" fill="none" stroke="rgb(0, 0, 0)" stroke-width="3.00" stroke-opacity="1.00" stroke-linejoin="round"/>
<path d="M90.84,69.30 C90.84,69.30 90.86,69.07 90.86,69.07" fill="none" stroke="rgb(0, 0, 0)" stroke-width="3.00" stroke-opacity="1.00" stroke-linejoin="round"/>
<path d="M13.54,64.66 C13.54,64.66 12.97,63.07 12.97,63.07" fill="none" stroke="rgb(0, 0, 0)" stroke-width="3.00" stroke-opacity="1.00" stroke-linejoin="round"/>
<path d="M13.02,71.22 C13.02,71.22 13.44,71.93 13.44,71.93 C13.44,71.93 10.76,64.61 10.76,64.61 C10.76,64.61 13.56,72.10 13.56,72.10" fill="none" stroke="rgb(0, 0, 0)" stroke-width="3.00" stroke-opacity="1.00" stroke-linejoin="round"/>
<path d="M13.27,72.27" fill="none" stroke="rgb(0, 0, 0)" stroke-width="3.00" stroke-opacity="1.00" stroke-linejoin="round"/>
<path d="M11.75,67.55 C11.75,67.55 9.28,61.34 9.28,61.34 C9.71,61.23 10.59,60.94 10.88,60.73 C11.02,60.63 11.24,60.40 11.52,60.06" fill="none" stroke="rgb(0, 0, 0)" stroke-width="3.00" stroke-opacity="1.00" stroke-linejoin="round"/>
<path d="M12.31,61.91 C12.31,61.91 12.17,61.91 12.17,61.91 C12.17,62.45 12.17,62.99 12.17,63.53 C12.17,63.76 12.17,63.99 12.17,64.22" fill="none" stroke="rgb(0, 0, 0)" stroke-width="3.00" stroke-opacity="1.00" stroke-linejoin="round"/>
<path d="M87.43,67.30 C87.43,67.30 87.80,66.65 87.80,66.65" fill="none" stroke="rgb(0, 0, 0)" stroke-width="3.00" stroke-opacity="1.00" stroke-linejoin="round"/>
<path d="M88.35,66.85 C88.35,66.85 88.27,67.90 88.27,67.90" fill="none" stroke="rgb(0, 0, 0)" stroke-width="3.00" stroke-opacity="1.00" stroke-linejoin="round"/>
<path d="M88.28,71.94 C88.28,71.94 88.67,72.67 88.67,72.67" fill="none" stroke="rgb(0, 0, 0)" stroke-width="3.00" stroke-opacity="1.00" stroke-linejoin="round"/>
<path d="M88.52,65.74 C88.52,65.74 88.66,65.88 88.66,65.88 C88.83,64.63 88.82,63.31 88.82,62.93 C88.82,62.91 88.82,62.88 88.82,62.86" fill="none" stroke="rgb(0, 0, 0)" stroke-width="3.00" stroke-opacity="1.00" stroke-linejoin="round"/>
<path d="M87.66,66.41" fill="none" stroke="rgb(0, 0, 0)" stroke-width="2.00" stroke-opacity="1.00" stroke-linejoin="round"/>
<path d="M91.44,64.01 C91.44,64.01 91.30,64.01 91.30,64.01 C91.46,64.01 91.61,64.01 91.76,64.01 C91.80,64.01 91.83,64.01 91.87,64.01" fill="none" stroke="rgb(0, 0, 0)" stroke-width="3.00" stroke-opacity="1.00" stroke-linejoin="round"/>
<path d="M91.44,63.73 C91.44,63.63 91.18,63.05 90.75,62.19 C90.66,62.01 90.53,61.75 90.36,61.43" fill="none" stroke="rgb(0, 0, 0)" stroke-width="3.00" stroke-opacity="1.00" stroke-linejoin="round"/>
<path d="M91.30,66.69 C91.30,66.69 91.30,66.96 91.30,66.96 C91.15,66.53 91.05,66.25 91.01,66.09 C90.97,65.94 90.93,65.71 90.89,65.39" fill="none" stroke="rgb(0, 0, 0)" stroke-width="3.00" stroke-opacity="1.00" stroke-linejoin="round"/>
<path d="M91.50,65.62 C91.44,65.65 90.66,67.15 89.19,69.29 C89.02,69.55 88.80,69.92 88.53,70.40" fill="none" stroke="rgb(0, 0, 0)" stroke-width="2.00" stroke-opacity="1.00" stroke-linejoin="round"/>
<path d="M90.79,64.92 C90.71,66.38 90.57,67.55 90.16,68.29 C89.89,68.79 89.29,69.72 88.37,71.08 C88.17,71.37 87.97,71.65 87.77,71.92" fill="none" stroke="rgb(0, 0, 0)" stroke-width="2.00" stroke-opacity="1.00" stroke-linejoin="round"/>
<path d="M89.38,65.86 C88.98,66.85 88.54,67.84 87.87,69.30 C86.78,71.60 85.33,74.64 84.97,75.37" fill="none" stroke="rgb(0, 0, 0)" stroke-width="2.00" stroke-opacity="1.00" stroke-linejoin="round"/>
<path d="M12.23,62.33 C12.23,62.33 12.00,62.33 12.00,62.33 C12.08,66.27 14.35,71.48 14.82,72.33 C14.98,72.63 15.34,73.24 15.89,74.15" fill="none" stroke="rgb(0, 0, 0)" stroke-width="2.00" stroke-opacity="1.00" stroke-linejoin="round"/>
<path d="M14.46,65.85 C14.46,65.85 15.28,67.89 15.28,67.89" fill="none" stroke="rgb(0, 0, 0)" stroke-width="2.00" stroke-opacity="1.00" stroke-linejoin="round"/>
<path d="M16.33,70.99 C16.40,71.20 16.52,71.50 16.70,71.88 C17.18,72.88 17.66,73.88 18.14,74.88" fill="none" stroke="rgb(0, 0, 0)" stroke-width="2.00" stroke-opacity="1.00" stroke-linejoin="round"/>
<path d="M11.05,61.86 C11.05,61.86 10.82,61.62 10.82,61.62 C10.82,61.62 11.27,61.39 11.27,61.39 C11.50,62.14 11.69,62.72 11.83,63.14 C12.26,64.36 12.67,65.42 13.07,66.32 C13.30,66.85 13.74,67.75 14.38,69.01" fill="none" stroke="rgb(0, 0, 0)" stroke-width="2.00" stroke-opacity="1.00" stroke-linejoin="round"/>
<path d="M11.76,60.68 C11.76,60.68 11.53,60.68 11.53,60.68 C11.84,60.66 12.08,62.70 12.24,63.53 C12.32,63.94 12.51,64.52 12.81,65.28" fill="none" stroke="rgb(0, 0, 0)" stroke-width="2.00" stroke-opacity="1.00" stroke-linejoin="round"/>
<path d="M89.61,64.45 C89.61,64.45 89.38,64.39 89.38,64.39 C89.38,64.39 90.01,61.89 90.01,61.89 C90.08,61.92 90.23,62.56 90.28,63.25 C90.30,63.47 90.31,63.87 90.32,64.43" fill="none" stroke="rgb(0, 0, 0)" stroke-width="2.00" stroke-opacity="1.00" stroke-linejoin="round"/>
<path d="M55.04,86.32 C56.00,86.33 68.78,82.89 73.79,80.31 C74.87,79.75 76.97,78.51 78.27,77.71" fill="none" stroke="rgb(0, 0, 0)" stroke-width="2.00" stroke-opacity="1.00" stroke-linejoin="round"/>
<path d="M79.03,77.85 C79.03,77.85 79.03,77.76 79.03,77.76 C79.48,77.33 81.34,75.56 81.86,74.95 C82.89,73.74 84.89,70.76 85.93,68.91 C86.19,68.46 86.72,67.49 87.52,66.01" fill="none" stroke="rgb(0, 0, 0)" stroke-width="2.00" stroke-opacity="1.00" stroke-linejoin="round"/>
<path d="M87.73,66.56 C87.73,66.56 89.57,62.61 89.57,62.61 C89.59,62.70 89.59,62.80 89.46,63.16 C89.38,63.36 89.16,63.94 88.78,64.89" fill="none" stroke="rgb(0, 0, 0)" stroke-width="2.00" stroke-opacity="1.00" stroke-linejoin="round"/>
<path d="M27.05,75.50 C28.48,76.75 31.94,78.48 35.08,79.27 C39.13,80.24 46.03,81.08 49.00,81.13 C52.42,81.17 59.04,80.39 62.25,79.62 C62.91,79.45 63.57,79.28 64.23,79.11" fill="none" stroke="rgb(0, 0, 0)" stroke-width="2.00" stroke-opacity="1.00" stroke-linejoin="round"/>
<path d="M67.74,77.62 C71.33,76.05 75.41,73.17 76.44,72.41 C76.65,72.26 76.76,72.17 76.78,72.15 C76.79,72.14 76.83,72.10 76.90,72.01" fill="none" stroke="rgb(0, 0, 0)" stroke-width="2.00" stroke-opacity="1.00" stroke-linejoin="round"/>
<path d="M14.58,67.74 C14.95,68.74 15.26,69.46 15.52,69.90 C15.77,70.31 17.70,72.88 18.45,73.96 C18.79,74.45 19.14,74.93 19.48,75.42" fill="none" stroke="rgb(0, 0, 0)" stroke-width="2.00" stroke-opacity="1.00" stroke-linejoin="round"/>
<path d="M9.41,62.10 C9.41,62.10 9.17,62.33 9.17,62.33 C9.76,65.86 12.84,72.67 14.03,74.23 C14.22,74.48 14.63,74.96 15.24,75.66" fill="none" stroke="rgb(0, 0, 0)" stroke-width="2.00" stroke-opacity="1.00" stroke-linejoin="round"/>
</g>
</svg>
