<?xml version="1.0" encoding="UTF-8" standalone="no"?>
<!DOCTYPE svg PUBLIC "-//W3C//DTD SVG 1.1//EN" "http://www.w3.org/Graphics/SVG/1.1/DTD/svg11.dtd">
<svg width="105.00" height="100.00" viewBox="0.00 0.00 105.00 100.00" xmlns="http://www.w3.org/2000/svg" xmlns:xlink="http://www.w3.org/1999/xlink">
<g stroke-linecap="round" id="圖層_14">
<path d="M51.62,11.75 C49.57,11.86 44.97,12.69 44.56,12.82 C40.74,14.04 35.51,17.50 34.06,19.31 C32.36,21.46 27.81,28.21 26.55,31.04 C24.52,35.72 22.42,44.02 21.75,49.07 C21.19,54.62 20.55,60.80 20.12,62.59 C20.12,62.60 20.12,62.63 20.12,62.62" fill="none" stroke="rgb(0, 0, 0)" stroke-width="3.00" stroke-opacity="1.00" stroke-linejoin="round"/>
<path d="M53.00,11.38 C56.05,11.80 60.78,12.69 61.19,12.82 C65.01,14.04 70.24,17.50 71.69,19.31 C73.39,21.46 77.94,28.21 79.20,31.04 C81.23,35.72 83.33,44.02 84.00,49.07 C84.56,54.62 85.20,60.80 85.62,62.59 C85.63,62.60 85.63,62.63 85.62,62.62" fill="none" stroke="rgb(0, 0, 0)" stroke-width="3.00" stroke-opacity="1.00" stroke-linejoin="round"/>
<path d="M19.62,65.88 C19.62,65.88 20.50,62.12 20.50,62.12 C20.50,62.12 17.62,69.99 17.62,69.99 C17.62,69.99 18.72,68.55 18.72,68.55" fill="none" stroke="rgb(0, 0, 0)" stroke-width="3.00" stroke-opacity="1.00" stroke-linejoin="round"/>
<path d="M86.12,65.38 C86.12,65.38 85.50,63.12 85.50,63.12 C86.12,64.78 86.30,65.44 86.30,66.08 C86.30,66.79 86.98,68.08 88.50,70.36 C88.50,70.36 87.03,68.55 87.03,68.55" fill="none" stroke="rgb(0, 0, 0)" stroke-width="3.00" stroke-opacity="1.00" stroke-linejoin="round"/>
<path d="M16.88,70.62 C16.36,70.62 15.95,70.65 15.71,70.77 C13.71,71.82 12.19,74.70 12.69,75.73 C12.97,76.28 14.32,77.57 15.35,78.03 C16.49,78.52 23.39,80.19 26.50,80.92 C29.71,81.65 47.47,83.19 49.19,83.38 C49.94,83.46 50.69,83.54 51.44,83.62" fill="none" stroke="rgb(0, 0, 0)" stroke-width="3.00" stroke-opacity="1.00" stroke-linejoin="round"/>
<path d="M88.88,70.62 C89.39,70.62 89.80,70.65 90.04,70.77 C92.04,71.82 93.56,74.70 93.06,75.73 C92.78,76.28 91.43,77.57 90.40,78.03 C83.53,81.00 66.43,82.66 56.31,83.25 C55.84,83.28 54.84,83.32 53.31,83.38" fill="none" stroke="rgb(0, 0, 0)" stroke-width="3.00" stroke-opacity="1.00" stroke-linejoin="round"/>
<path d="M27.62,49.62 C27.20,51.10 29.66,58.04 33.33,63.68 C36.64,68.69 41.61,73.23 43.82,73.74 C44.83,73.95 46.33,73.36 46.75,72.55 C47.66,70.66 46.71,61.60 44.86,54.88 C44.00,51.81 42.28,47.32 41.37,45.86 C40.55,44.57 38.85,43.01 38.06,42.73 C37.15,42.43 35.51,42.97 35.00,43.80 C34.42,44.81 34.27,48.22 34.84,50.56 C35.54,53.25 38.32,58.83 40.26,61.29 C41.94,63.38 45.19,65.97 46.19,66.47 C48.00,67.35 50.29,67.63 50.98,67.53 C52.33,67.29 53.75,65.85 54.06,64.43 C54.66,61.42 51.61,49.24 49.75,45.63 C48.80,43.83 47.21,42.16 46.69,41.90 C45.54,41.37 43.43,41.78 42.26,42.65 C41.09,43.55 39.04,46.46 38.28,48.31 C37.51,50.26 37.08,53.06 37.17,54.04 C37.32,55.05 38.33,56.36 39.64,56.36 C40.96,56.31 44.11,54.86 45.75,53.49 C47.44,52.04 50.53,48.05 51.95,45.47 C53.37,42.83 55.43,37.26 55.79,35.01 C56.07,33.14 55.66,30.41 55.40,29.89 C54.74,28.70 52.85,28.21 51.09,29.04 C50.17,29.51 46.75,32.54 44.84,35.15 C42.67,38.15 39.25,44.93 37.99,48.56 C36.94,51.65 36.06,56.44 36.21,58.42 C36.29,59.25 37.38,61.00 38.53,61.20 C39.87,61.39 43.37,59.99 44.97,58.79 C47.18,57.08 50.95,53.02 52.82,50.29 C56.72,44.53 60.29,34.95 60.05,32.88 C59.95,32.09 59.66,31.48 59.23,31.00 C58.22,30.66 56.05,31.56 54.53,33.02 C51.49,36.05 46.37,47.89 44.76,53.90 C42.97,60.70 43.25,65.16 43.74,66.18 C44.74,66.70 47.16,65.68 49.19,64.03 C53.23,60.67 62.78,49.31 65.12,44.96 C66.52,42.32 67.34,38.91 66.99,37.25 C66.83,36.58 65.80,35.09 64.73,34.62 C64.22,34.42 62.67,34.55 61.65,34.92 C60.39,35.40 56.75,37.92 54.66,40.35 C52.22,43.23 49.20,48.90 48.02,52.27 C46.09,57.94 46.52,59.62 46.74,60.27 C46.74,60.27 47.88,60.51 47.88,60.51 C49.65,59.30 54.65,51.00 58.05,42.85 C59.52,39.32 61.97,32.48 62.31,30.93 C62.76,28.78 62.10,26.26 60.95,25.39 C59.81,24.59 55.71,23.67 53.47,23.92 C50.96,24.23 45.47,26.54 42.93,28.44 C40.23,30.52 36.02,35.71 34.53,38.61 C33.17,41.33 32.12,46.41 32.39,48.38 C32.64,49.97 34.12,51.84 34.83,52.21 C36.08,52.80 40.68,51.41 43.19,49.12 C45.31,47.16 48.39,42.85 49.61,40.21 C50.77,37.65 51.94,32.37 51.88,30.13 C51.79,28.10 50.55,24.96 49.45,24.06 C48.28,23.15 45.27,23.04 43.50,23.83 C41.75,24.64 38.44,27.37 36.90,29.36 C35.70,30.95 33.63,35.23 32.92,37.86 C32.25,40.47 31.96,44.64 32.29,46.43 C32.61,48.07 33.83,49.96 34.34,50.30 C35.49,50.99 38.01,50.69 39.45,49.73 C40.92,48.70 43.39,45.32 44.21,43.15 C45.00,40.96 45.55,36.18 45.32,33.89 C45.08,31.69 43.85,28.31 42.79,26.97 C42.33,26.41 40.63,25.20 39.64,25.15 C38.53,25.11 36.07,26.26 34.94,27.28 C33.73,28.41 32.08,30.83 31.53,32.29 C31.01,33.76 30.78,36.14 31.06,37.22 C31.35,38.26 32.50,39.77 33.31,40.19 C34.15,40.61 35.82,40.48 36.58,39.91 C38.09,38.71 38.98,34.00 38.12,32.16 C37.31,30.47 33.69,27.99 31.80,28.04 C31.18,28.06 30.50,28.34 30.02,28.66 C30.55,30.78 33.26,33.98 34.92,35.95 C39.99,41.82 49.53,50.95 53.05,52.75 C54.78,53.62 57.38,54.26 58.42,54.16 C59.45,54.03 60.11,52.69 59.68,51.53 C58.18,47.68 42.66,27.86 37.58,22.61 C44.07,30.62 51.46,39.22 56.08,43.02 C60.26,46.42 66.75,49.42 67.65,49.59 C67.33,46.79 44.57,17.39 44.26,15.33 C44.25,15.28 44.27,15.13 44.29,14.86 C44.29,14.86 73.14,43.39 73.14,43.39 C73.14,43.39 48.91,13.74 48.91,13.74 C52.01,13.33 68.54,25.08 72.83,29.19 C71.50,28.65 61.16,20.33 58.08,18.82 C56.19,17.90 53.25,17.12 51.42,17.06 C47.52,17.02 39.79,20.74 39.13,21.90 C38.75,22.60 38.86,24.18 39.32,24.90 C39.83,25.67 41.30,26.34 42.24,26.15 C46.15,25.28 47.82,18.20 47.46,17.16 C46.24,17.00 43.00,18.28 40.95,19.66 C38.28,21.49 34.05,25.91 33.89,26.35 C34.48,26.85 37.02,25.29 39.33,23.32 C42.79,20.31 44.02,19.31 45.04,18.50 C45.04,18.50 36.51,22.03 36.51,22.03 C36.08,20.06 41.12,16.87 41.94,16.61 C41.94,16.61 36.98,20.57 36.98,20.57 C36.69,19.39 40.77,16.17 42.97,15.69 C44.77,15.32 48.89,15.59 50.70,16.13 C54.36,17.29 61.21,22.70 66.97,28.47 C69.36,30.84 72.02,33.15 72.33,33.62 C67.05,32.75 56.78,18.71 56.37,17.43 C57.22,16.48 57.71,16.16 58.43,16.23 C61.58,16.57 67.43,19.80 70.49,22.66 C71.62,23.73 72.84,25.21 73.16,25.85 C72.33,26.37 71.96,26.46 71.36,26.15 C68.40,24.56 56.60,15.01 55.02,14.64 C54.96,14.63 54.92,14.62 54.88,14.62 C54.88,14.62 57.38,15.00 57.38,15.00 C57.38,15.00 54.03,16.27 54.03,16.27 C54.38,16.22 61.33,15.17 62.81,15.43 C64.70,15.83 66.13,16.87 66.42,17.75 C66.94,19.55 64.64,25.72 61.42,30.05 C60.52,31.24 59.07,33.03 59.03,33.03 C59.03,33.03 68.42,23.14 68.42,23.14 C68.76,24.40 66.53,29.17 65.65,30.97 C63.12,36.30 61.87,39.35 61.91,40.52 C62.54,40.26 72.42,29.81 74.29,29.42 C74.38,29.40 74.56,29.41 74.84,29.45 C74.67,30.01 68.79,41.71 68.04,44.57 C67.89,45.12 67.97,45.48 68.21,46.05 C68.21,46.05 75.84,37.98 75.84,37.98 C75.57,37.95 62.43,41.18 58.53,40.69 C56.27,40.38 52.49,38.84 50.66,37.44 C47.67,35.09 42.04,27.97 41.75,27.62 C41.75,27.62 51.74,48.33 51.74,48.33 C51.47,47.50 43.60,34.07 41.79,32.49 C41.28,32.06 40.84,31.88 39.96,31.69 C39.45,32.70 39.37,33.24 39.74,33.90 C41.29,36.59 47.04,42.34 50.21,44.47 C53.39,46.58 54.81,46.65 55.47,46.54 C54.58,41.11 43.29,30.95 41.76,30.03 C48.77,37.77 54.95,44.17 59.40,47.04 C63.72,49.78 65.69,49.24 66.01,49.02 C66.39,47.94 62.13,39.68 59.07,35.02 C55.73,29.96 49.47,23.01 49.24,22.99 C49.24,22.99 72.14,59.50 72.14,59.50 C68.60,53.77 59.61,24.22 59.61,24.12 C59.81,24.59 66.54,42.74 67.60,45.29 C70.65,52.54 74.64,58.44 76.06,59.73 C74.00,54.75 70.04,44.02 69.21,38.63 C68.48,33.69 68.62,29.08 68.95,28.24 C71.01,29.55 78.46,54.15 79.09,56.60 C77.71,56.28 72.56,33.83 71.41,28.53 C71.41,28.53 77.96,42.46 77.96,42.46 C77.96,42.46 75.68,32.59 75.68,32.59 C76.30,32.63 78.04,34.02 78.74,35.22 C79.49,36.56 79.83,39.60 79.06,41.43 C76.77,46.50 60.02,59.18 58.42,60.09 C58.84,59.49 66.14,52.79 67.15,51.91 C72.71,47.16 76.62,46.28 77.42,46.15 C77.22,46.56 64.77,56.30 62.54,57.85 C59.10,60.24 54.43,62.09 53.57,61.95 C54.46,60.25 64.14,52.61 68.32,50.58 C72.06,48.78 79.08,48.15 79.45,48.75 C78.05,49.16 76.06,50.00 71.62,52.25 C68.40,53.81 65.16,54.32 64.28,53.91 C63.53,53.51 62.84,52.19 62.84,51.46 C62.87,50.73 63.71,49.26 64.50,48.66 C65.38,48.01 67.85,47.13 69.32,47.09 C70.84,47.07 74.15,47.82 75.78,48.53 C80.04,50.43 81.90,52.93 82.19,53.51 C81.48,54.58 79.56,54.33 78.80,53.97 C78.00,53.57 76.49,52.21 75.95,51.43 C75.35,50.52 74.64,48.13 74.86,46.71 C75.13,45.20 75.96,44.23 76.46,43.83 C77.28,43.72 78.69,45.07 79.64,46.50 C81.42,49.25 81.70,51.37 81.70,51.70 C81.11,51.19 79.29,47.38 79.11,46.33 C78.99,45.42 79.40,44.99 79.75,44.82 C80.56,45.00 81.67,46.99 81.68,48.94 C81.66,50.96 80.50,54.01 79.66,55.29 C78.81,56.54 76.27,59.11 75.04,59.99 C72.13,62.04 64.13,66.00 63.04,66.60 C61.68,67.35 59.71,69.01 59.55,69.79 C60.57,70.01 62.19,69.60 63.00,69.11 C65.01,67.89 68.47,62.17 69.18,59.17 C69.49,57.86 69.61,55.39 69.55,54.81 C69.39,53.41 68.33,51.74 67.51,51.30 C66.69,50.90 64.89,51.16 64.24,51.90 C63.58,52.70 62.95,55.39 63.15,57.00 C63.38,58.69 64.92,62.33 66.21,64.19 C67.48,65.99 70.59,69.16 72.17,70.26 C73.67,71.29 76.36,72.25 77.43,72.23 C78.38,72.19 79.55,71.41 79.68,70.75 C79.89,69.34 76.47,65.00 73.32,62.61 C66.06,57.17 63.29,58.16 62.56,58.60 C62.53,59.87 64.57,62.27 66.27,63.77 C70.73,67.63 78.73,71.38 80.90,71.23 C81.85,71.13 83.22,69.70 82.93,68.12 C82.36,65.25 77.33,60.13 74.65,58.68 C71.83,57.19 69.22,56.63 68.54,56.83 C67.90,57.06 67.77,58.37 68.35,59.41 C69.75,61.87 77.13,67.82 80.13,68.95 C81.44,69.42 83.57,69.51 84.20,69.19 C84.81,68.84 85.10,67.46 84.42,65.91 C83.40,63.64 79.31,57.30 78.48,56.32 C77.11,54.75 75.65,53.68 74.60,53.89 C74.24,55.00 75.55,57.68 76.71,59.47 C80.00,64.51 83.15,67.82 84.03,68.06 C84.03,68.06 81.71,55.82 81.71,55.82 C81.71,55.82 84.62,71.86 84.62,71.86 C84.62,71.86 83.68,66.19 83.68,66.19 C83.67,66.16 85.15,73.44 85.54,74.10 C85.94,74.71 87.56,74.90 88.24,74.73 C89.83,74.27 88.04,71.04 86.90,70.88 C86.23,71.13 85.67,72.59 85.98,73.49 C86.87,75.88 90.45,75.68 90.87,75.04 C90.87,75.04 87.87,71.46 87.87,71.46 C87.59,72.64 91.17,75.40 91.85,75.62 C91.75,75.64 83.94,76.64 83.31,76.79 C82.00,77.10 80.63,77.74 80.44,77.77 C80.44,77.77 81.45,68.11 81.45,68.11 C82.25,72.05 80.87,76.21 80.54,76.80 C79.36,76.54 77.82,73.06 77.11,70.68 C76.69,69.24 75.36,63.81 74.80,63.01 C74.02,63.06 72.31,65.38 71.02,68.71 C70.14,71.02 68.82,76.27 68.72,77.85 C69.46,76.59 70.30,71.43 70.50,67.74 C70.69,63.95 70.12,59.89 69.61,58.93 C69.16,58.14 67.83,57.56 66.97,57.77 C65.15,58.27 60.83,62.91 59.31,66.10 C57.83,69.31 57.71,74.38 58.39,75.82 C58.82,76.70 60.57,77.79 61.62,77.89 C62.73,77.96 64.97,77.19 66.02,76.38 C67.02,75.58 68.42,73.43 68.82,72.10 C69.19,70.83 69.12,68.24 68.64,67.11 C68.17,66.03 66.12,63.89 64.84,63.05 C61.95,61.22 57.00,60.99 55.51,61.89 C54.56,62.49 53.68,64.63 53.93,65.96 C54.22,67.37 56.32,70.34 58.06,71.73 C59.82,73.10 64.21,75.28 66.59,76.00 C68.85,76.66 73.05,77.22 74.79,77.10 C76.38,76.98 78.30,76.28 78.97,75.62 C78.97,75.62 79.10,74.48 79.10,74.48 C77.82,72.62 67.64,68.15 64.45,67.53 C61.23,66.93 57.97,67.73 57.46,68.19 C58.23,69.80 62.03,71.58 63.82,72.25 C73.08,75.62 81.39,73.51 81.82,73.02 C80.63,72.01 67.79,66.77 64.76,66.30 C60.87,65.73 59.33,66.66 58.88,67.05 C62.97,70.80 81.37,73.56 86.70,73.74 C83.62,72.79 72.92,67.50 66.56,66.22 C65.57,66.03 63.99,65.82 63.17,65.72 C64.46,66.81 74.03,71.66 79.30,72.92 C80.65,73.23 84.08,73.34 84.84,73.11 C84.84,73.11 76.95,59.16 76.95,59.16 C76.95,59.16 77.30,75.01 77.30,75.01 C76.07,73.14 72.95,62.64 72.09,61.48 C70.88,59.89 66.51,58.39 63.23,58.67 C56.01,59.33 47.88,64.61 45.19,66.67 C45.19,66.67 54.57,44.60 54.57,44.60 C53.31,44.45 42.20,60.45 41.72,60.64 C41.72,60.64 46.90,32.94 46.90,32.94 C45.78,32.78 43.60,34.33 42.94,35.04 C39.77,38.52 33.99,47.57 32.50,50.75 C34.10,50.16 36.91,38.91 37.05,34.93 C37.08,33.75 36.84,33.26 36.39,32.74 C35.27,32.88 34.05,33.75 33.35,34.55 C31.31,37.00 27.47,49.08 27.35,50.05 C28.52,49.01 32.74,32.84 32.23,31.43 C32.15,31.27 32.07,31.12 31.99,30.96 C31.99,30.96 25.80,43.81 25.80,43.81 C26.60,43.91 28.64,42.12 29.41,40.46 C30.76,37.46 30.54,35.49 30.41,34.93 C29.35,34.17 23.66,38.40 24.34,38.29 C26.18,37.67 30.45,31.69 30.69,30.19 C30.69,30.19 27.08,32.29 27.08,32.29 C27.08,32.29 29.59,31.08 29.59,31.08 C30.15,31.96 30.81,32.56 31.67,32.61 C33.18,32.69 43.93,28.96 44.32,28.29 C44.35,28.24 44.41,28.07 44.51,27.78 C44.51,27.78 32.96,24.74 32.96,24.74 C32.96,24.74 34.36,23.28 34.36,23.28 C34.32,23.23 34.23,24.57 39.91,24.07 C42.70,23.80 51.89,20.49 52.57,20.71 C52.37,23.54 48.27,28.59 47.01,29.17 C45.72,26.75 46.54,22.52 47.02,21.74 C48.29,22.52 49.43,27.36 49.87,30.46 C50.09,32.02 50.65,37.03 50.74,37.45 C50.74,37.45 49.91,28.48 49.91,28.48 C49.91,28.48 60.06,47.67 60.06,47.67 C61.26,46.52 60.32,37.70 60.24,37.54 C60.12,37.91 60.64,53.56 59.54,57.02 C59.26,57.83 57.94,58.66 56.14,58.90 C52.81,59.32 42.68,64.40 40.23,64.60 C38.72,64.69 36.19,63.65 35.34,62.67 C34.59,61.76 33.76,58.64 33.65,57.14 C33.32,52.27 34.51,47.44 34.62,47.07 C32.91,58.29 29.82,64.99 29.67,65.27 C29.32,65.16 33.86,48.01 33.79,47.08 C33.78,46.96 33.71,46.65 33.59,46.18 C31.48,46.18 23.71,54.46 22.20,56.68 C23.09,55.88 25.31,52.35 26.65,49.76 C28.08,46.93 28.99,43.47 28.65,42.43 C27.61,42.15 26.88,42.24 26.12,42.90 C24.90,43.96 23.17,46.32 22.67,47.37 C22.67,47.37 26.73,41.01 26.73,41.01 C26.73,41.01 23.26,47.51 23.26,47.51 C23.71,47.82 27.14,49.27 29.81,51.29 C30.45,51.78 36.68,56.89 38.97,58.42 C38.97,58.42 25.75,50.65 25.75,50.65 C26.65,50.51 32.52,52.95 33.86,53.36 C35.99,54.01 38.22,53.56 38.99,52.67 C38.97,51.45 36.11,48.58 32.89,46.40 C30.90,45.08 27.51,44.05 26.43,44.02 C26.43,44.02 32.33,58.42 32.33,58.42 C32.33,58.42 24.59,49.93 24.59,49.93 C25.54,53.60 31.98,64.28 33.58,65.56 C33.90,64.81 27.21,54.85 24.32,51.98 C24.16,51.82 23.92,51.63 23.61,51.39 C23.84,53.73 30.07,67.62 31.44,68.67 C31.48,68.69 31.61,68.76 31.82,68.85 C32.16,66.50 28.68,57.29 27.21,55.61 C26.48,54.82 25.81,54.60 24.95,54.44 C23.89,55.05 23.51,56.86 23.62,58.00 C24.02,62.16 27.19,75.37 28.43,76.14 C29.35,75.66 29.68,75.39 29.83,74.82 C31.07,69.82 29.90,60.74 28.85,59.15 C28.27,58.29 26.62,57.33 25.80,57.31 C24.94,57.33 23.56,58.56 23.01,59.81 C22.01,62.18 21.47,69.70 21.92,72.08 C22.16,73.29 23.05,74.52 23.78,74.82 C24.52,75.10 26.35,74.98 27.28,74.52 C29.26,73.51 31.70,68.92 31.58,66.79 C31.51,65.82 30.76,64.29 30.03,63.84 C29.31,63.42 27.15,63.00 26.04,63.09 C24.82,63.22 22.71,64.28 21.95,65.25 C21.20,66.25 20.47,68.88 20.54,70.27 C20.63,71.63 21.56,73.97 22.34,74.83 C23.85,76.43 27.89,76.80 29.11,75.76 C29.77,75.16 30.07,73.59 29.61,72.99 C28.05,71.14 20.70,69.43 19.52,70.28 C19.39,70.38 19.10,70.66 18.67,71.11 C18.45,72.44 19.58,74.53 20.52,75.04 C21.26,75.42 22.71,75.49 23.00,75.32 C22.91,75.06 20.66,73.79 18.91,73.34 C17.79,73.07 16.33,73.59 16.15,74.15 C16.02,74.66 17.16,75.69 18.33,76.15 C19.29,76.51 21.06,76.64 21.01,76.60 C21.01,76.60 15.83,75.52 15.83,75.52 C16.33,76.72 21.77,78.32 24.49,78.04 C27.80,77.67 33.74,75.00 35.89,72.91 C36.82,71.98 37.83,70.54 38.01,69.83 C37.28,68.97 36.88,68.68 36.27,68.64 C33.88,68.50 30.51,68.66 28.03,69.53 C25.80,70.32 22.37,72.60 22.12,72.75 C22.12,72.75 36.71,57.64 36.71,57.64 C33.44,58.29 23.08,70.69 23.08,70.80 C24.90,70.91 39.91,63.16 41.27,62.53 C43.50,61.52 45.08,60.85 45.24,60.83 C45.12,61.75 41.90,65.16 40.02,67.07 C34.67,72.50 32.11,74.78 31.97,75.00 C33.48,73.98 47.00,63.09 49.25,62.87 C49.58,63.34 48.84,64.54 46.74,66.64 C39.41,73.63 36.76,76.49 36.01,77.64 C36.01,77.64 59.64,57.84 59.64,57.84 C59.64,57.84 44.98,76.46 44.98,76.46 C44.98,76.46 60.92,47.85 60.92,47.85 C58.66,49.91 52.09,59.93 49.99,65.16 C47.87,70.50 47.43,74.67 47.74,75.40 C48.96,75.26 49.52,75.06 49.99,74.48 C55.80,67.33 58.83,55.97 58.82,54.93 C57.03,55.92 49.64,77.89 49.71,78.56 C49.71,78.56 60.38,67.91 60.38,67.91 C60.38,67.91 55.58,76.97 55.58,76.97 C55.58,76.97 59.00,77.08 59.00,77.08 C56.65,76.95 45.00,78.76 39.69,77.43 C34.11,76.03 31.52,75.86 29.40,75.88 C34.44,77.45 40.95,77.10 42.59,76.92 C36.05,76.08 28.40,76.31 27.43,77.39 C28.64,78.24 47.04,78.92 48.63,78.78 C49.86,78.66 50.87,78.49 51.09,78.38 C50.53,77.58 44.67,76.44 42.55,76.14 C34.04,74.99 30.82,75.85 30.11,76.16 C31.07,76.89 35.67,78.33 38.49,78.51 C43.29,78.78 47.19,76.88 47.81,75.72 C47.67,74.46 40.17,68.99 36.04,68.04 C34.96,67.81 33.28,68.01 32.99,68.53 C32.41,69.73 35.59,74.84 38.28,76.65 C40.82,78.32 45.77,79.24 47.12,78.49 C47.71,78.14 48.33,76.89 48.32,76.17 C48.13,70.65 39.38,64.98 38.32,64.78 C38.02,65.71 38.87,68.50 40.59,71.57 C42.49,74.95 47.68,79.61 49.45,80.14 C50.10,79.12 50.12,78.30 49.45,77.10 C47.59,73.89 39.92,67.81 38.32,67.89 C37.75,68.25 37.58,69.81 37.95,71.28 C38.34,72.76 39.65,75.72 40.55,76.99 C42.71,79.97 45.25,80.80 45.66,80.86 C43.98,79.24 36.00,77.41 35.38,77.50 C35.37,78.02 37.34,79.49 39.54,79.93 C41.25,80.24 58.44,79.88 58.46,79.88 C58.57,79.82 58.81,79.67 59.17,79.41 C59.23,78.56 57.91,77.47 56.85,77.46 C54.41,77.49 52.95,79.00 52.83,79.27 C53.25,79.75 55.80,80.32 56.99,80.25 C59.71,80.06 63.37,77.81 64.28,76.72 C63.66,75.22 54.80,78.62 53.95,79.19 C55.12,80.13 59.10,80.76 60.24,80.60 C62.96,80.15 66.59,77.30 67.24,76.32 C67.01,76.09 62.98,78.16 62.47,78.66 C61.85,79.31 62.41,81.08 63.10,81.84 C63.71,82.45 65.30,82.65 66.01,82.16 C68.91,80.02 68.97,77.94 68.84,77.71 C68.84,77.71 67.33,77.79 67.33,77.79 C67.40,78.66 69.08,79.52 70.26,79.47 C72.73,79.33 74.28,77.53 74.34,77.35 C74.34,77.35 71.43,78.60 71.43,78.60 C71.89,79.24 73.82,78.78 75.14,78.01 C75.67,77.69 78.11,76.01 78.12,76.05 C78.12,76.05 78.01,78.55 78.01,78.55 C77.76,77.28 73.70,74.18 72.31,74.81 C71.14,75.39 70.06,77.15 69.48,78.31 C69.48,78.31 71.65,70.64 71.65,70.64 C71.65,70.64 66.56,72.75 66.56,72.75 C66.56,72.75 66.12,69.55 66.12,69.55" fill="none" stroke="rgb(0, 0, 0)" stroke-width="2.00" stroke-opacity="1.00" stroke-linejoin="round"/>
<path d="M59.75,58.88 C59.75,58.88 58.00,59.19 58.00,59.19 C57.58,59.67 57.61,61.56 58.36,63.31 C60.20,67.50 62.23,68.20 62.80,68.15 C63.60,67.52 63.50,65.02 62.57,63.17 C61.89,61.84 60.63,60.33 60.29,59.98 C60.18,59.94 63.68,65.67 65.36,68.43 C66.03,69.52 66.69,70.61 67.36,71.69" fill="none" stroke="rgb(0, 0, 0)" stroke-width="2.00" stroke-opacity="1.00" stroke-linejoin="round"/>
<path d="M58.00,61.38 C58.00,61.38 57.62,61.48 57.62,61.48 C57.63,61.50 62.73,73.29 62.98,74.07 C63.20,74.75 63.38,75.77 63.47,76.34" fill="none" stroke="rgb(0, 0, 0)" stroke-width="2.00" stroke-opacity="1.00" stroke-linejoin="round"/>
<path d="M30.38,77.88 C30.38,77.88 30.25,77.81 30.25,77.81 C30.25,77.81 33.48,79.76 33.48,79.76 C33.48,79.76 29.20,78.53 29.20,78.53 C29.69,78.73 30.78,79.24 31.45,79.62 C31.67,79.75 32.02,79.97 32.48,80.27" fill="none" stroke="rgb(0, 0, 0)" stroke-width="2.00" stroke-opacity="1.00" stroke-linejoin="round"/>
<path d="M34.50,79.62 C35.13,80.11 36.84,80.31 37.41,80.23 C37.68,80.19 37.85,80.10 37.94,79.97 C37.94,79.97 35.18,79.46 35.18,79.46 C35.63,79.97 38.22,80.36 40.19,80.15 C40.55,80.11 41.32,80.00 42.51,79.83" fill="none" stroke="rgb(0, 0, 0)" stroke-width="2.00" stroke-opacity="1.00" stroke-linejoin="round"/>
<path d="M50.88,79.62 C50.88,79.62 50.62,79.62 50.62,79.62 C50.62,79.62 55.87,80.61 55.87,80.61 C55.87,80.61 48.98,80.14 48.98,80.14 C50.50,81.15 53.07,81.67 53.67,81.69 C53.88,81.69 54.29,81.68 54.90,81.65" fill="none" stroke="rgb(0, 0, 0)" stroke-width="2.00" stroke-opacity="1.00" stroke-linejoin="round"/>
<path d="M48.00,81.12 C48.00,81.12 47.88,81.12 47.88,81.12 C48.93,80.89 49.84,80.88 53.49,81.05 C55.28,81.12 57.43,80.78 57.83,80.70" fill="none" stroke="rgb(0, 0, 0)" stroke-width="2.00" stroke-opacity="1.00" stroke-linejoin="round"/>
<path d="M52.88,70.50 C52.88,70.50 52.31,70.55 52.31,70.55 C52.31,70.55 54.61,75.54 54.61,75.54 C54.61,75.54 51.78,68.44 51.78,68.44 C51.87,68.80 54.10,71.53 56.49,73.79 C57.01,74.28 59.09,76.12 59.84,76.78" fill="none" stroke="rgb(0, 0, 0)" stroke-width="2.00" stroke-opacity="1.00" stroke-linejoin="round"/>
<path d="M55.00,62.25 C55.00,62.25 54.62,62.12 54.62,62.12 C54.62,62.12 66.32,70.99 66.32,70.99 C66.63,69.69 62.52,64.82 59.26,61.47 C60.40,62.41 61.49,63.38 63.58,65.32 C66.63,68.16 70.65,71.90 71.62,72.81" fill="none" stroke="rgb(0, 0, 0)" stroke-width="2.00" stroke-opacity="1.00" stroke-linejoin="round"/>
<path d="M56.62,65.25 C56.62,65.25 56.38,65.12 56.38,65.12 C56.38,65.12 64.02,72.39 64.02,72.39 C64.02,72.39 55.79,64.98 55.79,64.98 C56.77,66.28 58.30,68.16 59.53,69.49 C60.68,70.73 62.89,72.89 64.55,74.45 C64.79,74.68 65.03,74.90 65.27,75.12" fill="none" stroke="rgb(0, 0, 0)" stroke-width="2.00" stroke-opacity="1.00" stroke-linejoin="round"/>
<path d="M64.38,79.25 C64.38,79.25 64.38,79.31 64.38,79.31 C64.43,79.33 64.56,79.38 65.14,79.31 C67.51,79.03 70.94,78.92 72.17,78.86 C72.71,78.84 73.53,78.77 74.62,78.66" fill="none" stroke="rgb(0, 0, 0)" stroke-width="2.00" stroke-opacity="1.00" stroke-linejoin="round"/>
<path d="M70.38,79.38 C70.89,79.49 71.69,79.52 73.22,79.44 C78.14,79.16 79.59,78.99 80.12,78.85 C80.29,78.81 80.58,78.71 80.98,78.57" fill="none" stroke="rgb(0, 0, 0)" stroke-width="2.00" stroke-opacity="1.00" stroke-linejoin="round"/>
<path d="M77.62,78.25 C79.94,78.23 81.09,78.20 81.69,78.12 C81.98,78.09 82.28,78.05 82.58,78.01" fill="none" stroke="rgb(0, 0, 0)" stroke-width="2.00" stroke-opacity="1.00" stroke-linejoin="round"/>
<path d="M83.75,76.75 C83.24,76.72 82.78,76.63 82.57,76.50 C82.35,76.34 82.26,75.27 82.25,74.42 C82.25,74.20 82.25,73.82 82.25,73.28" fill="none" stroke="rgb(0, 0, 0)" stroke-width="2.00" stroke-opacity="1.00" stroke-linejoin="round"/>
<path d="M83.38,75.88 C83.38,75.88 83.38,76.00 83.38,76.00 C83.40,75.11 83.39,74.43 83.36,73.96 C83.32,73.49 83.22,72.57 83.04,71.21" fill="none" stroke="rgb(0, 0, 0)" stroke-width="2.00" stroke-opacity="1.00" stroke-linejoin="round"/>
<path d="M55.75,24.88 C55.75,24.88 55.50,24.88 55.50,24.88 C55.50,24.88 51.10,33.82 51.10,33.82 C51.10,33.82 55.00,25.79 55.00,25.79 C55.00,25.79 55.36,27.51 55.36,27.51" fill="none" stroke="rgb(0, 0, 0)" stroke-width="2.00" stroke-opacity="1.00" stroke-linejoin="round"/>
<path d="M66.25,27.62 C66.25,27.62 64.98,36.88 64.98,36.88 C66.24,36.67 66.94,36.18 67.37,34.99 C67.93,33.43 68.31,31.58 68.31,30.40 C68.31,30.40 68.01,30.08 68.01,30.08 C66.31,31.87 66.81,36.56 67.10,37.33 C67.32,37.88 68.02,39.19 68.31,39.70" fill="none" stroke="rgb(0, 0, 0)" stroke-width="2.00" stroke-opacity="1.00" stroke-linejoin="round"/>
<path d="M73.38,35.88 C73.82,39.71 71.61,47.66 70.33,50.93 C69.29,53.56 67.98,55.98 67.71,56.42" fill="none" stroke="rgb(0, 0, 0)" stroke-width="2.00" stroke-opacity="1.00" stroke-linejoin="round"/>
<path d="M68.38,36.50 C67.19,36.85 59.92,47.19 59.16,50.33 C59.04,50.88 59.02,51.79 59.14,52.04 C59.18,52.13 59.31,52.27 59.52,52.47" fill="none" stroke="rgb(0, 0, 0)" stroke-width="2.00" stroke-opacity="1.00" stroke-linejoin="round"/>
<path d="M70.50,41.38 C71.95,43.50 72.98,46.56 72.78,47.62 C72.63,48.30 72.12,49.46 71.78,49.84 C71.67,49.97 71.43,50.18 71.07,50.48" fill="none" stroke="rgb(0, 0, 0)" stroke-width="2.00" stroke-opacity="1.00" stroke-linejoin="round"/>
<path d="M59.38,43.88 C59.38,43.88 59.25,43.81 59.25,43.81 C60.30,43.81 66.72,45.85 68.21,46.48 C68.93,46.78 70.25,47.49 70.87,47.85 C70.99,47.92 71.16,48.03 71.40,48.18" fill="none" stroke="rgb(0, 0, 0)" stroke-width="2.00" stroke-opacity="1.00" stroke-linejoin="round"/>
<path d="M35.12,57.00 C36.16,56.18 39.33,54.75 40.62,54.51 C43.62,53.99 57.19,55.93 58.45,56.09 C58.22,56.79 39.06,57.39 38.81,57.39 C37.97,57.37 36.31,56.86 36.10,56.10 C35.91,55.30 36.62,52.48 37.36,51.08 C38.31,49.36 40.62,46.90 42.22,45.97 C43.78,45.10 46.58,44.40 47.98,44.58 C48.59,44.68 50.42,45.57 51.15,46.35 C52.79,48.20 53.43,53.64 52.77,55.07 C52.46,55.71 51.49,56.72 50.29,57.68" fill="none" stroke="rgb(0, 0, 0)" stroke-width="2.00" stroke-opacity="1.00" stroke-linejoin="round"/>
<path d="M33.62,61.38 C33.62,61.38 32.03,61.77 32.03,61.77 C32.03,61.77 44.43,66.80 44.43,66.80 C44.43,66.80 27.44,64.81 27.44,64.81 C29.55,71.05 36.62,73.53 37.06,73.58 C37.23,73.60 37.46,73.58 37.76,73.52" fill="none" stroke="rgb(0, 0, 0)" stroke-width="2.00" stroke-opacity="1.00" stroke-linejoin="round"/>
<path d="M22.38,67.12 C22.38,67.12 21.39,67.22 21.39,67.22 C22.40,68.33 34.15,73.50 37.38,73.92 C39.27,74.16 39.89,74.12 39.91,74.10 C39.09,73.89 36.49,72.66 35.02,71.23 C33.38,69.61 31.60,66.29 31.19,65.07 C30.74,63.67 30.79,63.02 31.02,62.11 C32.41,61.62 35.65,62.69 40.04,64.66 C46.86,67.71 52.11,69.08 61.19,70.46 C61.19,70.46 48.90,74.89 48.90,74.89 C50.02,74.73 53.72,73.21 56.66,71.15 C59.29,69.26 61.97,65.57 62.10,65.39 C61.18,66.99 59.86,70.52 60.04,71.26 C60.29,72.06 61.82,72.65 63.30,72.52 C64.94,72.35 68.14,71.29 70.28,70.18 C71.95,69.29 75.52,66.78 77.25,65.49" fill="none" stroke="rgb(0, 0, 0)" stroke-width="2.00" stroke-opacity="1.00" stroke-linejoin="round"/>
<path d="M56.88,20.88 C56.88,20.88 56.00,20.26 56.00,20.26 C56.72,19.56 60.34,19.88 62.24,21.04 C65.04,22.81 66.45,25.67 66.39,25.89 C65.39,25.99 64.41,24.94 62.17,20.95 C61.79,20.27 61.15,19.26 60.86,18.81 C61.59,19.21 62.31,19.69 62.91,20.24 C63.20,20.52 63.62,20.93 64.17,21.48 C64.31,21.63 64.50,21.84 64.75,22.10" fill="none" stroke="rgb(0, 0, 0)" stroke-width="2.00" stroke-opacity="1.00" stroke-linejoin="round"/>
<path d="M55.25,20.12 C55.25,20.12 55.25,19.94 55.25,19.94 C57.87,17.98 62.73,20.95 63.42,21.47 C63.70,21.68 64.21,22.09 64.96,22.72" fill="none" stroke="rgb(0, 0, 0)" stroke-width="2.00" stroke-opacity="1.00" stroke-linejoin="round"/>
<path d="M50.38,15.38 C50.40,14.90 51.11,14.20 51.88,14.05 C53.16,13.81 55.75,14.08 55.61,14.27 C55.61,14.27 50.72,15.25 50.72,15.25 C51.70,15.29 52.57,15.37 53.21,15.52 C53.55,15.60 54.02,15.74 54.63,15.92 C54.79,15.97 55.01,16.04 55.29,16.13" fill="none" stroke="rgb(0, 0, 0)" stroke-width="2.00" stroke-opacity="1.00" stroke-linejoin="round"/>
<path d="M51.12,10.62 C50.57,10.07 52.10,8.05 53.16,8.24 C53.83,8.39 55.24,9.56 55.45,10.37 C55.47,10.45 55.48,10.57 55.50,10.72" fill="none" stroke="rgb(0, 0, 0)" stroke-width="2.00" stroke-opacity="1.00" stroke-linejoin="round"/>
<path d="M69.01,18.60 C69.01,18.60 68.90,18.70 68.90,18.70 C68.98,18.83 70.28,20.00 71.31,21.58 C74.34,26.27 76.45,32.34 77.94,38.14 C78.11,38.77 78.51,40.15 78.73,40.90" fill="none" stroke="rgb(0, 0, 0)" stroke-width="2.00" stroke-opacity="1.00" stroke-linejoin="round"/>
<path d="M76.34,30.68 C78.02,33.77 78.97,40.66 79.13,46.19 C79.14,46.42 79.14,46.61 79.13,46.77" fill="none" stroke="rgb(0, 0, 0)" stroke-width="2.00" stroke-opacity="1.00" stroke-linejoin="round"/>
<path d="M71.38,26.86 C71.38,26.86 74.88,26.51 74.88,26.51" fill="none" stroke="rgb(0, 0, 0)" stroke-width="2.00" stroke-opacity="1.00" stroke-linejoin="round"/>
<path d="M77.58,29.86 C77.55,30.11 77.22,31.30 77.03,32.08 C76.95,32.38 76.80,32.90 76.59,33.65" fill="none" stroke="rgb(0, 0, 0)" stroke-width="2.00" stroke-opacity="1.00" stroke-linejoin="round"/>
<path d="M78.51,45.14 C78.51,45.14 78.20,45.14 78.20,45.14 C79.12,45.39 81.45,46.71 81.79,47.23 C82.23,47.96 82.22,49.17 81.82,50.10 C81.62,50.56 81.10,51.74 80.98,52.13" fill="none" stroke="rgb(0, 0, 0)" stroke-width="2.00" stroke-opacity="1.00" stroke-linejoin="round"/>
<path d="M44.51,88.38 C44.51,88.38 44.71,88.87 44.71,88.87 C44.95,89.11 44.76,88.30 44.62,88.58 C43.84,90.62 48.49,93.23 50.26,93.36 C50.51,93.38 50.93,93.39 51.50,93.38" fill="none" stroke="rgb(0, 0, 0)" stroke-width="3.00" stroke-opacity="1.00" stroke-linejoin="round"/>
<path d="M61.14,88.58 C61.14,88.58 61.25,87.94 61.25,87.94 C61.25,87.93 60.88,90.10 60.29,90.92 C58.97,92.73 56.22,93.31 55.49,93.36 C55.24,93.38 54.82,93.39 54.25,93.38" fill="none" stroke="rgb(0, 0, 0)" stroke-width="3.00" stroke-opacity="1.00" stroke-linejoin="round"/>
<path d="M52.88,93.50 C52.90,93.46 53.02,93.39 53.12,93.38 C53.15,93.37 53.20,93.37 53.25,93.38" fill="none" stroke="rgb(0, 0, 0)" stroke-width="3.00" stroke-opacity="1.00" stroke-linejoin="round"/>
<path d="M52.88,93.50 C52.85,93.46 52.73,93.39 52.63,93.38 C52.60,93.37 52.55,93.37 52.50,93.38" fill="none" stroke="rgb(0, 0, 0)" stroke-width="3.00" stroke-opacity="1.00" stroke-linejoin="round"/>
<path d="M45.25,88.00 C45.42,88.04 45.56,88.09 45.67,88.12 C46.92,88.55 56.21,88.61 60.25,88.09 C60.25,88.09 57.98,88.40 57.98,88.40" fill="none" stroke="rgb(0, 0, 0)" stroke-width="2.00" stroke-opacity="1.00" stroke-linejoin="round"/>
<path d="M54.62,88.88 C54.62,88.88 59.88,88.12 59.88,88.12 C59.80,88.12 56.87,89.36 54.59,89.73 C51.46,90.22 48.17,90.25 47.04,89.67 C47.04,89.67 55.61,92.61 55.61,92.61 C55.70,91.72 53.44,90.69 52.09,90.45 C49.26,89.98 47.44,90.84 47.16,91.17 C48.86,92.47 57.58,91.74 58.09,91.16 C58.09,91.16 52.91,91.48 52.91,91.48 C53.89,91.45 57.35,90.74 58.30,90.57 C58.63,90.52 58.89,90.49 59.11,90.51" fill="none" stroke="rgb(0, 0, 0)" stroke-width="2.00" stroke-opacity="1.00" stroke-linejoin="round"/>
<path d="M47.88,89.38 C48.30,89.37 50.32,89.62 51.84,89.81 C53.48,89.98 55.53,89.93 57.84,89.75 C57.84,89.75 57.22,90.18 57.22,90.18" fill="none" stroke="rgb(0, 0, 0)" stroke-width="2.00" stroke-opacity="1.00" stroke-linejoin="round"/>
</g>
</svg>
