<?xml version="1.0" encoding="UTF-8" standalone="no"?>
<!DOCTYPE svg PUBLIC "-//W3C//DTD SVG 1.1//EN" "http://www.w3.org/Graphics/SVG/1.1/DTD/svg11.dtd">
<svg width="105.00" height="100.00" viewBox="0.00 0.00 105.00 100.00" xmlns="http://www.w3.org/2000/svg" xmlns:xlink="http://www.w3.org/1999/xlink">
<g stroke-linecap="round" id="圖層_15">
<path d="M58.00,71.25 C58.00,71.25 57.75,71.25 57.75,71.25 C57.65,71.31 69.25,83.57 72.94,87.84 C73.56,88.54 75.43,90.59 76.08,91.31" fill="none" stroke="rgb(0, 0, 0)" stroke-width="3.00" stroke-opacity="1.00" stroke-linejoin="round"/>
<path d="M64.25,66.75 C66.04,68.61 69.89,72.66 72.25,75.47 C75.02,78.81 78.98,83.24 80.96,85.44 C80.96,85.44 81.50,85.79 81.50,85.79" fill="none" stroke="rgb(0, 0, 0)" stroke-width="3.00" stroke-opacity="1.00" stroke-linejoin="round"/>
<path d="M76.25,90.75 C76.25,90.75 76.00,91.00 76.00,91.00 C76.00,91.00 80.75,86.75 80.75,86.75 C80.75,86.75 80.33,87.17 80.33,87.17" fill="none" stroke="rgb(0, 0, 0)" stroke-width="3.00" stroke-opacity="1.00" stroke-linejoin="round"/>
<path d="M55.28,72.45 C53.77,73.21 49.11,75.05 43.63,75.29 C38.00,75.50 27.76,73.78 24.86,72.38 C21.23,70.59 14.01,62.79 11.14,58.33 C9.58,55.86 7.63,50.30 7.19,46.23 C7.00,44.39 7.04,39.21 7.35,36.71 C7.74,33.75 9.40,28.56 10.61,26.08 C12.03,23.25 15.85,18.41 18.10,16.37 C20.39,14.34 26.04,11.00 28.78,9.92 C31.53,8.87 37.40,7.79 40.61,7.62 C43.80,7.48 51.19,8.50 54.14,9.66 C57.56,11.04 63.49,14.97 66.22,17.81 C68.75,20.49 72.79,26.78 74.29,30.31 C75.79,33.91 77.00,39.51 76.85,42.60 C76.64,46.04 75.46,50.46 74.21,53.46 C73.28,55.65 71.98,58.73 71.72,59.25 C70.57,61.51 66.37,64.91 64.44,66.67" fill="none" stroke="rgb(0, 0, 0)" stroke-width="3.00" stroke-opacity="1.00" stroke-linejoin="round"/>
<path d="M17.05,25.93 C17.05,25.93 16.67,26.10 16.67,26.10 C15.56,28.32 12.81,39.52 13.03,44.60 C13.19,47.78 15.22,54.70 16.73,57.66 C19.15,62.25 26.17,67.27 27.97,68.27 C29.25,68.98 30.56,69.37 32.85,69.79" fill="none" stroke="rgb(0, 0, 0)" stroke-width="2.00" stroke-opacity="1.00" stroke-linejoin="round"/>
<path d="M34.26,69.82 C34.41,69.80 36.73,70.19 39.74,70.34 C42.88,70.47 46.41,70.11 48.80,69.26 C50.09,68.78 56.18,65.88 56.71,65.62 C57.20,65.38 57.81,65.05 58.55,64.66" fill="none" stroke="rgb(0, 0, 0)" stroke-width="2.00" stroke-opacity="1.00" stroke-linejoin="round"/>
<path d="M59.62,64.21 C60.65,63.84 66.93,57.23 68.24,54.93 C68.60,54.30 68.96,53.67 69.32,53.04" fill="none" stroke="rgb(0, 0, 0)" stroke-width="2.00" stroke-opacity="1.00" stroke-linejoin="round"/>
<path d="M18.08,25.50 C18.09,24.53 21.63,20.40 23.38,19.02 C25.75,17.20 29.23,15.36 31.69,14.70 C32.13,14.58 33.24,14.30 35.01,13.86" fill="none" stroke="rgb(0, 0, 0)" stroke-width="2.00" stroke-opacity="1.00" stroke-linejoin="round"/>
<path d="M35.83,13.50 C37.23,13.04 42.89,12.67 45.69,13.32 C48.56,14.03 55.36,16.23 57.35,17.32 C59.95,18.81 62.90,21.71 63.79,22.92 C64.11,23.37 64.85,24.45 66.00,26.15" fill="none" stroke="rgb(0, 0, 0)" stroke-width="2.00" stroke-opacity="1.00" stroke-linejoin="round"/>
<path d="M66.04,26.16 C67.48,28.67 70.15,33.52 70.62,35.30 C72.01,40.87 70.08,50.96 69.69,52.19 C69.58,52.52 69.35,53.16 69.00,54.12" fill="none" stroke="rgb(0, 0, 0)" stroke-width="2.00" stroke-opacity="1.00" stroke-linejoin="round"/>
<path d="M60.68,71.26 C60.68,71.26 60.47,71.41 60.47,71.41 C60.47,71.41 64.31,67.07 64.31,67.07 C64.31,67.07 64.23,67.89 64.23,67.89" fill="none" stroke="rgb(0, 0, 0)" stroke-width="2.00" stroke-opacity="1.00" stroke-linejoin="round"/>
<path d="M62.52,74.09 C62.52,74.09 62.44,74.09 62.44,74.09 C62.40,73.96 62.38,73.89 62.37,73.88 C62.31,73.48 63.80,70.50 64.49,69.87 C64.49,69.87 62.81,75.02 62.81,75.02 C62.81,75.02 65.91,69.75 65.91,69.75 C65.91,69.75 65.26,76.86 65.26,76.86 C65.26,76.86 66.76,72.98 66.76,72.98 C68.19,73.15 69.31,78.25 68.56,79.27 C68.40,79.48 68.13,79.60 67.88,79.64 C67.08,79.27 67.88,76.90 69.34,77.36 C70.05,77.61 71.70,79.08 71.90,79.65 C71.90,79.65 66.63,77.93 66.63,77.93 C73.53,80.14 75.67,82.53 75.70,82.70 C75.70,82.70 68.63,81.58 68.63,81.58 C68.63,81.58 76.96,85.49 76.96,85.49 C75.18,83.61 71.08,82.45 70.51,82.70 C70.51,82.70 78.04,88.16 78.04,88.16 C78.03,87.62 77.19,86.57 76.73,86.31 C75.57,85.68 74.57,88.40 75.50,88.89 C75.50,88.89 76.53,88.19 76.53,88.19" fill="none" stroke="rgb(0, 0, 0)" stroke-width="2.00" stroke-opacity="1.00" stroke-linejoin="round"/>
<path d="M55.46,71.69 C55.46,71.69 55.32,71.69 55.32,71.69 C56.81,71.59 60.20,70.04 60.84,69.99 C60.87,69.99 60.90,69.99 60.93,69.99" fill="none" stroke="rgb(0, 0, 0)" stroke-width="2.00" stroke-opacity="1.00" stroke-linejoin="round"/>
<path d="M76.49,90.88 C76.49,90.88 76.35,90.88 76.35,90.88 C76.33,90.88 77.91,91.08 79.12,90.52 C79.87,90.16 81.36,88.16 81.50,87.87 C81.60,87.63 81.71,87.40 81.81,87.16" fill="none" stroke="rgb(0, 0, 0)" stroke-width="2.00" stroke-opacity="1.00" stroke-linejoin="round"/>
<path d="M81.57,86.93 C81.57,87.00 81.57,87.07 81.57,87.14 C81.57,87.26 81.57,87.38 81.57,87.49" fill="none" stroke="rgb(0, 0, 0)" stroke-width="2.00" stroke-opacity="1.00" stroke-linejoin="round"/>
<path d="M60.54,70.14 C60.63,70.09 60.73,70.04 60.82,69.99 C61.01,69.90 61.20,69.81 61.39,69.71" fill="none" stroke="rgb(0, 0, 0)" stroke-width="2.00" stroke-opacity="1.00" stroke-linejoin="round"/>
<path d="M60.54,70.42 C60.55,70.25 61.81,69.46 62.16,69.28 C62.31,69.19 62.46,69.11 62.61,69.03" fill="none" stroke="rgb(0, 0, 0)" stroke-width="2.00" stroke-opacity="1.00" stroke-linejoin="round"/>
<path d="M62.94,69.15 C63.31,69.30 64.75,69.51 65.31,69.60 C65.50,69.63 65.65,69.67 65.76,69.71" fill="none" stroke="rgb(0, 0, 0)" stroke-width="2.00" stroke-opacity="1.00" stroke-linejoin="round"/>
<path d="M60.54,69.43 C60.77,69.27 60.95,69.15 61.09,69.08 C61.27,68.99 61.59,68.87 62.04,68.70 C62.14,68.66 62.24,68.63 62.32,68.60" fill="none" stroke="rgb(0, 0, 0)" stroke-width="2.00" stroke-opacity="1.00" stroke-linejoin="round"/>
<path d="M63.93,68.87 C63.93,68.87 64.07,68.87 64.07,68.87" fill="none" stroke="rgb(0, 0, 0)" stroke-width="2.00" stroke-opacity="1.00" stroke-linejoin="round"/>
<path d="M66.75,73.24 C67.11,73.23 67.49,73.26 67.78,73.37 C67.89,73.41 68.06,73.48 68.27,73.58 C68.32,73.60 68.37,73.63 68.44,73.66" fill="none" stroke="rgb(0, 0, 0)" stroke-width="2.00" stroke-opacity="1.00" stroke-linejoin="round"/>
<path d="M66.33,74.37 C66.38,74.45 68.06,75.12 69.01,75.26 C69.65,75.35 70.00,75.47 70.28,75.66 C70.33,75.70 70.41,75.77 70.51,75.87" fill="none" stroke="rgb(0, 0, 0)" stroke-width="2.00" stroke-opacity="1.00" stroke-linejoin="round"/>
<path d="M71.41,77.90 C71.41,77.90 71.12,78.04 71.12,78.04 C71.12,78.04 71.54,78.18 71.54,78.18" fill="none" stroke="rgb(0, 0, 0)" stroke-width="2.00" stroke-opacity="1.00" stroke-linejoin="round"/>
<path d="M69.71,73.95 C69.71,73.95 69.57,73.95 69.57,73.95 C69.57,73.95 70.25,73.80 70.25,73.80" fill="none" stroke="rgb(0, 0, 0)" stroke-width="2.00" stroke-opacity="1.00" stroke-linejoin="round"/>
<path d="M70.56,76.63 C71.00,76.60 71.89,76.70 72.33,76.89 C72.48,76.95 72.67,77.08 72.90,77.28" fill="none" stroke="rgb(0, 0, 0)" stroke-width="2.00" stroke-opacity="1.00" stroke-linejoin="round"/>
</g>
</svg>
