<?xml version="1.0" encoding="UTF-8" standalone="no"?>
<!DOCTYPE svg PUBLIC "-//W3C//DTD SVG 1.1//EN" "http://www.w3.org/Graphics/SVG/1.1/DTD/svg11.dtd">
<svg width="105.00" height="100.00" viewBox="0.00 0.00 105.00 100.00" xmlns="http://www.w3.org/2000/svg" xmlns:xlink="http://www.w3.org/1999/xlink">
<g stroke-linecap="round" id="圖層_4">
<path d="M50.19,31.56 C50.19,31.56 50.34,30.92 50.34,30.92 C50.34,30.92 50.14,30.58 50.14,30.58 C49.91,30.39 47.67,30.19 45.90,30.29 C43.92,30.41 39.00,33.10 37.17,34.53 C35.30,36.03 32.32,39.41 31.02,41.61 C29.76,43.79 27.67,49.13 27.17,51.61 C26.65,54.29 26.45,59.11 26.93,61.22 C27.43,63.31 29.80,67.66 31.51,69.65 C33.37,71.77 38.16,75.19 41.17,76.43 C50.58,80.23 66.51,79.52 68.34,79.46 C68.34,79.46 69.65,79.17 69.65,79.17" fill="none" stroke="rgb(0, 0, 0)" stroke-width="3.00" stroke-opacity="1.00" stroke-linejoin="round"/>
<path d="M52.68,30.53 C51.93,28.71 51.79,20.29 51.98,18.23 C52.19,16.26 53.51,11.73 54.73,10.15 C57.42,9.86 62.37,10.81 65.63,12.18 C70.44,14.29 79.36,19.93 84.21,23.82 C91.87,30.01 93.65,32.28 93.65,32.58 C93.41,33.57 83.31,45.45 71.85,55.02 C65.95,59.96 62.81,61.36 62.29,61.41 C61.40,59.72 59.67,55.81 57.74,51.96 C56.10,48.75 53.37,46.29 53.27,46.09 C52.86,45.73 50.75,47.07 48.68,49.61 C47.31,51.34 45.37,55.83 45.12,57.36 C44.57,61.08 45.81,65.32 46.97,66.63 C47.50,67.20 49.70,69.87 50.39,70.53 C51.53,71.62 61.79,77.26 65.36,78.19 C66.01,78.35 68.45,78.92 69.31,79.12" fill="none" stroke="rgb(0, 0, 0)" stroke-width="3.00" stroke-opacity="1.00" stroke-linejoin="round"/>
<path d="M13.50,25.00 C17.47,24.96 25.02,24.50 27.25,24.50 C27.50,24.50 27.75,24.50 28.00,24.50" fill="none" stroke="rgb(0, 0, 0)" stroke-width="3.00" stroke-opacity="1.00" stroke-linejoin="round"/>
<path d="M13.93,25.24 C13.93,25.24 13.88,29.05 13.88,29.05 C14.73,32.36 14.00,65.47 15.35,80.02 C15.58,82.25 16.06,87.74 16.32,91.01 C31.02,89.82 44.13,91.48 71.12,91.47 C79.63,91.44 81.78,90.82 81.73,90.84 C81.71,90.82 83.24,91.41 83.76,91.43 C84.69,91.46 87.69,90.74 88.94,90.75 C89.18,90.75 90.10,91.07 91.37,91.44 C90.37,86.19 90.53,75.51 90.49,71.32 C90.49,69.47 90.67,62.27 90.76,59.41 C90.76,59.41 90.18,51.84 90.18,51.84" fill="none" stroke="rgb(0, 0, 0)" stroke-width="3.00" stroke-opacity="1.00" stroke-linejoin="round"/>
<path d="M58.75,13.75 C58.75,13.75 57.75,13.25 57.75,13.25 C57.06,14.25 56.64,18.55 56.83,22.67 C56.94,24.55 58.00,27.61 59.54,28.29 C60.69,28.18 62.02,27.60 62.96,26.54 C64.66,24.59 66.34,18.93 65.92,17.00 C65.48,15.27 61.50,13.21 59.29,13.25 C55.05,13.42 53.00,16.57 53.04,17.25 C53.04,17.25 54.25,17.00 54.25,17.00 C54.25,17.00 52.46,17.21 52.46,17.21 C52.21,18.69 52.40,19.76 53.46,21.12 C61.42,31.41 69.29,34.77 69.83,34.96 C69.83,34.96 56.54,14.12 56.54,14.12 C56.10,15.36 65.41,27.67 70.42,32.34 C72.95,34.69 77.13,38.04 79.50,39.62 C79.50,39.62 61.38,11.92 61.38,11.92 C61.38,11.92 80.42,36.12 80.42,36.12 C78.90,32.99 68.17,18.26 67.71,17.50 C67.02,16.34 66.10,14.28 66.08,14.04 C68.26,14.82 70.93,17.73 72.66,19.83 C75.65,23.50 81.44,31.70 82.96,34.88 C82.53,34.37 79.37,29.90 77.54,27.29 C73.93,22.11 73.43,21.02 73.29,19.92 C75.18,19.87 78.64,22.95 80.64,25.19 C82.75,27.59 85.58,31.31 87.21,34.71 C87.21,34.71 84.38,28.29 84.38,28.29 C85.54,28.33 87.94,30.27 89.62,32.88 C91.24,35.40 91.20,36.55 91.08,37.00 C90.08,37.87 87.05,38.64 83.41,38.92 C74.22,39.61 62.62,42.50 61.46,42.42 C61.18,42.40 60.74,42.27 60.12,42.04 C58.29,39.74 58.59,32.20 59.00,27.92 C58.00,28.24 55.81,32.38 54.58,35.92 C53.77,38.31 53.31,40.24 53.33,40.46 C54.00,40.48 55.22,38.70 56.46,35.10 C60.84,22.42 62.60,16.58 62.21,16.00 C61.31,15.76 59.81,16.79 58.37,19.71 C57.01,22.53 55.13,27.16 54.35,29.32 C53.50,31.78 52.57,38.01 53.00,39.75 C54.57,39.58 55.54,38.81 56.42,36.87 C58.30,32.70 62.77,18.81 62.58,14.12 C62.58,14.12 61.83,13.42 61.83,13.42 C60.03,13.17 57.39,14.60 56.17,16.71 C53.74,21.05 53.77,28.07 54.25,28.46 C55.18,28.17 56.86,24.22 57.47,21.25 C58.45,16.21 58.03,14.18 57.46,13.83 C56.22,13.74 54.80,15.36 54.04,17.75 C53.30,20.14 51.79,29.35 51.63,30.92 C51.45,32.86 51.35,39.22 52.29,40.92 C52.29,40.92 53.92,41.50 53.92,41.50 C55.35,41.20 56.69,40.25 57.96,38.37 C59.16,36.59 68.00,18.33 67.92,17.33 C66.97,17.37 64.65,20.26 63.23,23.18 C57.78,34.68 55.83,46.10 56.42,46.46 C58.28,46.02 59.59,45.05 60.88,42.96 C61.46,42.00 69.41,27.79 71.83,23.58 C70.47,23.94 67.02,28.09 65.05,31.63 C62.14,36.98 58.30,46.96 57.83,49.71 C59.04,50.28 60.19,50.18 61.29,48.92 C67.22,42.04 74.61,25.41 75.00,24.29 C74.01,23.83 70.40,26.10 67.88,29.96 C61.81,39.43 61.40,47.04 61.46,48.46 C61.46,48.46 62.50,49.12 62.50,49.12 C64.86,48.85 67.40,47.09 68.62,45.75 C72.14,41.84 79.59,28.54 80.37,26.21 C79.53,26.01 75.78,29.37 74.25,31.44 C71.08,35.81 62.33,51.18 63.08,52.54 C64.17,52.68 65.09,52.27 66.25,50.96 C66.37,50.83 81.91,29.55 82.58,28.54 C80.85,29.70 71.54,42.09 68.00,48.08 C66.07,51.37 65.59,53.39 65.54,54.12 C67.46,54.01 71.02,50.96 72.62,49.29 C76.99,44.70 82.97,37.10 84.25,35.25 C84.25,35.25 71.12,53.12 71.12,53.12 C72.46,53.45 76.01,50.60 77.90,48.44 C80.15,45.81 84.79,38.51 86.21,36.25 C86.21,36.25 81.87,42.67 81.87,42.67 C86.66,37.33 89.62,32.62 89.42,32.04 C88.71,31.00 84.77,30.00 84.46,29.71 C84.11,29.39 80.94,25.84 80.75,25.54 C80.75,25.54 86.50,34.17 86.50,34.17 C87.24,33.43 87.98,28.83 87.58,28.08 C87.05,27.20 84.32,26.48 84.25,26.38 C82.96,24.41 82.77,24.51 82.75,24.50 C85.04,24.60 90.24,30.30 90.21,30.83 C90.21,30.83 78.92,34.04 78.92,34.04 C77.57,33.13 77.00,28.72 77.04,26.08 C77.04,26.08 78.96,46.79 78.96,46.79 C78.96,46.79 68.83,30.12 68.83,30.12 C68.83,30.12 76.04,47.21 76.04,47.21 C76.60,45.71 75.03,41.10 73.58,38.46 C69.35,30.86 67.14,29.75 66.67,29.71 C66.15,30.60 67.14,34.66 68.29,37.50 C71.26,44.66 74.33,48.37 75.42,48.75 C75.79,47.21 74.16,43.96 71.45,40.54 C66.26,34.06 64.30,33.43 63.62,33.33 C63.22,34.61 63.32,36.01 64.17,37.92 C67.40,45.08 72.41,49.66 73.04,49.71 C73.47,48.25 64.57,37.52 63.50,37.12 C62.63,38.09 62.25,39.14 62.33,40.88 C62.53,44.20 64.62,48.77 66.67,51.08 C68.13,52.68 69.04,52.96 69.38,52.92 C69.54,52.26 67.82,49.31 65.42,46.67 C62.96,43.99 60.79,42.34 59.79,42.29 C59.20,42.84 59.46,46.62 60.62,48.96 C61.69,51.05 64.77,54.52 66.75,55.67 C66.75,55.67 58.29,47.00 58.29,47.00 C58.78,48.33 61.28,52.39 62.75,54.83 C63.49,55.97 64.78,56.97 64.75,57.00 C64.75,57.00 61.83,56.08 61.83,56.08 C61.83,56.08 64.71,58.71 64.71,58.71 C65.06,57.40 61.09,54.39 60.75,54.50 C61.28,56.06 62.07,57.16 62.83,57.21 C66.48,57.37 69.17,54.49 69.21,53.79 C68.56,53.60 62.52,52.20 59.96,50.33 C57.81,48.70 55.62,45.36 54.54,42.12 C51.99,34.29 51.35,33.58 51.00,33.50 C50.62,34.10 51.19,38.18 52.29,40.62 C53.28,42.77 55.17,44.85 56.00,45.25 C55.68,43.78 52.67,38.20 51.09,36.31 C48.78,33.59 46.93,32.50 46.33,32.54 C45.92,33.23 46.14,35.78 47.71,38.75 C49.74,42.49 52.56,43.34 53.38,43.46 C53.83,42.64 53.83,41.93 53.21,40.62 C51.90,37.93 49.43,34.89 47.62,33.79 C46.13,32.91 44.85,32.77 44.21,32.79 C43.62,33.99 43.53,35.21 44.17,36.58 C45.21,38.81 47.97,41.88 49.58,42.79 C51.08,43.62 52.33,43.48 52.62,43.29 C52.78,42.34 51.30,39.69 49.04,37.54 C47.90,36.48 44.93,34.68 43.21,34.54 C41.34,34.43 38.28,35.92 36.62,37.54 C35.21,38.95 34.23,40.93 34.33,41.83 C35.62,43.30 42.40,40.43 42.75,39.50 C42.45,39.07 40.57,38.27 39.04,38.25 C36.63,38.26 33.69,41.48 32.79,43.62 C33.59,44.99 41.70,44.07 50.50,42.58 C50.81,42.53 51.11,42.47 51.42,42.42 C51.42,42.42 36.17,38.33 36.17,38.33 C35.62,39.72 35.72,40.93 36.62,42.50 C37.46,43.93 39.57,46.04 40.54,46.46 C41.67,46.92 43.69,47.30 44.58,47.17 C45.42,47.01 46.38,46.14 46.67,45.29 C47.16,43.65 46.55,38.74 45.50,36.92 C44.49,35.25 43.00,35.05 42.12,35.17 C40.93,36.04 40.26,39.69 40.27,43.88 C40.30,47.88 40.53,50.85 41.00,51.21 C41.77,51.19 43.17,49.59 44.00,47.04 C45.02,43.83 45.48,35.75 45.50,34.96 C43.98,36.06 44.48,47.82 45.38,48.92 C46.14,49.75 48.39,49.65 49.21,48.62 C51.98,44.85 53.52,43.64 54.25,43.25 C54.26,43.93 53.97,44.56 51.67,45.96 C48.14,48.06 45.70,48.57 45.29,48.46 C45.46,47.01 47.55,43.75 48.50,43.75 C49.25,43.83 49.52,44.84 49.50,46.75 C49.50,46.60 48.45,46.00 48.04,46.00 C46.54,45.97 43.15,42.30 41.12,39.79 C39.75,38.03 39.31,38.07 38.96,38.08 C38.16,38.77 37.87,43.46 38.58,47.08 C40.02,54.10 42.81,56.32 43.92,56.92 C44.37,56.10 42.97,52.88 41.17,50.92 C39.47,49.10 34.79,45.38 33.33,44.83 C32.26,45.73 31.78,46.63 31.83,48.12 C31.96,51.14 33.55,55.69 34.60,57.59 C35.61,59.28 37.74,61.16 39.42,61.42 C40.44,60.26 40.86,59.13 40.58,57.58 C40.04,54.73 37.15,49.75 35.42,47.92 C33.77,46.20 32.59,45.29 31.71,45.00 C30.77,45.17 29.87,46.67 29.79,48.83 C29.68,53.62 30.81,58.89 31.79,60.58 C32.68,62.04 33.57,62.52 34.12,62.62 C35.19,62.08 36.61,58.67 37.54,55.42 C38.26,52.86 38.20,49.88 37.21,49.12 C35.96,48.27 32.47,48.57 30.83,50.33 C27.34,54.22 27.51,58.04 27.67,58.46 C28.70,59.00 31.64,58.66 34.83,56.88 C41.68,52.97 44.01,49.43 44.21,48.87 C43.19,48.04 39.12,48.95 36.96,50.29 C34.60,51.80 31.64,55.68 31.29,57.25 C30.99,58.69 31.01,60.12 31.25,60.42 C32.18,60.84 34.97,60.42 37.08,58.58 C40.36,55.64 40.92,52.64 40.92,52.04 C40.33,51.39 37.82,51.28 36.46,52.25 C34.84,53.48 32.26,58.90 31.88,62.04 C31.53,65.18 32.09,68.25 32.33,68.21 C33.49,68.25 35.41,66.72 38.38,63.24 C41.16,59.96 42.16,58.34 43.12,56.58 C42.48,56.06 41.76,55.91 40.96,56.29 C38.10,57.72 34.70,65.60 34.04,68.96 C35.32,69.13 41.79,63.26 43.21,59.79 C43.28,59.62 43.29,59.53 43.25,59.50 C39.19,64.76 39.04,69.24 39.12,70.21 C40.42,70.25 41.47,69.17 41.67,68.25 C41.77,67.67 41.60,66.50 41.29,65.83 C39.69,62.71 31.78,59.23 31.58,59.29 C31.22,59.83 31.36,64.53 31.79,65.96 C32.31,67.57 34.49,70.01 37.79,71.71 C42.55,74.07 46.07,72.93 46.54,72.71 C47.01,71.97 46.86,69.34 46.17,67.04 C44.76,62.51 43.15,62.28 42.75,62.33 C42.06,63.10 41.64,67.32 42.04,70.92 C42.54,75.03 44.19,75.41 44.75,75.38 C47.78,72.97 48.24,67.37 48.12,66.62 C48.12,66.62 47.08,66.67 47.08,66.67 C47.08,66.67 45.04,75.08 45.04,75.08 C45.04,75.08 45.83,75.96 45.83,75.96 C45.83,75.96 50.79,74.67 50.79,74.67 C50.79,73.57 48.55,71.16 45.88,69.29 C45.48,69.02 45.04,68.76 44.54,68.50 C44.39,68.88 46.98,73.15 48.33,74.46 C49.48,75.50 52.34,75.90 53.42,75.50 C53.42,75.50 53.50,74.25 53.50,74.25 C53.50,74.25 56.71,75.75 56.71,75.75 C56.71,75.75 52.75,73.38 52.75,73.38 C52.75,73.38 51.21,75.00 51.21,75.00 C51.21,75.00 43.25,65.50 43.25,65.50 C45.37,67.02 53.04,76.83 55.67,77.96 C55.78,78.01 55.98,78.02 56.25,78.00 C55.42,77.08 56.57,76.51 56.71,76.50 C56.74,76.50 56.84,76.50 57.00,76.50" fill="none" stroke="rgb(0, 0, 0)" stroke-width="2.00" stroke-opacity="1.00" stroke-linejoin="round"/>
<path d="M28.75,62.00 C28.75,62.00 28.25,62.00 28.25,62.00 C29.20,62.07 29.91,62.18 30.38,62.33 C30.86,62.49 33.60,63.86 33.88,63.96" fill="none" stroke="rgb(0, 0, 0)" stroke-width="2.00" stroke-opacity="1.00" stroke-linejoin="round"/>
<path d="M45.62,50.75 C45.70,50.69 45.74,50.63 45.75,50.58 C45.76,50.53 45.76,50.42 45.75,50.25 C45.64,50.68 45.57,50.93 45.54,51.00 C45.51,51.07 45.48,51.07 45.46,51.00" fill="none" stroke="rgb(0, 0, 0)" stroke-width="2.00" stroke-opacity="1.00" stroke-linejoin="round"/>
</g>
</svg>
