<?xml version="1.0" encoding="UTF-8" standalone="no"?>
<!DOCTYPE svg PUBLIC "-//W3C//DTD SVG 1.1//EN" "http://www.w3.org/Graphics/SVG/1.1/DTD/svg11.dtd">
<svg width="105.00" height="100.00" viewBox="0.00 0.00 105.00 100.00" xmlns="http://www.w3.org/2000/svg" xmlns:xlink="http://www.w3.org/1999/xlink">
<g stroke-linecap="round" id="圖層_8">
<path d="M23.28,9.57 C23.28,9.57 22.75,9.44 22.75,9.44 C22.93,9.19 28.33,8.38 31.91,7.98 C37.04,7.42 58.94,7.44 73.00,7.66 C73.58,7.66 82.95,8.79 82.98,8.77 C82.98,8.77 82.99,8.98 82.99,8.98" fill="none" stroke="rgb(0, 0, 0)" stroke-width="3.00" stroke-opacity="1.00" stroke-linejoin="round"/>
<path d="M21.68,92.31 C21.68,92.31 22.66,92.81 22.66,92.81 C21.51,91.49 20.37,87.31 19.93,84.27 C19.39,80.43 19.44,73.65 19.71,71.73 C20.34,67.60 22.92,62.30 24.93,61.05 C25.75,60.55 33.34,57.16 33.39,57.14 C35.25,56.58 42.11,55.43 43.46,55.11 C43.53,55.09 43.58,55.08 43.61,55.09" fill="none" stroke="rgb(0, 0, 0)" stroke-width="3.00" stroke-opacity="1.00" stroke-linejoin="round"/>
<path d="M43.90,48.93 C43.90,48.93 43.63,48.93 43.63,48.93 C44.38,49.63 46.46,51.82 46.28,53.01 C46.11,53.98 44.33,54.62 43.87,54.76 C43.78,54.78 43.71,54.80 43.65,54.82" fill="none" stroke="rgb(0, 0, 0)" stroke-width="3.00" stroke-opacity="1.00" stroke-linejoin="round"/>
<path d="M61.31,49.20 C61.31,49.20 61.04,49.47 61.04,49.47 C60.06,49.57 58.95,52.85 59.53,53.47 C59.80,53.75 60.20,54.00 60.72,54.22 C60.97,54.32 61.50,54.49 62.32,54.73" fill="none" stroke="rgb(0, 0, 0)" stroke-width="3.00" stroke-opacity="1.00" stroke-linejoin="round"/>
<path d="M22.21,92.04 C22.21,92.04 21.95,92.31 21.95,92.31 C21.92,92.30 28.18,94.23 32.35,94.88 C44.01,96.51 51.21,96.86 61.19,96.32 C67.92,95.95 77.21,95.47 81.45,94.93" fill="none" stroke="rgb(0, 0, 0)" stroke-width="3.00" stroke-opacity="1.00" stroke-linejoin="round"/>
<path d="M22.21,14.66 C22.21,14.66 22.21,14.92 22.21,14.92 C28.28,14.93 39.48,14.22 46.71,13.56 C53.99,12.94 73.86,13.58 82.56,14.54 C83.56,14.64 84.56,14.75 85.57,14.85" fill="none" stroke="rgb(0, 0, 0)" stroke-width="2.00" stroke-opacity="1.00" stroke-linejoin="round"/>
<path d="M22.21,86.15 C22.21,86.15 21.07,85.77 21.07,85.77 C24.91,87.45 34.49,88.88 46.17,89.54 C48.85,89.67 83.88,89.93 83.99,89.92 C84.30,89.91 84.93,89.85 85.86,89.74" fill="none" stroke="rgb(0, 0, 0)" stroke-width="2.00" stroke-opacity="1.00" stroke-linejoin="round"/>
<path d="M25.16,10.11 C25.06,10.17 24.92,10.46 24.89,10.77 C24.86,11.16 25.20,12.42 25.53,13.14 C25.62,13.34 25.76,13.56 25.95,13.81" fill="none" stroke="rgb(0, 0, 0)" stroke-width="2.00" stroke-opacity="1.00" stroke-linejoin="round"/>
<path d="M28.37,8.50 C28.30,8.51 28.94,11.31 29.11,11.87 C29.19,12.12 29.37,12.65 29.65,13.45" fill="none" stroke="rgb(0, 0, 0)" stroke-width="2.00" stroke-opacity="1.00" stroke-linejoin="round"/>
<path d="M33.19,8.23 C33.19,8.23 32.66,7.96 32.66,7.96 C32.83,9.70 32.94,10.49 33.12,11.18 C33.22,11.57 33.32,11.97 33.42,12.36" fill="none" stroke="rgb(0, 0, 0)" stroke-width="2.00" stroke-opacity="1.00" stroke-linejoin="round"/>
<path d="M37.21,8.23 C37.21,8.23 36.94,7.96 36.94,7.96 C36.93,9.06 36.95,9.79 36.98,10.16 C37.01,10.47 37.13,11.03 37.33,11.83 C37.38,12.03 37.42,12.23 37.45,12.41" fill="none" stroke="rgb(0, 0, 0)" stroke-width="2.00" stroke-opacity="1.00" stroke-linejoin="round"/>
<path d="M39.62,8.23 C39.62,8.23 39.88,8.36 39.88,8.36 C40.08,9.27 40.30,10.81 40.45,11.87 C40.50,12.20 40.58,12.65 40.68,13.24" fill="none" stroke="rgb(0, 0, 0)" stroke-width="2.00" stroke-opacity="1.00" stroke-linejoin="round"/>
<path d="M43.90,8.23 C43.90,8.23 43.63,8.23 43.63,8.23 C43.63,9.64 43.65,11.52 43.70,12.03 C43.72,12.23 43.77,12.44 43.86,12.66" fill="none" stroke="rgb(0, 0, 0)" stroke-width="2.00" stroke-opacity="1.00" stroke-linejoin="round"/>
<path d="M46.85,8.23 C46.81,8.51 46.96,10.18 47.16,11.25 C47.26,11.77 47.42,12.36 47.62,13.02 C47.68,13.20 47.78,13.47 47.91,13.81" fill="none" stroke="rgb(0, 0, 0)" stroke-width="2.00" stroke-opacity="1.00" stroke-linejoin="round"/>
<path d="M50.06,9.03 C50.06,9.03 49.79,8.77 49.79,8.77 C50.19,10.62 50.45,11.78 50.57,12.24 C50.70,12.70 50.86,13.11 51.07,13.46" fill="none" stroke="rgb(0, 0, 0)" stroke-width="2.00" stroke-opacity="1.00" stroke-linejoin="round"/>
<path d="M54.34,8.50 C54.34,8.50 54.08,8.50 54.08,8.50 C54.08,8.50 53.81,8.77 53.81,8.77 C53.83,9.63 54.12,10.98 54.61,12.43 C54.69,12.68 54.77,12.87 54.84,12.99" fill="none" stroke="rgb(0, 0, 0)" stroke-width="2.00" stroke-opacity="1.00" stroke-linejoin="round"/>
<path d="M57.56,8.23 C57.60,9.14 57.82,10.18 58.29,11.49 C58.39,11.76 58.58,12.26 58.87,12.99" fill="none" stroke="rgb(0, 0, 0)" stroke-width="2.00" stroke-opacity="1.00" stroke-linejoin="round"/>
<path d="M61.31,8.77 C61.31,8.77 61.04,8.77 61.04,8.77 C61.17,9.98 61.27,10.76 61.35,11.12 C61.42,11.48 61.56,11.91 61.78,12.42" fill="none" stroke="rgb(0, 0, 0)" stroke-width="2.00" stroke-opacity="1.00" stroke-linejoin="round"/>
<path d="M65.32,8.50 C65.32,8.50 65.08,8.84 65.08,8.84 C65.11,10.24 65.19,10.94 65.37,11.30 C65.43,11.42 65.49,11.54 65.56,11.66" fill="none" stroke="rgb(0, 0, 0)" stroke-width="2.00" stroke-opacity="1.00" stroke-linejoin="round"/>
<path d="M68.53,8.23 C68.64,8.30 68.72,8.48 68.80,9.03 C68.97,10.15 69.07,11.28 69.13,11.45 C69.14,11.47 69.18,11.54 69.26,11.63" fill="none" stroke="rgb(0, 0, 0)" stroke-width="2.00" stroke-opacity="1.00" stroke-linejoin="round"/>
<path d="M73.35,8.77 C73.35,8.77 73.35,8.56 73.35,8.56 C73.35,9.28 73.35,10.90 73.35,11.81 C73.35,12.01 73.35,12.20 73.35,12.40" fill="none" stroke="rgb(0, 0, 0)" stroke-width="2.00" stroke-opacity="1.00" stroke-linejoin="round"/>
<path d="M76.30,9.03 C76.30,9.03 76.30,8.77 76.30,8.77 C76.59,9.15 76.76,9.46 76.82,9.70 C76.94,10.25 76.85,10.83 76.89,11.40 C76.90,11.62 76.96,11.86 77.06,12.11" fill="none" stroke="rgb(0, 0, 0)" stroke-width="2.00" stroke-opacity="1.00" stroke-linejoin="round"/>
<path d="M80.58,9.84 C80.58,9.84 80.58,9.57 80.58,9.57 C80.58,10.02 80.58,11.34 80.58,12.21 C80.58,12.38 80.58,12.55 80.58,12.72" fill="none" stroke="rgb(0, 0, 0)" stroke-width="2.00" stroke-opacity="1.00" stroke-linejoin="round"/>
<path d="M25.16,87.49 C25.16,87.49 24.89,87.55 24.89,87.55 C24.90,88.35 24.87,90.36 24.89,90.66 C24.91,90.96 24.99,91.45 25.11,92.14" fill="none" stroke="rgb(0, 0, 0)" stroke-width="2.00" stroke-opacity="1.00" stroke-linejoin="round"/>
<path d="M28.64,88.56 C28.64,88.56 28.64,88.29 28.64,88.29 C28.92,89.77 29.11,91.08 29.21,91.88 C29.24,92.08 29.31,92.38 29.40,92.76" fill="none" stroke="rgb(0, 0, 0)" stroke-width="2.00" stroke-opacity="1.00" stroke-linejoin="round"/>
<path d="M32.39,88.02 C32.38,87.98 32.38,88.11 32.39,88.16 C32.63,90.62 32.94,92.69 33.20,93.46 C33.25,93.62 33.32,93.76 33.41,93.90" fill="none" stroke="rgb(0, 0, 0)" stroke-width="2.00" stroke-opacity="1.00" stroke-linejoin="round"/>
<path d="M35.60,89.36 C35.57,89.76 35.71,91.43 35.92,92.38 C35.98,92.66 36.12,93.08 36.33,93.65 C36.37,93.76 36.40,93.84 36.40,93.88" fill="none" stroke="rgb(0, 0, 0)" stroke-width="2.00" stroke-opacity="1.00" stroke-linejoin="round"/>
<path d="M40.15,89.63 C40.15,89.83 40.15,90.04 40.15,90.24 C40.16,91.33 40.27,92.25 40.50,93.06 C40.54,93.20 40.60,93.38 40.68,93.59" fill="none" stroke="rgb(0, 0, 0)" stroke-width="2.00" stroke-opacity="1.00" stroke-linejoin="round"/>
<path d="M43.63,89.36 C43.37,89.86 43.36,90.39 43.66,91.75 C43.77,92.29 43.86,92.83 43.99,93.37 C44.03,93.55 44.09,93.72 44.16,93.90" fill="none" stroke="rgb(0, 0, 0)" stroke-width="2.00" stroke-opacity="1.00" stroke-linejoin="round"/>
<path d="M47.11,89.90 C47.02,89.96 46.88,90.23 46.85,90.57 C46.74,91.71 47.32,93.32 47.58,93.97 C47.63,94.12 47.65,94.27 47.65,94.42" fill="none" stroke="rgb(0, 0, 0)" stroke-width="2.00" stroke-opacity="1.00" stroke-linejoin="round"/>
<path d="M50.06,90.16 C50.06,90.16 50.06,89.90 50.06,89.90 C50.03,90.40 50.16,92.09 50.39,92.98 C50.49,93.37 50.75,94.10 51.17,95.17 C51.28,95.43 51.34,95.61 51.38,95.70" fill="none" stroke="rgb(0, 0, 0)" stroke-width="2.00" stroke-opacity="1.00" stroke-linejoin="round"/>
<path d="M54.08,90.70 C54.11,91.28 54.48,93.09 54.81,94.15 C54.89,94.41 54.98,94.58 55.07,94.64" fill="none" stroke="rgb(0, 0, 0)" stroke-width="2.00" stroke-opacity="1.00" stroke-linejoin="round"/>
<path d="M56.75,90.43 C57.05,91.43 57.35,92.43 57.65,93.42 C57.77,93.84 57.91,94.25 58.05,94.67" fill="none" stroke="rgb(0, 0, 0)" stroke-width="2.00" stroke-opacity="1.00" stroke-linejoin="round"/>
<path d="M60.50,90.16 C60.50,90.16 60.23,90.16 60.23,90.16 C60.31,90.89 60.80,92.40 60.98,92.97 C61.07,93.23 61.17,93.61 61.29,94.10" fill="none" stroke="rgb(0, 0, 0)" stroke-width="2.00" stroke-opacity="1.00" stroke-linejoin="round"/>
<path d="M63.72,89.63 C63.68,89.94 63.79,90.92 64.03,92.27 C64.15,92.91 64.63,93.68 65.04,94.08 C65.13,94.17 65.21,94.19 65.28,94.17" fill="none" stroke="rgb(0, 0, 0)" stroke-width="2.00" stroke-opacity="1.00" stroke-linejoin="round"/>
<path d="M68.00,89.63 C67.95,90.73 68.20,91.94 68.79,93.37 C68.88,93.58 68.96,93.75 69.03,93.87" fill="none" stroke="rgb(0, 0, 0)" stroke-width="2.00" stroke-opacity="1.00" stroke-linejoin="round"/>
<path d="M71.75,89.36 C71.74,90.58 72.11,91.86 72.40,92.43 C72.48,92.58 72.60,92.72 72.76,92.84" fill="none" stroke="rgb(0, 0, 0)" stroke-width="2.00" stroke-opacity="1.00" stroke-linejoin="round"/>
<path d="M75.50,90.16 C75.63,91.59 75.83,93.49 76.05,93.95 C76.10,94.04 76.17,94.12 76.26,94.17" fill="none" stroke="rgb(0, 0, 0)" stroke-width="2.00" stroke-opacity="1.00" stroke-linejoin="round"/>
<path d="M77.91,89.63 C77.89,89.59 78.18,90.88 78.28,91.45 C78.35,91.81 78.75,93.83 78.89,94.16 C78.92,94.26 78.95,94.43 78.98,94.68" fill="none" stroke="rgb(0, 0, 0)" stroke-width="2.00" stroke-opacity="1.00" stroke-linejoin="round"/>
<path d="M81.12,89.90 C81.17,90.42 81.52,91.39 81.79,92.08 C81.88,92.36 82.00,92.87 82.16,93.61" fill="none" stroke="rgb(0, 0, 0)" stroke-width="2.00" stroke-opacity="1.00" stroke-linejoin="round"/>
<path d="M52.25,66.75 C52.25,66.75 52.25,66.30 52.25,66.30 C52.25,66.30 52.51,70.46 52.51,70.46 C52.51,70.46 52.94,64.90 52.94,64.90 C52.94,64.90 52.81,64.91 52.81,64.91 C52.81,64.91 52.76,65.36 52.76,65.36" fill="none" stroke="rgb(0, 0, 0)" stroke-width="2.00" stroke-opacity="1.00" stroke-linejoin="round"/>
<path d="M51.50,73.25 C55.04,75.05 56.63,76.13 57.05,76.31 C58.49,76.95 62.66,79.95 65.99,81.09 C65.99,81.09 75.95,85.82 75.95,85.82" fill="none" stroke="rgb(0, 0, 0)" stroke-width="2.00" stroke-opacity="1.00" stroke-linejoin="round"/>
<path d="M74.03,84.65 C74.03,84.65 76.08,85.90 76.08,85.90 C75.93,86.16 54.13,86.89 53.80,86.88 C37.95,86.14 28.98,84.56 28.65,84.48 C28.35,84.41 27.89,84.28 27.25,84.08" fill="none" stroke="rgb(0, 0, 0)" stroke-width="2.00" stroke-opacity="1.00" stroke-linejoin="round"/>
<path d="M52.50,74.25 C52.50,74.25 51.79,73.12 51.79,73.12 C51.79,73.12 51.50,73.00 51.50,73.00 C51.12,73.74 47.51,75.11 46.62,75.53 C43.86,76.93 39.15,78.86 35.01,80.76 C35.01,80.76 27.97,84.19 27.97,84.19" fill="none" stroke="rgb(0, 0, 0)" stroke-width="2.00" stroke-opacity="1.00" stroke-linejoin="round"/>
<path d="M76.75,85.75 C76.54,85.75 76.33,85.75 76.12,85.75 C76.08,85.75 76.04,85.75 76.00,85.75" fill="none" stroke="rgb(0, 0, 0)" stroke-width="2.00" stroke-opacity="1.00" stroke-linejoin="round"/>
<path d="M31.00,83.75 C31.00,83.75 30.50,83.75 30.50,83.75 C30.50,83.75 45.46,82.00 45.46,82.00 C45.46,82.00 35.19,81.52 35.19,81.52 C35.19,81.52 48.96,84.96 48.96,84.96 C48.45,83.65 47.49,82.80 45.35,81.96 C42.12,80.69 40.61,80.51 40.15,80.58 C40.87,81.93 51.85,85.20 52.31,83.92 C52.31,83.92 44.81,78.77 44.81,78.77 C47.81,80.83 51.08,82.90 52.40,83.50 C54.58,84.47 57.83,84.63 58.60,84.17 C59.21,83.77 59.05,82.93 58.84,82.42" fill="none" stroke="rgb(0, 0, 0)" stroke-width="2.00" stroke-opacity="1.00" stroke-linejoin="round"/>
<path d="M42.25,78.50 C42.25,78.50 41.25,78.75 41.25,78.75 C42.99,78.03 49.33,77.09 52.08,76.67 C52.74,76.59 53.64,77.40 54.08,79.71 C54.61,82.44 55.44,83.42 55.65,83.42 C55.97,82.60 54.60,80.62 53.25,79.67 C50.14,77.50 48.31,77.27 48.10,77.38 C51.12,81.09 57.16,83.91 58.02,83.48 C58.02,83.48 50.94,75.73 50.94,75.73 C53.97,78.69 56.63,81.14 57.52,81.77 C57.94,82.07 58.55,82.38 59.34,82.71" fill="none" stroke="rgb(0, 0, 0)" stroke-width="2.00" stroke-opacity="1.00" stroke-linejoin="round"/>
<path d="M54.00,78.25 C54.00,78.25 53.75,77.75 53.75,77.75 C54.19,77.69 56.31,78.44 58.28,79.68 C59.58,80.50 63.31,82.55 64.18,83.14 C62.71,82.75 55.95,78.22 55.00,77.46 C54.85,77.33 54.72,77.19 54.62,77.02 C54.62,77.02 64.10,83.67 64.10,83.67 C63.64,84.46 60.55,84.85 57.56,84.94 C55.36,85.00 52.73,85.03 52.77,85.04 C55.50,86.44 62.37,85.66 63.40,85.44 C63.76,85.36 64.60,85.16 65.94,84.83" fill="none" stroke="rgb(0, 0, 0)" stroke-width="2.00" stroke-opacity="1.00" stroke-linejoin="round"/>
<path d="M21.68,92.31 C21.68,92.31 22.66,92.81 22.66,92.81 C21.51,91.49 20.37,87.31 19.93,84.27 C19.39,80.43 19.44,73.65 19.71,71.73 C20.34,67.60 22.92,62.30 24.93,61.05 C25.75,60.55 33.34,57.16 33.39,57.14 C35.25,56.58 42.11,55.43 43.46,55.11 C43.53,55.09 43.58,55.08 43.61,55.09" fill="none" stroke="rgb(0, 0, 0)" stroke-width="3.00" stroke-opacity="1.00" stroke-linejoin="round"/>
<path d="M85.32,92.81 C85.32,92.81 84.59,94.81 84.59,94.81 C86.44,90.97 86.81,88.61 87.30,83.47 C87.58,80.13 87.57,73.71 87.29,71.73 C86.66,67.61 84.09,62.31 82.07,61.05 C81.25,60.55 73.66,57.16 73.61,57.14 C71.75,56.58 64.89,55.43 63.54,55.11 C63.47,55.09 63.42,55.08 63.39,55.09" fill="none" stroke="rgb(0, 0, 0)" stroke-width="3.00" stroke-opacity="1.00" stroke-linejoin="round"/>
<path d="M21.68,92.31 C21.68,92.31 22.66,92.81 22.66,92.81 C21.51,91.49 20.37,87.31 19.93,84.27 C19.39,80.43 19.44,73.65 19.71,71.73 C20.34,67.60 22.92,62.30 24.93,61.05 C25.75,60.55 33.34,57.16 33.39,57.14 C35.25,56.58 42.11,55.43 43.46,55.11 C43.53,55.09 43.58,55.08 43.61,55.09" fill="none" stroke="rgb(0, 0, 0)" stroke-width="3.00" stroke-opacity="1.00" stroke-linejoin="round"/>
<path d="M22.18,11.44 C22.18,11.44 22.91,9.44 22.91,9.44 C21.40,13.02 20.38,16.59 19.93,19.71 C19.39,23.57 19.44,30.35 19.71,32.27 C20.34,36.40 22.92,41.70 24.93,42.95 C25.75,43.45 33.34,46.84 33.39,46.86 C35.25,47.42 42.11,48.57 43.46,48.89 C43.53,48.91 43.58,48.92 43.61,48.91" fill="none" stroke="rgb(0, 0, 0)" stroke-width="3.00" stroke-opacity="1.00" stroke-linejoin="round"/>
<path d="M85.07,11.19 C85.07,11.19 84.09,8.69 84.09,8.69 C85.77,12.67 86.24,14.43 87.02,19.65 C87.62,23.89 87.57,30.32 87.29,32.27 C86.66,36.41 84.08,41.70 82.07,42.95 C81.25,43.45 73.66,46.84 73.61,46.86 C71.75,47.42 64.89,48.57 63.54,48.89 C63.47,48.91 63.42,48.92 63.39,48.91" fill="none" stroke="rgb(0, 0, 0)" stroke-width="3.00" stroke-opacity="1.00" stroke-linejoin="round"/>
<path d="M26.83,31.31 C26.83,31.31 26.54,31.31 26.54,31.31 C41.59,31.47 71.62,32.08 78.13,32.66 C78.43,32.69 78.58,32.69 78.60,32.67" fill="none" stroke="rgb(0, 0, 0)" stroke-width="2.00" stroke-opacity="1.00" stroke-linejoin="round"/>
<path d="M27.43,33.07 C27.43,33.07 27.13,32.32 27.13,32.32 C27.99,35.35 28.67,37.11 29.50,38.17 C30.69,39.66 35.09,42.00 38.50,42.47 C44.10,43.23 50.89,44.11 51.16,44.18 C51.32,44.23 51.56,44.34 51.86,44.52" fill="none" stroke="rgb(0, 0, 0)" stroke-width="2.00" stroke-opacity="1.00" stroke-linejoin="round"/>
<path d="M79.28,33.43 C79.28,33.43 78.98,33.17 78.98,33.17 C78.98,33.27 78.98,34.72 78.98,35.79 C78.96,36.85 77.19,38.48 73.92,39.72 C68.91,41.57 63.98,42.38 62.86,42.56 C61.88,42.71 53.24,43.97 53.10,44.03 C53.00,44.08 52.79,44.24 52.45,44.51" fill="none" stroke="rgb(0, 0, 0)" stroke-width="2.00" stroke-opacity="1.00" stroke-linejoin="round"/>
<path d="M49.06,45.32 C49.06,45.32 49.06,45.07 49.06,45.07 C49.92,45.55 50.99,47.28 51.41,50.94 C51.46,51.36 51.46,51.79 51.43,52.22 C51.43,52.22 51.43,52.14 51.43,52.14" fill="none" stroke="rgb(0, 0, 0)" stroke-width="2.00" stroke-opacity="1.00" stroke-linejoin="round"/>
<path d="M57.65,44.17 C57.65,44.17 57.65,43.92 57.65,43.92 C57.11,44.36 55.96,45.53 55.38,46.39 C53.96,48.49 53.79,52.68 53.80,54.23 C53.80,54.49 53.80,54.83 53.80,55.25" fill="none" stroke="rgb(0, 0, 0)" stroke-width="2.00" stroke-opacity="1.00" stroke-linejoin="round"/>
<path d="M53.20,46.62 C53.20,46.62 52.91,46.37 52.91,46.37 C52.59,46.91 52.62,50.12 52.33,53.75 C52.30,54.08 52.30,54.54 52.31,55.15 C52.32,55.26 52.32,55.31 52.31,55.33" fill="none" stroke="rgb(0, 0, 0)" stroke-width="2.00" stroke-opacity="1.00" stroke-linejoin="round"/>
<path d="M52.61,56.11 C52.61,56.11 52.61,55.86 52.61,55.86 C52.61,55.86 52.34,59.54 52.34,59.54 C52.64,59.50 52.84,59.38 52.92,59.19 C53.00,59.00 53.10,58.45 53.20,57.55" fill="none" stroke="rgb(0, 0, 0)" stroke-width="2.00" stroke-opacity="1.00" stroke-linejoin="round"/>
<path d="M30.09,32.35 C30.09,32.35 29.50,32.34 29.50,32.34 C29.54,33.15 31.79,37.22 32.94,37.76 C33.43,37.96 34.70,37.13 35.13,36.02 C36.26,32.93 34.48,31.88 33.99,31.71 C33.11,31.82 32.19,33.39 32.29,34.81 C32.43,36.30 34.16,38.81 35.43,39.33 C36.60,39.78 38.74,39.38 39.08,38.62 C39.38,37.85 38.75,35.83 37.90,35.17 C37.04,34.54 35.15,34.15 34.29,34.63 C33.73,35.58 34.61,37.94 35.99,39.02 C37.15,39.89 39.89,40.29 41.06,40.00 C42.20,39.68 42.97,38.42 43.03,37.92 C43.05,37.74 43.00,37.48 42.87,37.13" fill="none" stroke="rgb(0, 0, 0)" stroke-width="2.00" stroke-opacity="1.00" stroke-linejoin="round"/>
<path d="M32.76,37.88 C32.76,37.88 31.87,37.87 31.87,37.87 C31.87,37.87 46.81,33.61 46.81,33.61 C46.68,34.44 45.75,35.28 44.07,35.79 C42.64,36.21 40.32,36.44 38.53,36.45 C38.53,36.45 55.03,37.43 55.03,37.43 C54.89,38.04 52.14,39.32 49.33,39.83 C47.40,40.17 43.48,40.26 43.52,40.26 C43.52,40.26 54.83,38.89 54.83,38.89 C54.83,38.89 54.53,38.47 54.53,38.47" fill="none" stroke="rgb(0, 0, 0)" stroke-width="2.00" stroke-opacity="1.00" stroke-linejoin="round"/>
<path d="M38.98,33.45 C38.98,33.45 36.31,32.17 36.31,32.17 C36.31,32.17 54.88,38.83 54.88,38.83 C54.88,38.83 43.10,32.11 43.10,32.11 C43.10,32.11 63.97,38.25 63.97,38.25 C63.97,38.25 50.76,33.24 50.76,33.24 C53.75,31.06 71.81,35.80 72.88,36.29 C68.94,36.75 61.77,34.78 60.22,33.97 C63.52,33.21 75.15,35.18 77.03,36.46 C77.03,36.46 67.84,36.54 67.84,36.54 C67.84,36.54 75.40,35.38 75.40,35.38 C75.59,35.25 75.71,35.14 75.77,35.07 C75.83,35.00 75.91,34.87 76.00,34.68" fill="none" stroke="rgb(0, 0, 0)" stroke-width="2.00" stroke-opacity="1.00" stroke-linejoin="round"/>
<path d="M74.83,33.88 C74.73,34.42 69.81,36.63 67.91,37.04 C64.81,37.66 53.14,40.00 51.48,40.39 C51.12,40.48 50.85,40.53 50.66,40.57" fill="none" stroke="rgb(0, 0, 0)" stroke-width="2.00" stroke-opacity="1.00" stroke-linejoin="round"/>
<path d="M60.91,36.71 C60.91,36.71 61.35,36.84 61.35,36.84 C61.46,37.72 60.81,38.53 59.22,39.04 C58.61,39.24 53.16,40.45 52.03,40.79 C56.62,41.15 67.67,39.24 72.91,37.10 C72.91,37.10 71.20,37.72 71.20,37.72" fill="none" stroke="rgb(0, 0, 0)" stroke-width="2.00" stroke-opacity="1.00" stroke-linejoin="round"/>
<path d="M61.50,41.22 C61.50,41.22 60.61,41.46 60.61,41.46 C63.30,41.30 64.78,41.10 66.46,40.59 C71.22,39.21 72.72,38.96 75.75,38.64 C75.75,38.64 75.77,38.64 75.76,38.64" fill="none" stroke="rgb(0, 0, 0)" stroke-width="2.00" stroke-opacity="1.00" stroke-linejoin="round"/>
<path d="M41.06,39.73 C41.06,39.73 40.46,39.72 40.46,39.72 C42.48,40.59 45.81,41.64 48.62,42.04 C50.73,42.34 54.71,42.39 55.13,42.39 C55.13,42.39 54.80,42.39 54.80,42.39" fill="none" stroke="rgb(0, 0, 0)" stroke-width="2.00" stroke-opacity="1.00" stroke-linejoin="round"/>
<path d="M37.20,40.43 C37.20,40.43 37.03,40.43 37.03,40.43 C38.64,40.47 39.95,40.58 41.13,40.84 C43.42,41.38 50.21,42.90 50.93,43.21 C51.11,43.30 51.51,43.48 52.13,43.78" fill="none" stroke="rgb(0, 0, 0)" stroke-width="2.00" stroke-opacity="1.00" stroke-linejoin="round"/>
<path d="M47.28,38.05 C47.28,38.05 46.98,38.05 46.98,38.05 C47.47,38.02 47.95,38.05 48.43,38.12 C48.92,38.20 50.07,38.43 51.90,38.82" fill="none" stroke="rgb(0, 0, 0)" stroke-width="2.00" stroke-opacity="1.00" stroke-linejoin="round"/>
<path d="M76.31,34.64" fill="none" stroke="rgb(0, 0, 0)" stroke-width="2.00" stroke-opacity="1.00" stroke-linejoin="round"/>
</g>
</svg>
