<?xml version="1.0" encoding="UTF-8" standalone="no"?>
<!DOCTYPE svg PUBLIC "-//W3C//DTD SVG 1.1//EN" "http://www.w3.org/Graphics/SVG/1.1/DTD/svg11.dtd">
<svg width="105.00" height="100.00" viewBox="0.00 0.00 105.00 100.00" xmlns="http://www.w3.org/2000/svg" xmlns:xlink="http://www.w3.org/1999/xlink">
<g stroke-linecap="round" id="圖層_10">
<path d="M47.75,41.00 C47.75,41.00 47.50,41.00 47.50,41.00 C47.50,41.00 48.38,42.38 48.38,42.38 C47.94,42.13 45.92,40.79 41.16,45.23 C41.16,45.23 45.69,41.29 45.69,41.29 C45.69,41.29 37.87,49.44 37.87,49.44 C37.87,49.44 46.66,42.05 46.66,42.05 C46.66,42.05 40.77,47.72 40.77,47.72 C40.77,47.72 43.49,44.50 43.49,44.50 C43.49,44.50 39.66,47.23 39.66,47.23 C39.66,47.23 41.36,43.88 41.36,43.88 C41.36,43.88 38.51,46.35 38.51,46.35 C38.51,46.35 39.66,44.65 39.66,44.65 C37.55,45.76 31.55,53.51 30.91,56.09 C30.88,56.22 30.87,56.28 30.90,56.29 C30.90,56.29 35.98,47.10 35.98,47.10 C32.99,47.16 29.18,60.03 29.14,61.05 C29.14,61.05 35.96,47.97 35.96,47.97 C35.96,47.97 33.06,53.61 33.06,53.61 C33.06,53.61 38.30,48.34 38.30,48.34 C36.85,50.00 31.47,55.76 30.59,57.04 C28.52,60.12 28.10,64.30 28.18,65.36 C28.18,65.36 30.94,55.91 30.94,55.91 C29.62,57.46 27.83,66.08 28.42,70.09 C28.83,72.85 29.21,74.66 29.25,74.68 C29.25,74.68 28.47,64.72 28.47,64.72 C28.06,65.31 27.82,69.40 27.99,71.28 C28.40,75.43 31.73,81.72 32.74,83.56 C32.26,80.07 28.04,72.28 27.62,72.50 C27.62,72.50 32.88,80.24 32.88,80.24 C32.88,80.24 31.51,77.76 31.51,77.76 C31.51,77.76 35.87,83.50 35.87,83.50 C35.87,83.50 34.75,83.88 34.75,83.88 C34.75,83.88 34.95,83.88 34.95,83.88" fill="none" stroke="rgb(0, 0, 0)" stroke-width="2.00" stroke-opacity="0.50" stroke-linejoin="round"/>
<path d="M41.88,88.62 C41.88,88.62 41.88,88.50 41.88,88.50 C41.87,88.63 41.18,90.31 41.29,90.47 C42.33,91.85 45.20,92.82 47.34,93.38 C47.34,93.38 42.56,90.03 42.56,90.03 C42.56,89.99 46.05,91.61 47.48,92.08 C48.72,92.49 51.95,92.87 51.94,92.88 C51.94,92.88 45.72,90.91 45.72,90.91 C45.72,90.91 56.38,93.00 56.38,93.00 C56.38,93.00 47.12,91.00 47.12,91.00 C47.12,91.00 52.95,93.61 52.95,93.61 C52.95,93.61 47.27,92.78 47.27,92.78 C47.27,92.78 58.71,94.00 58.71,94.00 C58.71,94.00 50.10,93.15 50.10,93.15 C50.10,93.15 60.11,92.27 60.11,92.27 C60.11,92.27 58.69,93.11 58.69,93.11 C58.69,93.11 61.88,92.75 61.88,92.75 C61.88,92.75 60.77,91.52 60.77,91.52 C60.77,91.52 62.30,92.64 62.30,92.64 C62.30,92.64 62.02,90.88 62.02,90.88 C62.02,90.88 63.34,92.44 63.34,92.44 C63.34,92.44 63.43,89.70 63.43,89.70 C63.43,89.70 65.03,91.97 65.03,91.97 C65.03,91.97 64.63,89.55 64.63,89.55 C64.63,89.55 66.25,91.38 66.25,91.38 C66.25,91.38 66.01,88.95 66.01,88.95 C66.01,88.95 67.86,90.85 67.86,90.85 C67.86,90.85 67.15,88.16 67.15,88.16 C67.15,88.16 68.88,90.12 68.88,90.12 C68.88,90.12 68.52,88.59 68.52,88.59 C68.52,88.59 69.72,90.05 69.72,90.05 C69.72,90.05 68.80,88.50 68.80,88.50 C68.80,88.50 69.88,89.61 69.88,89.61 C69.88,89.61 69.88,89.53 69.88,89.53" fill="none" stroke="rgb(0, 0, 0)" stroke-width="2.00" stroke-opacity="0.50" stroke-linejoin="round"/>
<path d="M36.71,4.60 C36.71,4.60 36.40,4.59 36.40,4.59 C36.84,4.50 37.28,4.45 37.74,4.44 C58.44,4.27 72.74,5.01 74.25,5.14 C74.25,5.14 74.12,5.27 74.12,5.27" fill="none" stroke="rgb(0, 0, 0)" stroke-width="3.00" stroke-opacity="1.00" stroke-linejoin="round"/>
<path d="M36.01,5.00 C35.97,5.34 35.79,7.20 35.65,8.71 C35.29,12.83 35.21,18.42 35.20,19.88" fill="none" stroke="rgb(0, 0, 0)" stroke-width="3.00" stroke-opacity="1.00" stroke-linejoin="round"/>
<path d="M73.78,5.63 C73.78,5.63 73.84,5.47 73.84,5.47 C73.84,5.47 74.01,5.47 74.01,5.47 C74.01,5.47 74.95,18.33 74.95,18.33" fill="none" stroke="rgb(0, 0, 0)" stroke-width="3.00" stroke-opacity="1.00" stroke-linejoin="round"/>
<path d="M35.24,14.69 C35.24,14.69 35.53,28.67 35.53,28.67 C35.53,28.67 35.75,28.83 35.75,28.83" fill="none" stroke="rgb(0, 0, 0)" stroke-width="3.00" stroke-opacity="1.00" stroke-linejoin="round"/>
<path d="M75.07,13.15 C75.06,16.26 74.61,27.06 74.56,28.24 C74.55,28.53 74.54,28.82 74.53,29.11" fill="none" stroke="rgb(0, 0, 0)" stroke-width="3.00" stroke-opacity="1.00" stroke-linejoin="round"/>
<path d="M36.12,28.62 C36.12,28.62 36.03,28.46 36.03,28.46 C39.75,30.10 48.61,33.81 50.91,34.69 C50.97,34.71 51.13,34.77 51.08,34.75" fill="none" stroke="rgb(0, 0, 0)" stroke-width="3.00" stroke-opacity="1.00" stroke-linejoin="round"/>
<path d="M74.22,29.34 C74.22,29.34 74.84,29.34 74.84,29.34 C74.76,29.33 74.09,29.41 73.60,29.55 C73.27,29.65 58.37,34.66 57.54,34.98 C57.32,35.07 56.84,35.22 56.11,35.43" fill="none" stroke="rgb(0, 0, 0)" stroke-width="3.00" stroke-opacity="1.00" stroke-linejoin="round"/>
<path d="M51.67,34.92 C51.67,34.92 51.52,34.92 51.52,34.92 C51.92,34.80 54.35,36.01 54.98,35.75 C55.08,35.72 55.31,35.68 55.67,35.61" fill="none" stroke="rgb(0, 0, 0)" stroke-width="3.00" stroke-opacity="1.00" stroke-linejoin="round"/>
<path d="M53.76,39.52 C50.60,39.46 47.04,39.88 46.22,39.92 C43.96,40.17 39.15,42.43 37.06,43.91 C35.36,45.14 32.04,48.43 30.53,50.66 C29.02,52.92 26.88,58.32 26.17,61.47 C25.58,64.24 25.52,69.30 25.96,71.93 C26.34,73.98 28.15,79.31 29.82,82.18 C31.77,85.45 36.97,90.69 40.29,92.48 C43.46,94.14 50.55,95.80 53.99,95.86 C57.09,95.88 63.51,94.72 66.32,93.63 C69.36,92.41 74.29,88.80 76.30,86.22 C78.11,83.86 81.08,77.82 81.91,74.96 C82.75,71.99 83.40,65.77 83.10,62.75 C82.72,59.37 80.71,53.41 79.04,50.72 C77.43,48.20 73.40,44.27 71.07,42.86 C69.36,41.86 64.56,40.15 60.42,39.67 C58.80,39.49 57.72,39.39 57.18,39.38 C56.69,39.38 55.77,39.42 54.42,39.51" fill="none" stroke="rgb(0, 0, 0)" stroke-width="3.00" stroke-opacity="1.00" stroke-linejoin="round"/>
<path d="M52.75,36.25 C52.75,36.25 52.75,36.00 52.75,36.00 C52.73,36.62 52.90,37.56 53.15,38.10 C53.21,38.23 53.31,38.34 53.44,38.44" fill="none" stroke="rgb(0, 0, 0)" stroke-width="3.00" stroke-opacity="1.00" stroke-linejoin="round"/>
<path d="M56.75,36.25 C56.75,36.25 56.75,38.19 56.75,38.19 C56.75,38.19 55.75,38.50 55.75,38.50" fill="none" stroke="rgb(0, 0, 0)" stroke-width="3.00" stroke-opacity="1.00" stroke-linejoin="round"/>
<path d="M54.75,37.75 C54.75,37.75 55.00,37.75 55.00,37.75" fill="none" stroke="rgb(0, 0, 0)" stroke-width="3.00" stroke-opacity="1.00" stroke-linejoin="round"/>
<path d="M39.75,5.75 C39.75,5.75 39.50,5.75 39.50,5.75 C39.50,5.75 39.50,5.50 39.50,5.50 C39.50,5.50 39.25,29.60 39.25,29.60 C39.25,29.60 39.25,26.47 39.25,26.47" fill="none" stroke="rgb(0, 0, 0)" stroke-width="2.00" stroke-opacity="1.00" stroke-linejoin="round"/>
<path d="M43.25,5.25 C43.25,5.25 43.25,5.06 43.25,5.06 C43.25,5.06 43.75,27.96 43.75,27.96 C43.75,27.96 41.50,5.08 41.50,5.08 C41.50,5.08 40.75,26.50 40.75,26.50 C40.75,26.50 41.00,13.33 41.00,13.33 C41.00,13.33 41.00,29.00 41.00,29.00 C41.00,29.00 43.44,30.12 43.44,30.12 C43.44,30.12 43.75,3.50 43.75,3.50 C43.75,3.50 43.75,4.10 43.75,4.10" fill="none" stroke="rgb(0, 0, 0)" stroke-width="2.00" stroke-opacity="1.00" stroke-linejoin="round"/>
<path d="M42.25,26.75 C42.25,26.75 42.25,26.50 42.25,26.50 C42.25,26.50 42.59,28.17 42.59,28.17 C42.68,27.18 42.73,26.56 42.75,26.31 C42.77,26.06 42.77,25.84 42.75,25.65" fill="none" stroke="rgb(0, 0, 0)" stroke-width="2.00" stroke-opacity="1.00" stroke-linejoin="round"/>
<path d="M70.75,6.00 C70.75,6.00 70.75,5.50 70.75,5.50 C70.75,5.50 70.50,30.66 70.50,30.66 C70.50,30.66 70.50,30.13 70.50,30.13" fill="none" stroke="rgb(0, 0, 0)" stroke-width="2.00" stroke-opacity="1.00" stroke-linejoin="round"/>
<path d="M65.00,6.00 C65.00,6.00 65.00,5.75 65.00,5.75 C65.00,5.75 65.04,31.79 65.04,31.79 C65.04,31.79 66.50,9.60 66.50,9.60 C66.50,9.60 67.25,26.90 67.25,26.90 C67.25,26.90 67.50,6.77 67.50,6.77 C67.50,6.77 67.73,10.48 67.73,10.48 C67.73,10.48 66.57,7.43 66.57,7.43 C66.57,7.43 68.85,7.10 68.85,7.10 C68.85,7.10 68.03,10.13 68.03,10.13 C68.03,10.13 68.84,6.90 68.84,6.90 C68.84,6.90 68.98,25.38 68.98,25.38 C68.98,25.38 68.75,19.55 68.75,19.55 C68.75,19.55 68.75,28.75 68.75,28.75 C68.75,28.75 66.58,29.98 66.58,29.98 C66.58,29.98 67.79,30.01 67.79,30.01 C67.79,30.01 68.45,30.25 68.45,30.25" fill="none" stroke="rgb(0, 0, 0)" stroke-width="2.00" stroke-opacity="1.00" stroke-linejoin="round"/>
<path d="M44.50,6.00 C44.59,5.71 44.73,5.50 44.75,5.43 C44.76,5.40 44.76,5.34 44.75,5.25 C44.75,28.77 44.72,30.24 44.75,30.38 C44.79,30.53 44.92,30.78 45.16,31.11" fill="none" stroke="rgb(0, 0, 0)" stroke-width="2.00" stroke-opacity="1.00" stroke-linejoin="round"/>
<path d="M49.00,4.75 C48.86,4.57 48.77,4.45 48.75,4.40 C48.73,4.35 48.73,4.30 48.75,4.25 C48.75,17.19 49.35,31.98 49.25,32.90 C49.25,32.92 52.30,33.75 52.55,33.93 C52.59,33.97 52.72,34.06 52.93,34.20" fill="none" stroke="rgb(0, 0, 0)" stroke-width="2.00" stroke-opacity="1.00" stroke-linejoin="round"/>
<path d="M61.50,4.25 C61.50,4.25 61.50,4.38 61.50,4.38 C61.50,4.38 61.25,4.56 61.25,4.56 C61.25,4.56 61.00,31.50 61.00,31.50 C61.00,31.50 61.00,31.09 61.00,31.09" fill="none" stroke="rgb(0, 0, 0)" stroke-width="2.00" stroke-opacity="1.00" stroke-linejoin="round"/>
<path d="M61.25,32.00 C61.25,32.00 61.00,32.25 61.00,32.25 C61.00,32.25 60.75,33.42 60.75,33.42 C60.75,33.19 60.75,32.96 60.75,32.73 C60.75,32.37 60.75,32.01 60.75,31.65" fill="none" stroke="rgb(0, 0, 0)" stroke-width="2.00" stroke-opacity="1.00" stroke-linejoin="round"/>
<path d="M51.00,5.50 C51.00,5.50 50.04,5.25 50.04,5.25 C50.04,5.25 57.49,5.73 57.49,5.73 C57.49,5.73 50.42,7.36 50.42,7.36 C50.42,7.36 59.46,8.27 59.46,8.27 C59.46,8.27 52.90,9.69 52.90,9.69 C52.90,9.69 52.74,7.00 52.74,7.00 C51.13,25.94 53.00,29.17 53.33,29.33 C54.00,29.02 54.81,26.52 55.10,23.65 C55.84,16.12 55.34,10.65 55.08,8.96 C54.72,8.67 54.40,28.44 55.35,29.88 C55.39,29.93 55.53,30.08 55.77,30.33 C56.71,29.09 57.28,22.03 57.17,18.02 C57.07,15.05 56.24,10.58 55.54,9.29 C54.80,9.95 54.43,10.87 54.27,12.90 C53.62,21.53 55.03,26.57 55.75,27.27 C56.72,26.61 57.59,20.02 57.81,15.73 C57.89,14.10 58.00,5.92 58.00,5.94 C58.00,5.94 57.52,18.35 57.52,18.35 C57.52,18.35 59.00,5.29 59.00,5.29 C60.22,6.94 59.25,33.90 59.25,35.33 C59.11,33.47 59.01,29.39 58.99,23.71 C58.98,19.26 58.35,14.10 56.94,12.17 C56.27,11.29 55.47,10.50 54.79,9.96 C53.89,10.69 53.61,15.87 53.51,21.49 C53.50,23.27 53.50,26.29 53.50,27.52 C53.63,18.18 51.40,8.22 50.98,7.04 C50.98,7.04 50.75,26.71 50.75,26.71 C50.75,26.71 50.67,10.77 50.67,10.77 C50.67,10.77 50.92,31.96 50.92,31.96 C50.92,31.96 52.75,30.75 52.75,30.75 C52.23,30.87 52.41,32.59 53.28,33.40 C54.40,34.39 55.51,31.43 55.13,30.65 C55.13,30.65 53.68,31.59 53.68,31.59 C53.68,31.59 57.31,31.90 57.31,31.90 C57.31,31.90 55.84,34.78 55.84,34.78 C56.51,34.17 56.75,33.93 56.75,33.81 C56.75,33.69 56.75,33.54 56.75,33.36" fill="none" stroke="rgb(0, 0, 0)" stroke-width="2.00" stroke-opacity="1.00" stroke-linejoin="round"/>
<path d="M57.25,29.75 C57.25,29.75 56.75,29.75 56.75,29.75 C56.75,29.75 56.75,31.73 56.75,31.73 C56.75,31.73 57.00,30.18 57.00,30.18 C57.00,30.18 54.51,33.96 54.51,33.96 C54.51,33.96 54.69,34.19 54.69,34.19" fill="none" stroke="rgb(0, 0, 0)" stroke-width="2.00" stroke-opacity="1.00" stroke-linejoin="round"/>
<path d="M32.75,57.12 C32.59,57.27 31.41,59.53 30.88,61.06 C30.52,62.11 29.85,66.54 30.02,69.65 C30.31,74.37 34.90,82.76 36.21,83.89 C41.23,88.09 43.91,89.44 49.22,90.96 C49.80,91.12 50.11,91.21 50.16,91.21 C50.29,91.22 50.56,91.20 50.97,91.15" fill="none" stroke="rgb(0, 0, 0)" stroke-width="2.00" stroke-opacity="1.00" stroke-linejoin="round"/>
<path d="M32.62,56.75 C32.64,56.15 34.04,54.55 34.59,53.93 C35.64,52.75 40.46,47.87 41.77,47.17 C44.80,45.59 48.82,43.98 49.54,43.81 C53.85,42.82 57.46,42.98 60.81,43.83 C61.11,43.91 61.71,44.11 62.60,44.42" fill="none" stroke="rgb(0, 0, 0)" stroke-width="2.00" stroke-opacity="1.00" stroke-linejoin="round"/>
<path d="M65.36,45.49 C69.43,47.34 72.59,50.15 73.43,51.30 C73.74,51.74 76.31,55.15 77.76,59.89 C78.97,63.87 78.82,68.82 78.74,69.92 C78.72,70.20 78.69,70.48 78.64,70.76" fill="none" stroke="rgb(0, 0, 0)" stroke-width="2.00" stroke-opacity="1.00" stroke-linejoin="round"/>
<path d="M51.62,91.62 C54.72,91.61 56.72,91.44 58.49,90.91 C60.20,90.36 66.37,88.23 67.82,87.43 C69.54,86.45 71.97,84.36 73.29,82.71 C73.34,82.65 73.53,82.48 73.57,82.38 C73.58,82.35 73.60,82.28 73.61,82.18" fill="none" stroke="rgb(0, 0, 0)" stroke-width="2.00" stroke-opacity="1.00" stroke-linejoin="round"/>
<path d="M74.75,81.12 C74.76,80.88 75.41,80.03 75.68,79.49 C76.41,78.05 77.52,75.24 77.95,73.22 C77.99,73.02 77.98,72.82 78.01,72.61 C78.02,72.58 78.04,72.51 78.09,72.42" fill="none" stroke="rgb(0, 0, 0)" stroke-width="2.00" stroke-opacity="1.00" stroke-linejoin="round"/>
<path d="M42.27,58.47 C42.27,58.47 42.14,58.38 42.14,58.38 C40.07,60.30 42.53,75.97 42.79,76.84 C42.89,77.17 43.09,77.68 43.39,78.35" fill="none" stroke="rgb(0, 0, 0)" stroke-width="3.00" stroke-opacity="1.00" stroke-linejoin="round"/>
<path d="M42.37,60.95 C42.18,60.12 45.53,57.90 48.42,58.21 C50.57,58.48 53.72,60.55 54.44,62.16 C55.22,63.94 54.13,67.50 52.17,68.95 C50.38,70.24 44.63,72.29 42.25,72.59 C37.47,73.16 34.47,70.08 34.34,69.79 C34.30,69.69 34.25,69.50 34.20,69.22" fill="none" stroke="rgb(0, 0, 0)" stroke-width="3.00" stroke-opacity="1.00" stroke-linejoin="round"/>
<path d="M57.34,76.38 C57.27,76.35 57.04,76.24 56.98,76.08 C56.69,75.34 56.53,69.51 56.85,67.55 C57.59,63.24 60.33,59.08 61.50,58.61 C62.76,58.12 65.63,59.14 66.93,60.93 C68.31,62.86 69.99,68.30 70.15,70.94 C70.28,73.27 69.40,75.81 68.65,76.18 C68.52,76.24 68.29,76.30 67.94,76.36" fill="none" stroke="rgb(0, 0, 0)" stroke-width="3.00" stroke-opacity="1.00" stroke-linejoin="round"/>
<path d="M51.64,75.64 C51.94,74.93 58.19,71.09 63.21,69.73 C66.96,68.73 73.12,68.94 73.56,69.31 C73.56,69.31 73.51,69.39 73.51,69.39" fill="none" stroke="rgb(0, 0, 0)" stroke-width="3.00" stroke-opacity="1.00" stroke-linejoin="round"/>
</g>
</svg>
