<?xml version="1.0" encoding="UTF-8" standalone="no"?>
<!DOCTYPE svg PUBLIC "-//W3C//DTD SVG 1.1//EN" "http://www.w3.org/Graphics/SVG/1.1/DTD/svg11.dtd">
<svg width="105.00" height="100.00" viewBox="0.00 0.00 105.00 100.00" xmlns="http://www.w3.org/2000/svg" xmlns:xlink="http://www.w3.org/1999/xlink">
<g stroke-linecap="round" id="圖層_7_的複製">
<path d="M46.18,93.43 C46.18,93.43 37.50,92.04 37.50,92.04 C33.40,90.25 31.14,88.92 27.91,86.42 C27.28,85.92 21.30,81.09 19.15,78.26 C16.98,75.35 13.46,68.21 12.59,65.17 C11.75,62.12 11.06,54.44 11.20,51.05 C11.35,47.85 12.58,41.66 13.59,38.83 C14.76,35.61 17.97,29.92 19.83,27.44 C21.70,24.98 26.76,20.72 29.91,18.75 C33.38,16.63 40.16,14.01 43.84,13.51 C49.73,12.77 60.53,14.93 65.12,16.60 C69.56,18.23 76.72,22.69 79.72,25.83 C82.84,29.14 86.86,36.77 88.14,40.84 C89.39,44.89 90.11,50.36 89.95,54.02 C89.64,60.18 86.93,71.17 85.33,74.64 C84.29,76.86 81.51,80.68 79.75,82.46 C76.98,85.19 65.81,90.80 61.32,91.76 C52.29,93.66 45.54,93.75 42.90,93.24 C42.46,93.16 41.61,93.01 40.32,92.80" fill="none" stroke="rgb(0, 0, 0)" stroke-width="2.00" stroke-opacity="1.00" stroke-linejoin="round"/>
<path d="M47.97,52.72 C47.97,52.72 46.93,53.01 46.93,53.01 C46.23,54.06 46.76,56.19 47.47,56.72 C48.13,57.17 49.90,57.41 50.69,57.05 C51.48,56.68 52.24,55.08 52.20,54.15 C52.14,53.26 51.23,51.99 50.57,51.76 C49.20,51.33 47.79,52.36 47.49,53.78 C47.26,55.06 48.28,56.50 48.97,56.39 C50.45,56.08 50.01,53.72 49.67,53.42 C49.67,53.42 49.15,54.33 49.15,54.33" fill="none" stroke="rgb(0, 0, 0)" stroke-width="2.00" stroke-opacity="1.00" stroke-linejoin="round"/>
<path d="M50.35,56.65 C50.35,56.65 49.96,56.46 49.96,56.46" fill="none" stroke="rgb(0, 0, 0)" stroke-width="2.00" stroke-opacity="1.00" stroke-linejoin="round"/>
<path d="M49.96,56.46 C49.96,56.46 76.69,66.61 76.69,66.61" fill="none" stroke="rgb(0, 0, 0)" stroke-width="2.00" stroke-opacity="1.00" stroke-linejoin="round"/>
<path d="M76.69,66.61" fill="none" stroke="rgb(0, 0, 0)" stroke-width="2.00" stroke-opacity="1.00" stroke-linejoin="round"/>
<path d="M76.69,66.61 C76.69,66.61 51.32,53.53 51.32,53.53" fill="none" stroke="rgb(0, 0, 0)" stroke-width="2.00" stroke-opacity="1.00" stroke-linejoin="round"/>
<path d="M51.32,53.53 C51.32,53.53 51.12,53.53 51.12,53.53 C51.12,53.53 51.29,53.53 51.29,53.53" fill="none" stroke="rgb(0, 0, 0)" stroke-width="2.00" stroke-opacity="1.00" stroke-linejoin="round"/>
<path d="M47.81,19.38 C47.81,19.38 47.42,27.97 47.42,27.97 C47.42,27.97 47.22,27.97 47.22,27.97" fill="none" stroke="rgb(0, 0, 0)" stroke-width="2.00" stroke-opacity="0.60" stroke-linejoin="round"/>
<path d="M48.20,29.73 C48.20,29.73 48.00,29.73 48.00,29.73 C50.07,29.55 55.24,30.97 60.22,33.68 C61.33,34.32 65.36,38.08 66.16,38.99 C68.04,41.20 71.18,47.34 71.85,50.10 C72.26,51.83 73.13,62.31 72.77,63.42 C72.76,63.45 72.76,63.47 72.77,63.50" fill="none" stroke="rgb(0, 0, 0)" stroke-width="2.00" stroke-opacity="0.60" stroke-linejoin="round"/>
<path d="M48.59,19.38 C49.25,19.16 54.19,19.20 54.82,19.29 C57.15,19.65 64.50,22.85 69.02,25.60 C71.04,26.85 74.72,29.98 76.52,32.11 C78.20,34.14 80.30,37.84 81.41,40.94 C82.31,43.53 84.02,52.93 83.86,56.85 C83.66,60.98 81.64,67.14 81.67,67.30" fill="none" stroke="rgb(0, 0, 0)" stroke-width="2.00" stroke-opacity="0.60" stroke-linejoin="round"/>
<path d="M71.81,51.39 C72.15,55.34 72.23,57.11 71.25,59.78 C70.58,61.60 69.92,62.89 69.97,62.90 C69.97,62.90 79.70,67.49 79.70,67.49" fill="none" stroke="rgb(0, 0, 0)" stroke-width="2.00" stroke-opacity="0.60" stroke-linejoin="round"/>
<path d="M50.21,24.93 C50.20,25.13 49.98,25.25 49.90,25.32 C49.23,25.88 48.53,27.66 48.66,27.76 C48.66,27.76 49.61,27.16 49.61,27.16 C49.61,27.16 47.90,28.60 47.90,28.60 C47.90,28.60 48.51,27.67 48.51,27.67 C48.51,27.67 47.61,29.42 47.61,29.42 C47.61,29.42 53.06,28.08 53.06,28.08 C53.06,28.08 49.65,22.37 49.65,22.37 C49.65,22.37 51.61,28.40 51.61,28.40 C52.78,26.09 50.41,22.50 49.81,22.29 C49.03,22.90 49.24,25.22 49.62,26.07 C50.03,26.94 51.23,27.55 52.47,27.45 C52.86,26.48 52.26,24.60 51.57,23.77 C50.92,23.01 49.37,21.56 49.30,21.34 C51.57,19.47 55.22,22.27 55.36,22.48 C54.95,22.94 51.15,22.38 49.40,20.78 C49.78,20.04 53.29,20.85 54.64,21.63 C59.52,24.54 63.36,30.50 63.39,30.89 C62.30,31.89 53.08,23.50 52.84,23.32 C52.84,23.32 62.25,30.60 62.25,30.60 C61.10,29.51 57.80,26.02 56.58,25.40 C56.56,25.39 55.57,24.80 55.04,24.77 C54.55,26.82 59.87,29.10 60.43,28.69 C57.46,26.38 54.97,26.63 54.64,26.83 C53.70,27.89 58.84,30.66 59.44,30.04 C59.69,28.86 55.63,26.25 54.24,26.74 C53.83,26.91 53.51,27.72 53.75,28.08 C54.77,29.50 59.12,29.40 60.21,29.21 C60.21,29.21 53.68,28.52 53.68,28.52 C54.82,30.04 60.54,30.09 60.75,28.92 C60.94,27.25 55.79,22.53 55.48,22.10 C56.18,21.22 58.55,21.42 60.05,22.31 C62.91,24.06 66.91,28.87 67.15,29.38 C66.19,29.70 63.76,28.77 62.41,27.61 C59.74,25.30 58.41,23.70 58.37,23.57 C58.54,23.34 60.69,23.45 62.49,24.54 C71.43,30.07 78.49,40.12 78.66,41.24 C77.61,41.62 76.74,41.55 75.51,40.81 C73.34,39.48 68.71,35.16 66.24,32.41 C63.76,29.59 61.61,25.79 61.94,25.48 C63.88,25.73 77.05,40.90 78.40,43.03 C76.23,42.63 67.39,31.22 65.89,27.76 C65.89,27.76 76.24,43.01 76.24,43.01 C76.24,43.01 61.34,29.73 61.34,29.73 C61.34,29.73 68.66,37.52 68.66,37.52 C68.66,37.52 57.59,29.67 57.59,29.67 C61.54,33.09 74.16,43.45 76.44,45.87 C78.09,47.63 78.77,48.94 78.92,49.35 C76.82,48.07 71.15,37.83 69.92,35.00 C73.11,37.53 78.73,58.90 79.25,59.44 C79.25,59.44 72.68,42.01 72.68,42.01 C72.68,42.01 77.03,58.97 77.03,58.97 C77.20,58.33 71.71,43.53 69.47,40.08 C69.25,39.74 68.90,39.27 68.41,38.66 C70.39,42.07 72.32,46.01 73.64,50.04 C74.49,52.74 74.53,56.78 74.53,58.67 C74.53,58.67 75.22,52.69 75.22,52.69 C75.22,52.69 73.39,62.31 73.39,62.31 C73.39,62.31 74.51,55.70 74.51,55.70 C74.51,55.70 71.46,62.35 71.46,62.35 C71.46,62.35 73.72,61.62 73.72,61.62 C73.72,61.62 72.44,61.97 72.44,61.97 C72.44,61.97 77.42,64.01 77.42,64.01 C77.42,64.01 75.94,59.32 75.94,59.32 C75.94,59.32 79.31,65.60 79.31,65.60 C80.29,65.05 80.29,61.80 79.70,60.70 C79.13,59.68 78.37,59.30 78.05,59.27 C77.18,60.07 79.17,64.79 80.31,64.99 C81.26,65.11 81.86,60.18 80.78,58.20 C80.57,57.82 80.24,57.54 79.96,57.42 C78.58,58.85 79.84,61.93 80.14,62.37 C80.91,62.35 81.31,62.09 81.55,61.27 C82.02,59.60 82.35,53.59 81.89,51.32 C81.10,47.63 79.66,45.12 79.45,45.08 C78.56,48.97 80.66,55.87 81.34,56.57 C81.87,56.01 82.09,55.45 82.00,54.21 C81.33,45.52 79.38,44.13 78.94,44.00 C78.35,44.37 78.00,47.22 78.23,49.56 C78.50,52.14 79.92,56.51 80.17,56.45 C80.17,56.45 77.28,45.91 77.28,45.91 C76.41,47.90 78.52,56.20 79.13,56.49 C79.80,56.19 80.10,55.63 80.12,54.27 C80.13,51.31 79.27,45.96 78.17,42.95 C77.15,40.26 74.93,36.63 74.76,36.58 C74.50,37.77 76.44,42.88 77.48,43.41 C77.61,43.47 77.85,43.52 78.21,43.56 C78.22,41.73 77.74,39.89 76.63,38.09 C75.93,36.95 74.33,34.95 74.35,34.51 C77.39,34.85 78.70,39.77 78.78,40.43 C78.49,39.94 76.32,35.28 74.90,33.70 C74.04,32.77 68.45,27.96 68.03,27.54 C67.40,26.90 65.72,25.12 65.64,24.83 C66.46,24.59 74.54,33.26 78.21,38.68 C80.38,41.92 81.51,44.70 81.61,46.57 C81.61,46.57 79.83,42.12 79.83,42.12 C79.89,42.26 79.94,42.54 80.00,42.95 C80.06,43.37 80.19,44.51 80.40,46.37" fill="none" stroke="rgb(0, 0, 0)" stroke-width="2.00" stroke-opacity="0.60" stroke-linejoin="round"/>
<path d="M49.50,97.77 C46.70,97.71 43.19,97.68 42.67,97.61 C38.82,97.09 26.24,90.94 22.34,88.06 C19.58,85.99 15.62,81.94 14.27,79.96 C11.13,75.28 7.92,66.02 7.13,60.82 C6.44,56.13 6.62,47.16 7.52,42.87 C8.45,38.57 12.04,30.17 14.33,26.89 C16.82,23.35 23.45,17.40 27.47,15.16 C31.76,12.80 40.82,10.05 45.96,9.74 C51.01,9.45 61.20,10.72 66.10,12.29 C70.97,13.88 78.48,18.39 82.08,22.00 C85.46,25.43 90.83,34.10 92.55,38.72 C94.16,43.14 95.18,52.35 94.86,57.13 C94.70,59.41 94.04,63.81 93.59,65.74 C92.48,70.47 90.39,75.69 88.53,78.64 C86.70,81.46 82.84,85.92 80.42,88.01 C78.13,89.94 73.30,92.93 70.32,94.10 C65.77,95.84 56.31,97.48 52.21,97.67 C51.62,97.70 50.53,97.71 48.94,97.72" fill="none" stroke="rgb(0, 0, 0)" stroke-width="3.00" stroke-opacity="1.00" stroke-linejoin="round"/>
<path d="M40.00,4.00 C39.93,3.95 39.90,3.91 39.92,3.88 C40.62,3.04 55.34,3.65 56.72,3.62 C56.72,3.62 58.42,3.85 58.42,3.85" fill="none" stroke="rgb(0, 0, 0)" stroke-width="3.00" stroke-opacity="1.00" stroke-linejoin="round"/>
<path d="M48.62,4.88 C48.62,4.88 48.50,4.75 48.50,4.75 C48.50,4.75 49.11,7.59 49.11,7.59 C49.11,7.59 48.91,7.20 48.91,7.20" fill="none" stroke="rgb(0, 0, 0)" stroke-width="3.00" stroke-opacity="1.00" stroke-linejoin="round"/>
</g>
</svg>
