<?xml version="1.0" encoding="UTF-8" standalone="no"?>
<!DOCTYPE svg PUBLIC "-//W3C//DTD SVG 1.1//EN" "http://www.w3.org/Graphics/SVG/1.1/DTD/svg11.dtd">
<svg width="100.00" height="100.00" viewBox="0.00 0.00 100.00 100.00" xmlns="http://www.w3.org/2000/svg" xmlns:xlink="http://www.w3.org/1999/xlink">
<g stroke-linecap="round" id="圖層_5">
<path d="M35.43,30.15 C35.30,30.10 35.04,30.06 34.90,30.09 C34.84,30.11 34.71,30.16 34.53,30.25 C43.83,30.24 53.44,30.21 53.71,30.15 C53.81,30.12 54.09,30.05 54.56,29.93" fill="none" stroke="rgb(173, 141, 108)" stroke-width="2.00" stroke-opacity="1.00" stroke-linejoin="round"/>
<path d="M45.28,29.93 C45.27,29.93 45.32,29.93 45.34,29.93 C46.04,29.94 46.50,29.95 46.73,29.96 C51.32,30.50 57.63,31.11 63.49,30.73 C63.79,30.71 64.25,30.69 64.88,30.67" fill="none" stroke="rgb(173, 141, 108)" stroke-width="2.00" stroke-opacity="1.00" stroke-linejoin="round"/>
<path d="M58.35,30.36 C58.66,30.43 58.88,30.49 59.01,30.51 C61.05,30.90 70.88,30.20 74.33,30.94 C74.77,31.04 75.43,31.23 76.33,31.51" fill="none" stroke="rgb(173, 141, 108)" stroke-width="2.00" stroke-opacity="1.00" stroke-linejoin="round"/>
<path d="M73.11,30.78 C73.11,30.78 73.06,30.78 73.06,30.78 C73.82,30.88 78.70,30.94 79.72,31.30 C80.10,31.45 80.60,31.73 80.91,31.94 C81.03,32.02 81.14,32.10 81.26,32.19" fill="none" stroke="rgb(173, 141, 108)" stroke-width="2.00" stroke-opacity="1.00" stroke-linejoin="round"/>
<path d="M77.80,30.99 C77.80,30.99 77.80,31.25 77.80,31.25 C77.93,31.45 81.73,32.77 81.62,33.23 C81.58,33.37 81.54,33.50 81.49,33.62 C81.46,33.69 81.41,33.79 81.33,33.94" fill="none" stroke="rgb(173, 141, 108)" stroke-width="2.00" stroke-opacity="1.00" stroke-linejoin="round"/>
<path d="M79.35,31.75 C79.49,31.79 79.77,31.95 79.96,32.15 C80.86,33.09 81.59,35.76 81.75,36.44 C81.75,36.44 81.23,34.99 81.23,34.99" fill="none" stroke="rgb(173, 141, 108)" stroke-width="2.00" stroke-opacity="1.00" stroke-linejoin="round"/>
<path d="M79.64,31.62 C79.58,31.44 79.55,31.32 79.54,31.25 C79.53,31.18 79.53,31.07 79.54,30.91 C79.73,30.77 80.30,30.90 80.83,31.94 C80.97,32.22 81.16,32.69 81.38,33.33 C81.45,33.52 81.49,33.67 81.52,33.78 C81.52,33.83 81.53,33.89 81.54,33.94" fill="none" stroke="rgb(173, 141, 108)" stroke-width="2.00" stroke-opacity="1.00" stroke-linejoin="round"/>
<path d="M35.98,36.21 C36.07,35.42 36.04,34.37 35.60,34.07 C34.59,33.43 31.23,35.92 27.19,40.36 C26.83,40.75 26.63,41.09 26.28,41.77 C27.36,42.51 29.04,42.19 29.67,41.90 C31.67,40.95 34.33,37.13 34.19,35.42 C33.41,34.64 31.15,34.55 30.14,34.91 C27.65,35.87 22.87,40.72 22.48,42.13 C23.26,42.95 27.52,40.99 29.11,38.97 C30.48,37.21 31.29,35.54 31.26,34.47 C30.59,33.82 28.50,33.93 27.47,34.34 C20.52,37.23 19.93,42.46 20.02,42.64 C20.55,42.95 21.95,42.31 23.24,40.99 C25.15,38.99 27.46,35.38 27.58,34.52 C26.25,34.26 24.09,35.26 22.82,36.32 C20.09,38.65 19.41,40.30 19.53,41.63 C19.55,41.78 19.59,41.89 19.67,41.98 C19.67,41.98 24.25,34.81 24.25,34.81 C24.25,34.81 18.77,41.48 18.77,41.48 C19.47,41.72 30.02,34.91 34.33,33.10 C35.72,32.53 37.49,32.03 38.58,31.99 C38.59,34.45 22.31,44.65 21.16,45.75 C21.34,45.84 34.19,37.71 38.64,34.94 C41.12,33.45 45.43,31.81 45.63,31.73 C45.63,31.73 25.11,46.77 25.11,46.77 C26.56,46.79 40.32,37.90 43.23,36.29 C46.67,34.40 51.32,32.39 53.13,31.88 C47.85,34.03 31.25,46.24 28.34,49.01 C29.81,48.38 37.18,43.04 43.24,39.47 C48.72,36.24 56.11,33.05 58.04,33.23 C58.33,34.00 58.05,34.63 56.68,35.71 C52.37,39.09 34.27,51.08 34.08,51.23 C37.62,47.57 47.10,41.16 53.15,38.08 C60.59,34.44 63.33,34.02 63.54,34.18 C63.45,35.61 49.45,43.86 45.31,46.45 C43.76,47.42 43.60,48.37 43.57,48.72 C43.56,48.94 43.45,49.35 43.22,49.96 C43.34,47.96 44.02,46.85 46.26,45.32 C54.89,39.46 65.79,33.55 68.57,32.86 C69.59,32.63 69.90,32.68 70.78,32.94 C70.39,34.43 68.18,36.53 65.43,38.77 C55.18,47.03 50.70,48.08 49.96,48.14 C50.72,46.21 56.92,41.29 62.24,38.11 C66.64,35.50 75.56,32.47 77.06,32.60 C77.73,33.68 77.86,34.22 77.47,34.76 C74.41,38.82 58.92,46.95 57.82,47.25 C57.43,46.53 57.62,45.90 58.84,44.80 C67.45,37.08 77.39,34.08 78.06,34.05 C78.22,35.40 74.86,38.94 67.96,44.95 C65.94,46.70 63.73,48.79 63.05,49.46 C65.83,45.47 79.27,35.86 80.26,35.68 C78.19,40.46 67.56,53.60 66.79,54.55 C69.78,52.70 78.45,36.31 78.63,35.94 C78.86,40.50 72.48,62.67 72.48,64.72 C73.43,64.05 75.17,58.27 75.79,55.86 C76.60,52.62 79.38,41.60 80.10,39.05 C80.07,39.45 77.65,55.79 77.43,60.39 C77.27,63.75 77.35,65.33 77.47,65.90 C77.47,65.90 81.51,39.76 81.51,39.76 C81.51,39.76 75.71,68.20 75.71,68.20 C75.12,65.89 74.71,51.18 74.54,48.05 C74.35,44.90 73.66,41.58 73.02,40.79 C72.49,40.21 71.23,40.26 70.50,41.08 C68.75,43.15 66.28,52.25 65.13,59.66 C64.22,65.62 64.98,69.06 65.84,70.04 C66.86,69.60 67.72,68.21 68.31,65.72 C69.89,59.00 71.49,46.88 70.99,45.27 C70.56,44.06 69.59,43.06 68.42,42.98 C67.33,42.93 64.03,46.10 61.92,51.13 C59.76,56.33 56.37,69.21 57.04,70.51 C58.34,70.26 59.73,68.83 60.58,67.12 C61.63,64.95 63.68,60.02 65.06,55.59 C66.09,52.31 69.53,48.37 69.56,47.71 C69.59,46.45 68.55,43.47 68.87,42.30 C69.00,41.79 68.14,39.90 67.20,39.72 C65.56,39.43 61.23,41.62 57.55,45.45 C55.42,47.70 46.34,62.34 45.93,64.80 C45.91,64.89 45.93,65.07 45.98,65.32 C47.08,64.13 55.11,50.21 56.75,46.99 C59.36,41.80 59.47,39.82 59.39,39.24 C57.65,38.86 54.29,40.70 52.86,41.88 C47.19,46.61 37.84,60.93 37.58,62.37 C38.74,62.17 40.70,60.42 41.96,58.89 C45.21,54.89 49.64,45.91 49.60,43.66 C49.52,42.28 48.57,41.21 47.21,41.28 C45.67,41.39 42.29,42.72 41.20,43.68 C39.25,45.44 35.18,50.44 33.88,52.70 C30.17,59.24 28.94,63.78 28.83,64.51 C29.93,64.75 30.36,64.64 30.93,63.67 C35.06,56.67 39.04,47.96 39.56,45.49 C40.20,42.37 38.78,41.54 37.77,41.27 C35.98,41.84 31.62,44.86 29.12,48.04 C25.52,52.66 21.69,61.74 22.16,63.06 C23.57,62.61 25.24,61.05 27.08,58.53 C29.84,54.67 32.77,45.80 32.53,43.91 C32.35,42.73 31.50,41.42 30.66,41.11 C29.59,40.77 27.46,41.29 26.36,42.19 C25.40,43.03 23.15,47.03 22.56,48.92 C21.28,53.12 21.73,58.00 22.76,58.97 C23.66,58.36 24.03,57.87 24.09,56.76 C24.82,43.56 22.54,40.62 22.00,40.08 C20.94,40.81 20.61,41.15 20.61,41.57 C20.61,41.82 19.39,57.03 19.80,61.80 C20.16,65.89 20.69,67.60 20.97,68.06 C21.66,67.06 21.76,63.97 22.02,59.17 C22.35,53.72 22.60,45.00 22.00,43.64 C21.00,43.91 20.65,44.23 20.55,45.15 C20.09,48.46 19.64,64.79 20.37,67.59 C20.58,68.32 21.27,69.58 21.94,69.77 C22.69,69.97 24.66,69.75 25.57,68.83 C28.83,65.44 35.63,53.85 39.03,48.02 C40.45,45.55 41.31,43.27 41.29,42.42 C40.21,41.91 38.40,42.23 37.48,42.67 C36.14,43.35 32.97,46.32 31.05,48.81 C26.86,54.33 22.71,63.72 22.27,67.48 C22.15,68.60 22.31,70.19 22.90,70.58 C23.72,71.08 25.48,71.25 27.06,70.12 C29.14,68.57 34.55,57.15 35.54,52.46 C36.18,49.36 36.27,46.55 35.57,45.69 C34.13,46.15 29.27,54.92 27.15,61.52 C25.62,66.36 25.32,71.05 26.17,71.60 C27.15,71.71 29.12,70.70 30.45,69.28 C33.01,66.48 40.20,51.73 40.97,48.36 C41.24,47.08 40.57,45.90 39.59,45.73 C38.67,45.59 36.75,46.30 35.53,47.28 C34.19,48.40 31.50,52.09 29.91,55.07 C28.44,57.85 26.69,63.56 26.61,65.23 C26.55,66.79 27.40,68.81 27.91,69.35 C28.81,70.23 32.66,70.69 34.84,69.72 C39.02,67.84 48.12,60.04 49.31,57.81 C49.85,56.68 49.69,55.70 48.93,55.32 C48.07,54.93 45.28,54.60 43.33,54.65 C41.40,54.72 37.52,55.67 35.02,56.77 C30.82,58.64 24.05,65.46 23.60,67.14 C23.32,68.34 23.60,69.09 24.79,69.91 C26.19,70.85 29.91,72.20 31.34,72.46 C33.40,72.81 36.90,72.82 39.37,72.38 C50.39,70.33 58.63,66.10 59.18,65.77 C56.61,65.51 44.43,65.74 39.32,66.50 C33.41,67.42 27.78,70.82 27.90,70.94 C30.91,72.05 44.23,72.22 49.51,71.41 C55.23,70.42 67.07,68.44 68.69,68.09 C64.35,67.50 32.57,70.85 29.02,72.02 C29.53,72.21 48.89,72.89 52.75,72.78 C58.46,72.59 73.51,69.82 77.20,69.78 C71.95,69.59 59.30,69.33 54.29,69.68 C48.74,70.06 36.71,71.64 35.95,72.20 C37.13,72.83 52.67,75.11 57.23,74.68 C61.11,74.29 69.56,70.11 71.64,67.99 C72.41,67.18 72.41,66.14 71.86,65.59 C70.65,64.44 63.20,62.68 59.01,63.11 C54.47,63.60 43.21,68.37 43.03,68.56 C43.03,68.56 68.66,51.41 68.66,51.41 C68.72,51.38 55.17,59.57 48.28,64.62 C42.15,69.11 39.41,70.65 38.85,70.94 C39.83,67.71 59.84,52.67 60.35,52.54 C61.42,52.27 62.58,52.57 63.64,52.27 C64.51,52.03 64.85,51.61 64.68,51.00 C64.51,50.53 63.44,49.80 64.00,49.30 C60.56,49.30 43.13,61.44 34.25,68.43 C39.61,64.47 49.42,57.26 57.16,52.90 C63.11,49.58 64.06,49.02 64.57,48.67 C56.76,51.46 35.15,63.81 33.35,64.77 C39.47,58.91 58.47,48.02 58.72,47.64 C58.72,47.64 35.60,60.08 35.60,60.08 C35.60,60.08 60.61,46.75 60.61,46.75 C58.11,47.36 45.19,52.76 40.47,54.28 C33.72,56.42 32.15,56.32 31.62,56.26 C31.47,55.17 34.54,51.49 36.25,49.89 C37.82,48.43 38.83,48.05 39.64,47.85 C39.97,48.76 39.37,50.51 37.88,52.97 C32.60,61.35 29.05,65.99 26.17,68.99 C26.17,68.99 37.85,54.15 37.85,54.15 C36.94,54.88 29.24,64.76 25.63,68.26 C24.27,69.58 23.59,70.20 22.73,70.94 C22.57,70.35 23.35,68.95 23.89,68.80 C25.07,68.53 29.08,69.69 29.34,69.83 C29.26,70.44 26.01,71.04 25.36,71.25 C23.84,71.75 22.92,72.40 22.67,72.62 C22.70,73.06 24.02,74.64 24.76,74.84 C26.70,75.28 35.35,73.12 35.33,73.15 C35.33,73.15 28.26,73.78 28.26,73.78 C29.24,73.79 42.99,75.18 47.69,74.82 C48.85,74.73 60.60,73.69 61.02,73.68 C61.05,73.54 60.56,63.42 61.07,59.18 C61.10,58.97 61.12,58.71 61.13,58.42 C64.53,70.83 67.71,73.65 68.15,73.89 C68.74,72.93 68.26,69.43 67.62,66.40 C67.04,63.64 66.15,58.73 65.79,56.73 C66.40,58.54 68.22,69.67 69.80,72.62 C70.14,73.25 70.41,73.63 70.61,73.81 C70.61,73.81 70.88,58.87 70.88,58.87 C70.88,58.87 69.15,67.33 69.15,67.33 C69.04,67.40 69.76,61.13 69.77,59.33 C69.77,56.70 69.14,54.82 68.82,54.39 C68.34,53.78 66.61,53.76 65.50,54.71 C63.90,56.10 58.66,61.45 58.74,61.53 C58.74,61.53 71.10,57.34 71.10,57.34 C69.16,56.47 61.43,56.93 54.32,58.31 C52.54,58.63 49.99,58.46 48.99,57.89 C45.01,55.53 39.18,50.93 38.96,50.91 C38.96,50.91 46.85,51.23 46.85,51.23 C42.93,51.78 39.37,51.68 36.41,51.24 C29.50,50.26 26.20,49.65 25.63,49.41 C25.61,48.10 28.07,46.34 28.99,45.80 C33.70,43.03 42.98,40.46 48.02,40.22 C50.02,40.13 57.70,40.42 59.29,40.31 C61.01,40.18 62.06,39.65 62.35,39.13 C63.08,37.66 61.02,34.94 61.05,34.76 C61.05,34.76 63.76,34.07 63.76,34.07 C63.76,34.07 64.37,34.74 64.37,34.74" fill="none" stroke="rgb(173, 141, 108)" stroke-width="3.00" stroke-opacity="1.00" stroke-linejoin="round"/>
<path d="M80.79,50.22 C80.79,50.22 80.24,50.07 80.24,50.07 C80.24,50.07 81.53,61.40 81.53,61.40 C81.53,61.40 82.24,51.78 82.24,51.78 C82.24,51.78 79.84,65.03 79.84,65.03 C79.10,65.78 76.95,68.45 76.42,68.80 C75.80,69.20 74.84,69.26 74.62,69.25 C75.47,68.36 77.06,65.86 77.91,63.45 C79.68,58.35 79.84,51.71 79.85,41.86 C79.85,41.15 80.09,38.51 80.26,36.68 C80.26,36.68 81.32,35.63 81.32,35.63 C73.90,39.18 61.70,50.25 60.34,50.83 C60.00,48.07 63.67,46.86 64.64,46.72 C64.64,46.72 60.26,47.96 60.26,47.96 C60.47,48.33 61.97,48.50 63.00,48.30 C63.18,48.27 63.41,48.22 63.71,48.17" fill="none" stroke="rgb(173, 141, 108)" stroke-width="3.00" stroke-opacity="1.00" stroke-linejoin="round"/>
<path d="M36.52,34.05 C36.52,34.05 36.34,34.05 36.34,34.05 C36.60,33.80 38.29,33.50 38.95,33.52 C45.56,33.74 53.59,33.18 53.99,33.76 C54.00,33.77 54.01,33.80 54.02,33.83 C54.02,33.83 43.06,33.52 43.06,33.52 C43.06,33.52 63.48,33.94 63.48,33.94 C63.48,33.94 62.63,33.94 62.63,33.94" fill="none" stroke="rgb(217, 144, 0)" stroke-width="2.00" stroke-opacity="1.00" stroke-linejoin="round"/>
<path d="M51.96,33.83 C51.96,33.83 51.91,33.97 51.91,33.97 C52.00,34.03 55.79,34.28 58.84,34.27 C62.70,34.26 71.41,34.57 72.04,34.36 C71.11,34.29 63.32,35.67 57.05,34.84 C56.76,34.80 56.49,34.67 56.26,34.60 C57.38,32.56 74.09,33.44 75.02,33.65 C75.02,33.65 66.96,33.62 66.96,33.62 C66.95,33.62 73.37,33.63 74.23,33.78 C74.74,33.88 75.18,34.01 75.56,34.16" fill="none" stroke="rgb(217, 144, 0)" stroke-width="2.00" stroke-opacity="1.00" stroke-linejoin="round"/>
<path d="M76.84,34.52 C76.84,34.52 76.68,34.26 76.68,34.26 C76.68,34.26 78.05,47.33 78.05,47.33 C78.05,47.33 77.31,35.31 77.31,35.31 C77.31,35.31 77.42,47.77 77.42,47.77 C77.42,47.77 79.10,38.21 79.10,38.21 C79.10,38.21 78.16,48.64 78.16,48.64 C78.16,48.64 77.52,40.58 77.52,40.58 C77.52,40.58 77.10,50.91 77.10,50.91 C77.10,50.91 77.13,46.38 77.13,46.38 C77.13,46.38 76.47,50.99 76.47,50.99 C77.43,48.06 78.07,42.11 78.05,40.39 C78.05,40.20 78.04,39.68 77.98,39.03" fill="none" stroke="rgb(217, 144, 0)" stroke-width="2.00" stroke-opacity="1.00" stroke-linejoin="round"/>
<path d="M76.68,33.94 C76.68,33.94 76.47,33.83 76.47,33.83 C76.47,33.83 78.47,34.49 78.47,34.49 C78.41,35.04 77.20,35.19 77.00,35.20 C76.89,35.21 76.71,35.21 76.47,35.20" fill="none" stroke="rgb(217, 144, 0)" stroke-width="2.00" stroke-opacity="1.00" stroke-linejoin="round"/>
<path d="M26.93,33.81 C27.04,33.82 27.23,33.84 27.51,33.86 C30.53,34.09 33.19,33.82 34.28,33.73 C30.97,36.09 25.89,33.87 25.77,33.83 C25.77,33.83 32.49,33.41 32.49,33.41 C32.49,33.41 24.82,33.83 24.82,33.83 C38.99,33.85 46.50,33.93 48.06,33.94 C49.69,33.94 53.81,33.08 54.26,33.10 C54.31,33.10 54.33,33.10 54.33,33.10" fill="none" stroke="rgb(217, 144, 0)" stroke-width="2.00" stroke-opacity="1.00" stroke-linejoin="round"/>
<path d="M30.62,34.15 C30.62,34.15 30.46,34.26 30.46,34.26 C34.41,33.37 47.91,34.98 51.17,34.99 C48.29,34.98 38.70,33.48 32.38,33.78 C31.49,33.80 30.23,33.85 29.35,33.94 C34.79,33.32 47.18,34.07 49.51,33.99 C51.06,33.93 55.58,32.99 55.70,33.02 C55.73,33.03 55.77,33.05 55.81,33.10" fill="none" stroke="rgb(217, 144, 0)" stroke-width="2.00" stroke-opacity="1.00" stroke-linejoin="round"/>
<path d="M18.44,38.81 C18.37,46.34 18.27,66.04 18.55,68.75 C19.33,74.24 19.76,75.25 19.92,75.55 C20.11,75.60 41.08,76.39 51.22,76.46 C57.30,76.76 71.42,75.57 73.33,75.57 C73.33,75.57 71.74,38.31 71.74,38.31 C71.74,38.31 71.63,38.60 71.63,38.60" fill="none" stroke="rgb(0, 0, 0)" stroke-width="3.00" stroke-opacity="1.00" stroke-linejoin="round"/>
<path d="M75.12,75.98 C75.12,75.98 74.76,75.98 74.76,75.98 C74.75,75.99 77.59,72.76 80.27,68.99 C81.94,66.65 84.28,64.85 84.26,64.82 C84.26,64.82 83.44,37.76 83.44,37.76" fill="none" stroke="rgb(0, 0, 0)" stroke-width="3.00" stroke-opacity="1.00" stroke-linejoin="round"/>
<path d="M72.18,36.72 C72.18,36.72 72.07,36.79 72.07,36.79 C72.07,36.79 74.90,34.95 74.90,34.95" fill="none" stroke="rgb(0, 0, 0)" stroke-width="2.00" stroke-opacity="1.00" stroke-linejoin="round"/>
<path d="M74.90,34.95 C74.90,34.95 78.77,32.80 78.77,32.80" fill="none" stroke="rgb(0, 0, 0)" stroke-width="2.00" stroke-opacity="1.00" stroke-linejoin="round"/>
<path d="M78.77,32.80 C78.77,32.80 83.30,30.75 83.30,30.75" fill="none" stroke="rgb(0, 0, 0)" stroke-width="2.00" stroke-opacity="1.00" stroke-linejoin="round"/>
<path d="M83.30,30.75 C83.30,30.75 83.44,30.73 83.44,30.73 C83.44,30.73 83.23,35.28 83.23,35.28" fill="none" stroke="rgb(0, 0, 0)" stroke-width="3.00" stroke-opacity="1.00" stroke-linejoin="round"/>
<path d="M17.96,37.33 C17.96,37.33 30.03,31.04 30.03,31.04 C30.03,31.04 30.55,31.04 30.55,31.04" fill="none" stroke="rgb(0, 0, 0)" stroke-width="3.00" stroke-opacity="1.00" stroke-linejoin="round"/>
<path d="M30.54,29.56 C30.54,29.56 83.38,29.79 83.38,29.79" fill="none" stroke="rgb(0, 0, 0)" stroke-width="2.00" stroke-opacity="1.00" stroke-linejoin="round"/>
<path d="M20.49,38.58 C26.09,38.84 50.71,38.71 60.75,38.73 C63.16,38.87 67.69,39.01 69.81,39.01" fill="none" stroke="rgb(0, 0, 0)" stroke-width="2.00" stroke-opacity="1.00" stroke-linejoin="round"/>
<path d="M75.94,34.31 C75.94,34.31 75.81,34.31 75.81,34.31 C75.81,34.31 76.52,52.15 76.52,52.15 C76.52,52.15 76.63,52.03 76.63,52.03" fill="none" stroke="rgb(0, 0, 0)" stroke-width="2.00" stroke-opacity="1.00" stroke-linejoin="round"/>
<path d="M76.86,52.68 C76.86,52.68 79.95,49.36 79.95,49.36 C79.95,49.36 79.74,49.64 79.74,49.64" fill="none" stroke="rgb(0, 0, 0)" stroke-width="2.00" stroke-opacity="1.00" stroke-linejoin="round"/>
<path d="M79.63,33.10 C79.63,33.16 79.63,33.22 79.63,33.28 C79.63,33.69 79.62,36.02 79.63,36.71 C79.94,47.30 80.00,48.47 80.05,49.38 C80.05,49.38 80.05,48.69 80.05,48.69" fill="none" stroke="rgb(0, 0, 0)" stroke-width="2.00" stroke-opacity="1.00" stroke-linejoin="round"/>
<path d="M72.49,36.05 C71.84,35.98 67.89,35.85 65.96,35.85 C51.24,35.25 22.99,35.47 21.84,35.52 C21.84,35.52 21.95,35.52 21.95,35.52" fill="none" stroke="rgb(0, 0, 0)" stroke-width="2.00" stroke-opacity="1.00" stroke-linejoin="round"/>
<path d="M78.65,32.78 C78.65,32.78 78.76,32.78 78.76,32.78 C78.29,32.80 77.65,32.71 77.21,32.65 C74.95,32.44 48.31,32.30 44.85,32.36 C39.03,32.57 31.73,32.10 31.46,32.15 C31.19,32.20 30.31,32.55 29.43,32.57 C29.15,32.58 26.10,32.46 25.95,32.46" fill="none" stroke="rgb(0, 0, 0)" stroke-width="2.00" stroke-opacity="1.00" stroke-linejoin="round"/>
<path d="M77.75,35.84 C77.75,35.84 77.75,35.73 77.75,35.73 C77.87,37.30 77.94,38.29 77.96,38.71 C77.97,39.01 77.97,39.49 77.96,40.15 C77.95,40.33 77.95,40.57 77.96,40.87" fill="none" stroke="rgb(214, 142, 40)" stroke-width="2.00" stroke-opacity="1.00" stroke-linejoin="round"/>
</g>
</svg>
