<?xml version="1.0" encoding="UTF-8" standalone="no"?>
<!DOCTYPE svg PUBLIC "-//W3C//DTD SVG 1.1//EN" "http://www.w3.org/Graphics/SVG/1.1/DTD/svg11.dtd">
<svg width="100.00" height="100.00" viewBox="0.00 0.00 100.00 100.00" xmlns="http://www.w3.org/2000/svg" xmlns:xlink="http://www.w3.org/1999/xlink">
<g stroke-linecap="round" id="圖層_6">
<path d="M21.83,41.11 C21.53,40.95 20.83,40.98 20.37,41.30 C17.06,43.63 11.79,48.20 11.21,49.22 C12.16,50.24 14.04,50.05 14.98,49.71 C18.14,48.47 21.37,44.93 21.19,43.82 C21.00,42.76 17.47,42.69 16.00,43.66 C12.80,45.82 10.55,50.29 10.73,50.79 C12.02,50.82 13.98,49.63 15.64,48.22 C19.55,44.87 21.38,42.36 21.73,41.42 C20.77,41.04 20.38,40.96 19.90,41.21 C16.16,43.21 9.83,49.34 9.99,50.88 C10.24,51.26 11.31,51.36 12.05,51.13 C12.78,50.89 20.11,46.51 21.97,45.47 C14.99,45.61 8.60,52.28 8.71,52.67 C9.42,53.53 12.78,52.05 21.64,47.55 C21.71,47.52 21.85,47.38 21.78,47.38 C21.78,47.38 9.97,50.50 9.97,50.50 C10.39,51.06 12.66,51.44 15.56,51.48 C25.83,51.51 31.14,51.97 31.04,52.08 C30.44,52.08 27.93,51.48 23.47,50.03 C19.84,48.92 15.42,49.80 13.65,50.50 C13.65,50.50 33.45,50.15 33.45,50.15 C32.69,50.45 25.76,45.77 23.39,45.16 C21.73,44.75 18.28,44.34 17.30,44.06 C17.30,44.06 23.88,38.08 23.88,38.08 C23.88,38.08 16.94,40.75 16.94,40.75 C16.94,40.40 18.06,39.57 24.11,39.37 C27.52,39.28 36.58,41.21 37.37,41.34" fill="none" stroke="rgb(173, 141, 108)" stroke-width="3.00" stroke-opacity="1.00" stroke-linejoin="round"/>
<path d="M38.61,42.40 C38.61,42.40 18.78,43.44 18.78,43.44 C25.27,42.26 31.78,42.21 38.10,43.16 C37.99,43.22 20.74,45.04 18.58,44.97 C18.39,44.96 18.28,44.93 18.25,44.88 C22.27,41.58 37.55,42.00 40.23,42.73" fill="none" stroke="rgb(173, 141, 108)" stroke-width="3.00" stroke-opacity="1.00" stroke-linejoin="round"/>
<path d="M47.77,44.40 C48.00,44.43 29.51,45.19 25.98,44.13 C25.98,44.13 37.75,41.85 37.75,41.85" fill="none" stroke="rgb(173, 141, 108)" stroke-width="3.00" stroke-opacity="1.00" stroke-linejoin="round"/>
<path d="M60.38,42.37 C60.38,42.37 62.64,42.51 62.64,42.51 C62.64,42.51 54.18,42.34 54.18,42.34" fill="none" stroke="rgb(173, 141, 108)" stroke-width="3.00" stroke-opacity="1.00" stroke-linejoin="round"/>
<path d="M63.71,39.82 C63.81,39.89 57.90,44.04 55.18,48.28 C54.09,50.01 53.42,51.89 53.39,53.05 C54.39,53.61 54.81,53.74 55.14,53.52 C56.43,52.62 65.30,43.28 66.27,41.94 C65.40,41.83 63.10,43.24 60.50,45.51 C56.39,49.12 54.49,52.27 54.37,52.92 C55.40,53.46 56.08,53.49 56.91,52.93 C58.38,51.93 61.27,49.38 63.78,46.46 C65.75,44.15 66.85,42.11 66.92,40.94 C66.08,40.64 64.58,41.32 63.10,42.31 C56.61,46.72 49.49,55.36 49.07,56.51 C50.19,56.72 52.58,55.72 54.37,54.54 C64.64,47.69 65.50,44.36 65.53,43.59 C63.51,42.92 56.75,44.59 52.43,46.61 C48.25,48.58 41.71,52.99 40.01,54.46 C40.01,54.46 59.52,44.13 59.52,44.13 C58.23,43.69 54.85,44.64 53.87,45.04 C50.08,46.61 38.99,53.14 35.33,55.96 C35.33,55.96 53.84,45.68 53.84,45.68 C48.56,45.11 33.03,54.02 31.28,55.04 C31.28,55.04 47.92,44.51 47.92,44.51 C43.34,43.94 30.49,51.99 30.46,52.06 C30.46,52.06 41.12,45.21 41.12,45.21 C41.12,45.21 27.79,50.88 27.79,50.88 C27.79,50.88 36.95,44.37 36.95,44.37 C36.95,44.37 23.90,48.64 23.90,48.64 C24.26,47.12 24.02,46.52 22.06,46.54 C22.06,46.54 29.58,53.98 29.58,53.98 C29.14,54.47 24.84,54.67 24.09,55.74 C23.15,57.10 22.46,63.29 23.34,65.21 C23.68,65.89 24.93,66.74 25.26,66.61 C25.26,66.61 23.14,52.43 23.14,52.43 C22.46,52.58 22.13,52.83 21.92,53.72 C19.42,64.37 21.89,71.13 22.00,71.38 C22.00,71.38 19.73,57.11 19.73,57.11 C19.73,57.11 21.69,73.43 21.69,73.43 C21.79,73.66 26.43,71.99 26.99,71.80 C29.60,70.91 32.80,70.71 35.81,70.71 C31.61,69.39 24.48,69.44 22.40,70.42 C23.15,70.27 24.52,69.08 26.22,66.67 C26.60,66.12 32.19,57.56 32.90,56.31 C34.26,53.90 34.28,53.15 34.11,52.46 C29.28,53.13 23.00,63.68 22.21,65.36 C23.40,65.37 24.73,64.09 26.88,61.66 C29.18,59.14 34.43,54.52 35.12,53.89 C35.12,53.89 22.88,70.81 22.88,70.81 C23.42,70.90 25.20,69.78 27.62,67.10 C32.18,61.89 39.85,54.71 39.82,54.73 C32.53,61.37 26.17,71.26 25.90,71.81 C26.93,71.75 29.14,69.45 32.70,65.46 C37.26,60.38 42.72,55.90 42.96,55.71 C39.69,57.36 26.76,73.07 26.57,73.62 C28.22,72.91 39.98,61.22 42.10,59.55 C43.80,58.22 48.07,55.43 48.76,54.97 C45.86,55.39 31.63,72.26 31.40,73.43 C32.14,73.91 32.77,73.91 33.59,73.29 C34.53,72.58 44.66,61.68 49.19,57.96 C50.65,56.76 51.66,55.86 52.65,54.89 C48.82,55.30 33.23,72.45 32.61,73.48 C33.45,74.08 34.95,73.61 35.60,73.26 C36.18,72.93 56.29,56.55 56.82,56.08 C54.81,56.28 38.46,71.79 36.05,74.62 C36.06,74.62 32.45,73.21 31.51,73.14 C29.48,73.01 27.91,73.20 26.14,73.50 C29.73,73.49 36.02,73.44 39.51,72.96 C41.58,72.67 54.24,70.15 58.09,70.19 C58.47,70.20 59.29,70.23 60.55,70.28 C60.55,70.28 39.67,69.14 39.67,69.14 C40.28,65.97 52.42,57.09 55.29,55.82 C54.51,57.04 40.58,70.56 39.24,72.13 C37.62,74.07 37.25,74.81 37.02,75.43 C37.97,75.73 42.03,74.33 45.19,72.26 C47.32,70.84 57.67,63.35 57.68,63.34 C44.25,71.51 39.31,75.99 39.07,76.39 C39.67,76.44 53.11,73.10 61.51,72.48 C66.87,72.07 68.17,71.93 69.30,71.76 C69.30,71.76 47.66,70.85 47.66,70.85 C49.45,70.70 54.24,69.97 57.61,68.87 C61.31,67.63 68.20,62.28 69.08,60.47 C69.44,59.66 69.20,58.44 68.63,58.00 C67.45,57.13 62.93,57.45 59.63,59.19 C52.44,63.06 48.96,69.04 48.83,69.37 C49.86,69.18 56.12,61.85 60.10,57.72 C64.74,52.87 66.98,49.80 66.98,49.17 C65.17,49.80 56.84,56.62 54.23,59.20 C51.44,61.97 49.82,64.35 50.03,64.25 C50.03,64.25 69.58,44.47 69.58,44.47 C68.71,44.13 66.42,45.31 64.95,46.45 C61.98,48.79 54.06,56.97 54.30,56.90 C54.30,56.90 71.06,41.85 71.06,41.85 C69.18,42.21 64.41,46.31 60.53,51.53 C56.42,57.08 51.40,66.85 51.53,68.70 C52.75,68.21 59.18,59.93 62.75,55.58 C66.88,50.73 70.68,47.04 70.82,46.86 C70.82,46.86 52.93,71.42 52.93,71.42 C52.93,71.42 70.13,50.43 70.13,50.43 C66.27,53.67 54.45,72.49 53.94,73.90 C54.89,73.94 55.52,73.72 56.32,72.76 C59.23,69.29 69.05,54.50 69.13,54.41 C69.13,54.41 56.08,74.65 56.08,74.65 C56.96,74.76 57.44,74.66 58.13,73.92 C60.14,71.72 68.63,60.20 71.29,57.91 C71.64,57.61 71.77,57.47 71.85,57.32 C70.16,57.99 66.50,62.77 62.15,69.41 C60.21,72.51 60.11,72.92 59.97,73.79 C61.22,74.08 62.07,74.00 62.86,73.35 C66.41,70.07 71.52,65.50 72.07,64.99 C70.37,65.26 62.39,73.50 62.14,74.93 C62.74,75.28 63.23,75.35 63.95,74.89 C69.96,71.05 72.75,68.95 72.71,68.85 C72.39,68.77 69.60,68.62 68.92,68.28 C68.16,67.89 67.00,66.18 66.87,66.08 C65.97,66.63 65.50,69.55 65.51,71.67 C65.53,72.67 65.88,73.96 66.51,74.31 C68.23,73.64 71.65,65.51 71.47,64.13 C70.36,64.22 68.80,66.62 68.51,67.89 C68.23,69.14 68.42,70.92 68.82,71.30 C70.05,71.64 73.26,67.52 73.43,66.35 C72.04,66.81 70.71,71.50 71.45,71.92 C71.45,71.92 77.89,63.34 77.89,63.34 C77.89,63.34 70.28,72.55 70.28,72.55 C70.28,72.55 78.70,63.01 78.70,63.01 C78.70,63.01 75.02,68.33 75.02,68.33 C75.02,68.33 79.72,61.15 79.72,61.15 C79.53,61.00 78.89,60.89 78.48,61.26 C75.48,64.07 73.96,67.64 73.90,67.99 C74.56,68.33 75.87,67.31 77.98,65.12 C78.76,64.31 79.76,63.29 79.80,63.24 C79.80,63.24 73.76,70.50 73.76,70.50 C73.76,70.50 81.08,63.89 81.08,63.89 C81.08,63.89 76.45,68.25 76.45,68.25 C76.47,67.85 79.48,54.78 79.54,49.97 C79.57,45.33 78.73,42.35 78.67,42.30 C78.67,42.30 79.03,61.50 79.03,61.50 C79.03,61.50 79.96,33.64 79.96,33.64 C79.96,33.64 77.91,61.81 77.91,61.81 C76.60,59.85 79.07,36.09 78.50,34.98 C77.45,35.99 75.12,48.33 74.62,53.78 C74.06,60.16 74.67,65.78 75.17,66.25 C75.50,65.57 76.55,49.26 76.74,46.70 C77.15,40.66 76.47,38.96 76.10,38.24 C75.23,38.67 74.31,41.17 73.73,43.37 C72.53,48.05 71.83,58.68 72.21,62.05 C72.68,65.97 73.40,67.12 73.71,67.46 C73.71,67.46 74.19,37.93 74.19,37.93 C74.19,37.93 70.78,47.98 70.78,47.98 C71.23,47.99 73.99,38.91 73.93,36.96 C73.93,36.88 73.89,36.81 73.83,36.74 C73.83,36.74 70.58,43.27 70.58,43.27 C71.34,43.50 73.25,41.54 74.35,39.84 C75.28,38.38 76.21,36.29 76.19,35.83 C76.19,35.83 73.24,37.24 73.24,37.24 C73.24,37.24 77.46,35.48 77.46,35.48 C75.85,39.21 72.60,63.52 72.66,66.89 C72.66,66.89 74.86,64.75 74.86,64.75 C74.86,64.75 73.50,67.47 73.50,67.47 C73.57,67.57 75.25,67.93 75.79,68.21 C76.42,68.57 75.08,70.98 75.02,71.50 C75.02,71.50 77.15,71.04 77.15,71.04 C77.15,71.04 74.81,72.64 74.81,72.64 C74.81,72.64 74.48,72.04 74.48,72.04" fill="none" stroke="rgb(173, 141, 108)" stroke-width="3.00" stroke-opacity="1.00" stroke-linejoin="round"/>
<path d="M26.91,34.50 C26.91,34.50 27.58,33.52 27.58,33.52 C27.58,33.52 24.07,35.59 24.07,35.59 C24.07,35.59 28.51,34.45 28.51,34.45 C28.51,34.45 23.14,36.10 23.14,36.10 C23.14,36.10 28.80,35.35 28.80,35.35 C28.80,35.35 21.59,36.93 21.59,36.93 C21.59,36.93 26.76,36.41 26.76,36.41 C26.76,36.41 28.41,34.17 28.41,34.17 C28.41,34.17 32.15,36.28 32.15,36.28 C32.71,34.96 30.98,34.02 28.82,34.04 C28.82,34.04 35.26,34.07 35.26,34.07" fill="none" stroke="rgb(109, 93, 77)" stroke-width="2.00" stroke-opacity="1.00" stroke-linejoin="round"/>
<path d="M35.28,35.15 C35.28,35.15 30.50,33.86 30.50,33.86 C30.50,33.86 34.84,34.48 34.84,34.48" fill="none" stroke="rgb(109, 93, 77)" stroke-width="2.00" stroke-opacity="1.00" stroke-linejoin="round"/>
<path d="M34.91,35.79 C34.91,35.79 31.69,35.79 31.69,35.79 C31.69,35.79 36.00,36.36 36.00,36.36" fill="none" stroke="rgb(109, 93, 77)" stroke-width="2.00" stroke-opacity="1.00" stroke-linejoin="round"/>
<path d="M35.10,36.20 C35.10,36.20 37.19,36.90 37.19,36.90" fill="none" stroke="rgb(109, 93, 77)" stroke-width="2.00" stroke-opacity="1.00" stroke-linejoin="round"/>
<path d="M35.23,34.04 C35.23,34.04 33.88,33.73 33.88,33.73 C33.86,33.79 33.89,34.07 33.88,34.50 C33.88,34.58 33.88,34.68 33.88,34.79" fill="none" stroke="rgb(109, 93, 77)" stroke-width="2.00" stroke-opacity="1.00" stroke-linejoin="round"/>
<path d="M66.22,33.31 C66.22,33.31 66.22,33.21 66.22,33.21" fill="none" stroke="rgb(109, 93, 77)" stroke-width="2.00" stroke-opacity="1.00" stroke-linejoin="round"/>
<path d="M66.59,34.73 C66.59,34.73 67.52,33.00 67.52,33.00" fill="none" stroke="rgb(109, 93, 77)" stroke-width="2.00" stroke-opacity="1.00" stroke-linejoin="round"/>
<path d="M67.48,34.45 C67.48,34.45 70.04,33.83 70.04,33.83 C70.04,33.83 67.00,33.77 67.00,33.77" fill="none" stroke="rgb(109, 93, 77)" stroke-width="2.00" stroke-opacity="1.00" stroke-linejoin="round"/>
<path d="M68.09,32.27 C68.09,32.27 73.22,32.95 73.22,32.95 C73.22,32.95 66.04,35.79 66.04,35.79 C66.04,35.79 70.97,34.04 70.97,34.04 C70.97,34.04 66.43,36.41 66.43,36.41 C66.43,36.41 69.73,36.34 69.73,36.34 C69.73,36.34 67.92,36.41 67.92,36.41 C67.92,36.41 74.04,32.41 74.04,32.41 C74.04,32.41 71.93,33.31 71.93,33.31 C71.93,33.31 75.31,31.76 75.31,31.76 C75.31,31.76 75.62,30.65 75.62,30.65 C75.30,30.57 73.08,32.03 71.95,32.62 C71.63,32.79 71.11,32.84 70.89,33.06 C70.87,33.08 70.86,33.09 70.87,33.11" fill="none" stroke="rgb(109, 93, 77)" stroke-width="2.00" stroke-opacity="1.00" stroke-linejoin="round"/>
<path d="M82.08,33.99 C82.08,33.99 81.84,33.86 81.84,33.86 C81.79,34.05 81.87,34.91 82.95,37.16 C82.95,37.16 83.69,39.34 83.78,39.41 C83.78,39.41 83.16,34.40 83.16,34.40 C83.16,34.40 85.92,39.90 85.92,39.90 C85.92,39.90 84.43,35.20 84.43,35.20 C84.43,35.20 88.07,40.83 88.07,40.83 C88.07,40.83 85.85,36.39 85.85,36.39 C85.85,36.39 87.91,40.05 87.91,40.05 C87.91,40.05 83.26,40.34 83.26,40.34 C83.26,40.34 89.31,40.96 89.31,40.96 C89.31,40.96 87.53,39.41 87.53,39.41 C87.53,39.41 90.39,40.55 90.39,40.55 C90.39,40.55 90.06,40.65 90.06,40.65" fill="none" stroke="rgb(109, 93, 77)" stroke-width="2.00" stroke-opacity="1.00" stroke-linejoin="round"/>
<path d="M17.99,55.88 C17.99,55.88 20.28,75.55 20.28,75.55 C20.47,75.60 28.38,75.88 33.69,76.39 C36.05,76.43 47.83,76.31 53.89,76.58 C58.93,76.67 68.73,75.57 72.42,75.57" fill="none" stroke="rgb(0, 0, 0)" stroke-width="3.00" stroke-opacity="1.00" stroke-linejoin="round"/>
<path d="M72.42,75.57 C72.42,75.57 70.87,38.31 70.87,38.31 C70.87,38.31 70.76,38.60 70.76,38.60" fill="none" stroke="rgb(0, 0, 0)" stroke-width="3.00" stroke-opacity="1.00" stroke-linejoin="round"/>
<path d="M74.12,75.98 C74.12,75.98 73.76,75.98 73.76,75.98 C73.75,75.99 76.59,72.76 79.27,68.99 C80.94,66.65 83.28,64.85 83.26,64.82 C83.26,64.82 82.44,37.76 82.44,37.76" fill="none" stroke="rgb(0, 0, 0)" stroke-width="3.00" stroke-opacity="1.00" stroke-linejoin="round"/>
<path d="M16.84,38.12 C16.91,37.95 16.92,37.87 16.89,37.88 C16.08,38.09 5.35,51.71 4.75,52.62 C4.56,53.88 17.00,54.58 18.71,54.66 C22.20,54.82 29.97,54.32 31.14,54.38 C32.45,54.46 42.97,55.44 43.82,55.39 C44.63,55.34 46.97,54.60 49.36,54.63 C52.86,54.68 56.76,54.06 57.25,54.15 C57.65,54.22 58.85,54.59 60.33,54.80 C60.33,54.80 70.04,38.07 70.04,38.07" fill="none" stroke="rgb(0, 0, 0)" stroke-width="3.00" stroke-opacity="1.00" stroke-linejoin="round"/>
<path d="M71.18,36.72 C71.18,36.72 71.07,36.79 71.07,36.79 C71.07,36.79 82.44,30.73 82.44,30.73 C82.44,30.73 82.23,35.28 82.23,35.28" fill="none" stroke="rgb(0, 0, 0)" stroke-width="3.00" stroke-opacity="1.00" stroke-linejoin="round"/>
<path d="M83.57,31.56 C83.57,31.56 83.37,31.37 83.37,31.37 C84.02,31.99 86.42,34.62 88.15,36.68 C91.59,40.63 93.38,41.64 93.39,41.68 C93.39,41.68 84.13,43.02 84.13,43.02" fill="none" stroke="rgb(0, 0, 0)" stroke-width="3.00" stroke-opacity="1.00" stroke-linejoin="round"/>
<path d="M16.96,37.33 C16.96,37.33 29.03,31.04 29.03,31.04 C29.03,31.04 33.21,31.10 33.21,31.10" fill="none" stroke="rgb(0, 0, 0)" stroke-width="3.00" stroke-opacity="1.00" stroke-linejoin="round"/>
<path d="M68.73,30.28 C68.73,30.28 79.24,30.01 79.24,30.01" fill="none" stroke="rgb(0, 0, 0)" stroke-width="3.00" stroke-opacity="1.00" stroke-linejoin="round"/>
<path d="M21.07,38.58 C21.07,38.58 36.66,38.68 36.66,38.68" fill="none" stroke="rgb(0, 0, 0)" stroke-width="3.00" stroke-opacity="1.00" stroke-linejoin="round"/>
<path d="M65.65,38.27" fill="none" stroke="rgb(0, 0, 0)" stroke-width="3.00" stroke-opacity="1.00" stroke-linejoin="round"/>
<path d="M28.82,31.76 C28.82,31.76 28.56,31.66 28.56,31.66 C28.56,31.66 29.34,36.83 29.34,36.83 C29.34,36.83 29.34,36.48 29.34,36.48" fill="none" stroke="rgb(0, 0, 0)" stroke-width="2.00" stroke-opacity="1.00" stroke-linejoin="round"/>
<path d="M34.87,34.70 C34.87,34.70 36.73,35.46 36.73,35.46" fill="none" stroke="rgb(109, 93, 77)" stroke-width="2.00" stroke-opacity="1.00" stroke-linejoin="round"/>
<path d="M35.48,36.09 C35.48,36.09 36.58,36.85 36.58,36.85" fill="none" stroke="rgb(109, 93, 77)" stroke-width="2.00" stroke-opacity="1.00" stroke-linejoin="round"/>
<path d="M64.46,34.91 C64.46,34.91 63.78,36.44 63.78,36.44" fill="none" stroke="rgb(109, 93, 77)" stroke-width="2.00" stroke-opacity="1.00" stroke-linejoin="round"/>
<path d="M47.65,66.93 C47.65,66.93 50.38,65.19 50.38,65.19 C50.38,65.19 44.78,68.64 44.78,68.64 C44.78,68.64 50.52,66.23 50.52,66.23 C50.15,65.52 45.91,67.34 45.80,67.54 C45.78,67.58 45.74,67.65 45.68,67.74" fill="none" stroke="rgb(173, 141, 108)" stroke-width="2.00" stroke-opacity="1.00" stroke-linejoin="round"/>
<path d="M48.64,45.94 C48.64,45.94 48.06,44.41 48.06,44.41" fill="none" stroke="rgb(173, 141, 108)" stroke-width="2.00" stroke-opacity="1.00" stroke-linejoin="round"/>
<path d="M51.42,43.44 C51.42,43.44 54.70,43.31 54.70,43.31 C54.70,43.31 47.77,44.90 47.77,44.90" fill="none" stroke="rgb(173, 141, 108)" stroke-width="2.00" stroke-opacity="1.00" stroke-linejoin="round"/>
<path d="M50.74,44.24 C50.81,45.31 50.77,46.91 50.73,47.57 C50.72,47.71 50.70,47.94 50.67,48.26" fill="none" stroke="rgb(173, 141, 108)" stroke-width="2.00" stroke-opacity="1.00" stroke-linejoin="round"/>
<path d="M46.84,51.45 C46.84,51.45 46.78,51.48 46.78,51.48 C46.86,51.52 46.97,51.55 47.59,51.68 C49.81,52.15 52.36,52.39 52.35,52.26 C50.16,51.80 47.42,51.14 47.36,51.16 C47.36,51.16 47.38,51.16 47.41,51.16" fill="none" stroke="rgb(173, 141, 108)" stroke-width="2.00" stroke-opacity="1.00" stroke-linejoin="round"/>
<path d="M64.70,40.84 C64.70,40.84 64.78,40.84 64.78,40.84 C64.74,40.83 64.63,40.87 64.46,40.96 C64.30,41.04 63.85,41.29 63.10,41.70" fill="none" stroke="rgb(173, 141, 108)" stroke-width="2.00" stroke-opacity="1.00" stroke-linejoin="round"/>
<path d="M21.33,61.02 C21.33,61.02 20.99,61.13 20.99,61.13 C21.12,61.12 36.05,61.11 37.51,61.13 C41.32,61.18 65.78,58.22 67.83,58.23 C67.83,58.23 68.03,43.97 68.03,43.97 C68.03,43.97 64.46,56.81 64.46,56.81 C64.46,56.81 66.67,50.26 66.67,50.26 C66.67,50.26 63.19,56.70 63.19,56.70 C63.65,55.74 65.08,52.88 65.65,51.39 C65.77,50.96 66.46,48.95 66.41,48.44 C65.73,48.61 64.67,50.35 64.29,51.48 C62.51,56.85 62.38,58.21 62.38,58.23 C62.38,58.23 66.44,56.03 66.44,56.03 C63.49,57.46 59.17,58.83 57.36,59.03 C56.24,59.14 51.05,59.58 51.02,59.62 C51.02,59.62 59.42,57.42 59.42,57.42 C59.42,57.42 46.03,58.46 46.03,58.46 C46.03,58.46 52.99,57.42 52.99,57.42 C47.03,57.20 35.53,60.02 35.13,60.09 C35.13,60.09 40.70,59.97 40.70,59.97 C40.70,59.97 26.55,60.20 26.55,60.20 C26.55,60.20 35.65,58.84 35.65,58.84 C35.65,58.84 22.75,59.51 22.75,59.51 C22.75,59.51 28.96,58.23 28.96,58.23 C27.21,58.21 22.71,58.94 21.97,58.93 C20.80,58.86 20.45,57.28 20.41,57.19 C20.41,57.19 22.49,60.90 22.49,60.90 C22.49,60.90 21.51,57.45 21.51,57.45 C21.51,57.45 33.13,58.12 33.13,58.12 C33.13,58.12 24.75,57.19 24.75,57.19 C35.25,55.81 40.78,57.57 40.93,57.57 C40.93,57.57 35.71,58.00 35.71,58.00 C35.71,58.00 50.29,56.73 50.29,56.73 C50.29,56.73 43.97,56.99 43.97,56.99 C43.97,56.99 52.49,58.03 52.49,58.03 C52.49,58.03 44.32,59.74 44.32,59.74 C44.32,59.74 62.15,57.19 62.15,57.19 C62.15,57.19 51.83,57.68 51.83,57.68 C51.83,57.68 66.20,56.20 66.20,56.20 C66.20,56.20 65.74,52.78 65.74,52.78 C65.77,53.02 65.64,54.54 65.39,55.28 C65.38,55.33 65.38,55.38 65.39,55.43" fill="none" stroke="rgb(109, 93, 77)" stroke-width="2.00" stroke-opacity="1.00" stroke-linejoin="round"/>
<path d="M29.33,35.86 C29.33,35.86 28.75,35.86 28.75,35.86 C28.75,35.86 34.67,35.97 34.67,35.97 C34.67,35.97 27.71,35.97 27.71,35.97 C27.71,35.97 36.42,36.09 36.42,36.09" fill="none" stroke="rgb(204, 204, 204)" stroke-width="2.00" stroke-opacity="1.00" stroke-linejoin="round"/>
<path d="M35.75,36.67 C35.75,36.67 31.42,36.32 31.42,36.32 C31.42,36.32 36.14,36.62 36.14,36.62" fill="none" stroke="rgb(204, 204, 204)" stroke-width="2.00" stroke-opacity="1.00" stroke-linejoin="round"/>
<path d="M65.42,36.90 C65.52,36.90 66.92,33.58 67.83,32.52 C67.98,32.35 68.59,31.88 68.64,31.80 C68.64,31.80 66.08,34.75 66.08,34.75" fill="none" stroke="rgb(204, 204, 204)" stroke-width="2.00" stroke-opacity="1.00" stroke-linejoin="round"/>
<path d="M67.07,35.21 C67.07,35.21 70.15,33.19 70.15,33.19 C70.15,33.19 66.49,36.64 66.49,36.64 C66.49,36.64 71.89,32.73 71.89,32.73 C71.89,32.73 67.54,36.49 67.54,36.49 C67.54,36.49 72.70,32.38 72.70,32.38 C72.70,32.38 68.32,36.06 68.32,36.06 C68.32,36.06 72.93,32.03 72.93,32.03 C72.93,32.03 67.62,36.99 67.62,36.99 C67.62,36.99 71.74,32.49 71.74,32.49 C71.35,32.71 71.08,32.86 70.93,32.96 C70.78,33.05 70.54,33.22 70.22,33.46" fill="none" stroke="rgb(204, 204, 204)" stroke-width="2.00" stroke-opacity="1.00" stroke-linejoin="round"/>
<path d="M32.99,33.65 C32.99,33.65 32.12,33.77 32.12,33.77 C32.12,33.77 34.26,33.76 34.26,33.76" fill="none" stroke="rgb(255, 255, 255)" stroke-width="2.00" stroke-opacity="1.00" stroke-linejoin="round"/>
<path d="M34.44,33.31 C34.44,33.31 35.21,34.26 35.21,34.26" fill="none" stroke="rgb(255, 255, 255)" stroke-width="2.00" stroke-opacity="1.00" stroke-linejoin="round"/>
<path d="M34.44,34.00 C34.44,34.00 32.81,34.00 32.81,34.00 C32.81,34.00 34.09,33.98 34.09,33.98" fill="none" stroke="rgb(255, 255, 255)" stroke-width="2.00" stroke-opacity="1.00" stroke-linejoin="round"/>
<path d="M67.25,32.03 C67.25,32.03 66.61,33.10 66.61,33.10" fill="none" stroke="rgb(255, 255, 255)" stroke-width="2.00" stroke-opacity="1.00" stroke-linejoin="round"/>
<path d="M67.71,32.26 C67.71,32.26 66.26,33.83 66.26,33.83" fill="none" stroke="rgb(255, 255, 255)" stroke-width="2.00" stroke-opacity="1.00" stroke-linejoin="round"/>
<path d="M68.17,32.61" fill="none" stroke="rgb(255, 255, 255)" stroke-width="2.00" stroke-opacity="1.00" stroke-linejoin="round"/>
<path d="M28.20,36.02 C28.20,36.02 28.09,35.99 28.09,35.99 C28.13,35.91 28.21,35.77 28.40,35.67 C30.42,34.74 33.16,33.46 33.89,33.12" fill="none" stroke="rgb(0, 0, 0)" stroke-width="2.00" stroke-opacity="1.00" stroke-linejoin="round"/>
<path d="M30.03,35.62 C30.03,35.62 35.10,35.30 35.10,35.30" fill="none" stroke="rgb(0, 0, 0)" stroke-width="2.00" stroke-opacity="1.00" stroke-linejoin="round"/>
<path d="M68.25,30.75 C68.25,30.75 70.15,30.62 70.15,30.62" fill="none" stroke="rgb(0, 0, 0)" stroke-width="2.00" stroke-opacity="1.00" stroke-linejoin="round"/>
<path d="M71.59,31.42 C71.59,31.42 71.65,31.26 71.65,31.26 C71.65,31.26 66.96,33.79 66.96,33.79" fill="none" stroke="rgb(0, 0, 0)" stroke-width="2.00" stroke-opacity="1.00" stroke-linejoin="round"/>
<path d="M65.69,35.11 C65.69,35.11 65.62,35.04 65.62,35.04" fill="none" stroke="rgb(0, 0, 0)" stroke-width="2.00" stroke-opacity="1.00" stroke-linejoin="round"/>
<path d="M65.62,37.70 C65.63,37.87 65.73,38.52 65.80,38.70 C65.83,38.78 65.89,38.83 65.97,38.87" fill="none" stroke="rgb(0, 0, 0)" stroke-width="2.00" stroke-opacity="1.00" stroke-linejoin="round"/>
<path d="M28.00,36.55 C27.83,36.48 27.76,36.46 27.54,36.44 C27.50,36.43 27.44,36.42 27.36,36.41 C27.36,36.41 27.36,36.32 27.36,36.32 C27.39,36.50 27.42,36.69 27.45,36.87 C27.46,36.97 27.49,37.14 27.52,37.37" fill="none" stroke="rgb(0, 0, 0)" stroke-width="2.00" stroke-opacity="1.00" stroke-linejoin="round"/>
<path d="M72.46,30.70 C72.46,30.70 72.38,30.46 72.38,30.46 C72.25,31.22 72.20,32.38 72.26,33.39 C72.29,33.83 72.41,34.29 72.52,34.64 C72.54,34.69 72.56,34.75 72.58,34.81" fill="none" stroke="rgb(0, 0, 0)" stroke-width="2.00" stroke-opacity="1.00" stroke-linejoin="round"/>
<path d="M40.16,41.54 C40.16,41.54 42.38,43.03 42.38,43.03" fill="none" stroke="rgb(173, 141, 108)" stroke-width="3.00" stroke-opacity="1.00" stroke-linejoin="round"/>
<path d="M39.37,41.16 C39.37,41.16 39.08,41.01 39.08,41.01" fill="none" stroke="rgb(173, 141, 108)" stroke-width="3.00" stroke-opacity="1.00" stroke-linejoin="round"/>
<path d="M42.87,43.49 C42.87,43.49 45.17,44.14 45.17,44.14" fill="none" stroke="rgb(173, 141, 108)" stroke-width="3.00" stroke-opacity="1.00" stroke-linejoin="round"/>
<path d="M45.80,44.22 C45.80,44.22 47.51,44.63 47.51,44.63" fill="none" stroke="rgb(173, 141, 108)" stroke-width="3.00" stroke-opacity="1.00" stroke-linejoin="round"/>
<path d="M39.56,40.70 C39.56,40.70 41.53,42.08 41.53,42.08" fill="none" stroke="rgb(173, 141, 108)" stroke-width="3.00" stroke-opacity="1.00" stroke-linejoin="round"/>
<path d="M58.77,41.06 C58.77,41.06 60.16,40.85 60.16,40.85" fill="none" stroke="rgb(173, 141, 108)" stroke-width="3.00" stroke-opacity="1.00" stroke-linejoin="round"/>
<path d="M63.24,38.07 C63.24,38.07 63.80,37.89 63.80,37.89" fill="none" stroke="rgb(173, 141, 108)" stroke-width="3.00" stroke-opacity="1.00" stroke-linejoin="round"/>
<path d="M35.78,34.31 C35.78,34.31 35.50,34.15 35.50,34.15" fill="none" stroke="rgb(109, 93, 77)" stroke-width="2.00" stroke-opacity="1.00" stroke-linejoin="round"/>
<path d="M36.25,34.63 C36.25,34.63 36.92,36.83 36.92,36.83" fill="none" stroke="rgb(109, 93, 77)" stroke-width="2.00" stroke-opacity="1.00" stroke-linejoin="round"/>
<path d="M35.88,35.11 C35.88,35.11 35.57,34.77 35.57,34.77" fill="none" stroke="rgb(109, 93, 77)" stroke-width="2.00" stroke-opacity="1.00" stroke-linejoin="round"/>
<path d="M36.50,36.21 C36.50,36.21 35.86,35.44 35.86,35.44" fill="none" stroke="rgb(109, 93, 77)" stroke-width="2.00" stroke-opacity="1.00" stroke-linejoin="round"/>
<path d="M35.54,34.11 C35.54,34.11 35.12,33.62 35.12,33.62" fill="none" stroke="rgb(109, 93, 77)" stroke-width="2.00" stroke-opacity="1.00" stroke-linejoin="round"/>
<path d="M65.82,32.29 C65.82,32.29 65.45,30.79 65.45,30.79" fill="none" stroke="rgb(109, 93, 77)" stroke-width="2.00" stroke-opacity="1.00" stroke-linejoin="round"/>
<path d="M35.15,32.10 C35.15,32.10 35.48,30.45 35.48,30.45" fill="none" stroke="rgb(0, 0, 0)" stroke-width="3.00" stroke-opacity="1.00" stroke-linejoin="round"/>
<path d="M64.63,37.00 C64.63,37.00 65.25,36.78 65.25,36.78" fill="none" stroke="rgb(0, 0, 0)" stroke-width="3.00" stroke-opacity="1.00" stroke-linejoin="round"/>
<path d="M35.88,33.96 C35.88,33.96 35.56,33.70 35.56,33.70" fill="none" stroke="rgb(109, 93, 77)" stroke-width="2.00" stroke-opacity="1.00" stroke-linejoin="round"/>
<path d="M49.67,43.67 C49.67,43.67 51.32,43.63 51.32,43.63" fill="none" stroke="rgb(173, 141, 108)" stroke-width="2.00" stroke-opacity="1.00" stroke-linejoin="round"/>
<path d="M51.60,43.04 C51.60,43.04 51.91,43.06 51.91,43.06" fill="none" stroke="rgb(173, 141, 108)" stroke-width="2.00" stroke-opacity="1.00" stroke-linejoin="round"/>
<path d="M64.97,36.52 C64.97,36.52 67.60,34.01 67.60,34.01" fill="none" stroke="rgb(204, 204, 204)" stroke-width="2.00" stroke-opacity="1.00" stroke-linejoin="round"/>
<path d="M64.85,36.76 C64.85,36.76 65.81,37.25 65.81,37.25" fill="none" stroke="rgb(204, 204, 204)" stroke-width="2.00" stroke-opacity="1.00" stroke-linejoin="round"/>
<path d="M65.70,34.59 C65.70,34.59 67.27,33.47 67.27,33.47" fill="none" stroke="rgb(204, 204, 204)" stroke-width="2.00" stroke-opacity="1.00" stroke-linejoin="round"/>
<path d="M36.00,33.52 C36.00,33.52 35.73,32.07 35.73,32.07" fill="none" stroke="rgb(255, 255, 255)" stroke-width="2.00" stroke-opacity="1.00" stroke-linejoin="round"/>
<path d="M64.39,35.61" fill="none" stroke="rgb(0, 0, 0)" stroke-width="2.00" stroke-opacity="1.00" stroke-linejoin="round"/>
<path d="M65.45,35.57 C65.45,35.57 65.30,36.06 65.30,36.06" fill="none" stroke="rgb(0, 0, 0)" stroke-width="2.00" stroke-opacity="1.00" stroke-linejoin="round"/>
<path d="M64.87,36.43 C64.87,36.43 63.41,37.47 63.41,37.47" fill="none" stroke="rgb(0, 0, 0)" stroke-width="2.00" stroke-opacity="1.00" stroke-linejoin="round"/>
<path d="M36.78,39.20 C36.78,39.20 33.98,36.55 33.98,36.55" fill="none" stroke="rgb(173, 141, 108)" stroke-width="3.88" stroke-opacity="1.00" stroke-linejoin="round"/>
<path d="M41.31,41.78 C41.31,41.78 44.86,42.77 44.86,42.77" fill="none" stroke="rgb(173, 141, 108)" stroke-width="3.88" stroke-opacity="1.00" stroke-linejoin="round"/>
<path d="M38.32,38.59 C38.32,38.59 54.43,39.03 54.43,39.03 C54.43,39.03 56.89,38.67 56.89,38.67" fill="none" stroke="rgb(173, 141, 108)" stroke-width="3.88" stroke-opacity="1.00" stroke-linejoin="round"/>
<path d="M49.69,38.95 C49.60,38.93 52.17,36.90 60.07,36.19 C60.07,36.19 63.18,35.19 63.18,35.19 C63.18,35.19 65.26,34.05 65.26,34.05" fill="none" stroke="rgb(173, 141, 108)" stroke-width="3.88" stroke-opacity="1.00" stroke-linejoin="round"/>
<path d="M33.04,30.16 C33.04,30.16 32.09,29.24 32.09,29.24" fill="none" stroke="rgb(109, 93, 77)" stroke-width="2.59" stroke-opacity="1.00" stroke-linejoin="round"/>
<path d="M32.59,31.10 C32.59,31.10 31.92,29.93 31.92,29.93" fill="none" stroke="rgb(109, 93, 77)" stroke-width="2.59" stroke-opacity="1.00" stroke-linejoin="round"/>
<path d="M33.35,32.51 C33.35,32.51 34.94,33.03 34.94,33.03" fill="none" stroke="rgb(109, 93, 77)" stroke-width="2.59" stroke-opacity="1.00" stroke-linejoin="round"/>
<path d="M34.65,25.60 C34.65,25.60 64.50,24.63 64.50,24.63" fill="none" stroke="rgb(0, 0, 0)" stroke-width="3.88" stroke-opacity="1.00" stroke-linejoin="round"/>
<path d="M36.07,35.13 C36.07,35.13 63.02,34.59 63.02,34.59 C63.02,34.59 64.98,33.89 64.98,33.89" fill="none" stroke="rgb(0, 0, 0)" stroke-width="3.88" stroke-opacity="1.00" stroke-linejoin="round"/>
<path d="M35.01,28.66 C35.01,28.66 45.46,30.27 45.46,30.27 C45.46,30.27 33.35,30.38 33.35,30.38" fill="none" stroke="rgb(109, 93, 77)" stroke-width="2.59" stroke-opacity="1.00" stroke-linejoin="round"/>
<path d="M35.38,29.45 C35.38,29.45 36.68,29.53 36.68,29.53 C36.68,29.53 45.61,31.17 45.61,31.17 C45.61,31.17 33.55,31.34 33.55,31.34" fill="none" stroke="rgb(109, 93, 77)" stroke-width="2.59" stroke-opacity="1.00" stroke-linejoin="round"/>
<path d="M34.60,30.79 C34.60,30.79 45.53,30.27 45.53,30.27 C45.53,30.27 35.22,30.12 35.22,30.12 C35.22,30.12 58.65,29.40 58.65,29.40 C58.36,29.59 53.40,30.36 50.55,30.50 C46.46,30.67 38.80,28.79 38.48,28.62 C40.26,27.48 54.30,26.76 58.39,27.49 C60.04,27.80 60.99,28.70 60.90,29.25 C60.47,29.77 58.67,30.26 56.69,30.27 C48.63,30.25 39.91,29.33 39.94,29.22 C39.94,29.22 65.55,29.74 65.55,29.74 C67.12,31.23 41.90,32.62 40.88,32.37 C40.88,32.37 64.68,30.91 64.68,30.91" fill="none" stroke="rgb(109, 93, 77)" stroke-width="2.59" stroke-opacity="1.00" stroke-linejoin="round"/>
<path d="M65.30,30.11 C65.30,30.11 64.07,30.18 64.07,30.18 C64.07,30.18 53.63,29.07 53.63,29.07 C53.63,29.07 65.05,28.48 65.05,28.48" fill="none" stroke="rgb(109, 93, 77)" stroke-width="2.59" stroke-opacity="1.00" stroke-linejoin="round"/>
<path d="M64.13,29.37 C63.95,29.37 63.78,29.37 63.60,29.37 C63.58,29.37 63.50,29.37 63.53,29.37" fill="none" stroke="rgb(109, 93, 77)" stroke-width="2.59" stroke-opacity="1.00" stroke-linejoin="round"/>
<path d="M57.23,26.97 C57.49,26.93 59.35,27.19 60.12,27.30 C63.55,27.81 64.52,28.06 64.75,28.14" fill="none" stroke="rgb(109, 93, 77)" stroke-width="2.59" stroke-opacity="1.00" stroke-linejoin="round"/>
<path d="M63.78,30.17 C63.78,30.17 60.08,30.42 60.08,30.42 C61.14,30.42 63.35,30.42 64.50,30.42 C64.85,30.42 65.19,30.42 65.54,30.42" fill="none" stroke="rgb(109, 93, 77)" stroke-width="2.59" stroke-opacity="1.00" stroke-linejoin="round"/>
<path d="M57.68,31.32 C58.24,31.32 58.67,31.33 58.95,31.35 C62.16,31.57 64.78,31.63 64.94,31.64" fill="none" stroke="rgb(109, 93, 77)" stroke-width="2.59" stroke-opacity="1.00" stroke-linejoin="round"/>
<path d="M64.88,31.77 C64.88,31.77 65.33,31.77 65.33,31.77" fill="none" stroke="rgb(109, 93, 77)" stroke-width="2.59" stroke-opacity="1.00" stroke-linejoin="round"/>
<path d="M47.08,41.61 C47.08,41.61 49.99,41.60 49.99,41.60" fill="none" stroke="rgb(173, 141, 108)" stroke-width="2.59" stroke-opacity="1.00" stroke-linejoin="round"/>
<path d="M47.61,40.68 C47.61,40.68 53.07,40.43 53.07,40.43" fill="none" stroke="rgb(173, 141, 108)" stroke-width="2.59" stroke-opacity="1.00" stroke-linejoin="round"/>
<path d="M33.38,31.90 C33.38,31.90 34.39,31.87 34.39,31.87 C34.39,31.87 41.89,32.07 41.89,32.07 C41.89,32.07 33.21,32.51 33.21,32.51" fill="none" stroke="rgb(204, 204, 204)" stroke-width="2.59" stroke-opacity="1.00" stroke-linejoin="round"/>
<path d="M34.27,32.58 C34.27,32.58 36.10,32.51 36.10,32.51 C36.10,32.51 52.28,32.22 52.28,32.22 C52.28,32.22 34.90,31.85 34.90,31.85" fill="none" stroke="rgb(204, 204, 204)" stroke-width="2.59" stroke-opacity="1.00" stroke-linejoin="round"/>
<path d="M33.74,30.90 C33.74,30.90 36.11,31.08 36.11,31.08 C36.11,31.08 58.54,32.37 58.54,32.37 C58.55,32.37 43.28,32.99 41.52,32.40 C41.50,32.40 41.46,32.36 41.48,32.37 C41.48,32.37 63.68,31.17 63.68,31.17 C63.68,31.17 54.08,31.92 54.08,31.92 C54.08,31.92 65.09,31.77 65.09,31.77" fill="none" stroke="rgb(204, 204, 204)" stroke-width="2.59" stroke-opacity="1.00" stroke-linejoin="round"/>
<path d="M64.36,32.21 C64.36,32.21 62.33,32.37 62.33,32.37 C62.33,32.37 64.67,32.47 64.67,32.47" fill="none" stroke="rgb(204, 204, 204)" stroke-width="2.59" stroke-opacity="1.00" stroke-linejoin="round"/>
<path d="M35.16,27.04 C35.16,27.04 36.23,26.97 36.23,26.97 C36.23,26.97 33.24,27.58 33.24,27.58" fill="none" stroke="rgb(255, 255, 255)" stroke-width="2.59" stroke-opacity="1.00" stroke-linejoin="round"/>
<path d="M36.62,27.08 C36.62,27.08 40.09,26.85 40.09,26.85 C40.09,26.85 33.24,28.65 33.24,28.65" fill="none" stroke="rgb(255, 255, 255)" stroke-width="2.59" stroke-opacity="1.00" stroke-linejoin="round"/>
<path d="M34.84,28.59 C34.84,28.59 46.54,28.02 46.54,28.02 C46.54,28.02 33.32,29.02 33.32,29.02" fill="none" stroke="rgb(255, 255, 255)" stroke-width="2.59" stroke-opacity="1.00" stroke-linejoin="round"/>
<path d="M39.46,28.92 C39.46,28.92 60.42,26.67 60.42,26.67 C52.20,28.32 38.02,28.05 36.38,27.27 C46.55,26.00 58.82,27.16 61.43,27.12 C60.83,27.24 60.23,27.37 59.63,27.49 C59.19,27.58 58.74,27.68 58.30,27.77" fill="none" stroke="rgb(255, 255, 255)" stroke-width="2.59" stroke-opacity="1.00" stroke-linejoin="round"/>
<path d="M39.83,29.97 C39.83,29.97 39.76,29.97 39.76,29.97 C39.90,29.95 41.38,30.07 41.99,30.10 C47.73,30.32 58.93,28.98 64.80,28.32 C59.48,29.86 50.64,29.22 49.77,29.22 C49.77,29.22 64.48,28.99 64.48,28.99" fill="none" stroke="rgb(255, 255, 255)" stroke-width="2.59" stroke-opacity="1.00" stroke-linejoin="round"/>
<path d="M64.11,28.22 C64.11,28.22 54.53,27.49 54.53,27.49 C54.53,27.49 65.11,26.80 65.11,26.80" fill="none" stroke="rgb(255, 255, 255)" stroke-width="2.59" stroke-opacity="1.00" stroke-linejoin="round"/>
<path d="M64.00,27.52 C64.00,27.52 59.97,27.57 59.97,27.57 C59.97,27.57 64.55,27.30 64.55,27.30" fill="none" stroke="rgb(255, 255, 255)" stroke-width="2.59" stroke-opacity="1.00" stroke-linejoin="round"/>
<path d="M65.48,28.97 C65.48,28.97 64.20,28.96 64.20,28.96 C64.20,28.96 65.50,29.01 65.50,29.01" fill="none" stroke="rgb(255, 255, 255)" stroke-width="2.59" stroke-opacity="1.00" stroke-linejoin="round"/>
<path d="M64.43,29.44 C64.43,29.44 64.43,29.37 64.43,29.37" fill="none" stroke="rgb(255, 255, 255)" stroke-width="2.59" stroke-opacity="1.00" stroke-linejoin="round"/>
<path d="M34.86,25.61 C34.86,25.61 34.71,25.70 34.71,25.70" fill="none" stroke="rgb(0, 0, 0)" stroke-width="2.59" stroke-opacity="1.00" stroke-linejoin="round"/>
<path d="M35.03,30.89 C35.03,30.89 64.07,29.82 64.07,29.82 C64.07,29.82 65.51,29.20 65.51,29.20" fill="none" stroke="rgb(0, 0, 0)" stroke-width="2.59" stroke-opacity="1.00" stroke-linejoin="round"/>
<path d="M35.86,25.75 C36.25,25.53 37.52,25.45 38.03,25.41 C48.91,24.42 62.17,25.08 65.42,24.85" fill="none" stroke="rgb(0, 0, 0)" stroke-width="2.59" stroke-opacity="1.00" stroke-linejoin="round"/>
<path d="M31.82,20.67 C31.82,20.67 32.18,19.26 32.18,19.26 C31.33,25.56 32.00,31.47 33.17,34.59 C33.49,35.43 34.14,36.73 34.54,37.36 C34.66,37.54 34.95,37.98 35.42,38.67" fill="none" stroke="rgb(167, 167, 167)" stroke-width="2.00" stroke-opacity="1.00" stroke-linejoin="round"/>
<path d="M31.72,25.37 C31.68,26.00 31.68,26.95 31.79,27.68 C32.56,32.65 35.31,37.64 36.88,39.18 C37.06,39.36 37.49,39.75 38.15,40.34" fill="none" stroke="rgb(167, 167, 167)" stroke-width="2.00" stroke-opacity="1.00" stroke-linejoin="round"/>
<path d="M33.80,34.22 C33.96,34.70 34.13,35.08 34.59,35.66 C38.38,40.38 42.67,42.86 43.81,43.21 C44.05,43.28 44.50,43.39 45.16,43.54" fill="none" stroke="rgb(167, 167, 167)" stroke-width="2.00" stroke-opacity="1.00" stroke-linejoin="round"/>
<path d="M36.80,37.89 C36.78,38.27 37.35,39.28 38.71,40.20 C40.16,41.15 45.94,42.85 47.91,42.88 C48.64,42.88 49.18,42.83 49.67,42.71" fill="none" stroke="rgb(167, 167, 167)" stroke-width="2.00" stroke-opacity="1.00" stroke-linejoin="round"/>
<path d="M40.68,40.50 C40.68,40.50 40.41,40.63 40.41,40.63 C40.69,41.31 47.75,43.06 52.71,42.85 C53.16,42.83 53.79,42.77 54.59,42.69" fill="none" stroke="rgb(167, 167, 167)" stroke-width="2.00" stroke-opacity="1.00" stroke-linejoin="round"/>
<path d="M45.62,42.51 C45.62,42.51 45.33,42.55 45.33,42.55 C48.80,43.00 55.32,42.35 57.46,41.54 C57.71,41.44 58.19,41.24 58.92,40.92" fill="none" stroke="rgb(167, 167, 167)" stroke-width="2.00" stroke-opacity="1.00" stroke-linejoin="round"/>
<path d="M51.54,42.23 C51.54,42.23 51.40,42.26 51.40,42.26 C54.94,42.27 59.81,40.22 61.32,38.60 C61.76,38.13 62.86,36.80 63.37,36.17 C63.50,36.03 63.63,35.88 63.77,35.72" fill="none" stroke="rgb(167, 167, 167)" stroke-width="2.00" stroke-opacity="1.00" stroke-linejoin="round"/>
<path d="M57.15,40.71 C57.15,40.71 57.18,40.76 57.18,40.76 C57.29,40.81 57.58,40.82 57.85,40.71 C61.31,39.29 64.87,32.84 65.08,32.45 C64.97,32.51 57.96,41.17 57.42,41.43 C57.37,41.45 57.31,41.47 57.22,41.49" fill="none" stroke="rgb(167, 167, 167)" stroke-width="2.00" stroke-opacity="1.00" stroke-linejoin="round"/>
<path d="M61.60,38.10 C61.60,38.10 56.73,41.77 56.73,41.77 C56.73,41.77 61.77,36.63 61.77,36.63 C61.77,36.63 56.81,41.97 56.81,41.97 C56.89,41.92 56.94,41.88 56.96,41.85 C56.99,41.82 57.04,41.77 57.10,41.68" fill="none" stroke="rgb(167, 167, 167)" stroke-width="2.00" stroke-opacity="1.00" stroke-linejoin="round"/>
<path d="M60.52,39.65 C60.50,39.61 61.57,38.51 62.40,37.67 C63.01,37.01 64.31,35.21 65.70,33.19 C65.91,32.88 65.89,32.87 65.97,32.72 C65.89,32.82 65.82,32.92 65.74,33.02 C65.29,33.61 64.76,34.36 64.40,34.89 C61.57,38.82 55.85,42.72 55.39,42.62 C56.60,42.20 63.78,36.32 64.99,34.22 C65.69,32.97 66.49,29.08 66.58,28.73 C66.67,28.42 66.85,27.94 66.94,27.77 C66.96,27.73 66.99,27.66 67.04,27.58" fill="none" stroke="rgb(167, 167, 167)" stroke-width="2.00" stroke-opacity="1.00" stroke-linejoin="round"/>
<path d="M64.99,33.29 C65.08,33.23 65.52,32.35 65.96,30.54 C66.31,29.10 66.46,25.87 66.30,24.45 C66.13,22.98 65.27,20.04 65.29,19.91 C65.80,20.09 66.68,26.13 66.65,27.30 C66.64,27.89 66.38,28.77 66.28,28.95" fill="none" stroke="rgb(167, 167, 167)" stroke-width="2.00" stroke-opacity="1.00" stroke-linejoin="round"/>
<path d="M57.27,11.50 C57.27,11.50 57.31,11.44 57.31,11.44 C58.28,11.42 62.86,15.44 65.75,19.47 C66.15,20.04 66.93,21.56 67.05,21.86 C67.10,21.97 67.15,22.11 67.19,22.28" fill="none" stroke="rgb(167, 167, 167)" stroke-width="2.00" stroke-opacity="1.00" stroke-linejoin="round"/>
<path d="M35.49,16.86 C35.49,16.86 35.59,16.65 35.59,16.65 C35.44,16.64 35.13,16.84 34.13,18.05 C32.68,19.82 32.59,21.10 32.60,21.17 C32.72,17.58 40.81,10.78 41.64,10.67 C41.69,10.66 41.81,10.66 41.98,10.65" fill="none" stroke="rgb(167, 167, 167)" stroke-width="2.00" stroke-opacity="1.00" stroke-linejoin="round"/>
<path d="M35.91,15.38 C35.93,15.34 36.00,15.14 36.22,14.91 C37.54,13.52 39.74,11.88 40.61,11.45 C41.89,10.85 46.42,9.78 46.79,9.67 C47.85,9.34 48.17,9.26 48.42,9.28 C48.42,9.28 48.47,9.53 48.47,9.53" fill="none" stroke="rgb(167, 167, 167)" stroke-width="2.00" stroke-opacity="1.00" stroke-linejoin="round"/>
<path d="M42.74,10.85 C42.74,10.85 42.70,10.80 42.70,10.80 C42.82,10.69 45.21,9.93 46.40,9.78 C46.73,9.74 51.55,9.74 52.63,9.63 C53.02,9.58 53.69,9.58 53.92,9.65 C54.02,9.69 54.15,9.78 54.32,9.93" fill="none" stroke="rgb(167, 167, 167)" stroke-width="2.00" stroke-opacity="1.00" stroke-linejoin="round"/>
<path d="M49.25,8.82 C49.15,8.81 49.45,8.86 49.54,8.88 C50.84,9.09 53.01,9.45 53.40,9.53 C54.18,9.68 55.84,10.16 56.69,10.48 C56.94,10.57 57.23,10.70 57.58,10.87" fill="none" stroke="rgb(167, 167, 167)" stroke-width="2.00" stroke-opacity="1.00" stroke-linejoin="round"/>
<path d="M61.89,44.28 C61.89,44.28 61.72,44.23 61.72,44.23 C61.71,44.22 61.73,44.26 61.73,44.26 C62.68,45.74 68.09,55.29 68.46,56.07 C68.43,55.79 64.99,49.85 64.00,47.85 C63.42,46.67 62.58,44.52 62.36,44.33 C65.09,50.17 70.96,59.91 72.35,61.29 C72.36,61.31 72.41,61.35 72.49,61.42" fill="none" stroke="rgb(187, 82, 30)" stroke-width="2.00" stroke-opacity="1.00" stroke-linejoin="round"/>
<path d="M66.44,52.73 C66.44,52.73 66.30,52.59 66.30,52.59 C66.30,52.59 71.94,61.69 71.94,61.69 C71.88,61.53 70.08,58.54 69.67,57.79 C69.48,57.44 69.17,56.84 68.75,55.97" fill="none" stroke="rgb(187, 82, 30)" stroke-width="2.00" stroke-opacity="1.00" stroke-linejoin="round"/>
<path d="M62.92,47.15 C62.92,47.15 62.78,47.15 62.78,47.15 C62.76,47.22 63.43,48.22 63.71,48.65 C64.37,49.66 65.58,51.69 66.26,52.91 C66.42,53.20 66.69,53.69 67.05,54.38" fill="none" stroke="rgb(187, 82, 30)" stroke-width="2.00" stroke-opacity="1.00" stroke-linejoin="round"/>
<path d="M62.41,44.28 C62.41,44.28 62.35,44.27 62.35,44.27 C62.35,44.27 62.23,44.41 62.23,44.41 C62.23,44.41 63.86,47.80 63.86,47.80 C63.22,46.54 62.35,44.46 61.83,43.51 C61.75,43.37 61.67,43.23 61.59,43.09" fill="none" stroke="rgb(204, 156, 62)" stroke-width="2.00" stroke-opacity="1.00" stroke-linejoin="round"/>
<path d="M55.60,43.06 C55.25,43.29 54.89,43.51 54.54,43.74 C53.18,44.60 50.19,45.12 47.84,44.97 C46.21,44.85 41.56,43.41 39.77,42.40 C37.98,41.36 35.27,39.34 34.10,38.00 C32.62,36.27 30.77,32.26 30.68,31.94 C30.45,30.99 30.24,23.99 30.26,23.81 C30.68,20.45 33.11,15.74 35.16,13.53 C35.95,12.70 40.68,9.11 42.13,8.62 C43.46,8.18 47.02,7.50 49.01,7.29 C51.23,7.08 54.36,7.60 56.17,8.28 C60.12,9.80 64.96,13.95 66.82,17.51 C67.55,18.95 68.51,22.69 68.82,25.88 C69.08,28.87 66.89,35.59 65.13,37.43 C63.71,38.86 60.84,39.86 59.45,40.08 C58.90,40.16 58.44,40.16 58.20,40.10" fill="none" stroke="rgb(0, 0, 0)" stroke-width="3.00" stroke-opacity="1.00" stroke-linejoin="round"/>
<path d="M59.50,43.69 C59.37,43.43 59.28,43.27 59.24,43.19 C59.19,43.11 59.12,43.01 59.03,42.90 C63.30,51.19 71.92,65.13 72.46,65.11 C72.58,65.09 75.56,62.33 75.10,61.45 C74.54,60.41 65.31,47.18 63.19,43.58 C62.88,43.10 61.96,41.71 61.85,41.34 C61.85,41.34 60.71,41.32 60.71,41.32" fill="none" stroke="rgb(0, 0, 0)" stroke-width="3.00" stroke-opacity="1.00" stroke-linejoin="round"/>
<path d="M36.58,17.43 C36.58,17.43 36.62,17.32 36.62,17.32 C36.62,17.32 36.39,17.22 36.39,17.22 C35.93,17.43 34.43,19.89 34.04,21.12 C33.41,23.22 34.19,29.49 35.21,31.74 C35.71,32.83 36.54,34.00 36.97,34.60 C37.07,34.73 37.14,34.84 37.18,34.93" fill="none" stroke="rgb(0, 0, 0)" stroke-width="2.00" stroke-opacity="1.00" stroke-linejoin="round"/>
<path d="M38.02,36.40 C38.02,36.40 37.96,36.43 37.96,36.43 C38.06,36.99 41.68,39.77 43.25,40.20 C44.66,40.58 45.76,40.86 46.54,41.03 C46.97,41.13 47.40,41.19 47.82,41.22" fill="none" stroke="rgb(0, 0, 0)" stroke-width="2.00" stroke-opacity="1.00" stroke-linejoin="round"/>
<path d="M37.11,16.51 C37.12,16.47 37.10,16.16 37.38,15.83 C38.57,14.50 45.02,11.19 45.60,11.05 C46.23,10.92 47.07,10.81 47.62,10.80 C47.70,10.79 47.80,10.79 47.92,10.80" fill="none" stroke="rgb(0, 0, 0)" stroke-width="2.00" stroke-opacity="1.00" stroke-linejoin="round"/>
<path d="M49.32,10.80 C49.31,10.80 51.33,10.67 52.29,10.77 C53.56,10.92 57.77,12.92 60.13,14.55 C60.51,14.82 61.67,15.99 61.73,16.05 C61.84,16.18 61.94,16.30 62.03,16.43" fill="none" stroke="rgb(0, 0, 0)" stroke-width="2.00" stroke-opacity="1.00" stroke-linejoin="round"/>
<path d="M62.37,17.00 C63.16,17.56 65.28,23.46 65.38,25.93 C65.41,26.62 65.38,27.76 65.33,28.27 C65.31,28.43 65.26,28.74 65.20,29.21" fill="none" stroke="rgb(0, 0, 0)" stroke-width="2.00" stroke-opacity="1.00" stroke-linejoin="round"/>
<path d="M65.13,29.78 C65.13,29.78 65.13,29.72 65.13,29.72 C64.83,30.66 63.33,33.16 62.42,34.03 C62.11,34.33 60.27,35.83 59.07,37.22 C58.96,37.35 58.86,37.45 58.78,37.54" fill="none" stroke="rgb(0, 0, 0)" stroke-width="2.00" stroke-opacity="1.00" stroke-linejoin="round"/>
<path d="M50.17,41.38 C50.17,41.38 50.18,41.47 50.18,41.47 C51.29,41.62 57.94,39.56 58.08,39.48 C58.12,39.46 58.22,39.38 58.40,39.24 C58.41,39.24 58.43,39.22 58.42,39.23" fill="none" stroke="rgb(0, 0, 0)" stroke-width="2.00" stroke-opacity="1.00" stroke-linejoin="round"/>
<path d="M65.83,51.65 C65.83,51.61 65.83,51.56 65.83,51.51 C65.83,51.38 65.83,51.25 65.83,51.12 C65.76,51.10 65.70,51.07 65.68,51.03 C65.65,50.97 65.64,50.86 65.65,50.70 C65.65,50.67 65.65,50.65 65.65,50.62" fill="none" stroke="rgb(187, 82, 30)" stroke-width="2.00" stroke-opacity="1.00" stroke-linejoin="round"/>
<path d="M65.60,50.53 C65.57,50.53 65.53,50.49 65.49,50.43 C65.45,50.37 65.34,50.19 65.16,49.88 C65.16,49.88 62.92,51.81 62.92,51.81 C63.13,51.80 64.26,50.46 64.49,50.18 C64.50,50.17 64.51,50.16 64.52,50.15 C64.22,50.28 63.58,50.78 63.03,51.61 C62.78,52.00 66.63,56.65 69.01,59.53 C69.01,59.53 64.61,51.00 64.61,51.00 C64.61,51.00 70.34,60.06 70.34,60.06 C70.20,59.76 68.49,57.32 67.76,56.20 C66.68,54.51 65.53,50.93 65.47,50.79 C65.47,50.78 65.27,50.51 65.27,50.51 C65.27,50.51 67.04,49.31 67.04,49.31 C67.04,49.31 74.93,61.70 74.93,61.70 C74.93,61.70 66.26,52.03 66.26,52.03 C66.26,52.03 71.47,61.61 71.47,61.61 C71.47,61.61 64.43,53.06 64.43,53.06 C64.43,53.06 71.00,63.08 71.00,63.08 C71.00,63.08 65.83,56.55 65.83,56.55 C65.83,56.55 71.56,64.61 71.56,64.61 C71.66,64.57 72.68,63.52 73.36,63.30 C73.49,63.26 73.65,63.23 73.85,63.20 C73.89,63.20 73.91,63.20 73.91,63.20" fill="none" stroke="rgb(187, 82, 30)" stroke-width="2.00" stroke-opacity="1.00" stroke-linejoin="round"/>
<path d="M67.10,51.00 C67.10,51.00 66.87,50.92 66.87,50.92 C66.87,50.92 67.90,49.98 67.90,49.98 C67.90,49.98 74.94,62.17 74.94,62.17 C74.94,62.17 72.31,63.20 72.31,63.20 C72.31,63.20 73.25,62.36 73.25,62.36 C72.86,62.33 72.59,62.25 72.41,62.03 C72.27,61.87 71.75,61.15 71.51,60.82" fill="none" stroke="rgb(187, 82, 30)" stroke-width="2.00" stroke-opacity="1.00" stroke-linejoin="round"/>
<path d="M64.91,50.04 C64.91,50.04 68.15,49.24 68.15,49.24 C69.67,51.81 75.37,60.60 75.40,60.64 C76.53,62.51 73.74,63.53 73.25,63.77 C73.25,63.77 74.29,61.95 74.29,61.95 C74.29,61.95 72.38,62.64 72.38,62.64 C72.38,62.64 73.49,61.33 73.49,61.33 C73.49,61.33 71.69,61.56 71.69,61.56 C71.69,61.56 71.56,61.14 71.56,61.14" fill="none" stroke="rgb(187, 82, 30)" stroke-width="2.00" stroke-opacity="1.00" stroke-linejoin="round"/>
<path d="M63.39,49.77 C63.05,50.11 61.83,51.06 61.64,51.62 C61.48,52.32 69.63,64.13 69.78,64.33 C69.81,64.37 69.84,64.40 69.87,64.43" fill="none" stroke="rgb(0, 0, 0)" stroke-width="2.00" stroke-opacity="1.00" stroke-linejoin="round"/>
<path d="M69.31,63.69 C69.40,63.93 70.44,65.64 71.00,66.65 C71.02,66.69 71.05,66.73 71.08,66.76 C71.44,66.66 73.08,65.67 73.28,65.58 C73.66,65.42 74.58,65.06 74.57,65.08" fill="none" stroke="rgb(0, 0, 0)" stroke-width="2.00" stroke-opacity="1.00" stroke-linejoin="round"/>
<path d="M67.99,47.10 C68.21,47.59 68.73,48.46 69.12,49.11 C73.02,55.19 77.52,62.53 77.65,62.56 C77.47,62.68 76.60,63.50 76.38,63.63 C76.29,63.68 76.12,63.67 76.06,63.67" fill="none" stroke="rgb(0, 0, 0)" stroke-width="2.00" stroke-opacity="1.00" stroke-linejoin="round"/>
<path d="M60.20,19.16 C60.19,19.17 60.22,19.23 60.26,19.33 C60.88,20.69 61.47,23.13 61.49,26.08 C61.49,27.31 60.69,29.83 58.29,32.34 C57.61,33.04 57.43,33.23 57.29,33.43 C57.29,33.43 57.29,33.34 57.29,33.34" fill="none" stroke="rgb(255, 255, 255)" stroke-width="2.00" stroke-opacity="1.00" stroke-linejoin="round"/>
<path d="M51.93,36.25 C51.93,36.25 51.93,36.34 51.93,36.34 C51.93,36.34 49.99,36.91 49.99,36.91 C49.99,36.91 52.69,36.25 52.69,36.25 C52.69,36.25 49.59,37.10 49.59,37.10 C49.59,37.10 51.83,37.17 51.83,37.17 C51.83,37.17 51.84,37.01 51.84,37.01" fill="none" stroke="rgb(255, 255, 255)" stroke-width="2.00" stroke-opacity="1.00" stroke-linejoin="round"/>
</g>
</svg>
