<?xml version="1.0" encoding="UTF-8" standalone="no"?>
<!DOCTYPE svg PUBLIC "-//W3C//DTD SVG 1.1//EN" "http://www.w3.org/Graphics/SVG/1.1/DTD/svg11.dtd">
<svg width="100.00" height="100.00" viewBox="0.00 0.00 100.00 100.00" xmlns="http://www.w3.org/2000/svg" xmlns:xlink="http://www.w3.org/1999/xlink">
<g stroke-linecap="round" id="圖層_3">
<path d="M51.93,59.03 C51.89,59.30 51.71,60.02 51.55,60.39 C51.03,61.51 48.84,63.28 47.69,63.25 C46.45,63.17 44.72,61.36 44.11,60.04 C42.84,57.24 41.36,47.11 41.61,41.50 C41.94,34.51 45.10,22.17 47.01,19.39 C47.66,18.47 49.66,17.61 50.72,17.83 C51.79,18.09 53.64,20.26 54.65,22.33 C56.29,25.80 58.05,34.44 58.00,39.72 C57.95,42.96 57.34,47.26 56.59,49.43 C56.04,50.97 53.80,55.46 52.14,57.54 C50.95,59.01 48.51,60.64 47.66,60.88 C46.81,61.10 45.57,60.18 44.65,58.36 C43.72,56.46 43.04,54.18 42.96,53.55" fill="none" stroke="rgb(95, 163, 143)" stroke-width="3.00" stroke-opacity="1.00" stroke-linejoin="round"/>
<path d="M51.16,22.69 C51.16,22.69 50.67,22.43 50.67,22.43 C50.41,22.52 45.95,28.70 45.45,43.89 C45.35,47.23 45.77,53.75 46.16,55.91 C46.57,58.11 47.39,60.06 48.64,60.52 C49.43,60.08 50.53,58.20 50.98,56.33 C51.94,52.23 52.24,44.40 52.23,32.56 C52.12,25.23 51.36,22.46 50.72,21.63 C49.89,22.02 48.94,23.97 48.56,25.61 C45.93,37.26 48.14,51.64 48.64,52.57 C49.69,52.25 50.14,51.90 50.39,51.00 C52.30,44.05 51.59,29.53 51.08,27.62 C50.06,27.44 49.65,27.50 49.42,28.06 C48.04,31.48 46.79,42.73 47.17,47.81 C47.30,49.28 47.90,50.10 48.59,50.72 C49.72,50.41 50.61,48.45 50.92,46.89 C51.64,43.13 51.81,28.50 51.53,26.20 C51.05,22.51 50.57,21.66 49.90,20.58 C48.72,20.90 47.88,22.02 47.40,24.39 C44.68,37.81 47.20,43.19 47.74,44.08 C49.14,44.01 49.84,43.38 50.13,41.36 C50.69,37.49 51.36,25.45 51.28,23.10 C51.21,21.35 50.66,20.32 50.21,20.01 C49.34,19.96 47.34,23.32 46.67,25.36 C44.96,30.82 43.98,44.24 45.03,51.47 C45.67,55.69 47.48,58.93 48.95,59.65 C50.26,58.71 51.35,55.35 51.73,53.05 C53.04,44.87 52.45,29.26 51.60,27.42 C50.22,28.30 49.56,29.24 49.24,30.99 C48.23,36.93 47.71,47.51 48.07,50.46 C48.16,51.16 48.49,51.58 49.23,52.26 C50.56,52.06 51.65,50.55 52.05,49.36 C53.85,43.78 52.84,22.70 52.86,22.38 C53.99,23.68 57.03,37.65 56.44,43.70 C56.02,47.59 53.42,52.03 52.40,52.52 C51.63,52.33 50.40,50.07 50.16,48.41 C49.92,46.59 50.32,42.32 50.93,40.56 C51.64,38.54 52.83,36.68 53.94,35.78 C55.06,36.65 55.60,37.55 55.92,39.38 C56.43,42.37 56.71,47.65 56.59,49.28 C56.43,50.98 55.15,54.78 53.91,56.82 C53.29,57.80 51.75,59.01 50.39,59.00 C49.72,58.98 48.47,58.39 47.56,57.72 C47.22,57.46 46.93,56.90 46.81,56.58 C46.80,56.53 46.75,56.40 46.69,56.17" fill="none" stroke="rgb(95, 163, 143)" stroke-width="3.00" stroke-opacity="1.00" stroke-linejoin="round"/>
<path d="M51.01,20.91 C51.01,20.91 50.98,19.60 50.98,19.60 C50.98,19.60 50.52,19.06 50.52,19.06 C49.57,18.83 47.55,18.85 47.07,19.39 C46.03,20.62 44.29,23.75 43.52,26.49 C42.67,29.62 41.53,36.52 41.52,39.87 C41.52,41.59 42.28,45.98 42.83,47.33 C43.80,49.60 47.88,55.91 48.69,56.25 C49.60,56.56 50.27,56.34 50.43,56.17" fill="none" stroke="rgb(95, 163, 143)" stroke-width="3.00" stroke-opacity="1.00" stroke-linejoin="round"/>
<path d="M50.70,20.06 C50.69,20.07 50.70,20.04 50.70,20.04 C50.79,19.74 50.82,19.47 50.83,18.98 C50.39,18.30 47.74,17.89 46.63,18.31 C45.36,18.85 43.30,21.28 42.11,23.89 C40.70,27.12 39.80,37.88 40.13,41.51 C40.34,43.67 41.23,46.81 42.04,48.54 C42.84,50.19 45.52,54.01 47.10,55.61 C48.53,57.02 50.49,58.10 51.34,57.69 C51.66,57.53 51.96,57.27 52.24,56.92 C52.38,56.74 52.63,56.35 53.00,55.73" fill="none" stroke="rgb(95, 163, 143)" stroke-width="3.00" stroke-opacity="1.00" stroke-linejoin="round"/>
<path d="M44.76,28.55 C44.76,28.55 44.16,28.47 44.16,28.47 C43.70,28.71 42.21,32.48 41.75,34.05 C41.12,36.34 40.80,42.31 41.20,45.67 C41.46,47.69 43.06,53.77 44.25,55.81 C45.81,58.42 48.36,60.10 49.46,60.13 C50.00,60.13 50.96,59.65 51.29,59.28 C51.37,59.19 51.49,59.00 51.65,58.73" fill="none" stroke="rgb(95, 163, 143)" stroke-width="3.00" stroke-opacity="1.00" stroke-linejoin="round"/>
<path d="M53.63,42.59 C53.63,42.76 53.63,42.92 53.63,43.08 C53.63,47.00 53.58,49.59 53.35,50.44 C53.35,50.44 54.50,43.13 54.50,43.13 C55.97,44.39 53.78,51.87 53.78,51.88 C53.78,51.88 53.78,50.64 53.78,50.64" fill="none" stroke="rgb(95, 163, 143)" stroke-width="3.00" stroke-opacity="1.00" stroke-linejoin="round"/>
<path d="M54.94,39.43 C55.34,41.40 55.58,42.64 55.68,43.16 C56.21,46.10 56.19,50.91 55.47,53.34 C54.76,55.62 52.67,59.25 51.39,60.73 C51.00,61.17 50.67,61.42 50.47,61.50" fill="none" stroke="rgb(95, 163, 143)" stroke-width="3.00" stroke-opacity="1.00" stroke-linejoin="round"/>
<path d="M41.75,34.95 C41.32,35.53 40.65,37.76 40.56,39.97 C40.38,45.26 42.09,55.49 43.70,58.13 C44.38,59.20 46.23,61.11 46.97,61.55 C49.40,62.91 50.84,61.54 51.01,61.21 C51.05,61.12 51.10,60.95 51.16,60.70" fill="none" stroke="rgb(95, 163, 143)" stroke-width="3.00" stroke-opacity="1.00" stroke-linejoin="round"/>
<path d="M45.37,58.72 C45.07,59.90 45.67,61.87 46.76,62.76 C47.92,63.66 51.00,64.16 51.93,63.30 C54.04,61.20 55.29,50.72 55.12,48.46 C55.08,47.95 54.73,47.51 54.66,47.43" fill="none" stroke="rgb(95, 163, 143)" stroke-width="3.00" stroke-opacity="1.00" stroke-linejoin="round"/>
<path d="M55.87,51.00 C55.94,52.00 55.95,52.85 55.84,53.37 C55.05,56.94 52.07,61.54 51.96,61.50 C51.96,61.50 51.78,61.27 51.78,61.27" fill="none" stroke="rgb(95, 163, 143)" stroke-width="3.00" stroke-opacity="1.00" stroke-linejoin="round"/>
<path d="M51.01,53.24 C51.01,53.24 50.57,53.42 50.57,53.42 C50.57,53.42 50.39,55.71 50.39,55.71 C50.39,55.71 49.33,53.91 49.33,53.91 C48.75,54.43 48.97,56.18 49.57,56.89 C49.66,57.00 49.83,57.17 50.08,57.41" fill="none" stroke="rgb(95, 163, 143)" stroke-width="3.00" stroke-opacity="1.00" stroke-linejoin="round"/>
<path d="M55.02,53.40 C55.02,53.30 55.02,53.22 55.02,53.16 C55.01,52.74 55.65,51.22 55.74,50.90 C55.82,50.58 56.07,49.62 56.20,49.36 C56.23,49.31 56.26,49.26 56.30,49.23 C56.56,49.59 56.51,53.27 55.93,55.87 C55.27,58.69 54.05,62.02 53.58,62.35 C53.53,62.37 53.41,62.42 53.22,62.47" fill="none" stroke="rgb(95, 163, 143)" stroke-width="3.00" stroke-opacity="1.00" stroke-linejoin="round"/>
<path d="M56.25,44.91 C56.29,45.25 56.67,47.96 56.30,49.49 C56.11,50.27 55.45,52.10 54.92,53.47 C54.73,53.94 54.55,54.41 54.37,54.87" fill="none" stroke="rgb(95, 163, 143)" stroke-width="3.00" stroke-opacity="1.00" stroke-linejoin="round"/>
<path d="M50.00,73.07 C50.00,73.07 49.90,72.58 49.90,72.58 C49.24,72.49 48.34,72.69 47.46,73.79 C46.48,75.07 46.24,77.77 47.28,79.30 C48.20,80.61 50.82,81.55 51.42,81.35 C52.72,80.88 53.94,79.13 54.18,78.49 C54.39,77.90 54.60,75.86 54.27,74.64 C53.95,73.56 51.41,72.21 50.05,72.27 C48.52,72.39 46.31,74.08 45.89,75.54 C45.48,77.11 46.32,79.73 47.64,80.45 C49.12,81.21 51.24,80.79 52.39,79.91 C53.23,79.22 53.95,77.84 54.30,76.52 C54.62,74.94 53.50,73.09 52.11,72.74 C50.38,72.34 47.66,73.40 46.79,74.26 C46.01,75.11 45.06,77.57 45.71,78.58 C46.54,79.75 49.71,80.71 50.92,80.59 C52.10,80.39 53.65,78.71 53.63,77.26 C53.58,76.23 52.05,74.55 50.77,74.25 C49.59,74.01 48.17,75.25 48.36,76.05 C48.90,78.11 50.92,77.54 51.16,77.34 C51.35,76.57 50.96,75.69 50.23,75.64 C49.60,75.63 49.17,76.10 49.03,76.39 C49.40,76.84 49.77,76.94 50.11,76.57 C50.18,76.48 50.32,76.30 50.50,76.01" fill="none" stroke="rgb(95, 163, 143)" stroke-width="3.00" stroke-opacity="1.00" stroke-linejoin="round"/>
<path d="M53.32,62.96 C53.13,64.28 52.04,65.57 51.06,65.79 C49.70,66.05 47.05,64.88 45.37,63.17 C43.12,60.87 40.26,56.53 38.94,53.68 C36.87,49.09 35.51,38.09 35.96,33.77 C36.24,31.34 37.49,26.07 39.02,22.53 C40.44,19.32 45.47,14.22 47.53,13.55 C48.85,13.15 51.76,12.99 53.04,13.43 C54.33,13.89 56.70,15.79 57.74,17.23 C59.75,20.05 62.08,28.35 62.96,34.36 C63.28,36.56 63.25,41.39 63.09,43.46 C62.82,46.56 61.45,52.06 59.90,54.95 C56.54,61.14 53.69,63.55 53.35,63.68 C53.28,63.70 53.22,63.70 53.17,63.67" fill="none" stroke="rgb(0, 0, 0)" stroke-width="3.00" stroke-opacity="1.00" stroke-linejoin="round"/>
<path d="M54.71,80.86 C53.98,81.55 53.33,82.07 52.16,82.41 C50.75,82.79 47.95,82.90 46.63,82.30 C45.29,81.66 43.28,78.76 43.08,77.24 C42.93,75.92 43.29,73.73 43.86,72.71 C44.83,71.01 48.81,70.03 50.69,70.55 C51.88,70.91 54.34,72.70 55.25,74.64 C55.59,75.40 55.81,77.41 55.74,78.03 C55.35,80.95 52.50,81.88 52.16,81.92 C52.05,81.93 51.82,81.94 51.47,81.94" fill="none" stroke="rgb(0, 0, 0)" stroke-width="3.00" stroke-opacity="1.00" stroke-linejoin="round"/>
</g>
</svg>
