<?xml version="1.0" encoding="UTF-8" standalone="no"?>
<!DOCTYPE svg PUBLIC "-//W3C//DTD SVG 1.1//EN" "http://www.w3.org/Graphics/SVG/1.1/DTD/svg11.dtd">
<svg width="100.00" height="100.00" viewBox="0.00 0.00 100.00 100.00" xmlns="http://www.w3.org/2000/svg" xmlns:xlink="http://www.w3.org/1999/xlink">
<g stroke-linecap="round" id="圖層_6">
<path d="M21.83,41.11 C21.53,40.95 20.83,40.98 20.37,41.30 C17.06,43.63 11.79,48.20 11.21,49.22 C12.16,50.24 14.04,50.05 14.98,49.71 C18.14,48.47 21.37,44.93 21.19,43.82 C21.00,42.76 17.47,42.69 16.00,43.66 C12.80,45.82 10.55,50.29 10.73,50.79 C12.02,50.82 13.98,49.63 15.64,48.22 C19.55,44.87 21.38,42.36 21.73,41.42 C20.77,41.04 20.38,40.96 19.90,41.21 C16.16,43.21 9.83,49.34 9.99,50.88 C10.24,51.26 11.31,51.36 12.05,51.13 C12.78,50.89 20.11,46.51 21.97,45.47 C14.99,45.61 8.60,52.28 8.71,52.67 C9.42,53.53 12.78,52.05 21.64,47.55 C21.71,47.52 21.85,47.38 21.78,47.38 C21.78,47.38 9.97,50.50 9.97,50.50 C10.39,51.06 12.66,51.44 15.56,51.48 C25.83,51.51 31.14,51.97 31.04,52.08 C30.44,52.08 27.93,51.48 23.47,50.03 C19.84,48.92 15.42,49.80 13.65,50.50 C13.65,50.50 33.45,50.15 33.45,50.15 C32.69,50.45 25.76,45.77 23.39,45.16 C21.73,44.75 18.28,44.34 17.30,44.06 C17.30,44.06 23.88,38.08 23.88,38.08 C23.88,38.08 16.94,40.75 16.94,40.75 C16.94,40.40 18.06,39.57 24.11,39.37 C26.76,39.30 39.74,41.74 40.91,41.97 C40.91,41.97 18.78,43.44 18.78,43.44 C25.27,42.26 31.78,42.21 38.10,43.16 C37.99,43.22 20.74,45.04 18.58,44.97 C18.39,44.96 18.28,44.93 18.25,44.88 C19.30,44.02 30.69,41.80 34.22,41.90 C37.87,42.01 44.43,44.01 48.23,44.45 C48.23,44.45 25.98,44.13 25.98,44.13 C27.31,42.93 43.28,41.26 51.03,41.52 C54.03,41.63 62.67,42.51 62.64,42.51 C62.64,42.51 50.41,41.41 50.41,41.41 C55.01,38.65 63.43,39.53 63.71,39.82 C63.62,40.09 61.12,41.73 60.19,42.51 C56.37,45.75 53.43,51.50 53.39,53.05 C54.39,53.61 54.81,53.74 55.14,53.52 C56.43,52.62 65.30,43.28 66.27,41.94 C65.40,41.83 63.10,43.24 60.50,45.51 C56.39,49.12 54.49,52.27 54.37,52.92 C55.40,53.46 56.08,53.49 56.91,52.93 C58.38,51.93 61.27,49.38 63.78,46.46 C65.75,44.15 66.85,42.11 66.92,40.94 C66.08,40.64 64.58,41.32 63.10,42.31 C56.61,46.72 49.49,55.36 49.07,56.51 C50.19,56.72 52.58,55.72 54.37,54.54 C64.64,47.69 65.50,44.36 65.53,43.59 C63.51,42.92 56.75,44.59 52.43,46.61 C48.25,48.58 41.71,52.99 40.01,54.46 C40.01,54.46 59.52,44.13 59.52,44.13 C58.23,43.69 54.85,44.64 53.87,45.04 C50.08,46.61 38.99,53.14 35.33,55.96 C35.33,55.96 53.84,45.68 53.84,45.68 C48.56,45.11 33.03,54.02 31.28,55.04 C31.28,55.04 47.92,44.51 47.92,44.51 C43.34,43.94 30.49,51.99 30.46,52.06 C30.46,52.06 41.12,45.21 41.12,45.21 C41.12,45.21 27.79,50.88 27.79,50.88 C27.79,50.88 36.95,44.37 36.95,44.37 C36.95,44.37 23.90,48.64 23.90,48.64 C24.26,47.12 24.02,46.52 22.06,46.54 C22.06,46.54 29.58,53.98 29.58,53.98 C29.14,54.47 24.84,54.67 24.09,55.74 C23.15,57.10 22.46,63.29 23.34,65.21 C23.68,65.89 24.93,66.74 25.26,66.61 C25.26,66.61 23.14,52.43 23.14,52.43 C22.46,52.58 22.13,52.83 21.92,53.72 C19.42,64.37 21.89,71.13 22.00,71.38 C22.00,71.38 19.73,57.11 19.73,57.11 C19.73,57.11 21.69,73.43 21.69,73.43 C21.79,73.66 26.43,71.99 26.99,71.80 C29.60,70.91 32.80,70.71 35.81,70.71 C31.61,69.39 24.48,69.44 22.40,70.42 C23.15,70.27 24.52,69.08 26.22,66.67 C26.60,66.12 32.19,57.56 32.90,56.31 C34.26,53.90 34.28,53.15 34.11,52.46 C29.28,53.13 23.00,63.68 22.21,65.36 C23.40,65.37 24.73,64.09 26.88,61.66 C29.18,59.14 34.43,54.52 35.12,53.89 C35.12,53.89 22.88,70.81 22.88,70.81 C23.42,70.90 25.20,69.78 27.62,67.10 C32.18,61.89 39.85,54.71 39.82,54.73 C32.53,61.37 26.17,71.26 25.90,71.81 C26.93,71.75 29.14,69.45 32.70,65.46 C37.26,60.38 42.72,55.90 42.96,55.71 C39.69,57.36 26.76,73.07 26.57,73.62 C28.22,72.91 39.98,61.22 42.10,59.55 C43.80,58.22 48.07,55.43 48.76,54.97 C45.86,55.39 31.63,72.26 31.40,73.43 C32.14,73.91 32.77,73.91 33.59,73.29 C34.53,72.58 44.66,61.68 49.19,57.96 C50.65,56.76 51.66,55.86 52.65,54.89 C48.82,55.30 33.23,72.45 32.61,73.48 C33.45,74.08 34.95,73.61 35.60,73.26 C36.18,72.93 56.29,56.55 56.82,56.08 C54.81,56.28 38.46,71.79 36.05,74.62 C36.06,74.62 32.45,73.21 31.51,73.14 C29.48,73.01 27.91,73.20 26.14,73.50 C29.73,73.49 36.02,73.44 39.51,72.96 C41.58,72.67 54.24,70.15 58.09,70.19 C58.47,70.20 59.29,70.23 60.55,70.28 C60.55,70.28 39.67,69.14 39.67,69.14 C40.28,65.97 52.42,57.09 55.29,55.82 C54.51,57.04 40.58,70.56 39.24,72.13 C37.62,74.07 37.25,74.81 37.02,75.43 C37.97,75.73 42.03,74.33 45.19,72.26 C47.32,70.84 57.67,63.35 57.68,63.34 C44.25,71.51 39.31,75.99 39.07,76.39 C39.67,76.44 53.11,73.10 61.51,72.48 C66.87,72.07 68.17,71.93 69.30,71.76 C69.30,71.76 47.66,70.85 47.66,70.85 C49.45,70.70 54.24,69.97 57.61,68.87 C61.31,67.63 68.20,62.28 69.08,60.47 C69.44,59.66 69.20,58.44 68.63,58.00 C67.45,57.13 62.93,57.45 59.63,59.19 C52.44,63.06 48.96,69.04 48.83,69.37 C49.86,69.18 56.12,61.85 60.10,57.72 C64.74,52.87 66.98,49.80 66.98,49.17 C65.17,49.80 56.84,56.62 54.23,59.20 C51.44,61.97 49.82,64.35 50.03,64.25 C50.03,64.25 69.58,44.47 69.58,44.47 C68.71,44.13 66.42,45.31 64.95,46.45 C61.98,48.79 54.06,56.97 54.30,56.90 C54.30,56.90 71.06,41.85 71.06,41.85 C69.18,42.21 64.41,46.31 60.53,51.53 C56.42,57.08 51.40,66.85 51.53,68.70 C52.75,68.21 59.18,59.93 62.75,55.58 C66.88,50.73 70.68,47.04 70.82,46.86 C70.82,46.86 52.93,71.42 52.93,71.42 C52.93,71.42 70.13,50.43 70.13,50.43 C66.27,53.67 54.45,72.49 53.94,73.90 C54.89,73.94 55.52,73.72 56.32,72.76 C59.23,69.29 69.05,54.50 69.13,54.41 C69.13,54.41 56.08,74.65 56.08,74.65 C56.96,74.76 57.44,74.66 58.13,73.92 C60.14,71.72 68.63,60.20 71.29,57.91 C71.64,57.61 71.77,57.47 71.85,57.32 C70.16,57.99 66.50,62.77 62.15,69.41 C60.21,72.51 60.11,72.92 59.97,73.79 C61.22,74.08 62.07,74.00 62.86,73.35 C66.41,70.07 71.52,65.50 72.07,64.99 C70.37,65.26 62.39,73.50 62.14,74.93 C62.74,75.28 63.23,75.35 63.95,74.89 C69.96,71.05 72.75,68.95 72.71,68.85 C72.39,68.77 69.60,68.62 68.92,68.28 C68.16,67.89 67.00,66.18 66.87,66.08 C65.97,66.63 65.50,69.55 65.51,71.67 C65.53,72.67 65.88,73.96 66.51,74.31 C68.23,73.64 71.65,65.51 71.47,64.13 C70.36,64.22 68.80,66.62 68.51,67.89 C68.23,69.14 68.42,70.92 68.82,71.30 C70.05,71.64 73.26,67.52 73.43,66.35 C72.04,66.81 70.71,71.50 71.45,71.92 C71.45,71.92 77.89,63.34 77.89,63.34 C77.89,63.34 70.28,72.55 70.28,72.55 C70.28,72.55 78.70,63.01 78.70,63.01 C78.70,63.01 75.02,68.33 75.02,68.33 C75.02,68.33 79.72,61.15 79.72,61.15 C79.53,61.00 78.89,60.89 78.48,61.26 C75.48,64.07 73.96,67.64 73.90,67.99 C74.56,68.33 75.87,67.31 77.98,65.12 C78.76,64.31 79.76,63.29 79.80,63.24 C79.80,63.24 73.76,70.50 73.76,70.50 C73.76,70.50 81.08,63.89 81.08,63.89 C81.08,63.89 76.45,68.25 76.45,68.25 C76.47,67.85 79.48,54.78 79.54,49.97 C79.57,45.33 78.73,42.35 78.67,42.30 C78.67,42.30 79.03,61.50 79.03,61.50 C79.03,61.50 79.96,33.64 79.96,33.64 C79.96,33.64 77.91,61.81 77.91,61.81 C76.60,59.85 79.07,36.09 78.50,34.98 C77.45,35.99 75.12,48.33 74.62,53.78 C74.06,60.16 74.67,65.78 75.17,66.25 C75.50,65.57 76.55,49.26 76.74,46.70 C77.15,40.66 76.47,38.96 76.10,38.24 C75.23,38.67 74.31,41.17 73.73,43.37 C72.53,48.05 71.83,58.68 72.21,62.05 C72.68,65.97 73.40,67.12 73.71,67.46 C73.71,67.46 74.19,37.93 74.19,37.93 C74.19,37.93 70.78,47.98 70.78,47.98 C71.23,47.99 73.99,38.91 73.93,36.96 C73.93,36.88 73.89,36.81 73.83,36.74 C73.83,36.74 70.58,43.27 70.58,43.27 C71.34,43.50 73.25,41.54 74.35,39.84 C75.28,38.38 76.21,36.29 76.19,35.83 C76.19,35.83 73.24,37.24 73.24,37.24 C73.24,37.24 77.46,35.48 77.46,35.48 C75.85,39.21 72.60,63.52 72.66,66.89 C72.66,66.89 74.86,64.75 74.86,64.75 C74.86,64.75 73.50,67.47 73.50,67.47 C73.57,67.57 75.25,67.93 75.79,68.21 C76.42,68.57 75.08,70.98 75.02,71.50 C75.02,71.50 77.15,71.04 77.15,71.04 C77.15,71.04 74.81,72.64 74.81,72.64 C74.81,72.64 74.48,72.04 74.48,72.04" fill="none" stroke="rgb(173, 141, 108)" stroke-width="3.00" stroke-opacity="1.00" stroke-linejoin="round"/>
<path d="M26.91,34.50 C26.91,34.50 27.58,33.52 27.58,33.52 C27.58,33.52 24.07,35.59 24.07,35.59 C24.07,35.59 28.51,34.45 28.51,34.45 C28.51,34.45 23.14,36.10 23.14,36.10 C23.14,36.10 28.80,35.35 28.80,35.35 C28.80,35.35 21.59,36.93 21.59,36.93 C21.59,36.93 26.76,36.41 26.76,36.41 C26.76,36.41 28.41,34.17 28.41,34.17 C28.41,34.17 32.15,36.28 32.15,36.28 C32.71,34.96 30.98,34.02 28.82,34.04 C28.82,34.04 37.53,34.55 37.53,34.55 C35.17,35.73 31.03,34.22 30.50,33.86 C30.50,33.86 37.04,35.38 37.04,35.38 C37.04,35.38 31.69,35.79 31.69,35.79 C31.69,35.79 38.22,37.11 38.22,37.11 C38.22,37.11 34.30,35.90 34.30,35.90 C34.30,35.90 36.98,35.90 36.98,35.90 C36.98,35.90 35.23,34.04 35.23,34.04 C35.23,34.04 33.88,33.73 33.88,33.73 C33.86,33.79 33.89,34.07 33.88,34.50 C33.88,34.58 33.88,34.68 33.88,34.79" fill="none" stroke="rgb(109, 93, 77)" stroke-width="2.00" stroke-opacity="1.00" stroke-linejoin="round"/>
<path d="M66.22,33.21 C66.22,33.21 66.22,32.49 66.22,32.49 C66.22,32.49 63.84,35.51 63.84,35.51 C64.56,36.10 67.65,34.06 67.67,33.39 C67.65,33.01 66.65,32.47 66.04,32.49 C64.62,32.57 63.61,35.61 63.89,36.49 C64.89,36.79 65.08,34.15 65.08,31.79 C65.08,31.79 65.06,34.40 65.06,34.40 C65.06,34.40 70.04,33.83 70.04,33.83 C70.04,33.83 65.70,33.16 65.70,33.16 C66.60,31.42 73.26,32.93 73.22,32.95 C73.22,32.95 66.04,35.79 66.04,35.79 C66.04,35.79 70.97,34.04 70.97,34.04 C70.97,34.04 66.43,36.41 66.43,36.41 C66.43,36.41 69.73,36.34 69.73,36.34 C69.73,36.34 67.92,36.41 67.92,36.41 C67.92,36.41 74.04,32.41 74.04,32.41 C74.04,32.41 71.93,33.31 71.93,33.31 C71.93,33.31 75.31,31.76 75.31,31.76 C75.31,31.76 75.62,30.65 75.62,30.65 C75.30,30.57 73.08,32.03 71.95,32.62 C71.63,32.79 71.11,32.84 70.89,33.06 C70.87,33.08 70.86,33.09 70.87,33.11" fill="none" stroke="rgb(109, 93, 77)" stroke-width="2.00" stroke-opacity="1.00" stroke-linejoin="round"/>
<path d="M82.08,33.99 C82.08,33.99 81.84,33.86 81.84,33.86 C81.79,34.05 81.87,34.91 82.95,37.16 C82.95,37.16 83.69,39.34 83.78,39.41 C83.78,39.41 83.16,34.40 83.16,34.40 C83.16,34.40 85.92,39.90 85.92,39.90 C85.92,39.90 84.43,35.20 84.43,35.20 C84.43,35.20 88.07,40.83 88.07,40.83 C88.07,40.83 85.85,36.39 85.85,36.39 C85.85,36.39 87.91,40.05 87.91,40.05 C87.91,40.05 83.26,40.34 83.26,40.34 C83.26,40.34 89.31,40.96 89.31,40.96 C89.31,40.96 87.53,39.41 87.53,39.41 C87.53,39.41 90.39,40.55 90.39,40.55 C90.39,40.55 90.06,40.65 90.06,40.65" fill="none" stroke="rgb(109, 93, 77)" stroke-width="2.00" stroke-opacity="1.00" stroke-linejoin="round"/>
<path d="M17.99,55.88 C17.99,55.88 20.28,75.55 20.28,75.55 C20.47,75.60 28.38,75.88 33.69,76.39 C36.05,76.43 47.83,76.31 53.89,76.58 C58.93,76.67 68.73,75.57 72.42,75.57" fill="none" stroke="rgb(0, 0, 0)" stroke-width="3.00" stroke-opacity="1.00" stroke-linejoin="round"/>
<path d="M72.42,75.57 C72.42,75.57 70.87,38.31 70.87,38.31 C70.87,38.31 70.76,38.60 70.76,38.60" fill="none" stroke="rgb(0, 0, 0)" stroke-width="3.00" stroke-opacity="1.00" stroke-linejoin="round"/>
<path d="M74.12,75.98 C74.12,75.98 73.76,75.98 73.76,75.98 C73.75,75.99 76.59,72.76 79.27,68.99 C80.94,66.65 83.28,64.85 83.26,64.82 C83.26,64.82 82.44,37.76 82.44,37.76" fill="none" stroke="rgb(0, 0, 0)" stroke-width="3.00" stroke-opacity="1.00" stroke-linejoin="round"/>
<path d="M16.84,38.12 C16.91,37.95 16.92,37.87 16.89,37.88 C16.08,38.09 5.35,51.71 4.75,52.62 C4.56,53.88 17.00,54.58 18.71,54.66 C22.20,54.82 29.97,54.32 31.14,54.38 C32.45,54.46 42.97,55.44 43.82,55.39 C44.63,55.34 46.97,54.60 49.36,54.63 C52.86,54.68 56.76,54.06 57.25,54.15 C57.65,54.22 58.85,54.59 60.33,54.80 C60.33,54.80 70.04,38.07 70.04,38.07" fill="none" stroke="rgb(0, 0, 0)" stroke-width="3.00" stroke-opacity="1.00" stroke-linejoin="round"/>
<path d="M71.18,36.72 C71.18,36.72 71.07,36.79 71.07,36.79 C71.07,36.79 82.44,30.73 82.44,30.73 C82.44,30.73 82.23,35.28 82.23,35.28" fill="none" stroke="rgb(0, 0, 0)" stroke-width="3.00" stroke-opacity="1.00" stroke-linejoin="round"/>
<path d="M83.57,31.56 C83.57,31.56 83.37,31.37 83.37,31.37 C84.02,31.99 86.42,34.62 88.15,36.68 C91.59,40.63 93.38,41.64 93.39,41.68 C93.39,41.68 84.13,43.02 84.13,43.02" fill="none" stroke="rgb(0, 0, 0)" stroke-width="3.00" stroke-opacity="1.00" stroke-linejoin="round"/>
<path d="M16.96,37.33 C16.96,37.33 29.03,31.04 29.03,31.04 C28.87,31.04 41.30,31.41 45.62,31.18 C56.97,30.74 73.69,30.01 79.24,30.01" fill="none" stroke="rgb(0, 0, 0)" stroke-width="3.00" stroke-opacity="1.00" stroke-linejoin="round"/>
<path d="M21.07,38.58 C21.08,38.55 49.71,38.50 59.75,38.31 C60.30,38.27 65.06,38.27 65.65,38.27" fill="none" stroke="rgb(0, 0, 0)" stroke-width="3.00" stroke-opacity="1.00" stroke-linejoin="round"/>
<path d="M28.82,31.76 C28.82,31.76 28.56,31.66 28.56,31.66 C28.56,31.66 29.34,36.83 29.34,36.83 C29.34,36.83 29.34,36.48 29.34,36.48" fill="none" stroke="rgb(0, 0, 0)" stroke-width="2.00" stroke-opacity="1.00" stroke-linejoin="round"/>
<path d="M35.71,33.77 C35.71,33.77 35.39,33.77 35.39,33.77 C35.39,33.77 47.48,34.93 47.48,34.93 C47.48,34.93 34.87,34.70 34.87,34.70 C34.91,34.53 40.48,34.29 42.15,34.46 C43.92,34.67 47.64,35.65 47.59,35.62 C47.59,35.62 35.48,36.09 35.48,36.09 C35.48,36.09 47.54,34.93 47.54,34.93 C47.54,34.93 39.57,34.81 39.57,34.81 C39.57,34.81 57.68,34.26 57.68,34.26 C57.45,34.41 54.13,34.92 51.42,35.11 C48.88,35.26 42.35,33.80 42.09,33.65 C43.46,32.78 54.31,32.22 57.48,32.78 C58.75,33.02 59.49,33.72 59.42,34.15 C58.18,35.63 43.25,34.21 43.22,34.12 C43.22,34.12 63.02,34.52 63.02,34.52 C63.58,35.06 45.01,36.64 44.73,36.64 C44.41,36.63 44.15,36.60 43.94,36.55 C43.94,36.55 65.04,35.28 65.04,35.28 C65.04,35.28 53.80,34.00 53.80,34.00 C53.80,34.00 64.81,33.42 64.81,33.42 C64.66,34.24 61.70,34.23 61.51,34.23 C61.48,34.23 61.46,34.23 61.45,34.23" fill="none" stroke="rgb(109, 93, 77)" stroke-width="2.00" stroke-opacity="1.00" stroke-linejoin="round"/>
<path d="M56.58,32.38 C56.78,32.35 58.22,32.55 58.81,32.64 C61.57,33.04 62.86,33.41 63.51,33.94 C63.51,33.94 58.78,35.04 58.78,35.04 C59.92,35.04 61.06,35.04 62.20,35.04 C62.47,35.04 62.74,35.04 63.00,35.04" fill="none" stroke="rgb(109, 93, 77)" stroke-width="2.00" stroke-opacity="1.00" stroke-linejoin="round"/>
<path d="M56.93,35.74 C57.37,35.74 57.69,35.75 57.91,35.77 C58.49,35.81 61.41,35.95 62.29,35.98 C63.38,36.01 64.12,36.13 64.67,36.29 C64.68,36.33 64.69,36.36 64.70,36.38 C64.70,36.39 64.70,36.41 64.70,36.44" fill="none" stroke="rgb(109, 93, 77)" stroke-width="2.00" stroke-opacity="1.00" stroke-linejoin="round"/>
<path d="M62.49,36.09 C62.49,36.09 62.85,36.09 62.85,36.09" fill="none" stroke="rgb(109, 93, 77)" stroke-width="2.00" stroke-opacity="1.00" stroke-linejoin="round"/>
<path d="M47.65,66.93 C47.65,66.93 50.38,65.19 50.38,65.19 C50.38,65.19 44.78,68.64 44.78,68.64 C44.78,68.64 50.52,66.23 50.52,66.23 C50.15,65.52 45.91,67.34 45.80,67.54 C45.78,67.58 45.74,67.65 45.68,67.74" fill="none" stroke="rgb(173, 141, 108)" stroke-width="2.00" stroke-opacity="1.00" stroke-linejoin="round"/>
<path d="M48.64,45.94 C48.64,45.94 48.06,44.41 48.06,44.41 C48.06,44.41 54.70,43.31 54.70,43.31 C54.70,43.31 47.77,44.90 47.77,44.90 C47.44,43.45 49.37,42.92 49.83,42.90 C50.85,43.44 50.77,46.94 50.73,47.57 C50.72,47.71 50.70,47.94 50.67,48.26" fill="none" stroke="rgb(173, 141, 108)" stroke-width="2.00" stroke-opacity="1.00" stroke-linejoin="round"/>
<path d="M46.84,51.45 C46.84,51.45 46.78,51.48 46.78,51.48 C46.86,51.52 46.97,51.55 47.59,51.68 C49.81,52.15 52.36,52.39 52.35,52.26 C50.16,51.80 47.42,51.14 47.36,51.16 C47.36,51.16 47.38,51.16 47.41,51.16" fill="none" stroke="rgb(173, 141, 108)" stroke-width="2.00" stroke-opacity="1.00" stroke-linejoin="round"/>
<path d="M64.70,40.84 C64.70,40.84 64.78,40.84 64.78,40.84 C64.74,40.83 64.63,40.87 64.46,40.96 C64.30,41.04 63.85,41.29 63.10,41.70" fill="none" stroke="rgb(173, 141, 108)" stroke-width="2.00" stroke-opacity="1.00" stroke-linejoin="round"/>
<path d="M21.33,61.02 C21.33,61.02 20.99,61.13 20.99,61.13 C21.12,61.12 36.05,61.11 37.51,61.13 C41.32,61.18 65.78,58.22 67.83,58.23 C67.83,58.23 68.03,43.97 68.03,43.97 C68.03,43.97 64.46,56.81 64.46,56.81 C64.46,56.81 66.67,50.26 66.67,50.26 C66.67,50.26 63.19,56.70 63.19,56.70 C63.65,55.74 65.08,52.88 65.65,51.39 C65.77,50.96 66.46,48.95 66.41,48.44 C65.73,48.61 64.67,50.35 64.29,51.48 C62.51,56.85 62.38,58.21 62.38,58.23 C62.38,58.23 66.44,56.03 66.44,56.03 C63.49,57.46 59.17,58.83 57.36,59.03 C56.24,59.14 51.05,59.58 51.02,59.62 C51.02,59.62 59.42,57.42 59.42,57.42 C59.42,57.42 46.03,58.46 46.03,58.46 C46.03,58.46 52.99,57.42 52.99,57.42 C47.03,57.20 35.53,60.02 35.13,60.09 C35.13,60.09 40.70,59.97 40.70,59.97 C40.70,59.97 26.55,60.20 26.55,60.20 C26.55,60.20 35.65,58.84 35.65,58.84 C35.65,58.84 22.75,59.51 22.75,59.51 C22.75,59.51 28.96,58.23 28.96,58.23 C27.21,58.21 22.71,58.94 21.97,58.93 C20.80,58.86 20.45,57.28 20.41,57.19 C20.41,57.19 22.49,60.90 22.49,60.90 C22.49,60.90 21.51,57.45 21.51,57.45 C21.51,57.45 33.13,58.12 33.13,58.12 C33.13,58.12 24.75,57.19 24.75,57.19 C35.25,55.81 40.78,57.57 40.93,57.57 C40.93,57.57 35.71,58.00 35.71,58.00 C35.71,58.00 50.29,56.73 50.29,56.73 C50.29,56.73 43.97,56.99 43.97,56.99 C43.97,56.99 52.49,58.03 52.49,58.03 C52.49,58.03 44.32,59.74 44.32,59.74 C44.32,59.74 62.15,57.19 62.15,57.19 C62.15,57.19 51.83,57.68 51.83,57.68 C51.83,57.68 66.20,56.20 66.20,56.20 C66.20,56.20 65.74,52.78 65.74,52.78 C65.77,53.02 65.64,54.54 65.39,55.28 C65.38,55.33 65.38,55.38 65.39,55.43" fill="none" stroke="rgb(109, 93, 77)" stroke-width="2.00" stroke-opacity="1.00" stroke-linejoin="round"/>
<path d="M29.33,35.86 C29.33,35.86 28.75,35.86 28.75,35.86 C28.75,35.86 34.67,35.97 34.67,35.97 C34.67,35.97 27.71,35.97 27.71,35.97 C27.71,35.97 44.73,36.32 44.73,36.32 C44.73,36.32 31.42,36.32 31.42,36.32 C31.42,36.32 52.75,36.44 52.75,36.44 C52.75,36.44 37.68,35.74 37.68,35.74 C37.72,35.75 48.60,35.48 56.61,36.49 C56.80,36.52 57.13,36.54 57.60,36.55 C57.60,36.55 44.41,36.55 44.41,36.55 C44.41,36.55 61.57,35.62 61.57,35.62 C61.57,35.62 54.15,36.20 54.15,36.20 C54.15,36.20 64.35,35.97 64.35,35.97 C64.35,35.97 60.52,36.55 60.52,36.55 C60.52,36.55 65.62,36.90 65.62,36.90 C65.74,36.69 66.92,33.58 67.83,32.52 C67.98,32.35 68.59,31.88 68.64,31.80 C68.64,31.80 64.84,36.32 64.84,36.32 C64.84,36.32 70.15,33.19 70.15,33.19 C70.15,33.19 66.49,36.64 66.49,36.64 C66.49,36.64 71.89,32.73 71.89,32.73 C71.89,32.73 67.54,36.49 67.54,36.49 C67.54,36.49 72.70,32.38 72.70,32.38 C72.70,32.38 68.32,36.06 68.32,36.06 C68.32,36.06 72.93,32.03 72.93,32.03 C72.93,32.03 67.62,36.99 67.62,36.99 C67.62,36.99 71.74,32.49 71.74,32.49 C71.35,32.71 71.08,32.86 70.93,32.96 C70.78,33.05 70.54,33.22 70.22,33.46" fill="none" stroke="rgb(204, 204, 204)" stroke-width="2.00" stroke-opacity="1.00" stroke-linejoin="round"/>
<path d="M32.99,33.65 C32.99,33.65 32.12,33.77 32.12,33.77 C32.17,33.75 34.23,33.81 36.93,32.98 C38.18,32.59 39.23,32.42 40.35,32.38 C40.35,32.38 34.44,33.31 34.44,33.31 C34.44,33.31 43.33,32.29 43.33,32.29 C43.33,32.29 32.81,34.00 32.81,34.00 C32.81,34.00 48.32,33.19 48.32,33.19 C48.32,33.19 37.02,34.00 37.02,34.00 C37.02,34.00 59.04,32.15 59.04,32.15 C47.64,34.44 40.99,32.86 40.46,32.61 C40.46,32.61 59.83,32.49 59.83,32.49 C59.36,32.59 58.90,32.69 58.44,32.78 C58.09,32.86 57.75,32.93 57.41,33.00" fill="none" stroke="rgb(255, 255, 255)" stroke-width="2.00" stroke-opacity="1.00" stroke-linejoin="round"/>
<path d="M43.13,34.70 C43.13,34.70 43.07,34.70 43.07,34.70 C43.23,34.68 44.60,34.79 44.80,34.80 C49.46,34.92 59.24,33.77 62.44,33.42 C62.44,33.42 50.81,34.12 50.81,34.12 C50.81,34.12 65.74,33.31 65.74,33.31 C65.74,33.31 54.49,32.78 54.49,32.78 C54.49,32.78 67.25,32.03 67.25,32.03 C67.25,32.03 58.70,32.84 58.70,32.84 C58.70,32.84 67.71,32.26 67.71,32.26 C67.71,32.26 62.12,33.88 62.12,33.88 C62.43,33.81 67.14,32.67 67.65,32.64 C67.80,32.63 67.98,32.62 68.17,32.61" fill="none" stroke="rgb(255, 255, 255)" stroke-width="2.00" stroke-opacity="1.00" stroke-linejoin="round"/>
<path d="M62.15,34.29 C62.15,34.29 62.15,34.23 62.15,34.23 C62.27,34.16 62.47,34.12 62.81,34.12 C62.90,34.12 63.12,34.12 63.45,34.12" fill="none" stroke="rgb(255, 255, 255)" stroke-width="2.00" stroke-opacity="1.00" stroke-linejoin="round"/>
<path d="M28.20,36.02 C28.20,36.02 28.09,35.99 28.09,35.99 C28.13,35.91 28.21,35.77 28.40,35.67 C36.38,31.99 39.26,31.35 39.29,31.33 C39.29,31.33 39.17,31.40 39.17,31.40" fill="none" stroke="rgb(0, 0, 0)" stroke-width="2.00" stroke-opacity="1.00" stroke-linejoin="round"/>
<path d="M30.03,35.62 C30.01,35.63 36.48,35.24 42.44,35.59 C47.86,35.86 63.50,34.41 64.09,34.46" fill="none" stroke="rgb(0, 0, 0)" stroke-width="2.00" stroke-opacity="1.00" stroke-linejoin="round"/>
<path d="M40.06,31.44 C40.36,31.26 41.34,31.21 41.74,31.17 C47.25,30.73 66.30,30.53 70.15,30.62" fill="none" stroke="rgb(0, 0, 0)" stroke-width="2.00" stroke-opacity="1.00" stroke-linejoin="round"/>
<path d="M71.59,31.42 C71.59,31.42 71.65,31.26 71.65,31.26 C71.65,31.26 64.39,35.61 64.39,35.61" fill="none" stroke="rgb(0, 0, 0)" stroke-width="2.00" stroke-opacity="1.00" stroke-linejoin="round"/>
<path d="M65.62,35.04 C65.62,35.04 65.51,34.93 65.51,34.93 C65.48,36.51 65.71,38.52 65.80,38.70 C65.82,38.74 65.88,38.80 65.97,38.87" fill="none" stroke="rgb(0, 0, 0)" stroke-width="2.00" stroke-opacity="1.00" stroke-linejoin="round"/>
<path d="M28.00,36.55 C27.83,36.48 27.76,36.46 27.54,36.44 C27.50,36.43 27.44,36.42 27.36,36.41 C27.36,36.41 27.36,36.32 27.36,36.32 C27.39,36.50 27.42,36.69 27.45,36.87 C27.46,36.97 27.49,37.14 27.52,37.37" fill="none" stroke="rgb(0, 0, 0)" stroke-width="2.00" stroke-opacity="1.00" stroke-linejoin="round"/>
<path d="M72.46,30.70 C72.46,30.70 72.38,30.46 72.38,30.46 C72.25,31.22 72.20,32.38 72.26,33.39 C72.29,33.83 72.41,34.29 72.52,34.64 C72.54,34.69 72.56,34.75 72.58,34.81" fill="none" stroke="rgb(0, 0, 0)" stroke-width="2.00" stroke-opacity="1.00" stroke-linejoin="round"/>
</g>
</svg>
