<?xml version="1.0" encoding="UTF-8" standalone="no"?>
<!DOCTYPE svg PUBLIC "-//W3C//DTD SVG 1.1//EN" "http://www.w3.org/Graphics/SVG/1.1/DTD/svg11.dtd">
<svg width="100.00" height="100.00" viewBox="0.00 0.00 100.00 100.00" xmlns="http://www.w3.org/2000/svg" xmlns:xlink="http://www.w3.org/1999/xlink">
<g stroke-linecap="round" id="圖層_9">
<path d="M53.17,20.42 C52.68,19.48 50.83,16.99 50.21,16.55 C49.85,16.31 49.46,16.23 49.03,16.26 C47.44,18.01 44.67,25.03 44.09,29.15 C43.85,31.00 44.08,33.58 44.57,34.98 C44.82,35.62 46.00,36.57 47.18,36.84 C48.32,37.08 50.65,36.43 51.53,35.68 C53.37,34.05 56.46,27.65 56.65,24.41 C56.71,23.31 56.49,21.46 56.24,20.79 C55.96,20.08 54.49,19.08 53.65,18.84 C52.45,18.54 48.53,22.42 47.20,25.12 C45.86,27.90 46.07,29.43 46.20,29.86 C47.05,30.56 48.57,30.29 49.13,29.99 C50.47,29.24 53.71,23.09 53.44,21.19 C53.26,20.09 52.54,19.03 51.84,18.96 C50.38,18.86 47.00,22.70 45.64,25.99 C45.10,27.33 44.76,29.27 44.96,29.95 C45.19,30.67 46.24,31.25 47.01,31.12 C48.40,30.85 53.17,26.24 54.28,23.97 C54.81,22.86 55.24,20.60 55.08,19.74 C54.87,18.70 53.97,17.31 53.22,17.00 C52.35,16.66 50.36,16.57 49.50,16.97 C46.82,18.32 39.62,26.72 39.32,27.94 C39.15,28.71 39.70,30.27 40.57,30.83 C41.51,31.41 43.89,31.46 45.23,30.98 C47.32,30.19 51.19,26.42 51.73,24.86 C52.36,22.90 51.55,18.11 49.78,16.50 C48.88,15.73 46.09,15.19 44.63,15.99 C42.74,17.05 38.49,24.59 37.95,27.14 C37.81,27.86 38.35,29.75 38.87,30.31 C39.94,31.39 43.75,31.11 45.93,29.46 C49.26,26.85 51.05,22.44 50.77,21.09 C50.51,19.99 47.36,17.47 45.73,17.05 C43.91,16.62 39.13,17.89 36.87,20.28 C35.93,21.30 34.48,23.43 34.24,24.17 C33.98,25.00 34.01,26.66 34.78,27.30 C36.00,28.27 40.52,27.92 42.76,26.05 C43.95,25.03 45.44,23.13 45.70,22.29 C45.93,21.46 45.91,19.97 45.28,19.28 C44.66,18.63 42.34,18.76 41.41,19.10 C39.15,19.96 35.88,21.84 34.74,22.85 C32.70,24.72 30.77,29.80 30.63,32.68 C30.50,35.87 32.09,39.87 33.48,40.61 C34.89,41.33 39.02,40.08 40.83,37.90 C42.56,35.79 44.84,30.20 45.25,27.52 C45.38,26.62 45.24,24.60 44.74,23.84 C44.24,23.13 42.71,22.69 41.96,22.75 C40.13,22.93 35.66,26.46 34.17,29.44 C32.55,32.76 31.70,40.16 32.15,43.74 C32.53,46.64 34.47,50.04 35.67,50.60 C36.64,49.93 39.09,37.55 39.05,34.38 C39.02,33.07 38.22,31.26 37.35,31.10 C36.45,30.96 35.21,32.35 34.67,33.36 C33.40,35.82 31.91,46.82 32.72,49.75 C33.02,50.77 33.58,51.17 34.25,51.45 C35.35,50.66 37.21,45.39 37.77,43.18 C38.65,39.69 38.97,36.61 38.88,35.71 C38.79,34.94 38.20,33.89 37.10,33.46 C36.53,33.25 34.83,34.12 34.15,34.92 C33.46,35.76 32.01,38.82 31.74,39.94 C30.22,46.44 30.91,54.92 31.72,56.31 C31.93,56.65 32.23,56.90 32.72,57.21 C33.28,56.85 33.99,54.81 34.30,52.34 C34.69,49.02 34.69,42.43 34.13,39.68 C33.81,38.24 32.65,35.85 32.17,35.49 C31.50,35.49 30.59,36.53 29.82,38.58 C28.87,41.19 28.03,49.25 28.99,51.67 C29.50,52.93 30.22,53.64 30.47,53.83 C31.06,53.50 31.39,51.89 31.63,48.78 C32.06,43.01 31.84,37.84 31.38,37.30 C30.24,38.19 29.29,42.91 28.93,46.65 C28.55,50.64 28.66,56.54 29.17,58.06 C29.69,59.56 30.36,60.56 30.54,60.80 C30.54,60.80 28.84,51.85 28.84,51.85 C28.84,51.85 29.64,63.82 29.64,63.82 C29.64,63.82 29.19,58.35 29.19,58.35 C29.19,58.35 25.64,61.05 25.64,61.05 C25.64,61.05 33.20,60.31 33.20,60.31 C33.17,60.15 30.93,59.45 29.73,59.46 C27.40,59.51 25.64,61.84 25.31,62.35 C25.05,62.70 38.38,60.00 45.25,59.70 C49.37,59.51 51.95,58.95 52.21,58.55 C51.41,58.58 41.43,61.12 35.17,61.04 C33.56,61.01 30.73,60.86 29.51,60.83 C30.06,60.94 36.76,62.69 38.75,62.84 C42.73,63.10 47.86,61.22 50.44,59.87 C50.44,59.87 33.06,62.90 33.06,62.90 C38.66,62.54 52.40,61.44 57.43,59.51 C59.18,58.83 61.03,57.71 61.57,56.83 C61.70,56.23 59.30,51.07 58.80,49.48 C58.07,47.02 58.17,41.03 58.04,40.28 C57.53,39.64 55.64,39.72 54.66,40.25 C49.13,43.36 40.82,58.34 40.74,59.82 C42.13,59.64 49.85,50.75 51.76,48.53 C57.13,42.33 58.87,40.08 59.24,39.14 C58.77,38.82 56.25,39.41 54.62,40.25 C45.92,44.85 38.05,53.70 37.10,54.86 C38.53,54.80 42.98,49.77 48.78,42.60 C50.42,40.57 52.20,38.01 52.54,36.92 C51.42,36.49 45.67,39.68 42.04,43.06 C40.52,44.48 36.96,48.45 36.18,49.64 C35.66,50.42 35.04,51.93 35.41,52.99 C36.49,53.72 40.30,52.72 42.35,50.80 C44.72,48.54 49.62,40.92 49.82,38.78 C48.87,38.26 47.14,39.45 46.44,40.27 C44.49,42.58 39.69,52.20 40.11,53.68 C40.32,54.29 42.03,54.67 43.15,54.54 C45.34,54.22 58.25,42.79 58.75,42.46 C58.75,42.46 49.63,58.46 49.63,58.46 C49.63,58.46 60.05,47.72 60.05,47.72 C59.59,47.37 58.77,47.59 56.82,48.74 C51.36,51.96 48.45,54.99 48.29,55.76 C48.89,56.23 51.40,55.89 54.15,54.81 C61.20,52.05 63.85,51.82 64.31,51.82 C64.30,51.82 51.35,58.54 50.87,59.96 C50.86,60.02 50.84,60.22 50.80,60.56 C51.48,61.02 53.76,61.33 55.15,61.18 C56.75,60.97 66.24,56.21 67.35,55.75 C67.35,55.75 51.82,60.62 51.82,60.62 C55.28,61.26 58.95,61.07 64.33,59.11 C69.18,57.34 70.67,57.36 70.68,57.39 C70.16,57.59 64.22,58.82 60.96,59.94 C59.35,60.50 53.77,62.77 53.68,62.79 C55.57,62.92 67.31,60.93 72.53,61.16 C72.86,61.17 75.46,60.28 75.46,60.31 C75.46,60.31 64.74,60.60 64.74,60.60 C64.86,61.19 66.55,61.66 70.25,61.56 C73.89,61.45 76.02,60.92 76.11,61.03 C75.74,61.93 73.14,60.77 72.42,59.19 C71.98,58.12 70.56,47.57 69.43,46.17 C69.27,45.98 69.04,45.87 68.87,45.84 C68.87,45.84 72.44,59.02 72.44,59.02 C72.46,57.86 72.38,51.86 72.35,48.79 C72.32,44.35 71.69,39.44 70.61,35.99 C68.54,29.40 67.68,28.46 67.42,28.42 C66.42,30.48 64.96,39.55 65.07,43.98 C65.18,47.90 66.68,51.27 67.97,51.74 C68.89,50.64 69.31,43.25 69.26,41.07 C69.17,37.61 68.11,32.25 67.68,30.97 C67.20,29.60 66.46,28.17 65.63,27.85 C64.46,28.74 62.18,41.58 62.32,44.94 C62.49,48.40 63.34,49.50 63.73,49.84 C64.69,49.61 64.27,34.35 63.37,30.50 C63.09,29.34 62.29,27.89 61.57,27.70 C60.63,28.51 59.05,35.34 58.93,40.46 C58.86,43.67 59.53,44.95 59.93,45.48 C60.55,44.93 60.74,44.53 60.72,43.36 C60.63,38.61 59.89,33.36 59.09,31.38 C58.55,30.12 57.99,29.79 57.27,29.58 C55.97,30.42 55.22,33.45 55.94,34.80 C56.92,35.28 58.08,35.03 58.48,34.78 C59.31,34.23 63.16,29.33 63.26,29.15 C62.55,29.12 59.38,29.85 58.12,29.71 C55.73,29.43 52.50,27.21 51.84,25.45 C51.09,23.25 51.84,19.03 52.29,18.14 C53.05,17.94 60.70,23.05 61.57,24.19 C62.62,25.59 63.15,26.73 63.06,27.10 C62.14,27.69 56.14,25.08 55.00,23.59 C53.68,21.78 53.37,18.21 54.18,17.30 C55.00,16.43 57.89,15.92 59.48,16.56 C60.98,17.20 67.93,26.81 68.11,27.25 C68.34,27.81 68.34,28.27 68.18,28.64 C67.37,29.17 64.57,29.56 63.28,29.17 C61.67,28.64 59.47,26.41 58.82,24.91 C58.36,23.78 58.49,22.81 58.64,22.45 C59.27,22.07 61.63,22.33 64.80,24.42 C67.07,25.93 67.48,27.37 67.02,29.20 C67.02,29.20 65.07,24.39 65.07,24.39 C65.07,24.39 68.22,27.16 68.22,27.16 C68.22,27.16 67.77,27.16 67.77,27.16" fill="none" stroke="rgb(194, 69, 26)" stroke-width="5.00" stroke-opacity="1.00" stroke-linejoin="round"/>
<path d="M51.16,71.42 C51.15,70.96 51.03,70.51 50.77,70.23 C50.31,69.75 48.93,69.17 48.49,69.02 C48.49,69.02 51.27,69.09 51.27,69.09 C51.27,69.09 50.19,68.80 50.19,68.80 C50.19,68.80 51.91,68.65 51.91,68.65 C51.91,68.65 51.31,76.75 51.31,76.75" fill="none" stroke="rgb(116, 116, 116)" stroke-width="5.00" stroke-opacity="1.00" stroke-linejoin="round"/>
<path d="M51.61,76.43 C51.61,76.43 50.51,71.37 50.51,71.37 C50.51,71.37 50.07,76.88 50.07,76.88" fill="none" stroke="rgb(116, 116, 116)" stroke-width="5.00" stroke-opacity="1.00" stroke-linejoin="round"/>
<path d="M51.51,77.92 C51.51,77.92 50.99,73.40 50.99,73.40 C50.99,73.40 51.24,78.70 51.24,78.70" fill="none" stroke="rgb(116, 116, 116)" stroke-width="5.00" stroke-opacity="1.00" stroke-linejoin="round"/>
<path d="M48.30,68.22 C48.30,68.22 53.28,68.45 53.28,68.45" fill="none" stroke="rgb(38, 38, 38)" stroke-width="5.00" stroke-opacity="1.00" stroke-linejoin="round"/>
<path d="M58.55,16.08 C58.55,16.08 58.55,15.99 58.55,15.99 C58.88,16.59 62.83,17.74 64.78,20.17 C65.78,21.42 66.99,22.52 68.15,24.50 C68.71,25.47 70.07,28.56 70.30,29.04 C70.77,30.02 71.51,36.31 71.71,40.21 C71.90,41.51 72.56,53.49 72.56,53.54 C72.58,53.64 72.56,57.36 72.56,57.57 C72.56,57.57 72.69,57.55 72.69,57.55" fill="none" stroke="rgb(241, 177, 154)" stroke-width="2.00" stroke-opacity="1.00" stroke-linejoin="round"/>
<path d="M73.33,59.20 C73.30,59.20 73.37,59.19 73.40,59.19 C74.11,59.10 75.38,59.09 75.59,59.08 C75.59,59.08 75.71,58.93 75.71,58.93" fill="none" stroke="rgb(241, 177, 154)" stroke-width="2.00" stroke-opacity="1.00" stroke-linejoin="round"/>
<path d="M45.30,28.90 C45.30,28.90 45.19,28.90 45.19,28.90 C45.22,28.88 45.35,28.79 45.81,28.79 C52.04,29.05 63.62,29.01 64.20,29.26 C64.20,29.26 64.20,33.35 64.20,33.35" fill="none" stroke="rgb(241, 177, 154)" stroke-width="2.00" stroke-opacity="1.00" stroke-linejoin="round"/>
<path d="M45.52,49.43 C45.52,49.43 45.43,49.43 45.43,49.43 C45.84,49.43 46.26,49.43 46.67,49.43 C50.54,49.43 56.38,49.86 61.16,49.86 C61.16,49.86 61.38,56.67 61.38,56.67 C61.38,56.67 61.47,56.70 61.47,56.70" fill="none" stroke="rgb(241, 177, 154)" stroke-width="2.00" stroke-opacity="1.00" stroke-linejoin="round"/>
<path d="M53.28,38.02 C53.28,38.02 53.26,37.40 53.26,37.40 C54.60,37.19 57.67,38.80 58.55,39.63 C58.75,39.82 58.95,40.02 59.17,40.25 C59.22,40.30 59.27,40.36 59.31,40.41" fill="none" stroke="rgb(194, 69, 26)" stroke-width="2.00" stroke-opacity="1.00" stroke-linejoin="round"/>
<path d="M49.81,9.88 C49.81,9.88 49.81,9.74 49.81,9.74 C49.33,9.51 48.33,10.33 48.66,11.10 C49.15,12.14 51.18,10.86 50.71,10.01 C50.31,9.36 48.75,9.97 48.64,10.58 C48.54,11.33 50.56,11.21 50.65,10.20 C50.70,9.42 49.14,9.24 48.98,9.98 C48.81,10.97 50.42,11.34 50.57,10.61 C50.70,9.79 49.31,9.24 48.86,9.58 C48.33,10.02 49.08,11.17 50.20,11.15 C50.85,11.11 50.87,9.40 50.07,9.27 C49.32,9.16 48.37,10.22 48.76,10.82 C49.31,11.61 51.23,10.90 50.63,9.81 C50.10,8.92 48.39,9.64 48.42,10.64 C48.49,11.87 50.45,11.99 50.69,11.88 C50.72,11.86 50.79,11.82 50.89,11.75" fill="none" stroke="rgb(194, 69, 26)" stroke-width="2.00" stroke-opacity="1.00" stroke-linejoin="round"/>
<path d="M48.76,11.43 C48.76,11.43 48.69,11.75 48.69,11.75 C48.02,12.13 47.00,11.48 46.80,10.60 C46.56,9.37 48.33,7.29 49.45,7.35 C50.77,7.45 52.81,9.05 52.88,10.47 C52.92,11.75 51.14,13.01 50.64,12.77 C50.64,12.77 50.59,12.61 50.59,12.61" fill="none" stroke="rgb(0, 0, 0)" stroke-width="2.00" stroke-opacity="1.00" stroke-linejoin="round"/>
<path d="M44.39,16.63 C40.93,17.84 38.54,19.59 37.53,20.61 C35.36,22.86 33.17,25.95 32.40,29.01 C31.19,34.01 30.25,52.88 30.32,56.07 C30.44,59.92 30.53,60.30 30.53,60.33 C30.54,60.41 30.57,60.49 30.60,60.52" fill="none" stroke="rgb(0, 0, 0)" stroke-width="1.00" stroke-opacity="1.00" stroke-linejoin="round"/>
<path d="M51.55,12.81 C49.33,12.53 45.76,12.88 42.06,13.82 C38.80,14.65 35.57,16.84 33.51,18.85 C30.38,22.02 29.10,24.76 27.40,30.24 C26.75,32.33 25.82,46.31 25.66,51.23 C25.59,52.79 25.56,53.95 25.55,55.51 C25.54,56.10 25.54,56.70 25.53,57.30" fill="none" stroke="rgb(0, 0, 0)" stroke-width="3.00" stroke-opacity="1.00" stroke-linejoin="round"/>
<path d="M48.45,12.81 C50.67,12.53 54.24,12.88 57.94,13.82 C61.20,14.65 64.43,16.84 66.49,18.85 C69.62,22.02 70.90,24.76 72.60,30.24 C73.25,32.33 74.18,46.31 74.34,51.23 C74.41,52.79 74.44,53.95 74.45,55.51 C74.46,56.10 74.46,56.70 74.47,57.30" fill="none" stroke="rgb(0, 0, 0)" stroke-width="3.00" stroke-opacity="1.00" stroke-linejoin="round"/>
<path d="M22.31,57.20 C22.31,57.20 22.22,57.12 22.22,57.12 C22.64,57.14 23.54,57.27 23.88,57.32 C24.51,57.41 24.94,57.44 25.38,57.44 C25.42,57.43 25.43,57.44 25.44,57.45" fill="none" stroke="rgb(0, 0, 0)" stroke-width="3.00" stroke-opacity="1.00" stroke-linejoin="round"/>
<path d="M22.43,57.51 C22.43,57.51 22.30,57.45 22.30,57.45 C22.28,57.51 22.28,57.69 22.28,57.78 C22.28,61.45 22.31,63.22 22.46,64.02 C22.46,64.02 22.52,64.06 22.52,64.06 C22.52,64.06 22.57,63.91 22.57,63.91" fill="none" stroke="rgb(0, 0, 0)" stroke-width="3.00" stroke-opacity="1.00" stroke-linejoin="round"/>
<path d="M22.65,65.19 C22.65,65.19 22.60,65.11 22.60,65.11 C22.98,65.10 24.71,65.06 25.05,65.07 C28.39,65.32 37.42,65.46 43.11,65.36 C44.39,65.38 61.21,65.88 66.21,65.31 C66.67,65.25 67.32,65.20 68.14,65.13" fill="none" stroke="rgb(0, 0, 0)" stroke-width="3.00" stroke-opacity="1.00" stroke-linejoin="round"/>
<path d="M68.91,65.63 C69.13,65.48 70.74,65.38 72.92,65.52 C73.17,65.53 74.07,65.26 74.15,65.23" fill="none" stroke="rgb(0, 0, 0)" stroke-width="3.00" stroke-opacity="1.00" stroke-linejoin="round"/>
<path d="M74.31,56.58 C74.31,56.58 78.35,56.89 78.35,56.89 C78.35,56.89 78.77,65.20 78.77,65.20 C78.65,65.05 76.87,65.32 76.43,65.35 C76.07,65.37 75.83,65.19 75.81,65.20" fill="none" stroke="rgb(0, 0, 0)" stroke-width="3.00" stroke-opacity="1.00" stroke-linejoin="round"/>
<path d="M74.98,65.12 C75.08,65.12 75.18,65.12 75.29,65.12 C75.43,65.12 75.57,65.12 75.71,65.12 C75.73,65.12 75.77,65.12 75.75,65.12" fill="none" stroke="rgb(0, 0, 0)" stroke-width="3.00" stroke-opacity="1.00" stroke-linejoin="round"/>
<path d="M46.57,66.52 C46.57,66.52 46.57,66.21 46.57,66.21 C46.57,67.56 46.53,68.77 46.43,70.22 C46.17,73.88 46.14,76.75 46.32,79.66" fill="none" stroke="rgb(0, 0, 0)" stroke-width="3.00" stroke-opacity="1.00" stroke-linejoin="round"/>
<path d="M54.95,66.79 C54.93,66.75 54.92,66.72 54.90,66.68 C54.88,66.65 54.85,66.57 54.80,66.44 C54.79,66.85 54.90,69.65 54.74,71.88 C54.60,73.96 54.55,76.19 54.56,78.75" fill="none" stroke="rgb(0, 0, 0)" stroke-width="3.00" stroke-opacity="1.00" stroke-linejoin="round"/>
<path d="M45.60,16.84 C45.60,16.84 45.40,16.92 45.40,16.92 C47.31,16.91 52.78,16.86 53.08,16.89 C55.23,17.10 60.50,18.76 60.82,18.96 C62.94,20.41 65.97,25.37 66.65,27.18 C66.68,27.27 68.40,32.77 68.46,32.86 C68.47,32.87 68.50,32.92 68.53,32.99" fill="none" stroke="rgb(0, 0, 0)" stroke-width="1.00" stroke-opacity="1.00" stroke-linejoin="round"/>
<path d="M68.69,33.68 C68.69,33.68 68.69,33.63 68.69,33.63 C68.72,34.09 68.76,34.48 68.79,34.80 C68.89,36.05 69.87,57.73 69.85,61.08 C69.85,61.66 69.87,61.83 69.88,61.90 C69.88,61.90 69.93,61.92 69.93,61.92" fill="none" stroke="rgb(0, 0, 0)" stroke-width="1.00" stroke-opacity="1.00" stroke-linejoin="round"/>
<path d="M30.27,61.63 C30.27,61.63 29.96,61.70 29.96,61.70 C29.96,61.70 69.47,61.16 69.47,61.16 C69.47,61.16 69.00,61.08 69.00,61.08" fill="none" stroke="rgb(0, 0, 0)" stroke-width="1.00" stroke-opacity="1.00" stroke-linejoin="round"/>
<path d="M37.22,48.66 C37.22,48.66 37.10,48.59 37.10,48.59 C37.02,49.06 36.94,51.71 36.94,56.10 C36.94,56.11 37.03,57.42 37.02,57.75 C37.02,57.75 62.01,57.67 62.01,57.67 C62.01,57.67 61.78,57.75 61.78,57.75" fill="none" stroke="rgb(0, 0, 0)" stroke-width="2.00" stroke-opacity="1.00" stroke-linejoin="round"/>
<path d="M37.41,48.35 C37.41,48.35 37.44,48.30 37.44,48.30 C38.48,48.20 40.63,48.24 41.94,48.28 C48.76,48.30 61.91,47.59 62.17,47.36 C62.17,47.36 61.95,47.50 61.95,47.50" fill="none" stroke="rgb(0, 0, 0)" stroke-width="2.00" stroke-opacity="1.00" stroke-linejoin="round"/>
<path d="M62.56,47.73 C62.56,47.73 62.49,47.68 62.49,47.68 C62.52,47.84 62.60,48.20 62.65,48.56 C62.86,50.48 63.41,55.35 63.41,57.36 C63.36,57.36 63.31,57.36 63.26,57.36 C63.17,57.36 63.07,57.36 62.98,57.36" fill="none" stroke="rgb(0, 0, 0)" stroke-width="2.00" stroke-opacity="1.00" stroke-linejoin="round"/>
<path d="M51.46,53.48 C51.43,53.52 51.39,53.62 51.32,53.65 C50.15,54.09 48.41,52.74 48.87,51.54 C49.26,50.62 51.33,50.42 51.85,51.15 C52.96,52.79 51.11,53.63 50.63,53.63 C50.57,53.63 50.54,53.63 50.54,53.63" fill="none" stroke="rgb(0, 0, 0)" stroke-width="1.00" stroke-opacity="1.00" stroke-linejoin="round"/>
<path d="M50.45,51.54 C50.45,51.54 50.45,51.47 50.45,51.47 C50.45,51.50 50.49,51.69 50.50,51.82 C50.52,52.09 50.59,53.67 50.62,53.72 C50.62,53.73 50.64,53.75 50.67,53.79" fill="none" stroke="rgb(0, 0, 0)" stroke-width="1.00" stroke-opacity="1.00" stroke-linejoin="round"/>
<path d="M37.37,31.51 C37.36,31.42 37.34,31.35 37.33,31.30 C37.29,31.12 37.26,31.04 37.26,31.07 C37.20,31.25 37.34,33.38 37.33,33.68 C37.33,33.68 62.56,33.45 62.56,33.45" fill="none" stroke="rgb(0, 0, 0)" stroke-width="3.00" stroke-opacity="1.00" stroke-linejoin="round"/>
<path d="M37.36,31.51 C43.05,31.49 50.59,31.75 52.15,31.74 C53.32,31.73 62.24,31.11 62.87,31.12 C62.87,31.12 62.87,33.06 62.87,33.06" fill="none" stroke="rgb(0, 0, 0)" stroke-width="3.00" stroke-opacity="1.00" stroke-linejoin="round"/>
<path d="M36.55,28.83 C36.49,28.80 36.46,28.79 36.44,28.79 C36.43,28.78 36.41,28.78 36.39,28.79 C36.39,28.79 62.40,28.10 62.40,28.10 C62.40,28.10 61.89,28.10 61.89,28.10" fill="none" stroke="rgb(0, 0, 0)" stroke-width="1.00" stroke-opacity="1.00" stroke-linejoin="round"/>
<path d="M36.94,36.87 C36.94,36.87 36.88,36.87 36.88,36.87 C37.36,36.87 38.49,36.86 38.74,36.84 C45.08,36.39 63.35,36.57 63.88,36.32 C63.80,36.32 63.73,36.32 63.66,36.32 C63.63,36.32 63.60,36.32 63.57,36.32" fill="none" stroke="rgb(0, 0, 0)" stroke-width="1.00" stroke-opacity="1.00" stroke-linejoin="round"/>
<path d="M35.94,29.03 C35.91,29.03 35.88,29.03 35.85,29.03 C35.58,29.03 35.02,29.03 34.99,29.05 C33.94,31.10 34.97,36.90 35.00,36.94 C35.00,36.94 36.40,37.02 36.40,37.02" fill="none" stroke="rgb(0, 0, 0)" stroke-width="1.00" stroke-opacity="1.00" stroke-linejoin="round"/>
<path d="M64.19,28.33 C64.19,28.33 64.11,28.33 64.11,28.33 C64.88,28.32 65.23,28.52 65.27,28.68 C65.29,28.74 65.43,36.06 65.40,36.23 C65.40,36.23 64.73,36.32 64.73,36.32" fill="none" stroke="rgb(0, 0, 0)" stroke-width="1.00" stroke-opacity="1.00" stroke-linejoin="round"/>
<path d="M51.50,75.81 C51.50,75.81 52.14,80.91 52.14,80.91 C52.14,80.91 51.90,75.40 51.90,75.40" fill="none" stroke="rgb(116, 116, 116)" stroke-width="5.00" stroke-opacity="1.00" stroke-linejoin="round"/>
<path d="M50.12,77.92 C50.12,77.92 50.73,82.78 50.73,82.78 C50.73,82.78 50.12,77.88 50.12,77.88" fill="none" stroke="rgb(116, 116, 116)" stroke-width="5.00" stroke-opacity="1.00" stroke-linejoin="round"/>
<path d="M49.58,78.77 C49.58,78.77 50.31,86.25 50.31,86.25 C50.31,86.25 51.93,84.64 51.93,84.64 C51.93,84.64 49.44,85.95 49.44,85.95 C49.44,85.95 53.10,85.84 53.10,85.84 C53.13,85.82 53.10,85.73 52.72,85.04 C52.45,84.53 52.17,84.01 51.90,83.50" fill="none" stroke="rgb(116, 116, 116)" stroke-width="5.00" stroke-opacity="1.00" stroke-linejoin="round"/>
<path d="M52.13,76.23 C52.13,76.23 51.93,86.27 51.93,86.27 C51.93,86.27 52.25,85.84 52.25,85.84" fill="none" stroke="rgb(167, 167, 167)" stroke-width="2.00" stroke-opacity="1.00" stroke-linejoin="round"/>
<path d="M46.16,78.58 C46.16,78.58 46.57,88.05 46.57,88.05 C46.60,88.04 46.62,88.00 46.63,87.95 C46.65,87.89 46.68,87.75 46.72,87.51" fill="none" stroke="rgb(0, 0, 0)" stroke-width="3.00" stroke-opacity="1.00" stroke-linejoin="round"/>
<path d="M46.22,87.84 C46.22,87.84 46.42,87.97 46.42,87.97 C46.42,87.97 54.97,87.92 54.97,87.92" fill="none" stroke="rgb(0, 0, 0)" stroke-width="3.00" stroke-opacity="1.00" stroke-linejoin="round"/>
<path d="M54.63,76.86 C54.63,76.86 55.34,88.28 55.34,88.28 C55.34,88.30 55.27,87.64 55.22,87.38 C55.20,87.26 55.16,87.12 55.11,86.96" fill="none" stroke="rgb(0, 0, 0)" stroke-width="3.00" stroke-opacity="1.00" stroke-linejoin="round"/>
<path d="M51.16,9.74 C51.16,9.74 51.10,9.74 51.10,9.74 C51.14,9.79 51.19,9.84 51.24,9.89 C51.26,9.91 51.28,9.94 51.30,9.96" fill="none" stroke="rgb(241, 177, 154)" stroke-width="2.00" stroke-opacity="1.00" stroke-linejoin="round"/>
</g>
</svg>
