<?xml version="1.0" encoding="UTF-8" standalone="no"?>
<!DOCTYPE svg PUBLIC "-//W3C//DTD SVG 1.1//EN" "http://www.w3.org/Graphics/SVG/1.1/DTD/svg11.dtd">
<svg width="100.00" height="100.00" viewBox="0.00 0.00 100.00 100.00" xmlns="http://www.w3.org/2000/svg" xmlns:xlink="http://www.w3.org/1999/xlink">
<g stroke-linecap="round" id="圖層_1_的複製">
<path d="M42.82,23.81 C42.82,24.21 43.02,25.00 43.53,25.22 C44.02,25.41 45.28,25.26 45.56,25.03 C45.89,24.74 45.82,23.69 45.39,23.09 C44.37,21.67 43.37,21.12 43.39,21.18 C43.39,21.18 47.94,26.47 47.94,26.47 C48.61,24.79 47.94,22.66 47.65,22.15 C46.51,20.21 44.83,19.24 44.39,19.28 C43.67,20.05 46.29,24.47 47.79,24.93 C48.24,25.07 48.75,24.96 49.13,24.73 C49.47,24.03 49.10,22.31 48.23,21.07 C46.69,18.94 44.65,18.46 44.34,18.67 C44.16,19.74 47.55,24.23 48.90,24.87 C49.73,25.24 50.68,25.09 51.11,24.84 C51.81,23.64 49.22,19.21 47.82,18.22 C45.99,16.97 44.63,17.29 44.28,17.47 C44.06,19.88 49.34,24.37 50.70,24.64 C51.46,24.78 52.00,24.69 52.33,24.40 C52.75,23.00 51.07,18.98 49.82,17.75 C48.56,16.53 44.89,15.54 44.48,15.82 C44.86,17.08 52.89,24.28 54.55,24.26 C55.21,22.69 54.73,20.55 54.37,19.65 C53.03,16.46 50.10,14.16 48.59,14.21 C47.58,14.27 47.09,15.52 47.33,16.36 C48.18,18.86 52.19,23.27 53.28,23.59 C54.00,23.78 55.32,23.36 55.74,22.40 C56.63,20.21 53.33,15.94 52.14,15.56 C50.91,15.19 49.85,15.75 49.78,16.43 C49.68,17.96 51.99,21.91 53.35,23.22 C54.14,23.95 55.20,24.09 55.75,23.95 C57.13,22.67 55.22,16.51 54.30,15.78 C53.81,15.41 52.83,16.12 52.64,17.08 C52.33,19.15 54.04,24.26 54.85,25.00 C56.13,24.13 56.43,21.70 56.43,20.64 C56.40,19.46 56.19,18.83 55.93,18.50 C54.77,18.67 54.00,20.73 53.83,22.24 C53.67,23.81 53.75,24.68 53.84,25.00 C54.83,24.69 54.67,19.41 53.80,18.74 C53.47,18.49 53.06,18.41 52.61,18.45 C52.61,18.45 51.03,23.45 51.03,23.45 C51.73,22.63 52.34,18.00 51.64,16.89 C50.82,15.68 48.11,15.59 47.90,16.58 C47.90,16.58 49.46,15.62 49.46,15.62 C49.46,15.62 52.40,25.70 52.40,25.70 C52.79,25.72 51.99,25.76 53.06,25.40 C53.09,25.39 53.16,25.38 53.25,25.36" fill="none" stroke="rgb(116, 75, 46)" stroke-width="2.00" stroke-opacity="1.00" stroke-linejoin="round"/>
<path d="M44.80,34.28 C44.74,34.27 44.69,34.27 44.66,34.28 C44.62,34.29 44.54,34.33 44.42,34.39 C44.40,34.62 44.57,34.96 44.98,35.33 C47.12,37.18 49.05,36.98 49.51,36.78 C49.55,35.65 47.72,34.71 46.69,34.39 C45.38,33.99 44.88,34.04 44.61,34.18 C44.75,35.64 46.45,36.94 47.19,37.18 C49.39,37.80 50.84,36.59 50.76,35.95 C50.76,35.95 44.36,33.84 44.36,33.84 C44.41,35.05 47.99,37.11 49.51,37.33 C50.98,37.53 52.46,37.18 52.73,36.80 C53.19,36.05 49.48,34.35 48.52,34.70 C48.48,34.72 48.42,34.77 48.33,34.84 C49.26,35.64 54.73,35.95 55.03,35.03 C55.05,34.97 55.07,34.86 55.08,34.69 C55.08,34.69 51.20,34.64 51.20,34.64 C51.20,34.64 55.94,33.62 55.94,33.62 C55.94,33.62 53.91,34.37 53.91,34.37 C53.91,34.37 56.61,34.22 56.61,34.22 C56.61,34.22 54.88,36.70 54.88,36.70 C54.88,36.70 55.96,34.70 55.96,34.70 C56.17,35.50 54.62,36.43 53.53,36.66 C52.97,36.78 52.87,36.80 52.87,36.81" fill="none" stroke="rgb(116, 75, 46)" stroke-width="2.00" stroke-opacity="1.00" stroke-linejoin="round"/>
<path d="M43.91,14.82 C43.91,14.82 43.35,14.82 43.35,14.82 C43.16,15.81 43.71,16.41 44.57,16.84 C45.33,17.20 48.84,17.63 50.81,17.58 C55.72,17.38 56.40,15.46 56.45,15.08 C55.06,12.48 44.51,13.43 43.49,13.71" fill="none" stroke="rgb(24, 19, 25)" stroke-width="3.00" stroke-opacity="1.00" stroke-linejoin="round"/>
<path d="M37.73,22.72 C37.69,23.24 38.72,25.09 40.10,26.01 C41.31,26.80 44.80,27.72 47.47,27.84 C51.81,28.01 56.90,26.72 56.90,26.72" fill="none" stroke="rgb(0, 0, 0)" stroke-width="3.00" stroke-opacity="1.00" stroke-linejoin="round"/>
<path d="M37.68,22.23 C37.68,22.23 37.61,22.18 37.61,22.18 C37.61,22.18 38.63,21.77 39.07,21.73 C39.07,21.73 39.54,21.76 39.54,21.76" fill="none" stroke="rgb(0, 0, 0)" stroke-width="3.00" stroke-opacity="1.00" stroke-linejoin="round"/>
<path d="M41.56,15.59 C41.56,15.59 41.49,15.24 41.49,15.24 C41.49,15.24 41.54,16.73 41.58,17.76 C41.68,19.77 41.84,23.27 41.91,24.77" fill="none" stroke="rgb(0, 0, 0)" stroke-width="3.00" stroke-opacity="1.00" stroke-linejoin="round"/>
<path d="M58.28,16.37 C58.28,16.37 58.28,16.09 58.28,16.09 C58.28,16.09 58.56,25.52 58.56,25.52" fill="none" stroke="rgb(0, 0, 0)" stroke-width="3.00" stroke-opacity="1.00" stroke-linejoin="round"/>
<path d="M60.16,21.05 C61.76,21.41 61.77,24.15 61.17,25.28 C60.74,26.08 60.10,26.39 60.10,26.39" fill="none" stroke="rgb(0, 0, 0)" stroke-width="3.00" stroke-opacity="1.00" stroke-linejoin="round"/>
<path d="M38.45,32.46 C38.45,32.46 38.38,32.03 38.38,32.03 C38.38,34.41 38.43,36.20 38.57,37.00 C38.57,37.00 38.71,37.61 38.85,38.15 C38.85,38.15 39.25,38.16 39.25,38.16" fill="none" stroke="rgb(0, 0, 0)" stroke-width="3.00" stroke-opacity="1.00" stroke-linejoin="round"/>
<path d="M61.95,22.16 C61.95,22.16 62.27,22.16 62.54,22.44 C63.80,23.78 64.48,25.47 64.49,26.37 C64.45,28.33 62.27,30.88 61.67,31.19" fill="none" stroke="rgb(0, 0, 0)" stroke-width="3.00" stroke-opacity="1.00" stroke-linejoin="round"/>
<path d="M61.67,30.34 C61.67,30.34 61.25,33.19 61.25,33.19 C61.25,33.19 61.55,38.08 61.55,38.08" fill="none" stroke="rgb(0, 0, 0)" stroke-width="3.00" stroke-opacity="1.00" stroke-linejoin="round"/>
<path d="M35.99,39.65 C35.99,39.65 36.27,39.61 36.27,39.61 C36.27,39.61 36.55,39.09 36.55,39.09 C36.55,39.09 36.53,39.09 36.53,39.09 C35.34,39.10 33.70,39.12 33.33,39.25 C31.50,39.90 27.45,41.48 27.09,42.57 C27.09,42.57 26.98,43.11 26.95,43.44 C26.95,43.44 26.95,44.02 26.95,44.02" fill="none" stroke="rgb(0, 0, 0)" stroke-width="3.00" stroke-opacity="1.00" stroke-linejoin="round"/>
<path d="M27.09,42.90 C27.09,42.90 27.09,42.19 27.09,42.19 C26.53,47.18 26.18,50.91 26.15,52.84 C26.09,62.17 26.86,70.52 27.09,73.15 C27.76,79.25 28.82,83.44 29.35,84.95" fill="none" stroke="rgb(0, 0, 0)" stroke-width="3.00" stroke-opacity="1.00" stroke-linejoin="round"/>
<path d="M29.21,85.09 C29.21,85.09 29.21,84.95 29.21,84.95 C29.51,85.02 34.88,87.05 38.94,87.59 C45.49,88.42 53.31,88.53 57.49,88.12 C58.72,87.93 68.22,86.41 70.11,86.22" fill="none" stroke="rgb(0, 0, 0)" stroke-width="3.00" stroke-opacity="1.00" stroke-linejoin="round"/>
<path d="M39.18,21.03 C38.79,21.05 37.55,21.54 36.61,22.23 C35.57,23.01 34.51,24.80 34.43,25.90 C34.32,27.96 37.34,30.22 37.48,30.53 C37.48,30.53 37.20,30.62 37.20,30.62" fill="none" stroke="rgb(0, 0, 0)" stroke-width="3.00" stroke-opacity="1.00" stroke-linejoin="round"/>
<path d="M61.55,38.38 C62.70,38.34 63.85,38.29 65.00,38.24 C65.61,38.22 66.67,38.29 67.24,38.41 C69.22,38.86 70.48,39.55 70.91,40.55 C71.62,42.33 72.50,45.74 72.97,49.34 C73.32,52.02 73.36,76.11 73.35,78.72 C73.33,79.04 72.79,81.72 72.52,83.36" fill="none" stroke="rgb(0, 0, 0)" stroke-width="3.00" stroke-opacity="1.00" stroke-linejoin="round"/>
<path d="M41.77,31.89 C41.77,31.89 41.65,31.89 41.65,31.89 C41.65,31.89 42.38,31.93 42.81,32.01 C51.85,33.82 57.41,31.67 57.72,31.47" fill="none" stroke="rgb(0, 0, 0)" stroke-width="2.00" stroke-opacity="1.00" stroke-linejoin="round"/>
<path d="M43.18,33.73 C43.18,33.73 42.90,32.79 42.90,32.79 C42.90,32.79 42.90,32.81 42.90,32.81 C42.92,35.52 43.49,37.40 43.49,37.40 C43.49,37.40 45.78,38.20 48.78,38.62 C50.17,38.81 56.68,37.50 57.69,36.46 C57.69,36.46 57.72,36.41 57.72,36.41" fill="none" stroke="rgb(0, 0, 0)" stroke-width="2.00" stroke-opacity="1.00" stroke-linejoin="round"/>
<path d="M58.00,32.53 C58.00,32.53 57.86,32.03 57.86,32.03 C57.86,32.03 57.86,33.61 57.86,34.67 C57.86,35.34 57.86,36.02 57.86,36.69 C57.86,36.69 57.74,36.69 57.74,36.69" fill="none" stroke="rgb(0, 0, 0)" stroke-width="2.00" stroke-opacity="1.00" stroke-linejoin="round"/>
<path d="M47.63,45.93 C48.33,46.15 53.00,45.85 55.91,45.68 C63.54,45.15 67.12,42.69 67.57,42.34 C67.57,42.34 67.60,42.47 67.60,42.47" fill="none" stroke="rgb(0, 0, 0)" stroke-width="2.00" stroke-opacity="1.00" stroke-linejoin="round"/>
<path d="M34.93,83.12 C34.93,83.12 34.72,83.12 34.72,83.12 C34.72,83.12 36.40,82.56 38.34,82.25 C43.62,81.29 51.20,80.83 53.08,80.86 C57.60,80.94 65.67,83.13 66.04,83.12 C66.04,83.12 65.92,83.12 65.92,83.12" fill="none" stroke="rgb(0, 0, 0)" stroke-width="2.00" stroke-opacity="1.00" stroke-linejoin="round"/>
<path d="M32.03,44.45 C32.03,44.45 31.82,44.33 31.82,44.33 C31.82,44.33 31.75,44.17 31.75,44.17 C31.75,44.17 33.45,44.67 35.26,44.78 C35.26,44.78 35.91,44.88 35.91,44.88" fill="none" stroke="rgb(0, 0, 0)" stroke-width="2.00" stroke-opacity="1.00" stroke-linejoin="round"/>
</g>
</svg>
