<?xml version="1.0" encoding="UTF-8" standalone="no"?>
<!DOCTYPE svg PUBLIC "-//W3C//DTD SVG 1.1//EN" "http://www.w3.org/Graphics/SVG/1.1/DTD/svg11.dtd">
<svg width="100.00" height="100.00" viewBox="0.00 0.00 100.00 100.00" xmlns="http://www.w3.org/2000/svg" xmlns:xlink="http://www.w3.org/1999/xlink">
<g stroke-linecap="round" id="圖層_1">
<path d="M42.82,23.81 C42.82,24.21 43.02,25.00 43.53,25.22 C44.02,25.41 45.28,25.26 45.56,25.03 C45.89,24.74 45.82,23.69 45.39,23.09 C44.37,21.67 43.37,21.12 43.39,21.18 C43.39,21.18 47.94,26.47 47.94,26.47 C48.61,24.79 47.94,22.66 47.65,22.15 C46.51,20.21 44.83,19.24 44.39,19.28 C43.67,20.05 46.29,24.47 47.79,24.93 C48.24,25.07 48.75,24.96 49.13,24.73 C49.47,24.03 49.10,22.31 48.23,21.07 C46.69,18.94 44.65,18.46 44.34,18.67 C44.16,19.74 47.55,24.23 48.90,24.87 C49.73,25.24 50.68,25.09 51.11,24.84 C51.81,23.64 49.22,19.21 47.82,18.22 C45.99,16.97 44.63,17.29 44.28,17.47 C44.06,19.88 49.34,24.37 50.70,24.64 C51.46,24.78 52.00,24.69 52.33,24.40 C52.75,23.00 51.07,18.98 49.82,17.75 C48.56,16.53 44.89,15.54 44.48,15.82 C44.86,17.08 52.89,24.28 54.55,24.26 C55.21,22.69 54.73,20.55 54.37,19.65 C53.03,16.46 50.10,14.16 48.59,14.21 C47.58,14.27 47.09,15.52 47.33,16.36 C48.18,18.86 52.19,23.27 53.28,23.59 C54.00,23.78 55.32,23.36 55.74,22.40 C56.63,20.21 53.33,15.94 52.14,15.56 C50.91,15.19 49.85,15.75 49.78,16.43 C49.68,17.96 51.99,21.91 53.35,23.22 C54.14,23.95 55.20,24.09 55.75,23.95 C57.13,22.67 55.22,16.51 54.30,15.78 C53.81,15.41 52.83,16.12 52.64,17.08 C52.33,19.15 54.04,24.26 54.85,25.00 C56.13,24.13 56.43,21.70 56.43,20.64 C56.40,19.46 56.19,18.83 55.93,18.50 C54.77,18.67 54.00,20.73 53.83,22.24 C53.67,23.81 53.75,24.68 53.84,25.00 C54.83,24.69 54.67,19.41 53.80,18.74 C53.47,18.49 53.06,18.41 52.61,18.45 C52.61,18.45 51.03,23.45 51.03,23.45 C51.73,22.63 52.34,18.00 51.64,16.89 C50.82,15.68 48.11,15.59 47.90,16.58 C47.90,16.58 49.46,15.62 49.46,15.62 C49.46,15.62 52.40,25.70 52.40,25.70 C52.79,25.72 51.99,25.76 53.06,25.40 C53.09,25.39 53.16,25.38 53.25,25.36" fill="none" stroke="rgb(116, 75, 46)" stroke-width="2.00" stroke-opacity="1.00" stroke-linejoin="round"/>
<path d="M44.80,34.28 C44.74,34.27 44.69,34.27 44.66,34.28 C44.62,34.29 44.54,34.33 44.42,34.39 C44.40,34.62 44.57,34.96 44.98,35.33 C47.12,37.18 49.05,36.98 49.51,36.78 C49.55,35.65 47.72,34.71 46.69,34.39 C45.38,33.99 44.88,34.04 44.61,34.18 C44.75,35.64 46.45,36.94 47.19,37.18 C49.39,37.80 50.84,36.59 50.76,35.95 C50.76,35.95 44.36,33.84 44.36,33.84 C44.41,35.05 47.99,37.11 49.51,37.33 C50.98,37.53 52.46,37.18 52.73,36.80 C53.19,36.05 49.48,34.35 48.52,34.70 C48.48,34.72 48.42,34.77 48.33,34.84 C49.26,35.64 54.73,35.95 55.03,35.03 C55.05,34.97 55.07,34.86 55.08,34.69 C55.08,34.69 51.20,34.64 51.20,34.64 C51.20,34.64 55.94,33.62 55.94,33.62 C55.94,33.62 53.91,34.37 53.91,34.37 C53.91,34.37 56.61,34.22 56.61,34.22 C56.61,34.22 54.88,36.70 54.88,36.70 C54.88,36.70 55.96,34.70 55.96,34.70 C56.17,35.50 54.62,36.43 53.53,36.66 C52.97,36.78 52.87,36.80 52.87,36.81" fill="none" stroke="rgb(116, 75, 46)" stroke-width="2.00" stroke-opacity="1.00" stroke-linejoin="round"/>
<path d="M43.91,14.82 C43.91,14.82 43.35,14.82 43.35,14.82 C43.16,15.81 43.71,16.41 44.57,16.84 C45.33,17.20 48.84,17.63 50.81,17.58 C55.72,17.38 56.40,15.46 56.45,15.08 C55.06,12.48 44.51,13.43 43.49,13.71" fill="none" stroke="rgb(24, 19, 25)" stroke-width="3.00" stroke-opacity="1.00" stroke-linejoin="round"/>
<path d="M37.73,22.72 C37.69,23.24 38.72,25.09 40.10,26.01 C41.31,26.80 44.80,27.72 47.47,27.84 C51.81,28.01 56.90,26.72 56.90,26.72" fill="none" stroke="rgb(0, 0, 0)" stroke-width="3.00" stroke-opacity="1.00" stroke-linejoin="round"/>
<path d="M37.68,22.23 C37.68,22.23 37.61,22.18 37.61,22.18 C37.61,22.18 38.63,21.77 39.07,21.73 C39.07,21.73 39.54,21.76 39.54,21.76" fill="none" stroke="rgb(0, 0, 0)" stroke-width="3.00" stroke-opacity="1.00" stroke-linejoin="round"/>
<path d="M41.56,15.59 C41.56,15.59 41.49,15.24 41.49,15.24 C41.49,15.24 41.54,16.73 41.58,17.76 C41.68,19.77 41.84,23.27 41.91,24.77" fill="none" stroke="rgb(0, 0, 0)" stroke-width="3.00" stroke-opacity="1.00" stroke-linejoin="round"/>
<path d="M58.28,16.37 C58.28,16.37 58.28,16.09 58.28,16.09 C58.28,16.09 58.56,25.52 58.56,25.52" fill="none" stroke="rgb(0, 0, 0)" stroke-width="3.00" stroke-opacity="1.00" stroke-linejoin="round"/>
<path d="M60.16,21.05 C61.76,21.41 61.77,24.15 61.17,25.28 C60.74,26.08 60.10,26.39 60.10,26.39" fill="none" stroke="rgb(0, 0, 0)" stroke-width="3.00" stroke-opacity="1.00" stroke-linejoin="round"/>
<path d="M38.45,32.46 C38.45,32.46 38.38,32.03 38.38,32.03 C38.38,34.41 38.43,36.20 38.57,37.00 C38.57,37.00 38.71,37.61 38.85,38.15 C38.85,38.15 39.25,38.16 39.25,38.16" fill="none" stroke="rgb(0, 0, 0)" stroke-width="3.00" stroke-opacity="1.00" stroke-linejoin="round"/>
<path d="M61.95,22.16 C61.95,22.16 62.27,22.16 62.54,22.44 C63.80,23.78 64.48,25.47 64.49,26.37 C64.45,28.33 62.27,30.88 61.67,31.19" fill="none" stroke="rgb(0, 0, 0)" stroke-width="3.00" stroke-opacity="1.00" stroke-linejoin="round"/>
<path d="M61.67,30.34 C61.67,30.34 61.25,33.19 61.25,33.19 C61.25,33.19 61.55,38.08 61.55,38.08" fill="none" stroke="rgb(0, 0, 0)" stroke-width="3.00" stroke-opacity="1.00" stroke-linejoin="round"/>
<path d="M35.99,39.65 C35.99,39.65 36.27,39.61 36.27,39.61 C36.27,39.61 36.55,39.09 36.55,39.09 C36.55,39.09 36.53,39.09 36.53,39.09 C35.34,39.10 33.70,39.12 33.33,39.25 C31.50,39.90 27.45,41.48 27.09,42.57 C27.09,42.57 26.98,43.11 26.95,43.44 C26.95,43.44 26.95,44.02 26.95,44.02" fill="none" stroke="rgb(0, 0, 0)" stroke-width="3.00" stroke-opacity="1.00" stroke-linejoin="round"/>
<path d="M27.09,42.90 C27.09,42.90 27.09,42.19 27.09,42.19 C25.67,47.33 25.12,50.20 25.01,53.52 C24.61,63.66 25.09,71.65 26.00,77.80 C26.13,78.69 27.13,81.74 27.13,81.74 C27.49,83.39 28.67,84.01 29.16,84.37 C29.16,84.37 29.35,84.95 29.35,84.95" fill="none" stroke="rgb(0, 0, 0)" stroke-width="3.00" stroke-opacity="1.00" stroke-linejoin="round"/>
<path d="M29.21,85.09 C29.21,85.09 29.21,84.95 29.21,84.95 C29.51,85.02 34.88,87.05 38.94,87.59 C45.49,88.42 53.31,88.53 57.49,88.12 C58.72,87.93 68.22,86.41 70.11,86.22" fill="none" stroke="rgb(0, 0, 0)" stroke-width="3.00" stroke-opacity="1.00" stroke-linejoin="round"/>
<path d="M39.18,21.03 C38.79,21.05 37.55,21.54 36.61,22.23 C35.57,23.01 34.51,24.80 34.43,25.90 C34.32,27.96 37.34,30.22 37.48,30.53 C37.48,30.53 37.20,30.62 37.20,30.62" fill="none" stroke="rgb(0, 0, 0)" stroke-width="3.00" stroke-opacity="1.00" stroke-linejoin="round"/>
<path d="M61.55,38.38 C62.70,38.34 63.85,38.29 65.00,38.24 C65.61,38.22 66.67,38.29 67.24,38.41 C69.22,38.86 70.48,39.55 70.91,40.55 C71.48,42.28 73.44,47.49 73.66,49.68 C74.23,54.08 76.21,73.69 73.95,81.28 C73.66,82.24 73.37,83.20 73.08,84.16" fill="none" stroke="rgb(0, 0, 0)" stroke-width="3.00" stroke-opacity="1.00" stroke-linejoin="round"/>
<path d="M41.77,31.89 C41.77,31.89 41.65,31.89 41.65,31.89 C41.65,31.89 42.38,31.93 42.81,32.01 C51.85,33.82 57.41,31.67 57.72,31.47" fill="none" stroke="rgb(0, 0, 0)" stroke-width="2.00" stroke-opacity="1.00" stroke-linejoin="round"/>
<path d="M43.18,33.73 C43.18,33.73 42.90,32.79 42.90,32.79 C42.90,32.79 42.90,32.81 42.90,32.81 C42.92,35.52 43.49,37.40 43.49,37.40 C43.49,37.40 45.78,38.20 48.78,38.62 C50.17,38.81 56.68,37.50 57.69,36.46 C57.69,36.46 57.72,36.41 57.72,36.41" fill="none" stroke="rgb(0, 0, 0)" stroke-width="2.00" stroke-opacity="1.00" stroke-linejoin="round"/>
<path d="M58.00,32.53 C58.00,32.53 57.86,32.03 57.86,32.03 C57.86,32.03 57.86,33.61 57.86,34.67 C57.86,35.34 57.86,36.02 57.86,36.69 C57.86,36.69 57.74,36.69 57.74,36.69" fill="none" stroke="rgb(0, 0, 0)" stroke-width="2.00" stroke-opacity="1.00" stroke-linejoin="round"/>
<path d="M47.63,45.93 C48.33,46.15 53.00,45.85 55.91,45.68 C63.54,45.15 67.12,42.69 67.57,42.34 C67.57,42.34 67.60,42.47 67.60,42.47" fill="none" stroke="rgb(0, 0, 0)" stroke-width="2.00" stroke-opacity="1.00" stroke-linejoin="round"/>
<path d="M34.93,83.12 C34.93,83.12 34.72,83.12 34.72,83.12 C34.72,83.12 36.40,82.56 38.34,82.25 C43.62,81.29 51.20,80.83 53.08,80.86 C57.60,80.94 65.67,83.13 66.04,83.12 C66.04,83.12 65.92,83.12 65.92,83.12" fill="none" stroke="rgb(0, 0, 0)" stroke-width="2.00" stroke-opacity="1.00" stroke-linejoin="round"/>
<path d="M32.03,44.45 C32.03,44.45 31.82,44.33 31.82,44.33 C31.82,44.33 31.75,44.17 31.75,44.17 C31.75,44.17 33.45,44.67 35.26,44.78 C35.26,44.78 35.91,44.88 35.91,44.88" fill="none" stroke="rgb(0, 0, 0)" stroke-width="2.00" stroke-opacity="1.00" stroke-linejoin="round"/>
<path d="M35.39,73.39 C35.39,73.39 34.85,72.95 34.85,72.95" fill="none" stroke="rgb(214, 142, 40)" stroke-width="2.00" stroke-opacity="1.00" stroke-linejoin="round"/>
<path d="M30.50,70.55 C30.50,70.55 30.22,70.20 30.22,70.20 C30.22,70.20 29.95,69.88 29.95,69.88 C31.11,71.86 34.05,76.40 35.83,78.12 C36.66,78.90 38.19,79.56 39.04,79.30 C39.49,78.48 39.20,76.48 38.51,75.07 C37.31,72.67 34.51,69.47 32.96,68.48 C31.75,67.73 30.92,67.86 30.59,68.06 C30.27,69.78 35.32,78.14 37.72,79.75 C38.02,79.95 38.26,80.01 38.87,80.11 C39.16,78.51 37.35,74.97 35.70,72.54 C33.79,69.74 30.68,67.67 30.06,67.67 C30.47,70.85 35.48,76.42 36.50,76.91 C37.08,75.86 35.27,72.89 34.04,71.38 C33.01,70.13 32.05,69.45 32.05,69.45 C32.05,69.45 35.77,75.07 35.77,75.07 C35.64,73.14 32.05,69.90 31.67,69.77 C31.67,69.77 35.03,75.85 35.03,75.85 C35.47,74.24 30.42,69.45 29.97,69.26 C29.47,70.08 35.36,78.41 37.32,79.14 C37.32,79.14 37.81,79.26 37.81,79.26 C37.81,79.26 29.86,70.24 29.86,70.24 C29.42,70.95 31.28,73.94 33.51,76.48 C37.32,80.79 39.03,81.39 39.40,81.44 C39.68,80.54 38.10,78.39 36.58,76.76 C34.80,74.87 31.28,71.80 30.52,71.57 C30.09,72.08 31.04,74.23 32.94,76.42 C37.16,81.20 40.72,83.14 41.03,83.06 C41.51,81.78 35.84,74.64 33.36,73.31 C32.94,73.09 32.42,72.97 32.02,72.95 C31.61,73.89 34.49,77.62 37.41,80.67 C40.92,84.30 42.07,84.29 42.68,84.14 C43.20,83.24 42.73,81.19 41.58,79.73 C39.99,77.76 34.42,74.39 33.17,74.58 C32.87,75.64 33.40,77.03 33.73,77.55 C35.85,80.84 41.07,83.65 41.86,83.08 C42.15,79.57 30.85,73.53 30.42,73.41 C30.32,74.49 38.57,83.64 40.52,83.65 C40.52,83.65 41.09,83.54 41.09,83.54 C41.47,83.02 41.24,81.70 40.48,80.60 C37.65,76.70 33.69,74.23 33.02,73.97 C32.81,74.79 33.63,76.51 34.05,77.06 C37.30,81.28 40.92,82.83 41.90,82.80 C42.38,82.24 42.15,80.04 41.50,78.69 C39.99,75.60 33.78,70.52 32.28,69.90 C32.28,69.90 34.12,70.00 35.27,70.73 C38.35,72.75 40.70,77.83 40.69,78.69 C40.69,78.69 34.25,69.67 34.25,69.67 C37.74,68.37 42.04,77.81 42.05,78.99 C41.22,79.16 39.41,77.04 37.96,74.75 C36.51,72.45 35.81,70.52 35.75,69.86 C37.29,70.01 42.04,76.35 42.84,78.99 C43.42,81.13 42.26,82.21 42.26,82.21 C42.26,82.21 39.55,73.65 39.55,73.65 C43.89,75.07 43.97,82.65 43.97,82.65 C41.40,84.31 40.88,76.95 41.11,76.72 C42.03,76.80 43.10,78.16 43.49,78.99 C43.95,80.00 44.34,82.60 44.16,83.10 C43.99,83.50 43.06,83.65 42.81,83.42 C42.29,82.87 42.10,78.69 42.11,78.06 C42.60,78.04 44.71,81.32 44.00,82.23 C43.67,82.63 43.06,82.70 42.70,82.69 C42.70,82.69 42.55,82.14 42.55,82.14 C42.55,82.14 42.55,81.61 42.55,81.61" fill="none" stroke="rgb(214, 142, 40)" stroke-width="2.00" stroke-opacity="1.00" stroke-linejoin="round"/>
<path d="M31.52,67.59 C31.52,67.59 31.43,67.59 31.43,67.59 C31.43,67.59 30.95,67.46 30.95,67.46 C30.95,67.46 30.84,67.33 30.84,67.33 C32.17,66.21 39.23,72.44 39.23,72.44 C39.23,72.44 39.25,72.59 39.25,72.59" fill="none" stroke="rgb(238, 202, 152)" stroke-width="2.00" stroke-opacity="1.00" stroke-linejoin="round"/>
<path d="M37.60,83.53 C35.31,81.83 31.32,77.29 29.97,74.78 C28.84,72.66 28.04,69.48 28.29,68.23 C28.46,67.50 29.18,66.54 29.83,66.38 C31.35,66.06 37.44,69.21 39.91,71.71 C42.50,74.36 45.29,80.20 45.41,81.59 C45.55,83.38 44.56,85.78 43.31,85.73 C41.39,85.62 38.37,84.02 38.37,84.02 C38.37,84.02 38.01,83.80 38.01,83.80" fill="none" stroke="rgb(0, 0, 0)" stroke-width="0.78" stroke-opacity="1.00" stroke-linejoin="round"/>
<path d="M38.77,83.82 C35.92,82.05 31.80,77.39 30.35,74.45 C29.59,72.88 29.18,69.78 29.93,69.09 C30.86,68.31 35.78,70.01 37.93,71.86 C40.29,73.91 43.54,79.37 43.96,81.43 C44.27,83.03 43.64,84.52 42.74,84.76 C42.15,84.91 40.52,84.60 40.20,84.47 C40.20,84.47 39.76,84.28 39.27,84.06" fill="none" stroke="rgb(0, 0, 0)" stroke-width="0.52" stroke-opacity="1.00" stroke-linejoin="round"/>
<path d="M37.51,75.53 C37.51,75.53 37.05,75.24 37.05,75.24 C36.23,74.64 33.61,73.57 32.70,74.30 C32.18,74.74 32.45,76.26 33.02,76.85 C33.39,77.23 40.72,81.27 40.88,82.04 C41.10,83.57 35.51,80.35 35.51,80.35 C35.51,80.35 35.20,80.12 35.20,80.12 C35.20,80.12 35.20,80.12 35.20,80.12" fill="none" stroke="rgb(0, 0, 0)" stroke-width="1.04" stroke-opacity="1.00" stroke-linejoin="round"/>
<path d="M32.44,72.47 C32.44,72.47 32.33,72.25 32.33,72.25 C32.33,72.25 37.86,82.49 37.86,82.49" fill="none" stroke="rgb(0, 0, 0)" stroke-width="1.04" stroke-opacity="1.00" stroke-linejoin="round"/>
<path d="M35.44,73.36 C35.44,73.36 35.35,73.28 35.35,73.28 C35.35,73.28 39.88,83.30 39.88,83.30 C39.88,83.30 39.86,83.25 39.86,83.25" fill="none" stroke="rgb(0, 0, 0)" stroke-width="1.04" stroke-opacity="1.00" stroke-linejoin="round"/>
<path d="M37.51,75.64 C37.51,75.64 38.89,76.71 38.89,76.71 C38.89,76.71 39.43,77.24 39.43,77.24" fill="none" stroke="rgb(0, 0, 0)" stroke-width="1.04" stroke-opacity="1.00" stroke-linejoin="round"/>
<path d="M58.98,69.20 C58.98,69.20 58.86,68.81 58.86,68.81 C58.55,68.06 55.63,68.60 54.61,70.03 C53.80,71.21 53.82,77.16 55.38,79.63 C56.14,80.79 58.16,82.10 59.34,82.32 C60.45,82.49 62.23,81.95 63.39,81.12 C64.71,80.15 66.18,78.17 66.76,76.52 C67.28,74.98 67.36,72.56 66.89,71.52 C66.03,69.65 61.92,67.15 58.47,66.76 C56.90,66.61 53.48,68.41 52.95,69.89 C52.46,71.37 53.91,77.11 56.02,79.62 C57.04,80.80 59.36,82.27 60.44,82.56 C61.48,82.81 63.08,82.52 64.39,81.59 C65.77,80.58 67.11,78.76 67.54,77.18 C67.95,75.54 67.93,72.34 67.42,71.14 C66.92,70.01 65.17,68.37 64.05,67.94 C62.95,67.54 60.99,67.60 59.83,68.16 C58.60,68.79 57.15,70.80 56.82,72.18 C56.53,73.49 56.71,76.34 57.14,77.56 C57.57,78.71 58.91,80.24 59.68,80.61 C60.41,80.94 61.86,80.75 62.37,80.27 C63.72,78.91 64.48,73.22 63.62,70.89 C63.20,69.80 62.16,68.69 61.48,68.60 C60.75,68.53 59.25,69.36 58.79,70.30 C57.92,72.20 58.48,77.78 59.51,79.02 C60.11,79.69 61.60,79.75 62.05,79.12 C62.56,78.38 63.31,75.78 63.21,73.34 C63.14,71.67 62.33,69.87 61.79,69.52 C61.50,69.35 61.05,69.40 60.28,69.62 C58.61,71.70 57.92,77.11 58.69,78.42 C59.06,79.00 60.42,79.11 61.16,78.48 C62.50,77.27 63.32,71.97 62.56,71.14 C62.56,71.14 62.19,70.82 61.74,70.51 C60.59,70.80 59.54,72.22 59.15,73.84 C58.86,75.07 58.93,76.80 59.37,77.48 C60.45,77.22 60.83,77.04 60.95,76.64 C61.30,75.41 61.41,73.80 60.89,73.30 C59.84,73.68 59.33,74.12 59.17,74.92 C58.89,76.36 59.05,77.09 59.24,77.39 C61.72,76.48 60.90,73.48 60.64,73.18 C58.44,74.13 58.93,77.50 59.09,77.92 C60.00,77.74 60.39,75.38 60.00,73.60 C59.57,71.77 57.52,70.26 56.38,70.21 C55.06,70.92 54.80,74.70 55.59,76.17 C55.88,76.70 56.75,77.52 57.82,77.77 C58.61,77.30 59.03,75.69 58.92,74.72 C58.78,73.49 57.71,71.80 57.03,71.59 C55.35,71.15 54.92,76.39 55.55,76.97 C56.48,76.25 57.00,72.73 56.86,71.31 C56.71,69.95 56.04,68.79 55.17,68.39 C54.11,68.58 53.33,69.34 53.03,69.99 C52.07,72.05 52.19,76.87 53.08,78.49 C53.50,79.23 54.73,80.19 55.39,80.31 C56.03,80.41 57.09,79.72 57.59,78.92 C58.78,76.90 58.31,71.54 56.99,70.04 C56.49,69.49 55.26,68.87 54.79,68.86 C53.11,68.87 51.23,72.35 51.27,74.41 C51.35,77.20 53.79,80.74 55.00,80.89 C56.16,81.01 57.13,80.07 57.31,79.54 C58.21,76.68 57.27,71.84 55.98,70.54 C55.57,70.13 54.16,69.62 53.20,69.73 C52.18,69.87 50.60,71.20 50.42,72.39 C50.08,74.96 53.58,80.50 55.10,81.15 C55.88,81.44 57.44,80.84 57.48,79.49 C57.51,77.18 55.46,73.22 54.24,72.39 C53.76,72.07 52.32,71.69 51.40,71.86 C50.38,72.06 49.62,73.20 49.79,74.81 C49.93,75.79 51.60,79.24 52.98,80.86 C54.16,82.20 57.33,82.82 58.10,81.91 C58.82,81.03 58.95,78.11 58.21,76.72 C57.42,75.25 54.73,73.48 53.12,73.73 C52.05,73.94 51.20,75.37 51.33,76.67 C51.60,78.96 54.58,82.36 56.04,82.75 C56.72,82.91 58.17,82.90 58.60,82.71 C59.61,82.22 60.73,80.37 60.83,79.39 C60.93,78.37 60.34,77.09 59.89,76.60 C59.26,75.94 56.97,74.51 55.74,74.23 C54.29,73.92 52.46,74.24 51.86,75.00 C50.88,76.28 52.94,80.73 54.37,82.03 C55.84,83.32 59.30,83.74 60.61,82.99 C61.22,82.63 62.20,81.54 62.44,81.04 C63.02,79.79 62.68,78.18 61.50,77.65 C59.31,76.74 53.28,76.88 52.37,77.52 C51.86,78.66 56.34,83.71 58.48,84.26 C59.54,84.53 61.19,84.26 61.87,83.67 C62.61,83.02 63.18,80.83 62.73,80.11 C61.66,78.53 55.21,78.20 54.56,79.15 C54.28,79.60 54.19,80.83 54.53,81.31 C55.04,81.98 56.80,82.89 57.61,83.07 C59.80,83.47 61.56,81.36 61.63,80.45 C61.20,79.59 59.30,78.59 58.10,78.24 C55.52,77.55 53.18,78.87 52.90,79.45 C52.93,80.05 54.38,81.73 55.51,82.46 C56.68,83.20 58.79,83.44 59.41,83.05 C59.71,82.51 59.30,81.36 58.54,80.87 C56.91,79.86 53.94,79.76 53.60,80.06 C53.55,80.60 54.55,82.47 55.42,83.35 C56.52,84.44 59.02,85.15 59.82,84.96 C61.48,84.51 63.75,81.81 64.03,80.32 C64.19,79.39 63.05,78.24 62.06,78.52 C61.21,78.80 60.22,80.66 60.47,81.48 C60.81,82.43 62.83,83.47 64.09,83.30 C65.24,83.10 67.71,79.50 67.27,78.26 C66.63,77.81 65.08,77.99 64.36,78.66 C63.56,79.41 63.38,80.89 63.88,81.29 C64.64,81.83 66.45,81.63 67.27,80.53 C67.96,79.57 68.50,77.41 68.31,76.87 C68.12,76.36 66.93,76.06 66.53,76.42 C66.12,76.83 65.99,78.41 66.33,78.83 C66.72,79.28 68.28,79.25 68.71,78.52 C71.39,73.77 67.25,72.33 67.25,72.33 C66.21,72.91 66.75,76.80 67.52,77.82 C68.49,77.82 68.98,77.61 69.13,76.95 C69.39,75.77 69.15,73.13 68.54,71.80 C68.28,71.25 67.30,70.24 66.67,70.27 C65.67,71.25 66.14,76.03 67.42,76.29 C68.69,75.51 67.13,70.39 66.29,70.08 C66.29,70.08 65.91,70.04 65.91,70.04 C64.70,70.96 66.01,74.07 66.69,74.39 C67.64,73.71 67.83,71.22 67.65,70.47 C67.27,68.98 64.78,67.11 63.75,66.82 C64.65,66.57 67.75,68.21 68.67,70.55 C69.43,72.55 68.86,74.26 68.86,74.26 C68.11,73.89 65.46,68.82 65.19,68.37 C63.56,65.68 59.96,65.59 59.60,65.83 C60.32,67.02 64.29,67.05 64.83,66.80 C64.88,65.58 60.48,64.34 59.28,65.34 C58.76,65.79 58.71,66.40 58.71,66.40 C59.71,67.34 63.32,66.94 63.58,66.02 C63.31,64.84 58.18,64.38 56.50,65.15 C54.49,66.10 54.64,67.39 54.64,67.39 C55.81,67.96 58.34,66.53 58.43,65.40 C56.35,62.86 51.69,67.33 51.78,68.16 C52.18,68.64 53.81,68.80 54.53,68.18 C55.20,67.58 56.10,65.43 56.08,64.89 C55.08,64.62 53.26,65.72 52.33,66.95 C51.58,67.97 50.93,69.98 50.93,69.98 C51.53,70.93 54.07,69.06 55.17,66.76 C54.39,66.33 54.03,66.26 53.71,66.59 C52.92,67.42 52.63,67.99 52.63,67.99 C52.63,67.99 55.08,65.93 55.08,65.93 C55.08,65.93 53.54,67.12 53.54,67.12 C53.54,67.12 56.29,65.70 56.29,65.70 C56.29,65.70 54.22,66.82 54.22,66.82 C54.22,66.82 56.76,65.53 57.99,65.30 C60.61,64.85 61.60,65.70 61.91,66.31 C61.91,66.31 61.95,66.63 61.95,66.63 C61.95,66.63 61.79,66.73 61.79,66.73" fill="none" stroke="rgb(214, 142, 40)" stroke-width="2.00" stroke-opacity="1.00" stroke-linejoin="round"/>
<path d="M58.52,70.34 C58.52,70.34 57.27,69.45 57.27,69.45 C59.84,72.85 61.31,74.07 62.05,74.41 C62.80,74.75 64.37,74.91 65.02,74.37 C65.42,73.31 64.55,71.72 63.05,70.44 C61.63,69.23 60.68,68.62 59.81,68.33 C59.53,68.80 60.40,70.81 61.53,71.91 C63.09,73.37 64.57,72.74 64.81,72.48 C64.81,72.48 61.46,68.31 61.46,68.31 C61.31,68.58 61.25,69.20 61.38,69.81 C61.47,70.22 61.82,70.91 61.82,70.91" fill="none" stroke="rgb(214, 142, 40)" stroke-width="2.00" stroke-opacity="1.00" stroke-linejoin="round"/>
<path d="M59.66,64.32 C59.66,64.32 59.58,64.32 59.58,64.32 C59.58,64.32 59.43,64.32 59.43,64.32 C59.43,64.32 59.51,64.24 59.51,64.24 C60.88,64.02 66.42,66.06 67.71,68.22 C68.46,69.52 69.55,71.36 69.55,71.36 C69.55,71.36 69.32,71.14 69.32,71.14" fill="none" stroke="rgb(238, 202, 152)" stroke-width="2.00" stroke-opacity="1.00" stroke-linejoin="round"/>
<path d="M60.48,66.70 C60.48,66.70 60.49,66.70 60.49,66.70 C61.13,66.73 61.78,66.83 62.29,67.05 C64.83,68.13 67.02,71.96 67.25,72.78 C67.25,72.78 60.91,67.27 60.91,67.27 C60.91,67.27 63.86,71.25 63.86,71.25 C63.86,71.25 66.97,72.61 66.97,72.61 C66.97,72.61 66.54,72.50 66.54,72.50" fill="none" stroke="rgb(238, 202, 152)" stroke-width="2.00" stroke-opacity="1.00" stroke-linejoin="round"/>
<path d="M55.82,84.96 C53.98,84.13 50.84,81.30 49.91,79.37 C49.04,77.56 48.68,73.49 49.02,71.93 C49.61,69.30 52.14,65.92 53.95,64.79 C55.88,63.60 59.87,63.09 62.36,63.79 C65.07,64.58 68.57,67.41 69.56,69.79 C70.46,72.03 70.45,76.15 69.65,78.80 C69.18,80.32 67.67,82.40 66.78,83.02 C63.07,85.49 57.64,85.35 57.30,85.29 C57.30,85.29 56.94,85.23 56.59,85.17" fill="none" stroke="rgb(0, 0, 0)" stroke-width="0.78" stroke-opacity="1.00" stroke-linejoin="round"/>
<path d="M58.63,83.99 C56.11,83.47 52.26,81.02 51.40,79.38 C50.63,77.87 50.08,73.06 50.55,71.19 C51.05,69.30 53.95,66.00 55.88,65.28 C57.88,64.57 63.11,65.25 64.76,66.29 C66.58,67.46 68.78,71.78 68.89,74.19 C68.97,76.44 67.73,79.77 66.20,81.27 C65.08,82.35 62.00,83.71 61.39,83.79 C61.39,83.79 60.55,83.88 59.60,83.97" fill="none" stroke="rgb(0, 0, 0)" stroke-width="0.52" stroke-opacity="1.00" stroke-linejoin="round"/>
<path d="M62.77,69.66 C62.77,69.66 62.27,69.50 62.27,69.50 C61.46,69.12 58.14,68.76 55.87,69.94 C54.33,70.75 53.00,72.94 53.53,73.59 C53.91,74.01 61.30,74.75 62.29,75.10 C63.66,75.63 64.49,76.63 64.42,77.26 C64.34,77.78 63.07,78.87 61.87,79.14 C59.80,79.58 54.81,78.69 54.81,78.69 C54.81,78.69 54.35,78.48 54.35,78.48 C54.35,78.48 54.34,78.48 54.34,78.48" fill="none" stroke="rgb(0, 0, 0)" stroke-width="1.04" stroke-opacity="1.00" stroke-linejoin="round"/>
<path d="M57.12,67.91 C57.12,67.91 57.12,67.72 57.12,67.72 C57.12,67.72 57.97,81.39 57.97,81.39" fill="none" stroke="rgb(0, 0, 0)" stroke-width="1.04" stroke-opacity="1.00" stroke-linejoin="round"/>
<path d="M61.08,68.04 C61.08,68.04 61.01,67.97 61.01,67.97 C61.01,67.97 61.73,81.00 61.73,81.00 C61.73,81.00 61.73,80.90 61.73,80.90" fill="none" stroke="rgb(0, 0, 0)" stroke-width="1.04" stroke-opacity="1.00" stroke-linejoin="round"/>
<path d="M62.70,69.79 C62.70,69.79 64.06,70.50 64.06,70.50 C64.06,70.50 64.54,70.91 64.54,70.91" fill="none" stroke="rgb(0, 0, 0)" stroke-width="1.04" stroke-opacity="1.00" stroke-linejoin="round"/>
<path d="M50.52,66.41 C50.77,66.14 50.97,65.87 51.13,65.59 C52.22,63.67 52.82,61.59 52.72,60.97 C51.89,60.85 51.28,61.10 50.56,62.05 C49.12,63.97 46.92,68.39 46.50,69.73 C46.29,70.48 46.25,71.74 46.89,72.55 C48.14,72.75 49.48,72.22 50.18,71.61 C51.78,70.19 53.90,65.68 53.80,63.85 C52.58,63.59 52.07,63.59 51.72,63.94 C49.83,65.86 47.22,71.05 47.30,72.60 C48.31,72.76 48.63,72.77 48.88,72.48 C51.92,68.90 52.23,65.20 52.23,65.20 C51.23,65.19 50.56,65.53 49.86,66.56 C48.72,68.23 47.91,70.28 47.98,70.99 C49.59,71.29 51.16,67.48 51.19,67.13 C51.19,67.13 48.63,71.28 48.63,71.28 C49.57,71.51 51.62,68.90 52.23,67.17 C52.70,65.78 52.76,63.92 52.40,62.94 C51.55,62.57 50.24,63.06 49.79,63.49 C45.63,67.55 45.07,74.33 45.50,75.23 C46.33,75.38 47.30,74.64 47.89,73.90 C48.72,72.79 50.82,68.31 51.20,65.99 C51.36,64.91 51.05,64.28 50.52,63.62 C49.27,63.37 47.87,64.00 47.22,64.57 C44.59,66.95 42.90,71.63 43.15,72.88 C43.32,73.59 44.61,74.80 45.69,74.53 C46.89,74.19 50.13,67.69 49.77,65.92 C49.77,65.92 49.62,65.54 49.42,65.25 C48.53,64.99 46.72,66.30 45.39,68.09 C44.28,69.62 42.86,72.76 42.78,73.44 C42.65,74.85 43.37,75.41 43.97,75.63 C45.67,75.28 48.52,70.78 49.05,68.55 C49.28,67.47 49.18,66.91 48.95,66.20 C48.15,65.74 46.99,66.06 46.43,66.47 C44.66,67.78 42.22,73.24 42.57,74.63 C42.78,75.38 44.43,75.84 45.35,75.05 C47.72,72.92 48.39,68.69 47.97,68.06 C47.13,67.83 45.33,68.57 44.22,69.61 C43.20,70.59 42.36,72.67 42.34,73.93 C42.35,75.19 42.91,76.30 43.53,76.47 C44.37,76.62 45.88,75.18 46.60,73.23 C47.03,72.02 47.35,70.02 47.11,69.36 C46.82,68.60 45.23,67.79 44.69,68.11 C43.35,68.99 42.33,75.55 43.06,76.03 C43.98,76.55 46.46,73.05 46.60,70.92 C46.64,69.76 45.84,68.59 45.22,68.36 C44.12,68.01 42.20,72.28 42.23,74.40 C42.25,75.14 43.21,75.73 43.82,75.39 C44.48,74.97 45.65,72.36 45.81,71.11 C45.93,70.00 45.30,69.12 44.69,69.04 C44.14,69.00 43.16,69.97 42.80,72.00 C42.49,73.71 42.65,75.45 42.97,75.73 C44.05,75.40 44.83,73.03 45.05,71.52 C45.24,70.12 45.01,68.85 44.58,68.64 C43.78,68.33 41.57,73.16 41.87,74.17 C42.10,74.86 43.43,75.62 44.16,75.56 C45.47,75.38 48.10,69.81 47.80,69.04 C46.84,68.39 43.69,72.18 43.33,73.74 C43.14,74.57 43.69,76.06 44.59,76.30 C45.81,76.57 50.28,73.08 50.67,70.92 C50.67,70.92 50.69,70.59 50.66,70.29 C50.20,69.74 48.33,69.53 47.19,70.01 C45.90,70.57 43.83,72.50 43.22,73.40 C42.72,74.19 42.24,75.78 42.53,76.41 C42.81,76.96 44.03,77.54 45.26,77.41 C46.98,77.19 50.09,73.25 49.99,72.26 C49.10,71.15 44.85,72.19 43.42,73.98 C43.11,74.41 43.34,75.55 43.84,76.28 C44.44,77.13 45.99,77.36 46.67,77.00 C48.20,76.11 53.30,68.60 53.08,67.34 C53.08,67.34 52.91,66.94 52.91,66.94 C51.67,66.77 48.11,70.62 48.38,71.73 C49.00,72.22 50.61,72.04 51.36,71.53 C53.28,70.13 55.33,66.30 55.30,65.54 C54.74,65.18 53.30,65.85 51.92,67.49 C49.06,70.97 49.22,73.10 49.41,73.62 C50.08,74.17 51.78,73.97 52.83,73.02 C54.80,71.19 55.70,68.35 55.60,67.62 C55.60,67.62 54.50,67.05 54.50,67.05 C54.50,67.05 49.50,74.91 49.50,74.91 C50.03,75.32 51.34,74.96 52.36,73.45 C55.12,69.30 55.78,66.29 55.16,65.23 C53.96,63.24 52.93,63.12 51.91,63.11 C51.91,63.11 56.36,62.73 56.36,62.73 C56.69,63.73 56.31,65.68 55.92,66.43 C55.23,67.69 53.69,68.72 52.93,68.51 C51.57,67.25 52.27,61.74 53.40,60.59 C53.93,60.08 55.36,60.36 55.81,61.16 C56.45,62.38 56.68,64.87 56.40,65.91 C56.10,66.84 55.07,67.99 54.18,68.00 C53.39,67.97 52.21,66.64 51.83,65.39 C51.51,64.28 51.63,62.74 52.17,61.98 C52.75,61.18 54.25,60.15 54.82,59.99 C56.05,59.68 57.22,60.66 57.40,61.98 C57.53,63.18 57.22,64.91 56.66,65.59 C56.12,66.22 55.02,66.58 54.44,66.39 C53.29,65.61 54.52,60.74 55.62,60.35 C56.13,60.18 56.70,60.87 56.75,61.73 C56.84,64.24 54.22,65.50 53.78,65.23 C53.78,65.23 51.42,62.10 50.67,61.92 C49.19,61.68 48.05,64.59 48.02,64.91 C48.02,64.91 50.52,61.66 50.52,61.66 C50.52,61.66 47.91,64.14 47.91,64.14 C47.91,64.14 48.31,64.14 48.31,64.14 C48.31,64.14 48.36,64.14 48.36,64.14" fill="none" stroke="rgb(214, 142, 40)" stroke-width="2.00" stroke-opacity="1.00" stroke-linejoin="round"/>
<path d="M49.84,62.09 C49.84,62.09 49.75,62.09 49.75,62.09 C50.00,60.98 53.61,59.37 55.31,59.93 C55.31,59.93 55.62,60.35 55.62,60.35 C55.62,60.35 55.75,60.52 55.75,60.52" fill="none" stroke="rgb(238, 202, 152)" stroke-width="2.00" stroke-opacity="1.00" stroke-linejoin="round"/>
<path d="M45.74,78.10 C44.57,78.23 42.42,77.67 41.75,76.79 C41.06,75.85 40.91,72.71 41.39,71.13 C42.31,68.16 45.91,63.33 48.30,61.48 C50.83,59.57 54.90,58.62 56.60,59.47 C58.18,60.29 58.98,63.02 58.45,65.08 C58.00,66.77 56.53,69.57 55.21,71.46 C53.16,74.36 47.67,77.53 46.66,77.84 C46.66,77.84 46.22,77.98 46.22,77.98" fill="none" stroke="rgb(0, 0, 0)" stroke-width="0.78" stroke-opacity="1.00" stroke-linejoin="round"/>
<path d="M47.72,76.83 C46.14,77.26 43.61,77.04 43.07,76.30 C42.53,75.54 42.45,71.88 43.16,69.96 C43.98,67.80 47.92,63.17 50.17,61.97 C52.39,60.81 56.42,61.23 57.10,62.25 C57.74,63.28 57.18,66.82 56.33,68.61 C55.00,71.39 50.98,75.21 49.44,76.01 C49.44,76.01 48.92,76.27 48.33,76.56" fill="none" stroke="rgb(0, 0, 0)" stroke-width="0.52" stroke-opacity="1.00" stroke-linejoin="round"/>
<path d="M54.25,65.91 C54.25,65.91 53.97,65.84 53.97,65.84 C53.52,65.59 51.03,65.77 48.68,67.41 C47.06,68.56 45.36,70.95 45.73,71.38 C46.00,71.63 51.53,70.45 52.10,70.50 C52.82,70.59 53.02,71.11 52.80,71.54 C51.71,73.50 45.94,74.82 45.94,74.82 C45.94,74.82 45.60,74.82 45.60,74.82 C45.60,74.82 45.60,74.82 45.60,74.82" fill="none" stroke="rgb(0, 0, 0)" stroke-width="1.04" stroke-opacity="1.00" stroke-linejoin="round"/>
<path d="M50.43,65.02 C50.43,65.02 50.49,64.80 50.49,64.80 C50.49,64.80 47.75,75.59 47.75,75.59" fill="none" stroke="rgb(0, 0, 0)" stroke-width="1.04" stroke-opacity="1.00" stroke-linejoin="round"/>
<path d="M53.65,64.56 C53.65,64.56 53.63,64.50 53.63,64.50 C53.63,64.50 50.23,74.42 50.23,74.42 C50.23,74.42 50.25,74.37 50.25,74.37" fill="none" stroke="rgb(0, 0, 0)" stroke-width="1.04" stroke-opacity="1.00" stroke-linejoin="round"/>
<path d="M54.16,66.04 C54.16,66.04 54.81,66.47 54.81,66.47 C54.81,66.47 54.97,66.75 54.97,66.75" fill="none" stroke="rgb(0, 0, 0)" stroke-width="1.04" stroke-opacity="1.00" stroke-linejoin="round"/>
<path d="M45.65,64.93 C45.65,64.93 45.71,64.79 45.71,64.79 C46.08,63.33 45.84,61.56 45.24,60.82 C44.71,60.20 42.81,59.69 42.29,59.82 C40.98,60.20 38.35,64.55 38.14,67.34 C38.07,68.57 38.85,71.12 39.54,72.05 C40.14,72.80 41.67,73.68 42.41,73.69 C43.95,73.67 46.63,69.68 47.07,67.25 C47.45,65.01 46.09,61.00 44.91,60.50 C43.67,60.03 40.68,62.24 39.54,64.41 C38.55,66.34 38.35,71.27 39.29,72.89 C39.91,73.91 41.16,74.85 41.98,74.86 C43.39,74.83 45.53,71.15 46.04,67.93 C46.26,66.46 46.11,63.98 45.77,62.78 C45.48,61.81 44.52,60.29 43.47,60.16 C43.06,60.12 42.01,61.18 41.61,62.09 C40.58,64.62 41.61,69.02 42.58,69.35 C43.75,67.75 42.72,62.98 42.45,62.76 C42.45,62.76 42.29,69.48 42.29,69.48 C42.29,69.48 43.21,63.01 43.21,63.01 C42.05,63.86 42.48,70.86 43.08,72.29 C44.23,72.18 44.65,72.01 44.82,71.44 C46.96,64.21 44.48,62.61 43.66,62.32 C42.99,62.52 41.97,63.64 41.63,64.41 C40.95,66.02 40.70,69.57 41.05,70.90 C41.40,72.06 41.85,72.57 42.52,73.14 C43.56,72.84 43.96,72.61 44.14,72.09 C46.96,64.75 43.88,61.89 43.24,61.48 C42.31,61.84 41.45,63.33 41.00,65.00 C40.03,68.76 41.08,72.98 41.84,73.44 C43.22,72.73 43.45,63.22 42.63,61.82 C42.46,61.54 42.11,61.41 41.46,61.32 C39.80,61.90 38.83,68.50 39.51,70.83 C40.18,73.01 41.43,73.24 42.21,73.19 C42.68,72.72 43.34,70.91 43.46,69.59 C43.69,66.56 42.76,61.41 41.97,60.04 C41.56,59.37 40.47,59.07 39.82,59.45 C38.41,60.35 36.48,65.77 36.75,68.88 C37.04,71.91 39.34,75.33 40.41,75.21 C41.33,75.07 42.28,73.43 42.51,72.62 C43.03,70.62 43.06,66.12 42.47,64.28 C42.16,63.35 41.26,62.22 40.65,62.00 C39.43,61.58 36.42,63.18 35.70,64.57 C34.89,66.21 35.32,71.56 36.58,73.84 C37.12,74.76 38.38,75.81 39.04,76.01 C39.69,76.18 40.68,75.90 41.13,75.28 C42.11,73.84 42.78,66.17 41.45,63.37 C41.21,62.90 40.92,62.62 40.23,62.12 C38.72,62.27 36.78,65.36 36.68,67.39 C36.60,69.54 38.15,74.42 39.36,76.15 C39.98,77.00 40.93,77.34 41.50,77.33 C42.96,76.16 44.40,70.25 43.94,68.33 C43.62,67.10 40.92,64.79 39.51,65.06 C37.99,65.37 36.53,68.77 36.59,70.76 C36.68,72.87 38.48,76.66 39.77,77.47 C41.05,78.24 43.21,77.49 43.90,75.86 C44.56,74.24 44.50,70.86 43.73,69.60 C43.10,68.60 39.48,67.17 37.92,68.24 C36.98,68.94 36.19,71.86 36.49,73.38 C36.85,75.14 39.29,77.62 41.43,78.01 C41.99,78.11 43.09,77.76 43.65,77.31 C44.28,76.76 45.15,74.73 45.21,73.08 C45.26,71.58 44.41,68.99 43.87,68.14 C43.36,67.39 41.69,66.48 40.90,66.85 C39.93,67.36 39.32,69.87 39.63,71.75 C40.08,74.36 42.60,77.34 43.88,77.21 C45.09,77.04 47.48,72.73 47.28,69.79 C47.18,68.34 46.48,65.66 46.03,65.22 C45.37,64.63 43.70,65.60 43.14,66.48 C41.82,68.68 41.51,75.91 42.85,77.53 C43.35,78.08 44.87,78.50 45.83,77.82 C46.88,77.04 48.85,70.89 48.65,68.73 C48.56,67.89 47.97,66.35 47.27,65.85 C46.55,65.37 44.85,66.03 44.20,67.08 C42.33,70.23 43.01,74.58 43.81,75.69 C44.23,76.26 45.28,77.11 45.96,77.38 C46.59,77.60 47.78,76.59 48.22,75.45 C48.92,73.53 49.09,68.93 48.45,67.27 C48.13,66.48 47.16,65.48 46.49,65.43 C45.15,65.38 45.32,70.44 46.46,71.23 C46.46,71.23 46.79,71.38 47.10,71.44 C47.80,71.05 48.51,68.51 48.45,66.42 C48.27,62.13 46.84,60.99 46.53,60.91 C46.08,61.29 45.76,64.11 46.10,65.82 C46.27,66.60 47.09,67.87 47.75,68.17 C48.32,67.43 47.93,65.73 46.35,61.93 C44.99,58.66 45.02,58.08 45.02,58.08 C45.86,57.90 47.25,59.35 48.19,60.86 C49.13,62.41 49.80,64.34 49.67,65.92 C49.60,66.72 48.72,68.48 48.02,69.00 C47.44,69.41 46.52,68.97 46.13,68.09 C45.74,67.16 44.83,63.91 44.75,62.97 C44.69,62.20 45.61,61.55 46.23,61.70 C47.70,62.12 48.05,64.45 47.88,64.91 C47.48,65.14 46.46,64.76 45.78,63.84 C45.10,62.89 43.77,60.08 43.13,59.15 C43.13,59.15 41.38,58.69 41.17,58.44 C41.17,58.44 44.89,58.52 44.89,58.52 C44.89,58.52 45.16,60.02 45.16,60.02 C45.16,60.02 43.25,58.26 43.25,58.26 C43.25,58.26 46.16,59.51 46.16,59.51 C46.18,60.03 46.19,60.53 46.19,60.53 C46.19,60.53 46.20,60.68 46.20,60.68" fill="none" stroke="rgb(214, 142, 40)" stroke-width="2.00" stroke-opacity="1.00" stroke-linejoin="round"/>
<path d="M45.68,58.15 C45.68,58.15 45.58,58.28 45.58,58.28 C46.51,58.09 49.57,62.59 50.11,65.72 C50.23,66.46 49.95,66.95 49.95,66.95 C49.95,66.95 49.83,66.97 49.83,66.97" fill="none" stroke="rgb(238, 202, 152)" stroke-width="2.00" stroke-opacity="1.00" stroke-linejoin="round"/>
<path d="M45.77,61.27 C45.77,61.27 45.50,60.76 45.50,60.76 C44.58,62.93 44.67,63.41 45.49,64.14 C45.81,64.42 46.76,65.20 46.76,65.20 C46.76,65.20 45.49,61.57 45.49,61.57 C45.49,61.57 47.37,67.15 47.37,67.15 C47.37,67.15 46.06,62.44 46.06,62.44 C46.06,62.44 46.06,62.35 46.06,62.35" fill="none" stroke="rgb(238, 202, 152)" stroke-width="2.00" stroke-opacity="1.00" stroke-linejoin="round"/>
<path d="M38.15,77.91 C36.91,76.77 35.01,73.42 34.61,71.35 C34.24,69.41 34.60,65.33 35.10,63.85 C35.95,61.35 38.36,58.45 39.89,57.65 C41.51,56.82 44.57,57.01 46.32,58.14 C48.22,59.39 50.39,62.80 50.76,65.33 C51.08,67.69 50.43,71.77 49.43,74.25 C48.33,76.89 44.95,78.87 43.17,78.97 C41.13,79.07 39.20,78.49 39.20,78.49 C39.20,78.49 38.69,78.25 38.69,78.25" fill="none" stroke="rgb(0, 0, 0)" stroke-width="0.78" stroke-opacity="1.00" stroke-linejoin="round"/>
<path d="M40.40,77.44 C38.60,76.49 36.11,73.39 35.72,71.63 C35.38,70.00 35.72,65.15 36.36,63.39 C37.02,61.60 39.70,58.85 41.25,58.48 C42.85,58.13 46.65,59.72 47.72,61.03 C48.90,62.51 49.87,67.16 49.58,69.56 C49.29,71.79 47.85,74.87 46.47,76.08 C45.47,76.95 42.96,77.75 42.49,77.73 C42.49,77.73 41.85,77.67 41.13,77.59" fill="none" stroke="rgb(0, 0, 0)" stroke-width="0.52" stroke-opacity="1.00" stroke-linejoin="round"/>
<path d="M45.71,64.01 C45.71,64.01 45.37,63.76 45.37,63.76 C44.82,63.24 42.40,62.31 40.52,63.08 C39.25,63.61 37.91,65.54 38.20,66.28 C38.42,66.76 43.82,68.78 44.51,69.30 C45.45,70.06 45.91,71.19 45.77,71.81 C45.62,72.31 44.51,73.16 43.57,73.22 C41.95,73.29 38.37,71.54 38.37,71.54 C38.37,71.54 38.06,71.25 38.06,71.25 C38.06,71.25 38.05,71.25 38.05,71.25" fill="none" stroke="rgb(0, 0, 0)" stroke-width="1.04" stroke-opacity="1.00" stroke-linejoin="round"/>
<path d="M41.77,61.29 C41.77,61.29 41.80,61.10 41.80,61.10 C41.80,61.10 40.31,74.75 40.31,74.75" fill="none" stroke="rgb(0, 0, 0)" stroke-width="1.04" stroke-opacity="1.00" stroke-linejoin="round"/>
<path d="M44.70,62.11 C44.70,62.11 44.66,62.04 44.66,62.04 C44.66,62.04 43.18,75.03 43.18,75.03 C43.18,75.03 43.19,74.93 43.19,74.93" fill="none" stroke="rgb(0, 0, 0)" stroke-width="1.04" stroke-opacity="1.00" stroke-linejoin="round"/>
<path d="M45.64,64.13 C45.64,64.13 46.54,65.06 46.54,65.06 C46.54,65.06 46.84,65.55 46.84,65.55" fill="none" stroke="rgb(0, 0, 0)" stroke-width="1.04" stroke-opacity="1.00" stroke-linejoin="round"/>
<path d="M61.08,54.86 C61.08,54.86 61.23,54.81 61.23,54.81 C61.25,54.32 60.75,53.75 60.19,53.52 C58.59,52.88 56.72,53.49 56.19,53.78 C55.56,55.33 57.26,61.17 58.83,64.20 C59.78,66.00 61.61,68.42 62.44,69.03 C63.33,69.64 64.81,70.04 65.62,69.39 C66.43,68.69 65.85,63.01 64.55,60.28 C63.60,58.31 61.44,55.74 60.81,55.39 C59.67,54.82 57.73,54.73 57.10,55.26 C56.43,55.86 56.13,58.01 56.33,59.11 C56.76,61.28 60.18,66.84 61.84,67.95 C62.65,68.47 64.24,68.77 64.89,68.59 C66.12,68.23 66.84,64.72 66.44,62.63 C66.20,61.53 64.05,57.81 62.92,56.70 C59.99,53.92 57.71,54.27 57.22,54.52 C56.58,55.49 56.53,58.26 57.06,60.01 C58.38,64.27 61.82,68.43 63.41,68.82 C64.98,69.17 67.00,67.16 67.20,65.02 C67.36,62.99 66.08,59.57 64.81,58.22 C63.39,56.73 61.08,55.14 60.38,54.96 C59.17,54.68 57.24,55.06 56.69,55.98 C56.04,57.13 55.91,59.85 56.57,61.60 C57.45,63.82 61.92,68.52 64.13,68.95 C65.13,69.13 66.63,68.90 67.20,68.46 C68.29,67.56 68.40,63.16 67.27,61.01 C65.71,58.08 61.74,55.66 60.42,55.51 C59.11,55.40 57.90,56.66 58.09,57.97 C58.44,60.14 62.99,66.66 65.05,67.74 C65.70,68.06 67.36,68.07 67.81,67.77 C68.69,67.13 68.66,62.72 67.45,60.19 C66.27,57.81 62.36,54.38 60.85,54.11 C60.19,54.00 59.24,54.54 59.02,55.13 C58.53,56.52 60.46,61.97 62.39,64.43 C64.16,66.64 65.99,67.07 66.86,67.19 C67.27,66.08 67.34,65.63 67.03,65.03 C64.81,60.76 61.29,56.67 60.57,56.64 C60.04,57.61 59.95,58.42 60.49,59.62 C62.46,63.95 64.75,65.70 65.36,65.51 C65.83,64.17 61.50,57.87 60.98,57.74 C60.98,57.74 64.15,64.92 64.15,64.92 C64.71,63.64 61.24,58.36 60.13,57.69 C59.44,58.59 60.73,62.62 61.31,64.09 C61.56,64.73 62.03,65.19 62.03,65.19 C62.71,63.42 59.55,55.52 57.71,54.31 C57.71,54.31 57.22,54.09 57.22,54.09 C56.14,55.52 58.44,61.86 59.70,62.80 C60.50,62.35 60.84,61.85 60.83,60.83 C60.79,57.01 58.17,53.87 57.23,53.54 C56.03,54.68 55.88,56.48 56.00,57.50 C56.52,61.27 59.80,64.61 60.62,64.64 C61.21,64.22 61.45,61.79 61.08,60.32 C60.67,58.78 59.09,56.58 58.07,55.96 C57.21,55.47 55.59,55.28 55.27,55.79 C54.88,56.47 55.04,59.29 55.78,60.89 C57.80,65.13 61.20,66.61 62.01,66.23 C62.65,64.94 61.31,59.02 58.93,56.34 C58.30,55.66 57.51,55.37 57.14,55.39 C56.43,55.89 56.12,57.93 56.34,59.20 C56.76,61.23 58.64,65.22 59.89,66.72 C61.13,68.16 64.06,68.77 64.89,68.05 C65.72,67.27 65.97,64.89 65.49,63.71 C64.89,62.31 63.03,60.81 62.09,60.51 C61.13,60.25 59.34,60.26 58.73,60.91 C58.22,61.49 58.55,63.20 59.02,63.94 C60.24,65.81 63.07,68.39 64.94,68.99 C66.05,69.32 66.80,69.15 67.59,68.82 C68.23,67.86 68.03,65.73 67.39,64.64 C66.64,63.42 64.36,61.67 63.46,61.36 C62.55,61.09 60.87,61.40 60.34,62.34 C59.37,64.28 62.32,68.43 63.79,69.12 C64.50,69.43 65.82,69.62 66.52,69.50 C67.32,69.34 68.27,68.02 68.30,66.70 C68.28,65.68 67.41,64.10 66.27,63.29 C65.18,62.54 62.87,62.04 62.41,62.12 C61.43,62.32 60.80,63.74 61.14,65.11 C61.47,66.38 64.31,69.43 65.62,69.84 C66.22,70.02 67.77,69.98 68.07,69.73 C68.77,69.11 69.11,67.42 69.05,66.49 C68.85,63.78 65.63,61.86 64.32,61.83 C63.52,61.83 61.91,62.50 61.40,63.29 C61.00,63.96 60.72,66.21 61.04,66.89 C62.14,69.02 67.82,69.80 68.52,69.09 C68.87,67.47 66.81,64.94 65.57,64.49 C64.80,64.24 63.26,64.60 62.90,65.43 C62.39,66.72 65.01,69.36 66.21,69.43 C67.44,69.47 68.41,68.18 68.54,67.25 C68.65,66.27 68.28,63.72 67.53,62.21 C66.78,60.73 64.75,58.11 63.31,57.12 C62.39,56.49 59.34,54.37 59.34,54.37 C59.34,54.37 60.70,53.94 62.17,54.33 C63.11,54.60 65.92,57.06 66.63,58.09 C67.27,59.02 67.55,61.11 67.22,61.95 C66.81,62.86 64.91,62.80 63.83,61.59 C61.82,59.30 59.57,54.15 60.17,52.97 C61.76,52.73 64.26,54.84 65.36,55.96 C66.90,57.56 68.41,59.90 68.64,61.34 C68.81,62.56 68.41,64.31 67.82,64.73 C67.12,65.20 65.39,64.12 64.00,62.29 C62.58,60.39 60.23,56.73 59.94,55.39 C59.77,54.49 60.44,53.11 61.46,53.05 C61.96,53.04 64.07,54.14 65.61,55.47 C67.46,57.10 69.64,60.13 70.30,62.23 C71.41,65.87 70.41,68.18 69.96,68.46 C66.61,68.05 66.47,58.97 66.65,58.46 C68.85,57.96 70.15,68.04 69.91,68.39 C69.19,68.60 67.79,67.68 67.06,66.34 C66.44,65.16 63.21,55.31 61.69,53.78 C60.59,52.72 58.27,52.52 58.20,53.50 C58.12,55.19 59.66,55.39 60.06,55.36 C60.54,54.99 60.71,53.70 60.32,53.18 C59.89,52.64 58.56,52.28 58.07,52.55 C57.70,52.79 56.97,55.41 56.97,56.49 C57.01,59.62 58.75,60.98 59.24,61.25 C60.19,60.84 60.57,60.45 60.53,59.73 C60.43,58.30 59.53,56.25 58.64,55.34 C57.86,54.58 56.63,54.33 56.14,54.83 C55.70,55.31 55.52,57.59 55.63,58.49 C55.79,59.52 57.29,62.68 58.43,63.69 C58.86,64.05 60.64,64.62 61.23,64.24 C61.82,63.82 61.97,62.04 61.48,60.51 C60.88,58.72 59.38,56.60 58.72,56.04 C58.08,55.54 56.88,55.19 56.38,55.64 C55.82,56.20 55.72,58.42 56.03,59.40 C56.51,60.75 58.38,63.64 60.02,64.69 C60.66,65.09 61.64,65.53 62.25,65.73 C62.25,65.73 62.73,65.89 62.73,65.89" fill="none" stroke="rgb(214, 142, 40)" stroke-width="2.00" stroke-opacity="1.00" stroke-linejoin="round"/>
<path d="M61.31,52.25 C61.31,52.25 60.78,52.23 60.78,52.23 C60.78,52.23 60.59,51.91 60.59,51.91 C61.03,51.98 63.30,53.03 63.98,53.50 C65.02,54.24 67.25,57.53 67.58,58.05 C67.58,58.05 68.09,58.67 68.09,58.67 C68.09,58.67 68.18,58.73 68.18,58.73" fill="none" stroke="rgb(238, 202, 152)" stroke-width="2.00" stroke-opacity="1.00" stroke-linejoin="round"/>
<path d="M60.51,55.32 C60.51,55.32 60.36,55.22 60.36,55.22 C60.36,55.22 60.44,55.13 60.44,55.13 C60.44,55.13 65.30,58.61 65.30,58.61 C65.17,59.06 64.09,58.96 63.66,58.59 C63.12,58.14 60.15,55.20 60.15,55.20 C60.15,55.20 62.80,59.07 62.80,59.07 C62.80,59.07 63.31,58.97 63.31,58.97 C63.31,58.97 63.69,58.99 63.69,58.99" fill="none" stroke="rgb(238, 202, 152)" stroke-width="2.00" stroke-opacity="1.00" stroke-linejoin="round"/>
<path d="M61.05,68.54 C58.28,66.67 54.32,61.46 53.53,58.70 C52.93,56.54 53.25,53.49 54.08,52.37 C55.09,51.06 58.36,50.52 61.03,51.56 C64.13,52.80 68.64,56.90 70.04,59.90 C71.20,62.47 71.36,66.25 70.68,68.10 C70.03,69.81 67.03,70.37 65.42,70.06 C63.70,69.73 62.02,69.05 62.02,69.05 C62.02,69.05 61.56,68.83 61.56,68.83" fill="none" stroke="rgb(0, 0, 0)" stroke-width="0.78" stroke-opacity="1.00" stroke-linejoin="round"/>
<path d="M62.64,68.63 C60.95,67.78 58.10,65.55 57.19,64.38 C56.34,63.27 54.56,59.73 54.21,58.28 C53.85,56.69 54.58,53.70 55.77,53.05 C57.14,52.33 62.23,53.55 64.19,55.01 C66.39,56.68 69.33,61.84 69.65,64.15 C69.89,66.09 68.99,68.26 67.82,68.86 C67.03,69.25 64.90,69.28 64.48,69.18 C64.48,69.18 63.92,69.03 63.28,68.85" fill="none" stroke="rgb(0, 0, 0)" stroke-width="0.52" stroke-opacity="1.00" stroke-linejoin="round"/>
<path d="M63.01,58.56 C63.01,58.56 62.52,58.31 62.52,58.31 C61.70,57.80 58.79,56.99 57.40,57.85 C56.56,58.38 56.36,60.05 56.90,60.65 C57.28,61.03 62.86,62.95 63.72,63.43 C64.96,64.14 65.82,65.12 65.86,65.59 C65.87,67.61 59.10,64.57 59.10,64.57 C59.10,64.57 58.75,64.33 58.75,64.33 C58.75,64.33 58.75,64.33 58.75,64.33" fill="none" stroke="rgb(0, 0, 0)" stroke-width="1.04" stroke-opacity="1.00" stroke-linejoin="round"/>
<path d="M57.70,56.01 C57.70,56.01 57.64,55.81 57.64,55.81 C57.64,55.81 61.74,66.94 61.74,66.94" fill="none" stroke="rgb(0, 0, 0)" stroke-width="1.04" stroke-opacity="1.00" stroke-linejoin="round"/>
<path d="M61.07,56.61 C61.07,56.61 60.99,56.53 60.99,56.53 C60.99,56.53 64.30,67.55 64.30,67.55 C64.30,67.55 64.29,67.49 64.29,67.49" fill="none" stroke="rgb(0, 0, 0)" stroke-width="1.04" stroke-opacity="1.00" stroke-linejoin="round"/>
<path d="M62.98,58.68 C62.98,58.68 64.39,59.62 64.39,59.62 C64.39,59.62 64.93,60.12 64.93,60.12" fill="none" stroke="rgb(0, 0, 0)" stroke-width="1.04" stroke-opacity="1.00" stroke-linejoin="round"/>
<path d="M40.08,52.17 C40.08,52.17 40.06,51.83 40.06,51.83 C39.92,51.19 37.02,52.14 35.74,53.70 C34.71,54.98 34.00,60.05 35.21,61.40 C36.22,62.46 39.58,61.58 41.28,60.09 C43.13,58.43 45.58,54.18 45.48,52.89 C45.35,51.59 42.97,49.95 40.12,49.96 C38.66,49.99 34.74,52.32 33.94,53.90 C33.19,55.46 34.10,59.99 35.79,61.19 C37.16,62.12 40.27,61.53 41.86,60.12 C43.72,58.47 45.97,54.11 45.90,52.54 C45.84,51.75 45.08,50.66 44.39,50.42 C43.67,50.19 42.12,50.47 41.03,51.11 C39.83,51.85 38.13,53.90 37.59,55.17 C37.11,56.34 36.85,58.57 37.06,59.36 C37.44,60.70 39.75,60.78 40.72,59.81 C41.89,58.60 43.52,54.51 43.41,52.88 C43.34,52.07 42.81,51.28 42.29,51.29 C40.86,51.37 38.59,54.95 38.34,57.27 C38.25,58.19 38.50,59.46 38.80,59.74 C39.64,60.42 41.98,57.52 42.60,54.83 C42.89,53.57 42.68,52.25 42.34,52.03 C42.34,52.03 41.78,52.03 41.11,52.34 C39.29,54.40 37.79,58.82 38.23,59.55 C38.73,60.27 41.34,57.79 42.09,55.94 C42.96,53.77 42.50,53.14 42.09,52.86 C40.47,53.57 38.49,58.01 38.94,58.70 C38.94,58.70 40.87,55.24 40.87,55.24 C38.68,56.48 38.85,58.67 38.85,58.67 C40.92,57.41 40.70,55.20 40.70,55.20 C38.72,56.41 38.64,59.08 38.64,59.08 C40.09,58.39 40.09,54.27 39.20,53.73 C38.77,53.48 38.18,53.42 37.50,53.52 C36.07,54.44 35.28,57.79 35.85,58.75 C36.05,59.07 36.72,59.44 37.61,59.32 C38.86,58.39 39.22,54.72 37.88,54.62 C36.33,54.59 35.17,59.12 35.70,59.38 C36.66,58.56 37.67,55.59 37.77,54.41 C37.86,53.23 37.41,52.26 36.58,52.01 C34.91,52.53 32.68,56.20 32.50,58.25 C32.34,60.36 33.83,62.17 35.14,61.88 C36.20,61.61 38.55,58.43 38.83,56.27 C39.05,54.32 37.29,52.36 36.11,52.54 C34.25,52.85 31.66,56.71 31.52,58.59 C31.38,60.92 33.59,62.73 34.71,62.42 C36.28,61.94 38.11,58.42 38.10,56.40 C38.08,55.69 37.51,54.29 37.06,53.90 C36.71,53.61 35.32,53.40 34.24,53.70 C33.04,54.06 30.98,55.77 30.66,56.98 C30.31,58.43 31.29,60.63 32.56,61.86 C33.41,62.64 36.67,62.37 37.08,60.64 C37.43,58.97 36.13,56.37 35.02,55.95 C34.56,55.79 33.00,55.80 31.91,56.20 C30.63,56.68 29.58,58.01 29.72,59.43 C29.82,60.24 31.48,62.43 32.79,63.12 C33.80,63.61 36.50,62.92 37.25,62.09 C37.95,61.29 38.49,59.26 38.10,58.45 C37.65,57.54 35.38,56.78 33.67,57.43 C32.46,57.93 31.35,59.45 31.40,60.49 C31.52,62.22 34.16,63.57 35.43,63.31 C36.72,63.02 39.19,61.24 39.75,59.64 C39.99,58.92 39.77,58.18 39.49,57.93 C38.34,56.99 33.48,57.40 32.14,58.91 C31.43,59.73 31.60,61.37 31.99,61.95 C32.75,63.04 35.19,63.75 36.61,63.30 C37.94,62.86 40.03,61.20 40.64,60.28 C41.25,59.34 41.30,58.36 40.54,58.29 C39.00,58.18 33.49,60.01 32.46,60.82 C31.82,61.89 35.56,63.82 37.24,63.45 C38.74,63.10 41.45,60.46 41.00,59.62 C40.50,58.85 35.23,60.41 34.50,61.32 C34.19,61.74 33.96,62.66 34.23,62.87 C36.58,64.54 39.97,60.72 40.16,60.12 C39.09,57.30 33.18,61.58 32.83,62.12 C32.78,63.08 36.84,63.46 38.12,62.40 C39.86,59.96 33.83,61.98 33.47,62.31 C33.22,63.30 36.38,64.49 38.16,63.44 C39.43,62.66 41.40,60.42 41.85,59.43 C42.58,57.73 38.98,59.83 39.15,61.10 C39.71,63.85 44.30,58.09 44.28,57.41 C43.60,57.06 40.90,59.77 41.58,60.07 C42.53,60.40 45.17,57.17 45.18,56.33 C45.15,55.43 43.20,57.39 43.59,57.97 C44.10,58.60 45.91,56.14 46.16,54.73 C46.33,53.55 45.52,53.43 45.52,53.43 C45.52,53.43 44.52,57.09 44.52,57.09 C45.70,56.70 46.67,52.98 46.25,52.25 C46.25,52.25 45.62,51.98 45.62,51.98 C45.62,51.98 44.77,56.12 44.77,56.12 C45.69,55.38 45.89,52.01 45.42,51.88 C45.42,51.88 45.18,51.90 45.18,51.90 C45.18,51.90 44.71,54.97 44.71,54.97 C47.72,52.40 45.11,49.65 44.44,49.49 C46.81,48.49 46.77,53.65 46.06,54.52 C45.68,54.32 44.99,50.09 44.72,49.71 C43.74,48.33 41.61,48.75 41.34,48.95 C41.69,50.01 44.78,49.64 45.22,49.38 C45.56,48.32 42.45,47.42 41.16,48.49 C40.60,48.98 40.42,49.59 40.42,49.59 C40.42,49.59 44.51,48.80 44.51,48.80 C44.60,47.74 40.36,47.59 38.54,48.52 C36.23,49.74 36.18,51.08 36.18,51.08 C36.18,51.08 40.37,48.62 40.37,48.62 C38.86,46.00 32.74,51.48 32.75,52.37 C33.18,52.80 35.05,52.65 35.93,51.91 C36.75,51.19 38.08,48.85 38.16,48.27 C37.14,48.05 34.87,49.47 33.58,50.96 C32.52,52.20 31.50,54.46 31.50,54.46 C32.15,55.26 35.30,52.86 36.86,50.36 C36.08,49.99 35.69,49.97 35.27,50.37 C34.25,51.35 33.81,52.03 33.81,52.03 C33.81,52.03 36.90,49.49 36.90,49.49 C36.90,49.49 34.99,50.96 34.99,50.96 C34.99,50.96 38.22,49.12 38.22,49.12 C38.22,49.12 35.81,50.54 35.81,50.54 C35.81,50.54 38.73,48.90 39.98,48.56 C42.43,47.92 43.05,48.66 43.16,49.20 C43.16,49.20 43.12,49.49 43.12,49.49 C43.12,49.49 42.97,49.59 42.97,49.59" fill="none" stroke="rgb(214, 142, 40)" stroke-width="2.00" stroke-opacity="1.00" stroke-linejoin="round"/>
<path d="M39.46,53.25 C39.46,53.25 38.49,52.67 38.49,52.67 C40.13,55.12 41.07,55.75 41.54,55.85 C42.03,55.95 43.09,55.76 43.64,55.25 C44.13,54.42 43.88,53.39 43.09,52.61 C42.27,51.80 41.65,51.42 40.98,51.27 C40.64,51.72 40.96,53.32 41.64,54.03 C42.51,54.87 43.68,54.15 43.90,53.92 C43.90,53.92 42.34,51.04 42.34,51.04 C42.00,51.51 41.94,52.66 42.00,53.00 C42.00,53.00 42.07,53.18 42.07,53.18" fill="none" stroke="rgb(214, 142, 40)" stroke-width="2.00" stroke-opacity="1.00" stroke-linejoin="round"/>
<path d="M41.74,47.44 C41.74,47.44 41.67,47.44 41.67,47.44 C41.67,47.44 41.53,47.45 41.53,47.45 C41.53,47.45 41.62,47.37 41.62,47.37 C42.85,47.08 46.49,48.61 46.78,50.28 C46.91,51.18 47.12,52.43 47.12,52.43 C47.12,52.43 47.04,52.29 47.04,52.29" fill="none" stroke="rgb(238, 202, 152)" stroke-width="2.00" stroke-opacity="1.00" stroke-linejoin="round"/>
<path d="M41.90,49.70 C41.90,49.70 41.91,49.70 41.91,49.70 C42.43,49.66 42.93,49.69 43.28,49.83 C44.89,50.50 45.46,53.20 45.42,53.75 C45.42,53.75 42.13,50.18 42.13,50.18 C42.13,50.18 43.51,53.13 43.51,53.13 C43.51,53.13 45.28,53.67 45.28,53.67 C45.28,53.67 45.03,53.66 45.03,53.66" fill="none" stroke="rgb(238, 202, 152)" stroke-width="2.00" stroke-opacity="1.00" stroke-linejoin="round"/>
<path d="M34.98,64.80 C33.44,64.96 30.53,64.26 29.60,63.20 C28.65,62.09 28.35,58.59 28.87,56.96 C29.82,54.06 33.47,49.82 35.83,48.34 C38.21,46.87 42.22,46.16 44.13,46.79 C45.96,47.41 47.51,49.56 47.50,51.29 C47.48,52.77 46.55,55.50 45.56,57.28 C43.81,60.37 37.46,64.09 36.17,64.47 C36.17,64.47 35.61,64.65 35.61,64.65" fill="none" stroke="rgb(0, 0, 0)" stroke-width="0.78" stroke-opacity="1.00" stroke-linejoin="round"/>
<path d="M37.39,63.24 C35.39,63.76 32.04,63.50 31.27,62.62 C30.52,61.73 30.19,57.72 30.92,55.78 C31.72,53.72 35.63,49.69 37.88,48.72 C40.03,47.81 44.34,48.14 45.30,48.94 C46.24,49.78 46.57,52.82 46.09,54.48 C45.28,57.20 41.27,61.34 39.47,62.27 C39.47,62.27 38.84,62.57 38.14,62.91" fill="none" stroke="rgb(0, 0, 0)" stroke-width="0.52" stroke-opacity="1.00" stroke-linejoin="round"/>
<path d="M43.05,52.01 C43.05,52.01 42.72,51.95 42.72,51.95 C42.17,51.74 39.42,51.89 37.04,53.37 C35.34,54.43 33.62,56.76 34.11,57.20 C34.47,57.46 40.90,56.26 41.59,56.31 C42.47,56.40 42.83,56.92 42.67,57.36 C41.78,59.43 34.79,60.90 34.79,60.90 C34.79,60.90 34.37,60.90 34.37,60.90 C34.37,60.90 34.36,60.90 34.36,60.90" fill="none" stroke="rgb(0, 0, 0)" stroke-width="1.04" stroke-opacity="1.00" stroke-linejoin="round"/>
<path d="M38.63,51.24 C38.63,51.24 38.67,51.05 38.67,51.05 C38.67,51.05 37.22,61.78 37.22,61.78" fill="none" stroke="rgb(0, 0, 0)" stroke-width="1.04" stroke-opacity="1.00" stroke-linejoin="round"/>
<path d="M42.10,50.85 C42.10,50.85 42.06,50.80 42.06,50.80 C42.06,50.80 40.14,60.45 40.14,60.45 C40.14,60.45 40.16,60.38 40.16,60.38" fill="none" stroke="rgb(0, 0, 0)" stroke-width="1.04" stroke-opacity="1.00" stroke-linejoin="round"/>
<path d="M42.98,52.13 C42.98,52.13 43.81,52.51 43.81,52.51 C43.81,52.51 44.06,52.76 44.06,52.76" fill="none" stroke="rgb(0, 0, 0)" stroke-width="1.04" stroke-opacity="1.00" stroke-linejoin="round"/>
</g>
</svg>
