<?xml version="1.0" encoding="UTF-8" standalone="no"?>
<!DOCTYPE svg PUBLIC "-//W3C//DTD SVG 1.1//EN" "http://www.w3.org/Graphics/SVG/1.1/DTD/svg11.dtd">
<svg width="100.00" height="100.00" viewBox="0.00 0.00 100.00 100.00" xmlns="http://www.w3.org/2000/svg" xmlns:xlink="http://www.w3.org/1999/xlink">
<g stroke-linecap="round" id="圖層_1_的複製_3">
<path d="M42.82,23.81 C42.82,24.21 43.02,25.00 43.53,25.22 C44.02,25.41 45.28,25.26 45.56,25.03 C45.89,24.74 45.82,23.69 45.39,23.09 C44.37,21.67 43.37,21.12 43.39,21.18 C43.39,21.18 47.94,26.47 47.94,26.47 C48.61,24.79 47.94,22.66 47.65,22.15 C46.51,20.21 44.83,19.24 44.39,19.28 C43.67,20.05 46.29,24.47 47.79,24.93 C48.24,25.07 48.75,24.96 49.13,24.73 C49.47,24.03 49.10,22.31 48.23,21.07 C46.69,18.94 44.65,18.46 44.34,18.67 C44.16,19.74 47.55,24.23 48.90,24.87 C49.73,25.24 50.68,25.09 51.11,24.84 C51.81,23.64 49.22,19.21 47.82,18.22 C45.99,16.97 44.63,17.29 44.28,17.47 C44.06,19.88 49.34,24.37 50.70,24.64 C51.46,24.78 52.00,24.69 52.33,24.40 C52.75,23.00 51.07,18.98 49.82,17.75 C48.56,16.53 44.89,15.54 44.48,15.82 C44.86,17.08 52.89,24.28 54.55,24.26 C55.21,22.69 54.73,20.55 54.37,19.65 C53.03,16.46 50.10,14.16 48.59,14.21 C47.58,14.27 47.09,15.52 47.33,16.36 C48.18,18.86 52.19,23.27 53.28,23.59 C54.00,23.78 55.32,23.36 55.74,22.40 C56.63,20.21 53.33,15.94 52.14,15.56 C50.91,15.19 49.85,15.75 49.78,16.43 C49.68,17.96 51.99,21.91 53.35,23.22 C54.14,23.95 55.20,24.09 55.75,23.95 C57.13,22.67 55.22,16.51 54.30,15.78 C53.81,15.41 52.83,16.12 52.64,17.08 C52.33,19.15 54.04,24.26 54.85,25.00 C56.13,24.13 56.43,21.70 56.43,20.64 C56.40,19.46 56.19,18.83 55.93,18.50 C54.77,18.67 54.00,20.73 53.83,22.24 C53.67,23.81 53.75,24.68 53.84,25.00 C54.83,24.69 54.67,19.41 53.80,18.74 C53.47,18.49 53.06,18.41 52.61,18.45 C52.61,18.45 51.03,23.45 51.03,23.45 C51.73,22.63 52.34,18.00 51.64,16.89 C50.82,15.68 48.11,15.59 47.90,16.58 C47.90,16.58 49.46,15.62 49.46,15.62 C49.46,15.62 52.40,25.70 52.40,25.70 C52.79,25.72 51.99,25.76 53.06,25.40 C53.09,25.39 53.16,25.38 53.25,25.36" fill="none" stroke="rgb(116, 75, 46)" stroke-width="2.00" stroke-opacity="1.00" stroke-linejoin="round"/>
<path d="M44.80,34.28 C44.74,34.27 44.69,34.27 44.66,34.28 C44.62,34.29 44.54,34.33 44.42,34.39 C44.40,34.62 44.57,34.96 44.98,35.33 C47.12,37.18 49.05,36.98 49.51,36.78 C49.55,35.65 47.72,34.71 46.69,34.39 C45.38,33.99 44.88,34.04 44.61,34.18 C44.75,35.64 46.45,36.94 47.19,37.18 C49.39,37.80 50.84,36.59 50.76,35.95 C50.76,35.95 44.36,33.84 44.36,33.84 C44.41,35.05 47.99,37.11 49.51,37.33 C50.98,37.53 52.46,37.18 52.73,36.80 C53.19,36.05 49.48,34.35 48.52,34.70 C48.48,34.72 48.42,34.77 48.33,34.84 C49.26,35.64 54.73,35.95 55.03,35.03 C55.05,34.97 55.07,34.86 55.08,34.69 C55.08,34.69 51.20,34.64 51.20,34.64 C51.20,34.64 55.94,33.62 55.94,33.62 C55.94,33.62 53.91,34.37 53.91,34.37 C53.91,34.37 56.61,34.22 56.61,34.22 C56.61,34.22 54.88,36.70 54.88,36.70 C54.88,36.70 55.96,34.70 55.96,34.70 C56.17,35.50 54.62,36.43 53.53,36.66 C52.97,36.78 52.87,36.80 52.87,36.81" fill="none" stroke="rgb(116, 75, 46)" stroke-width="2.00" stroke-opacity="1.00" stroke-linejoin="round"/>
<path d="M43.91,14.82 C43.91,14.82 43.35,14.82 43.35,14.82 C43.16,15.81 43.71,16.41 44.57,16.84 C45.33,17.20 48.84,17.63 50.81,17.58 C55.72,17.38 56.40,15.46 56.45,15.08 C55.06,12.48 44.51,13.43 43.49,13.71" fill="none" stroke="rgb(24, 19, 25)" stroke-width="3.00" stroke-opacity="1.00" stroke-linejoin="round"/>
<path d="M37.73,22.72 C37.69,23.24 38.72,25.09 40.10,26.01 C41.31,26.80 44.80,27.72 47.47,27.84 C51.81,28.01 56.90,26.72 56.90,26.72" fill="none" stroke="rgb(0, 0, 0)" stroke-width="3.00" stroke-opacity="1.00" stroke-linejoin="round"/>
<path d="M37.68,22.23 C37.68,22.23 37.61,22.18 37.61,22.18 C37.61,22.18 38.63,21.77 39.07,21.73 C39.07,21.73 39.54,21.76 39.54,21.76" fill="none" stroke="rgb(0, 0, 0)" stroke-width="3.00" stroke-opacity="1.00" stroke-linejoin="round"/>
<path d="M41.56,15.59 C41.56,15.59 41.49,15.24 41.49,15.24 C41.49,15.24 41.54,16.73 41.58,17.76 C41.68,19.77 41.84,23.27 41.91,24.77" fill="none" stroke="rgb(0, 0, 0)" stroke-width="3.00" stroke-opacity="1.00" stroke-linejoin="round"/>
<path d="M58.28,16.37 C58.28,16.37 58.28,16.09 58.28,16.09 C58.28,16.09 58.56,25.52 58.56,25.52" fill="none" stroke="rgb(0, 0, 0)" stroke-width="3.00" stroke-opacity="1.00" stroke-linejoin="round"/>
<path d="M60.16,21.05 C61.76,21.41 61.77,24.15 61.17,25.28 C60.74,26.08 60.10,26.39 60.10,26.39" fill="none" stroke="rgb(0, 0, 0)" stroke-width="3.00" stroke-opacity="1.00" stroke-linejoin="round"/>
<path d="M38.45,32.46 C38.45,32.46 38.38,32.03 38.38,32.03 C38.38,34.41 38.43,36.20 38.57,37.00 C38.57,37.00 38.71,37.61 38.85,38.15 C38.85,38.15 39.25,38.16 39.25,38.16" fill="none" stroke="rgb(0, 0, 0)" stroke-width="3.00" stroke-opacity="1.00" stroke-linejoin="round"/>
<path d="M61.95,22.16 C61.95,22.16 62.27,22.16 62.54,22.44 C63.80,23.78 64.48,25.47 64.49,26.37 C64.45,28.33 62.27,30.88 61.67,31.19" fill="none" stroke="rgb(0, 0, 0)" stroke-width="3.00" stroke-opacity="1.00" stroke-linejoin="round"/>
<path d="M61.67,30.34 C61.67,30.34 61.25,33.19 61.25,33.19 C61.25,33.19 61.55,38.08 61.55,38.08" fill="none" stroke="rgb(0, 0, 0)" stroke-width="3.00" stroke-opacity="1.00" stroke-linejoin="round"/>
<path d="M35.99,39.65 C35.99,39.65 36.27,39.61 36.27,39.61 C36.27,39.61 36.55,39.09 36.55,39.09 C36.55,39.09 36.53,39.09 36.53,39.09 C35.34,39.10 33.70,39.12 33.33,39.25 C31.50,39.90 27.45,41.48 27.09,42.57 C27.09,42.57 26.98,43.11 26.95,43.44 C26.95,43.44 26.95,44.02 26.95,44.02" fill="none" stroke="rgb(0, 0, 0)" stroke-width="3.00" stroke-opacity="1.00" stroke-linejoin="round"/>
<path d="M27.09,42.90 C27.09,42.90 27.09,42.19 27.09,42.19 C26.53,47.18 26.18,50.91 26.15,52.84 C26.09,62.17 26.86,70.52 27.09,73.15 C27.76,79.25 28.82,83.44 29.35,84.95" fill="none" stroke="rgb(0, 0, 0)" stroke-width="3.00" stroke-opacity="1.00" stroke-linejoin="round"/>
<path d="M29.21,85.09 C29.21,85.09 29.21,84.95 29.21,84.95 C29.51,85.02 34.88,87.05 38.94,87.59 C45.49,88.42 53.31,88.53 57.49,88.12 C58.72,87.93 68.22,86.41 70.11,86.22" fill="none" stroke="rgb(0, 0, 0)" stroke-width="3.00" stroke-opacity="1.00" stroke-linejoin="round"/>
<path d="M39.18,21.03 C38.79,21.05 37.55,21.54 36.61,22.23 C35.57,23.01 34.51,24.80 34.43,25.90 C34.32,27.96 37.34,30.22 37.48,30.53 C37.48,30.53 37.20,30.62 37.20,30.62" fill="none" stroke="rgb(0, 0, 0)" stroke-width="3.00" stroke-opacity="1.00" stroke-linejoin="round"/>
<path d="M61.55,38.38 C62.70,38.34 63.85,38.29 65.00,38.24 C65.61,38.22 66.67,38.29 67.24,38.41 C69.22,38.86 70.48,39.55 70.91,40.55 C71.62,42.33 72.50,45.74 72.97,49.34 C73.32,52.02 73.36,76.11 73.35,78.72 C73.33,79.04 72.79,81.72 72.52,83.36" fill="none" stroke="rgb(0, 0, 0)" stroke-width="3.00" stroke-opacity="1.00" stroke-linejoin="round"/>
<path d="M41.77,31.89 C41.77,31.89 41.65,31.89 41.65,31.89 C41.65,31.89 42.38,31.93 42.81,32.01 C51.85,33.82 57.41,31.67 57.72,31.47" fill="none" stroke="rgb(0, 0, 0)" stroke-width="2.00" stroke-opacity="1.00" stroke-linejoin="round"/>
<path d="M43.18,33.73 C43.18,33.73 42.90,32.79 42.90,32.79 C42.90,32.79 42.90,32.81 42.90,32.81 C42.92,35.52 43.49,37.40 43.49,37.40 C43.49,37.40 45.78,38.20 48.78,38.62 C50.17,38.81 56.68,37.50 57.69,36.46 C57.69,36.46 57.72,36.41 57.72,36.41" fill="none" stroke="rgb(0, 0, 0)" stroke-width="2.00" stroke-opacity="1.00" stroke-linejoin="round"/>
<path d="M58.00,32.53 C58.00,32.53 57.86,32.03 57.86,32.03 C57.86,32.03 57.86,33.61 57.86,34.67 C57.86,35.34 57.86,36.02 57.86,36.69 C57.86,36.69 57.74,36.69 57.74,36.69" fill="none" stroke="rgb(0, 0, 0)" stroke-width="2.00" stroke-opacity="1.00" stroke-linejoin="round"/>
<path d="M47.63,45.93 C48.33,46.15 53.00,45.85 55.91,45.68 C63.54,45.15 67.12,42.69 67.57,42.34 C67.57,42.34 67.60,42.47 67.60,42.47" fill="none" stroke="rgb(0, 0, 0)" stroke-width="2.00" stroke-opacity="1.00" stroke-linejoin="round"/>
<path d="M34.93,83.12 C34.93,83.12 34.72,83.12 34.72,83.12 C34.72,83.12 36.40,82.56 38.34,82.25 C43.62,81.29 51.20,80.83 53.08,80.86 C57.60,80.94 65.67,83.13 66.04,83.12 C66.04,83.12 65.92,83.12 65.92,83.12" fill="none" stroke="rgb(0, 0, 0)" stroke-width="2.00" stroke-opacity="1.00" stroke-linejoin="round"/>
<path d="M32.03,44.45 C32.03,44.45 31.82,44.33 31.82,44.33 C31.82,44.33 31.75,44.17 31.75,44.17 C31.75,44.17 33.45,44.67 35.26,44.78 C35.26,44.78 35.91,44.88 35.91,44.88" fill="none" stroke="rgb(0, 0, 0)" stroke-width="2.00" stroke-opacity="1.00" stroke-linejoin="round"/>
<path d="M37.39,72.39 C37.39,72.39 36.85,71.95 36.85,71.95" fill="none" stroke="rgb(214, 142, 40)" stroke-width="2.00" stroke-opacity="1.00" stroke-linejoin="round"/>
<path d="M32.50,69.55 C32.50,69.55 32.22,69.20 32.22,69.20 C32.22,69.20 31.95,68.88 31.95,68.88 C33.11,70.86 36.05,75.40 37.83,77.12 C38.66,77.90 40.19,78.56 41.04,78.30 C41.49,77.48 41.20,75.48 40.51,74.07 C39.31,71.67 36.51,68.47 34.96,67.48 C33.75,66.73 32.92,66.86 32.59,67.06 C32.27,68.78 37.32,77.14 39.72,78.75 C40.02,78.95 40.26,79.01 40.87,79.11 C41.16,77.51 39.35,73.97 37.70,71.54 C35.79,68.74 32.68,66.67 32.06,66.67 C32.47,69.85 37.48,75.42 38.50,75.91 C39.08,74.86 37.27,71.89 36.04,70.38 C35.01,69.13 34.05,68.45 34.05,68.45 C34.05,68.45 37.77,74.07 37.77,74.07 C37.64,72.14 34.05,68.90 33.67,68.77 C33.67,68.77 37.03,74.85 37.03,74.85 C37.47,73.24 32.42,68.45 31.97,68.26 C31.47,69.08 37.36,77.41 39.32,78.14 C39.32,78.14 39.81,78.26 39.81,78.26 C39.81,78.26 31.86,69.24 31.86,69.24 C31.42,69.95 33.28,72.94 35.51,75.48 C39.32,79.79 41.03,80.39 41.40,80.44 C41.68,79.54 40.10,77.39 38.58,75.76 C36.80,73.87 33.28,70.80 32.52,70.57 C32.09,71.08 33.04,73.23 34.94,75.42 C39.16,80.20 42.72,82.14 43.03,82.06 C43.51,80.78 37.84,73.64 35.36,72.31 C34.94,72.09 34.42,71.97 34.02,71.95 C33.61,72.89 36.49,76.62 39.41,79.67 C42.92,83.30 44.07,83.29 44.68,83.14 C45.20,82.24 44.73,80.19 43.58,78.73 C41.99,76.76 36.42,73.39 35.17,73.58 C34.87,74.64 35.40,76.03 35.73,76.55 C37.85,79.84 43.07,82.65 43.86,82.08 C44.15,78.57 32.85,72.53 32.42,72.41 C32.32,73.49 40.57,82.64 42.52,82.65 C42.52,82.65 43.09,82.54 43.09,82.54 C43.47,82.02 43.24,80.70 42.48,79.60 C39.65,75.70 35.69,73.23 35.02,72.97 C34.81,73.79 35.63,75.51 36.05,76.06 C39.30,80.28 42.92,81.83 43.90,81.80 C44.38,81.24 44.15,79.04 43.50,77.69 C41.99,74.60 35.78,69.52 34.28,68.90 C34.28,68.90 36.12,69.00 37.27,69.73 C40.35,71.75 42.70,76.83 42.69,77.69 C42.69,77.69 36.25,68.67 36.25,68.67 C39.74,67.37 44.04,76.81 44.05,77.99 C43.22,78.16 41.41,76.04 39.96,73.75 C38.51,71.45 37.81,69.52 37.75,68.86 C39.29,69.01 44.04,75.35 44.84,77.99 C45.42,80.13 44.26,81.21 44.26,81.21 C44.26,81.21 41.55,72.65 41.55,72.65 C45.89,74.07 45.97,81.65 45.97,81.65 C43.40,83.31 42.88,75.95 43.11,75.72 C44.03,75.80 45.10,77.16 45.49,77.99 C45.95,79.00 46.34,81.60 46.16,82.10 C45.99,82.50 45.06,82.65 44.81,82.42 C44.29,81.87 44.10,77.69 44.11,77.06 C44.60,77.04 46.71,80.32 46.00,81.23 C45.67,81.63 45.06,81.70 44.70,81.69 C44.70,81.69 44.55,81.14 44.55,81.14 C44.55,81.14 44.55,80.61 44.55,80.61" fill="none" stroke="rgb(214, 142, 40)" stroke-width="2.00" stroke-opacity="1.00" stroke-linejoin="round"/>
<path d="M33.52,66.59 C33.52,66.59 33.43,66.59 33.43,66.59 C33.43,66.59 32.95,66.46 32.95,66.46 C32.95,66.46 32.84,66.33 32.84,66.33 C34.17,65.21 41.23,71.44 41.23,71.44 C41.23,71.44 41.25,71.59 41.25,71.59" fill="none" stroke="rgb(238, 202, 152)" stroke-width="2.00" stroke-opacity="1.00" stroke-linejoin="round"/>
<path d="M39.60,82.53 C37.31,80.83 33.32,76.29 31.97,73.78 C30.84,71.66 30.04,68.48 30.29,67.23 C30.46,66.50 31.18,65.54 31.83,65.38 C33.35,65.06 39.44,68.21 41.91,70.71 C44.50,73.36 47.29,79.20 47.41,80.59 C47.55,82.38 46.56,84.78 45.31,84.73 C43.39,84.62 40.37,83.02 40.37,83.02 C40.37,83.02 40.01,82.80 40.01,82.80" fill="none" stroke="rgb(0, 0, 0)" stroke-width="0.78" stroke-opacity="1.00" stroke-linejoin="round"/>
<path d="M40.77,82.82 C37.92,81.05 33.80,76.39 32.35,73.45 C31.59,71.88 31.18,68.78 31.93,68.09 C32.86,67.31 37.78,69.01 39.93,70.86 C42.29,72.91 45.54,78.37 45.96,80.43 C46.27,82.03 45.64,83.52 44.74,83.76 C44.15,83.91 42.52,83.60 42.20,83.47 C42.20,83.47 41.76,83.28 41.27,83.06" fill="none" stroke="rgb(0, 0, 0)" stroke-width="0.52" stroke-opacity="1.00" stroke-linejoin="round"/>
<path d="M39.51,74.53 C39.51,74.53 39.05,74.24 39.05,74.24 C38.23,73.64 35.61,72.57 34.70,73.30 C34.18,73.74 34.45,75.26 35.02,75.85 C35.39,76.23 42.72,80.27 42.88,81.04 C43.10,82.57 37.51,79.35 37.51,79.35 C37.51,79.35 37.20,79.12 37.20,79.12 C37.20,79.12 37.20,79.12 37.20,79.12" fill="none" stroke="rgb(0, 0, 0)" stroke-width="1.04" stroke-opacity="1.00" stroke-linejoin="round"/>
<path d="M34.44,71.47 C34.44,71.47 34.33,71.25 34.33,71.25 C34.33,71.25 39.86,81.49 39.86,81.49" fill="none" stroke="rgb(0, 0, 0)" stroke-width="1.04" stroke-opacity="1.00" stroke-linejoin="round"/>
<path d="M37.44,72.36 C37.44,72.36 37.35,72.28 37.35,72.28 C37.35,72.28 41.88,82.30 41.88,82.30 C41.88,82.30 41.86,82.25 41.86,82.25" fill="none" stroke="rgb(0, 0, 0)" stroke-width="1.04" stroke-opacity="1.00" stroke-linejoin="round"/>
<path d="M39.51,74.64 C39.51,74.64 40.89,75.71 40.89,75.71 C40.89,75.71 41.43,76.24 41.43,76.24" fill="none" stroke="rgb(0, 0, 0)" stroke-width="1.04" stroke-opacity="1.00" stroke-linejoin="round"/>
<path d="M58.98,69.20 C58.98,69.20 58.86,68.81 58.86,68.81 C58.55,68.06 55.63,68.60 54.61,70.03 C53.80,71.21 53.82,77.16 55.38,79.63 C56.14,80.79 58.16,82.10 59.34,82.32 C60.45,82.49 62.23,81.95 63.39,81.12 C64.71,80.15 66.18,78.17 66.76,76.52 C67.28,74.98 67.36,72.56 66.89,71.52 C66.03,69.65 61.92,67.15 58.47,66.76 C56.90,66.61 53.48,68.41 52.95,69.89 C52.46,71.37 53.91,77.11 56.02,79.62 C57.04,80.80 59.36,82.27 60.44,82.56 C61.48,82.81 63.08,82.52 64.39,81.59 C65.77,80.58 67.11,78.76 67.54,77.18 C67.95,75.54 67.93,72.34 67.42,71.14 C66.92,70.01 65.17,68.37 64.05,67.94 C62.95,67.54 60.99,67.60 59.83,68.16 C58.60,68.79 57.15,70.80 56.82,72.18 C56.53,73.49 56.71,76.34 57.14,77.56 C57.57,78.71 58.91,80.24 59.68,80.61 C60.41,80.94 61.86,80.75 62.37,80.27 C63.72,78.91 64.48,73.22 63.62,70.89 C63.20,69.80 62.16,68.69 61.48,68.60 C60.75,68.53 59.25,69.36 58.79,70.30 C57.92,72.20 58.48,77.78 59.51,79.02 C60.11,79.69 61.60,79.75 62.05,79.12 C62.56,78.38 63.31,75.78 63.21,73.34 C63.14,71.67 62.33,69.87 61.79,69.52 C61.50,69.35 61.05,69.40 60.28,69.62 C58.61,71.70 57.92,77.11 58.69,78.42 C59.06,79.00 60.42,79.11 61.16,78.48 C62.50,77.27 63.32,71.97 62.56,71.14 C62.56,71.14 62.19,70.82 61.74,70.51 C60.59,70.80 59.54,72.22 59.15,73.84 C58.86,75.07 58.93,76.80 59.37,77.48 C60.45,77.22 60.83,77.04 60.95,76.64 C61.30,75.41 61.41,73.80 60.89,73.30 C59.84,73.68 59.33,74.12 59.17,74.92 C58.89,76.36 59.05,77.09 59.24,77.39 C61.72,76.48 60.90,73.48 60.64,73.18 C58.44,74.13 58.93,77.50 59.09,77.92 C60.00,77.74 60.39,75.38 60.00,73.60 C59.57,71.77 57.52,70.26 56.38,70.21 C55.06,70.92 54.80,74.70 55.59,76.17 C55.88,76.70 56.75,77.52 57.82,77.77 C58.61,77.30 59.03,75.69 58.92,74.72 C58.78,73.49 57.71,71.80 57.03,71.59 C55.35,71.15 54.92,76.39 55.55,76.97 C56.48,76.25 57.00,72.73 56.86,71.31 C56.71,69.95 56.04,68.79 55.17,68.39 C54.11,68.58 53.33,69.34 53.03,69.99 C52.07,72.05 52.19,76.87 53.08,78.49 C53.50,79.23 54.73,80.19 55.39,80.31 C56.03,80.41 57.09,79.72 57.59,78.92 C58.78,76.90 58.31,71.54 56.99,70.04 C56.49,69.49 55.26,68.87 54.79,68.86 C53.11,68.87 51.23,72.35 51.27,74.41 C51.35,77.20 53.79,80.74 55.00,80.89 C56.16,81.01 57.13,80.07 57.31,79.54 C58.21,76.68 57.27,71.84 55.98,70.54 C55.57,70.13 54.16,69.62 53.20,69.73 C52.18,69.87 50.60,71.20 50.42,72.39 C50.08,74.96 53.58,80.50 55.10,81.15 C55.88,81.44 57.44,80.84 57.48,79.49 C57.51,77.18 55.46,73.22 54.24,72.39 C53.76,72.07 52.32,71.69 51.40,71.86 C50.38,72.06 49.62,73.20 49.79,74.81 C49.93,75.79 51.60,79.24 52.98,80.86 C54.16,82.20 57.33,82.82 58.10,81.91 C58.82,81.03 58.95,78.11 58.21,76.72 C57.42,75.25 54.73,73.48 53.12,73.73 C52.05,73.94 51.20,75.37 51.33,76.67 C51.60,78.96 54.58,82.36 56.04,82.75 C56.72,82.91 58.17,82.90 58.60,82.71 C59.61,82.22 60.73,80.37 60.83,79.39 C60.93,78.37 60.34,77.09 59.89,76.60 C59.26,75.94 56.97,74.51 55.74,74.23 C54.29,73.92 52.46,74.24 51.86,75.00 C50.88,76.28 52.94,80.73 54.37,82.03 C55.84,83.32 59.30,83.74 60.61,82.99 C61.22,82.63 62.20,81.54 62.44,81.04 C63.02,79.79 62.68,78.18 61.50,77.65 C59.31,76.74 53.28,76.88 52.37,77.52 C51.86,78.66 56.34,83.71 58.48,84.26 C59.54,84.53 61.19,84.26 61.87,83.67 C62.61,83.02 63.18,80.83 62.73,80.11 C61.66,78.53 55.21,78.20 54.56,79.15 C54.28,79.60 54.19,80.83 54.53,81.31 C55.04,81.98 56.80,82.89 57.61,83.07 C59.80,83.47 61.56,81.36 61.63,80.45 C61.20,79.59 59.30,78.59 58.10,78.24 C55.52,77.55 53.18,78.87 52.90,79.45 C52.93,80.05 54.38,81.73 55.51,82.46 C56.68,83.20 58.79,83.44 59.41,83.05 C59.71,82.51 59.30,81.36 58.54,80.87 C56.91,79.86 53.94,79.76 53.60,80.06 C53.55,80.60 54.55,82.47 55.42,83.35 C56.52,84.44 59.02,85.15 59.82,84.96 C61.48,84.51 63.75,81.81 64.03,80.32 C64.19,79.39 63.05,78.24 62.06,78.52 C61.21,78.80 60.22,80.66 60.47,81.48 C60.81,82.43 62.83,83.47 64.09,83.30 C65.24,83.10 67.71,79.50 67.27,78.26 C66.63,77.81 65.08,77.99 64.36,78.66 C63.56,79.41 63.38,80.89 63.88,81.29 C64.64,81.83 66.45,81.63 67.27,80.53 C67.96,79.57 68.50,77.41 68.31,76.87 C68.12,76.36 66.93,76.06 66.53,76.42 C66.12,76.83 65.99,78.41 66.33,78.83 C66.72,79.28 68.28,79.25 68.71,78.52 C71.39,73.77 67.25,72.33 67.25,72.33 C66.21,72.91 66.75,76.80 67.52,77.82 C68.49,77.82 68.98,77.61 69.13,76.95 C69.39,75.77 69.15,73.13 68.54,71.80 C68.28,71.25 67.30,70.24 66.67,70.27 C65.67,71.25 66.14,76.03 67.42,76.29 C68.69,75.51 67.13,70.39 66.29,70.08 C66.29,70.08 65.91,70.04 65.91,70.04 C64.70,70.96 66.01,74.07 66.69,74.39 C67.64,73.71 67.83,71.22 67.65,70.47 C67.27,68.98 64.78,67.11 63.75,66.82 C64.65,66.57 67.75,68.21 68.67,70.55 C69.43,72.55 68.86,74.26 68.86,74.26 C68.11,73.89 65.46,68.82 65.19,68.37 C63.56,65.68 59.96,65.59 59.60,65.83 C60.32,67.02 64.29,67.05 64.83,66.80 C64.88,65.58 60.48,64.34 59.28,65.34 C58.76,65.79 58.71,66.40 58.71,66.40 C59.71,67.34 63.32,66.94 63.58,66.02 C63.31,64.84 58.18,64.38 56.50,65.15 C54.49,66.10 54.64,67.39 54.64,67.39 C55.81,67.96 58.34,66.53 58.43,65.40 C56.35,62.86 51.69,67.33 51.78,68.16 C52.18,68.64 53.81,68.80 54.53,68.18 C55.20,67.58 56.10,65.43 56.08,64.89 C55.08,64.62 53.26,65.72 52.33,66.95 C51.58,67.97 50.93,69.98 50.93,69.98 C51.53,70.93 54.07,69.06 55.17,66.76 C54.39,66.33 54.03,66.26 53.71,66.59 C52.92,67.42 52.63,67.99 52.63,67.99 C52.63,67.99 55.08,65.93 55.08,65.93 C55.08,65.93 53.54,67.12 53.54,67.12 C53.54,67.12 56.29,65.70 56.29,65.70 C56.29,65.70 54.22,66.82 54.22,66.82 C54.22,66.82 56.76,65.53 57.99,65.30 C60.61,64.85 61.60,65.70 61.91,66.31 C61.91,66.31 61.95,66.63 61.95,66.63 C61.95,66.63 61.79,66.73 61.79,66.73" fill="none" stroke="rgb(214, 142, 40)" stroke-width="2.00" stroke-opacity="1.00" stroke-linejoin="round"/>
<path d="M58.52,70.34 C58.52,70.34 57.27,69.45 57.27,69.45 C59.84,72.85 61.31,74.07 62.05,74.41 C62.80,74.75 64.37,74.91 65.02,74.37 C65.42,73.31 64.55,71.72 63.05,70.44 C61.63,69.23 60.68,68.62 59.81,68.33 C59.53,68.80 60.40,70.81 61.53,71.91 C63.09,73.37 64.57,72.74 64.81,72.48 C64.81,72.48 61.46,68.31 61.46,68.31 C61.31,68.58 61.25,69.20 61.38,69.81 C61.47,70.22 61.82,70.91 61.82,70.91" fill="none" stroke="rgb(214, 142, 40)" stroke-width="2.00" stroke-opacity="1.00" stroke-linejoin="round"/>
<path d="M59.66,64.32 C59.66,64.32 59.58,64.32 59.58,64.32 C59.58,64.32 59.43,64.32 59.43,64.32 C59.43,64.32 59.51,64.24 59.51,64.24 C60.88,64.02 66.42,66.06 67.71,68.22 C68.46,69.52 69.55,71.36 69.55,71.36 C69.55,71.36 69.32,71.14 69.32,71.14" fill="none" stroke="rgb(238, 202, 152)" stroke-width="2.00" stroke-opacity="1.00" stroke-linejoin="round"/>
<path d="M60.48,66.70 C60.48,66.70 60.49,66.70 60.49,66.70 C61.13,66.73 61.78,66.83 62.29,67.05 C64.83,68.13 67.02,71.96 67.25,72.78 C67.25,72.78 60.91,67.27 60.91,67.27 C60.91,67.27 63.86,71.25 63.86,71.25 C63.86,71.25 66.97,72.61 66.97,72.61 C66.97,72.61 66.54,72.50 66.54,72.50" fill="none" stroke="rgb(238, 202, 152)" stroke-width="2.00" stroke-opacity="1.00" stroke-linejoin="round"/>
<path d="M55.82,84.96 C53.98,84.13 50.84,81.30 49.91,79.37 C49.04,77.56 48.68,73.49 49.02,71.93 C49.61,69.30 52.14,65.92 53.95,64.79 C55.88,63.60 59.87,63.09 62.36,63.79 C65.07,64.58 68.57,67.41 69.56,69.79 C70.46,72.03 70.45,76.15 69.65,78.80 C69.18,80.32 67.67,82.40 66.78,83.02 C63.07,85.49 57.64,85.35 57.30,85.29 C57.30,85.29 56.94,85.23 56.59,85.17" fill="none" stroke="rgb(0, 0, 0)" stroke-width="0.78" stroke-opacity="1.00" stroke-linejoin="round"/>
<path d="M58.63,83.99 C56.11,83.47 52.26,81.02 51.40,79.38 C50.63,77.87 50.08,73.06 50.55,71.19 C51.05,69.30 53.95,66.00 55.88,65.28 C57.88,64.57 63.11,65.25 64.76,66.29 C66.58,67.46 68.78,71.78 68.89,74.19 C68.97,76.44 67.73,79.77 66.20,81.27 C65.08,82.35 62.00,83.71 61.39,83.79 C61.39,83.79 60.55,83.88 59.60,83.97" fill="none" stroke="rgb(0, 0, 0)" stroke-width="0.52" stroke-opacity="1.00" stroke-linejoin="round"/>
<path d="M62.77,69.66 C62.77,69.66 62.27,69.50 62.27,69.50 C61.46,69.12 58.14,68.76 55.87,69.94 C54.33,70.75 53.00,72.94 53.53,73.59 C53.91,74.01 61.30,74.75 62.29,75.10 C63.66,75.63 64.49,76.63 64.42,77.26 C64.34,77.78 63.07,78.87 61.87,79.14 C59.80,79.58 54.81,78.69 54.81,78.69 C54.81,78.69 54.35,78.48 54.35,78.48 C54.35,78.48 54.34,78.48 54.34,78.48" fill="none" stroke="rgb(0, 0, 0)" stroke-width="1.04" stroke-opacity="1.00" stroke-linejoin="round"/>
<path d="M57.12,67.91 C57.12,67.91 57.12,67.72 57.12,67.72 C57.12,67.72 57.97,81.39 57.97,81.39" fill="none" stroke="rgb(0, 0, 0)" stroke-width="1.04" stroke-opacity="1.00" stroke-linejoin="round"/>
<path d="M61.08,68.04 C61.08,68.04 61.01,67.97 61.01,67.97 C61.01,67.97 61.73,81.00 61.73,81.00 C61.73,81.00 61.73,80.90 61.73,80.90" fill="none" stroke="rgb(0, 0, 0)" stroke-width="1.04" stroke-opacity="1.00" stroke-linejoin="round"/>
<path d="M62.70,69.79 C62.70,69.79 64.06,70.50 64.06,70.50 C64.06,70.50 64.54,70.91 64.54,70.91" fill="none" stroke="rgb(0, 0, 0)" stroke-width="1.04" stroke-opacity="1.00" stroke-linejoin="round"/>
<path d="M53.52,63.41 C53.77,63.14 53.97,62.87 54.13,62.59 C55.22,60.67 55.82,58.59 55.72,57.97 C54.89,57.85 54.28,58.10 53.56,59.05 C52.12,60.97 49.92,65.39 49.50,66.73 C49.29,67.48 49.25,68.74 49.89,69.55 C51.14,69.75 52.48,69.22 53.18,68.61 C54.78,67.19 56.90,62.68 56.80,60.85 C55.58,60.59 55.07,60.59 54.72,60.94 C52.83,62.86 50.22,68.05 50.30,69.60 C51.31,69.76 51.63,69.77 51.88,69.48 C54.92,65.90 55.23,62.20 55.23,62.20 C54.23,62.19 53.56,62.53 52.86,63.56 C51.72,65.23 50.91,67.28 50.98,67.99 C52.59,68.29 54.16,64.48 54.19,64.13 C54.19,64.13 51.63,68.28 51.63,68.28 C52.57,68.51 54.62,65.90 55.23,64.17 C55.70,62.78 55.76,60.92 55.40,59.94 C54.55,59.57 53.24,60.06 52.79,60.49 C48.63,64.55 48.07,71.33 48.50,72.23 C49.33,72.38 50.30,71.64 50.89,70.90 C51.72,69.79 53.82,65.31 54.20,62.99 C54.36,61.91 54.05,61.28 53.52,60.62 C52.27,60.37 50.87,61.00 50.22,61.57 C47.59,63.95 45.90,68.63 46.15,69.88 C46.32,70.59 47.61,71.80 48.69,71.53 C49.89,71.19 53.13,64.69 52.77,62.92 C52.77,62.92 52.62,62.54 52.42,62.25 C51.53,61.99 49.72,63.30 48.39,65.09 C47.28,66.62 45.86,69.76 45.78,70.44 C45.65,71.85 46.37,72.41 46.97,72.63 C48.67,72.28 51.52,67.78 52.05,65.55 C52.28,64.47 52.18,63.91 51.95,63.20 C51.15,62.74 49.99,63.06 49.43,63.47 C47.66,64.78 45.22,70.24 45.57,71.63 C45.78,72.38 47.43,72.84 48.35,72.05 C50.72,69.92 51.39,65.69 50.97,65.06 C50.13,64.83 48.33,65.57 47.22,66.61 C46.20,67.59 45.36,69.67 45.34,70.93 C45.35,72.19 45.91,73.30 46.53,73.47 C47.37,73.62 48.88,72.18 49.60,70.23 C50.03,69.02 50.35,67.02 50.11,66.36 C49.82,65.60 48.23,64.79 47.69,65.11 C46.35,65.99 45.33,72.55 46.06,73.03 C46.98,73.55 49.46,70.05 49.60,67.92 C49.64,66.76 48.84,65.59 48.22,65.36 C47.12,65.01 45.20,69.28 45.23,71.40 C45.25,72.14 46.21,72.73 46.82,72.39 C47.48,71.97 48.65,69.36 48.81,68.11 C48.93,67.00 48.30,66.12 47.69,66.04 C47.14,66.00 46.16,66.97 45.80,69.00 C45.49,70.71 45.65,72.45 45.97,72.73 C47.05,72.40 47.83,70.03 48.05,68.52 C48.24,67.12 48.01,65.85 47.58,65.64 C46.78,65.33 44.57,70.16 44.87,71.17 C45.10,71.86 46.43,72.62 47.16,72.56 C48.47,72.38 51.10,66.81 50.80,66.04 C49.84,65.39 46.69,69.18 46.33,70.74 C46.14,71.57 46.69,73.06 47.59,73.30 C48.81,73.57 53.28,70.08 53.67,67.92 C53.67,67.92 53.69,67.59 53.66,67.29 C53.20,66.74 51.33,66.53 50.19,67.01 C48.90,67.57 46.83,69.50 46.22,70.40 C45.72,71.19 45.24,72.78 45.53,73.41 C45.81,73.96 47.03,74.54 48.26,74.41 C49.98,74.19 53.09,70.25 52.99,69.26 C52.10,68.15 47.85,69.19 46.42,70.98 C46.11,71.41 46.34,72.55 46.84,73.28 C47.44,74.13 48.99,74.36 49.67,74.00 C51.20,73.11 56.30,65.60 56.08,64.34 C56.08,64.34 55.91,63.94 55.91,63.94 C54.67,63.77 51.11,67.62 51.38,68.73 C52.00,69.22 53.61,69.04 54.36,68.53 C56.28,67.13 58.33,63.30 58.30,62.54 C57.74,62.18 56.30,62.85 54.92,64.49 C52.06,67.97 52.22,70.10 52.41,70.62 C53.08,71.17 54.78,70.97 55.83,70.02 C57.80,68.19 58.70,65.35 58.60,64.62 C58.60,64.62 57.50,64.05 57.50,64.05 C57.50,64.05 52.50,71.91 52.50,71.91 C53.03,72.32 54.34,71.96 55.36,70.45 C58.12,66.30 58.78,63.29 58.16,62.23 C56.96,60.24 55.93,60.12 54.91,60.11 C54.91,60.11 59.36,59.73 59.36,59.73 C59.69,60.73 59.31,62.68 58.92,63.43 C58.23,64.69 56.69,65.72 55.93,65.51 C54.57,64.25 55.27,58.74 56.40,57.59 C56.93,57.08 58.36,57.36 58.81,58.16 C59.45,59.38 59.68,61.87 59.40,62.91 C59.10,63.84 58.07,64.99 57.18,65.00 C56.39,64.97 55.21,63.64 54.83,62.39 C54.51,61.28 54.63,59.74 55.17,58.98 C55.75,58.18 57.25,57.15 57.82,56.99 C59.05,56.68 60.22,57.66 60.40,58.98 C60.53,60.18 60.22,61.91 59.66,62.59 C59.12,63.22 58.02,63.58 57.44,63.39 C56.29,62.61 57.52,57.74 58.62,57.35 C59.13,57.18 59.70,57.87 59.75,58.73 C59.84,61.24 57.22,62.50 56.78,62.23 C56.78,62.23 54.42,59.10 53.67,58.92 C52.19,58.68 51.05,61.59 51.02,61.91 C51.02,61.91 53.52,58.66 53.52,58.66 C53.52,58.66 50.91,61.14 50.91,61.14 C50.91,61.14 51.31,61.14 51.31,61.14 C51.31,61.14 51.36,61.14 51.36,61.14" fill="none" stroke="rgb(214, 142, 40)" stroke-width="2.00" stroke-opacity="1.00" stroke-linejoin="round"/>
<path d="M52.84,59.09 C52.84,59.09 52.75,59.09 52.75,59.09 C53.00,57.98 56.61,56.37 58.31,56.93 C58.31,56.93 58.62,57.35 58.62,57.35 C58.62,57.35 58.75,57.52 58.75,57.52" fill="none" stroke="rgb(238, 202, 152)" stroke-width="2.00" stroke-opacity="1.00" stroke-linejoin="round"/>
<path d="M48.74,75.10 C47.57,75.23 45.42,74.67 44.75,73.79 C44.06,72.85 43.91,69.71 44.39,68.13 C45.31,65.16 48.91,60.33 51.30,58.48 C53.83,56.57 57.90,55.62 59.60,56.47 C61.18,57.29 61.98,60.02 61.45,62.08 C61.00,63.77 59.53,66.57 58.21,68.46 C56.16,71.36 50.67,74.53 49.66,74.84 C49.66,74.84 49.22,74.98 49.22,74.98" fill="none" stroke="rgb(0, 0, 0)" stroke-width="0.78" stroke-opacity="1.00" stroke-linejoin="round"/>
<path d="M50.72,73.83 C49.14,74.26 46.61,74.04 46.07,73.30 C45.53,72.54 45.45,68.88 46.16,66.96 C46.98,64.80 50.92,60.17 53.17,58.97 C55.39,57.81 59.42,58.23 60.10,59.25 C60.74,60.28 60.18,63.82 59.33,65.61 C58.00,68.39 53.98,72.21 52.44,73.01 C52.44,73.01 51.92,73.27 51.33,73.56" fill="none" stroke="rgb(0, 0, 0)" stroke-width="0.52" stroke-opacity="1.00" stroke-linejoin="round"/>
<path d="M57.25,62.91 C57.25,62.91 56.97,62.84 56.97,62.84 C56.52,62.59 54.03,62.77 51.68,64.41 C50.06,65.56 48.36,67.95 48.73,68.38 C49.00,68.63 54.53,67.45 55.10,67.50 C55.82,67.59 56.02,68.11 55.80,68.54 C54.71,70.50 48.94,71.82 48.94,71.82 C48.94,71.82 48.60,71.82 48.60,71.82 C48.60,71.82 48.60,71.82 48.60,71.82" fill="none" stroke="rgb(0, 0, 0)" stroke-width="1.04" stroke-opacity="1.00" stroke-linejoin="round"/>
<path d="M53.43,62.02 C53.43,62.02 53.49,61.80 53.49,61.80 C53.49,61.80 50.75,72.59 50.75,72.59" fill="none" stroke="rgb(0, 0, 0)" stroke-width="1.04" stroke-opacity="1.00" stroke-linejoin="round"/>
<path d="M56.65,61.56 C56.65,61.56 56.63,61.50 56.63,61.50 C56.63,61.50 53.23,71.42 53.23,71.42 C53.23,71.42 53.25,71.37 53.25,71.37" fill="none" stroke="rgb(0, 0, 0)" stroke-width="1.04" stroke-opacity="1.00" stroke-linejoin="round"/>
<path d="M57.16,63.04 C57.16,63.04 57.81,63.47 57.81,63.47 C57.81,63.47 57.97,63.75 57.97,63.75" fill="none" stroke="rgb(0, 0, 0)" stroke-width="1.04" stroke-opacity="1.00" stroke-linejoin="round"/>
</g>
</svg>
