<?xml version="1.0" encoding="UTF-8" standalone="no"?>
<!DOCTYPE svg PUBLIC "-//W3C//DTD SVG 1.1//EN" "http://www.w3.org/Graphics/SVG/1.1/DTD/svg11.dtd">
<svg width="100.00" height="100.00" viewBox="0.00 0.00 100.00 100.00" xmlns="http://www.w3.org/2000/svg" xmlns:xlink="http://www.w3.org/1999/xlink">
<g stroke-linecap="round" id="圖層_1_的複製_2">
<path d="M42.82,23.81 C42.82,24.21 43.02,25.00 43.53,25.22 C44.02,25.41 45.28,25.26 45.56,25.03 C45.89,24.74 45.82,23.69 45.39,23.09 C44.37,21.67 43.37,21.12 43.39,21.18 C43.39,21.18 47.94,26.47 47.94,26.47 C48.61,24.79 47.94,22.66 47.65,22.15 C46.51,20.21 44.83,19.24 44.39,19.28 C43.67,20.05 46.29,24.47 47.79,24.93 C48.24,25.07 48.75,24.96 49.13,24.73 C49.47,24.03 49.10,22.31 48.23,21.07 C46.69,18.94 44.65,18.46 44.34,18.67 C44.16,19.74 47.55,24.23 48.90,24.87 C49.73,25.24 50.68,25.09 51.11,24.84 C51.81,23.64 49.22,19.21 47.82,18.22 C45.99,16.97 44.63,17.29 44.28,17.47 C44.06,19.88 49.34,24.37 50.70,24.64 C51.46,24.78 52.00,24.69 52.33,24.40 C52.75,23.00 51.07,18.98 49.82,17.75 C48.56,16.53 44.89,15.54 44.48,15.82 C44.86,17.08 52.89,24.28 54.55,24.26 C55.21,22.69 54.73,20.55 54.37,19.65 C53.03,16.46 50.10,14.16 48.59,14.21 C47.58,14.27 47.09,15.52 47.33,16.36 C48.18,18.86 52.19,23.27 53.28,23.59 C54.00,23.78 55.32,23.36 55.74,22.40 C56.63,20.21 53.33,15.94 52.14,15.56 C50.91,15.19 49.85,15.75 49.78,16.43 C49.68,17.96 51.99,21.91 53.35,23.22 C54.14,23.95 55.20,24.09 55.75,23.95 C57.13,22.67 55.22,16.51 54.30,15.78 C53.81,15.41 52.83,16.12 52.64,17.08 C52.33,19.15 54.04,24.26 54.85,25.00 C56.13,24.13 56.43,21.70 56.43,20.64 C56.40,19.46 56.19,18.83 55.93,18.50 C54.77,18.67 54.00,20.73 53.83,22.24 C53.67,23.81 53.75,24.68 53.84,25.00 C54.83,24.69 54.67,19.41 53.80,18.74 C53.47,18.49 53.06,18.41 52.61,18.45 C52.61,18.45 51.03,23.45 51.03,23.45 C51.73,22.63 52.34,18.00 51.64,16.89 C50.82,15.68 48.11,15.59 47.90,16.58 C47.90,16.58 49.46,15.62 49.46,15.62 C49.46,15.62 52.40,25.70 52.40,25.70 C52.79,25.72 51.99,25.76 53.06,25.40 C53.09,25.39 53.16,25.38 53.25,25.36" fill="none" stroke="rgb(116, 75, 46)" stroke-width="2.00" stroke-opacity="1.00" stroke-linejoin="round"/>
<path d="M44.80,34.28 C44.74,34.27 44.69,34.27 44.66,34.28 C44.62,34.29 44.54,34.33 44.42,34.39 C44.40,34.62 44.57,34.96 44.98,35.33 C47.12,37.18 49.05,36.98 49.51,36.78 C49.55,35.65 47.72,34.71 46.69,34.39 C45.38,33.99 44.88,34.04 44.61,34.18 C44.75,35.64 46.45,36.94 47.19,37.18 C49.39,37.80 50.84,36.59 50.76,35.95 C50.76,35.95 44.36,33.84 44.36,33.84 C44.41,35.05 47.99,37.11 49.51,37.33 C50.98,37.53 52.46,37.18 52.73,36.80 C53.19,36.05 49.48,34.35 48.52,34.70 C48.48,34.72 48.42,34.77 48.33,34.84 C49.26,35.64 54.73,35.95 55.03,35.03 C55.05,34.97 55.07,34.86 55.08,34.69 C55.08,34.69 51.20,34.64 51.20,34.64 C51.20,34.64 55.94,33.62 55.94,33.62 C55.94,33.62 53.91,34.37 53.91,34.37 C53.91,34.37 56.61,34.22 56.61,34.22 C56.61,34.22 54.88,36.70 54.88,36.70 C54.88,36.70 55.96,34.70 55.96,34.70 C56.17,35.50 54.62,36.43 53.53,36.66 C52.97,36.78 52.87,36.80 52.87,36.81" fill="none" stroke="rgb(116, 75, 46)" stroke-width="2.00" stroke-opacity="1.00" stroke-linejoin="round"/>
<path d="M43.91,14.82 C43.91,14.82 43.35,14.82 43.35,14.82 C43.16,15.81 43.71,16.41 44.57,16.84 C45.33,17.20 48.84,17.63 50.81,17.58 C55.72,17.38 56.40,15.46 56.45,15.08 C55.06,12.48 44.51,13.43 43.49,13.71" fill="none" stroke="rgb(24, 19, 25)" stroke-width="3.00" stroke-opacity="1.00" stroke-linejoin="round"/>
<path d="M37.73,22.72 C37.69,23.24 38.72,25.09 40.10,26.01 C41.31,26.80 44.80,27.72 47.47,27.84 C51.81,28.01 56.72,26.78 56.90,26.72" fill="none" stroke="rgb(0, 0, 0)" stroke-width="3.00" stroke-opacity="1.00" stroke-linejoin="round"/>
<path d="M37.68,22.23 C37.59,22.22 37.57,22.21 37.61,22.18 C37.82,22.02 38.63,21.77 39.07,21.73 C39.18,21.72 39.34,21.73 39.54,21.76" fill="none" stroke="rgb(0, 0, 0)" stroke-width="3.00" stroke-opacity="1.00" stroke-linejoin="round"/>
<path d="M41.56,15.59 C41.56,15.59 41.49,15.24 41.49,15.24 C41.48,15.40 41.54,16.73 41.58,17.76 C41.68,19.77 41.84,23.27 41.91,24.77" fill="none" stroke="rgb(0, 0, 0)" stroke-width="3.00" stroke-opacity="1.00" stroke-linejoin="round"/>
<path d="M58.28,16.37 C58.28,16.37 58.28,16.09 58.28,16.09 C58.28,16.09 58.56,25.52 58.56,25.52" fill="none" stroke="rgb(0, 0, 0)" stroke-width="3.00" stroke-opacity="1.00" stroke-linejoin="round"/>
<path d="M60.16,21.05 C61.76,21.41 61.77,24.15 61.17,25.28 C60.74,26.08 60.28,26.33 60.10,26.39" fill="none" stroke="rgb(0, 0, 0)" stroke-width="3.00" stroke-opacity="1.00" stroke-linejoin="round"/>
<path d="M38.45,32.46 C38.45,32.46 38.38,32.03 38.38,32.03 C38.38,34.41 38.43,36.20 38.57,37.00 C38.61,37.22 38.71,37.61 38.85,38.15 C38.85,38.15 39.25,38.16 39.25,38.16" fill="none" stroke="rgb(0, 0, 0)" stroke-width="3.00" stroke-opacity="1.00" stroke-linejoin="round"/>
<path d="M61.95,22.16 C62.10,22.13 62.27,22.16 62.54,22.44 C63.80,23.78 64.48,25.47 64.49,26.37 C64.45,28.33 62.27,30.88 61.67,31.19" fill="none" stroke="rgb(0, 0, 0)" stroke-width="3.00" stroke-opacity="1.00" stroke-linejoin="round"/>
<path d="M61.67,30.34 C61.67,30.34 61.25,33.19 61.25,33.19 C61.25,33.19 61.55,38.08 61.55,38.08" fill="none" stroke="rgb(0, 0, 0)" stroke-width="3.00" stroke-opacity="1.00" stroke-linejoin="round"/>
<path d="M35.99,39.65 C35.99,39.65 36.27,39.61 36.27,39.61 C36.27,39.61 36.55,39.09 36.55,39.09 C36.56,39.09 36.53,39.09 36.53,39.09 C35.34,39.10 33.70,39.12 33.33,39.25 C31.50,39.90 27.45,41.48 27.09,42.57 C27.03,42.82 26.98,43.11 26.95,43.44 C26.95,43.53 26.95,43.72 26.95,44.02" fill="none" stroke="rgb(0, 0, 0)" stroke-width="3.00" stroke-opacity="1.00" stroke-linejoin="round"/>
<path d="M27.09,42.90 C27.09,42.90 27.09,42.19 27.09,42.19 C25.02,45.94 24.00,48.80 23.46,52.70 C22.58,58.89 22.90,68.63 24.07,75.18 C24.92,79.94 26.07,82.63 27.56,83.48 C29.16,84.36 29.39,84.55 29.35,84.95" fill="none" stroke="rgb(0, 0, 0)" stroke-width="3.00" stroke-opacity="1.00" stroke-linejoin="round"/>
<path d="M29.21,85.09 C29.17,84.99 29.17,84.94 29.21,84.95 C29.51,85.02 34.88,87.05 38.94,87.59 C45.49,88.42 53.31,88.53 57.49,88.12 C58.72,87.93 68.22,86.41 70.11,86.22" fill="none" stroke="rgb(0, 0, 0)" stroke-width="3.00" stroke-opacity="1.00" stroke-linejoin="round"/>
<path d="M39.18,21.03 C38.79,21.05 37.55,21.54 36.61,22.23 C35.57,23.01 34.51,24.80 34.43,25.90 C34.32,27.96 37.34,30.22 37.48,30.53 C37.48,30.53 37.20,30.62 37.20,30.62" fill="none" stroke="rgb(0, 0, 0)" stroke-width="3.00" stroke-opacity="1.00" stroke-linejoin="round"/>
<path d="M61.55,38.38 C62.70,38.34 63.85,38.29 65.00,38.24 C65.61,38.22 66.67,38.29 67.24,38.41 C69.26,38.87 69.89,39.22 70.91,40.55 C73.70,43.68 75.15,48.95 76.82,58.44 C79.06,73.62 74.55,82.09 73.08,84.16" fill="none" stroke="rgb(0, 0, 0)" stroke-width="3.00" stroke-opacity="1.00" stroke-linejoin="round"/>
<path d="M41.77,31.89 C41.77,31.89 41.65,31.89 41.65,31.89 C41.68,31.89 42.38,31.93 42.81,32.01 C51.85,33.82 57.41,31.67 57.72,31.47" fill="none" stroke="rgb(0, 0, 0)" stroke-width="2.00" stroke-opacity="1.00" stroke-linejoin="round"/>
<path d="M43.18,33.73 C43.18,33.73 42.90,32.79 42.90,32.79 C42.90,32.78 42.90,32.80 42.90,32.81 C42.92,35.52 43.45,37.17 43.49,37.40 C43.53,37.29 45.78,38.20 48.78,38.62 C50.17,38.81 56.68,37.50 57.69,36.46 C57.71,36.44 57.73,36.40 57.72,36.41" fill="none" stroke="rgb(0, 0, 0)" stroke-width="2.00" stroke-opacity="1.00" stroke-linejoin="round"/>
<path d="M58.00,32.53 C58.00,32.53 57.86,32.03 57.86,32.03 C57.86,32.29 57.86,33.61 57.86,34.67 C57.86,35.34 57.86,36.02 57.86,36.69 C57.86,36.69 57.74,36.69 57.74,36.69" fill="none" stroke="rgb(0, 0, 0)" stroke-width="2.00" stroke-opacity="1.00" stroke-linejoin="round"/>
<path d="M34.93,83.12 C34.93,83.12 34.72,83.12 34.72,83.12 C34.68,83.16 36.40,82.56 38.34,82.25 C43.62,81.29 51.20,80.83 53.08,80.86 C57.60,80.94 65.67,83.13 66.04,83.12 C66.04,83.12 65.92,83.12 65.92,83.12" fill="none" stroke="rgb(0, 0, 0)" stroke-width="2.00" stroke-opacity="1.00" stroke-linejoin="round"/>
<path d="M34.08,73.60 C34.08,73.60 33.49,73.23 33.49,73.23" fill="none" stroke="rgb(214, 142, 40)" stroke-width="2.00" stroke-opacity="1.00" stroke-linejoin="round"/>
<path d="M28.88,71.38 C28.77,71.28 28.66,71.18 28.56,71.08 C28.45,70.99 28.35,70.89 28.25,70.79 C29.64,72.62 33.12,76.76 35.10,78.25 C36.01,78.92 37.62,79.38 38.43,79.02 C38.77,78.15 38.24,76.20 37.39,74.89 C35.90,72.65 32.73,69.83 31.07,69.03 C29.77,68.44 28.97,68.67 28.67,68.91 C28.56,70.66 34.59,78.33 37.18,79.64 C37.49,79.80 37.75,79.82 38.36,79.85 C38.45,78.23 36.22,74.94 34.29,72.72 C32.05,70.18 28.70,68.50 28.09,68.58 C28.89,71.69 34.55,76.60 35.62,76.96 C36.06,75.85 33.90,73.12 32.50,71.78 C31.32,70.66 30.51,70.20 30.29,70.10 C30.29,70.10 34.66,75.23 34.66,75.23 C34.30,73.33 30.34,70.56 29.95,70.47 C29.95,70.47 34.02,76.09 34.02,76.09 C34.27,74.44 28.67,70.31 28.20,70.17 C27.80,71.05 34.67,78.60 36.70,79.08 C36.80,79.10 36.97,79.12 37.20,79.13 C37.20,79.13 28.20,71.16 28.20,71.16 C27.86,71.92 30.07,74.66 32.59,76.91 C36.90,80.71 38.67,81.10 39.05,81.10 C39.22,80.17 37.38,78.23 35.68,76.80 C33.68,75.15 29.80,72.54 29.02,72.40 C28.66,72.96 29.87,74.98 32.03,76.91 C36.80,81.14 40.57,82.63 40.87,82.52 C41.19,81.18 34.69,74.79 32.06,73.78 C31.61,73.61 31.09,73.56 30.68,73.59 C30.40,74.57 33.70,77.92 36.98,80.58 C40.91,83.76 42.05,83.60 42.63,83.39 C43.05,82.43 42.32,80.45 41.00,79.14 C39.19,77.38 33.24,74.72 32.03,75.06 C31.85,76.15 32.55,77.46 32.94,77.94 C35.45,80.95 40.98,83.09 41.70,82.43 C41.55,78.91 29.59,74.30 29.16,74.23 C29.19,75.33 38.50,83.39 40.43,83.16 C40.52,83.15 40.70,83.08 40.98,82.98 C41.29,82.41 40.91,81.13 40.02,80.14 C36.74,76.61 32.50,74.65 31.80,74.48 C31.70,75.32 32.71,76.92 33.20,77.42 C36.94,81.20 40.73,82.30 41.70,82.15 C42.11,81.54 41.60,79.38 40.80,78.12 C38.92,75.24 32.13,70.96 30.57,70.53 C30.64,70.31 32.40,70.40 33.64,70.99 C36.94,72.61 39.90,77.37 39.99,78.22 C39.99,78.22 32.49,70.06 32.49,70.06 C35.80,68.33 41.22,77.18 41.38,78.35 C40.58,78.61 38.52,76.74 36.80,74.64 C35.08,72.53 34.14,70.71 34.00,70.06 C35.56,70.02 41.05,75.73 42.16,78.25 C43.00,80.31 42.10,81.49 41.98,81.52 C41.98,81.52 38.25,73.36 38.25,73.36 C42.73,74.23 43.74,81.49 43.73,81.74 C41.39,83.70 39.97,76.46 40.16,76.21 C41.09,76.18 42.32,77.40 42.81,78.17 C43.39,79.12 44.09,81.65 43.97,82.17 C43.86,82.58 42.95,82.85 42.68,82.65 C42.10,82.17 41.39,78.04 41.32,77.42 C41.81,77.34 44.31,80.33 43.72,81.32 C43.43,81.76 42.84,81.90 42.47,81.94 C42.37,81.84 42.30,81.69 42.26,81.41 C42.25,81.34 42.22,81.16 42.19,80.89" fill="none" stroke="rgb(214, 142, 40)" stroke-width="2.00" stroke-opacity="1.00" stroke-linejoin="round"/>
<path d="M29.53,68.33 C29.53,68.34 29.49,68.34 29.44,68.34 C29.38,68.33 29.22,68.31 28.95,68.27 C28.95,68.27 28.82,68.15 28.82,68.15 C30.00,66.87 37.69,72.00 37.78,72.19 C37.79,72.22 37.80,72.27 37.81,72.34" fill="none" stroke="rgb(238, 202, 152)" stroke-width="2.00" stroke-opacity="1.00" stroke-linejoin="round"/>
<path d="M37.52,83.40 C35.04,81.99 30.52,77.98 28.87,75.65 C27.50,73.69 26.30,70.63 26.41,69.36 C26.48,68.61 27.08,67.57 27.70,67.34 C29.17,66.83 35.60,69.20 38.36,71.38 C41.26,73.70 44.75,79.15 45.03,80.51 C45.39,82.28 44.70,84.78 43.46,84.88 C41.54,85.01 38.53,83.88 38.35,83.79 C38.22,83.73 38.09,83.67 37.96,83.62" fill="none" stroke="rgb(0, 0, 0)" stroke-width="0.78" stroke-opacity="1.00" stroke-linejoin="round"/>
<path d="M38.72,83.55 C35.67,82.14 31.01,78.01 29.21,75.28 C28.26,73.81 27.47,70.79 28.13,70.01 C28.96,69.12 34.05,70.21 36.42,71.78 C39.01,73.52 42.90,78.55 43.58,80.54 C44.08,82.08 43.63,83.64 42.77,83.99 C42.20,84.21 40.55,84.10 40.21,84.01 C40.08,83.98 39.76,83.88 39.24,83.72" fill="none" stroke="rgb(0, 0, 0)" stroke-width="0.52" stroke-opacity="1.00" stroke-linejoin="round"/>
<path d="M36.45,75.47 C36.37,75.47 36.08,75.30 35.95,75.24 C35.07,74.75 32.33,74.01 31.52,74.84 C31.06,75.35 31.52,76.82 32.15,77.34 C32.57,77.66 40.34,80.77 40.59,81.52 C41.00,83.01 35.13,80.55 35.05,80.50 C34.96,80.42 34.83,80.36 34.72,80.31 C34.72,80.31 34.72,80.31 34.72,80.31" fill="none" stroke="rgb(0, 0, 0)" stroke-width="1.04" stroke-opacity="1.00" stroke-linejoin="round"/>
<path d="M31.04,73.06 C31.04,73.06 30.91,72.85 30.91,72.85 C30.91,72.85 37.65,82.33 37.65,82.33" fill="none" stroke="rgb(0, 0, 0)" stroke-width="1.04" stroke-opacity="1.00" stroke-linejoin="round"/>
<path d="M34.13,73.58 C34.13,73.58 34.03,73.50 34.03,73.50 C34.03,73.50 39.75,82.89 39.75,82.89 C39.75,82.89 39.73,82.84 39.73,82.84" fill="none" stroke="rgb(0, 0, 0)" stroke-width="1.04" stroke-opacity="1.00" stroke-linejoin="round"/>
<path d="M36.46,75.59 C36.46,75.59 37.96,76.47 37.96,76.47 C37.96,76.47 38.56,76.93 38.56,76.93" fill="none" stroke="rgb(0, 0, 0)" stroke-width="1.04" stroke-opacity="1.00" stroke-linejoin="round"/>
<path d="M60.98,68.20 C60.92,67.99 60.88,67.86 60.86,67.81 C60.55,67.06 57.63,67.60 56.61,69.03 C55.80,70.21 55.82,76.16 57.38,78.63 C58.14,79.79 60.16,81.10 61.34,81.32 C62.45,81.49 64.23,80.95 65.39,80.12 C66.71,79.15 68.18,77.17 68.76,75.52 C69.28,73.98 69.36,71.56 68.89,70.52 C68.03,68.65 63.92,66.15 60.47,65.76 C58.90,65.61 55.48,67.41 54.95,68.89 C54.46,70.37 55.91,76.11 58.02,78.62 C59.04,79.80 61.36,81.27 62.44,81.56 C63.48,81.81 65.08,81.52 66.39,80.59 C67.77,79.58 69.11,77.76 69.54,76.18 C69.95,74.54 69.93,71.34 69.42,70.14 C68.92,69.01 67.17,67.37 66.05,66.94 C64.95,66.54 62.99,66.60 61.83,67.16 C60.60,67.79 59.15,69.80 58.82,71.18 C58.53,72.49 58.71,75.34 59.14,76.56 C59.57,77.71 60.91,79.24 61.68,79.61 C62.41,79.94 63.86,79.75 64.37,79.27 C65.72,77.91 66.48,72.22 65.62,69.89 C65.20,68.80 64.16,67.69 63.48,67.60 C62.75,67.53 61.25,68.36 60.79,69.30 C59.92,71.20 60.48,76.78 61.51,78.02 C62.11,78.69 63.60,78.75 64.05,78.12 C64.56,77.38 65.31,74.78 65.21,72.34 C65.14,70.67 64.33,68.87 63.79,68.52 C63.50,68.35 63.05,68.40 62.28,68.62 C60.61,70.70 59.92,76.11 60.69,77.42 C61.06,78.00 62.42,78.11 63.16,77.48 C64.50,76.27 65.32,70.97 64.56,70.14 C64.46,70.03 64.19,69.82 63.74,69.51 C62.59,69.80 61.54,71.22 61.15,72.84 C60.86,74.07 60.93,75.80 61.37,76.48 C62.45,76.22 62.83,76.04 62.95,75.64 C63.30,74.41 63.41,72.80 62.89,72.30 C61.84,72.68 61.33,73.12 61.17,73.92 C60.89,75.36 61.05,76.09 61.24,76.39 C63.72,75.48 62.90,72.48 62.64,72.18 C60.44,73.13 60.93,76.50 61.09,76.92 C62.00,76.74 62.39,74.38 62.00,72.60 C61.57,70.77 59.52,69.26 58.38,69.21 C57.06,69.92 56.80,73.70 57.59,75.17 C57.88,75.70 58.75,76.52 59.82,76.77 C60.61,76.30 61.03,74.69 60.92,73.72 C60.78,72.49 59.71,70.80 59.03,70.59 C57.35,70.15 56.92,75.39 57.55,75.97 C58.48,75.25 59.00,71.73 58.86,70.31 C58.71,68.95 58.04,67.79 57.17,67.39 C56.11,67.58 55.33,68.34 55.03,68.99 C54.07,71.05 54.19,75.87 55.08,77.49 C55.50,78.23 56.73,79.19 57.39,79.31 C58.03,79.41 59.09,78.72 59.59,77.92 C60.78,75.90 60.31,70.54 58.99,69.04 C58.49,68.49 57.26,67.87 56.79,67.86 C55.11,67.87 53.23,71.35 53.27,73.41 C53.35,76.20 55.79,79.74 57.00,79.89 C58.16,80.01 59.13,79.07 59.31,78.54 C60.21,75.68 59.27,70.84 57.98,69.54 C57.57,69.13 56.16,68.62 55.20,68.73 C54.18,68.87 52.60,70.20 52.42,71.39 C52.08,73.96 55.58,79.50 57.10,80.15 C57.88,80.44 59.44,79.84 59.48,78.49 C59.51,76.18 57.46,72.22 56.24,71.39 C55.76,71.07 54.32,70.69 53.40,70.86 C52.38,71.06 51.62,72.20 51.79,73.81 C51.93,74.79 53.60,78.24 54.98,79.86 C56.16,81.20 59.33,81.82 60.10,80.91 C60.82,80.03 60.95,77.11 60.21,75.72 C59.42,74.25 56.73,72.48 55.12,72.73 C54.05,72.94 53.20,74.37 53.33,75.67 C53.60,77.96 56.58,81.36 58.04,81.75 C58.72,81.91 60.17,81.90 60.60,81.71 C61.61,81.22 62.73,79.37 62.83,78.39 C62.93,77.37 62.34,76.09 61.89,75.60 C61.26,74.94 58.97,73.51 57.74,73.23 C56.29,72.92 54.46,73.24 53.86,74.00 C52.88,75.28 54.94,79.73 56.37,81.03 C57.84,82.32 61.30,82.74 62.61,81.99 C63.22,81.63 64.20,80.54 64.44,80.04 C65.02,78.79 64.68,77.18 63.50,76.65 C61.31,75.74 55.28,75.88 54.37,76.52 C53.86,77.66 58.34,82.71 60.48,83.26 C61.54,83.53 63.19,83.26 63.87,82.67 C64.61,82.02 65.18,79.83 64.73,79.11 C63.66,77.53 57.21,77.20 56.56,78.15 C56.28,78.60 56.19,79.83 56.53,80.31 C57.04,80.98 58.80,81.89 59.61,82.07 C61.80,82.47 63.56,80.36 63.63,79.45 C63.20,78.59 61.30,77.59 60.10,77.24 C57.52,76.55 55.18,77.87 54.90,78.45 C54.93,79.05 56.38,80.73 57.51,81.46 C58.68,82.20 60.79,82.44 61.41,82.05 C61.71,81.51 61.30,80.36 60.54,79.87 C58.91,78.86 55.94,78.76 55.60,79.06 C55.55,79.60 56.55,81.47 57.42,82.35 C58.52,83.44 61.02,84.15 61.82,83.96 C63.48,83.51 65.75,80.81 66.03,79.32 C66.19,78.39 65.05,77.24 64.06,77.52 C63.21,77.80 62.22,79.66 62.47,80.48 C62.81,81.43 64.83,82.47 66.09,82.30 C67.24,82.10 69.71,78.50 69.27,77.26 C68.63,76.81 67.08,76.99 66.36,77.66 C65.56,78.41 65.38,79.89 65.88,80.29 C66.64,80.83 68.45,80.63 69.27,79.53 C69.96,78.57 70.50,76.41 70.31,75.87 C70.12,75.36 68.93,75.06 68.53,75.42 C68.12,75.83 67.99,77.41 68.33,77.83 C68.72,78.28 70.28,78.25 70.71,77.52 C73.39,72.77 69.54,71.37 69.25,71.33 C68.21,71.91 68.75,75.80 69.52,76.82 C70.49,76.82 70.98,76.61 71.13,75.95 C71.39,74.77 71.15,72.13 70.54,70.80 C70.28,70.25 69.30,69.24 68.67,69.27 C67.67,70.25 68.14,75.03 69.42,75.29 C70.69,74.51 69.13,69.39 68.29,69.08 C68.22,69.05 68.10,69.04 67.91,69.04 C66.70,69.96 68.01,73.07 68.69,73.39 C69.64,72.71 69.83,70.22 69.65,69.47 C69.27,67.98 66.78,66.11 65.75,65.82 C66.65,65.57 69.75,67.21 70.67,69.55 C71.43,71.55 71.00,73.07 70.86,73.26 C70.11,72.89 67.46,67.82 67.19,67.37 C65.56,64.68 61.96,64.59 61.60,64.83 C62.32,66.02 66.29,66.05 66.83,65.80 C66.88,64.58 62.48,63.34 61.28,64.34 C60.76,64.79 60.68,65.19 60.71,65.40 C61.71,66.34 65.32,65.94 65.58,65.02 C65.31,63.84 60.18,63.38 58.50,64.15 C56.49,65.10 56.55,66.18 56.64,66.39 C57.81,66.96 60.34,65.53 60.43,64.40 C58.35,61.86 53.69,66.33 53.78,67.16 C54.18,67.64 55.81,67.80 56.53,67.18 C57.20,66.58 58.10,64.43 58.08,63.89 C57.08,63.62 55.26,64.72 54.33,65.95 C53.58,66.97 52.91,68.81 52.93,68.98 C53.53,69.93 56.07,68.06 57.17,65.76 C56.39,65.33 56.03,65.26 55.71,65.59 C54.92,66.42 54.71,66.79 54.63,66.99 C54.63,66.99 57.08,64.93 57.08,64.93 C57.08,64.93 55.54,66.12 55.54,66.12 C55.54,66.12 58.29,64.70 58.29,64.70 C58.29,64.70 56.22,65.82 56.22,65.82 C56.21,65.83 58.76,64.53 59.99,64.30 C62.61,63.85 63.60,64.70 63.91,65.31 C63.95,65.48 63.96,65.59 63.95,65.63 C63.94,65.67 63.89,65.70 63.79,65.73" fill="none" stroke="rgb(214, 142, 40)" stroke-width="2.00" stroke-opacity="1.00" stroke-linejoin="round"/>
<path d="M60.52,69.34 C60.52,69.34 59.27,68.45 59.27,68.45 C61.84,71.85 63.31,73.07 64.05,73.41 C64.80,73.75 66.37,73.91 67.02,73.37 C67.42,72.31 66.55,70.72 65.05,69.44 C63.63,68.23 62.68,67.62 61.81,67.33 C61.53,67.80 62.40,69.81 63.53,70.91 C65.09,72.37 66.57,71.74 66.81,71.48 C66.81,71.48 63.46,67.31 63.46,67.31 C63.31,67.58 63.25,68.20 63.38,68.81 C63.47,69.22 63.72,69.79 63.82,69.91" fill="none" stroke="rgb(228, 180, 112)" stroke-width="2.00" stroke-opacity="1.00" stroke-linejoin="round"/>
<path d="M61.66,63.32 C61.63,63.32 61.61,63.32 61.58,63.32 C61.53,63.32 61.48,63.32 61.43,63.32 C61.43,63.32 61.51,63.24 61.51,63.24 C62.88,63.02 68.42,65.06 69.71,67.22 C70.46,68.52 71.46,70.25 71.55,70.36 C71.55,70.36 71.32,70.14 71.32,70.14" fill="none" stroke="rgb(238, 202, 152)" stroke-width="2.00" stroke-opacity="1.00" stroke-linejoin="round"/>
<path d="M62.48,65.70 C62.48,65.70 62.49,65.70 62.49,65.70 C63.13,65.73 63.78,65.83 64.29,66.05 C66.83,67.13 69.02,70.96 69.25,71.78 C69.25,71.78 62.91,66.27 62.91,66.27 C62.91,66.27 65.86,70.25 65.86,70.25 C65.86,70.25 68.97,71.61 68.97,71.61 C68.97,71.61 68.54,71.50 68.54,71.50" fill="none" stroke="rgb(238, 202, 152)" stroke-width="2.00" stroke-opacity="1.00" stroke-linejoin="round"/>
<path d="M57.82,83.96 C55.98,83.13 52.84,80.30 51.91,78.37 C51.04,76.56 50.68,72.49 51.02,70.93 C51.61,68.30 54.14,64.92 55.95,63.79 C57.88,62.60 61.87,62.09 64.36,62.79 C67.07,63.58 70.57,66.41 71.56,68.79 C72.46,71.03 72.45,75.15 71.65,77.80 C71.18,79.32 69.67,81.40 68.78,82.02 C65.07,84.49 59.64,84.35 59.30,84.29 C59.18,84.27 58.94,84.23 58.59,84.17" fill="none" stroke="rgb(0, 0, 0)" stroke-width="0.78" stroke-opacity="1.00" stroke-linejoin="round"/>
<path d="M60.63,82.99 C58.11,82.47 54.26,80.02 53.40,78.38 C52.63,76.87 52.08,72.06 52.55,70.19 C53.05,68.30 55.95,65.00 57.88,64.28 C59.88,63.57 65.11,64.25 66.76,65.29 C68.58,66.46 70.78,70.78 70.89,73.19 C70.97,75.44 69.73,78.77 68.20,80.27 C67.08,81.35 64.00,82.71 63.39,82.79 C63.15,82.83 62.55,82.88 61.60,82.97" fill="none" stroke="rgb(0, 0, 0)" stroke-width="0.52" stroke-opacity="1.00" stroke-linejoin="round"/>
<path d="M64.77,68.66 C64.66,68.67 64.31,68.52 64.27,68.50 C63.46,68.12 60.14,67.76 57.87,68.94 C56.33,69.75 55.00,71.94 55.53,72.59 C55.91,73.01 63.30,73.75 64.29,74.10 C65.66,74.63 66.49,75.63 66.42,76.26 C66.34,76.78 65.07,77.87 63.87,78.14 C61.80,78.58 56.99,77.77 56.81,77.69 C56.73,77.57 56.52,77.51 56.35,77.48 C56.34,77.48 56.33,77.48 56.34,77.48" fill="none" stroke="rgb(0, 0, 0)" stroke-width="1.04" stroke-opacity="1.00" stroke-linejoin="round"/>
<path d="M59.12,66.91 C59.12,66.91 59.12,66.72 59.12,66.72 C59.12,66.72 59.97,80.39 59.97,80.39" fill="none" stroke="rgb(0, 0, 0)" stroke-width="1.04" stroke-opacity="1.00" stroke-linejoin="round"/>
<path d="M63.08,67.04 C63.08,67.04 63.01,66.97 63.01,66.97 C63.01,66.97 63.73,80.00 63.73,80.00 C63.73,80.00 63.73,79.90 63.73,79.90" fill="none" stroke="rgb(0, 0, 0)" stroke-width="1.04" stroke-opacity="1.00" stroke-linejoin="round"/>
<path d="M64.70,68.79 C64.70,68.79 66.06,69.50 66.06,69.50 C66.06,69.50 66.54,69.91 66.54,69.91" fill="none" stroke="rgb(0, 0, 0)" stroke-width="1.04" stroke-opacity="1.00" stroke-linejoin="round"/>
<path d="M50.52,66.41 C50.77,66.14 50.97,65.87 51.13,65.59 C52.22,63.67 52.82,61.59 52.72,60.97 C51.89,60.85 51.28,61.10 50.56,62.05 C49.12,63.97 46.92,68.39 46.50,69.73 C46.29,70.48 46.25,71.74 46.89,72.55 C48.14,72.75 49.48,72.22 50.18,71.61 C51.78,70.19 53.90,65.68 53.80,63.85 C52.58,63.59 52.07,63.59 51.72,63.94 C49.83,65.86 47.22,71.05 47.30,72.60 C48.31,72.76 48.63,72.77 48.88,72.48 C51.92,68.90 52.27,65.48 52.23,65.20 C51.23,65.19 50.56,65.53 49.86,66.56 C48.72,68.23 47.91,70.28 47.98,70.99 C49.59,71.29 51.16,67.48 51.19,67.13 C51.19,67.13 48.63,71.28 48.63,71.28 C49.57,71.51 51.62,68.90 52.23,67.17 C52.70,65.78 52.76,63.92 52.40,62.94 C51.55,62.57 50.24,63.06 49.79,63.49 C45.63,67.55 45.07,74.33 45.50,75.23 C46.33,75.38 47.30,74.64 47.89,73.90 C48.72,72.79 50.82,68.31 51.20,65.99 C51.36,64.91 51.05,64.28 50.52,63.62 C49.27,63.37 47.87,64.00 47.22,64.57 C44.59,66.95 42.90,71.63 43.15,72.88 C43.32,73.59 44.61,74.80 45.69,74.53 C46.89,74.19 50.13,67.69 49.77,65.92 C49.73,65.76 49.62,65.54 49.42,65.25 C48.53,64.99 46.72,66.30 45.39,68.09 C44.28,69.62 42.86,72.76 42.78,73.44 C42.65,74.85 43.37,75.41 43.97,75.63 C45.67,75.28 48.52,70.78 49.05,68.55 C49.28,67.47 49.18,66.91 48.95,66.20 C48.15,65.74 46.99,66.06 46.43,66.47 C44.66,67.78 42.22,73.24 42.57,74.63 C42.78,75.38 44.43,75.84 45.35,75.05 C47.72,72.92 48.39,68.69 47.97,68.06 C47.13,67.83 45.33,68.57 44.22,69.61 C43.20,70.59 42.36,72.67 42.34,73.93 C42.35,75.19 42.91,76.30 43.53,76.47 C44.37,76.62 45.88,75.18 46.60,73.23 C47.03,72.02 47.35,70.02 47.11,69.36 C46.82,68.60 45.23,67.79 44.69,68.11 C43.35,68.99 42.33,75.55 43.06,76.03 C43.98,76.55 46.46,73.05 46.60,70.92 C46.64,69.76 45.84,68.59 45.22,68.36 C44.12,68.01 42.20,72.28 42.23,74.40 C42.25,75.14 43.21,75.73 43.82,75.39 C44.48,74.97 45.65,72.36 45.81,71.11 C45.93,70.00 45.30,69.12 44.69,69.04 C44.14,69.00 43.16,69.97 42.80,72.00 C42.49,73.71 42.65,75.45 42.97,75.73 C44.05,75.40 44.83,73.03 45.05,71.52 C45.24,70.12 45.01,68.85 44.58,68.64 C43.78,68.33 41.57,73.16 41.87,74.17 C42.10,74.86 43.43,75.62 44.16,75.56 C45.47,75.38 48.10,69.81 47.80,69.04 C46.84,68.39 43.69,72.18 43.33,73.74 C43.14,74.57 43.69,76.06 44.59,76.30 C45.81,76.57 50.28,73.08 50.67,70.92 C50.69,70.80 50.69,70.59 50.66,70.29 C50.20,69.74 48.33,69.53 47.19,70.01 C45.90,70.57 43.83,72.50 43.22,73.40 C42.72,74.19 42.24,75.78 42.53,76.41 C42.81,76.96 44.03,77.54 45.26,77.41 C46.98,77.19 50.09,73.25 49.99,72.26 C49.10,71.15 44.85,72.19 43.42,73.98 C43.11,74.41 43.34,75.55 43.84,76.28 C44.44,77.13 45.99,77.36 46.67,77.00 C48.20,76.11 53.30,68.60 53.08,67.34 C53.07,67.28 53.01,67.14 52.91,66.94 C51.67,66.77 48.11,70.62 48.38,71.73 C49.00,72.22 50.61,72.04 51.36,71.53 C53.28,70.13 55.33,66.30 55.30,65.54 C54.74,65.18 53.30,65.85 51.92,67.49 C49.06,70.97 49.22,73.10 49.41,73.62 C50.08,74.17 51.78,73.97 52.83,73.02 C54.80,71.19 55.70,68.35 55.60,67.62 C55.60,67.62 54.50,67.05 54.50,67.05 C54.50,67.05 49.50,74.91 49.50,74.91 C50.03,75.32 51.34,74.96 52.36,73.45 C55.12,69.30 55.78,66.29 55.16,65.23 C53.96,63.24 52.93,63.12 51.91,63.11 C51.91,63.11 56.36,62.73 56.36,62.73 C56.69,63.73 56.31,65.68 55.92,66.43 C55.23,67.69 53.69,68.72 52.93,68.51 C51.57,67.25 52.27,61.74 53.40,60.59 C53.93,60.08 55.36,60.36 55.81,61.16 C56.45,62.38 56.68,64.87 56.40,65.91 C56.10,66.84 55.07,67.99 54.18,68.00 C53.39,67.97 52.21,66.64 51.83,65.39 C51.51,64.28 51.63,62.74 52.17,61.98 C52.75,61.18 54.25,60.15 54.82,59.99 C56.05,59.68 57.22,60.66 57.40,61.98 C57.53,63.18 57.22,64.91 56.66,65.59 C56.12,66.22 55.02,66.58 54.44,66.39 C53.29,65.61 54.52,60.74 55.62,60.35 C56.13,60.18 56.70,60.87 56.75,61.73 C56.84,64.24 54.22,65.50 53.78,65.23 C53.57,65.10 51.42,62.10 50.67,61.92 C49.19,61.68 48.05,64.59 48.02,64.91 C48.02,64.91 50.52,61.66 50.52,61.66 C50.52,61.66 47.91,64.14 47.91,64.14 C48.02,64.14 48.22,64.14 48.31,64.14 C48.33,64.14 48.34,64.14 48.36,64.14" fill="none" stroke="rgb(214, 142, 40)" stroke-width="2.00" stroke-opacity="1.00" stroke-linejoin="round"/>
<path d="M49.84,62.09 C49.84,62.09 49.75,62.09 49.75,62.09 C50.00,60.98 53.61,59.37 55.31,59.93 C55.42,60.07 55.52,60.21 55.62,60.35 C55.66,60.41 55.70,60.46 55.75,60.52" fill="none" stroke="rgb(238, 202, 152)" stroke-width="2.00" stroke-opacity="1.00" stroke-linejoin="round"/>
<path d="M45.74,78.10 C44.57,78.23 42.42,77.67 41.75,76.79 C41.06,75.85 40.91,72.71 41.39,71.13 C42.31,68.16 45.91,63.33 48.30,61.48 C50.83,59.57 54.90,58.62 56.60,59.47 C58.18,60.29 58.98,63.02 58.45,65.08 C58.00,66.77 56.53,69.57 55.21,71.46 C53.16,74.36 47.67,77.53 46.66,77.84 C46.59,77.87 46.44,77.91 46.22,77.98" fill="none" stroke="rgb(0, 0, 0)" stroke-width="0.78" stroke-opacity="1.00" stroke-linejoin="round"/>
<path d="M47.72,76.83 C46.14,77.26 43.61,77.04 43.07,76.30 C42.53,75.54 42.45,71.88 43.16,69.96 C43.98,67.80 47.92,63.17 50.17,61.97 C52.39,60.81 56.42,61.23 57.10,62.25 C57.74,63.28 57.18,66.82 56.33,68.61 C55.00,71.39 50.98,75.21 49.44,76.01 C49.29,76.09 48.92,76.27 48.33,76.56" fill="none" stroke="rgb(0, 0, 0)" stroke-width="0.52" stroke-opacity="1.00" stroke-linejoin="round"/>
<path d="M54.25,65.91 C54.17,65.94 53.99,65.85 53.97,65.84 C53.52,65.59 51.03,65.77 48.68,67.41 C47.06,68.56 45.36,70.95 45.73,71.38 C46.00,71.63 51.53,70.45 52.10,70.50 C52.82,70.59 53.02,71.11 52.80,71.54 C51.71,73.50 46.07,74.82 45.94,74.82 C45.90,74.76 45.74,74.78 45.60,74.82 C45.60,74.82 45.59,74.82 45.60,74.82" fill="none" stroke="rgb(0, 0, 0)" stroke-width="1.04" stroke-opacity="1.00" stroke-linejoin="round"/>
<path d="M50.43,65.02 C50.43,65.02 50.49,64.80 50.49,64.80 C50.49,64.80 47.75,75.59 47.75,75.59" fill="none" stroke="rgb(0, 0, 0)" stroke-width="1.04" stroke-opacity="1.00" stroke-linejoin="round"/>
<path d="M53.65,64.56 C53.65,64.56 53.63,64.50 53.63,64.50 C53.63,64.50 50.23,74.42 50.23,74.42 C50.23,74.42 50.25,74.37 50.25,74.37" fill="none" stroke="rgb(0, 0, 0)" stroke-width="1.04" stroke-opacity="1.00" stroke-linejoin="round"/>
<path d="M54.16,66.04 C54.16,66.04 54.81,66.47 54.81,66.47 C54.81,66.47 54.97,66.75 54.97,66.75" fill="none" stroke="rgb(0, 0, 0)" stroke-width="1.04" stroke-opacity="1.00" stroke-linejoin="round"/>
<path d="M45.65,64.93 C45.66,64.96 45.68,64.91 45.71,64.79 C46.08,63.33 45.84,61.56 45.24,60.82 C44.71,60.20 42.81,59.69 42.29,59.82 C40.98,60.20 38.35,64.55 38.14,67.34 C38.07,68.57 38.85,71.12 39.54,72.05 C40.14,72.80 41.67,73.68 42.41,73.69 C43.95,73.67 46.63,69.68 47.07,67.25 C47.45,65.01 46.09,61.00 44.91,60.50 C43.67,60.03 40.68,62.24 39.54,64.41 C38.55,66.34 38.35,71.27 39.29,72.89 C39.91,73.91 41.16,74.85 41.98,74.86 C43.39,74.83 45.53,71.15 46.04,67.93 C46.26,66.46 46.11,63.98 45.77,62.78 C45.48,61.81 44.52,60.29 43.47,60.16 C43.06,60.12 42.01,61.18 41.61,62.09 C40.58,64.62 41.61,69.02 42.58,69.35 C43.75,67.75 42.72,62.98 42.45,62.76 C42.45,62.76 42.29,69.48 42.29,69.48 C42.29,69.48 43.21,63.01 43.21,63.01 C42.05,63.86 42.48,70.86 43.08,72.29 C44.23,72.18 44.65,72.01 44.82,71.44 C46.96,64.21 44.48,62.61 43.66,62.32 C42.99,62.52 41.97,63.64 41.63,64.41 C40.95,66.02 40.70,69.57 41.05,70.90 C41.40,72.06 41.85,72.57 42.52,73.14 C43.56,72.84 43.96,72.61 44.14,72.09 C46.96,64.75 43.88,61.89 43.24,61.48 C42.31,61.84 41.45,63.33 41.00,65.00 C40.03,68.76 41.08,72.98 41.84,73.44 C43.22,72.73 43.45,63.22 42.63,61.82 C42.46,61.54 42.11,61.41 41.46,61.32 C39.80,61.90 38.83,68.50 39.51,70.83 C40.18,73.01 41.43,73.24 42.21,73.19 C42.68,72.72 43.34,70.91 43.46,69.59 C43.69,66.56 42.76,61.41 41.97,60.04 C41.56,59.37 40.47,59.07 39.82,59.45 C38.41,60.35 36.48,65.77 36.75,68.88 C37.04,71.91 39.34,75.33 40.41,75.21 C41.33,75.07 42.28,73.43 42.51,72.62 C43.03,70.62 43.06,66.12 42.47,64.28 C42.16,63.35 41.26,62.22 40.65,62.00 C39.43,61.58 36.42,63.18 35.70,64.57 C34.89,66.21 35.32,71.56 36.58,73.84 C37.12,74.76 38.38,75.81 39.04,76.01 C39.69,76.18 40.68,75.90 41.13,75.28 C42.11,73.84 42.78,66.17 41.45,63.37 C41.21,62.90 40.92,62.62 40.23,62.12 C38.72,62.27 36.78,65.36 36.68,67.39 C36.60,69.54 38.15,74.42 39.36,76.15 C39.98,77.00 40.93,77.34 41.50,77.33 C42.96,76.16 44.40,70.25 43.94,68.33 C43.62,67.10 40.92,64.79 39.51,65.06 C37.99,65.37 36.53,68.77 36.59,70.76 C36.68,72.87 38.48,76.66 39.77,77.47 C41.05,78.24 43.21,77.49 43.90,75.86 C44.56,74.24 44.50,70.86 43.73,69.60 C43.10,68.60 39.48,67.17 37.92,68.24 C36.98,68.94 36.19,71.86 36.49,73.38 C36.85,75.14 39.29,77.62 41.43,78.01 C41.99,78.11 43.09,77.76 43.65,77.31 C44.28,76.76 45.15,74.73 45.21,73.08 C45.26,71.58 44.41,68.99 43.87,68.14 C43.36,67.39 41.69,66.48 40.90,66.85 C39.93,67.36 39.32,69.87 39.63,71.75 C40.08,74.36 42.60,77.34 43.88,77.21 C45.09,77.04 47.48,72.73 47.28,69.79 C47.18,68.34 46.48,65.66 46.03,65.22 C45.37,64.63 43.70,65.60 43.14,66.48 C41.82,68.68 41.51,75.91 42.85,77.53 C43.35,78.08 44.87,78.50 45.83,77.82 C46.88,77.04 48.85,70.89 48.65,68.73 C48.56,67.89 47.97,66.35 47.27,65.85 C46.55,65.37 44.85,66.03 44.20,67.08 C42.33,70.23 43.01,74.58 43.81,75.69 C44.23,76.26 45.28,77.11 45.96,77.38 C46.59,77.60 47.78,76.59 48.22,75.45 C48.92,73.53 49.09,68.93 48.45,67.27 C48.13,66.48 47.16,65.48 46.49,65.43 C45.15,65.38 45.32,70.44 46.46,71.23 C46.58,71.31 46.79,71.38 47.10,71.44 C47.80,71.05 48.51,68.51 48.45,66.42 C48.27,62.13 46.84,60.99 46.53,60.91 C46.08,61.29 45.76,64.11 46.10,65.82 C46.27,66.60 47.09,67.87 47.75,68.17 C48.32,67.43 47.93,65.73 46.35,61.93 C44.99,58.66 45.02,58.35 45.02,58.08 C45.86,57.90 47.25,59.35 48.19,60.86 C49.13,62.41 49.80,64.34 49.67,65.92 C49.60,66.72 48.72,68.48 48.02,69.00 C47.44,69.41 46.52,68.97 46.13,68.09 C45.74,67.16 44.83,63.91 44.75,62.97 C44.69,62.20 45.61,61.55 46.23,61.70 C47.70,62.12 48.05,64.45 47.88,64.91 C47.48,65.14 46.46,64.76 45.78,63.84 C45.10,62.89 43.77,60.08 43.13,59.15 C43.08,59.08 41.38,58.69 41.17,58.44 C41.17,58.44 44.89,58.52 44.89,58.52 C44.89,58.52 45.16,60.02 45.16,60.02 C45.16,60.02 43.25,58.26 43.25,58.26 C43.25,58.26 46.16,59.51 46.16,59.51 C46.18,60.03 46.19,60.35 46.19,60.53 C46.19,60.56 46.19,60.61 46.20,60.68" fill="none" stroke="rgb(214, 142, 40)" stroke-width="2.00" stroke-opacity="1.00" stroke-linejoin="round"/>
<path d="M45.68,58.15 C45.68,58.15 45.58,58.28 45.58,58.28 C46.51,58.09 49.57,62.59 50.11,65.72 C50.23,66.46 50.04,66.84 49.95,66.95 C49.95,66.95 49.83,66.97 49.83,66.97" fill="none" stroke="rgb(238, 202, 152)" stroke-width="2.00" stroke-opacity="1.00" stroke-linejoin="round"/>
<path d="M45.77,61.27 C45.77,61.27 45.50,60.76 45.50,60.76 C44.58,62.93 44.67,63.41 45.49,64.14 C45.81,64.42 46.66,65.08 46.76,65.20 C46.76,65.20 45.49,61.57 45.49,61.57 C45.49,61.57 47.37,67.15 47.37,67.15 C47.37,67.15 46.06,62.44 46.06,62.44 C46.06,62.44 46.06,62.35 46.06,62.35" fill="none" stroke="rgb(238, 202, 152)" stroke-width="2.00" stroke-opacity="1.00" stroke-linejoin="round"/>
<path d="M38.15,77.91 C36.91,76.77 35.01,73.42 34.61,71.35 C34.24,69.41 34.60,65.33 35.10,63.85 C35.95,61.35 38.36,58.45 39.89,57.65 C41.51,56.82 44.57,57.01 46.32,58.14 C48.22,59.39 50.39,62.80 50.76,65.33 C51.08,67.69 50.43,71.77 49.43,74.25 C48.33,76.89 44.95,78.87 43.17,78.97 C41.13,79.07 39.45,78.62 39.20,78.49 C39.12,78.45 38.95,78.37 38.69,78.25" fill="none" stroke="rgb(0, 0, 0)" stroke-width="0.78" stroke-opacity="1.00" stroke-linejoin="round"/>
<path d="M40.40,77.44 C38.60,76.49 36.11,73.39 35.72,71.63 C35.38,70.00 35.72,65.15 36.36,63.39 C37.02,61.60 39.70,58.85 41.25,58.48 C42.85,58.13 46.65,59.72 47.72,61.03 C48.90,62.51 49.87,67.16 49.58,69.56 C49.29,71.79 47.85,74.87 46.47,76.08 C45.47,76.95 42.96,77.75 42.49,77.73 C42.30,77.72 41.85,77.67 41.13,77.59" fill="none" stroke="rgb(0, 0, 0)" stroke-width="0.52" stroke-opacity="1.00" stroke-linejoin="round"/>
<path d="M45.71,64.01 C45.63,64.00 45.39,63.79 45.37,63.76 C44.82,63.24 42.40,62.31 40.52,63.08 C39.25,63.61 37.91,65.54 38.20,66.28 C38.42,66.76 43.82,68.78 44.51,69.30 C45.45,70.06 45.91,71.19 45.77,71.81 C45.62,72.31 44.51,73.16 43.57,73.22 C41.95,73.29 38.49,71.65 38.37,71.54 C38.33,71.41 38.18,71.31 38.06,71.25 C38.06,71.25 38.05,71.25 38.05,71.25" fill="none" stroke="rgb(0, 0, 0)" stroke-width="1.04" stroke-opacity="1.00" stroke-linejoin="round"/>
<path d="M41.77,61.29 C41.77,61.29 41.80,61.10 41.80,61.10 C41.80,61.10 40.31,74.75 40.31,74.75" fill="none" stroke="rgb(0, 0, 0)" stroke-width="1.04" stroke-opacity="1.00" stroke-linejoin="round"/>
<path d="M44.70,62.11 C44.70,62.11 44.66,62.04 44.66,62.04 C44.66,62.04 43.18,75.03 43.18,75.03 C43.18,75.03 43.19,74.93 43.19,74.93" fill="none" stroke="rgb(0, 0, 0)" stroke-width="1.04" stroke-opacity="1.00" stroke-linejoin="round"/>
<path d="M45.64,64.13 C45.64,64.13 46.54,65.06 46.54,65.06 C46.54,65.06 46.84,65.55 46.84,65.55" fill="none" stroke="rgb(0, 0, 0)" stroke-width="1.04" stroke-opacity="1.00" stroke-linejoin="round"/>
<path d="M64.08,53.86 C64.08,53.86 64.23,53.81 64.23,53.81 C64.25,53.32 63.75,52.75 63.19,52.52 C61.59,51.88 59.72,52.49 59.19,52.78 C58.56,54.33 60.26,60.17 61.83,63.20 C62.78,65.00 64.61,67.42 65.44,68.03 C66.33,68.64 67.81,69.04 68.62,68.39 C69.43,67.69 68.85,62.01 67.55,59.28 C66.60,57.31 64.44,54.74 63.81,54.39 C62.67,53.82 60.73,53.73 60.10,54.26 C59.43,54.86 59.13,57.01 59.33,58.11 C59.76,60.28 63.18,65.84 64.84,66.95 C65.65,67.47 67.24,67.77 67.89,67.59 C69.12,67.23 69.84,63.72 69.44,61.63 C69.20,60.53 67.05,56.81 65.92,55.70 C62.99,52.92 60.71,53.27 60.22,53.52 C59.58,54.49 59.53,57.26 60.06,59.01 C61.38,63.27 64.82,67.43 66.41,67.82 C67.98,68.17 70.00,66.16 70.20,64.02 C70.36,61.99 69.08,58.57 67.81,57.22 C66.39,55.73 64.08,54.14 63.38,53.96 C62.17,53.68 60.24,54.06 59.69,54.98 C59.04,56.13 58.91,58.85 59.57,60.60 C60.45,62.82 64.92,67.52 67.13,67.95 C68.13,68.13 69.63,67.90 70.20,67.46 C71.29,66.56 71.40,62.16 70.27,60.01 C68.71,57.08 64.74,54.66 63.42,54.51 C62.11,54.40 60.90,55.66 61.09,56.97 C61.44,59.14 65.99,65.66 68.05,66.74 C68.70,67.06 70.36,67.07 70.81,66.77 C71.69,66.13 71.66,61.72 70.45,59.19 C69.27,56.81 65.36,53.38 63.85,53.11 C63.19,53.00 62.24,53.54 62.02,54.13 C61.53,55.52 63.46,60.97 65.39,63.43 C67.16,65.64 68.99,66.07 69.86,66.19 C70.27,65.08 70.34,64.63 70.03,64.03 C67.81,59.76 64.29,55.67 63.57,55.64 C63.04,56.61 62.95,57.42 63.49,58.62 C65.46,62.95 67.75,64.70 68.36,64.51 C68.83,63.17 64.50,56.87 63.98,56.74 C63.98,56.74 67.15,63.92 67.15,63.92 C67.71,62.64 64.24,57.36 63.13,56.69 C62.44,57.59 63.73,61.62 64.31,63.09 C64.56,63.73 64.84,64.10 65.03,64.19 C65.71,62.42 62.55,54.52 60.71,53.31 C60.61,53.25 60.45,53.18 60.22,53.09 C59.14,54.52 61.44,60.86 62.70,61.80 C63.50,61.35 63.84,60.85 63.83,59.83 C63.79,56.01 61.17,52.87 60.23,52.54 C59.03,53.68 58.88,55.48 59.00,56.50 C59.52,60.27 62.80,63.61 63.62,63.64 C64.21,63.22 64.45,60.79 64.08,59.32 C63.67,57.78 62.09,55.58 61.07,54.96 C60.21,54.47 58.59,54.28 58.27,54.79 C57.88,55.47 58.04,58.29 58.78,59.89 C60.80,64.13 64.20,65.61 65.01,65.23 C65.65,63.94 64.31,58.02 61.93,55.34 C61.30,54.66 60.51,54.37 60.14,54.39 C59.43,54.89 59.12,56.93 59.34,58.20 C59.76,60.23 61.64,64.22 62.89,65.72 C64.13,67.16 67.06,67.77 67.89,67.05 C68.72,66.27 68.97,63.89 68.49,62.71 C67.89,61.31 66.03,59.81 65.09,59.51 C64.13,59.25 62.34,59.26 61.73,59.91 C61.22,60.49 61.55,62.20 62.02,62.94 C63.24,64.81 66.07,67.39 67.94,67.99 C69.05,68.32 69.80,68.15 70.59,67.82 C71.23,66.86 71.03,64.73 70.39,63.64 C69.64,62.42 67.36,60.67 66.46,60.36 C65.55,60.09 63.87,60.40 63.34,61.34 C62.37,63.28 65.32,67.43 66.79,68.12 C67.50,68.43 68.82,68.62 69.52,68.50 C70.32,68.34 71.27,67.02 71.30,65.70 C71.28,64.68 70.41,63.10 69.27,62.29 C68.18,61.54 65.87,61.04 65.41,61.12 C64.43,61.32 63.80,62.74 64.14,64.11 C64.47,65.38 67.31,68.43 68.62,68.84 C69.22,69.02 70.77,68.98 71.07,68.73 C71.77,68.11 72.11,66.42 72.05,65.49 C71.85,62.78 68.63,60.86 67.32,60.83 C66.52,60.83 64.91,61.50 64.40,62.29 C64.00,62.96 63.72,65.21 64.04,65.89 C65.14,68.02 70.82,68.80 71.52,68.09 C71.87,66.47 69.81,63.94 68.57,63.49 C67.80,63.24 66.26,63.60 65.90,64.43 C65.39,65.72 68.01,68.36 69.21,68.43 C70.44,68.47 71.41,67.18 71.54,66.25 C71.65,65.27 71.28,62.72 70.53,61.21 C69.78,59.73 67.75,57.11 66.31,56.12 C65.39,55.49 62.31,53.43 62.34,53.37 C62.46,53.25 63.70,52.94 65.17,53.33 C66.11,53.60 68.92,56.06 69.63,57.09 C70.27,58.02 70.55,60.11 70.22,60.95 C69.81,61.86 67.91,61.80 66.83,60.59 C64.82,58.30 62.57,53.15 63.17,51.97 C64.76,51.73 67.26,53.84 68.36,54.96 C69.90,56.56 71.41,58.90 71.64,60.34 C71.81,61.56 71.41,63.31 70.82,63.73 C70.12,64.20 68.39,63.12 67.00,61.29 C65.58,59.39 63.23,55.73 62.94,54.39 C62.77,53.49 63.44,52.11 64.46,52.05 C64.96,52.04 67.07,53.14 68.61,54.47 C70.46,56.10 72.64,59.13 73.30,61.23 C74.41,64.87 73.41,67.18 72.96,67.46 C69.61,67.05 69.47,57.97 69.65,57.46 C71.85,56.96 73.15,67.04 72.91,67.39 C72.19,67.60 70.79,66.68 70.06,65.34 C69.44,64.16 66.21,54.31 64.69,52.78 C63.59,51.72 61.27,51.52 61.20,52.50 C61.12,54.19 62.66,54.39 63.06,54.36 C63.54,53.99 63.71,52.70 63.32,52.18 C62.89,51.64 61.56,51.28 61.07,51.55 C60.70,51.79 59.97,54.41 59.97,55.49 C60.01,58.62 61.75,59.98 62.24,60.25 C63.19,59.84 63.57,59.45 63.53,58.73 C63.43,57.30 62.53,55.25 61.64,54.34 C60.86,53.58 59.63,53.33 59.14,53.83 C58.70,54.31 58.52,56.59 58.63,57.49 C58.79,58.52 60.29,61.68 61.43,62.69 C61.86,63.05 63.64,63.62 64.23,63.24 C64.82,62.82 64.97,61.04 64.48,59.51 C63.88,57.72 62.38,55.60 61.72,55.04 C61.08,54.54 59.88,54.19 59.38,54.64 C58.82,55.20 58.72,57.42 59.03,58.40 C59.51,59.75 61.38,62.64 63.02,63.69 C63.66,64.09 64.64,64.53 65.25,64.73 C65.41,64.79 65.57,64.84 65.73,64.89" fill="none" stroke="rgb(214, 142, 40)" stroke-width="2.00" stroke-opacity="1.00" stroke-linejoin="round"/>
<path d="M64.31,51.25 C64.31,51.25 63.78,51.23 63.78,51.23 C63.78,51.23 63.59,50.91 63.59,50.91 C64.03,50.98 66.30,52.03 66.98,52.50 C68.02,53.24 70.25,56.53 70.58,57.05 C70.73,57.28 70.90,57.49 71.09,57.67 C71.13,57.71 71.16,57.72 71.18,57.73" fill="none" stroke="rgb(238, 202, 152)" stroke-width="2.00" stroke-opacity="1.00" stroke-linejoin="round"/>
<path d="M63.51,54.32 C63.51,54.32 63.36,54.22 63.36,54.22 C63.36,54.22 63.44,54.13 63.44,54.13 C63.44,54.13 68.30,57.61 68.30,57.61 C68.17,58.06 67.09,57.96 66.66,57.59 C66.12,57.14 63.25,54.20 63.15,54.20 C63.15,54.20 65.80,58.07 65.80,58.07 C65.91,58.08 66.20,57.99 66.31,57.97 C66.38,57.97 66.50,57.97 66.69,57.99" fill="none" stroke="rgb(238, 202, 152)" stroke-width="2.00" stroke-opacity="1.00" stroke-linejoin="round"/>
<path d="M64.05,67.54 C61.28,65.67 57.32,60.46 56.53,57.70 C55.93,55.54 56.25,52.49 57.08,51.37 C58.09,50.06 61.36,49.52 64.03,50.56 C67.13,51.80 71.64,55.90 73.04,58.90 C74.20,61.47 74.36,65.25 73.68,67.10 C73.03,68.81 70.03,69.37 68.42,69.06 C66.70,68.73 65.24,68.16 65.02,68.05 C64.94,68.01 64.79,67.94 64.56,67.83" fill="none" stroke="rgb(0, 0, 0)" stroke-width="0.78" stroke-opacity="1.00" stroke-linejoin="round"/>
<path d="M65.64,67.63 C63.95,66.78 61.10,64.55 60.19,63.38 C59.34,62.27 57.56,58.73 57.21,57.28 C56.85,55.69 57.58,52.70 58.77,52.05 C60.14,51.33 65.23,52.55 67.19,54.01 C69.39,55.68 72.33,60.84 72.65,63.15 C72.89,65.09 71.99,67.26 70.82,67.86 C70.03,68.25 67.90,68.28 67.48,68.18 C67.32,68.14 66.92,68.03 66.28,67.85" fill="none" stroke="rgb(0, 0, 0)" stroke-width="0.52" stroke-opacity="1.00" stroke-linejoin="round"/>
<path d="M66.01,57.56 C65.91,57.55 65.64,57.38 65.52,57.31 C64.70,56.80 61.79,55.99 60.40,56.85 C59.56,57.38 59.36,59.05 59.90,59.65 C60.28,60.03 65.86,61.95 66.72,62.43 C67.96,63.14 68.82,64.12 68.86,64.59 C68.87,66.61 62.19,63.62 62.10,63.57 C62.02,63.47 61.87,63.39 61.75,63.33 C61.75,63.33 61.74,63.33 61.75,63.33" fill="none" stroke="rgb(0, 0, 0)" stroke-width="1.04" stroke-opacity="1.00" stroke-linejoin="round"/>
<path d="M60.70,55.01 C60.70,55.01 60.64,54.81 60.64,54.81 C60.64,54.81 64.74,65.94 64.74,65.94" fill="none" stroke="rgb(0, 0, 0)" stroke-width="1.04" stroke-opacity="1.00" stroke-linejoin="round"/>
<path d="M64.07,55.61 C64.07,55.61 63.99,55.53 63.99,55.53 C63.99,55.53 67.30,66.55 67.30,66.55 C67.30,66.55 67.29,66.49 67.29,66.49" fill="none" stroke="rgb(0, 0, 0)" stroke-width="1.04" stroke-opacity="1.00" stroke-linejoin="round"/>
<path d="M65.98,57.68 C65.98,57.68 67.39,58.62 67.39,58.62 C67.39,58.62 67.93,59.12 67.93,59.12" fill="none" stroke="rgb(0, 0, 0)" stroke-width="1.04" stroke-opacity="1.00" stroke-linejoin="round"/>
<path d="M37.08,52.17 C37.08,51.99 37.07,51.87 37.06,51.83 C36.92,51.19 34.02,52.14 32.74,53.70 C31.71,54.98 31.00,60.05 32.21,61.40 C33.22,62.46 36.58,61.58 38.28,60.09 C40.13,58.43 42.58,54.18 42.48,52.89 C42.35,51.59 39.97,49.95 37.12,49.96 C35.66,49.99 31.74,52.32 30.94,53.90 C30.19,55.46 31.10,59.99 32.79,61.19 C34.16,62.12 37.27,61.53 38.86,60.12 C40.72,58.47 42.97,54.11 42.90,52.54 C42.84,51.75 42.08,50.66 41.39,50.42 C40.67,50.19 39.12,50.47 38.03,51.11 C36.83,51.85 35.13,53.90 34.59,55.17 C34.11,56.34 33.85,58.57 34.06,59.36 C34.44,60.70 36.75,60.78 37.72,59.81 C38.89,58.60 40.52,54.51 40.41,52.88 C40.34,52.07 39.81,51.28 39.29,51.29 C37.86,51.37 35.59,54.95 35.34,57.27 C35.25,58.19 35.50,59.46 35.80,59.74 C36.64,60.42 38.98,57.52 39.60,54.83 C39.89,53.57 39.68,52.25 39.34,52.03 C39.15,51.93 38.78,52.03 38.11,52.34 C36.29,54.40 34.79,58.82 35.23,59.55 C35.73,60.27 38.34,57.79 39.09,55.94 C39.96,53.77 39.50,53.14 39.09,52.86 C37.47,53.57 35.49,58.01 35.94,58.70 C35.94,58.70 37.87,55.24 37.87,55.24 C35.68,56.48 35.74,58.50 35.85,58.67 C37.92,57.41 37.84,55.38 37.70,55.20 C35.72,56.41 35.58,58.83 35.64,59.08 C37.09,58.39 37.09,54.27 36.20,53.73 C35.77,53.48 35.18,53.42 34.50,53.52 C33.07,54.44 32.28,57.79 32.85,58.75 C33.05,59.07 33.72,59.44 34.61,59.32 C35.86,58.39 36.22,54.72 34.88,54.62 C33.33,54.59 32.17,59.12 32.70,59.38 C33.66,58.56 34.67,55.59 34.77,54.41 C34.86,53.23 34.41,52.26 33.58,52.01 C31.91,52.53 29.68,56.20 29.50,58.25 C29.34,60.36 30.83,62.17 32.14,61.88 C33.20,61.61 35.55,58.43 35.83,56.27 C36.05,54.32 34.29,52.36 33.11,52.54 C31.25,52.85 28.66,56.71 28.52,58.59 C28.38,60.92 30.59,62.73 31.71,62.42 C33.28,61.94 35.11,58.42 35.10,56.40 C35.08,55.69 34.51,54.29 34.06,53.90 C33.71,53.61 32.32,53.40 31.24,53.70 C30.04,54.06 27.98,55.77 27.66,56.98 C27.31,58.43 28.29,60.63 29.56,61.86 C30.41,62.64 33.67,62.37 34.08,60.64 C34.43,58.97 33.13,56.37 32.02,55.95 C31.56,55.79 30.00,55.80 28.91,56.20 C27.63,56.68 26.58,58.01 26.72,59.43 C26.82,60.24 28.48,62.43 29.79,63.12 C30.80,63.61 33.50,62.92 34.25,62.09 C34.95,61.29 35.49,59.26 35.10,58.45 C34.65,57.54 32.38,56.78 30.67,57.43 C29.46,57.93 28.35,59.45 28.40,60.49 C28.52,62.22 31.16,63.57 32.43,63.31 C33.72,63.02 36.19,61.24 36.75,59.64 C36.99,58.92 36.77,58.18 36.49,57.93 C35.34,56.99 30.48,57.40 29.14,58.91 C28.43,59.73 28.60,61.37 28.99,61.95 C29.75,63.04 32.19,63.75 33.61,63.30 C34.94,62.86 37.03,61.20 37.64,60.28 C38.25,59.34 38.30,58.36 37.54,58.29 C36.00,58.18 30.49,60.01 29.46,60.82 C28.82,61.89 32.56,63.82 34.24,63.45 C35.74,63.10 38.45,60.46 38.00,59.62 C37.50,58.85 32.23,60.41 31.50,61.32 C31.19,61.74 30.96,62.66 31.23,62.87 C33.58,64.54 36.97,60.72 37.16,60.12 C36.09,57.30 30.18,61.58 29.83,62.12 C29.78,63.08 33.84,63.46 35.12,62.40 C36.86,59.96 30.83,61.98 30.47,62.31 C30.22,63.30 33.38,64.49 35.16,63.44 C36.43,62.66 38.40,60.42 38.85,59.43 C39.58,57.73 35.98,59.83 36.15,61.10 C36.71,63.85 41.30,58.09 41.28,57.41 C40.60,57.06 37.90,59.77 38.58,60.07 C39.53,60.40 42.17,57.17 42.18,56.33 C42.15,55.43 40.20,57.39 40.59,57.97 C41.10,58.60 42.91,56.14 43.16,54.73 C43.33,53.55 42.69,53.41 42.52,53.43 C42.52,53.43 41.52,57.09 41.52,57.09 C42.70,56.70 43.67,52.98 43.25,52.25 C43.10,52.00 42.88,51.92 42.62,51.98 C42.62,51.98 41.77,56.12 41.77,56.12 C42.69,55.38 42.89,52.01 42.42,51.88 C42.38,51.87 42.30,51.88 42.18,51.90 C42.18,51.90 41.71,54.97 41.71,54.97 C44.72,52.40 42.11,49.65 41.44,49.49 C43.81,48.49 43.77,53.65 43.06,54.52 C43.06,54.52 41.82,49.84 41.82,49.84" fill="none" stroke="rgb(214, 142, 40)" stroke-width="2.00" stroke-opacity="1.00" stroke-linejoin="round"/>
<path d="M38.26,48.99 C38.31,49.39 41.12,50.10 42.20,49.48 C42.22,49.46 42.23,49.43 42.22,49.38" fill="none" stroke="rgb(214, 142, 40)" stroke-width="2.00" stroke-opacity="1.00" stroke-linejoin="round"/>
<path d="M37.46,49.31 C37.44,49.45 38.29,50.59 40.49,49.76" fill="none" stroke="rgb(214, 142, 40)" stroke-width="2.00" stroke-opacity="1.00" stroke-linejoin="round"/>
<path d="M34.50,49.15 C34.50,49.15 33.18,51.08 33.18,51.08 C33.18,51.08 37.37,48.62 37.37,48.62 C35.86,46.00 29.74,51.48 29.75,52.37 C30.18,52.80 32.05,52.65 32.93,51.91 C33.75,51.19 35.08,48.85 35.16,48.27 C34.14,48.05 31.87,49.47 30.58,50.96 C29.52,52.20 28.49,54.29 28.50,54.46 C29.15,55.26 32.30,52.86 33.86,50.36 C33.08,49.99 32.69,49.97 32.27,50.37 C31.25,51.35 30.93,51.81 30.81,52.03 C30.81,52.03 33.90,49.49 33.90,49.49 C33.90,49.49 31.99,50.96 31.99,50.96 C31.99,50.96 35.22,49.12 35.22,49.12 C35.22,49.12 32.81,50.54 32.81,50.54 C32.81,50.54 39.54,48.22 39.54,48.22" fill="none" stroke="rgb(214, 142, 40)" stroke-width="2.00" stroke-opacity="1.00" stroke-linejoin="round"/>
<path d="M39.97,49.59" fill="none" stroke="rgb(214, 142, 40)" stroke-width="2.00" stroke-opacity="1.00" stroke-linejoin="round"/>
<path d="M36.46,53.25 C36.46,53.25 35.49,52.67 35.49,52.67 C37.13,55.12 38.07,55.75 38.54,55.85 C39.03,55.95 40.09,55.76 40.64,55.25 C41.13,54.42 40.88,53.39 40.09,52.61 C39.27,51.80 38.65,51.42 37.98,51.27 C37.64,51.72 37.96,53.32 38.64,54.03 C39.51,54.87 40.68,54.15 40.90,53.92 C40.90,53.92 39.34,51.04 39.34,51.04 C39.00,51.51 38.94,52.66 39.00,53.00 C39.01,53.06 39.04,53.12 39.07,53.18" fill="none" stroke="rgb(214, 142, 40)" stroke-width="2.00" stroke-opacity="1.00" stroke-linejoin="round"/>
<path d="M43.92,51.22 C43.92,51.22 44.12,52.43 44.12,52.43 C44.12,52.43 44.04,52.29 44.04,52.29" fill="none" stroke="rgb(238, 202, 152)" stroke-width="2.00" stroke-opacity="1.00" stroke-linejoin="round"/>
<path d="M38.90,49.70 C38.90,49.70 38.91,49.70 38.91,49.70 C39.43,49.66 39.93,49.69 40.28,49.83 C41.89,50.50 42.46,53.20 42.42,53.75 C42.42,53.75 39.13,50.18 39.13,50.18 C39.13,50.18 40.51,53.13 40.51,53.13 C40.51,53.13 42.28,53.67 42.28,53.67 C42.28,53.67 42.03,53.66 42.03,53.66" fill="none" stroke="rgb(238, 202, 152)" stroke-width="2.00" stroke-opacity="1.00" stroke-linejoin="round"/>
<path d="M31.98,64.80 C30.44,64.96 27.53,64.26 26.60,63.20 C25.65,62.09 25.35,58.59 25.87,56.96 C26.82,54.06 29.95,50.41 31.23,49.44 C31.23,49.44 32.73,48.12 32.73,48.12" fill="none" stroke="rgb(0, 0, 0)" stroke-width="0.78" stroke-opacity="1.00" stroke-linejoin="round"/>
<path d="M44.48,50.52 C44.64,52.59 42.19,58.74 39.43,60.92 C36.38,63.30 33.30,64.44 33.17,64.47 C33.08,64.50 32.89,64.56 32.61,64.65" fill="none" stroke="rgb(0, 0, 0)" stroke-width="0.78" stroke-opacity="1.00" stroke-linejoin="round"/>
<path d="M34.39,63.24 C32.39,63.76 29.04,63.50 28.27,62.62 C27.52,61.73 27.19,57.72 27.92,55.78 C29.73,51.11 35.06,48.64 35.23,48.57 C35.23,48.57 36.38,48.13 36.38,48.13" fill="none" stroke="rgb(0, 0, 0)" stroke-width="0.52" stroke-opacity="1.00" stroke-linejoin="round"/>
<path d="M43.26,50.49 C43.58,51.38 43.25,54.33 42.57,55.92 C41.33,58.74 36.95,62.02 36.47,62.27 C36.29,62.36 35.84,62.57 35.14,62.91" fill="none" stroke="rgb(0, 0, 0)" stroke-width="0.52" stroke-opacity="1.00" stroke-linejoin="round"/>
<path d="M40.05,52.01 C39.97,52.04 39.74,51.96 39.72,51.95 C39.17,51.74 36.42,51.89 34.04,53.37 C32.34,54.43 30.62,56.76 31.11,57.20 C31.47,57.46 37.90,56.26 38.59,56.31 C39.47,56.40 39.83,56.92 39.67,57.36 C38.78,59.43 31.97,60.90 31.79,60.90 C31.73,60.84 31.54,60.86 31.37,60.90 C31.37,60.90 31.36,60.90 31.36,60.90" fill="none" stroke="rgb(0, 0, 0)" stroke-width="1.04" stroke-opacity="1.00" stroke-linejoin="round"/>
<path d="M35.63,51.24 C35.63,51.24 35.67,51.05 35.67,51.05 C35.67,51.05 34.22,61.78 34.22,61.78" fill="none" stroke="rgb(0, 0, 0)" stroke-width="1.04" stroke-opacity="1.00" stroke-linejoin="round"/>
<path d="M39.10,50.85 C39.10,50.85 39.06,50.80 39.06,50.80 C39.06,50.80 37.14,60.45 37.14,60.45 C37.14,60.45 37.16,60.38 37.16,60.38" fill="none" stroke="rgb(0, 0, 0)" stroke-width="1.04" stroke-opacity="1.00" stroke-linejoin="round"/>
<path d="M39.98,52.13 C39.98,52.13 40.81,52.51 40.81,52.51 C40.81,52.51 41.06,52.76 41.06,52.76" fill="none" stroke="rgb(0, 0, 0)" stroke-width="1.04" stroke-opacity="1.00" stroke-linejoin="round"/>
<path d="M45.08,50.62 C45.05,51.25 45.45,53.50 46.09,54.55 C46.74,55.59 48.62,56.90 49.77,57.22 C50.86,57.50 52.90,57.43 53.89,57.04 C54.93,56.62 56.93,55.28 57.58,54.31 C58.99,52.13 58.32,49.93 57.54,49.06" fill="none" stroke="rgb(214, 142, 40)" stroke-width="2.00" stroke-opacity="1.00" stroke-linejoin="round"/>
<path d="M44.24,51.02 C44.86,52.95 48.41,56.54 50.90,57.33 C51.89,57.63 53.87,57.75 54.69,57.45 C55.84,57.02 58.02,55.58 58.48,54.79 C59.69,52.62 59.03,50.20 58.86,49.84" fill="none" stroke="rgb(214, 142, 40)" stroke-width="2.00" stroke-opacity="1.00" stroke-linejoin="round"/>
<path d="M48.00,50.50 C47.68,52.45 49.42,55.63 51.15,56.21 C51.89,56.44 53.33,56.31 53.83,55.97 C55.15,55.01 55.64,51.86 55.38,50.71 C55.38,50.71 54.28,49.58 54.28,49.58" fill="none" stroke="rgb(214, 142, 40)" stroke-width="2.00" stroke-opacity="1.00" stroke-linejoin="round"/>
<path d="M49.50,50.35 C49.12,51.22 50.27,54.73 51.46,55.41 C52.06,55.72 53.40,55.35 53.88,54.69 C54.39,53.90 54.65,51.35 54.35,50.24" fill="none" stroke="rgb(214, 142, 40)" stroke-width="2.00" stroke-opacity="1.00" stroke-linejoin="round"/>
<path d="M49.86,50.73 C49.65,51.33 49.41,52.90 49.58,53.65 C49.74,54.22 50.49,55.07 51.45,55.13 C52.66,55.18 54.50,52.16 54.24,50.56 C54.08,49.71 53.64,49.38 52.96,49.04 C51.81,49.25 50.80,50.26 50.45,51.41 C50.19,52.28 50.31,53.50 50.77,53.99 C52.18,53.75 52.64,52.52 52.67,52.05 C52.70,51.58 52.50,51.23 52.18,51.02 C49.72,51.67 50.44,53.71 50.63,53.92 C53.09,53.28 52.19,51.15 51.93,50.94 C49.75,51.61 50.33,54.01 50.50,54.30 C52.28,54.06 50.99,50.38 50.16,49.70" fill="none" stroke="rgb(214, 142, 40)" stroke-width="2.00" stroke-opacity="1.00" stroke-linejoin="round"/>
<path d="M46.29,50.10 C45.81,52.12 47.97,53.99 49.22,54.19 C50.00,53.86 50.37,52.72 50.24,52.03 C50.07,51.15 48.96,49.96 48.27,49.81 C46.58,49.49 46.28,53.22 46.93,53.63 C46.93,53.63 48.14,50.20 48.14,50.20" fill="none" stroke="rgb(214, 142, 40)" stroke-width="2.00" stroke-opacity="1.00" stroke-linejoin="round"/>
<path d="M43.42,51.23 C43.40,52.80 44.81,55.37 46.20,55.85 C46.89,56.07 48.05,55.90 48.57,55.48 C49.66,54.54 49.98,50.70 49.09,49.62" fill="none" stroke="rgb(214, 142, 40)" stroke-width="2.00" stroke-opacity="1.00" stroke-linejoin="round"/>
<path d="M42.58,51.53 C42.53,52.90 44.30,55.65 45.87,56.26 C46.55,56.51 47.95,56.35 48.45,55.90 C49.47,54.83 48.93,50.83 47.78,49.55" fill="none" stroke="rgb(214, 142, 40)" stroke-width="2.00" stroke-opacity="1.00" stroke-linejoin="round"/>
<path d="M42.26,49.29 C41.82,49.66 41.50,51.38 42.10,52.54 C43.37,54.92 46.86,56.93 48.12,56.61 C49.67,56.16 47.92,52.20 46.72,51.17 C45.67,50.28 42.13,49.63 41.22,50.59 C40.39,51.54 43.81,56.32 45.85,57.18 C47.44,57.82 49.72,57.36 50.15,56.38 C50.54,55.44 49.79,53.43 48.66,52.52 C47.55,51.65 43.68,51.09 42.95,51.96 C42.02,53.16 44.81,56.69 46.19,57.31 C47.42,57.85 50.73,57.82 51.64,56.73 C52.20,56.04 52.34,54.62 52.05,54.17 C51.40,53.25 47.00,51.32 45.07,51.52 C43.78,51.69 42.64,52.75 42.88,53.82 C43.16,54.85 45.85,57.42 47.46,57.96 C49.04,58.47 52.20,58.08 53.22,57.27 C53.70,56.87 54.47,55.63 54.31,55.09 C53.35,52.40 44.37,53.71 43.76,54.02 C43.29,54.83 47.90,58.41 50.05,58.80 C51.12,58.99 52.76,58.81 53.43,58.39 C54.14,57.92 54.66,56.37 54.19,55.86 C53.08,54.74 46.62,54.50 46.00,55.17 C45.30,56.01 47.03,57.62 49.15,57.96 C51.35,58.24 53.06,56.74 53.10,56.10 C50.52,52.59 44.61,54.98 44.34,55.39 C44.45,56.35 49.49,58.61 50.95,57.94 C52.57,55.77 45.39,55.61 45.06,55.82 C44.97,56.76 49.19,59.67 51.40,59.30 C53.05,58.98 55.25,57.07 55.50,56.01 C55.64,55.35 54.46,54.53 53.48,54.73 C52.64,54.93 51.69,56.25 51.97,56.83 C52.81,58.40 56.78,57.98 57.68,57.03 C58.40,56.25 58.96,55.04 58.69,54.54 C58.04,54.22 56.49,54.35 55.78,54.82 C55.01,55.36 54.86,56.41 55.37,56.69 C56.14,57.07 57.95,56.94 58.74,56.15 C59.40,55.48 59.89,53.94 59.69,53.56 C59.06,52.46 56.73,54.08 57.75,54.94 C58.16,55.27 59.71,55.25 60.13,54.73 C62.69,51.36 58.81,50.36 58.52,50.33 C57.49,50.74 58.12,53.50 58.92,54.23 C59.89,54.23 60.38,54.08 60.51,53.61 C60.74,52.76 60.45,51.03 59.90,50.12 C59.90,50.12 59.02,49.30 59.02,49.30" fill="none" stroke="rgb(214, 142, 40)" stroke-width="2.00" stroke-opacity="1.00" stroke-linejoin="round"/>
<path d="M57.14,50.26 C57.14,50.26 58.79,53.14 58.79,53.14 C59.93,52.64 59.04,50.41 59.03,50.38" fill="none" stroke="rgb(214, 142, 40)" stroke-width="2.00" stroke-opacity="1.00" stroke-linejoin="round"/>
<path d="M56.66,50.46 C56.66,50.46 58.00,51.80 58.00,51.80 C58.00,51.80 59.01,49.83 59.01,49.83" fill="none" stroke="rgb(214, 142, 40)" stroke-width="2.00" stroke-opacity="1.00" stroke-linejoin="round"/>
<path d="M59.93,50.39 C59.93,50.39 60.18,51.70 60.18,51.70 C60.18,51.70 58.23,49.95 58.23,49.95" fill="none" stroke="rgb(214, 142, 40)" stroke-width="2.00" stroke-opacity="1.00" stroke-linejoin="round"/>
<path d="M44.22,48.76 C44.22,48.76 43.92,47.61 43.92,47.61" fill="none" stroke="rgb(214, 142, 40)" stroke-width="2.00" stroke-opacity="1.00" stroke-linejoin="round"/>
<path d="M50.63,50.25 C53.53,52.53 55.92,52.03 56.33,51.79 C56.33,51.79 55.43,49.73 55.43,49.73" fill="none" stroke="rgb(214, 142, 40)" stroke-width="2.00" stroke-opacity="1.00" stroke-linejoin="round"/>
<path d="M52.73,49.99 C52.73,49.99 56.08,50.44 56.08,50.44" fill="none" stroke="rgb(214, 142, 40)" stroke-width="2.00" stroke-opacity="1.00" stroke-linejoin="round"/>
<path d="M60.55,49.49" fill="none" stroke="rgb(238, 202, 152)" stroke-width="2.00" stroke-opacity="1.00" stroke-linejoin="round"/>
<path d="M58.48,50.60 C58.48,50.60 56.77,49.77 56.77,49.77" fill="none" stroke="rgb(238, 202, 152)" stroke-width="2.00" stroke-opacity="1.00" stroke-linejoin="round"/>
<path d="M55.10,49.57 C55.10,49.57 58.24,50.53 58.24,50.53 C58.24,50.53 57.80,50.45 57.80,50.45" fill="none" stroke="rgb(238, 202, 152)" stroke-width="2.00" stroke-opacity="1.00" stroke-linejoin="round"/>
<path d="M47.40,59.30 C45.55,58.71 42.34,56.70 41.35,55.33 C40.44,54.04 40.02,51.48 40.22,50.24 C40.22,50.24 40.14,49.21 40.14,49.21" fill="none" stroke="rgb(0, 0, 0)" stroke-width="0.78" stroke-opacity="1.00" stroke-linejoin="round"/>
<path d="M61.62,50.70 C61.68,50.86 62.61,54.84 59.15,57.40 C56.44,59.35 49.84,59.66 48.89,59.53 C48.77,59.52 48.53,59.49 48.18,59.45" fill="none" stroke="rgb(0, 0, 0)" stroke-width="0.78" stroke-opacity="1.00" stroke-linejoin="round"/>
<path d="M50.18,58.61 C47.66,58.24 43.75,56.50 42.85,55.34 C42.03,54.27 41.39,50.99 41.64,50.10" fill="none" stroke="rgb(0, 0, 0)" stroke-width="0.52" stroke-opacity="1.00" stroke-linejoin="round"/>
<path d="M59.94,50.39 C60.37,51.79 59.94,54.43 59.06,55.50 C57.81,56.94 53.55,58.41 52.94,58.47 C52.70,58.50 52.11,58.54 51.16,58.59" fill="none" stroke="rgb(0, 0, 0)" stroke-width="0.52" stroke-opacity="1.00" stroke-linejoin="round"/>
<path d="M45.24,49.59 C44.43,50.03 44.81,51.40 45.80,51.59 C49.38,51.87 54.46,52.42 55.19,52.86 C55.85,53.26 55.81,54.46 54.35,54.99 C52.83,55.53 46.98,55.08 46.24,54.85 C46.16,54.76 45.94,54.72 45.76,54.70 C45.76,54.70 45.75,54.70 45.76,54.70" fill="none" stroke="rgb(0, 0, 0)" stroke-width="1.04" stroke-opacity="1.00" stroke-linejoin="round"/>
<path d="M48.58,50.58 C48.58,50.58 49.46,56.76 49.46,56.76" fill="none" stroke="rgb(0, 0, 0)" stroke-width="1.04" stroke-opacity="1.00" stroke-linejoin="round"/>
<path d="M52.27,50.13 C52.27,50.13 53.21,56.49 53.21,56.49 C53.21,56.49 53.21,56.42 53.21,56.42" fill="none" stroke="rgb(0, 0, 0)" stroke-width="1.04" stroke-opacity="1.00" stroke-linejoin="round"/>
<path d="M59.61,50.48 C59.62,50.49 61.90,52.64 64.25,53.17 C65.41,53.41 67.10,53.12 67.66,52.56 C68.93,51.20 68.58,48.19 67.91,46.80" fill="none" stroke="rgb(214, 142, 40)" stroke-width="2.00" stroke-opacity="1.00" stroke-linejoin="round"/>
<path d="M68.14,46.47 C68.14,46.47 68.19,46.85 68.19,46.85" fill="none" stroke="rgb(214, 142, 40)" stroke-width="2.00" stroke-opacity="1.00" stroke-linejoin="round"/>
<path d="M67.21,46.37 C67.21,46.37 65.35,47.03 65.35,47.03" fill="none" stroke="rgb(214, 142, 40)" stroke-width="2.00" stroke-opacity="1.00" stroke-linejoin="round"/>
<path d="M66.41,47.19 C66.41,47.19 66.15,47.66 66.15,47.66" fill="none" stroke="rgb(214, 142, 40)" stroke-width="2.00" stroke-opacity="1.00" stroke-linejoin="round"/>
<path d="M59.27,41.71 C59.27,41.71 59.03,41.62 59.03,41.62" fill="none" stroke="rgb(214, 142, 40)" stroke-width="2.00" stroke-opacity="1.00" stroke-linejoin="round"/>
<path d="M57.55,41.82 C57.55,41.82 55.94,41.82 55.94,41.82" fill="none" stroke="rgb(214, 142, 40)" stroke-width="2.00" stroke-opacity="1.00" stroke-linejoin="round"/>
<path d="M54.19,42.89 C54.19,42.89 55.38,42.90 55.38,42.90" fill="none" stroke="rgb(214, 142, 40)" stroke-width="2.00" stroke-opacity="1.00" stroke-linejoin="round"/>
<path d="M59.22,49.77 C61.38,51.69 66.66,53.79 67.96,53.34 C68.53,53.12 69.60,51.37 69.67,50.68 C69.75,49.34 68.26,46.74 68.25,46.72" fill="none" stroke="rgb(214, 142, 40)" stroke-width="2.00" stroke-opacity="1.00" stroke-linejoin="round"/>
<path d="M62.69,50.60 C64.35,51.82 66.98,52.01 67.08,50.78 C67.13,49.96 66.70,48.45 66.40,47.86" fill="none" stroke="rgb(214, 142, 40)" stroke-width="2.00" stroke-opacity="1.00" stroke-linejoin="round"/>
<path d="M63.56,50.06 C64.15,50.54 65.39,51.15 66.05,50.80 C66.70,50.42 65.68,47.84 65.53,47.56" fill="none" stroke="rgb(214, 142, 40)" stroke-width="2.00" stroke-opacity="1.00" stroke-linejoin="round"/>
<path d="M62.72,49.52 C62.84,49.70 64.21,50.98 64.93,50.35 C65.69,49.61 65.37,47.93 65.36,47.91 C65.36,47.91 64.04,47.74 64.04,47.74" fill="none" stroke="rgb(214, 142, 40)" stroke-width="2.00" stroke-opacity="1.00" stroke-linejoin="round"/>
<path d="M63.35,49.33 C63.35,49.33 64.34,48.52 64.34,48.52" fill="none" stroke="rgb(214, 142, 40)" stroke-width="2.00" stroke-opacity="1.00" stroke-linejoin="round"/>
<path d="M63.21,49.18 C63.21,49.18 63.96,48.38 63.96,48.38" fill="none" stroke="rgb(214, 142, 40)" stroke-width="2.00" stroke-opacity="1.00" stroke-linejoin="round"/>
<path d="M63.29,49.61 C63.29,49.61 63.45,48.45 63.45,48.45" fill="none" stroke="rgb(214, 142, 40)" stroke-width="2.00" stroke-opacity="1.00" stroke-linejoin="round"/>
<path d="M62.46,49.25 C62.46,49.25 60.99,48.11 60.99,48.11" fill="none" stroke="rgb(214, 142, 40)" stroke-width="2.00" stroke-opacity="1.00" stroke-linejoin="round"/>
<path d="M58.91,51.29 C59.24,51.49 60.77,51.96 61.35,51.80 C62.50,51.45 62.25,48.65 62.12,48.58" fill="none" stroke="rgb(214, 142, 40)" stroke-width="2.00" stroke-opacity="1.00" stroke-linejoin="round"/>
<path d="M56.34,50.08 C57.39,51.08 58.93,52.00 59.82,52.29 C61.90,52.95 62.37,51.18 62.22,50.51 C62.22,50.51 61.57,49.48 61.57,49.48" fill="none" stroke="rgb(214, 142, 40)" stroke-width="2.00" stroke-opacity="1.00" stroke-linejoin="round"/>
<path d="M56.82,50.51 C58.26,51.84 62.67,53.36 62.69,51.96 C62.69,51.64 62.39,50.81 62.28,50.61 C62.28,50.61 61.75,49.31 61.75,49.31" fill="none" stroke="rgb(214, 142, 40)" stroke-width="2.00" stroke-opacity="1.00" stroke-linejoin="round"/>
<path d="M55.85,50.77 C57.90,52.72 62.34,54.27 63.45,53.77 C65.38,52.83 62.80,49.41 62.01,48.64" fill="none" stroke="rgb(214, 142, 40)" stroke-width="2.00" stroke-opacity="1.00" stroke-linejoin="round"/>
<path d="M55.69,49.92 C58.10,52.43 61.51,54.16 63.17,54.16 C63.82,54.14 65.06,53.78 65.43,53.14 C66.17,51.82 64.41,49.12 63.22,48.42" fill="none" stroke="rgb(214, 142, 40)" stroke-width="2.00" stroke-opacity="1.00" stroke-linejoin="round"/>
<path d="M56.22,50.45 C57.39,51.76 61.46,54.40 63.41,54.65 C65.23,54.86 67.17,53.60 67.35,52.42 C67.43,51.81 66.95,50.24 66.19,49.77 C65.35,49.27 63.49,48.98 62.32,48.86" fill="none" stroke="rgb(214, 142, 40)" stroke-width="2.00" stroke-opacity="1.00" stroke-linejoin="round"/>
<path d="M57.45,49.80 C57.45,49.80 57.19,50.04 57.19,50.04" fill="none" stroke="rgb(214, 142, 40)" stroke-width="2.00" stroke-opacity="1.00" stroke-linejoin="round"/>
<path d="M56.82,49.38 C56.61,49.43 55.48,54.31 65.49,55.26 C66.58,55.36 67.86,54.86 68.13,54.24 C68.40,53.59 67.84,51.73 67.18,51.19 C65.67,50.00 59.73,49.97 59.41,50.85 C59.06,52.01 61.80,54.05 64.11,54.23 C66.30,54.31 66.81,52.28 66.47,51.53 C62.44,47.75 57.80,50.68 57.69,51.24 C58.28,52.57 64.84,55.08 65.76,53.98 C65.85,51.18 58.97,51.46 58.71,51.77 C58.86,52.30 60.72,54.05 62.03,54.82 C63.67,55.76 66.41,56.05 67.03,55.73 C68.22,55.04 68.71,52.47 68.25,51.27 C67.97,50.56 66.63,49.74 65.99,49.98 C65.43,50.23 65.39,51.80 65.97,52.47 C66.68,53.26 68.79,53.95 69.66,53.66 C70.39,53.38 70.42,50.48 69.60,49.63 C68.99,49.34 68.01,49.50 67.77,50.00 C67.51,50.60 68.02,51.76 68.57,52.04 C69.37,52.41 70.54,52.13 70.59,51.25 C70.63,49.67 68.70,47.69 68.36,48.40 C68.03,49.22 70.72,51.07 70.63,49.77 C70.52,48.71 68.92,46.76 68.41,46.35" fill="none" stroke="rgb(214, 142, 40)" stroke-width="2.00" stroke-opacity="1.00" stroke-linejoin="round"/>
<path d="M69.34,49.15 C69.46,49.24 70.90,49.28 69.35,47.19 C69.22,47.01 68.62,46.29 68.60,46.26" fill="none" stroke="rgb(214, 142, 40)" stroke-width="2.00" stroke-opacity="1.00" stroke-linejoin="round"/>
<path d="M67.98,47.90 C68.70,48.27 69.26,47.93 68.31,46.68" fill="none" stroke="rgb(214, 142, 40)" stroke-width="2.00" stroke-opacity="1.00" stroke-linejoin="round"/>
<path d="M67.67,47.08 C67.67,47.08 65.83,46.61 65.83,46.61" fill="none" stroke="rgb(214, 142, 40)" stroke-width="2.00" stroke-opacity="1.00" stroke-linejoin="round"/>
<path d="M69.00,47.03 C69.00,47.03 67.96,46.41 67.96,46.41" fill="none" stroke="rgb(214, 142, 40)" stroke-width="2.00" stroke-opacity="1.00" stroke-linejoin="round"/>
<path d="M60.46,40.85 C60.46,40.85 58.84,41.80 58.84,41.80" fill="none" stroke="rgb(214, 142, 40)" stroke-width="2.00" stroke-opacity="1.00" stroke-linejoin="round"/>
<path d="M60.67,41.89 C60.67,41.89 61.73,42.04 61.73,42.04" fill="none" stroke="rgb(214, 142, 40)" stroke-width="2.00" stroke-opacity="1.00" stroke-linejoin="round"/>
<path d="M61.09,40.91 C61.09,40.91 59.17,40.51 59.17,40.51" fill="none" stroke="rgb(214, 142, 40)" stroke-width="2.00" stroke-opacity="1.00" stroke-linejoin="round"/>
<path d="M59.02,41.76 C59.02,41.76 61.20,41.59 61.20,41.59" fill="none" stroke="rgb(214, 142, 40)" stroke-width="2.00" stroke-opacity="1.00" stroke-linejoin="round"/>
<path d="M63.16,41.09 C63.16,41.09 61.12,40.45 61.12,40.45" fill="none" stroke="rgb(214, 142, 40)" stroke-width="2.00" stroke-opacity="1.00" stroke-linejoin="round"/>
<path d="M59.04,40.74 C59.04,40.74 55.59,41.42 55.59,41.42" fill="none" stroke="rgb(214, 142, 40)" stroke-width="2.00" stroke-opacity="1.00" stroke-linejoin="round"/>
<path d="M58.58,41.11 C56.15,39.40 52.77,41.49 53.07,42.06" fill="none" stroke="rgb(214, 142, 40)" stroke-width="2.00" stroke-opacity="1.00" stroke-linejoin="round"/>
<path d="M56.55,40.91 C56.56,40.85 54.77,40.02 53.42,41.25" fill="none" stroke="rgb(214, 142, 40)" stroke-width="2.00" stroke-opacity="1.00" stroke-linejoin="round"/>
<path d="M54.62,41.28 C54.62,41.28 53.92,42.05 53.92,42.05 C53.92,42.05 55.79,41.02 55.79,41.02 C55.79,41.02 54.62,41.58 54.62,41.58 C54.62,41.58 56.83,41.03 56.83,41.03 C56.83,41.03 55.21,41.47 55.21,41.47 C55.21,41.47 59.82,41.13 59.82,41.13" fill="none" stroke="rgb(214, 142, 40)" stroke-width="2.00" stroke-opacity="1.00" stroke-linejoin="round"/>
<path d="M66.64,47.06 C66.64,47.06 64.38,48.35 64.38,48.35" fill="none" stroke="rgb(214, 142, 40)" stroke-width="2.00" stroke-opacity="1.00" stroke-linejoin="round"/>
<path d="M59.27,40.64 C59.25,40.64 59.23,40.64 59.21,40.63 C59.17,40.63 59.13,40.62 59.09,40.62 C59.09,40.62 59.13,40.58 59.13,40.58 C59.13,40.58 60.68,40.85 60.68,40.85" fill="none" stroke="rgb(238, 202, 152)" stroke-width="2.00" stroke-opacity="1.00" stroke-linejoin="round"/>
<path d="M68.12,45.21" fill="none" stroke="rgb(238, 202, 152)" stroke-width="2.00" stroke-opacity="1.00" stroke-linejoin="round"/>
<path d="M67.51,46.10 C67.51,46.10 66.64,46.79 66.64,46.79" fill="none" stroke="rgb(238, 202, 152)" stroke-width="2.00" stroke-opacity="1.00" stroke-linejoin="round"/>
<path d="M63.19,56.44 C57.68,55.17 53.32,50.70 52.48,49.59" fill="none" stroke="rgb(0, 0, 0)" stroke-width="0.78" stroke-opacity="1.00" stroke-linejoin="round"/>
<path d="M55.73,39.91 C55.73,39.91 60.62,40.50 60.62,40.50" fill="none" stroke="rgb(0, 0, 0)" stroke-width="0.78" stroke-opacity="1.00" stroke-linejoin="round"/>
<path d="M69.25,46.22 C69.35,46.27 72.15,49.90 71.62,52.53 C71.06,55.06 65.84,56.51 64.85,56.51 C64.72,56.50 64.46,56.51 64.08,56.51" fill="none" stroke="rgb(0, 0, 0)" stroke-width="0.78" stroke-opacity="1.00" stroke-linejoin="round"/>
<path d="M65.49,54.98 C59.48,54.66 55.76,51.16 55.55,50.93" fill="none" stroke="rgb(0, 0, 0)" stroke-width="0.52" stroke-opacity="1.00" stroke-linejoin="round"/>
<path d="M53.44,42.03 C53.44,42.03 58.54,40.78 58.54,40.78" fill="none" stroke="rgb(0, 0, 0)" stroke-width="0.52" stroke-opacity="1.00" stroke-linejoin="round"/>
<path d="M62.16,40.70 C62.16,40.70 62.78,40.44 62.78,40.44" fill="none" stroke="rgb(0, 0, 0)" stroke-width="0.52" stroke-opacity="1.00" stroke-linejoin="round"/>
<path d="M67.80,46.09 C67.80,46.09 68.78,45.30 68.78,45.30" fill="none" stroke="rgb(0, 0, 0)" stroke-width="0.52" stroke-opacity="1.00" stroke-linejoin="round"/>
<path d="M68.89,46.84 C69.56,47.72 70.50,50.11 70.38,51.03 C70.24,52.00 69.88,52.59 68.93,53.57 C68.20,54.27 67.51,54.51 66.36,54.81" fill="none" stroke="rgb(0, 0, 0)" stroke-width="0.52" stroke-opacity="1.00" stroke-linejoin="round"/>
<path d="M65.61,47.73 C66.38,48.04 67.27,48.81 67.37,49.30 C67.64,51.32 59.64,50.47 59.50,50.43 C59.38,50.32 59.13,50.27 58.93,50.26 C58.93,50.26 58.92,50.26 58.92,50.26" fill="none" stroke="rgb(0, 0, 0)" stroke-width="1.04" stroke-opacity="1.00" stroke-linejoin="round"/>
<path d="M61.93,49.68 C61.93,49.68 63.70,52.62 63.70,52.62" fill="none" stroke="rgb(0, 0, 0)" stroke-width="1.04" stroke-opacity="1.00" stroke-linejoin="round"/>
<path d="M64.51,48.54 C64.51,48.54 66.79,51.97 66.79,51.97 C66.79,51.97 66.74,51.89 66.74,51.89" fill="none" stroke="rgb(0, 0, 0)" stroke-width="1.04" stroke-opacity="1.00" stroke-linejoin="round"/>
<path d="M43.09,43.93 C43.09,43.93 43.88,44.00 43.88,44.00" fill="none" stroke="rgb(214, 142, 40)" stroke-width="2.00" stroke-opacity="1.00" stroke-linejoin="round"/>
<path d="M40.89,49.71 C39.55,51.42 37.31,53.24 35.97,53.79 C34.80,54.25 32.60,54.36 31.94,54.02 C30.47,53.21 30.18,50.77 30.43,49.56 C30.43,49.56 31.69,48.65 31.69,48.65" fill="none" stroke="rgb(214, 142, 40)" stroke-width="2.00" stroke-opacity="1.00" stroke-linejoin="round"/>
<path d="M31.09,48.34 C31.09,48.34 32.31,47.93 32.31,47.93" fill="none" stroke="rgb(214, 142, 40)" stroke-width="2.00" stroke-opacity="1.00" stroke-linejoin="round"/>
<path d="M41.16,42.81 C41.16,42.81 45.47,43.34 45.47,43.34" fill="none" stroke="rgb(214, 142, 40)" stroke-width="2.00" stroke-opacity="1.00" stroke-linejoin="round"/>
<path d="M40.62,50.05 C37.54,52.72 32.34,54.79 31.04,54.34 C29.52,53.75 29.27,50.84 29.87,49.40 C29.87,49.40 30.88,47.75 30.88,47.75" fill="none" stroke="rgb(214, 142, 40)" stroke-width="2.00" stroke-opacity="1.00" stroke-linejoin="round"/>
<path d="M31.31,48.52 C31.31,48.52 31.40,49.09 31.40,49.09" fill="none" stroke="rgb(214, 142, 40)" stroke-width="2.00" stroke-opacity="1.00" stroke-linejoin="round"/>
<path d="M38.39,49.19 C38.39,49.19 37.85,50.11 37.85,50.11 C36.66,51.60 33.16,53.30 32.30,52.68 C31.58,52.10 32.28,49.48 32.88,48.30" fill="none" stroke="rgb(214, 142, 40)" stroke-width="2.00" stroke-opacity="1.00" stroke-linejoin="round"/>
<path d="M36.78,49.60 C36.77,49.62 35.51,51.20 34.28,51.82 C33.61,52.15 32.73,51.66 32.72,50.93 C32.73,50.41 33.30,48.88 33.31,48.87" fill="none" stroke="rgb(214, 142, 40)" stroke-width="2.00" stroke-opacity="1.00" stroke-linejoin="round"/>
<path d="M37.67,48.18 C37.17,49.42 35.81,51.47 34.44,51.51 C33.43,51.51 33.95,48.25 33.85,48.27" fill="none" stroke="rgb(214, 142, 40)" stroke-width="2.00" stroke-opacity="1.00" stroke-linejoin="round"/>
<path d="M36.76,48.81 C36.76,48.81 35.63,50.26 35.63,50.26 C35.63,50.26 34.67,49.35 34.67,49.35" fill="none" stroke="rgb(214, 142, 40)" stroke-width="2.00" stroke-opacity="1.00" stroke-linejoin="round"/>
<path d="M36.27,49.66 C36.27,49.66 35.08,49.19 35.08,49.19 C35.08,49.19 36.97,47.45 36.97,47.45" fill="none" stroke="rgb(214, 142, 40)" stroke-width="2.00" stroke-opacity="1.00" stroke-linejoin="round"/>
<path d="M36.37,49.67 C36.37,49.67 35.71,50.61 35.71,50.61 C35.71,50.61 35.34,49.40 35.34,49.40 C35.34,49.40 36.16,48.46 36.16,48.46 C36.16,48.46 37.11,47.35 37.11,47.35" fill="none" stroke="rgb(214, 142, 40)" stroke-width="2.00" stroke-opacity="1.00" stroke-linejoin="round"/>
<path d="M38.26,50.20 C38.26,50.20 36.90,50.52 36.90,50.52 C36.90,50.52 36.68,48.98 36.68,48.98 C36.68,48.98 37.97,47.61 37.97,47.61" fill="none" stroke="rgb(214, 142, 40)" stroke-width="2.00" stroke-opacity="1.00" stroke-linejoin="round"/>
<path d="M39.38,49.92 C39.38,49.92 38.98,48.98 38.98,48.98 C38.98,48.98 40.60,48.30 40.60,48.30" fill="none" stroke="rgb(214, 142, 40)" stroke-width="2.00" stroke-opacity="1.00" stroke-linejoin="round"/>
<path d="M42.41,43.58 C42.41,43.58 44.07,44.01 44.07,44.01" fill="none" stroke="rgb(214, 142, 40)" stroke-width="2.00" stroke-opacity="1.00" stroke-linejoin="round"/>
<path d="M42.52,50.18 C42.41,50.30 39.40,54.48 37.18,52.55 C36.78,52.17 36.59,51.00 36.77,50.08 C36.77,50.08 37.37,48.63 37.37,48.63" fill="none" stroke="rgb(214, 142, 40)" stroke-width="2.00" stroke-opacity="1.00" stroke-linejoin="round"/>
<path d="M41.50,42.47 C41.50,42.47 43.43,43.94 43.43,43.94" fill="none" stroke="rgb(214, 142, 40)" stroke-width="2.00" stroke-opacity="1.00" stroke-linejoin="round"/>
<path d="M43.59,49.94 C41.88,52.11 37.60,54.04 36.94,53.05 C36.64,52.50 36.81,50.90 37.61,49.04 C37.61,49.04 39.21,48.51 39.21,48.51" fill="none" stroke="rgb(214, 142, 40)" stroke-width="2.00" stroke-opacity="1.00" stroke-linejoin="round"/>
<path d="M42.79,50.96 C40.71,52.85 36.43,54.32 36.31,52.96 C36.27,52.29 37.62,50.07 38.42,49.16 C38.42,49.16 40.02,48.33 40.02,48.33" fill="none" stroke="rgb(214, 142, 40)" stroke-width="2.00" stroke-opacity="1.00" stroke-linejoin="round"/>
<path d="M44.91,50.11 C42.66,52.75 37.61,55.11 36.13,54.93 C34.93,54.75 34.81,52.58 35.52,51.36 C36.17,50.28 37.67,49.07 37.82,48.97 C37.82,48.97 39.04,48.12 39.04,48.12" fill="none" stroke="rgb(214, 142, 40)" stroke-width="2.00" stroke-opacity="1.00" stroke-linejoin="round"/>
<path d="M43.42,50.79 C40.42,54.25 35.89,55.34 34.58,54.98 C33.94,54.78 33.26,53.58 33.40,52.57 C33.66,51.03 35.65,49.44 37.04,48.76" fill="none" stroke="rgb(214, 142, 40)" stroke-width="2.00" stroke-opacity="1.00" stroke-linejoin="round"/>
<path d="M43.01,51.18 C41.63,52.75 37.54,55.40 35.59,55.65 C33.77,55.86 31.83,54.60 31.65,53.42 C31.57,52.81 32.05,51.24 32.81,50.77 C34.30,49.89 41.33,49.73 42.08,50.12 C42.16,50.16 42.33,50.28 42.59,50.47 C42.80,51.55 35.86,56.04 33.51,56.26 C32.42,56.36 31.14,55.86 30.87,55.24 C30.60,54.59 31.16,52.73 31.82,52.19 C33.33,51.00 39.27,50.97 39.59,51.85 C39.94,53.01 37.20,55.05 34.89,55.23 C32.70,55.31 32.19,53.28 32.53,52.53 C36.56,48.75 41.20,51.68 41.31,52.24 C40.72,53.57 34.16,56.08 33.24,54.98 C33.15,52.18 40.03,52.46 40.29,52.77 C40.14,53.30 38.28,55.05 36.97,55.82 C35.33,56.76 32.59,57.05 31.97,56.73 C30.78,56.04 30.29,53.47 30.75,52.27 C31.03,51.56 32.37,50.74 33.01,50.98 C33.57,51.23 33.61,52.80 33.03,53.47 C32.32,54.26 30.21,54.95 29.34,54.66 C28.61,54.38 28.58,51.48 29.40,50.63 C30.01,50.34 30.99,50.50 31.23,51.00 C31.49,51.60 30.98,52.76 30.43,53.04 C29.63,53.41 28.46,53.13 28.41,52.25 C28.37,50.67 30.30,48.69 30.64,49.40 C30.97,50.22 28.28,52.07 28.37,50.77 C28.43,50.23 29.25,48.77 29.66,48.27" fill="none" stroke="rgb(214, 142, 40)" stroke-width="2.00" stroke-opacity="1.00" stroke-linejoin="round"/>
<path d="M31.06,49.07 C31.06,49.07 29.81,50.04 29.81,50.04 C29.62,50.18 28.30,50.29 29.45,48.48" fill="none" stroke="rgb(214, 142, 40)" stroke-width="2.00" stroke-opacity="1.00" stroke-linejoin="round"/>
<path d="M31.12,48.83 C31.12,48.83 30.11,49.30 30.11,49.30" fill="none" stroke="rgb(214, 142, 40)" stroke-width="2.00" stroke-opacity="1.00" stroke-linejoin="round"/>
<path d="M33.17,48.03 C33.17,48.03 31.69,48.87 31.69,48.87" fill="none" stroke="rgb(214, 142, 40)" stroke-width="2.00" stroke-opacity="1.00" stroke-linejoin="round"/>
<path d="M30.74,48.25 C30.74,48.25 31.86,47.89 31.86,47.89" fill="none" stroke="rgb(214, 142, 40)" stroke-width="2.00" stroke-opacity="1.00" stroke-linejoin="round"/>
<path d="M30.04,48.91 C30.04,48.91 29.95,49.19 29.95,49.19" fill="none" stroke="rgb(214, 142, 40)" stroke-width="2.00" stroke-opacity="1.00" stroke-linejoin="round"/>
<path d="M29.48,48.84 C29.48,48.84 29.36,49.00 29.36,49.00" fill="none" stroke="rgb(214, 142, 40)" stroke-width="2.00" stroke-opacity="1.00" stroke-linejoin="round"/>
<path d="M39.51,42.47 C39.51,42.47 37.22,43.02 37.22,43.02" fill="none" stroke="rgb(214, 142, 40)" stroke-width="2.00" stroke-opacity="1.00" stroke-linejoin="round"/>
<path d="M39.90,42.72 C39.90,42.72 39.18,42.73 39.18,42.73" fill="none" stroke="rgb(214, 142, 40)" stroke-width="2.00" stroke-opacity="1.00" stroke-linejoin="round"/>
<path d="M40.88,41.66 C40.88,41.66 43.24,42.88 43.24,42.88 C43.24,42.88 41.50,43.11 41.50,43.11 C41.50,43.11 40.48,43.12 40.48,43.12" fill="none" stroke="rgb(214, 142, 40)" stroke-width="2.00" stroke-opacity="1.00" stroke-linejoin="round"/>
<path d="M40.34,42.39 C40.38,42.25 43.52,39.93 45.95,42.41" fill="none" stroke="rgb(214, 142, 40)" stroke-width="2.00" stroke-opacity="1.00" stroke-linejoin="round"/>
<path d="M42.46,41.82 C42.46,41.79 44.71,40.88 45.78,42.47" fill="none" stroke="rgb(214, 142, 40)" stroke-width="2.00" stroke-opacity="1.00" stroke-linejoin="round"/>
<path d="M44.20,42.14 C44.20,42.14 46.11,43.11 46.11,43.11" fill="none" stroke="rgb(214, 142, 40)" stroke-width="2.00" stroke-opacity="1.00" stroke-linejoin="round"/>
<path d="M43.18,42.06 C43.18,42.06 44.38,42.58 44.38,42.58 C44.38,42.58 42.17,42.03 42.17,42.03 C42.17,42.03 43.79,42.47 43.79,42.47 C43.79,42.47 41.39,42.01 41.39,42.01 C41.39,42.01 39.64,42.07 39.64,42.07" fill="none" stroke="rgb(214, 142, 40)" stroke-width="2.00" stroke-opacity="1.00" stroke-linejoin="round"/>
<path d="M32.47,48.04 C32.47,48.04 31.28,48.85 31.28,48.85" fill="none" stroke="rgb(214, 142, 40)" stroke-width="2.00" stroke-opacity="1.00" stroke-linejoin="round"/>
<path d="M39.73,41.64 C39.75,41.64 39.77,41.64 39.79,41.63 C39.83,41.63 39.87,41.62 39.91,41.62 C39.91,41.62 39.87,41.58 39.87,41.58" fill="none" stroke="rgb(238, 202, 152)" stroke-width="2.00" stroke-opacity="1.00" stroke-linejoin="round"/>
<path d="M35.81,57.44 C41.33,56.17 45.67,51.70 46.48,50.65" fill="none" stroke="rgb(0, 0, 0)" stroke-width="0.78" stroke-opacity="1.00" stroke-linejoin="round"/>
<path d="M44.76,41.24 C44.76,41.24 40.23,41.04 40.23,41.04" fill="none" stroke="rgb(0, 0, 0)" stroke-width="0.78" stroke-opacity="1.00" stroke-linejoin="round"/>
<path d="M28.04,54.75 C30.00,57.13 33.97,57.51 34.15,57.51 C34.28,57.50 34.54,57.51 34.92,57.51" fill="none" stroke="rgb(0, 0, 0)" stroke-width="0.78" stroke-opacity="1.00" stroke-linejoin="round"/>
<path d="M33.51,55.98 C39.60,55.66 43.71,51.69 44.46,50.71" fill="none" stroke="rgb(0, 0, 0)" stroke-width="0.52" stroke-opacity="1.00" stroke-linejoin="round"/>
<path d="M43.60,41.91 C43.60,41.91 40.91,41.73 40.91,41.73 C40.91,41.73 39.85,41.83 39.85,41.83" fill="none" stroke="rgb(0, 0, 0)" stroke-width="0.52" stroke-opacity="1.00" stroke-linejoin="round"/>
<path d="M28.84,50.25 C28.52,51.24 28.80,53.26 30.07,54.57 C30.80,55.27 31.49,55.51 32.64,55.81" fill="none" stroke="rgb(0, 0, 0)" stroke-width="0.52" stroke-opacity="1.00" stroke-linejoin="round"/>
<path d="M33.07,48.87 C32.31,49.24 31.49,50.16 31.73,50.60 C32.39,51.74 37.76,51.89 39.50,51.43 C39.62,51.32 39.87,51.27 40.07,51.26 C40.07,51.26 40.08,51.26 40.08,51.26" fill="none" stroke="rgb(0, 0, 0)" stroke-width="1.04" stroke-opacity="1.00" stroke-linejoin="round"/>
<path d="M37.66,49.64 C37.66,49.64 35.30,53.62 35.30,53.62" fill="none" stroke="rgb(0, 0, 0)" stroke-width="1.04" stroke-opacity="1.00" stroke-linejoin="round"/>
<path d="M34.45,49.60 C34.45,49.60 32.21,52.97 32.21,52.97 C32.21,52.97 32.26,52.89 32.26,52.89" fill="none" stroke="rgb(0, 0, 0)" stroke-width="1.04" stroke-opacity="1.00" stroke-linejoin="round"/>
<path d="M47.63,45.93 C48.33,46.15 53.00,45.85 55.91,45.68 C63.54,45.15 67.12,42.69 67.57,42.34 C67.57,42.34 67.60,42.47 67.60,42.47" fill="none" stroke="rgb(0, 0, 0)" stroke-width="2.00" stroke-opacity="1.00" stroke-linejoin="round"/>
<path d="M32.03,44.45 C32.03,44.45 31.82,44.33 31.82,44.33 C31.82,44.33 31.75,44.17 31.75,44.17 C31.75,44.17 33.45,44.67 35.26,44.78 C35.26,44.78 35.91,44.88 35.91,44.88" fill="none" stroke="rgb(0, 0, 0)" stroke-width="2.00" stroke-opacity="1.00" stroke-linejoin="round"/>
</g>
</svg>
