<?xml version="1.0" encoding="UTF-8" standalone="no"?>
<!DOCTYPE svg PUBLIC "-//W3C//DTD SVG 1.1//EN" "http://www.w3.org/Graphics/SVG/1.1/DTD/svg11.dtd">
<svg width="100.00" height="100.00" viewBox="0.00 0.00 100.00 100.00" xmlns="http://www.w3.org/2000/svg" xmlns:xlink="http://www.w3.org/1999/xlink">
<g stroke-linecap="round" id="圖層_4">
<path d="M28.41,28.51 C28.41,28.51 28.32,28.51 28.32,28.51 C28.32,28.51 28.10,28.31 28.10,28.31 C28.14,28.35 29.65,29.33 30.17,29.60 C32.48,30.80 52.76,31.65 57.51,31.13 C65.85,30.36 70.17,28.49 70.97,27.86 C69.97,27.43 58.58,29.09 55.35,29.42 C46.73,30.11 35.87,31.08 31.75,30.89 C30.81,30.83 29.32,29.28 29.44,28.72 C29.52,28.42 30.53,27.70 31.35,27.69 C45.06,27.79 68.93,27.90 70.21,28.93 C70.26,29.03 69.61,29.81 57.16,30.48 C55.60,30.58 50.09,31.96 47.30,32.32 C44.07,32.72 34.86,33.17 33.57,32.54 C32.38,31.93 30.83,30.77 30.72,30.68 C30.35,30.88 31.23,33.24 33.04,34.06 C33.04,34.06 30.37,29.86 30.37,29.86 C29.84,30.26 30.50,33.51 32.06,34.06 C32.13,34.08 32.29,34.13 32.52,34.19 C32.52,34.19 29.65,29.96 29.65,29.96 C29.82,31.80 30.87,33.78 31.87,34.45 C33.86,35.69 35.91,35.51 35.98,35.40 C35.96,33.26 31.85,31.94 31.71,31.96 C31.72,32.39 32.28,33.56 33.08,34.14 C35.05,35.54 42.89,37.25 46.01,36.98 C49.02,36.68 54.28,34.80 53.98,33.83 C53.60,32.77 47.93,30.78 44.11,31.06 C40.59,31.36 39.46,33.09 39.36,33.49 C40.84,35.31 46.53,35.33 46.44,35.21 C46.04,34.87 43.05,33.83 40.77,33.57 C39.17,33.41 38.67,34.24 38.83,34.73 C39.37,36.23 43.24,36.89 43.72,36.55 C43.55,33.35 33.99,33.16 33.94,33.20 C33.87,34.43 41.45,37.89 44.09,38.27 C46.01,38.53 46.72,37.85 46.85,37.60 C46.59,36.74 40.52,33.97 36.86,33.66 C35.19,33.53 34.70,33.93 34.71,34.28 C34.75,34.91 35.82,36.34 36.71,36.88 C39.58,38.58 44.63,39.01 45.85,38.72 C46.25,37.89 45.25,36.85 44.08,36.24 C41.39,34.88 34.43,33.78 32.92,33.78 C33.61,35.45 41.44,39.63 44.47,39.76 C47.45,39.85 55.05,37.73 56.78,35.81 C57.75,34.70 57.68,33.84 57.46,33.32 C55.70,31.99 49.77,32.11 48.11,32.89 C45.64,34.08 45.43,35.37 45.49,35.86 C45.99,36.56 48.18,36.86 49.81,36.38 C51.44,35.88 53.40,34.48 53.74,33.73 C52.83,32.86 50.85,33.15 50.14,33.42 C47.91,34.34 47.09,35.84 46.97,36.28 C48.00,37.08 50.45,36.90 51.17,36.69 C54.76,35.60 55.69,34.03 55.70,33.73 C54.53,33.03 49.81,35.31 48.85,36.38 C50.23,37.43 55.83,34.57 57.08,33.40 C57.08,33.40 53.06,34.50 53.06,34.50 C53.06,34.50 62.40,31.10 62.40,31.10 C62.40,31.10 60.02,32.44 60.02,32.44 C60.02,32.44 65.69,29.65 65.69,29.65 C65.69,29.65 68.58,28.94 68.58,28.94 C68.58,28.94 67.77,30.27 67.77,30.27 C67.77,30.27 69.59,29.05 69.59,29.05 C69.59,29.05 68.61,30.96 68.61,30.96 C68.61,30.96 70.04,29.55 70.04,29.55 C70.04,29.55 67.99,32.13 67.99,32.13 C67.99,32.13 70.11,30.10 70.11,30.10 C70.24,31.10 68.52,33.21 64.50,35.50 C63.37,36.14 62.99,36.34 62.71,36.45 C62.71,36.45 68.68,32.87 68.68,32.87 C66.17,37.01 56.02,39.93 55.70,39.98 C55.79,39.22 60.04,35.22 65.31,32.61 C65.31,32.61 53.10,39.74 53.10,39.74 C53.09,39.75 56.91,36.27 58.82,35.09 C60.49,34.07 63.12,33.09 63.95,32.99 C64.26,33.72 62.82,35.62 61.38,36.85 C58.63,39.15 54.22,40.63 52.93,40.70 C52.93,40.70 59.26,38.05 59.26,38.05 C56.56,40.21 52.04,41.42 47.33,41.43 C44.91,41.43 43.21,40.82 43.01,40.43 C43.21,40.35 47.90,41.73 50.34,41.17 C62.44,38.34 66.21,35.38 66.41,35.33 C66.31,35.35 66.15,35.40 65.74,35.59 C64.91,35.96 63.66,36.66 61.83,37.76 C59.72,39.02 56.72,39.80 56.73,39.84 C59.12,39.95 67.64,35.08 68.77,33.57 C69.56,32.46 69.89,28.85 69.82,28.65 C69.82,28.65 69.65,28.62 69.65,28.62" fill="none" stroke="rgb(68, 150, 81)" stroke-width="3.00" stroke-opacity="1.00" stroke-linejoin="round"/>
<path d="M35.64,35.43 C35.64,35.43 33.90,34.52 33.90,34.52 C33.90,34.52 37.29,37.59 37.29,37.59 C37.29,37.59 33.80,35.76 33.80,35.76 C33.80,35.76 37.79,38.72 37.79,38.72 C37.79,38.72 35.14,36.26 35.14,36.26 C35.14,36.26 37.51,37.43 37.51,37.43" fill="none" stroke="rgb(68, 150, 81)" stroke-width="3.00" stroke-opacity="1.00" stroke-linejoin="round"/>
<path d="M30.27,27.79 C30.27,27.79 30.17,27.79 30.17,27.79 C31.28,27.20 33.87,25.76 35.88,25.10 C37.62,24.54 49.36,23.53 61.64,24.31 C64.66,24.52 69.54,26.76 69.52,26.76 C69.28,26.74 68.32,25.75 67.53,25.65 C67.19,25.62 47.50,25.29 47.07,25.36 C45.78,25.60 43.69,26.43 43.39,26.74 C43.39,26.74 53.19,26.24 53.19,26.24 C53.19,26.24 41.75,27.55 41.75,27.55" fill="none" stroke="rgb(68, 150, 81)" stroke-width="3.00" stroke-opacity="1.00" stroke-linejoin="round"/>
<path d="M70.25,26.45 C70.22,26.44 70.18,26.45 70.13,26.46 C69.67,26.63 69.47,26.66 68.85,26.65 C68.70,26.65 68.50,26.65 68.26,26.65" fill="none" stroke="rgb(68, 150, 81)" stroke-width="3.00" stroke-opacity="1.00" stroke-linejoin="round"/>
<path d="M66.56,26.36 C66.82,26.42 67.03,26.48 67.18,26.53 C67.34,26.59 67.65,26.72 68.11,26.93" fill="none" stroke="rgb(68, 150, 81)" stroke-width="3.00" stroke-opacity="1.00" stroke-linejoin="round"/>
<path d="M67.56,30.58 C67.23,30.54 67.01,30.51 66.92,30.51 C66.03,30.48 64.36,31.84 64.36,31.82 C64.36,31.82 65.19,31.40 65.19,31.40" fill="none" stroke="rgb(68, 150, 81)" stroke-width="3.00" stroke-opacity="1.00" stroke-linejoin="round"/>
<path d="M48.92,42.05 C48.92,42.05 48.36,42.05 48.36,42.05 C49.38,42.79 50.82,43.28 51.48,43.23 C51.68,43.22 51.86,43.17 52.03,43.10 C52.10,43.06 52.21,42.99 52.38,42.87" fill="none" stroke="rgb(68, 150, 81)" stroke-width="2.35" stroke-opacity="1.00" stroke-linejoin="round"/>
<path d="M51.14,43.23 C51.14,43.23 51.03,42.98 51.03,42.98 C51.03,42.96 51.03,44.03 51.03,45.02 C51.03,46.29 51.03,49.14 51.03,50.72" fill="none" stroke="rgb(68, 150, 81)" stroke-width="2.35" stroke-opacity="1.00" stroke-linejoin="round"/>
<path d="M50.52,69.01 C50.52,69.01 50.62,69.52 50.62,69.52" fill="none" stroke="rgb(68, 150, 81)" stroke-width="2.35" stroke-opacity="1.00" stroke-linejoin="round"/>
<path d="M68.68,28.89 C68.68,28.89 68.89,28.90 68.89,28.90 C69.40,29.48 63.04,30.68 50.80,31.62 C46.79,31.58 40.66,31.22 40.14,31.22 C40.04,31.22 39.95,31.23 39.86,31.26" fill="none" stroke="rgb(0, 0, 0)" stroke-width="1.00" stroke-opacity="1.00" stroke-linejoin="round"/>
<path d="M36.17,30.48 C34.26,30.20 32.92,30.06 32.15,29.98 C30.35,29.77 29.99,29.46 29.96,29.37 C29.96,29.37 30.06,29.34 30.06,29.34" fill="none" stroke="rgb(0, 0, 0)" stroke-width="1.00" stroke-opacity="1.00" stroke-linejoin="round"/>
<path d="M28.41,30.27 C28.41,30.27 28.20,30.29 28.20,30.29 C28.18,31.49 30.19,34.19 33.16,36.79 C38.06,41.01 45.78,42.45 45.90,42.41 C45.90,42.41 45.98,42.25 45.98,42.25" fill="none" stroke="rgb(0, 0, 0)" stroke-width="1.00" stroke-opacity="1.00" stroke-linejoin="round"/>
<path d="M70.25,26.70 C70.49,26.90 70.85,27.14 70.97,27.24 C71.02,27.27 71.11,27.37 71.18,27.38 C70.25,25.96 67.30,24.91 66.49,24.90 C66.45,24.90 66.39,24.90 66.32,24.90" fill="none" stroke="rgb(0, 0, 0)" stroke-width="1.00" stroke-opacity="1.00" stroke-linejoin="round"/>
<path d="M71.49,28.31 C71.49,28.34 71.49,28.39 71.49,28.43 C71.50,28.85 71.21,30.28 71.14,30.58 C70.73,32.42 66.92,36.14 66.13,36.85 C65.25,37.55 64.56,38.15 63.43,38.72 C63.26,38.81 62.97,38.96 62.57,39.17" fill="none" stroke="rgb(0, 0, 0)" stroke-width="1.00" stroke-opacity="1.00" stroke-linejoin="round"/>
<path d="M61.05,39.72 C60.70,39.94 58.76,40.83 57.63,41.25 C57.18,41.42 54.18,42.25 53.62,42.67 C53.62,42.67 53.72,42.66 53.72,42.66" fill="none" stroke="rgb(0, 0, 0)" stroke-width="1.00" stroke-opacity="1.00" stroke-linejoin="round"/>
<path d="M33.57,24.69 C33.59,24.69 33.11,24.82 32.59,25.00 C30.39,25.78 29.03,28.35 28.94,28.56 C28.94,28.56 28.95,28.37 28.95,28.37" fill="none" stroke="rgb(0, 0, 0)" stroke-width="1.00" stroke-opacity="1.00" stroke-linejoin="round"/>
<path d="M52.69,43.49 C52.56,43.62 52.47,43.73 52.39,43.97 C51.91,45.58 51.75,46.47 51.76,46.85 C51.76,46.87 51.76,46.92 51.76,46.90" fill="none" stroke="rgb(0, 0, 0)" stroke-width="1.00" stroke-opacity="1.00" stroke-linejoin="round"/>
<path d="M51.03,52.65 C51.03,52.65 51.34,56.82 51.34,56.82" fill="none" stroke="rgb(68, 150, 81)" stroke-width="2.35" stroke-opacity="1.00" stroke-linejoin="round"/>
<path d="M50.24,61.67 C50.24,61.67 50.10,61.55 50.10,61.55 C50.10,61.55 50.03,61.70 50.03,61.70" fill="none" stroke="rgb(68, 150, 81)" stroke-width="2.35" stroke-opacity="1.00" stroke-linejoin="round"/>
<path d="M32.00,18.48 C32.08,18.41 44.43,18.74 47.25,19.40 C47.30,19.41 47.42,19.43 47.60,19.46 C43.70,15.78 34.61,15.50 34.06,15.67 C33.83,16.34 35.39,17.34 37.38,17.54 C41.99,17.97 47.49,17.12 48.19,16.77 C47.55,16.05 44.59,15.09 42.59,14.90 C37.06,14.38 32.66,16.03 32.15,16.29 C32.57,17.11 35.79,17.91 38.90,18.06 C45.34,18.34 49.50,17.01 49.88,16.79 C49.43,15.86 45.91,14.64 43.31,14.46 C40.32,14.29 35.00,15.50 32.96,16.35 C33.10,16.93 35.56,18.35 37.58,18.94 C39.31,19.42 45.49,20.00 48.34,19.62 C51.55,19.18 53.58,18.30 53.60,18.12 C52.74,15.48 34.10,16.26 31.83,16.75 C31.76,17.47 33.20,19.09 34.44,19.81 C35.91,20.63 41.26,21.60 44.17,21.45 C49.12,21.15 52.57,19.41 52.69,19.25 C52.20,18.58 49.43,18.08 45.45,17.89 C42.18,17.78 34.51,17.38 33.75,17.38 C34.32,18.30 36.92,19.88 38.81,20.31 C42.64,21.15 48.62,21.44 52.74,21.18 C56.83,20.90 62.09,20.23 62.29,19.85 C62.06,18.81 59.10,17.89 56.41,17.30 C51.33,16.23 44.71,16.38 42.48,16.94 C42.55,17.69 45.38,19.00 47.52,19.29 C52.61,19.94 57.87,17.90 58.00,17.50 C58.00,17.50 43.52,15.52 43.52,15.52 C44.14,14.74 53.74,14.03 57.73,15.44 C58.40,15.68 58.92,16.16 59.19,16.60 C59.09,17.38 57.16,18.60 55.17,18.79 C53.34,18.95 49.93,18.02 49.10,17.54 C47.70,16.69 46.22,14.68 46.12,14.17 C46.51,13.36 56.79,13.43 60.24,14.74 C62.53,15.63 63.04,17.30 63.02,17.65 C62.58,18.26 60.35,18.88 58.10,18.83 C49.68,18.58 48.11,14.23 48.06,13.81 C48.47,13.14 50.28,12.96 52.42,13.45 C54.87,14.03 67.51,17.91 67.79,18.27 C67.15,19.59 61.03,19.80 59.54,18.92 C58.89,18.51 58.78,17.27 59.42,16.81 C61.29,15.55 66.96,16.58 67.35,17.54 C66.99,18.90 62.32,18.80 60.60,17.46 C59.16,16.30 59.42,15.12 59.54,14.92 C60.00,14.71 64.23,15.23 66.62,15.96 C67.42,16.20 68.10,16.89 68.12,17.62 C68.32,17.60 60.98,20.12 51.04,17.12 C48.19,16.29 42.54,16.47 39.60,16.84 C38.49,16.98 34.24,17.57 33.67,17.62 C32.96,17.70 30.82,16.83 30.75,16.75 C30.75,16.75 31.85,18.23 31.85,18.23 C31.85,18.23 30.73,17.52 30.73,17.52 C30.73,17.52 31.85,18.73 31.85,18.73 C31.77,18.41 31.69,18.22 31.62,18.15 C31.56,18.07 31.41,18.03 31.19,18.00" fill="none" stroke="rgb(116, 75, 46)" stroke-width="3.00" stroke-opacity="1.00" stroke-linejoin="round"/>
<path d="M30.25,83.50 C30.18,83.29 30.13,83.16 30.10,83.10 C30.08,83.05 30.05,82.98 30.01,82.90" fill="none" stroke="rgb(116, 75, 46)" stroke-width="3.00" stroke-opacity="1.00" stroke-linejoin="round"/>
<path d="M30.12,81.62 C30.29,81.55 40.04,80.46 43.08,80.19 C48.05,79.57 55.84,80.00 60.19,80.38 C60.57,80.38 67.39,82.00 67.38,82.00 C65.84,82.13 61.61,82.73 59.67,82.74 C59.44,82.74 45.16,80.10 39.90,80.00 C39.72,80.00 38.92,80.00 38.94,80.00 C39.94,80.15 47.23,80.88 50.04,81.50 C51.80,81.93 54.35,82.54 55.85,82.85 C50.54,83.17 40.37,83.72 39.10,83.15 C38.75,82.98 38.22,82.52 38.25,82.50 C38.25,82.50 51.92,83.12 51.92,83.12 C51.92,83.12 30.38,84.00 30.38,84.00 C40.05,87.40 47.77,85.48 48.08,85.23 C47.37,82.01 31.49,84.52 31.52,84.52 C34.77,85.77 38.28,86.87 41.49,87.26 C44.18,87.56 50.61,87.29 54.37,86.56 C57.62,85.82 64.63,84.31 65.48,84.35 C65.48,84.35 47.29,85.31 47.29,85.31 C47.96,86.37 57.59,86.06 62.18,84.73 C66.08,83.58 68.05,82.33 68.40,81.92 C68.40,81.92 61.81,82.50 61.81,82.50 C61.81,82.50 66.92,82.50 66.92,82.50 C66.92,82.50 59.75,80.67 59.75,80.67 C59.75,80.67 69.25,82.25 69.25,82.25 C69.25,82.25 66.50,83.00 66.50,83.00 C66.50,83.00 59.44,84.21 59.44,84.21 C60.31,85.51 67.85,83.56 68.50,83.17 C68.50,83.17 64.17,83.33 64.17,83.33 C64.17,83.33 68.71,82.42 68.71,82.42 C68.71,82.42 63.25,84.00 63.25,84.00 C63.25,84.00 67.96,82.21 67.96,82.21 C67.96,82.21 66.62,81.25 66.62,81.25 C66.62,81.25 68.12,81.25 68.12,81.25 C66.62,80.25 39.50,79.96 38.40,80.17 C36.09,80.61 32.94,81.61 30.02,83.29 C30.05,83.29 30.97,83.07 31.17,83.04 C31.31,83.02 31.51,83.00 31.75,83.00" fill="none" stroke="rgb(116, 75, 46)" stroke-width="3.00" stroke-opacity="1.00" stroke-linejoin="round"/>
<path d="M29.47,85.12 C29.47,85.12 29.36,85.20 29.36,85.20 C30.53,86.22 35.90,87.53 45.86,88.76 C52.56,89.57 57.78,88.70 66.74,86.37 C68.88,85.81 69.86,84.86 69.96,84.74" fill="none" stroke="rgb(0, 0, 0)" stroke-width="3.00" stroke-opacity="1.00" stroke-linejoin="round"/>
<path d="M29.38,84.94 C28.51,82.31 25.95,77.94 25.47,77.01 C23.70,73.51 23.59,67.72 24.50,65.95 C28.26,58.95 34.42,57.02 37.21,55.68" fill="none" stroke="rgb(0, 0, 0)" stroke-width="3.00" stroke-opacity="1.00" stroke-linejoin="round"/>
<path d="M70.51,84.81 C70.51,84.81 70.97,83.84 70.97,83.84 C71.68,82.79 74.86,77.81 75.34,76.75 C76.35,74.50 77.01,72.34 76.86,69.74 C76.69,67.26 75.62,65.14 72.04,61.06 C69.22,57.94 66.27,57.02 63.50,55.68" fill="none" stroke="rgb(0, 0, 0)" stroke-width="3.00" stroke-opacity="1.00" stroke-linejoin="round"/>
<path d="M38.92,55.41 C38.92,55.41 38.86,55.41 38.86,55.41 C39.26,55.42 40.28,55.10 40.70,54.97 C41.64,54.68 45.53,53.74 46.81,53.20 C47.02,52.47 47.10,51.25 47.15,50.44 C47.17,50.24 47.20,49.97 47.26,49.62 C47.27,49.55 47.28,49.50 47.28,49.47" fill="none" stroke="rgb(0, 0, 0)" stroke-width="3.00" stroke-opacity="1.00" stroke-linejoin="round"/>
<path d="M62.62,55.24 C61.62,55.12 60.95,55.03 60.59,54.96 C59.72,54.77 55.75,53.45 55.00,53.71" fill="none" stroke="rgb(0, 0, 0)" stroke-width="3.00" stroke-opacity="1.00" stroke-linejoin="round"/>
<path d="M55.44,53.18 C55.44,53.18 55.38,53.24 55.38,53.24 C55.38,53.24 55.40,50.06 55.40,50.06 C55.47,50.14 55.51,50.62 55.52,51.47 C55.52,51.63 55.52,51.84 55.51,52.10" fill="none" stroke="rgb(0, 0, 0)" stroke-width="3.00" stroke-opacity="1.00" stroke-linejoin="round"/>
<path d="M60.86,54.95 C60.89,54.95 61.48,55.06 61.61,55.07 C61.66,55.07 61.74,55.07 61.86,55.07" fill="none" stroke="rgb(0, 0, 0)" stroke-width="2.00" stroke-opacity="1.00" stroke-linejoin="round"/>
<path d="M29.77,15.04 C29.77,15.04 29.47,14.88 29.47,14.88 C29.47,14.88 29.36,14.80 29.36,14.80 C30.53,13.78 35.90,12.47 45.86,11.24 C52.56,10.43 57.78,11.30 66.74,13.63 C68.88,14.19 69.86,15.14 69.96,15.26 C69.61,15.88 66.85,17.05 65.86,17.16 C56.26,18.07 41.97,18.41 34.40,17.80 C33.33,17.58 30.77,16.87 30.78,16.77 C30.70,16.62 30.62,16.56 30.50,16.55 C30.48,16.55 30.46,16.55 30.41,16.55" fill="none" stroke="rgb(0, 0, 0)" stroke-width="3.00" stroke-opacity="1.00" stroke-linejoin="round"/>
<path d="M30.00,16.31 C27.69,19.21 26.69,20.64 25.47,22.99 C23.70,26.49 23.59,32.28 24.50,34.05 C28.26,41.05 35.94,43.63 38.46,44.57" fill="none" stroke="rgb(0, 0, 0)" stroke-width="3.00" stroke-opacity="1.00" stroke-linejoin="round"/>
<path d="M69.76,15.81 C70.29,16.43 70.81,17.05 71.34,17.66 C72.87,19.49 75.19,23.51 75.71,24.72 C77.19,28.25 76.50,33.43 75.59,34.79 C70.97,41.46 64.16,44.00 63.50,44.32" fill="none" stroke="rgb(0, 0, 0)" stroke-width="3.00" stroke-opacity="1.00" stroke-linejoin="round"/>
<path d="M38.92,44.59 C38.92,44.59 38.86,44.59 38.86,44.59 C39.26,44.58 40.28,44.90 40.70,45.03 C41.64,45.32 45.53,46.26 46.81,46.80 C47.02,47.53 47.10,48.75 47.15,49.56 C47.17,49.76 47.20,50.03 47.26,50.38 C47.27,50.45 47.28,50.50 47.28,50.53" fill="none" stroke="rgb(0, 0, 0)" stroke-width="3.00" stroke-opacity="1.00" stroke-linejoin="round"/>
<path d="M63.12,44.39 C61.50,44.80 60.25,45.17 59.84,45.29 C58.05,45.84 55.97,46.39 55.73,46.40" fill="none" stroke="rgb(0, 0, 0)" stroke-width="3.00" stroke-opacity="1.00" stroke-linejoin="round"/>
<path d="M55.44,46.82 C55.44,46.82 55.38,46.76 55.38,46.76 C55.38,46.76 55.40,49.94 55.40,49.94 C55.47,49.86 55.51,49.38 55.52,48.53 C55.52,48.37 55.52,48.16 55.51,47.90" fill="none" stroke="rgb(0, 0, 0)" stroke-width="3.00" stroke-opacity="1.00" stroke-linejoin="round"/>
<path d="M29.75,17.00 C29.75,17.00 29.88,16.92 29.88,16.92" fill="none" stroke="rgb(0, 0, 0)" stroke-width="3.00" stroke-opacity="1.00" stroke-linejoin="round"/>
<path d="M29.12,20.38 C29.12,20.38 28.88,20.12 28.88,20.12 C30.81,21.07 34.58,22.10 41.19,22.75 C45.84,23.29 54.45,22.84 58.52,22.73 C65.31,22.30 71.70,20.00 71.75,20.00" fill="none" stroke="rgb(0, 0, 0)" stroke-width="3.00" stroke-opacity="1.00" stroke-linejoin="round"/>
<path d="M27.85,80.42 C29.52,82.15 42.14,84.33 43.60,84.38 C48.18,84.44 56.54,84.52 58.04,84.19 C58.84,84.01 70.90,81.12 72.35,80.02" fill="none" stroke="rgb(0, 0, 0)" stroke-width="3.00" stroke-opacity="1.00" stroke-linejoin="round"/>
<path d="M30.12,81.50 C30.18,81.41 34.97,79.33 38.19,78.65 C41.22,78.01 51.43,77.67 54.58,77.75 C63.82,78.02 71.70,80.65 71.85,80.73" fill="none" stroke="rgb(0, 0, 0)" stroke-width="3.00" stroke-opacity="1.00" stroke-linejoin="round"/>
<path d="M51.65,47.83 C51.65,47.83 51.75,48.11 51.75,48.11" fill="none" stroke="rgb(0, 0, 0)" stroke-width="1.00" stroke-opacity="1.00" stroke-linejoin="round"/>
<path d="M50.52,67.25 C50.24,67.26 49.93,67.30 49.71,67.37 C48.74,67.72 49.16,70.64 50.21,70.85 C50.68,70.92 51.16,70.78 51.57,70.59 C51.57,70.59 51.65,70.14 51.65,70.14" fill="none" stroke="rgb(0, 0, 0)" stroke-width="1.00" stroke-opacity="1.00" stroke-linejoin="round"/>
<path d="M50.45,76.70 C50.45,76.70 50.34,76.34 50.34,76.34 C50.34,76.34 49.02,78.62 49.02,78.62 C49.02,78.62 51.32,79.06 51.32,79.06 C51.32,79.06 50.24,76.03 50.24,76.03 C50.24,76.03 49.62,79.03 49.62,79.03 C49.62,79.03 48.81,79.73 48.81,79.73 C48.81,79.73 51.58,79.86 51.58,79.86 C51.58,79.86 50.76,78.01 50.76,78.01 C50.76,78.27 50.76,78.53 50.76,78.79 C50.76,78.83 50.76,78.88 50.76,78.93" fill="none" stroke="rgb(68, 150, 81)" stroke-width="2.35" stroke-opacity="1.00" stroke-linejoin="round"/>
<path d="M50.96,74.74 C50.96,74.74 51.00,74.38 51.00,74.38 C51.03,74.41 53.36,78.85 52.99,79.63 C52.21,81.12 49.06,80.94 48.95,80.91 C48.88,80.88 48.80,80.78 48.70,80.59" fill="none" stroke="rgb(0, 0, 0)" stroke-width="1.00" stroke-opacity="1.00" stroke-linejoin="round"/>
<path d="M49.52,74.28 C49.52,74.28 49.41,74.17 49.41,74.17 C49.28,74.22 47.83,77.82 47.73,78.48 C47.49,80.14 48.72,80.81 48.88,80.79" fill="none" stroke="rgb(0, 0, 0)" stroke-width="1.00" stroke-opacity="1.00" stroke-linejoin="round"/>
<path d="M50.45,59.92 C50.57,59.92 50.69,59.92 50.81,59.92 C52.96,59.94 50.65,62.70 49.84,62.96 C49.67,63.02 49.21,63.01 49.10,63.02" fill="none" stroke="rgb(0, 0, 0)" stroke-width="1.00" stroke-opacity="1.00" stroke-linejoin="round"/>
<path d="M50.96,49.67 C50.93,51.91 51.86,56.65 51.89,56.82 C51.98,57.30 51.57,57.74 51.00,58.13 C51.00,58.13 50.65,57.44 50.65,57.44" fill="none" stroke="rgb(0, 0, 0)" stroke-width="1.00" stroke-opacity="1.00" stroke-linejoin="round"/>
</g>
</svg>
