<?xml version="1.0" encoding="UTF-8" standalone="no"?>
<!DOCTYPE svg PUBLIC "-//W3C//DTD SVG 1.1//EN" "http://www.w3.org/Graphics/SVG/1.1/DTD/svg11.dtd">
<svg width="100.00" height="100.00" viewBox="0.00 0.00 100.00 100.00" xmlns="http://www.w3.org/2000/svg" xmlns:xlink="http://www.w3.org/1999/xlink">
<g stroke-linecap="round" id="圖層_3_的複製">
<path d="M32.00,18.48 C32.08,18.41 44.43,18.74 47.25,19.40 C47.30,19.41 47.42,19.43 47.60,19.46 C43.70,15.78 34.61,15.50 34.06,15.67 C33.83,16.34 35.39,17.34 37.38,17.54 C41.99,17.97 47.49,17.12 48.19,16.77 C47.55,16.05 44.59,15.09 42.59,14.90 C37.06,14.38 32.66,16.03 32.15,16.29 C32.57,17.11 35.79,17.91 38.90,18.06 C45.34,18.34 49.50,17.01 49.88,16.79 C49.43,15.86 45.91,14.64 43.31,14.46 C40.32,14.29 35.00,15.50 32.96,16.35 C33.10,16.93 35.56,18.35 37.58,18.94 C39.31,19.42 45.49,20.00 48.34,19.62 C51.55,19.18 53.58,18.30 53.60,18.12 C52.74,15.48 34.10,16.26 31.83,16.75 C31.76,17.47 33.20,19.09 34.44,19.81 C35.91,20.63 41.26,21.60 44.17,21.45 C49.12,21.15 52.57,19.41 52.69,19.25 C52.20,18.58 49.43,18.08 45.45,17.89 C42.18,17.78 34.51,17.38 33.75,17.38 C34.32,18.30 36.92,19.88 38.81,20.31 C42.64,21.15 48.62,21.44 52.74,21.18 C56.83,20.90 62.09,20.23 62.29,19.85 C62.06,18.81 59.10,17.89 56.41,17.30 C51.33,16.23 44.71,16.38 42.48,16.94 C42.55,17.69 45.38,19.00 47.52,19.29 C52.61,19.94 57.87,17.90 58.00,17.50 C58.00,17.50 43.52,15.52 43.52,15.52 C44.14,14.74 53.74,14.03 57.73,15.44 C58.40,15.68 58.92,16.16 59.19,16.60 C59.09,17.38 57.16,18.60 55.17,18.79 C53.34,18.95 49.93,18.02 49.10,17.54 C47.70,16.69 46.22,14.68 46.12,14.17 C46.51,13.36 56.79,13.43 60.24,14.74 C62.53,15.63 63.04,17.30 63.02,17.65 C62.58,18.26 60.35,18.88 58.10,18.83 C49.68,18.58 48.11,14.23 48.06,13.81 C48.47,13.14 50.28,12.96 52.42,13.45 C54.87,14.03 67.51,17.91 67.79,18.27 C67.15,19.59 61.03,19.80 59.54,18.92 C58.89,18.51 58.78,17.27 59.42,16.81 C61.29,15.55 66.96,16.58 67.35,17.54 C66.99,18.90 62.32,18.80 60.60,17.46 C59.16,16.30 59.42,15.12 59.54,14.92 C60.00,14.71 64.23,15.23 66.62,15.96 C67.42,16.20 68.10,16.89 68.12,17.62 C68.32,17.60 60.98,20.12 51.04,17.12 C48.19,16.29 42.54,16.47 39.60,16.84 C38.49,16.98 34.24,17.57 33.67,17.62 C32.96,17.70 30.82,16.83 30.75,16.75 C30.75,16.75 31.85,18.23 31.85,18.23 C31.85,18.23 30.73,17.52 30.73,17.52 C30.73,17.52 31.85,18.73 31.85,18.73 C31.77,18.41 31.69,18.22 31.62,18.15 C31.56,18.07 31.41,18.03 31.19,18.00" fill="none" stroke="rgb(116, 75, 46)" stroke-width="3.00" stroke-opacity="1.00" stroke-linejoin="round"/>
<path d="M30.25,83.50 C30.18,83.29 30.13,83.16 30.10,83.10 C30.08,83.05 30.05,82.98 30.01,82.90" fill="none" stroke="rgb(116, 75, 46)" stroke-width="3.00" stroke-opacity="1.00" stroke-linejoin="round"/>
<path d="M30.12,81.62 C30.29,81.55 40.04,80.46 43.08,80.19 C48.05,79.57 55.84,80.00 60.19,80.38 C60.57,80.38 67.39,82.00 67.38,82.00 C65.84,82.13 61.61,82.73 59.67,82.74 C59.44,82.74 45.16,80.10 39.90,80.00 C39.72,80.00 38.92,80.00 38.94,80.00 C39.94,80.15 47.23,80.88 50.04,81.50 C51.80,81.93 54.35,82.54 55.85,82.85 C50.54,83.17 40.37,83.72 39.10,83.15 C38.75,82.98 38.22,82.52 38.25,82.50 C38.25,82.50 51.92,83.12 51.92,83.12 C51.92,83.12 30.38,84.00 30.38,84.00 C40.05,87.40 47.77,85.48 48.08,85.23 C47.37,82.01 31.49,84.52 31.52,84.52 C34.77,85.77 38.28,86.87 41.49,87.26 C44.18,87.56 50.61,87.29 54.37,86.56 C57.62,85.82 64.63,84.31 65.48,84.35 C65.48,84.35 47.29,85.31 47.29,85.31 C47.96,86.37 57.59,86.06 62.18,84.73 C66.08,83.58 68.05,82.33 68.40,81.92 C68.40,81.92 61.81,82.50 61.81,82.50 C61.81,82.50 66.92,82.50 66.92,82.50 C66.92,82.50 59.75,80.67 59.75,80.67 C59.75,80.67 69.25,82.25 69.25,82.25 C69.25,82.25 66.50,83.00 66.50,83.00 C66.50,83.00 59.44,84.21 59.44,84.21 C60.31,85.51 67.85,83.56 68.50,83.17 C68.50,83.17 64.17,83.33 64.17,83.33 C64.17,83.33 68.71,82.42 68.71,82.42 C68.71,82.42 63.25,84.00 63.25,84.00 C63.25,84.00 67.96,82.21 67.96,82.21 C67.96,82.21 66.62,81.25 66.62,81.25 C66.62,81.25 68.12,81.25 68.12,81.25 C66.62,80.25 39.50,79.96 38.40,80.17 C36.09,80.61 32.94,81.61 30.02,83.29 C30.05,83.29 30.97,83.07 31.17,83.04 C31.31,83.02 31.51,83.00 31.75,83.00" fill="none" stroke="rgb(116, 75, 46)" stroke-width="3.00" stroke-opacity="1.00" stroke-linejoin="round"/>
<path d="M29.47,85.12 C29.47,85.12 29.36,85.20 29.36,85.20 C30.53,86.22 35.90,87.53 45.86,88.76 C52.56,89.57 57.78,88.70 66.74,86.37 C68.88,85.81 69.86,84.86 69.96,84.74" fill="none" stroke="rgb(0, 0, 0)" stroke-width="3.00" stroke-opacity="1.00" stroke-linejoin="round"/>
<path d="M29.38,84.94 C28.51,82.31 25.95,77.94 25.47,77.01 C23.70,73.51 23.59,67.72 24.50,65.95 C28.26,58.95 34.42,57.02 37.21,55.68" fill="none" stroke="rgb(0, 0, 0)" stroke-width="3.00" stroke-opacity="1.00" stroke-linejoin="round"/>
<path d="M70.51,84.81 C70.51,84.81 71.38,83.94 71.38,83.94 C71.89,83.11 74.46,79.55 75.31,77.18 C76.75,73.07 76.92,67.72 76.04,65.95 C72.40,58.95 66.27,57.02 63.50,55.68" fill="none" stroke="rgb(0, 0, 0)" stroke-width="3.00" stroke-opacity="1.00" stroke-linejoin="round"/>
<path d="M38.92,55.41 C38.92,55.41 38.86,55.41 38.86,55.41 C39.26,55.42 40.28,55.10 40.70,54.97 C41.64,54.68 45.53,53.74 46.81,53.20 C47.02,52.47 47.10,51.25 47.15,50.44 C47.17,50.24 47.20,49.97 47.26,49.62 C47.27,49.55 47.28,49.50 47.28,49.47" fill="none" stroke="rgb(0, 0, 0)" stroke-width="3.00" stroke-opacity="1.00" stroke-linejoin="round"/>
<path d="M62.62,55.24 C61.62,55.12 60.95,55.03 60.59,54.96 C59.72,54.77 55.75,53.45 55.00,53.71" fill="none" stroke="rgb(0, 0, 0)" stroke-width="3.00" stroke-opacity="1.00" stroke-linejoin="round"/>
<path d="M55.44,53.18 C55.44,53.18 55.38,53.24 55.38,53.24 C55.38,53.24 55.40,50.06 55.40,50.06 C55.47,50.14 55.51,50.62 55.52,51.47 C55.52,51.63 55.52,51.84 55.51,52.10" fill="none" stroke="rgb(0, 0, 0)" stroke-width="3.00" stroke-opacity="1.00" stroke-linejoin="round"/>
<path d="M60.86,54.95 C60.89,54.95 61.48,55.06 61.61,55.07 C61.66,55.07 61.74,55.07 61.86,55.07" fill="none" stroke="rgb(0, 0, 0)" stroke-width="2.00" stroke-opacity="1.00" stroke-linejoin="round"/>
<path d="M29.77,15.04 C29.77,15.04 29.47,14.88 29.47,14.88 C29.47,14.88 29.36,14.80 29.36,14.80 C30.53,13.78 35.90,12.47 45.86,11.24 C52.56,10.43 57.78,11.30 66.74,13.63 C68.88,14.19 69.86,15.14 69.96,15.26 C69.61,15.88 66.85,17.05 65.86,17.16 C56.26,18.07 41.97,18.41 34.40,17.80 C33.33,17.58 30.77,16.87 30.78,16.77 C30.70,16.62 30.62,16.56 30.50,16.55 C30.48,16.55 30.46,16.55 30.41,16.55" fill="none" stroke="rgb(0, 0, 0)" stroke-width="3.00" stroke-opacity="1.00" stroke-linejoin="round"/>
<path d="M30.00,16.31 C27.69,19.21 26.69,20.64 25.47,22.99 C23.70,26.49 23.59,32.28 24.50,34.05 C28.26,41.05 35.94,43.63 38.46,44.57" fill="none" stroke="rgb(0, 0, 0)" stroke-width="3.00" stroke-opacity="1.00" stroke-linejoin="round"/>
<path d="M69.76,15.81 C70.29,16.43 70.81,17.05 71.34,17.66 C72.87,19.49 75.19,23.51 75.71,24.72 C77.19,28.25 76.50,33.43 75.59,34.79 C70.97,41.46 64.16,44.00 63.50,44.32" fill="none" stroke="rgb(0, 0, 0)" stroke-width="3.00" stroke-opacity="1.00" stroke-linejoin="round"/>
<path d="M38.92,44.59 C38.92,44.59 38.86,44.59 38.86,44.59 C39.26,44.58 40.28,44.90 40.70,45.03 C41.64,45.32 45.53,46.26 46.81,46.80 C47.02,47.53 47.10,48.75 47.15,49.56 C47.17,49.76 47.20,50.03 47.26,50.38 C47.27,50.45 47.28,50.50 47.28,50.53" fill="none" stroke="rgb(0, 0, 0)" stroke-width="3.00" stroke-opacity="1.00" stroke-linejoin="round"/>
<path d="M63.12,44.39 C61.50,44.80 60.25,45.17 59.84,45.29 C58.05,45.84 55.97,46.39 55.73,46.40" fill="none" stroke="rgb(0, 0, 0)" stroke-width="3.00" stroke-opacity="1.00" stroke-linejoin="round"/>
<path d="M55.44,46.82 C55.44,46.82 55.38,46.76 55.38,46.76 C55.38,46.76 55.40,49.94 55.40,49.94 C55.47,49.86 55.51,49.38 55.52,48.53 C55.52,48.37 55.52,48.16 55.51,47.90" fill="none" stroke="rgb(0, 0, 0)" stroke-width="3.00" stroke-opacity="1.00" stroke-linejoin="round"/>
<path d="M29.75,17.00 C29.75,17.00 29.88,16.92 29.88,16.92" fill="none" stroke="rgb(0, 0, 0)" stroke-width="3.00" stroke-opacity="1.00" stroke-linejoin="round"/>
<path d="M29.12,20.38 C29.12,20.38 28.88,20.12 28.88,20.12 C30.81,21.07 34.58,22.10 41.19,22.75 C45.84,23.29 54.45,22.84 58.52,22.73 C65.31,22.30 71.70,20.00 71.75,20.00" fill="none" stroke="rgb(0, 0, 0)" stroke-width="3.00" stroke-opacity="1.00" stroke-linejoin="round"/>
<path d="M27.85,80.42 C29.52,82.15 42.14,84.33 43.60,84.38 C48.18,84.44 56.54,84.52 58.04,84.19 C58.84,84.01 70.90,81.12 72.35,80.02" fill="none" stroke="rgb(0, 0, 0)" stroke-width="3.00" stroke-opacity="1.00" stroke-linejoin="round"/>
<path d="M30.12,81.50 C30.18,81.41 34.97,79.33 38.19,78.65 C41.22,78.01 51.43,77.67 54.58,77.75 C63.82,78.02 71.70,80.65 71.85,80.73" fill="none" stroke="rgb(0, 0, 0)" stroke-width="3.00" stroke-opacity="1.00" stroke-linejoin="round"/>
<path d="M68.84,32.70 C68.84,32.70 69.17,32.58 69.17,32.58 C67.13,34.23 63.60,34.60 60.79,35.20 C55.64,36.26 41.85,35.09 37.86,34.82 C37.15,34.75 32.81,34.10 32.50,34.08 C32.75,34.33 48.04,37.50 57.05,37.09 C60.43,36.92 63.16,35.82 64.25,34.79 C64.60,34.42 67.73,33.02 67.82,32.92 C67.93,32.03 58.65,31.33 55.29,31.07 C46.89,30.30 32.86,31.44 31.02,32.72 C30.78,32.89 30.76,33.18 30.79,33.31 C32.14,34.72 43.74,35.60 50.61,36.63 C53.71,37.08 57.05,37.13 58.96,36.80 C60.08,36.60 66.18,35.05 66.50,34.81 C66.50,34.81 57.57,34.24 57.57,34.24 C57.57,34.24 67.16,33.88 67.16,33.88 C67.16,33.88 52.97,33.11 52.97,33.11 C52.97,33.11 66.00,33.57 66.00,33.57 C66.07,33.55 62.18,32.74 59.00,32.62 C51.76,32.38 46.56,32.85 46.58,33.04 C51.87,36.12 64.33,33.88 64.81,33.71 C64.81,33.71 41.85,33.98 41.85,33.98 C41.85,33.98 59.80,35.77 59.80,35.77 C59.80,35.77 39.74,34.35 39.74,34.35 C39.74,34.35 53.45,34.65 53.45,34.65 C50.98,31.96 35.14,33.60 33.84,33.84 C37.03,34.46 45.04,34.38 46.44,33.22 C46.44,33.22 33.21,33.14 33.21,33.14 C33.21,33.14 43.39,33.37 43.39,33.37 C43.39,33.37 32.10,32.71 32.10,32.71 C35.42,34.32 42.47,33.18 43.88,32.47 C43.88,32.47 32.63,32.62 32.63,32.62 C33.25,33.76 38.99,34.01 44.35,33.25 C45.27,33.12 46.05,33.06 46.93,33.03 C47.19,33.03 47.45,33.02 47.71,33.01" fill="none" stroke="rgb(150, 128, 68)" stroke-width="1.00" stroke-opacity="1.00" stroke-linejoin="round"/>
<path d="M64.66,33.98 C64.72,33.95 64.79,33.92 64.89,33.90 C64.98,33.88 65.22,33.83 65.61,33.75 C65.38,35.24 60.33,37.57 58.69,37.84 C58.69,37.84 66.42,33.54 66.42,33.54 C66.46,34.26 60.40,39.46 58.52,39.55 C58.38,39.55 58.18,39.54 57.94,39.51 C57.78,38.74 59.56,37.26 60.81,36.52 C64.40,34.41 66.59,33.81 67.27,33.79 C67.38,34.13 65.67,36.26 63.98,37.77 C61.48,39.96 56.10,40.89 55.27,40.36 C55.03,39.75 64.12,34.47 67.06,34.02 C67.27,33.99 67.51,33.97 67.78,33.98 C67.56,34.63 62.78,38.60 60.70,39.79 C58.51,41.01 54.16,41.92 54.13,41.57 C53.85,40.35 60.73,35.95 64.41,34.89 C64.41,34.89 50.42,41.82 50.42,41.82 C50.25,40.94 52.51,38.75 54.32,37.78 C56.37,36.71 58.61,36.04 59.34,36.02 C59.34,36.02 49.24,40.08 49.24,40.08 C49.24,40.08 59.60,34.56 59.60,34.56 C59.60,34.56 46.44,37.73 46.44,37.73 C46.40,37.68 49.60,35.10 51.11,34.53 C52.74,33.93 55.32,34.16 55.98,34.49 C56.81,34.97 57.19,35.98 57.12,36.55 C52.84,39.90 46.02,35.94 45.59,35.45 C47.33,34.57 52.40,36.75 52.94,37.71 C49.93,38.94 44.54,36.49 41.31,34.70 C41.31,34.70 49.66,39.98 49.66,39.98 C49.66,39.98 38.98,35.38 38.98,35.38 C39.82,35.02 42.62,35.90 44.51,36.97 C46.18,37.94 48.82,40.27 48.71,40.34 C48.71,40.34 34.72,33.28 34.72,33.28 C36.01,32.88 41.98,36.87 45.59,40.08 C45.59,40.08 32.35,33.12 32.35,33.12 C32.35,33.12 38.16,35.95 38.16,35.95 C38.16,35.95 31.99,32.65 31.99,32.65 C32.08,33.26 33.80,34.96 34.86,35.77 C37.57,37.80 41.67,38.70 42.27,38.84 C42.27,38.84 32.18,33.86 32.18,33.86 C32.46,33.97 43.13,40.87 46.70,41.02 C47.08,40.35 42.06,38.05 38.94,37.86 C38.67,37.84 38.12,37.84 37.29,37.84 C37.29,37.84 50.85,42.37 50.85,42.37 C50.85,42.37 40.83,39.09 40.83,39.09 C40.83,39.09 52.77,41.48 52.77,41.48 C51.66,42.61 45.64,42.46 44.03,40.97 C43.98,40.91 43.91,40.81 43.83,40.68 C44.52,39.90 51.12,42.51 51.48,43.07 C51.50,43.11 51.51,43.17 51.52,43.26 C51.52,43.26 44.81,42.05 44.81,42.05 C45.08,42.04 45.28,42.04 45.42,42.05 C45.55,42.05 45.80,42.05 46.17,42.06" fill="none" stroke="rgb(150, 128, 68)" stroke-width="1.00" stroke-opacity="1.00" stroke-linejoin="round"/>
<path d="M50.11,42.27 C50.11,42.27 50.23,42.27 50.23,42.27 C50.23,42.27 50.80,45.57 50.80,45.57 C50.80,45.57 49.66,42.97 49.66,42.97 C50.00,43.83 50.95,45.52 50.80,49.28 C50.78,49.54 50.68,50.23 50.68,50.76 C50.68,50.76 51.02,44.58 51.02,44.58 C51.02,44.58 50.91,55.61 50.91,55.61 C50.91,55.61 50.91,47.73 50.91,47.73 C50.91,47.73 50.80,56.44 50.80,56.44 C50.80,56.44 50.80,56.25 50.80,56.25" fill="none" stroke="rgb(150, 128, 68)" stroke-width="1.00" stroke-opacity="1.00" stroke-linejoin="round"/>
<path d="M50.74,60.85 C50.74,60.85 50.83,60.70 50.83,60.70 C50.83,60.70 50.45,62.94 50.45,62.94 C50.45,62.94 50.63,61.02 50.63,61.02 C50.84,61.16 50.44,62.14 50.36,62.20 C50.31,62.23 50.27,62.26 50.23,62.27" fill="none" stroke="rgb(150, 128, 68)" stroke-width="1.00" stroke-opacity="1.00" stroke-linejoin="round"/>
<path d="M61.50,78.18 C61.50,78.18 61.69,78.40 61.69,78.40" fill="none" stroke="rgb(150, 128, 68)" stroke-width="1.00" stroke-opacity="1.00" stroke-linejoin="round"/>
<path d="M64.89,78.98 C64.89,78.98 52.23,67.50 52.23,67.50 C52.23,67.50 52.18,67.50 52.18,67.50" fill="none" stroke="rgb(150, 128, 68)" stroke-width="1.00" stroke-opacity="1.00" stroke-linejoin="round"/>
<path d="M50.08,69.06 C50.08,69.06 50.39,68.95 50.39,68.95 C49.25,68.83 48.46,68.89 47.37,69.23 C40.65,71.40 36.39,78.62 36.40,78.62 C36.40,78.62 36.07,79.05 36.07,79.05" fill="none" stroke="rgb(150, 128, 68)" stroke-width="1.00" stroke-opacity="1.00" stroke-linejoin="round"/>
<path d="M35.23,78.75 C35.23,78.75 35.23,78.52 35.23,78.52 C35.22,78.65 35.22,78.74 35.23,78.81 C35.29,79.11 35.65,79.53 36.02,79.68 C36.10,79.71 36.32,79.76 36.69,79.85 C36.77,79.87 36.84,79.88 36.90,79.91" fill="none" stroke="rgb(150, 128, 68)" stroke-width="1.00" stroke-opacity="1.00" stroke-linejoin="round"/>
<path d="M63.69,78.86 C63.69,78.86 63.98,78.86 63.98,78.86 C64.18,79.03 55.53,81.12 51.17,81.36 C47.48,81.56 41.32,80.06 37.61,79.43 C37.43,79.40 36.93,79.15 36.36,78.98 C37.46,80.37 41.75,80.61 44.15,80.36 C44.42,80.34 44.75,80.33 45.13,80.34" fill="none" stroke="rgb(150, 128, 68)" stroke-width="1.00" stroke-opacity="1.00" stroke-linejoin="round"/>
<path d="M59.89,75.80 C60.18,75.91 60.42,75.99 60.59,76.04 C62.18,76.53 63.99,78.08 64.07,78.14 C64.10,78.17 64.13,78.18 64.17,78.18 C64.17,78.18 54.68,71.48 54.68,71.48 C54.68,71.48 61.00,76.53 61.00,76.53 C61.00,76.53 51.04,68.81 51.04,68.81 C51.04,68.81 60.19,78.22 60.19,78.22 C60.19,78.22 49.34,69.45 49.34,69.45 C49.34,69.45 59.30,78.64 59.30,78.64 C54.81,79.05 49.18,71.27 49.13,71.14 C51.92,71.14 57.47,78.40 57.82,78.94 C57.76,78.98 56.11,78.93 55.02,78.52 C51.82,77.27 46.98,71.42 47.12,70.74 C48.14,70.53 49.32,71.32 49.86,71.83 C52.07,74.00 54.14,78.38 53.92,78.96 C52.72,79.76 48.86,78.74 46.68,76.58 C44.60,74.49 43.35,72.44 43.13,71.86 C43.51,71.62 45.78,72.29 47.46,73.62 C49.96,75.63 51.54,79.53 51.21,80.59 C50.32,81.31 48.65,80.89 47.82,79.49 C47.46,78.84 46.90,76.59 46.88,75.59 C46.86,73.03 49.11,69.61 49.70,69.17 C50.20,70.08 49.39,74.24 48.71,75.44 C47.85,76.88 46.75,77.26 46.19,77.31 C45.49,76.17 46.00,74.89 46.14,74.62 C46.17,74.55 46.23,74.46 46.31,74.35" fill="none" stroke="rgb(150, 128, 68)" stroke-width="1.00" stroke-opacity="1.00" stroke-linejoin="round"/>
<path d="M50.85,71.93 C50.85,71.93 54.19,72.50 54.19,72.50 C54.19,72.50 50.85,68.20 50.85,68.20 C50.76,68.94 51.39,70.70 52.20,71.36 C52.93,71.93 54.18,71.48 54.45,70.68 C54.66,69.99 53.94,69.06 53.07,68.81 C51.73,68.48 50.29,68.12 50.19,68.09 C50.19,68.09 52.22,70.49 52.22,70.49 C52.46,70.15 52.49,68.99 52.12,68.66 C51.62,68.23 50.20,68.28 49.49,68.64 C47.86,69.51 43.60,74.56 42.41,75.87 C42.41,75.87 50.15,68.60 50.15,68.60 C50.15,68.60 40.30,76.21 40.30,76.21 C40.30,76.21 48.14,68.67 48.14,68.67 C48.14,68.67 40.59,75.23 40.59,75.23 C40.77,75.17 41.06,74.86 41.23,74.62 C41.29,74.54 41.34,74.47 41.39,74.39" fill="none" stroke="rgb(150, 128, 68)" stroke-width="1.00" stroke-opacity="1.00" stroke-linejoin="round"/>
<path d="M48.30,72.73 C48.30,72.73 49.55,71.48 49.55,71.48 C49.04,72.02 45.07,76.73 43.58,77.93 C41.98,79.21 41.49,79.22 41.04,79.11 C40.82,75.09 47.55,71.08 47.99,71.02 C47.98,72.34 43.86,77.07 42.13,77.59 C41.31,77.80 40.67,77.61 40.47,77.39 C40.25,76.18 44.86,73.11 45.91,72.88 C45.64,75.13 40.46,78.48 39.38,78.37 C39.00,76.24 42.35,74.50 43.41,74.07 C43.86,74.91 42.86,76.13 41.84,76.86 C40.71,77.64 38.45,78.20 38.13,78.18 C38.13,78.18 42.33,75.36 42.33,75.36 C42.33,75.36 38.98,78.52 38.98,78.52 C39.07,77.64 45.49,74.49 47.82,74.26 C48.60,74.20 49.09,74.47 49.53,74.85 C49.56,76.60 43.93,79.69 41.88,79.68 C41.48,79.67 41.19,79.51 40.78,79.13 C40.79,78.33 42.49,76.79 45.69,75.01 C47.56,73.99 49.83,73.30 50.70,73.37 C50.97,74.43 47.50,78.54 45.17,79.64 C44.24,80.06 43.68,80.02 43.11,79.85 C42.66,78.66 43.62,77.02 45.80,75.59 C47.30,74.62 49.20,74.02 49.89,74.03 C50.61,74.06 51.23,75.15 50.91,76.10 C49.43,80.16 44.90,78.83 44.64,78.62 C44.92,77.16 51.73,73.95 52.97,74.20 C53.11,74.23 53.30,74.34 53.54,74.53 C54.03,75.66 50.61,78.67 48.50,79.15 C46.61,79.56 45.60,79.29 45.25,79.09 C45.76,77.76 48.31,76.02 49.12,75.64 C52.66,74.02 54.09,75.05 54.36,75.51 C54.39,76.43 52.89,78.11 51.36,78.66 C49.60,79.25 47.22,79.29 46.70,78.83 C47.01,77.89 50.08,75.74 51.23,75.30 C53.65,74.40 54.81,75.29 55.02,75.70 C54.69,77.30 51.57,79.47 49.63,79.76 C48.94,79.85 47.61,79.79 46.82,79.43 C46.86,78.47 49.33,77.09 51.08,76.55 C53.98,75.69 57.29,76.10 57.75,77.05 C55.80,79.12 50.37,79.31 48.92,79.07 C49.12,78.35 57.41,77.16 58.56,77.69 C58.84,77.82 59.03,78.09 59.09,78.30 C59.09,78.30 52.20,79.24 52.20,79.24 C52.09,78.71 59.39,77.28 60.87,77.84 C61.09,77.93 61.21,78.04 61.23,78.12 C61.23,78.12 54.70,79.02 54.70,79.02 C54.70,79.02 61.52,78.52 61.52,78.52 C61.52,78.52 52.33,79.43 52.33,79.43 C52.33,79.43 61.97,77.97 61.97,77.97 C61.65,79.16 50.83,80.49 47.58,79.98 C45.33,79.61 44.26,79.30 44.26,79.17 C46.64,77.80 51.98,78.82 52.56,79.17 C52.02,80.02 43.83,80.11 42.16,78.98 C42.16,78.98 47.50,77.61 47.50,77.61 C47.50,77.61 47.39,77.61 47.39,77.61" fill="none" stroke="rgb(150, 128, 68)" stroke-width="1.00" stroke-opacity="1.00" stroke-linejoin="round"/>
<path d="M50.00,61.36 C50.00,61.36 50.27,60.83 50.27,60.83 C51.19,60.74 51.53,62.60 50.59,62.69 C50.13,62.72 49.30,61.88 49.34,61.50 C49.43,60.99 50.79,60.45 51.12,60.72 C51.12,60.72 51.27,62.20 51.27,62.20 C51.09,62.27 50.88,62.28 50.72,62.22 C50.60,62.16 50.42,62.01 50.28,61.87 C50.27,61.85 50.25,61.84 50.23,61.82" fill="none" stroke="rgb(150, 128, 68)" stroke-width="1.00" stroke-opacity="1.00" stroke-linejoin="round"/>
<path d="M48.52,70.68 C48.59,70.67 49.02,72.38 47.22,72.73 C47.22,72.73 49.09,70.45 49.09,70.45 C49.09,70.45 48.64,71.36 48.64,71.36 C48.64,71.36 48.86,71.16 48.86,71.16" fill="none" stroke="rgb(150, 128, 68)" stroke-width="1.00" stroke-opacity="1.00" stroke-linejoin="round"/>
<path d="M68.98,31.76 C68.78,32.48 67.97,33.20 66.25,33.92 C60.05,36.47 42.54,35.91 39.45,35.91 C38.48,35.91 30.48,33.75 30.45,33.75 C30.45,33.75 30.45,33.64 30.45,33.64" fill="none" stroke="rgb(0, 0, 0)" stroke-width="1.00" stroke-opacity="1.00" stroke-linejoin="round"/>
<path d="M68.81,32.73 C68.81,32.73 68.86,32.84 68.86,32.84 C68.86,32.79 67.93,31.42 59.07,30.83 C57.08,30.77 52.96,30.55 52.18,30.63 C51.94,30.66 50.00,31.01 49.19,31.16 C49.01,31.19 48.83,31.22 48.65,31.25" fill="none" stroke="rgb(0, 0, 0)" stroke-width="1.00" stroke-opacity="1.00" stroke-linejoin="round"/>
<path d="M47.84,30.23 C47.85,30.23 47.83,30.23 47.82,30.23 C46.21,30.21 42.77,30.59 40.63,30.78 C36.20,31.22 30.63,33.57 30.34,33.71 C30.31,33.73 30.27,33.74 30.23,33.75" fill="none" stroke="rgb(0, 0, 0)" stroke-width="1.00" stroke-opacity="1.00" stroke-linejoin="round"/>
<path d="M69.43,33.15 C69.43,33.15 69.49,33.15 69.49,33.15 C69.51,33.72 66.93,37.47 64.50,38.70 C63.93,38.98 58.97,41.39 57.28,42.19 C55.91,42.83 53.98,42.93 53.71,43.12 C53.64,43.18 53.52,43.31 53.38,43.52 C53.35,43.56 53.34,43.58 53.34,43.58" fill="none" stroke="rgb(0, 0, 0)" stroke-width="1.00" stroke-opacity="1.00" stroke-linejoin="round"/>
<path d="M52.39,43.41 C52.40,43.41 52.40,43.43 52.39,43.48 C52.34,43.73 52.20,44.62 52.08,45.59 C52.07,45.74 52.05,45.86 52.05,45.94" fill="none" stroke="rgb(0, 0, 0)" stroke-width="1.00" stroke-opacity="1.00" stroke-linejoin="round"/>
<path d="M30.80,33.75 C30.75,33.94 31.79,35.42 32.61,36.10 C33.35,36.69 40.48,40.38 42.97,41.53 C44.38,42.29 49.22,42.47 49.64,42.84 C49.70,42.90 49.74,42.97 49.77,43.05" fill="none" stroke="rgb(0, 0, 0)" stroke-width="1.00" stroke-opacity="1.00" stroke-linejoin="round"/>
<path d="M49.89,44.77 C49.89,44.60 49.89,44.43 49.89,44.26 C49.89,44.17 49.89,44.07 49.89,43.98 C49.92,43.97 49.95,43.98 49.98,44.03 C50.25,44.52 50.50,45.45 50.44,46.31 C50.40,46.69 50.31,47.14 50.21,47.44 C50.18,47.54 50.15,47.63 50.11,47.72" fill="none" stroke="rgb(0, 0, 0)" stroke-width="1.00" stroke-opacity="1.00" stroke-linejoin="round"/>
<path d="M50.17,48.07 C50.17,48.07 50.23,48.07 50.23,48.07 C50.25,53.10 50.16,55.71 49.92,57.12 C49.90,57.30 49.88,58.01 49.89,58.07" fill="none" stroke="rgb(0, 0, 0)" stroke-width="1.00" stroke-opacity="1.00" stroke-linejoin="round"/>
<path d="M50.43,60.11 C50.15,60.07 49.45,60.83 49.43,61.74 C49.44,62.15 49.88,62.75 50.74,63.28 C51.39,62.82 51.83,62.40 52.10,61.95 C52.14,61.89 52.16,61.84 52.16,61.82" fill="none" stroke="rgb(0, 0, 0)" stroke-width="1.00" stroke-opacity="1.00" stroke-linejoin="round"/>
<path d="M53.07,68.18 C53.42,68.23 57.54,71.46 58.28,72.37 C59.32,73.64 64.31,77.83 64.34,77.86 C64.36,77.89 64.40,77.95 64.43,78.05" fill="none" stroke="rgb(0, 0, 0)" stroke-width="1.00" stroke-opacity="1.00" stroke-linejoin="round"/>
<path d="M48.30,67.73 C48.18,67.83 48.05,67.94 47.90,68.05 C44.69,70.36 37.40,77.58 37.27,78.31 C37.26,78.42 37.47,78.76 37.61,78.98" fill="none" stroke="rgb(0, 0, 0)" stroke-width="1.00" stroke-opacity="1.00" stroke-linejoin="round"/>
<path d="M55.68,80.45 C55.69,80.45 54.09,80.72 53.45,80.81 C47.59,81.64 41.69,80.41 41.27,80.11 C40.37,79.50 39.46,78.93 39.11,78.86 C39.07,78.86 39.03,78.86 38.98,78.86" fill="none" stroke="rgb(0, 0, 0)" stroke-width="1.00" stroke-opacity="1.00" stroke-linejoin="round"/>
<path d="M54.89,33.07 C54.89,33.07 55.23,33.07 55.23,33.07 C55.23,33.07 48.30,33.07 48.30,33.07 C48.30,33.07 54.77,31.69 54.77,31.69 C54.77,31.69 48.75,32.39 48.75,32.39 C48.75,32.39 53.52,32.27 53.52,32.27 C53.52,32.27 42.61,32.16 42.61,32.16 C42.61,32.16 42.61,32.27 42.61,32.27" fill="none" stroke="rgb(150, 128, 68)" stroke-width="1.00" stroke-opacity="1.00" stroke-linejoin="round"/>
<path d="M44.32,31.82 C44.40,31.83 44.52,31.81 44.87,31.74 C46.08,31.52 49.43,31.82 49.41,31.80 C49.41,31.80 44.20,31.12 44.20,31.12 C44.26,31.29 44.35,31.42 44.47,31.50 C44.59,31.57 44.92,31.71 45.46,31.90" fill="none" stroke="rgb(150, 128, 68)" stroke-width="1.00" stroke-opacity="1.00" stroke-linejoin="round"/>
<path d="M53.75,31.82 C53.81,31.82 53.86,31.82 53.92,31.82 C54.14,31.82 54.35,31.82 54.56,31.82 C55.08,31.82 57.27,32.38 58.07,32.39 C58.07,32.39 54.55,32.77 54.55,32.77 C54.55,32.77 59.32,32.61 59.32,32.61 C59.25,32.63 57.74,32.53 57.12,32.52 C56.01,32.49 54.96,32.56 54.78,32.63" fill="none" stroke="rgb(150, 128, 68)" stroke-width="1.00" stroke-opacity="1.00" stroke-linejoin="round"/>
<path d="M56.53,38.41 C56.57,38.41 56.59,38.41 56.60,38.41 C56.61,38.41 56.64,38.42 56.67,38.43 C56.67,38.43 51.40,40.68 51.40,40.68 C51.40,40.68 54.77,39.77 54.77,39.77 C54.77,39.77 52.50,41.02 52.50,41.02" fill="none" stroke="rgb(150, 128, 68)" stroke-width="1.00" stroke-opacity="1.00" stroke-linejoin="round"/>
<path d="M52.27,42.05 C52.27,42.05 52.37,42.05 52.37,42.05 C52.43,41.87 52.96,41.10 53.16,40.80 C53.26,40.65 53.38,40.47 53.52,40.23" fill="none" stroke="rgb(150, 128, 68)" stroke-width="1.00" stroke-opacity="1.00" stroke-linejoin="round"/>
<path d="M61.88,38.24 C61.88,38.24 62.92,38.41 62.92,38.41 C62.92,38.41 63.07,38.56 63.07,38.56 C63.07,38.56 63.07,38.64 63.07,38.64" fill="none" stroke="rgb(150, 128, 68)" stroke-width="1.00" stroke-opacity="1.00" stroke-linejoin="round"/>
</g>
</svg>
