<?xml version="1.0" encoding="UTF-8" standalone="no"?>
<!DOCTYPE svg PUBLIC "-//W3C//DTD SVG 1.1//EN" "http://www.w3.org/Graphics/SVG/1.1/DTD/svg11.dtd">
<svg width="100.00" height="100.00" viewBox="0.00 0.00 100.00 100.00" xmlns="http://www.w3.org/2000/svg" xmlns:xlink="http://www.w3.org/1999/xlink">
<g stroke-linecap="round" id="圖層_3_的複製_2">
<path d="M32.00,18.48 C32.08,18.41 44.43,18.74 47.25,19.40 C47.30,19.41 47.42,19.43 47.60,19.46 C43.70,15.78 34.61,15.50 34.06,15.67 C33.83,16.34 35.39,17.34 37.38,17.54 C41.99,17.97 47.49,17.12 48.19,16.77 C47.55,16.05 44.59,15.09 42.59,14.90 C37.06,14.38 32.66,16.03 32.15,16.29 C32.57,17.11 35.79,17.91 38.90,18.06 C45.34,18.34 49.50,17.01 49.88,16.79 C49.43,15.86 45.91,14.64 43.31,14.46 C40.32,14.29 35.00,15.50 32.96,16.35 C33.10,16.93 35.56,18.35 37.58,18.94 C39.31,19.42 45.49,20.00 48.34,19.62 C51.55,19.18 53.58,18.30 53.60,18.12 C52.74,15.48 34.10,16.26 31.83,16.75 C31.76,17.47 33.20,19.09 34.44,19.81 C35.91,20.63 41.26,21.60 44.17,21.45 C49.12,21.15 52.57,19.41 52.69,19.25 C52.20,18.58 49.43,18.08 45.45,17.89 C42.18,17.78 34.51,17.38 33.75,17.38 C34.32,18.30 36.92,19.88 38.81,20.31 C42.64,21.15 48.62,21.44 52.74,21.18 C56.83,20.90 62.09,20.23 62.29,19.85 C62.06,18.81 59.10,17.89 56.41,17.30 C51.33,16.23 44.71,16.38 42.48,16.94 C42.55,17.69 45.38,19.00 47.52,19.29 C52.61,19.94 57.87,17.90 58.00,17.50 C58.00,17.50 43.52,15.52 43.52,15.52 C44.14,14.74 53.74,14.03 57.73,15.44 C58.40,15.68 58.92,16.16 59.19,16.60 C59.09,17.38 57.16,18.60 55.17,18.79 C53.34,18.95 49.93,18.02 49.10,17.54 C47.70,16.69 46.22,14.68 46.12,14.17 C46.51,13.36 56.79,13.43 60.24,14.74 C62.53,15.63 63.04,17.30 63.02,17.65 C62.58,18.26 60.35,18.88 58.10,18.83 C49.68,18.58 48.11,14.23 48.06,13.81 C48.47,13.14 50.28,12.96 52.42,13.45 C54.87,14.03 67.51,17.91 67.79,18.27 C67.15,19.59 61.03,19.80 59.54,18.92 C58.89,18.51 58.78,17.27 59.42,16.81 C61.29,15.55 66.96,16.58 67.35,17.54 C66.99,18.90 62.32,18.80 60.60,17.46 C59.16,16.30 59.42,15.12 59.54,14.92 C60.00,14.71 64.23,15.23 66.62,15.96 C67.42,16.20 68.10,16.89 68.12,17.62 C68.32,17.60 60.98,20.12 51.04,17.12 C48.19,16.29 42.54,16.47 39.60,16.84 C38.49,16.98 34.24,17.57 33.67,17.62 C32.96,17.70 30.82,16.83 30.75,16.75 C30.75,16.75 31.85,18.23 31.85,18.23 C31.85,18.23 30.73,17.52 30.73,17.52 C30.73,17.52 31.85,18.73 31.85,18.73 C31.77,18.41 31.69,18.22 31.62,18.15 C31.56,18.07 31.41,18.03 31.19,18.00" fill="none" stroke="rgb(116, 75, 46)" stroke-width="3.00" stroke-opacity="1.00" stroke-linejoin="round"/>
<path d="M30.25,83.50 C30.18,83.29 30.13,83.16 30.10,83.10 C30.08,83.05 30.05,82.98 30.01,82.90" fill="none" stroke="rgb(116, 75, 46)" stroke-width="3.00" stroke-opacity="1.00" stroke-linejoin="round"/>
<path d="M30.12,81.62 C30.29,81.55 40.04,80.46 43.08,80.19 C48.05,79.57 55.84,80.00 60.19,80.38 C60.57,80.38 67.39,82.00 67.38,82.00 C65.84,82.13 61.61,82.73 59.67,82.74 C59.44,82.74 45.16,80.10 39.90,80.00 C39.72,80.00 38.92,80.00 38.94,80.00 C39.94,80.15 47.23,80.88 50.04,81.50 C51.80,81.93 54.35,82.54 55.85,82.85 C50.54,83.17 40.37,83.72 39.10,83.15 C38.75,82.98 38.22,82.52 38.25,82.50 C38.25,82.50 51.92,83.12 51.92,83.12 C51.92,83.12 30.38,84.00 30.38,84.00 C40.05,87.40 47.77,85.48 48.08,85.23 C47.37,82.01 31.49,84.52 31.52,84.52 C34.77,85.77 38.28,86.87 41.49,87.26 C44.18,87.56 50.61,87.29 54.37,86.56 C57.62,85.82 64.63,84.31 65.48,84.35 C65.48,84.35 47.29,85.31 47.29,85.31 C47.96,86.37 57.59,86.06 62.18,84.73 C66.08,83.58 68.05,82.33 68.40,81.92 C68.40,81.92 61.81,82.50 61.81,82.50 C61.81,82.50 66.92,82.50 66.92,82.50 C66.92,82.50 59.75,80.67 59.75,80.67 C59.75,80.67 69.25,82.25 69.25,82.25 C69.25,82.25 66.50,83.00 66.50,83.00 C66.50,83.00 59.44,84.21 59.44,84.21 C60.31,85.51 67.85,83.56 68.50,83.17 C68.50,83.17 64.17,83.33 64.17,83.33 C64.17,83.33 68.71,82.42 68.71,82.42 C68.71,82.42 63.25,84.00 63.25,84.00 C63.25,84.00 67.96,82.21 67.96,82.21 C67.96,82.21 66.62,81.25 66.62,81.25 C66.62,81.25 68.12,81.25 68.12,81.25 C66.62,80.25 39.50,79.96 38.40,80.17 C36.09,80.61 32.94,81.61 30.02,83.29 C30.05,83.29 30.97,83.07 31.17,83.04 C31.31,83.02 31.51,83.00 31.75,83.00" fill="none" stroke="rgb(116, 75, 46)" stroke-width="3.00" stroke-opacity="1.00" stroke-linejoin="round"/>
<path d="M29.47,85.12 C29.47,85.12 29.36,85.20 29.36,85.20 C30.53,86.22 35.90,87.53 45.86,88.76 C52.56,89.57 57.78,88.70 66.74,86.37 C68.88,85.81 69.86,84.86 69.96,84.74" fill="none" stroke="rgb(0, 0, 0)" stroke-width="3.00" stroke-opacity="1.00" stroke-linejoin="round"/>
<path d="M29.38,84.94 C28.51,82.31 25.95,77.94 25.47,77.01 C23.70,73.51 23.59,67.72 24.50,65.95 C28.26,58.95 34.42,57.02 37.21,55.68" fill="none" stroke="rgb(0, 0, 0)" stroke-width="3.00" stroke-opacity="1.00" stroke-linejoin="round"/>
<path d="M70.51,84.81 C70.51,84.81 71.38,83.94 71.38,83.94 C72.31,82.54 74.37,79.27 75.14,77.01 C76.77,72.07 76.92,67.72 76.04,65.95 C72.40,58.95 66.27,57.02 63.50,55.68" fill="none" stroke="rgb(0, 0, 0)" stroke-width="3.00" stroke-opacity="1.00" stroke-linejoin="round"/>
<path d="M38.92,55.41 C38.92,55.41 38.86,55.41 38.86,55.41 C39.26,55.42 40.28,55.10 40.70,54.97 C41.64,54.68 45.53,53.74 46.81,53.20 C47.02,52.47 47.10,51.25 47.15,50.44 C47.17,50.24 47.20,49.97 47.26,49.62 C47.27,49.55 47.28,49.50 47.28,49.47" fill="none" stroke="rgb(0, 0, 0)" stroke-width="3.00" stroke-opacity="1.00" stroke-linejoin="round"/>
<path d="M62.62,55.24 C61.62,55.12 60.95,55.03 60.59,54.96 C59.72,54.77 55.75,53.45 55.00,53.71" fill="none" stroke="rgb(0, 0, 0)" stroke-width="3.00" stroke-opacity="1.00" stroke-linejoin="round"/>
<path d="M55.44,53.18 C55.44,53.18 55.38,53.24 55.38,53.24 C55.38,53.24 55.40,50.06 55.40,50.06 C55.47,50.14 55.51,50.62 55.52,51.47 C55.52,51.63 55.52,51.84 55.51,52.10" fill="none" stroke="rgb(0, 0, 0)" stroke-width="3.00" stroke-opacity="1.00" stroke-linejoin="round"/>
<path d="M60.86,54.95 C60.89,54.95 61.48,55.06 61.61,55.07 C61.66,55.07 61.74,55.07 61.86,55.07" fill="none" stroke="rgb(0, 0, 0)" stroke-width="2.00" stroke-opacity="1.00" stroke-linejoin="round"/>
<path d="M29.77,15.04 C29.77,15.04 29.47,14.88 29.47,14.88 C29.47,14.88 29.36,14.80 29.36,14.80 C30.53,13.78 35.90,12.47 45.86,11.24 C52.56,10.43 57.78,11.30 66.74,13.63 C68.88,14.19 69.86,15.14 69.96,15.26 C69.61,15.88 66.85,17.05 65.86,17.16 C56.26,18.07 41.97,18.41 34.40,17.80 C33.33,17.58 30.77,16.87 30.78,16.77 C30.70,16.62 30.62,16.56 30.50,16.55 C30.48,16.55 30.46,16.55 30.41,16.55" fill="none" stroke="rgb(0, 0, 0)" stroke-width="3.00" stroke-opacity="1.00" stroke-linejoin="round"/>
<path d="M30.00,16.31 C27.69,19.21 26.69,20.64 25.47,22.99 C23.70,26.49 23.59,32.28 24.50,34.05 C28.26,41.05 35.94,43.63 38.46,44.57" fill="none" stroke="rgb(0, 0, 0)" stroke-width="3.00" stroke-opacity="1.00" stroke-linejoin="round"/>
<path d="M69.76,15.81 C70.29,16.43 70.81,17.05 71.34,17.66 C72.87,19.49 75.19,23.51 75.71,24.72 C77.19,28.25 76.50,33.43 75.59,34.79 C70.97,41.46 64.16,44.00 63.50,44.32" fill="none" stroke="rgb(0, 0, 0)" stroke-width="3.00" stroke-opacity="1.00" stroke-linejoin="round"/>
<path d="M38.92,44.59 C38.92,44.59 38.86,44.59 38.86,44.59 C39.26,44.58 40.28,44.90 40.70,45.03 C41.64,45.32 45.53,46.26 46.81,46.80 C47.02,47.53 47.10,48.75 47.15,49.56 C47.17,49.76 47.20,50.03 47.26,50.38 C47.27,50.45 47.28,50.50 47.28,50.53" fill="none" stroke="rgb(0, 0, 0)" stroke-width="3.00" stroke-opacity="1.00" stroke-linejoin="round"/>
<path d="M63.12,44.39 C61.50,44.80 60.25,45.17 59.84,45.29 C58.05,45.84 55.97,46.39 55.73,46.40" fill="none" stroke="rgb(0, 0, 0)" stroke-width="3.00" stroke-opacity="1.00" stroke-linejoin="round"/>
<path d="M55.44,46.82 C55.44,46.82 55.38,46.76 55.38,46.76 C55.38,46.76 55.40,49.94 55.40,49.94 C55.47,49.86 55.51,49.38 55.52,48.53 C55.52,48.37 55.52,48.16 55.51,47.90" fill="none" stroke="rgb(0, 0, 0)" stroke-width="3.00" stroke-opacity="1.00" stroke-linejoin="round"/>
<path d="M29.75,17.00 C29.75,17.00 29.88,16.92 29.88,16.92" fill="none" stroke="rgb(0, 0, 0)" stroke-width="3.00" stroke-opacity="1.00" stroke-linejoin="round"/>
<path d="M29.12,20.38 C29.12,20.38 28.88,20.12 28.88,20.12 C30.81,21.07 34.58,22.10 41.19,22.75 C45.84,23.29 54.45,22.84 58.52,22.73 C65.31,22.30 71.70,20.00 71.75,20.00" fill="none" stroke="rgb(0, 0, 0)" stroke-width="3.00" stroke-opacity="1.00" stroke-linejoin="round"/>
<path d="M27.85,80.42 C29.52,82.15 42.14,84.33 43.60,84.38 C48.18,84.44 56.54,84.52 58.04,84.19 C58.84,84.01 70.90,81.12 72.35,80.02" fill="none" stroke="rgb(0, 0, 0)" stroke-width="3.00" stroke-opacity="1.00" stroke-linejoin="round"/>
<path d="M30.12,81.50 C30.18,81.41 34.97,79.33 38.19,78.65 C41.22,78.01 51.43,77.67 54.58,77.75 C63.82,78.02 71.70,80.65 71.85,80.73" fill="none" stroke="rgb(0, 0, 0)" stroke-width="3.00" stroke-opacity="1.00" stroke-linejoin="round"/>
<path d="M51.21,39.73 C51.21,39.73 50.62,39.44 50.62,39.44 C52.59,37.43 56.43,40.76 56.50,41.01 C56.26,41.61 49.00,42.36 47.09,41.24 C45.99,40.57 45.56,40.21 45.45,40.09 C45.71,39.88 53.64,39.06 55.83,39.71 C56.66,39.97 57.24,40.80 57.13,41.29 C57.00,41.75 55.66,42.76 54.50,43.06 C51.93,43.67 47.63,41.68 47.35,41.31 C47.35,41.31 57.43,40.68 57.43,40.68 C57.35,41.45 55.61,42.41 54.04,42.61 C50.65,43.00 46.42,41.63 46.28,41.31 C46.78,40.78 53.07,40.54 54.19,41.18 C54.25,41.22 54.35,41.29 54.48,41.38 C53.26,42.60 47.19,42.36 46.17,41.26 C46.17,41.26 53.04,41.71 53.04,41.71 C53.04,41.71 47.56,41.43 47.56,41.43 C47.56,41.43 52.82,41.13 52.82,41.13 C52.82,41.13 48.38,41.32 48.38,41.32 C48.38,41.32 56.14,40.65 56.14,40.65 C56.14,40.65 45.47,40.34 45.47,40.34 C46.06,41.43 51.19,42.30 51.82,41.60 C51.86,41.56 51.91,41.47 51.96,41.34 C51.96,41.34 45.08,41.02 45.08,41.02 C46.58,42.52 52.07,44.06 53.25,43.45 C53.54,43.30 54.30,42.67 54.55,42.62 C54.55,42.62 54.55,42.54 54.55,42.54" fill="none" stroke="rgb(150, 68, 69)" stroke-width="1.00" stroke-opacity="1.00" stroke-linejoin="round"/>
<path d="M56.33,40.76 C56.33,40.76 56.38,40.59 56.38,40.59 C56.13,40.32 54.65,39.88 53.50,39.85 C52.29,39.83 51.11,40.19 50.79,40.34 C50.73,40.36 50.64,40.41 50.51,40.48" fill="none" stroke="rgb(150, 68, 69)" stroke-width="1.00" stroke-opacity="1.00" stroke-linejoin="round"/>
<path d="M56.38,40.38 C56.38,40.38 56.50,40.21 56.50,40.21 C56.50,40.21 56.49,39.84 56.49,39.84 C56.15,39.56 49.80,39.22 48.80,39.30 C48.15,39.36 47.73,39.86 47.61,40.07" fill="none" stroke="rgb(150, 68, 69)" stroke-width="1.00" stroke-opacity="1.00" stroke-linejoin="round"/>
<path d="M52.10,44.94 C52.10,44.66 52.12,44.39 52.20,44.14 C52.22,44.06 52.29,43.88 52.39,43.59 C52.39,43.59 50.79,48.63 50.79,48.63 C50.79,48.63 51.07,42.45 51.07,42.45 C51.07,42.45 50.79,53.91 50.79,53.91 C50.78,49.21 51.13,45.93 51.23,45.08 C51.26,44.84 51.27,44.69 51.26,44.64 C51.26,44.64 51.26,44.64 51.26,44.64 C51.26,44.64 50.98,54.83 50.98,54.83 C50.98,54.69 50.98,54.56 50.98,54.42 C50.98,54.19 50.98,53.95 50.98,53.72" fill="none" stroke="rgb(150, 68, 69)" stroke-width="1.00" stroke-opacity="1.00" stroke-linejoin="round"/>
<path d="M50.74,56.91 C50.72,57.20 50.63,57.65 50.62,57.82 C50.61,57.91 50.61,58.06 50.62,58.29 C50.85,57.68 49.32,59.15 50.71,59.90 C50.71,59.90 50.81,57.66 50.81,57.66 C50.81,57.66 50.24,58.99 50.24,58.99 C50.24,58.99 50.53,58.97 50.53,58.97" fill="none" stroke="rgb(150, 68, 69)" stroke-width="1.00" stroke-opacity="1.00" stroke-linejoin="round"/>
<path d="M49.20,62.93 C49.20,62.93 49.18,62.62 49.18,62.62 C49.07,62.62 49.00,62.63 48.86,62.69 C46.21,63.80 38.66,69.43 35.19,74.15 C32.75,77.52 32.68,78.30 32.76,78.46 C32.80,78.54 32.93,78.68 33.14,78.87" fill="none" stroke="rgb(150, 68, 69)" stroke-width="1.00" stroke-opacity="1.00" stroke-linejoin="round"/>
<path d="M52.50,63.67 C52.50,63.67 52.51,63.56 52.51,63.56 C52.94,63.12 55.35,64.65 61.18,69.35 C65.95,73.32 67.71,77.76 67.71,77.84 C67.56,77.81 67.47,77.79 67.43,77.78 C67.39,77.76 67.36,77.72 67.34,77.67" fill="none" stroke="rgb(150, 68, 69)" stroke-width="1.00" stroke-opacity="1.00" stroke-linejoin="round"/>
<path d="M67.46,77.95 C67.46,77.95 67.65,77.89 67.65,77.89 C67.65,77.89 67.77,77.78 67.77,77.78 C67.77,78.35 65.69,80.16 62.15,81.08 C61.28,81.30 60.47,81.40 59.46,81.42 C59.29,81.43 59.13,81.43 59.00,81.44" fill="none" stroke="rgb(150, 68, 69)" stroke-width="1.00" stroke-opacity="1.00" stroke-linejoin="round"/>
<path d="M67.32,78.42 C67.27,78.46 67.25,78.49 67.26,78.50 C67.17,78.60 62.72,80.17 61.10,80.57 C59.40,80.98 56.14,81.48 54.39,81.52 C54.13,81.52 53.64,81.52 52.93,81.52" fill="none" stroke="rgb(150, 68, 69)" stroke-width="1.00" stroke-opacity="1.00" stroke-linejoin="round"/>
<path d="M55.72,81.66 C55.38,81.70 54.41,81.77 53.57,81.79 C52.01,81.83 46.30,81.25 44.45,81.38 C43.68,81.42 42.68,81.38 42.44,81.33" fill="none" stroke="rgb(150, 68, 69)" stroke-width="1.00" stroke-opacity="1.00" stroke-linejoin="round"/>
<path d="M45.67,81.71 C45.67,81.71 45.80,81.71 45.80,81.71 C44.60,81.55 41.97,81.22 40.52,81.04 C39.79,80.94 38.65,80.58 38.03,80.33 C37.25,79.96 36.79,79.83 36.45,79.75" fill="none" stroke="rgb(150, 68, 69)" stroke-width="1.00" stroke-opacity="1.00" stroke-linejoin="round"/>
<path d="M38.77,80.77 C38.77,80.77 38.76,80.77 38.75,80.77 C37.60,80.35 33.27,78.94 32.95,78.89 C32.90,78.88 32.83,78.88 32.73,78.87 C32.71,78.81 33.07,78.50 33.21,78.37 C33.29,78.30 33.72,77.83 33.75,77.80" fill="none" stroke="rgb(150, 68, 69)" stroke-width="1.00" stroke-opacity="1.00" stroke-linejoin="round"/>
<path d="M65.58,76.68 C65.58,76.68 66.28,75.88 66.28,75.88 C66.28,75.88 64.41,78.61 64.41,78.61 C64.41,78.61 67.10,75.99 67.10,75.99 C67.10,75.99 62.92,80.67 62.92,80.67 C62.72,78.83 66.09,75.35 66.18,75.35 C66.18,75.35 61.87,79.36 61.87,79.36 C61.87,79.36 65.22,74.19 65.22,74.19 C65.22,74.19 59.29,80.11 59.29,80.11 C59.29,80.11 64.08,73.21 64.08,73.21 C64.08,73.21 56.78,79.94 56.78,79.94 C56.78,79.94 62.26,72.11 62.26,72.11 C62.26,72.11 53.59,79.06 53.59,79.06 C53.31,77.91 54.33,76.22 54.80,75.73 C57.27,73.21 61.19,72.23 62.89,72.22 C62.89,72.22 51.27,67.18 51.27,67.18 C51.27,67.18 61.51,72.33 61.51,72.33 C61.51,72.33 51.87,63.86 51.87,63.86 C51.87,63.86 61.09,72.11 61.09,72.11 C61.09,72.11 50.66,63.88 50.66,63.88 C50.66,63.88 60.16,74.79 60.16,74.79 C60.16,74.79 50.35,64.00 50.35,64.00 C50.35,64.00 58.10,77.17 58.10,77.17 C56.31,76.48 49.16,65.56 49.04,65.40 C49.04,65.40 55.63,77.10 55.63,77.10 C54.68,76.62 53.22,74.72 52.24,72.93 C51.90,72.31 48.60,65.63 48.61,65.65 C54.07,76.29 53.04,78.97 52.76,79.31 C51.96,79.18 51.16,78.28 50.89,77.74 C48.07,71.96 47.33,68.42 47.35,67.95 C48.28,67.92 49.25,69.42 49.62,70.38 C51.96,76.47 51.99,79.38 51.92,79.97 C48.59,76.95 47.81,66.66 48.17,65.65 C49.13,65.63 49.50,65.75 49.65,66.25 C50.65,69.75 51.06,75.68 50.63,76.24 C50.16,76.56 44.95,70.95 48.44,65.61 C49.32,66.00 49.75,66.53 49.88,67.67 C50.23,70.78 49.45,76.18 48.69,77.09 C47.83,76.88 47.45,76.53 47.33,75.63 C46.94,72.57 47.89,67.58 48.97,66.04 C50.16,66.64 50.03,69.83 49.83,70.92 C49.12,74.62 46.78,78.27 45.80,78.56 C45.13,77.53 45.50,74.85 45.91,73.00 C47.26,66.87 48.25,64.45 48.33,64.35 C47.24,69.31 43.86,75.10 42.40,76.13 C41.69,75.43 42.87,72.95 44.28,70.95 C44.44,70.73 48.22,65.55 49.36,63.97 C49.36,63.97 42.37,71.94 42.37,71.94 C48.46,69.65 48.78,65.25 48.71,64.68 C47.95,64.27 46.59,64.55 45.82,65.04 C43.91,66.28 38.06,74.07 37.84,75.30 C37.84,75.34 37.84,75.41 37.86,75.51 C37.86,75.51 45.53,66.38 45.53,66.38 C42.21,66.77 35.79,76.43 35.83,76.76 C38.84,77.49 42.09,70.76 42.29,69.81 C41.03,69.73 38.98,71.66 37.69,73.07 C35.63,75.32 34.92,76.34 34.96,76.67 C35.33,76.93 36.47,77.06 36.92,76.87 C38.37,76.21 41.36,70.29 40.91,69.83 C38.35,72.10 34.82,78.48 35.21,79.53 C35.21,79.53 45.12,70.91 45.12,70.91 C45.12,70.91 38.28,79.33 38.28,79.33 C37.85,78.57 38.91,76.31 39.94,75.05 C42.21,72.34 44.53,71.53 45.39,71.30 C45.88,72.25 44.77,74.16 44.26,74.88 C42.51,77.34 40.22,79.34 39.64,79.61 C38.83,78.84 39.77,77.07 40.27,76.54 C42.27,74.48 46.27,72.69 47.35,72.60 C47.57,74.33 46.10,76.23 45.73,76.61 C44.32,78.05 42.43,78.60 41.62,78.32 C41.17,77.49 41.72,76.17 42.56,75.42 C43.45,74.68 46.18,73.34 48.38,72.77 C49.43,72.51 49.95,72.71 50.48,73.10 C50.52,74.45 47.40,78.24 45.97,78.76 C45.14,79.05 43.80,79.24 43.18,78.73 C42.85,77.50 45.54,74.87 47.25,74.18 C48.98,73.49 51.49,73.57 52.06,74.46 C51.68,76.43 48.54,79.18 46.71,79.55 C44.76,79.91 43.28,79.14 43.18,78.32 C45.35,74.56 53.37,75.60 54.26,76.21 C53.50,77.52 49.61,79.43 48.26,79.68 C46.06,80.06 44.02,79.04 43.95,78.31 C46.72,74.76 56.61,76.98 56.88,77.48 C54.55,81.52 45.94,80.43 45.12,79.97 C45.81,78.99 49.04,77.99 51.07,77.74 C55.24,77.23 58.68,77.97 59.08,78.89 C58.80,80.30 49.83,82.10 47.72,81.22 C46.98,80.90 46.47,80.52 46.20,80.14 C46.60,79.01 49.18,78.23 50.77,78.07 C53.87,77.78 57.83,77.84 58.36,78.03 C58.49,78.04 50.48,80.01 48.96,80.33 C43.35,81.50 39.60,79.89 39.46,79.36 C40.56,78.21 46.63,78.32 47.09,79.30 C47.09,79.30 40.80,81.02 40.80,81.02 C40.92,80.04 41.19,79.62 42.01,79.48 C45.02,78.98 49.31,78.98 49.63,78.87 C50.12,78.71 50.61,78.34 51.00,77.91" fill="none" stroke="rgb(150, 68, 69)" stroke-width="1.00" stroke-opacity="1.00" stroke-linejoin="round"/>
<path d="M51.63,67.52 C51.71,67.53 52.02,67.60 52.23,67.68 C54.30,68.54 57.06,73.17 57.77,75.18 C56.46,75.00 51.92,69.33 51.65,67.82 C51.63,67.70 51.62,67.44 51.62,67.05 C53.64,67.30 62.70,73.62 62.04,74.83 C57.65,74.62 53.30,66.97 53.28,66.48 C53.99,66.40 57.40,67.69 59.35,68.99 C61.60,70.53 63.24,73.67 63.40,75.02 C63.01,75.83 61.14,76.11 59.42,75.66 C57.06,75.02 53.39,73.02 52.21,72.20 C52.48,72.06 59.41,73.21 60.04,73.38 C61.65,73.81 63.04,74.57 63.37,75.46 C62.91,77.03 58.91,78.99 56.83,78.81 C55.54,78.68 53.77,77.81 52.78,76.77 C51.06,74.90 50.04,71.21 50.80,70.37 C51.35,69.79 53.05,69.32 54.24,69.45 C56.87,69.77 59.96,72.34 60.37,73.75 C60.62,74.68 60.05,76.66 59.19,77.49 C58.28,78.35 55.58,79.34 54.09,79.36 C51.19,79.34 47.41,76.27 46.84,74.79 C46.48,73.80 46.64,72.38 47.14,71.78 C48.18,70.58 52.77,69.19 53.88,69.86 C54.41,70.22 54.64,71.80 54.29,72.95 C53.47,75.51 50.22,78.11 48.95,78.23 C48.09,78.28 46.48,77.92 45.87,77.23 C45.37,76.65 44.52,74.55 44.52,73.85 C44.57,71.92 47.90,69.51 49.91,69.32 C50.68,69.26 51.75,69.68 51.94,70.19 C52.50,71.79 50.58,75.62 48.77,76.40 C47.09,77.04 44.60,76.26 43.92,75.74 C43.63,75.52 43.26,75.15 42.94,74.81" fill="none" stroke="rgb(150, 68, 69)" stroke-width="1.00" stroke-opacity="1.00" stroke-linejoin="round"/>
<path d="M47.41,66.21 C47.62,66.36 47.78,66.52 47.89,66.69 C50.03,71.00 52.20,72.75 53.43,73.07 C54.06,72.05 54.23,71.54 54.02,70.99 C53.14,68.73 50.46,65.98 49.13,65.57 C48.24,65.31 46.62,65.77 46.00,66.43 C44.87,67.67 44.37,71.67 44.97,73.19 C45.63,74.82 48.25,76.11 49.38,75.30 C50.74,74.29 52.48,69.44 52.04,67.67 C51.82,66.85 50.89,65.95 50.21,65.88 C48.86,65.78 44.89,68.30 43.85,69.67 C42.80,71.10 42.77,74.33 43.56,74.99 C43.99,75.33 45.07,75.48 45.58,75.15 C47.71,73.69 50.65,68.89 50.32,67.67 C49.95,66.41 46.73,66.87 44.64,68.57 C44.13,68.99 42.57,70.49 41.95,71.16 C41.74,71.37 41.51,71.65 41.24,71.98" fill="none" stroke="rgb(150, 68, 69)" stroke-width="1.00" stroke-opacity="1.00" stroke-linejoin="round"/>
<path d="M45.62,67.05 C45.58,67.04 45.30,67.13 44.98,67.31 C43.81,67.98 40.43,70.67 38.77,72.58 C38.22,73.22 37.47,74.43 37.42,74.63 C37.41,74.68 37.42,74.78 37.44,74.93" fill="none" stroke="rgb(150, 68, 69)" stroke-width="1.00" stroke-opacity="1.00" stroke-linejoin="round"/>
<path d="M51.21,66.21 C51.27,66.21 51.30,66.21 51.29,66.21 C51.25,66.19 51.12,66.20 50.90,66.24 C50.71,66.28 50.19,66.39 49.36,66.59" fill="none" stroke="rgb(150, 68, 69)" stroke-width="1.00" stroke-opacity="1.00" stroke-linejoin="round"/>
<path d="M50.88,62.03 C50.87,62.13 50.86,62.20 50.85,62.23 C50.83,62.30 50.82,62.53 50.79,62.53 C50.79,62.54 50.79,62.54 50.79,62.55 C50.82,62.85 51.01,63.18 51.46,63.66 C51.46,63.66 49.19,63.56 49.19,63.56 C49.27,63.97 49.71,64.35 51.12,64.75 C51.22,64.78 51.31,64.85 51.38,64.94" fill="none" stroke="rgb(150, 68, 69)" stroke-width="1.00" stroke-opacity="1.00" stroke-linejoin="round"/>
<path d="M45.62,39.91 C45.59,39.91 45.48,39.92 45.42,39.96 C45.21,40.12 45.09,40.35 45.08,40.57 C45.10,40.65 45.13,40.71 45.19,40.76 C45.24,40.80 45.39,40.90 45.62,41.04" fill="none" stroke="rgb(150, 68, 69)" stroke-width="1.00" stroke-opacity="1.00" stroke-linejoin="round"/>
<path d="M57.74,40.29 C57.74,40.29 58.11,40.01 58.11,40.01 C57.87,40.32 57.65,40.57 57.43,40.70 C57.17,40.84 56.52,41.17 56.53,41.20 C56.53,41.20 56.52,41.32 56.52,41.32" fill="none" stroke="rgb(150, 68, 69)" stroke-width="1.00" stroke-opacity="1.00" stroke-linejoin="round"/>
<path d="M56.99,39.44 C56.99,39.44 57.18,39.44 57.18,39.44" fill="none" stroke="rgb(0, 0, 0)" stroke-width="1.00" stroke-opacity="1.00" stroke-linejoin="round"/>
<path d="M56.85,39.16 C56.85,39.16 56.42,39.16 56.42,39.16 C56.42,39.16 59.62,40.01 59.62,40.01 C59.62,40.03 58.94,41.15 56.64,42.15 C55.82,42.51 55.53,42.65 55.52,42.70" fill="none" stroke="rgb(0, 0, 0)" stroke-width="1.00" stroke-opacity="1.00" stroke-linejoin="round"/>
<path d="M52.29,39.30 C52.28,39.27 52.26,39.24 52.21,39.22 C50.41,38.58 44.28,39.08 43.79,39.26 C42.89,39.67 42.10,39.83 42.05,39.84 C42.23,40.31 45.04,42.41 45.26,42.56 C45.44,42.68 45.77,42.74 45.88,42.73" fill="none" stroke="rgb(0, 0, 0)" stroke-width="1.00" stroke-opacity="1.00" stroke-linejoin="round"/>
<path d="M56.05,40.38 C56.05,40.38 56.13,40.57 56.13,40.57 C56.01,40.66 53.78,40.94 53.26,40.99 C52.77,41.04 48.65,41.03 48.32,41.01 C48.16,41.00 47.99,40.97 47.80,40.93" fill="none" stroke="rgb(0, 0, 0)" stroke-width="1.00" stroke-opacity="1.00" stroke-linejoin="round"/>
<path d="M47.41,40.57 C47.41,40.57 47.40,40.57 47.39,40.57 C47.24,40.57 47.08,40.57 46.92,40.57 C46.81,40.57 46.69,40.57 46.58,40.57 C46.51,40.57 46.44,40.57 46.37,40.57" fill="none" stroke="rgb(0, 0, 0)" stroke-width="1.00" stroke-opacity="1.00" stroke-linejoin="round"/>
<path d="M47.22,43.11 C47.24,43.11 47.26,43.11 47.30,43.11 C47.72,43.10 48.25,43.28 49.22,43.98 C50.16,44.62 50.52,45.21 50.51,45.74 C50.47,46.67 49.84,54.28 49.76,54.56 C49.76,54.63 49.78,54.67 49.80,54.69 C49.86,54.74 50.07,54.79 50.10,54.85 C50.11,54.86 50.12,54.90 50.14,54.95" fill="none" stroke="rgb(0, 0, 0)" stroke-width="1.00" stroke-opacity="1.00" stroke-linejoin="round"/>
<path d="M51.35,58.04 C51.35,58.04 51.84,58.05 51.84,58.05 C52.31,58.36 51.34,60.58 50.46,60.32 C50.17,60.23 49.74,59.96 49.36,59.65 C49.28,59.58 49.19,59.51 49.08,59.42" fill="none" stroke="rgb(0, 0, 0)" stroke-width="1.00" stroke-opacity="1.00" stroke-linejoin="round"/>
<path d="M53.61,63.11 C53.65,63.11 53.68,63.11 53.70,63.11 C54.46,63.34 62.08,70.54 63.14,71.27 C65.57,72.97 68.68,77.75 68.73,77.85 C68.77,77.97 68.93,78.28 69.20,78.79" fill="none" stroke="rgb(0, 0, 0)" stroke-width="1.00" stroke-opacity="1.00" stroke-linejoin="round"/>
<path d="M46.37,63.20 C46.37,63.20 46.55,63.13 46.55,63.13 C45.83,63.82 37.69,72.68 37.52,72.80 C33.41,75.60 31.62,78.99 31.46,79.70" fill="none" stroke="rgb(0, 0, 0)" stroke-width="1.00" stroke-opacity="1.00" stroke-linejoin="round"/>
<path d="M66.57,78.23 C63.61,81.27 53.28,81.89 52.46,81.96 C52.23,81.97 51.90,81.98 51.47,81.99" fill="none" stroke="rgb(0, 0, 0)" stroke-width="1.00" stroke-opacity="1.00" stroke-linejoin="round"/>
<path d="M49.00,81.71 C49.00,81.71 48.97,81.63 48.97,81.63 C48.57,81.38 43.95,81.85 41.95,81.79 C39.54,81.71 35.13,79.73 34.64,79.55 C34.21,79.39 34.02,79.37 33.88,79.44" fill="none" stroke="rgb(0, 0, 0)" stroke-width="1.00" stroke-opacity="1.00" stroke-linejoin="round"/>
<path d="M52.10,83.02" fill="none" stroke="rgb(0, 0, 0)" stroke-width="1.00" stroke-opacity="1.00" stroke-linejoin="round"/>
<path d="M52.20,62.36 C52.20,62.36 52.24,62.33 52.24,62.33 C52.12,62.24 50.12,62.28 49.72,62.34 C49.57,62.37 49.33,62.44 49.00,62.55" fill="none" stroke="rgb(0, 0, 0)" stroke-width="1.00" stroke-opacity="1.00" stroke-linejoin="round"/>
</g>
</svg>
