<?xml version="1.0" encoding="utf-8"?>
<!-- Generator: Adobe Illustrator 26.2.1, SVG Export Plug-In . SVG Version: 6.00 Build 0)  -->
<svg version="1.1" id="a" xmlns="http://www.w3.org/2000/svg" xmlns:xlink="http://www.w3.org/1999/xlink" x="0px" y="0px"
	 viewBox="0 0 1139.4 543.8" style="enable-background:new 0 0 1139.4 543.8;" xml:space="preserve">
<style type="text/css">
	.st0{fill:#DEB06B;}
</style>
<g id="b">
	<g>
		<path class="st0" d="M485.7,345.4c2.9,8.7,15.5,7.5,16.7-1.6c3.5-27.5,3.8-65.3-9.5-107.1c-4.1-12.9-32.2-89.1-112-139.5
			c-84-53-198-41-267,5c-78.9,52.6-132,153-108,269C23.2,455.3,82,504.7,109.9,522.5c4.9,3.1,11.3,0.7,12.9-4.9
			c17.8-62.6,98-373.4,209-373.4C428.8,144.2,463.9,279.9,485.7,345.4z"/>
		<path class="st0" d="M410.8,332.3c5.5,0,9.8-4.9,9-10.4c-9.4-68-34-119.6-82-119.6c-45,0-73,51-80.1,119.1
			c-0.6,5.7,3.2,10.9,8.9,10.9H410.8L410.8,332.3z"/>
		<path class="st0" d="M577.1,471L577.1,471c-10.3,0-18.7-8.4-18.7-18.7l0,0c0-10.3,8.3-18.7,18.7-18.7l0,0
			c10.3,0,18.7,8.4,18.7,18.7l0,0C595.8,462.6,587.4,471,577.1,471z"/>
		<path class="st0" d="M589.2,533.5v-40.8c0-6.3-5.1-11.5-11.5-11.5h-0.2c-6.3,0-11.5,5.1-11.5,11.5v43.5c0,4.1,3.3,7.5,7.5,7.5
			h22.7c2.8,0,5.1-2.3,5.1-5.1l0,0c0-2.8-2.3-5.1-5.1-5.1L589.2,533.5L589.2,533.5z"/>
		<path class="st0" d="M533.3,471L533.3,471c-10.3,0-18.7-8.4-18.7-18.7l0,0c0-10.3,8.3-18.7,18.7-18.7l0,0
			c10.3,0,18.7,8.4,18.7,18.7l0,0C551.9,462.6,543.6,471,533.3,471z"/>
		<path class="st0" d="M451.8,458L451.8,458c-11.7,0-21.1-9.5-21.1-21.1l0,0c0-11.7,9.5-21.1,21.1-21.1l0,0
			c11.7,0,21.1,9.5,21.1,21.1l0,0C472.9,448.5,463.5,458,451.8,458z"/>
		<path class="st0" d="M545.3,533.5v-40.7c0-6.4-5.2-11.6-11.6-11.6h-0.1c-6.3,0-11.5,5.1-11.5,11.5v43.5c0,4.1,3.3,7.5,7.5,7.5
			h22.7c2.8,0,5.1-2.3,5.1-5.1l0,0c0-2.8-2.3-5.1-5.1-5.1H545.3z"/>
		<path class="st0" d="M479.6,468.2h-56c-4.4,0-7.9,3.5-7.9,7.9l0,0c0,4.4,3.5,7.9,7.9,7.9H439v52.2c0,4.1,3.3,7.5,7.5,7.5h29.4
			c3.9,0,7-3.1,7-7v-0.9c0-3.9-3.2-7.1-7.1-7.1h-11.6v-44.8h15.4c4.4,0,7.9-3.5,7.9-7.9l0,0C487.5,471.7,484,468.2,479.6,468.2
			L479.6,468.2z"/>
		<path class="st0" d="M15.8,175.3c-2.5-10.5,21.1-59,66.5-95.5c61.5-49.5,110.4-58.6,134-59c-11.8-5.1-10-11-2-17
			c6-4.5,36-5.3,66.5-0.5C347,13.7,391.6,57.1,392.3,74.8c0.5,12.5-22.5-7.5-58-19c-25.7-8.3-86-20.7-144.5-6.5
			c-67.5,16.4-110.6,56.4-128,73C32.3,150.4,17.7,183.3,15.8,175.3z"/>
		<path class="st0" d="M31.1,117.4c-2.1,1.8-12.5,10.7-15.7,7.6c-3-2.8,0.3-15.4,7-23.5c8.2-9.9,22.2-14.3,25-10.5
			C50.4,95.1,40.6,109.2,31.1,117.4z"/>
		<path class="st0" d="M435.6,102.3c-4.3,7.4,7.2,16.9,22.7,33.4c20.5,21.8,22.8,27.7,27,29c10,3,11-12-1-32
			C472.3,112.8,440.5,93.9,435.6,102.3z"/>
		<path class="st0" d="M364.5,36c-5.5,4.7,1.4,13.6,19.3,24.3c20.4,12.2,28.9,23.3,35.6,19.4c5.9-3.4-2.3-20.4-9-29
			C395.9,32.3,372.1,29.5,364.5,36z"/>
	</g>
	<g>
		<path class="st0" d="M646.7,286.8c0-38.9,29-58,58-58s58,17.7,58,53.3v5.4c0,6.5-4.1,11.6-9.4,11.6h-26.2c-5.2,0-9.4-5.1-9.4-11.6
			v-10c0-10-6.5-15.1-13.1-15.1s-13.1,4.9-13.1,15.1v83.3c0,10,6.5,15.1,13.1,15.1s13.1-4.9,13.1-15.1v-10c0-6.5,4.1-11.6,9.4-11.6
			h26.2c5.2,0,9.4,5.1,9.4,11.6v5.4c0,35.6-29,53.3-58,53.3s-58-19.1-58-58V286.8L646.7,286.8z"/>
		<path class="st0" d="M872.5,373.6c5.2,0,9.4,5.1,9.4,11.6v10.2c0,6.5-4.1,11.6-9.4,11.6h-87.8c-5.2,0-9.4-5.1-9.4-11.6V242.8
			c0-6.5,4.1-11.6,9.4-11.6h26.2c5.2,0,9.4,5.1,9.4,11.6v130.8H872.5L872.5,373.6z"/>
		<path class="st0" d="M927.1,231.2c5.2,0,9.4,5.1,9.4,11.6v118c0,10,6.5,15.1,13.1,15.1s13.1-4.9,13.1-15.1v-118
			c0-6.5,4.1-11.6,9.4-11.6h26.2c5.2,0,9.4,5.1,9.4,11.6v108.7c0,38.9-29,58-58,58s-58-19.1-58-58V242.8c0-6.5,4.1-11.6,9.4-11.6
			H927.1L927.1,231.2z"/>
		<path class="st0" d="M1117.1,314.5c13.1,7.9,22.3,21.2,22.3,39.3c0,35.6-25.3,53.3-54.3,53.3h-52.4c-5.2,0-9.4-5.1-9.4-11.6V242.8
			c0-6.5,4.1-11.6,9.4-11.6h48.7c29,0,54.3,15.6,54.3,47.5C1135.6,294.7,1128.2,306.6,1117.1,314.5L1117.1,314.5z M1077.6,299.6
			c6.6,0,13.1-5.1,13.1-15.1v-4.7c0-10.2-6.6-15.1-13.1-15.1h-9.4v34.9L1077.6,299.6L1077.6,299.6z M1068.3,373.6h13.1
			c6.6,0,13.1-5.1,13.1-15.1v-9.3c0-10.2-6.6-15.1-13.1-15.1h-13.1V373.6z"/>
	</g>
</g>
</svg>
