<?xml version="1.0" encoding="utf-8"?>
<!-- Generator: Adobe Illustrator 26.2.1, SVG Export Plug-In . SVG Version: 6.00 Build 0)  -->
<svg version="1.1" id="圖層_1" xmlns="http://www.w3.org/2000/svg" xmlns:xlink="http://www.w3.org/1999/xlink" x="0px" y="0px"
	 viewBox="0 0 601.3 543.8" style="enable-background:new 0 0 601.3 543.8;" xml:space="preserve">
<style type="text/css">
	.st0{display:none;}
	.st1{display:inline;fill:#BE9A5F;stroke:#000000;stroke-miterlimit:10;}
	.st2{display:inline;fill:none;stroke:#000000;stroke-miterlimit:10;}
	.st3{display:inline;stroke:#000000;stroke-miterlimit:10;}
	.st4{display:inline;}
	.st5{fill:#DEB06B;}
	.st6{display:inline;fill:#DEB06B;}
</style>
<g id="圖層_1_00000099652035873505648380000014326257778937559960_" class="st0">
	<circle class="st1" cx="247.8" cy="311.3" r="252"/>
	<polygon class="st2" points="-13.2,87.3 -13.7,528.3 119.8,528.3 119.8,86.8 	"/>
	<polygon class="st2" points="130.8,60.3 283.8,60.3 283.3,150.3 130.8,357.3 	"/>
	<polygon class="st2" points="298.8,158.3 130.8,375.3 508.3,374.8 508.8,159.3 	"/>
	<polygon class="st2" points="508.3,150.3 300.8,150.3 300.8,59.3 508.8,59.3 	"/>
	<rect x="600.3" y="389.1" class="st3" width="196.5" height="15.9"/>
	<path class="st3" d="M664.4,473.3h-26.5V370.6c0-7.3,5.9-13.2,13.2-13.2h0.1c7.3,0,13.2,5.9,13.2,13.2L664.4,473.3L664.4,473.3z"/>
	<rect x="706.8" y="404.4" class="st3" width="26.5" height="68.8"/>
	<rect x="764.4" y="404.4" class="st3" width="26.5" height="68.8"/>
	<rect x="696.2" y="468" class="st3" width="10.6" height="5.3"/>
	<rect x="663.8" y="468" class="st3" width="10.6" height="5.3"/>
	<rect x="753.9" y="468" class="st3" width="10.6" height="5.3"/>
	<path class="st3" d="M720,383.2L720,383.2c-7.3,0-13.2-5.9-13.2-13.2l0,0c0-7.3,5.9-13.2,13.2-13.2l0,0c7.3,0,13.2,5.9,13.2,13.2
		l0,0C733.3,377.3,727.3,383.2,720,383.2z"/>
	<path class="st3" d="M777.7,383.2L777.7,383.2c-7.3,0-13.2-5.9-13.2-13.2l0,0c0-7.3,5.9-13.2,13.2-13.2l0,0
		c7.3,0,13.2,5.9,13.2,13.2l0,0C790.9,377.3,785,383.2,777.7,383.2z"/>
	<path class="st3" d="M13.3,410.8"/>
</g>
<g id="圖層_2_00000155851663989755359670000018029681659532710311_" class="st0">
	<path class="st4" d="M515.9,364.2c-2.3,9-11.4,14.5-20.4,12c-8.6-2.4-13.8-11.1-11.7-19.8c29.9-123.6-76.6-270.1-203.2-276.8
		c-12.5-0.6-25.1-0.7-37.6-0.2c-114.2,4.4-176.4,64-217.6,166.4c-0.2,0.4-0.3,0.9-0.5,1.3c-23.7,74,4.7,168.8,56.4,225.7
		c11,12.2,29.4,29.9,43,39c7.1,4.8,11.2,16.2,6.9,23.7l-0.2,0.4c-4.7,13.8-23.7,5.2-31.7-0.2c-57-38.4-97.2-104.4-110.5-171.2
		c-8.4-42.4-9.2-87.7,5-129.2C13.9,184.6,43,134.7,86.2,99.8c53.3-43.7,124.5-56.4,191.5-53.3c119.2,4,219.7,109,240.9,222.7
		C524.3,300.6,523.7,333.2,515.9,364.2z"/>
	<g id="圖層_4" class="st4">
	</g>
	<path class="st3" d="M118.8,99.3c0,120.3,1,308.7,1,429c-24.7-10.3-73.5-74.3-98-126C-16.8,320.9,18.3,175.5,118.8,99.3z"/>
</g>
<g id="圖層_3" class="st0">
	<g id="圖層_7" class="st4">
	</g>
</g>
<g id="圖層_5">
	<path class="st5" d="M485.7,345.4c2.9,8.7,15.5,7.5,16.7-1.6c3.5-27.5,3.8-65.3-9.5-107.1c-4.1-12.9-32.2-89.1-112-139.5
		c-84-53-198-41-267,5c-78.9,52.6-132,153-108,269C23.2,455.3,82,504.7,109.9,522.5c4.9,3.1,11.3,0.7,12.9-4.9
		c17.8-62.6,98-373.4,209-373.4C428.8,144.3,463.9,279.9,485.7,345.4z"/>
	<g id="圖層_6" class="st0">
		<path class="st3" d="M268.1,314.3"/>
	</g>
	<path class="st5" d="M410.8,332.3c5.5,0,9.8-4.9,9-10.4c-9.4-68-34-119.6-82-119.6c-45,0-73,51-80.1,119.1
		c-0.6,5.7,3.2,10.9,8.9,10.9H410.8z"/>
	<path class="st5" d="M577.1,471L577.1,471c-10.3,0-18.7-8.4-18.7-18.7l0,0c0-10.3,8.3-18.7,18.7-18.7l0,0
		c10.3,0,18.7,8.4,18.7,18.7l0,0C595.8,462.7,587.4,471,577.1,471z"/>
	<path class="st5" d="M589.2,533.5v-40.8c0-6.3-5.1-11.5-11.5-11.5h-0.2c-6.3,0-11.5,5.1-11.5,11.5v43.5c0,4.1,3.3,7.5,7.5,7.5l0,0
		h15.7h7c2.8,0,5.1-2.3,5.1-5.1l0,0c0-2.8-2.3-5.1-5.1-5.1L589.2,533.5L589.2,533.5z"/>
	<path class="st5" d="M533.3,471L533.3,471c-10.3,0-18.7-8.4-18.7-18.7l0,0c0-10.3,8.3-18.7,18.7-18.7l0,0
		c10.3,0,18.7,8.4,18.7,18.7l0,0C551.9,462.7,543.6,471,533.3,471z"/>
	<path class="st5" d="M451.8,458L451.8,458c-11.7,0-21.1-9.5-21.1-21.1l0,0c0-11.7,9.5-21.1,21.1-21.1l0,0
		c11.7,0,21.1,9.5,21.1,21.1l0,0C472.9,448.5,463.5,458,451.8,458z"/>
	<path class="st5" d="M545.3,533.5v-40.7c0-6.4-5.2-11.6-11.6-11.6h-0.1c-6.3,0-11.5,5.1-11.5,11.5v43.5c0,4.1,3.3,7.5,7.5,7.5l0,0
		h15.7h7c2.8,0,5.1-2.3,5.1-5.1l0,0c0-2.8-2.3-5.1-5.1-5.1H545.3z"/>
	<path class="st5" d="M479.6,468.2h-56c-4.4,0-7.9,3.5-7.9,7.9l0,0c0,4.4,3.5,7.9,7.9,7.9H439v52.2c0,4.1,3.3,7.5,7.5,7.5h17.7h11.7
		c3.9,0,7-3.1,7-7v-0.9c0-3.9-3.2-7.1-7.1-7.1h-11.6v-44.8h15.4c4.4,0,7.9-3.5,7.9-7.9l0,0C487.5,471.8,484,468.2,479.6,468.2z"/>
</g>
<g id="圖層_8">
	<path class="st5" d="M15.8,175.3c-2.5-10.5,21.1-59,66.5-95.5c61.5-49.5,110.4-58.6,134-59c-11.8-5.1-10-11-2-17
		c6-4.5,36-5.3,66.5-0.5C347,13.7,391.6,57.1,392.3,74.8c0.5,12.5-22.5-7.5-58-19c-25.7-8.3-86-20.7-144.5-6.5
		c-67.5,16.4-110.6,56.4-128,73C32.3,150.4,17.7,183.3,15.8,175.3z"/>
	<path class="st5" d="M31.1,117.4c-2.1,1.8-12.5,10.7-15.7,7.6c-3-2.8,0.3-15.4,7-23.5c8.2-9.9,22.2-14.3,25-10.5
		C50.4,95.1,40.6,109.2,31.1,117.4z"/>
	<path class="st5" d="M435.6,102.3c-4.3,7.4,7.2,16.9,22.7,33.4c20.5,21.8,22.8,27.7,27,29c10,3,11-12-1-32
		C472.3,112.8,440.5,93.9,435.6,102.3z"/>
	<path class="st5" d="M364.5,36c-5.5,4.7,1.4,13.6,19.3,24.4c20.4,12.2,28.9,23.3,35.6,19.4c5.9-3.4-2.3-20.4-9-29
		C395.9,32.4,372.1,29.5,364.5,36z"/>
</g>
<g id="圖層_9" class="st0">
	<path class="st6" d="M3.8,183.3L3.8,183.3c-3.5-2.2-4.6-6.9-2.4-10.4c27-42.6,66.4-92.1,132.6-118c4-1.5,8.4,0.5,9.8,4.5l0,0
		c1.4,3.8-0.6,8-4.4,9.5c-62.2,24.3-99.5,71.5-125.3,112C11.9,184.4,7.3,185.4,3.8,183.3z"/>
	<path class="st6" d="M487.6,180.5C422.2,68.9,290.3,20,162.2,60.1c-3.9,1.2-8.1-0.9-9.4-4.7l0,0c-1.4-4,0.8-8.3,4.8-9.6
		c63.8-19.9,131.9-19.1,192.6,2.3C414.2,70.6,466,113.7,500.6,173c2.1,3.6,0.8,8.3-2.9,10.3h0C494.1,185.3,489.7,184,487.6,180.5z"
		/>
</g>
</svg>
