<?xml version="1.0" encoding="UTF-8"?><svg id="a" xmlns="http://www.w3.org/2000/svg" viewBox="0 0 1139.39 543.75"><defs><style>.c{fill:#fff7e7;}</style></defs><g id="b"><g><path class="c" d="M485.68,345.44c2.88,8.68,15.51,7.45,16.67-1.63,3.49-27.47,3.81-65.33-9.49-107.12-4.1-12.88-32.22-89.08-112.05-139.45-84-53-198-41-267,5C34.94,154.82-18.19,255.24,5.81,371.24c17.4,84.09,76.17,133.47,104.07,151.26,4.86,3.1,11.32,.68,12.9-4.86,17.84-62.62,98.03-373.4,209.03-373.4,96.99,0,132.12,135.7,153.87,201.2Z"/><path class="c" d="M410.75,332.25c5.52,0,9.77-4.89,9.01-10.36-9.42-67.99-33.96-119.64-81.96-119.64-45,0-73,51-80.1,119.07-.6,5.73,3.16,10.93,8.92,10.93h144.13Z"/><path class="c" d="M577.12,470.99h0c-10.3,0-18.66-8.35-18.66-18.66h0c0-10.3,8.35-18.66,18.66-18.66h0c10.3,0,18.66,8.35,18.66,18.66h0c0,10.31-8.36,18.66-18.66,18.66Z"/><path class="c" d="M589.18,533.49v-40.77c0-6.33-5.13-11.47-11.47-11.47h-.23c-6.35,0-11.49,5.14-11.49,11.49v43.54c0,4.12,3.34,7.46,7.46,7.46h22.72c2.83,0,5.13-2.3,5.13-5.13h0c0-2.83-2.3-5.13-5.13-5.13h-6.99Z"/><path class="c" d="M533.28,470.99h0c-10.3,0-18.66-8.35-18.66-18.66h0c0-10.3,8.35-18.66,18.66-18.66h0c10.3,0,18.66,8.35,18.66,18.66h0c0,10.31-8.36,18.66-18.66,18.66Z"/><path class="c" d="M451.81,457.99h0c-11.67,0-21.12-9.46-21.12-21.12h0c0-11.67,9.46-21.12,21.12-21.12h0c11.67,0,21.12,9.46,21.12,21.12h0c0,11.66-9.45,21.12-21.12,21.12Z"/><path class="c" d="M545.34,533.49v-40.68c0-6.38-5.17-11.56-11.56-11.56h-.13c-6.35,0-11.5,5.15-11.5,11.5v43.54c0,4.12,3.34,7.46,7.46,7.46h22.72c2.83,0,5.13-2.3,5.13-5.13h0c0-2.83-2.3-5.13-5.13-5.13h-6.99Z"/><path class="c" d="M479.58,468.19h-55.97c-4.38,0-7.93,3.55-7.93,7.93h0c0,4.38,3.55,7.93,7.93,7.93h15.39v52.24c0,4.12,3.34,7.46,7.46,7.46h29.38c3.86,0,7-3.13,7-7v-.87c0-3.9-3.16-7.06-7.06-7.06h-11.6v-44.77h15.39c4.38,0,7.93-3.55,7.93-7.93h0c0-4.38-3.54-7.93-7.92-7.93h0Z"/><path class="c" d="M15.8,175.25c-2.5-10.5,21.15-59,66.5-95.5C143.8,30.25,192.66,21.11,216.3,20.75c-11.84-5.08-10-11-2-17,6-4.5,36.03-5.29,66.5-.5,66.21,10.4,110.79,53.84,111.5,71.5,.5,12.5-22.5-7.5-58-19-25.72-8.33-85.98-20.68-144.5-6.5-67.53,16.36-110.56,56.38-128,73-29.53,28.14-44.08,61.05-46,53Z"/><path class="c" d="M31.08,117.43c-2.08,1.78-12.45,10.66-15.74,7.57-3.02-2.83,.31-15.39,6.96-23.5,8.15-9.93,22.16-14.26,24.99-10.49,3.07,4.11-6.65,18.23-16.21,26.42Z"/><path class="c" d="M435.62,102.31c-4.31,7.43,7.19,16.93,22.69,33.43,20.49,21.81,22.76,27.73,27,29,10,3,11-12-1-32-11.97-19.94-43.81-38.85-48.69-30.43Z"/><path class="c" d="M364.47,35.97c-5.52,4.69,1.41,13.6,19.28,24.35,20.35,12.24,28.9,23.26,35.56,19.43,5.92-3.4-2.3-20.42-9-29-14.37-18.41-38.18-21.29-45.84-14.78Z"/></g><g><path class="c" d="M646.71,286.77c0-38.87,29.01-57.96,58.03-57.96s58.03,17.69,58.03,53.3v5.35c0,6.52-4.12,11.64-9.36,11.64h-26.21c-5.24,0-9.36-5.12-9.36-11.64v-10.01c0-10.01-6.55-15.13-13.1-15.13s-13.1,4.89-13.1,15.13v83.33c0,10.01,6.55,15.13,13.1,15.13s13.1-4.89,13.1-15.13v-10.01c0-6.52,4.12-11.64,9.36-11.64h26.21c5.24,0,9.36,5.12,9.36,11.64v5.35c0,35.61-29.02,53.3-58.03,53.3s-58.03-19.09-58.03-57.96v-64.69Z"/><path class="c" d="M872.46,373.59c5.24,0,9.36,5.12,9.36,11.64v10.24c0,6.52-4.12,11.64-9.36,11.64h-87.79c-5.24,0-9.36-5.12-9.36-11.64V242.78c0-6.52,4.12-11.64,9.36-11.64h26.21c5.24,0,9.36,5.12,9.36,11.64v130.81h52.22Z"/><path class="c" d="M927.11,231.15c5.24,0,9.36,5.12,9.36,11.64v118.01c0,10.01,6.55,15.13,13.1,15.13s13.1-4.89,13.1-15.13v-118.01c0-6.52,4.12-11.64,9.36-11.64h26.21c5.24,0,9.36,5.12,9.36,11.64v108.7c0,38.87-29.02,57.96-58.03,57.96s-58.03-19.09-58.03-57.96v-108.7c0-6.52,4.12-11.64,9.36-11.64h26.21Z"/><path class="c" d="M1117.11,314.47c13.1,7.91,22.28,21.18,22.28,39.34,0,35.61-25.27,53.3-54.29,53.3h-52.42c-5.24,0-9.36-5.12-9.36-11.64V242.78c0-6.52,4.12-11.64,9.36-11.64h48.67c29.02,0,54.29,15.59,54.29,47.48,0,16.06-7.49,27.93-18.53,35.84h0Zm-39.5-14.89c6.55,0,13.1-5.12,13.1-15.13v-4.66c0-10.24-6.55-15.13-13.1-15.13h-9.36v34.91h9.36Zm-9.36,74.03h13.1c6.55,0,13.1-5.12,13.1-15.13v-9.31c0-10.24-6.55-15.13-13.1-15.13h-13.1v39.57Z"/></g></g></svg>