<?xml version="1.0" encoding="UTF-8"?><svg id="a" xmlns="http://www.w3.org/2000/svg" viewBox="0 0 814.56 563.75"><defs><style>.d{fill:#fff7e7;}</style></defs><g id="b"><path class="d" d="M502.94,345.44c2.88,8.68,15.51,7.45,16.67-1.63,3.49-27.47,3.81-65.33-9.49-107.12-4.1-12.88-32.22-89.08-112.05-139.45-84-53-198-41-267,5C52.2,154.82-.93,255.24,23.07,371.24c17.4,84.09,76.17,133.47,104.07,151.26,4.86,3.1,11.32,.68,12.9-4.86,17.84-62.62,98.03-373.4,209.03-373.4,96.99,0,132.12,135.7,153.87,201.2Z"/><path class="d" d="M428.01,332.25c5.52,0,9.77-4.89,9.01-10.36-9.42-67.99-33.96-119.64-81.96-119.64-45,0-73,51-80.1,119.07-.6,5.73,3.16,10.93,8.92,10.93h144.13Z"/><path class="d" d="M594.38,471h0c-10.3,0-18.66-8.35-18.66-18.66h0c0-10.3,8.35-18.66,18.66-18.66h0c10.3,0,18.66,8.35,18.66,18.66h0c0,10.31-8.36,18.66-18.66,18.66Z"/><path class="d" d="M606.44,533.49v-40.77c0-6.33-5.13-11.47-11.47-11.47h-.23c-6.35,0-11.49,5.14-11.49,11.49v43.54c0,4.12,3.34,7.46,7.46,7.46h22.72c2.83,0,5.13-2.3,5.13-5.13h0c0-2.83-2.3-5.13-5.13-5.13h-6.99Z"/><path class="d" d="M550.54,471h0c-10.3,0-18.66-8.35-18.66-18.66h0c0-10.3,8.35-18.66,18.66-18.66h0c10.3,0,18.66,8.35,18.66,18.66h0c0,10.31-8.36,18.66-18.66,18.66Z"/><path class="d" d="M469.07,458h0c-11.67,0-21.12-9.46-21.12-21.12h0c0-11.67,9.46-21.12,21.12-21.12h0c11.67,0,21.12,9.46,21.12,21.12h0c0,11.66-9.45,21.12-21.12,21.12Z"/><path class="d" d="M562.6,533.49v-40.68c0-6.38-5.17-11.56-11.56-11.56h-.13c-6.35,0-11.5,5.15-11.5,11.5v43.54c0,4.12,3.34,7.46,7.46,7.46h22.72c2.83,0,5.13-2.3,5.13-5.13h0c0-2.83-2.3-5.13-5.13-5.13h-6.99Z"/><path class="d" d="M496.84,468.2h-55.97c-4.38,0-7.93,3.55-7.93,7.93h0c0,4.38,3.55,7.93,7.93,7.93h15.39v52.24c0,4.12,3.34,7.46,7.46,7.46h29.38c3.86,0,7-3.13,7-7v-.87c0-3.9-3.16-7.06-7.06-7.06h-11.6v-44.77h15.39c4.38,0,7.93-3.55,7.93-7.93h0c0-4.38-3.54-7.93-7.92-7.93Z"/></g><g id="c"><path class="d" d="M33.06,175.25c-2.5-10.5,21.15-59,66.5-95.5C161.06,30.25,209.92,21.11,233.56,20.75c-11.84-5.08-10-11-2-17,6-4.5,36.03-5.29,66.5-.5,66.21,10.4,110.79,53.84,111.5,71.5,.5,12.5-22.5-7.5-58-19-25.72-8.33-85.98-20.68-144.5-6.5-67.53,16.36-110.56,56.38-128,73-29.53,28.15-44.08,61.06-46,53Z"/><path class="d" d="M48.34,117.44c-2.08,1.78-12.45,10.66-15.74,7.57-3.02-2.83,.31-15.39,6.96-23.5,8.15-9.93,22.16-14.26,24.99-10.49,3.07,4.1-6.65,18.22-16.21,26.42Z"/><path class="d" d="M452.88,102.32c-4.31,7.43,7.19,16.93,22.69,33.43,20.49,21.81,22.76,27.73,27,29,10,3,11-12-1-32-11.97-19.94-43.81-38.85-48.69-30.43Z"/><path class="d" d="M381.73,35.97c-5.52,4.69,1.41,13.6,19.28,24.35,20.35,12.24,28.9,23.26,35.56,19.43,5.92-3.4-2.3-20.42-9-29-14.37-18.4-38.18-21.29-45.84-14.78Z"/></g></svg>