<?xml version="1.0" encoding="UTF-8" standalone="no"?>
<!DOCTYPE svg PUBLIC "-//W3C//DTD SVG 1.1//EN" "http://www.w3.org/Graphics/SVG/1.1/DTD/svg11.dtd">
<svg width="105.00" height="100.00" viewBox="0.00 0.00 105.00 100.00" xmlns="http://www.w3.org/2000/svg" xmlns:xlink="http://www.w3.org/1999/xlink">
<g stroke-linecap="round" id="圖層_13">
<path d="M79.74,16.82 C79.74,16.82 84.91,16.76 84.91,16.76 C84.91,16.76 84.78,17.15 84.78,17.15" fill="none" stroke="rgb(0, 0, 0)" stroke-width="3.00" stroke-opacity="1.00" stroke-linejoin="round"/>
<path d="M53.94,26.86 C53.94,26.86 52.99,27.24 52.99,27.24 C52.40,27.65 52.16,27.86 52.26,27.86 C52.62,27.82 57.82,24.87 60.99,23.68 C63.99,22.58 76.03,19.40 82.35,18.16 C82.74,18.08 83.99,18.02 84.24,18.10 C84.30,18.12 84.36,18.10 84.41,18.02" fill="none" stroke="rgb(0, 0, 0)" stroke-width="3.00" stroke-opacity="1.00" stroke-linejoin="round"/>
<path d="M85.13,17.51 C85.13,17.51 85.22,17.54 85.22,17.54" fill="none" stroke="rgb(0, 0, 0)" stroke-width="3.00" stroke-opacity="1.00" stroke-linejoin="round"/>
<path d="M86.00,18.94 C86.00,18.94 85.84,18.63 85.84,18.63 C85.83,18.63 85.98,20.65 86.00,24.33 C85.99,32.21 85.99,41.42 85.99,42.75" fill="none" stroke="rgb(0, 0, 0)" stroke-width="3.00" stroke-opacity="1.00" stroke-linejoin="round"/>
<path d="M51.59,31.57 C51.75,33.70 51.43,67.37 51.14,71.77 C50.98,74.34 51.21,88.92 51.17,89.00 C51.17,89.00 51.05,88.01 51.05,88.01" fill="none" stroke="rgb(0, 0, 0)" stroke-width="3.00" stroke-opacity="1.00" stroke-linejoin="round"/>
<path d="M50.87,88.72 C50.88,88.85 50.58,90.12 50.70,91.36 C50.86,92.94 51.15,93.52 51.45,93.89 C53.17,94.03 57.68,93.46 67.83,90.52 C74.06,88.45 82.29,84.98 82.50,84.79 C82.87,84.44 83.52,83.34 83.97,83.31 C83.97,83.31 84.01,83.43 84.01,83.43" fill="none" stroke="rgb(0, 0, 0)" stroke-width="3.00" stroke-opacity="1.00" stroke-linejoin="round"/>
<path d="M85.89,46.44 C85.89,46.44 84.62,82.72 84.62,82.72 C84.62,82.72 84.38,82.20 84.38,82.20" fill="none" stroke="rgb(0, 0, 0)" stroke-width="3.00" stroke-opacity="1.00" stroke-linejoin="round"/>
<path d="M31.67,17.23 C31.67,17.23 31.51,17.08 31.51,17.08 C31.49,17.08 31.55,17.08 31.56,17.08 C32.71,17.08 35.61,17.07 37.37,17.06 C47.86,17.32 71.61,16.74 76.02,16.76 C76.22,16.77 76.39,16.77 76.53,16.76" fill="none" stroke="rgb(0, 0, 0)" stroke-width="3.00" stroke-opacity="1.00" stroke-linejoin="round"/>
<path d="M31.82,18.63 C31.82,18.63 31.21,17.70 31.21,17.70 C30.58,17.75 30.22,20.54 29.88,30.08 C29.83,37.66 29.79,51.09 29.96,53.09 C29.96,53.09 30.10,52.82 30.10,52.82" fill="none" stroke="rgb(0, 0, 0)" stroke-width="3.00" stroke-opacity="1.00" stroke-linejoin="round"/>
<path d="M37.26,66.44 C37.26,66.44 37.10,66.44 37.10,66.44 C37.07,66.75 37.22,68.25 37.46,69.39 C38.01,71.89 38.71,73.66 38.86,73.84 C38.86,73.84 47.97,68.44 47.97,68.44 C47.97,68.38 47.97,68.33 47.95,68.30 C47.94,68.27 47.90,68.23 47.84,68.16" fill="none" stroke="rgb(0, 0, 0)" stroke-width="3.00" stroke-opacity="1.00" stroke-linejoin="round"/>
<path d="M49.21,67.53 C49.21,67.34 49.94,66.29 50.04,66.17 C50.07,66.14 50.10,66.13 50.14,66.13" fill="none" stroke="rgb(0, 0, 0)" stroke-width="3.00" stroke-opacity="1.00" stroke-linejoin="round"/>
<path d="M30.11,67.21 C30.11,67.21 30.27,67.21 30.27,67.21 C30.30,67.21 30.32,67.21 30.35,67.21 C30.37,67.21 30.40,67.21 30.43,67.21 C30.43,67.21 30.43,66.76 30.43,66.76 C30.43,66.76 31.48,85.99 31.48,85.99" fill="none" stroke="rgb(0, 0, 0)" stroke-width="3.00" stroke-opacity="1.00" stroke-linejoin="round"/>
<path d="M31.51,85.07 C31.51,85.45 31.52,86.05 31.59,86.13 C31.73,86.27 32.22,86.56 32.44,86.59 C34.47,86.87 45.79,87.01 50.05,87.08 C50.08,87.08 50.15,87.08 50.13,87.08" fill="none" stroke="rgb(0, 0, 0)" stroke-width="3.00" stroke-opacity="1.00" stroke-linejoin="round"/>
<path d="M36.18,18.09 C36.18,18.09 36.43,17.83 36.43,17.83 C36.17,17.97 35.48,18.51 34.89,19.14 C33.87,20.22 30.49,24.28 30.27,24.84 C31.03,25.43 33.59,24.57 35.47,23.37 C40.50,20.14 41.70,19.69 42.21,19.55 C38.61,21.76 33.99,27.71 33.62,28.92 C34.36,29.54 36.78,27.79 38.50,25.93 C42.16,21.90 42.28,20.52 42.16,19.86 C42.16,19.86 32.41,21.06 32.41,21.06 C33.49,21.85 36.88,25.09 37.30,25.47 C40.42,28.22 44.92,29.44 45.34,29.36 C45.34,29.36 36.36,18.24 36.36,18.24 C39.56,21.15 43.00,23.99 45.81,25.57 C50.87,28.37 53.24,28.37 53.44,28.22 C53.00,27.34 49.87,23.68 47.69,21.84 C44.88,19.52 41.20,18.77 41.07,18.78 C45.40,22.81 57.14,23.72 57.29,23.70 C57.29,23.70 46.26,19.32 46.26,19.32 C46.26,19.32 62.03,21.18 62.03,21.18 C62.03,21.18 47.36,24.64 47.36,24.64 C46.81,25.40 59.68,23.26 61.34,23.04 C61.43,23.03 61.51,23.02 61.58,23.01 C61.58,23.01 52.97,22.95 52.97,22.95 C53.34,21.76 56.35,20.45 58.74,20.00 C63.80,19.10 69.46,19.80 70.23,19.96 C70.23,19.96 61.86,19.90 61.86,19.90 C61.86,19.90 73.17,18.93 73.17,18.93 C73.17,18.93 61.03,19.80 61.03,19.80 C61.32,19.39 63.91,18.94 67.54,18.87 C71.16,18.80 74.90,19.38 75.24,19.31 C75.48,19.25 77.46,17.75 77.91,17.83 C78.33,17.90 78.50,18.64 78.92,18.61 C79.12,18.60 79.54,18.25 80.17,17.57 C80.17,17.57 77.99,18.27 77.99,18.27 C77.99,18.27 79.01,17.83 79.01,17.83 C78.48,17.72 77.84,17.60 77.56,17.65 C77.39,17.68 77.06,17.80 76.55,18.00" fill="none" stroke="rgb(0, 0, 0)" stroke-width="2.00" stroke-opacity="1.00" stroke-linejoin="round"/>
<path d="M36.95,21.30 C36.95,21.30 36.20,21.22 36.20,21.22 C34.92,22.21 33.17,36.30 33.84,38.58 C33.87,38.68 33.94,38.94 34.04,39.35 C34.74,39.17 35.19,38.76 35.72,37.54 C38.64,30.61 39.69,24.39 39.29,22.89 C37.90,23.37 36.61,26.14 36.22,27.34 C34.99,31.18 34.10,39.67 34.60,41.68 C34.87,42.72 35.34,43.09 35.96,43.42 C36.94,43.15 38.11,40.55 39.10,36.41 C39.69,33.87 41.65,24.06 41.68,23.55 C37.47,35.41 40.04,42.20 40.46,43.12 C41.50,42.51 41.94,41.99 42.28,40.65 C44.05,33.67 45.82,23.88 45.78,22.81 C43.22,25.33 42.46,43.26 43.18,44.26 C43.18,44.26 50.05,23.50 50.05,23.50 C47.39,26.77 43.82,43.27 44.13,44.81 C45.48,44.00 47.14,39.25 47.99,36.44 C48.89,33.39 50.27,28.60 50.41,27.65 C50.41,27.65 47.82,46.36 47.82,46.36 C47.82,46.36 50.50,35.26 50.50,35.26 C50.50,35.26 48.68,50.48 48.68,50.48 C48.68,50.48 43.81,47.29 43.81,47.29 C43.46,47.85 44.44,49.47 45.26,50.15 C47.21,51.74 48.58,52.27 48.84,52.30 C48.84,52.30 44.88,46.22 44.88,46.22 C45.45,45.55 49.62,47.97 50.29,49.86 C50.29,49.86 46.23,48.19 46.23,48.19 C45.83,48.96 46.60,50.24 47.04,50.58 C47.11,50.63 47.27,50.73 47.50,50.88" fill="none" stroke="rgb(0, 0, 0)" stroke-width="2.00" stroke-opacity="1.00" stroke-linejoin="round"/>
<path d="M44.77,43.11 C44.77,43.11 44.71,42.91 44.71,42.91 C44.71,42.91 34.40,43.85 34.40,43.85 C34.40,43.85 43.94,43.66 43.94,43.66 C43.94,43.66 33.32,44.27 33.32,44.27 C33.32,44.27 44.84,43.76 44.84,43.76 C44.84,43.76 39.36,45.50 39.36,45.50 C39.36,45.50 43.38,47.14 43.38,47.14 C43.77,45.78 36.56,45.53 36.53,45.46 C36.53,45.46 36.44,45.10 36.44,45.10" fill="none" stroke="rgb(0, 0, 0)" stroke-width="2.00" stroke-opacity="1.00" stroke-linejoin="round"/>
<path d="M33.74,25.27 C33.74,25.27 33.68,24.89 33.68,24.89 C33.59,24.91 33.52,25.00 33.48,25.14 C33.02,26.98 33.47,45.62 33.79,46.38 C34.14,45.63 33.73,30.08 32.43,26.99 C29.48,28.60 33.56,49.63 33.81,50.11 C33.81,50.11 35.00,34.89 35.00,34.89 C34.32,34.93 33.91,35.26 33.62,36.38 C32.93,39.07 31.74,46.19 31.64,47.56 C31.51,49.49 31.96,50.50 32.57,50.55 C33.36,50.58 34.98,49.46 35.38,48.60 C35.71,47.82 35.24,46.68 34.45,46.49 C33.54,46.32 31.74,47.51 31.13,48.61 C30.63,49.55 30.31,51.43 30.76,51.79 C31.31,52.18 33.61,52.55 34.50,52.12 C35.51,51.59 36.50,50.21 37.19,49.09 C37.19,49.09 33.42,52.01 33.42,52.01 C36.93,50.76 37.61,47.41 37.56,45.88 C37.56,45.88 36.98,49.68 36.98,49.68" fill="none" stroke="rgb(0, 0, 0)" stroke-width="2.00" stroke-opacity="1.00" stroke-linejoin="round"/>
<path d="M32.84,68.51 C32.84,68.51 32.71,68.38 32.71,68.38 C32.71,68.38 32.61,68.41 32.61,68.41 C32.26,70.93 34.97,75.85 35.08,75.82 C35.39,75.56 35.95,71.25 35.85,68.97 C35.81,68.21 35.03,67.57 34.54,67.75 C34.20,67.89 32.55,70.04 32.18,70.54 C32.18,70.54 35.78,69.74 35.78,69.74 C35.97,70.21 34.49,73.84 34.10,75.24 C32.95,79.46 33.76,82.25 33.96,82.49 C35.75,81.25 36.26,75.31 35.74,74.13 C34.72,74.36 34.15,74.80 33.80,75.86 C32.66,79.44 33.00,84.63 33.47,85.27 C33.47,85.27 40.29,79.43 40.29,79.43 C39.75,79.44 37.25,80.08 35.84,81.04 C34.90,81.68 34.65,83.21 35.49,83.84 C37.69,85.39 44.04,86.09 45.05,85.27 C46.12,84.36 45.90,82.56 44.56,81.62 C43.04,80.62 37.88,78.63 37.58,78.89 C37.29,81.13 47.79,86.48 48.48,86.68 C48.73,85.15 43.98,78.91 41.95,76.62 C41.77,77.13 48.22,83.42 50.00,83.50 C50.12,83.50 50.33,83.45 50.61,83.36 C51.05,82.67 50.58,80.55 49.56,79.36 C47.56,77.07 43.30,75.32 42.52,75.24 C42.29,76.03 43.86,77.86 44.79,78.32 C45.81,78.79 47.16,78.28 47.25,77.52 C47.37,76.07 43.48,72.99 41.65,72.74 C41.65,72.74 49.41,68.76 49.41,68.76 C49.41,68.76 46.12,75.52 46.12,75.52 C46.12,75.52 49.20,72.00 49.20,72.00 C49.20,72.00 47.75,81.78 47.75,81.78 C47.75,81.78 47.49,73.36 47.49,73.36 C47.49,73.36 38.03,78.69 38.03,78.69 C37.91,78.45 37.85,78.13 37.93,77.82 C37.96,77.71 38.04,77.48 38.16,77.13" fill="none" stroke="rgb(0, 0, 0)" stroke-width="2.00" stroke-opacity="1.00" stroke-linejoin="round"/>
<path d="M39.00,75.43 C39.00,75.43 36.61,76.06 36.61,76.06 C36.60,76.07 39.52,76.30 40.80,76.82 C42.80,77.66 44.43,79.50 44.30,79.96 C44.30,79.96 39.66,81.34 39.66,81.34 C41.13,81.35 43.68,81.59 44.58,81.72 C44.85,81.76 45.26,81.83 45.82,81.93" fill="none" stroke="rgb(0, 0, 0)" stroke-width="2.00" stroke-opacity="1.00" stroke-linejoin="round"/>
<path d="M49.13,74.41 C49.13,74.41 49.13,74.34 49.13,74.34 C49.13,74.34 49.02,74.38 49.02,74.38 C48.90,74.55 48.42,76.07 48.22,77.12 C48.12,77.65 48.04,78.30 47.99,79.09 C47.97,79.28 47.97,79.45 47.98,79.59" fill="none" stroke="rgb(0, 0, 0)" stroke-width="2.00" stroke-opacity="1.00" stroke-linejoin="round"/>
<path d="M50.23,53.75 C50.25,53.67 50.01,53.42 49.51,52.73 C48.29,51.13 40.92,46.42 39.58,45.91" fill="none" stroke="rgb(0, 0, 0)" stroke-width="2.00" stroke-opacity="1.00" stroke-linejoin="round"/>
<path d="M49.09,53.18 C49.09,53.18 49.20,53.30 49.20,53.30 C49.17,53.26 49.13,53.22 49.08,53.17 C46.51,50.60 39.96,47.27 38.72,46.42 C38.72,46.42 38.66,46.43 38.66,46.43 C38.66,46.43 38.64,46.55 38.64,46.55" fill="none" stroke="rgb(0, 0, 0)" stroke-width="2.00" stroke-opacity="1.00" stroke-linejoin="round"/>
<path d="M38.41,46.82 C38.41,46.82 38.29,46.54 38.29,46.54 C38.29,46.54 38.06,46.48 38.06,46.48 C37.88,46.64 37.26,48.76 37.00,50.52 C36.88,51.38 36.65,53.42 36.60,53.65 C36.60,53.66 36.59,53.69 36.59,53.75" fill="none" stroke="rgb(0, 0, 0)" stroke-width="2.00" stroke-opacity="1.00" stroke-linejoin="round"/>
<path d="M37.27,47.73 C37.30,48.57 37.19,50.77 37.03,52.07 C36.98,52.42 36.91,52.73 36.81,53.00 C36.81,53.00 36.73,53.06 36.73,53.06" fill="none" stroke="rgb(0, 0, 0)" stroke-width="2.00" stroke-opacity="1.00" stroke-linejoin="round"/>
<path d="M48.64,67.61 C48.64,67.61 48.69,67.61 48.69,67.61 C48.64,67.87 45.89,70.20 45.40,70.63 C45.16,70.83 44.77,71.22 44.22,71.79" fill="none" stroke="rgb(0, 0, 0)" stroke-width="2.00" stroke-opacity="1.00" stroke-linejoin="round"/>
<path d="M36.14,53.41 C35.79,53.41 35.44,53.41 35.10,53.41 C30.94,53.58 23.20,53.75 22.67,53.71 C22.23,53.68 21.84,53.57 21.82,53.52" fill="none" stroke="rgb(0, 0, 0)" stroke-width="2.00" stroke-opacity="1.00" stroke-linejoin="round"/>
<path d="M21.38,54.32 C21.38,54.32 20.27,54.20 20.27,54.20 C19.60,55.29 19.61,60.13 19.79,62.35 C19.83,62.84 19.92,63.78 20.07,65.17 C20.07,65.17 20.15,65.17 20.15,65.17" fill="none" stroke="rgb(0, 0, 0)" stroke-width="2.00" stroke-opacity="1.00" stroke-linejoin="round"/>
<path d="M36.82,66.02 C35.75,66.00 33.82,66.23 32.47,66.41 C30.94,66.57 24.38,66.02 22.41,66.02 C21.30,66.02 19.99,65.23 19.77,65.11 C19.77,65.11 19.77,65.21 19.77,65.21" fill="none" stroke="rgb(0, 0, 0)" stroke-width="2.00" stroke-opacity="1.00" stroke-linejoin="round"/>
<path d="M37.39,33.86 C37.02,33.79 36.78,33.74 36.66,33.70 C36.54,33.67 36.38,33.61 36.17,33.52 C36.48,33.66 40.77,36.34 42.63,36.91 C44.15,37.35 47.05,37.63 47.65,37.50 C47.61,36.66 40.01,28.66 37.74,27.50 C37.59,27.42 37.26,27.28 36.76,27.05 C36.76,27.05 48.17,32.36 48.17,32.36 C48.17,32.36 35.79,27.41 35.79,27.41 C35.79,27.41 36.66,27.67 36.66,27.67" fill="none" stroke="rgb(0, 0, 0)" stroke-width="2.00" stroke-opacity="1.00" stroke-linejoin="round"/>
<path d="M35.45,36.93 C35.45,36.93 35.23,36.82 35.23,36.82 C35.46,36.83 38.26,38.58 38.85,38.87 C40.46,39.67 43.37,40.09 45.70,40.11 C45.70,40.11 36.29,31.63 36.29,31.63 C36.83,31.44 42.52,32.58 43.84,32.68 C44.51,32.73 45.91,32.75 46.37,32.74" fill="none" stroke="rgb(0, 0, 0)" stroke-width="2.00" stroke-opacity="1.00" stroke-linejoin="round"/>
<path d="M48.18,23.30 C48.18,23.30 39.16,28.74 39.16,28.74 C39.16,28.74 39.17,28.96 39.17,28.96" fill="none" stroke="rgb(0, 0, 0)" stroke-width="2.00" stroke-opacity="1.00" stroke-linejoin="round"/>
<path d="M52.16,18.98 C52.16,18.98 51.83,18.86 51.83,18.86 C51.41,19.18 50.31,22.23 49.82,23.96 C49.69,24.40 49.66,24.81 49.70,24.85 C49.70,24.85 49.85,24.89 49.85,24.89" fill="none" stroke="rgb(0, 0, 0)" stroke-width="2.00" stroke-opacity="1.00" stroke-linejoin="round"/>
<path d="M58.52,19.89 C58.52,19.89 58.19,22.73 58.19,22.73 C58.32,22.63 59.83,20.98 60.44,20.59 C61.27,20.06 62.19,20.52 62.36,20.54 C62.75,20.37 63.34,20.03 63.75,19.78 C63.93,19.69 64.26,19.51 64.76,19.26" fill="none" stroke="rgb(0, 0, 0)" stroke-width="2.00" stroke-opacity="1.00" stroke-linejoin="round"/>
<path d="M35.45,76.82 C35.43,76.81 35.92,77.07 37.99,78.03 C40.17,79.04 41.94,79.97 43.07,80.70 C43.28,80.83 43.45,80.96 43.57,81.09" fill="none" stroke="rgb(0, 0, 0)" stroke-width="2.00" stroke-opacity="1.00" stroke-linejoin="round"/>
<path d="M47.84,84.32 C47.84,84.32 47.73,84.55 47.73,84.55" fill="none" stroke="rgb(0, 0, 0)" stroke-width="2.00" stroke-opacity="1.00" stroke-linejoin="round"/>
</g>
</svg>
