<?xml version="1.0" encoding="UTF-8" standalone="no"?>
<!DOCTYPE svg PUBLIC "-//W3C//DTD SVG 1.1//EN" "http://www.w3.org/Graphics/SVG/1.1/DTD/svg11.dtd">
<svg width="105.00" height="100.00" viewBox="0.00 0.00 105.00 100.00" xmlns="http://www.w3.org/2000/svg" xmlns:xlink="http://www.w3.org/1999/xlink">
<g stroke-linecap="round" id="圖層_16_的複製">
<path d="M16.22,67.39 C17.64,69.46 20.58,72.70 22.89,74.47 C25.07,76.10 30.51,78.85 32.45,79.45 C40.39,81.63 42.63,81.99 47.62,82.38 C47.62,82.38 49.22,82.49 49.22,82.49" fill="none" stroke="rgb(0, 0, 0)" stroke-width="3.00" stroke-opacity="1.00" stroke-linejoin="round"/>
<path d="M84.77,71.96 C83.34,73.63 77.81,78.09 71.62,80.44 C69.32,81.29 60.43,83.58 53.16,84.26 C53.16,84.26 50.02,84.24 50.02,84.24" fill="none" stroke="rgb(0, 0, 0)" stroke-width="3.00" stroke-opacity="1.00" stroke-linejoin="round"/>
<path d="M30.20,80.95 C30.48,80.88 41.20,84.35 45.80,84.66 C47.45,84.76 56.02,84.74 56.78,84.83 C56.95,84.86 57.13,84.91 57.32,85.00" fill="none" stroke="rgb(0, 0, 0)" stroke-width="3.00" stroke-opacity="1.00" stroke-linejoin="round"/>
<path d="M57.01,84.34 C57.35,84.35 58.23,84.29 59.01,84.10 C63.33,83.05 69.15,80.47 71.04,79.78 C71.16,79.73 71.23,79.71 71.25,79.69" fill="none" stroke="rgb(0, 0, 0)" stroke-width="3.00" stroke-opacity="1.00" stroke-linejoin="round"/>
<path d="M72.68,79.68 C72.93,79.40 73.15,79.19 73.32,79.04 C73.92,78.55 74.73,77.87 74.93,77.61" fill="none" stroke="rgb(0, 0, 0)" stroke-width="3.00" stroke-opacity="1.00" stroke-linejoin="round"/>
<path d="M22.16,76.65 C22.46,77.06 24.59,78.52 27.06,79.91 C27.32,80.05 27.67,80.24 28.09,80.46" fill="none" stroke="rgb(0, 0, 0)" stroke-width="3.00" stroke-opacity="1.00" stroke-linejoin="round"/>
<path d="M77.19,77.14 C79.67,75.45 80.71,74.14 80.80,73.98 C80.81,73.96 80.83,73.93 80.86,73.90" fill="none" stroke="rgb(0, 0, 0)" stroke-width="3.00" stroke-opacity="1.00" stroke-linejoin="round"/>
<path d="M19.19,73.33 C19.24,73.67 19.34,74.08 19.53,74.29 C19.82,74.63 20.67,75.25 20.96,75.44 C21.00,75.48 21.02,75.52 21.02,75.56" fill="none" stroke="rgb(0, 0, 0)" stroke-width="3.00" stroke-opacity="1.00" stroke-linejoin="round"/>
<path d="M50.10,85.89" fill="none" stroke="rgb(0, 0, 0)" stroke-width="2.00" stroke-opacity="1.00" stroke-linejoin="round"/>
<path d="M31.47,82.93 C31.47,82.93 31.33,82.93 31.33,82.93 C31.29,82.86 30.30,82.86 28.76,84.63 C28.62,84.79 28.54,84.95 28.53,85.11" fill="none" stroke="rgb(0, 0, 0)" stroke-width="2.00" stroke-opacity="1.00" stroke-linejoin="round"/>
<path d="M69.29,82.93 C69.29,82.93 69.43,82.93 69.43,82.93 C69.47,82.86 70.46,82.86 72.00,84.63 C72.14,84.79 72.22,84.95 72.23,85.11" fill="none" stroke="rgb(0, 0, 0)" stroke-width="2.00" stroke-opacity="1.00" stroke-linejoin="round"/>
<path d="M43.75,85.75 C43.75,85.75 43.55,85.81 43.55,85.81 C43.24,86.26 42.84,86.98 42.64,87.53 C42.45,88.05 42.34,88.73 42.34,89.12 C42.34,89.19 42.34,89.23 42.34,89.25" fill="none" stroke="rgb(0, 0, 0)" stroke-width="2.00" stroke-opacity="1.00" stroke-linejoin="round"/>
<path d="M57.01,85.75 C57.01,85.75 57.21,85.81 57.21,85.81 C57.52,86.26 57.92,86.98 58.11,87.53 C58.30,88.05 58.42,88.73 58.42,89.12 C58.42,89.19 58.42,89.23 58.42,89.25" fill="none" stroke="rgb(0, 0, 0)" stroke-width="2.00" stroke-opacity="1.00" stroke-linejoin="round"/>
<path d="M13.16,65.43 C13.16,65.43 12.96,65.15 12.96,65.15 C13.65,67.06 15.25,71.42 18.50,74.68 C21.87,78.02 31.85,83.17 35.94,84.11 C41.62,85.37 46.58,85.41 49.50,85.37 C49.50,85.37 49.68,85.20 49.68,85.20" fill="none" stroke="rgb(0, 0, 0)" stroke-width="3.00" stroke-opacity="1.00" stroke-linejoin="round"/>
<path d="M87.77,63.52 C86.97,65.79 80.63,74.03 76.01,77.21 C73.05,79.23 68.47,81.53 66.57,82.11 C60.90,83.78 55.94,83.81 53.02,83.75 C53.02,83.75 52.84,83.52 52.84,83.52" fill="none" stroke="rgb(0, 0, 0)" stroke-width="3.00" stroke-opacity="1.00" stroke-linejoin="round"/>
<path d="M29.69,85.13 C31.67,85.83 40.59,88.03 45.79,88.49 C46.84,88.60 50.24,89.36 52.14,89.37 C52.18,89.37 52.28,89.37 52.25,89.37" fill="none" stroke="rgb(0, 0, 0)" stroke-width="2.00" stroke-opacity="1.00" stroke-linejoin="round"/>
<path d="M72.84,85.09 C70.83,85.83 61.96,88.06 56.76,88.50 C55.72,88.62 52.33,89.36 50.42,89.37 C50.39,89.37 50.29,89.37 50.32,89.37" fill="none" stroke="rgb(0, 0, 0)" stroke-width="2.00" stroke-opacity="1.00" stroke-linejoin="round"/>
<path d="M35.01,82.24 C36.48,83.15 42.72,83.73 45.62,83.92 C49.37,84.13 52.66,83.85 53.07,83.81 C53.32,83.79 53.88,83.74 54.74,83.66" fill="none" stroke="rgb(0, 0, 0)" stroke-width="2.00" stroke-opacity="1.00" stroke-linejoin="round"/>
<path d="M67.75,82.24 C66.28,83.15 60.04,83.73 57.14,83.92 C53.38,84.13 50.10,83.85 49.69,83.81 C49.43,83.79 48.88,83.74 48.02,83.66" fill="none" stroke="rgb(0, 0, 0)" stroke-width="2.00" stroke-opacity="1.00" stroke-linejoin="round"/>
<path d="M17.65,72.36 C18.14,73.34 29.81,81.24 32.62,82.43 C37.97,84.62 46.52,86.13 47.82,86.27 C48.18,86.31 48.63,86.33 49.18,86.33" fill="none" stroke="rgb(0, 0, 0)" stroke-width="2.00" stroke-opacity="1.00" stroke-linejoin="round"/>
<path d="M85.11,72.36 C84.62,73.34 72.95,81.24 70.14,82.43 C64.79,84.62 56.24,86.13 54.94,86.27 C54.58,86.31 54.12,86.33 53.58,86.33" fill="none" stroke="rgb(0, 0, 0)" stroke-width="2.00" stroke-opacity="1.00" stroke-linejoin="round"/>
<path d="M49.69,86.33 C50.25,86.33 51.33,86.33 51.35,86.33 C51.40,86.33 51.45,86.31 51.52,86.30 C51.52,86.30 51.52,86.21 51.52,86.21" fill="none" stroke="rgb(0, 0, 0)" stroke-width="2.00" stroke-opacity="1.00" stroke-linejoin="round"/>
<path d="M53.07,86.33 C52.51,86.33 51.43,86.33 51.41,86.33 C51.36,86.33 51.30,86.31 51.24,86.30 C51.24,86.30 51.24,86.21 51.24,86.21" fill="none" stroke="rgb(0, 0, 0)" stroke-width="2.00" stroke-opacity="1.00" stroke-linejoin="round"/>
<path d="M16.73,83.65 C16.36,82.47 20.30,78.07 21.63,77.54 C21.77,77.48 21.93,77.45 22.11,77.44" fill="none" stroke="rgb(0, 0, 0)" stroke-width="3.00" stroke-opacity="1.00" stroke-linejoin="round"/>
<path d="M86.02,83.65 C86.40,82.47 82.46,78.07 81.13,77.54 C80.99,77.48 80.83,77.45 80.65,77.44" fill="none" stroke="rgb(0, 0, 0)" stroke-width="3.00" stroke-opacity="1.00" stroke-linejoin="round"/>
<path d="M34.45,92.82 C34.45,92.82 34.25,92.71 34.25,92.71 C34.02,92.11 34.54,87.28 35.37,85.41 C35.58,84.97 36.41,84.17 36.71,83.99 C36.83,83.93 37.06,83.83 37.40,83.69" fill="none" stroke="rgb(0, 0, 0)" stroke-width="3.00" stroke-opacity="1.00" stroke-linejoin="round"/>
<path d="M68.31,92.82 C68.31,92.82 68.51,92.71 68.51,92.71 C68.74,92.11 68.22,87.28 67.39,85.41 C67.18,84.97 66.35,84.17 66.05,83.99 C65.93,83.93 65.70,83.83 65.36,83.69" fill="none" stroke="rgb(0, 0, 0)" stroke-width="3.00" stroke-opacity="1.00" stroke-linejoin="round"/>
<path d="M51.38,85.91 C51.38,88.65 51.37,92.80 51.24,95.56 C51.23,95.78 51.23,95.90 51.24,95.92 C51.24,95.92 51.24,95.82 51.24,95.82" fill="none" stroke="rgb(0, 0, 0)" stroke-width="3.00" stroke-opacity="1.00" stroke-linejoin="round"/>
<path d="M11.30,63.75 C11.23,64.36 17.34,73.34 19.30,75.42 C21.11,77.31 25.25,80.36 27.01,81.26 C27.35,81.44 28.22,81.86 29.61,82.53" fill="none" stroke="rgb(0, 0, 0)" stroke-width="3.00" stroke-opacity="1.00" stroke-linejoin="round"/>
<path d="M76.08,80.12 C80.24,77.60 85.12,72.68 88.82,66.94" fill="none" stroke="rgb(0, 0, 0)" stroke-width="3.00" stroke-opacity="1.00" stroke-linejoin="round"/>
<path d="M12.15,63.19 C12.15,63.19 10.30,62.62 10.30,62.62" fill="none" stroke="rgb(0, 0, 0)" stroke-width="3.00" stroke-opacity="1.00" stroke-linejoin="round"/>
<path d="M90.49,66.10 C90.49,66.10 89.64,67.89 89.64,67.89" fill="none" stroke="rgb(0, 0, 0)" stroke-width="3.00" stroke-opacity="1.00" stroke-linejoin="round"/>
<path d="M90.84,65.30 C90.84,65.30 90.86,65.07 90.86,65.07" fill="none" stroke="rgb(0, 0, 0)" stroke-width="3.00" stroke-opacity="1.00" stroke-linejoin="round"/>
<path d="M13.54,60.66 C13.54,60.66 12.97,59.07 12.97,59.07" fill="none" stroke="rgb(0, 0, 0)" stroke-width="3.00" stroke-opacity="1.00" stroke-linejoin="round"/>
<path d="M13.02,67.22 C13.02,67.22 13.44,67.93 13.44,67.93 C13.44,67.93 10.76,60.61 10.76,60.61 C10.76,60.61 13.56,68.10 13.56,68.10" fill="none" stroke="rgb(0, 0, 0)" stroke-width="3.00" stroke-opacity="1.00" stroke-linejoin="round"/>
<path d="M13.27,68.27" fill="none" stroke="rgb(0, 0, 0)" stroke-width="3.00" stroke-opacity="1.00" stroke-linejoin="round"/>
<path d="M11.75,63.55 C11.75,63.55 9.28,57.34 9.28,57.34 C9.71,57.23 10.59,56.94 10.88,56.73 C11.02,56.63 11.24,56.40 11.52,56.06" fill="none" stroke="rgb(0, 0, 0)" stroke-width="3.00" stroke-opacity="1.00" stroke-linejoin="round"/>
<path d="M12.31,57.91 C12.31,57.91 12.17,57.91 12.17,57.91 C12.17,58.45 12.17,58.99 12.17,59.53 C12.17,59.76 12.17,59.99 12.17,60.22" fill="none" stroke="rgb(0, 0, 0)" stroke-width="3.00" stroke-opacity="1.00" stroke-linejoin="round"/>
<path d="M87.43,63.30 C87.43,63.30 87.80,62.65 87.80,62.65" fill="none" stroke="rgb(0, 0, 0)" stroke-width="3.00" stroke-opacity="1.00" stroke-linejoin="round"/>
<path d="M88.35,62.85 C88.35,62.85 88.27,63.90 88.27,63.90" fill="none" stroke="rgb(0, 0, 0)" stroke-width="3.00" stroke-opacity="1.00" stroke-linejoin="round"/>
<path d="M88.28,67.94 C88.28,67.94 88.67,68.67 88.67,68.67" fill="none" stroke="rgb(0, 0, 0)" stroke-width="3.00" stroke-opacity="1.00" stroke-linejoin="round"/>
<path d="M88.52,61.74 C88.52,61.74 88.66,61.88 88.66,61.88 C88.83,60.63 88.82,59.31 88.82,58.93 C88.82,58.91 88.82,58.88 88.82,58.86" fill="none" stroke="rgb(0, 0, 0)" stroke-width="3.00" stroke-opacity="1.00" stroke-linejoin="round"/>
<path d="M87.66,62.41" fill="none" stroke="rgb(0, 0, 0)" stroke-width="2.00" stroke-opacity="1.00" stroke-linejoin="round"/>
<path d="M91.44,60.01 C91.44,60.01 91.30,60.01 91.30,60.01 C91.46,60.01 91.61,60.01 91.76,60.01 C91.80,60.01 91.83,60.01 91.87,60.01" fill="none" stroke="rgb(0, 0, 0)" stroke-width="3.00" stroke-opacity="1.00" stroke-linejoin="round"/>
<path d="M91.44,59.73 C91.44,59.63 91.18,59.05 90.75,58.19 C90.66,58.01 90.53,57.75 90.36,57.43" fill="none" stroke="rgb(0, 0, 0)" stroke-width="3.00" stroke-opacity="1.00" stroke-linejoin="round"/>
<path d="M91.30,62.69 C91.30,62.69 91.30,62.96 91.30,62.96 C91.15,62.53 91.05,62.25 91.01,62.09 C90.97,61.94 90.93,61.71 90.89,61.39" fill="none" stroke="rgb(0, 0, 0)" stroke-width="3.00" stroke-opacity="1.00" stroke-linejoin="round"/>
<path d="M91.50,61.62 C91.44,61.65 90.66,63.15 89.19,65.29 C89.02,65.55 88.80,65.92 88.53,66.40" fill="none" stroke="rgb(0, 0, 0)" stroke-width="2.00" stroke-opacity="1.00" stroke-linejoin="round"/>
<path d="M90.79,60.92 C90.71,62.38 90.57,63.55 90.16,64.29 C89.89,64.79 89.29,65.72 88.37,67.08 C88.17,67.37 87.97,67.65 87.77,67.92" fill="none" stroke="rgb(0, 0, 0)" stroke-width="2.00" stroke-opacity="1.00" stroke-linejoin="round"/>
<path d="M89.38,61.86 C88.98,62.85 88.54,63.84 87.87,65.30 C86.78,67.60 85.33,70.64 84.97,71.37" fill="none" stroke="rgb(0, 0, 0)" stroke-width="2.00" stroke-opacity="1.00" stroke-linejoin="round"/>
<path d="M12.23,58.33 C12.23,58.33 12.00,58.33 12.00,58.33 C12.08,62.27 14.35,67.48 14.82,68.33 C14.98,68.63 15.34,69.24 15.89,70.15" fill="none" stroke="rgb(0, 0, 0)" stroke-width="2.00" stroke-opacity="1.00" stroke-linejoin="round"/>
<path d="M14.46,61.85 C14.46,61.85 15.28,63.89 15.28,63.89" fill="none" stroke="rgb(0, 0, 0)" stroke-width="2.00" stroke-opacity="1.00" stroke-linejoin="round"/>
<path d="M16.33,66.99 C16.40,67.20 16.52,67.50 16.70,67.88 C17.18,68.88 17.66,69.88 18.14,70.88" fill="none" stroke="rgb(0, 0, 0)" stroke-width="2.00" stroke-opacity="1.00" stroke-linejoin="round"/>
<path d="M11.05,57.86 C11.05,57.86 10.82,57.62 10.82,57.62 C10.82,57.62 11.27,57.39 11.27,57.39 C11.50,58.14 11.69,58.72 11.83,59.14 C12.26,60.36 12.67,61.42 13.07,62.32 C13.30,62.85 13.74,63.75 14.38,65.01" fill="none" stroke="rgb(0, 0, 0)" stroke-width="2.00" stroke-opacity="1.00" stroke-linejoin="round"/>
<path d="M11.76,56.68 C11.76,56.68 11.53,56.68 11.53,56.68 C11.84,56.66 12.08,58.70 12.24,59.53 C12.32,59.94 12.51,60.52 12.81,61.28" fill="none" stroke="rgb(0, 0, 0)" stroke-width="2.00" stroke-opacity="1.00" stroke-linejoin="round"/>
<path d="M89.61,60.45 C89.61,60.45 89.38,60.39 89.38,60.39 C89.38,60.39 90.01,57.89 90.01,57.89 C90.08,57.92 90.23,58.56 90.28,59.25 C90.30,59.47 90.31,59.87 90.32,60.43" fill="none" stroke="rgb(0, 0, 0)" stroke-width="2.00" stroke-opacity="1.00" stroke-linejoin="round"/>
<path d="M55.04,82.32 C56.00,82.33 68.78,78.89 73.79,76.31 C74.87,75.75 76.97,74.51 78.27,73.71" fill="none" stroke="rgb(0, 0, 0)" stroke-width="2.00" stroke-opacity="1.00" stroke-linejoin="round"/>
<path d="M79.03,73.85 C79.03,73.85 79.03,73.76 79.03,73.76 C79.48,73.33 81.34,71.56 81.86,70.95 C82.89,69.74 84.89,66.76 85.93,64.91 C86.19,64.46 86.72,63.49 87.52,62.01" fill="none" stroke="rgb(0, 0, 0)" stroke-width="2.00" stroke-opacity="1.00" stroke-linejoin="round"/>
<path d="M87.73,62.56 C87.73,62.56 89.57,58.61 89.57,58.61 C89.59,58.70 89.59,58.80 89.46,59.16 C89.38,59.36 89.16,59.94 88.78,60.89" fill="none" stroke="rgb(0, 0, 0)" stroke-width="2.00" stroke-opacity="1.00" stroke-linejoin="round"/>
<path d="M27.05,71.50 C28.48,72.75 31.94,74.48 35.08,75.27 C39.13,76.24 46.03,77.08 49.00,77.13 C52.42,77.17 59.04,76.39 62.25,75.62 C62.91,75.45 63.57,75.28 64.23,75.11" fill="none" stroke="rgb(0, 0, 0)" stroke-width="2.00" stroke-opacity="1.00" stroke-linejoin="round"/>
<path d="M67.74,73.62 C71.33,72.05 75.41,69.17 76.44,68.41 C76.65,68.26 76.76,68.17 76.78,68.15 C76.79,68.14 76.83,68.10 76.90,68.01" fill="none" stroke="rgb(0, 0, 0)" stroke-width="2.00" stroke-opacity="1.00" stroke-linejoin="round"/>
<path d="M14.58,63.74 C14.95,64.74 15.26,65.46 15.52,65.90 C15.77,66.31 17.70,68.88 18.45,69.96 C18.79,70.45 19.14,70.93 19.48,71.42" fill="none" stroke="rgb(0, 0, 0)" stroke-width="2.00" stroke-opacity="1.00" stroke-linejoin="round"/>
<path d="M9.41,58.10 C9.41,58.10 9.17,58.33 9.17,58.33 C9.76,61.86 12.84,68.67 14.03,70.23 C14.22,70.48 14.63,70.96 15.24,71.66" fill="none" stroke="rgb(0, 0, 0)" stroke-width="2.00" stroke-opacity="1.00" stroke-linejoin="round"/>
</g>
</svg>
