<?xml version="1.0" encoding="UTF-8" standalone="no"?>
<!DOCTYPE svg PUBLIC "-//W3C//DTD SVG 1.1//EN" "http://www.w3.org/Graphics/SVG/1.1/DTD/svg11.dtd">
<svg width="105.00" height="100.00" viewBox="0.00 0.00 105.00 100.00" xmlns="http://www.w3.org/2000/svg" xmlns:xlink="http://www.w3.org/1999/xlink">
<g stroke-linecap="round" id="圖層_16">
<path d="M12.16,55.29 C12.16,55.29 11.96,55.64 11.96,55.64 C12.65,53.15 14.25,47.46 17.50,43.20 C19.18,41.04 23.28,37.22 25.51,35.71 C28.45,33.74 33.03,31.47 34.94,30.90 C40.62,29.26 45.58,29.21 48.50,29.26 C48.50,29.26 48.68,29.49 48.68,29.49" fill="none" stroke="rgb(0, 0, 0)" stroke-width="3.00" stroke-opacity="1.00" stroke-linejoin="round"/>
<path d="M88.35,56.15 C88.35,56.15 88.27,55.10 88.27,55.10 C87.85,54.25 87.55,51.69 87.29,50.86 C86.76,49.22 84.46,45.24 83.06,43.40 C81.36,41.21 77.23,37.32 75.01,35.79 C72.05,33.77 67.47,31.47 65.57,30.89 C59.90,29.22 54.94,29.19 52.02,29.25 C52.02,29.25 51.84,29.48 51.84,29.48" fill="none" stroke="rgb(0, 0, 0)" stroke-width="3.00" stroke-opacity="1.00" stroke-linejoin="round"/>
<path d="M12.00,60.91 C12.00,60.91 11.94,60.96 11.94,60.96 C12.35,61.81 14.26,68.91 17.36,73.00 C18.99,75.12 23.01,78.72 25.18,80.03 C34.19,85.40 46.21,86.27 47.62,86.38 C47.62,86.38 49.22,86.49 49.22,86.49" fill="none" stroke="rgb(0, 0, 0)" stroke-width="3.00" stroke-opacity="1.00" stroke-linejoin="round"/>
<path d="M88.39,62.40 C88.39,62.40 88.30,61.60 88.30,61.60 C88.27,61.58 87.50,65.06 87.37,65.54 C86.92,67.07 84.58,71.14 83.18,72.91 C81.49,75.01 77.31,78.59 75.04,79.90 C71.83,81.74 60.25,85.85 59.37,86.02 C59.31,86.03 55.66,86.35 53.16,86.65 C53.16,86.65 50.02,86.62 50.02,86.62" fill="none" stroke="rgb(0, 0, 0)" stroke-width="3.00" stroke-opacity="1.00" stroke-linejoin="round"/>
<path d="M12.14,57.13 C12.14,57.13 12.00,56.99 12.00,56.99 C11.84,58.25 11.85,59.58 11.85,59.97 C11.85,60.00 11.85,60.02 11.85,60.04" fill="none" stroke="rgb(0, 0, 0)" stroke-width="3.00" stroke-opacity="1.00" stroke-linejoin="round"/>
<path d="M88.52,57.26 C88.52,57.26 88.66,57.12 88.66,57.12 C88.83,58.37 88.82,59.69 88.82,60.07 C88.82,60.09 88.82,60.12 88.82,60.14" fill="none" stroke="rgb(0, 0, 0)" stroke-width="3.00" stroke-opacity="1.00" stroke-linejoin="round"/>
<path d="M28.69,27.87 C30.67,27.17 39.59,24.97 44.79,24.51 C45.84,24.40 49.24,23.64 51.14,23.63 C51.18,23.63 51.28,23.63 51.25,23.63" fill="none" stroke="rgb(0, 0, 0)" stroke-width="2.00" stroke-opacity="1.00" stroke-linejoin="round"/>
<path d="M71.84,27.91 C69.83,27.17 60.96,24.94 55.76,24.50 C54.72,24.38 51.33,23.64 49.42,23.63 C49.39,23.63 49.29,23.63 49.32,23.63" fill="none" stroke="rgb(0, 0, 0)" stroke-width="2.00" stroke-opacity="1.00" stroke-linejoin="round"/>
<path d="M13.00,56.45" fill="none" stroke="rgb(0, 0, 0)" stroke-width="2.00" stroke-opacity="1.00" stroke-linejoin="round"/>
<path d="M87.66,56.59" fill="none" stroke="rgb(0, 0, 0)" stroke-width="2.00" stroke-opacity="1.00" stroke-linejoin="round"/>
<path d="M52.44,71.96 C51.53,72.65 50.06,73.06 48.45,72.96 C46.97,72.85 41.84,67.87 39.77,64.20 C38.25,61.44 36.92,54.18 37.28,51.04 C37.59,48.46 40.46,43.77 42.90,42.39 C45.40,41.01 52.23,39.93 54.96,40.49 C56.49,40.82 59.61,42.44 61.03,43.55 C62.49,44.73 64.60,47.41 65.51,49.18 C66.37,50.91 67.33,54.29 67.48,56.17 C67.61,57.97 67.36,61.59 66.89,62.92 C65.98,65.41 61.04,69.69 57.62,71.05 C55.93,71.71 51.37,72.38 49.16,72.33 C46.80,72.25 42.94,70.71 41.23,69.34 C39.83,68.19 36.35,64.40 35.76,63.36 C35.12,62.15 34.48,57.00 34.74,54.84 C35.02,52.62 36.55,48.38 37.57,46.99 C38.77,45.41 41.61,43.37 43.96,42.41 C47.47,41.01 50.77,41.10 51.47,41.26 C51.71,41.32 52.00,41.45 52.34,41.65" fill="none" stroke="rgb(0, 0, 0)" stroke-width="2.74" stroke-opacity="1.00" stroke-linejoin="round"/>
<path d="M45.22,48.88 C45.14,48.44 44.42,47.68 43.54,47.62 C42.55,47.58 41.37,48.15 40.69,48.80 C39.84,49.68 37.66,53.58 36.77,56.76 C36.25,58.69 36.50,60.57 36.87,61.07 C37.75,62.20 43.43,62.91 47.04,62.38 C52.50,61.49 59.97,57.10 60.83,56.20 C60.37,54.84 55.85,51.97 53.68,51.08 C50.51,49.84 45.52,49.45 43.40,50.05 C42.27,50.41 40.50,51.64 40.04,52.45 C39.58,53.32 39.63,55.57 40.18,56.92 C40.78,58.32 42.90,61.08 44.28,62.20 C46.94,64.32 53.19,65.54 55.37,64.84 C56.30,64.53 57.22,63.53 57.23,62.84 C57.19,60.89 51.14,53.45 48.65,52.58 C47.70,52.27 46.15,52.38 45.69,52.88 C44.59,54.14 44.83,62.16 46.31,65.04 C46.86,66.10 48.31,67.74 49.02,68.20 C49.97,68.79 52.27,68.75 53.35,68.14 C54.45,67.49 56.29,65.33 56.92,63.68 C60.08,55.07 57.67,51.69 57.04,51.06 C55.79,50.90 54.46,51.74 53.83,52.54 C52.18,54.72 49.72,63.55 49.78,66.59 C49.82,67.95 50.60,69.39 51.33,69.55 C52.07,69.68 54.06,68.88 55.10,68.01 C57.23,66.17 60.79,59.60 61.34,56.80 C61.57,55.56 61.39,53.57 60.99,52.91 C60.23,51.74 55.25,50.72 52.44,51.56 C50.91,52.05 48.58,53.61 47.83,54.52 C47.16,55.38 46.82,56.74 47.23,57.27 C48.26,58.49 55.07,60.53 58.00,60.40 C60.02,60.29 62.16,58.88 62.38,57.92 C60.99,55.84 51.87,53.12 48.82,52.97 C47.26,52.90 41.73,53.36 41.54,53.19 C41.22,52.59 42.03,50.21 43.13,48.65 C44.29,47.01 47.57,43.90 48.95,43.27 C50.26,42.70 52.14,42.76 52.78,42.96 C54.53,43.54 56.78,47.13 56.73,49.05 C56.67,50.20 55.06,51.30 53.53,51.18 C51.79,51.01 48.81,49.44 48.10,48.66 C47.00,47.38 46.56,43.75 47.47,42.55 C48.09,41.78 50.32,42.44 51.65,43.97 C52.83,45.37 56.49,51.31 56.87,51.91 C55.68,51.97 53.83,47.31 54.43,45.82 C54.82,44.89 56.72,44.42 57.60,44.62 C61.06,45.47 62.80,49.83 62.86,50.44 C62.90,50.79 62.87,51.38 62.80,52.12" fill="none" stroke="rgb(0, 0, 0)" stroke-width="1.83" stroke-opacity="1.00" stroke-linejoin="round"/>
<path d="M55.92,43.85 C55.92,43.85 55.66,43.73 55.66,43.73 C57.21,44.20 61.01,46.53 62.33,47.97 C63.30,49.06 63.86,50.51 63.56,51.15 C62.80,51.68 60.42,51.65 58.26,50.95 C53.57,49.41 50.21,48.78 46.25,48.26 C49.81,51.31 52.26,52.65 52.98,52.68 C53.82,52.69 54.37,52.44 54.83,51.90 C55.17,50.46 54.29,48.00 53.59,47.15 C52.91,46.41 51.35,46.12 50.31,47.07 C49.44,47.91 47.98,50.36 47.81,51.26 C48.77,51.83 51.17,50.29 52.28,49.00 C53.11,48.01 54.10,46.37 54.21,45.47 C53.03,44.25 44.35,46.49 44.26,46.49 C44.26,46.49 44.31,43.47 44.31,43.47 C42.96,45.03 43.26,46.61 43.78,46.92 C43.78,46.92 44.95,46.19 44.95,46.19 C44.06,45.89 42.47,52.00 42.65,55.70 C42.75,57.50 43.42,60.23 43.77,60.92 C44.45,62.20 45.81,63.42 46.71,63.61 C47.62,63.79 49.47,63.15 50.31,62.32 C52.02,60.61 53.56,54.51 52.90,52.30 C52.57,51.24 51.24,49.67 50.34,49.22 C49.43,48.78 47.46,48.68 46.56,49.05 C45.64,49.47 44.17,51.14 43.67,52.42 C42.69,55.06 42.90,62.67 43.91,65.09 C44.40,66.22 45.69,67.46 46.45,67.55 C47.21,67.61 48.77,66.59 49.48,65.54 C51.39,62.53 52.42,54.60 51.88,53.17 C50.88,53.04 49.57,54.04 48.80,54.92 C47.72,56.17 45.11,61.17 44.22,64.12 C43.87,65.37 44.03,66.06 44.36,66.79 C45.99,66.77 46.62,66.66 46.94,66.25 C48.46,64.29 49.23,61.07 48.29,59.50 C47.38,58.05 43.93,56.73 42.73,57.43 C41.47,58.20 40.53,62.65 41.04,64.65 C41.31,65.67 42.30,67.21 43.03,67.75 C43.83,68.32 45.39,68.61 46.28,68.31 C48.00,67.70 50.92,63.71 51.50,61.49 C52.03,59.35 50.92,56.55 49.42,56.14 C48.71,55.97 47.42,56.44 46.93,57.13 C45.84,58.72 46.01,63.97 47.47,65.66 C48.95,67.31 53.71,68.18 55.95,67.28 C57.87,66.48 60.87,63.18 60.85,61.96 C60.81,61.11 58.08,59.34 56.19,59.03 C54.39,58.74 52.06,59.24 51.43,59.62 C50.67,60.09 49.65,61.62 49.49,62.54 C49.18,64.51 51.70,68.29 53.85,69.22 C54.85,69.63 56.83,69.80 57.66,69.53 C59.30,68.95 60.75,65.34 60.71,62.77 C60.69,61.63 60.35,59.65 60.01,58.77 C59.64,57.84 57.83,56.57 57.00,57.11 C55.74,57.99 56.27,62.44 57.59,64.55 C58.20,65.49 59.48,66.67 60.32,67.10 C61.04,67.44 62.49,66.96 62.99,66.19 C64.27,64.04 64.16,57.17 63.09,55.67 C63.09,55.67 61.88,55.78 61.88,55.78 C61.43,56.74 62.11,59.22 63.36,60.85 C63.93,61.57 65.50,62.56 66.51,62.34 C67.39,61.53 67.33,59.14 66.84,57.98 C65.89,55.85 62.59,53.44 61.59,53.76 C61.32,54.24 61.79,56.24 62.40,57.20 C63.05,58.19 64.69,58.72 65.29,58.17 C65.88,57.59 66.12,55.16 65.81,54.10 C65.52,53.18 64.55,52.51 64.11,52.57 C63.94,52.60 63.81,52.76 63.68,53.06" fill="none" stroke="rgb(0, 0, 0)" stroke-width="1.83" stroke-opacity="1.00" stroke-linejoin="round"/>
<path d="M65.34,54.04 C65.34,54.04 66.75,55.56 66.75,55.56 C66.75,55.56 65.32,54.26 65.32,54.26" fill="none" stroke="rgb(0, 0, 0)" stroke-width="1.83" stroke-opacity="1.00" stroke-linejoin="round"/>
<path d="M59.92,47.98 C59.92,47.98 59.53,47.66 59.53,47.66 C59.53,47.63 63.34,48.96 64.28,52.22 C63.41,52.83 61.32,52.23 60.16,51.41 C58.94,50.53 57.39,48.90 57.06,48.42 C57.06,48.42 62.00,47.80 62.00,47.80 C62.00,47.80 57.77,51.33 57.77,51.33 C57.77,51.33 58.40,51.33 58.40,51.33" fill="none" stroke="rgb(0, 0, 0)" stroke-width="1.83" stroke-opacity="1.00" stroke-linejoin="round"/>
<path d="M58.63,53.65 C59.23,53.66 60.25,53.83 61.35,54.12 C62.35,54.39 63.51,55.65 63.60,56.99 C63.66,58.06 63.23,59.88 62.72,60.81 C62.06,61.93 60.37,63.24 58.50,64.52 C58.28,64.67 58.10,64.80 57.97,64.92" fill="none" stroke="rgb(0, 0, 0)" stroke-width="1.83" stroke-opacity="1.00" stroke-linejoin="round"/>
<path d="M51.67,65.77 C51.67,65.77 51.41,65.19 51.41,65.19 C51.41,65.19 47.69,69.77 47.69,69.77 C47.69,69.77 50.58,66.12 50.58,66.12" fill="none" stroke="rgb(0, 0, 0)" stroke-width="1.83" stroke-opacity="1.00" stroke-linejoin="round"/>
<path d="M54.25,59.84 C54.25,59.84 53.80,60.22 53.80,60.22 C53.80,60.22 60.91,63.97 60.91,63.97 C60.91,63.97 51.66,62.73 51.66,62.73 C51.66,62.33 59.67,64.98 60.80,65.04 C61.03,65.05 61.50,65.05 62.21,65.02" fill="none" stroke="rgb(0, 0, 0)" stroke-width="1.83" stroke-opacity="1.00" stroke-linejoin="round"/>
<path d="M51.93,58.42 C51.93,58.42 51.73,58.42 51.73,58.42 C51.61,58.52 56.13,60.64 57.85,61.18 C60.19,61.90 62.89,62.01 63.76,61.92 C63.99,61.89 64.25,61.82 64.52,61.71" fill="none" stroke="rgb(0, 0, 0)" stroke-width="1.83" stroke-opacity="1.00" stroke-linejoin="round"/>
<path d="M60.95,53.27 C61.39,53.38 64.06,54.80 64.47,55.06 C64.60,55.14 64.67,55.22 64.69,55.31" fill="none" stroke="rgb(0, 0, 0)" stroke-width="1.83" stroke-opacity="1.00" stroke-linejoin="round"/>
<path d="M51.28,53.65 C51.28,53.65 51.15,53.65 51.15,53.65 C52.34,53.84 56.52,54.73 58.43,55.46 C58.64,55.55 58.91,55.66 59.23,55.82" fill="none" stroke="rgb(0, 0, 0)" stroke-width="1.83" stroke-opacity="1.00" stroke-linejoin="round"/>
<path d="M40.45,52.62 C41.30,52.27 45.54,51.86 46.54,51.85 C46.73,51.85 46.91,51.85 47.10,51.85" fill="none" stroke="rgb(0, 0, 0)" stroke-width="1.83" stroke-opacity="1.00" stroke-linejoin="round"/>
<path d="M45.61,50.56 C45.61,50.56 45.48,50.56 45.48,50.56 C46.84,50.99 47.82,51.30 48.41,51.50 C49.01,51.71 50.07,52.08 51.60,52.62" fill="none" stroke="rgb(0, 0, 0)" stroke-width="1.83" stroke-opacity="1.00" stroke-linejoin="round"/>
<path d="M34.01,30.76 C35.48,29.85 41.72,29.27 44.62,29.08 C48.37,28.87 51.66,29.15 52.07,29.19 C52.32,29.21 52.88,29.26 53.74,29.34" fill="none" stroke="rgb(0, 0, 0)" stroke-width="2.00" stroke-opacity="1.00" stroke-linejoin="round"/>
<path d="M66.75,30.76 C65.28,29.85 59.04,29.27 56.14,29.08 C52.38,28.87 49.10,29.15 48.69,29.19 C48.43,29.21 47.88,29.26 47.02,29.34" fill="none" stroke="rgb(0, 0, 0)" stroke-width="2.00" stroke-opacity="1.00" stroke-linejoin="round"/>
<path d="M16.65,40.64 C17.14,39.66 28.81,31.76 31.62,30.57 C36.97,28.38 45.52,26.87 46.82,26.73 C47.18,26.69 47.63,26.67 48.18,26.67" fill="none" stroke="rgb(0, 0, 0)" stroke-width="2.00" stroke-opacity="1.00" stroke-linejoin="round"/>
<path d="M84.11,40.64 C83.62,39.66 71.95,31.76 69.14,30.57 C63.79,28.38 55.24,26.87 53.94,26.73 C53.58,26.69 53.12,26.67 52.58,26.67" fill="none" stroke="rgb(0, 0, 0)" stroke-width="2.00" stroke-opacity="1.00" stroke-linejoin="round"/>
<path d="M48.69,26.67 C49.25,26.67 50.33,26.67 50.35,26.67 C50.40,26.67 50.45,26.69 50.52,26.70 C50.52,26.70 50.52,26.79 50.52,26.79" fill="none" stroke="rgb(0, 0, 0)" stroke-width="2.00" stroke-opacity="1.00" stroke-linejoin="round"/>
<path d="M52.07,26.67 C51.51,26.67 50.43,26.67 50.41,26.67 C50.36,26.67 50.30,26.69 50.24,26.70 C50.24,26.70 50.24,26.79 50.24,26.79" fill="none" stroke="rgb(0, 0, 0)" stroke-width="2.00" stroke-opacity="1.00" stroke-linejoin="round"/>
<path d="M15.73,29.35 C15.36,30.53 19.30,34.93 20.63,35.46 C20.77,35.52 20.93,35.55 21.11,35.56" fill="none" stroke="rgb(0, 0, 0)" stroke-width="3.00" stroke-opacity="1.00" stroke-linejoin="round"/>
<path d="M85.02,29.35 C85.40,30.53 81.46,34.93 80.13,35.46 C79.99,35.52 79.83,35.55 79.65,35.56" fill="none" stroke="rgb(0, 0, 0)" stroke-width="3.00" stroke-opacity="1.00" stroke-linejoin="round"/>
<path d="M33.45,20.18 C33.45,20.18 33.25,20.29 33.25,20.29 C33.02,20.89 33.54,25.72 34.37,27.59 C34.58,28.03 35.41,28.83 35.71,29.01 C35.83,29.07 36.06,29.17 36.40,29.31" fill="none" stroke="rgb(0, 0, 0)" stroke-width="3.00" stroke-opacity="1.00" stroke-linejoin="round"/>
<path d="M67.31,20.18 C67.31,20.18 67.51,20.29 67.51,20.29 C67.74,20.89 67.22,25.72 66.39,27.59 C66.18,28.03 65.35,28.83 65.05,29.01 C64.93,29.07 64.70,29.17 64.36,29.31" fill="none" stroke="rgb(0, 0, 0)" stroke-width="3.00" stroke-opacity="1.00" stroke-linejoin="round"/>
<path d="M50.38,27.09 C50.38,24.35 50.37,20.20 50.24,17.44 C50.23,17.22 50.23,17.10 50.24,17.08 C50.24,17.08 50.24,17.18 50.24,17.18" fill="none" stroke="rgb(0, 0, 0)" stroke-width="3.00" stroke-opacity="1.00" stroke-linejoin="round"/>
<path d="M10.30,49.25 C10.23,48.64 16.34,39.66 18.30,37.58 C20.11,35.69 24.25,32.64 26.01,31.74 C26.35,31.56 27.22,31.14 28.61,30.47" fill="none" stroke="rgb(0, 0, 0)" stroke-width="3.00" stroke-opacity="1.00" stroke-linejoin="round"/>
<path d="M75.08,32.88 C76.45,33.71 80.53,36.69 81.89,38.06 C83.67,39.87 86.70,44.22 88.76,47.53 C89.02,47.96 89.61,49.02 89.80,49.35" fill="none" stroke="rgb(0, 0, 0)" stroke-width="3.00" stroke-opacity="1.00" stroke-linejoin="round"/>
<path d="M10.02,52.78 C10.02,52.78 10.44,52.07 10.44,52.07 C10.44,52.07 7.76,59.39 7.76,59.39 C7.76,59.39 11.15,49.81 11.15,49.81 C10.98,50.23 10.86,50.53 10.77,50.72 C10.69,50.91 10.52,51.24 10.27,51.73" fill="none" stroke="rgb(0, 0, 0)" stroke-width="3.00" stroke-opacity="1.00" stroke-linejoin="round"/>
<path d="M8.75,56.45 C8.75,56.45 6.28,62.66 6.28,62.66 C6.71,62.77 7.59,63.06 7.88,63.27 C8.02,63.37 8.24,63.60 8.52,63.94" fill="none" stroke="rgb(0, 0, 0)" stroke-width="3.00" stroke-opacity="1.00" stroke-linejoin="round"/>
<path d="M90.46,52.21 C90.46,52.21 90.03,51.51 90.03,51.51 C89.96,51.92 91.21,54.86 92.63,56.36 C93.02,56.75 93.54,57.24 93.63,57.40 C93.63,57.40 93.22,57.21 93.22,57.21" fill="none" stroke="rgb(0, 0, 0)" stroke-width="3.00" stroke-opacity="1.00" stroke-linejoin="round"/>
<path d="M91.44,58.99 C91.44,58.99 91.30,58.99 91.30,58.99 C91.46,58.99 91.61,58.99 91.76,58.99 C91.80,58.99 91.83,58.99 91.87,58.99" fill="none" stroke="rgb(0, 0, 0)" stroke-width="3.00" stroke-opacity="1.00" stroke-linejoin="round"/>
<path d="M9.60,66.04 C9.79,66.37 10.96,67.31 11.42,67.84 C11.66,68.10 12.24,68.82 12.48,68.97 C12.51,68.99 12.53,69.00 12.55,69.01" fill="none" stroke="rgb(0, 0, 0)" stroke-width="3.00" stroke-opacity="1.00" stroke-linejoin="round"/>
<path d="M10.16,64.63 C10.14,64.62 10.97,66.08 11.69,66.97 C11.78,67.08 11.82,67.14 11.82,67.14" fill="none" stroke="rgb(0, 0, 0)" stroke-width="3.00" stroke-opacity="1.00" stroke-linejoin="round"/>
<path d="M91.44,59.27 C91.44,59.37 91.18,59.95 90.75,60.81 C90.66,60.99 90.53,61.25 90.36,61.57" fill="none" stroke="rgb(0, 0, 0)" stroke-width="3.00" stroke-opacity="1.00" stroke-linejoin="round"/>
<path d="M9.31,62.09 C9.31,62.09 9.17,62.09 9.17,62.09 C9.17,61.55 9.17,61.01 9.17,60.47 C9.17,60.24 9.17,60.01 9.17,59.78" fill="none" stroke="rgb(0, 0, 0)" stroke-width="3.00" stroke-opacity="1.00" stroke-linejoin="round"/>
<path d="M91.30,56.31 C91.30,56.31 91.30,56.04 91.30,56.04 C91.15,56.47 91.05,56.75 91.01,56.91 C90.97,57.06 90.93,57.29 90.89,57.61" fill="none" stroke="rgb(0, 0, 0)" stroke-width="3.00" stroke-opacity="1.00" stroke-linejoin="round"/>
<path d="M30.20,84.95 C30.48,84.88 41.20,88.35 45.80,88.66 C47.45,88.76 56.02,88.74 56.78,88.83 C56.95,88.86 57.13,88.91 57.32,89.00" fill="none" stroke="rgb(0, 0, 0)" stroke-width="3.00" stroke-opacity="1.00" stroke-linejoin="round"/>
<path d="M57.01,88.34 C57.35,88.35 58.23,88.29 59.01,88.10 C63.33,87.05 69.15,84.47 71.04,83.78 C71.16,83.73 71.23,83.71 71.25,83.69" fill="none" stroke="rgb(0, 0, 0)" stroke-width="3.00" stroke-opacity="1.00" stroke-linejoin="round"/>
<path d="M72.68,83.68 C72.93,83.40 73.15,83.19 73.32,83.04 C73.92,82.55 74.73,81.87 74.93,81.61" fill="none" stroke="rgb(0, 0, 0)" stroke-width="3.00" stroke-opacity="1.00" stroke-linejoin="round"/>
<path d="M22.16,80.65 C22.46,81.06 24.59,82.52 27.06,83.91 C27.32,84.05 27.67,84.24 28.09,84.46" fill="none" stroke="rgb(0, 0, 0)" stroke-width="3.00" stroke-opacity="1.00" stroke-linejoin="round"/>
<path d="M77.19,81.14 C79.67,79.45 80.71,78.14 80.80,77.98 C80.81,77.96 80.83,77.93 80.86,77.90" fill="none" stroke="rgb(0, 0, 0)" stroke-width="3.00" stroke-opacity="1.00" stroke-linejoin="round"/>
<path d="M19.19,77.33 C19.24,77.67 19.34,78.08 19.53,78.29 C19.82,78.63 20.67,79.25 20.96,79.44 C21.00,79.48 21.02,79.52 21.02,79.56" fill="none" stroke="rgb(0, 0, 0)" stroke-width="3.00" stroke-opacity="1.00" stroke-linejoin="round"/>
<path d="M50.10,89.89" fill="none" stroke="rgb(0, 0, 0)" stroke-width="2.00" stroke-opacity="1.00" stroke-linejoin="round"/>
<path d="M31.47,86.93 C31.47,86.93 31.33,86.93 31.33,86.93 C31.29,86.86 30.30,86.86 28.76,88.63 C28.62,88.79 28.54,88.95 28.53,89.11" fill="none" stroke="rgb(0, 0, 0)" stroke-width="2.00" stroke-opacity="1.00" stroke-linejoin="round"/>
<path d="M69.29,86.93 C69.29,86.93 69.43,86.93 69.43,86.93 C69.47,86.86 70.46,86.86 72.00,88.63 C72.14,88.79 72.22,88.95 72.23,89.11" fill="none" stroke="rgb(0, 0, 0)" stroke-width="2.00" stroke-opacity="1.00" stroke-linejoin="round"/>
<path d="M43.75,89.75 C43.75,89.75 43.55,89.81 43.55,89.81 C43.24,90.26 42.84,90.98 42.64,91.53 C42.45,92.05 42.34,92.73 42.34,93.12 C42.34,93.19 42.34,93.23 42.34,93.25" fill="none" stroke="rgb(0, 0, 0)" stroke-width="2.00" stroke-opacity="1.00" stroke-linejoin="round"/>
<path d="M57.01,89.75 C57.01,89.75 57.21,89.81 57.21,89.81 C57.52,90.26 57.92,90.98 58.11,91.53 C58.30,92.05 58.42,92.73 58.42,93.12 C58.42,93.19 58.42,93.23 58.42,93.25" fill="none" stroke="rgb(0, 0, 0)" stroke-width="2.00" stroke-opacity="1.00" stroke-linejoin="round"/>
</g>
</svg>
