<?xml version="1.0" encoding="UTF-8" standalone="no"?>
<!DOCTYPE svg PUBLIC "-//W3C//DTD SVG 1.1//EN" "http://www.w3.org/Graphics/SVG/1.1/DTD/svg11.dtd">
<svg width="105.00" height="100.00" viewBox="0.00 0.00 105.00 100.00" xmlns="http://www.w3.org/2000/svg" xmlns:xlink="http://www.w3.org/1999/xlink">
<g stroke-linecap="round" id="圖層_9">
<path d="M53.00,8.75 C53.00,8.75 52.75,8.75 52.75,8.75 C52.75,8.75 60.25,10.27 60.25,10.27 C60.25,12.08 60.24,16.28 60.28,16.68 C60.32,17.01 60.45,17.46 60.66,18.04" fill="none" stroke="rgb(0, 0, 0)" stroke-width="3.00" stroke-opacity="1.00" stroke-linejoin="round"/>
<path d="M51.00,8.75 C51.00,8.75 51.25,8.75 51.25,8.75 C51.25,8.75 43.75,10.27 43.75,10.27 C43.75,12.08 43.76,16.28 43.72,16.68 C43.68,17.01 43.55,17.46 43.34,18.04" fill="none" stroke="rgb(0, 0, 0)" stroke-width="3.00" stroke-opacity="1.00" stroke-linejoin="round"/>
<path d="M61.25,17.50 C61.31,17.50 62.34,17.53 62.88,17.65 C64.39,18.01 66.46,18.97 68.70,20.33 C71.14,21.83 72.16,22.50 72.69,22.94 C72.78,23.01 72.87,23.11 72.97,23.22" fill="none" stroke="rgb(0, 0, 0)" stroke-width="3.00" stroke-opacity="1.00" stroke-linejoin="round"/>
<path d="M42.75,17.50 C42.69,17.50 41.66,17.53 41.12,17.65 C39.61,18.01 37.54,18.97 35.30,20.33 C32.86,21.83 31.84,22.50 31.31,22.94 C31.22,23.01 31.13,23.11 31.03,23.22" fill="none" stroke="rgb(0, 0, 0)" stroke-width="3.00" stroke-opacity="1.00" stroke-linejoin="round"/>
<path d="M73.75,22.75 C73.75,22.75 73.62,22.75 73.62,22.75 C73.62,22.75 73.25,23.25 73.25,23.25 C73.93,22.03 75.22,20.30 76.26,19.40 C76.57,19.14 77.07,18.80 77.76,18.40 C77.76,18.40 78.28,18.43 78.28,18.43 C78.28,18.43 78.45,18.67 78.45,18.67" fill="none" stroke="rgb(0, 0, 0)" stroke-width="3.00" stroke-opacity="1.00" stroke-linejoin="round"/>
<path d="M30.25,22.75 C30.25,22.75 30.38,22.75 30.38,22.75 C30.38,22.75 30.75,23.25 30.75,23.25 C30.07,22.03 28.78,20.30 27.74,19.40 C27.43,19.14 26.93,18.80 26.24,18.40 C26.24,18.40 25.72,18.43 25.72,18.43 C25.72,18.43 25.55,18.67 25.55,18.67" fill="none" stroke="rgb(0, 0, 0)" stroke-width="3.00" stroke-opacity="1.00" stroke-linejoin="round"/>
<path d="M53.00,92.75 C53.00,92.75 52.75,92.75 52.75,92.75 C53.51,92.75 54.36,92.69 56.05,92.51 C57.74,92.33 58.71,92.20 59.75,92.00" fill="none" stroke="rgb(0, 0, 0)" stroke-width="3.00" stroke-opacity="1.00" stroke-linejoin="round"/>
<path d="M51.00,92.75 C51.00,92.75 51.25,92.75 51.25,92.75 C50.49,92.75 49.64,92.69 47.95,92.51 C46.26,92.33 45.29,92.20 44.25,92.00" fill="none" stroke="rgb(0, 0, 0)" stroke-width="3.00" stroke-opacity="1.00" stroke-linejoin="round"/>
<path d="M60.25,85.00 C60.19,86.13 60.71,91.18 60.75,91.42 C60.77,91.52 60.82,91.66 60.91,91.84 C60.92,91.86 60.94,91.91 60.98,91.96" fill="none" stroke="rgb(0, 0, 0)" stroke-width="3.00" stroke-opacity="1.00" stroke-linejoin="round"/>
<path d="M43.75,85.00 C43.81,86.13 43.29,91.18 43.25,91.42 C43.23,91.52 43.18,91.66 43.09,91.84 C43.08,91.86 43.06,91.91 43.02,91.96" fill="none" stroke="rgb(0, 0, 0)" stroke-width="3.00" stroke-opacity="1.00" stroke-linejoin="round"/>
<path d="M61.00,85.50 C63.36,85.46 64.83,85.28 66.31,84.75 C69.17,83.74 70.21,83.10 70.23,83.03 C70.23,83.03 70.05,83.20 70.05,83.20" fill="none" stroke="rgb(0, 0, 0)" stroke-width="3.00" stroke-opacity="1.00" stroke-linejoin="round"/>
<path d="M43.56,86.25 C43.56,86.25 36.00,83.81 36.00,83.81" fill="none" stroke="rgb(0, 0, 0)" stroke-width="3.00" stroke-opacity="1.00" stroke-linejoin="round"/>
<path d="M79.25,19.50 C79.25,19.50 84.89,23.29 84.89,23.29" fill="none" stroke="rgb(0, 0, 0)" stroke-width="3.00" stroke-opacity="1.00" stroke-linejoin="round"/>
<path d="M24.75,19.50 C24.75,19.50 20.44,22.13 20.44,22.13" fill="none" stroke="rgb(0, 0, 0)" stroke-width="3.00" stroke-opacity="1.00" stroke-linejoin="round"/>
<path d="M86.25,24.00 C86.23,24.58 86.30,25.07 86.58,25.54 C87.04,26.23 87.65,27.19 87.75,27.46" fill="none" stroke="rgb(0, 0, 0)" stroke-width="3.00" stroke-opacity="1.00" stroke-linejoin="round"/>
<path d="M19.06,23.62 C17.96,24.51 17.55,25.29 17.42,25.54 C17.17,26.03 16.35,27.19 16.25,27.46" fill="none" stroke="rgb(0, 0, 0)" stroke-width="3.00" stroke-opacity="1.00" stroke-linejoin="round"/>
<path d="M83.75,32.75 C83.75,32.75 83.50,32.75 83.50,32.75 C84.61,32.33 86.68,30.19 87.64,28.96 C87.97,28.52 88.31,28.08 88.65,27.65" fill="none" stroke="rgb(0, 0, 0)" stroke-width="3.00" stroke-opacity="1.00" stroke-linejoin="round"/>
<path d="M20.25,32.75 C20.25,32.75 20.50,32.75 20.50,32.75 C19.39,32.33 17.32,30.19 16.36,28.96 C16.03,28.52 15.69,28.08 15.35,27.65" fill="none" stroke="rgb(0, 0, 0)" stroke-width="3.00" stroke-opacity="1.00" stroke-linejoin="round"/>
<path d="M70.75,82.25 C70.72,82.23 73.07,86.00 73.59,86.87 C73.81,87.23 74.09,87.67 74.45,88.20" fill="none" stroke="rgb(0, 0, 0)" stroke-width="3.00" stroke-opacity="1.00" stroke-linejoin="round"/>
<path d="M33.25,82.25 C33.28,82.23 30.93,86.00 30.41,86.87 C30.19,87.23 29.91,87.67 29.55,88.20" fill="none" stroke="rgb(0, 0, 0)" stroke-width="3.00" stroke-opacity="1.00" stroke-linejoin="round"/>
<path d="M74.75,87.75 C74.82,87.78 76.15,87.11 77.46,86.33 C79.01,85.40 82.26,83.18 83.07,82.43 C83.38,82.14 83.82,81.63 84.38,80.91" fill="none" stroke="rgb(0, 0, 0)" stroke-width="3.00" stroke-opacity="1.00" stroke-linejoin="round"/>
<path d="M29.25,87.75 C29.18,87.78 27.85,87.11 26.54,86.33 C24.99,85.40 21.74,83.18 20.93,82.43 C20.62,82.14 20.18,81.63 19.62,80.91" fill="none" stroke="rgb(0, 0, 0)" stroke-width="3.00" stroke-opacity="1.00" stroke-linejoin="round"/>
<path d="M85.00,79.75 C85.00,79.75 84.75,79.75 84.75,79.75 C84.77,79.49 84.99,79.12 85.48,78.52 C85.49,78.51 85.51,78.49 85.50,78.50" fill="none" stroke="rgb(0, 0, 0)" stroke-width="3.00" stroke-opacity="1.00" stroke-linejoin="round"/>
<path d="M19.00,79.75 C19.00,79.75 19.25,79.75 19.25,79.75 C19.23,79.49 19.01,79.12 18.52,78.52 C18.51,78.51 18.49,78.49 18.50,78.50" fill="none" stroke="rgb(0, 0, 0)" stroke-width="3.00" stroke-opacity="1.00" stroke-linejoin="round"/>
<path d="M82.75,73.75 C82.99,74.20 84.26,75.17 84.77,75.54 C85.43,76.03 85.95,76.44 86.32,76.77 C86.48,76.91 86.62,77.06 86.73,77.23" fill="none" stroke="rgb(0, 0, 0)" stroke-width="3.00" stroke-opacity="1.00" stroke-linejoin="round"/>
<path d="M21.25,73.75 C21.01,74.20 19.74,75.17 19.23,75.54 C18.57,76.03 18.05,76.44 17.68,76.77 C17.52,76.91 17.38,77.06 17.27,77.23" fill="none" stroke="rgb(0, 0, 0)" stroke-width="3.00" stroke-opacity="1.00" stroke-linejoin="round"/>
<path d="M83.50,72.75 C83.36,72.83 84.37,71.46 84.74,70.84 C85.34,69.81 86.45,66.84 87.09,64.68 C87.23,64.21 87.44,63.47 87.71,62.46" fill="none" stroke="rgb(0, 0, 0)" stroke-width="3.00" stroke-opacity="1.00" stroke-linejoin="round"/>
<path d="M20.50,72.75 C20.64,72.83 19.63,71.46 19.26,70.84 C18.66,69.81 17.55,66.84 16.91,64.68 C16.77,64.21 16.56,63.47 16.29,62.46" fill="none" stroke="rgb(0, 0, 0)" stroke-width="3.00" stroke-opacity="1.00" stroke-linejoin="round"/>
<path d="M84.25,32.75 C84.42,33.26 85.66,35.72 86.09,36.73 C86.43,37.54 86.82,38.65 87.27,40.07 C87.41,40.51 87.63,41.24 87.92,42.27" fill="none" stroke="rgb(0, 0, 0)" stroke-width="3.00" stroke-opacity="1.00" stroke-linejoin="round"/>
<path d="M19.75,32.75 C19.58,33.26 18.34,35.72 17.91,36.73 C17.57,37.54 17.18,38.65 16.73,40.07 C16.59,40.51 16.37,41.24 16.08,42.27" fill="none" stroke="rgb(0, 0, 0)" stroke-width="3.00" stroke-opacity="1.00" stroke-linejoin="round"/>
<path d="M88.25,43.25 C88.25,43.25 88.00,43.25 88.00,43.25 C88.00,43.25 88.27,42.93 88.27,42.93 C89.46,42.65 90.44,42.46 91.31,42.36 C92.09,42.28 92.79,42.24 93.12,42.25" fill="none" stroke="rgb(0, 0, 0)" stroke-width="3.00" stroke-opacity="1.00" stroke-linejoin="round"/>
<path d="M15.75,43.25 C15.75,43.25 16.00,43.25 16.00,43.25 C16.00,43.25 15.73,42.93 15.73,42.93 C14.54,42.65 13.56,42.46 12.69,42.36 C11.91,42.28 11.21,42.24 10.88,42.25" fill="none" stroke="rgb(0, 0, 0)" stroke-width="3.00" stroke-opacity="1.00" stroke-linejoin="round"/>
<path d="M94.50,42.75 C94.50,42.75 94.50,42.62 94.50,42.62 C94.85,44.68 95.29,49.13 95.24,52.73 C95.21,55.01 94.89,56.70 94.40,57.69 C94.32,57.84 94.21,58.00 94.08,58.15" fill="none" stroke="rgb(0, 0, 0)" stroke-width="3.00" stroke-opacity="1.00" stroke-linejoin="round"/>
<path d="M9.50,42.75 C9.50,42.75 9.50,42.63 9.50,42.63 C9.15,44.68 8.71,49.13 8.76,52.73 C8.79,55.01 9.11,56.70 9.60,57.69 C9.68,57.84 9.79,58.00 9.92,58.15" fill="none" stroke="rgb(0, 0, 0)" stroke-width="3.00" stroke-opacity="1.00" stroke-linejoin="round"/>
<path d="M88.50,62.25 C89.79,62.24 90.59,62.26 91.09,62.38 C92.07,62.59 92.88,62.87 93.00,63.00" fill="none" stroke="rgb(0, 0, 0)" stroke-width="3.00" stroke-opacity="1.00" stroke-linejoin="round"/>
<path d="M15.50,62.25 C14.21,62.24 13.41,62.26 12.91,62.38 C11.93,62.59 11.12,62.87 11.00,63.00" fill="none" stroke="rgb(0, 0, 0)" stroke-width="3.00" stroke-opacity="1.00" stroke-linejoin="round"/>
<path d="M94.25,60.00 C94.19,60.00 93.57,61.74 93.50,61.92 C93.48,61.98 93.48,62.00 93.50,62.00" fill="none" stroke="rgb(0, 0, 0)" stroke-width="3.00" stroke-opacity="1.00" stroke-linejoin="round"/>
<path d="M9.75,60.00 C9.81,60.00 10.43,61.74 10.50,61.93 C10.52,61.98 10.52,62.00 10.50,62.00" fill="none" stroke="rgb(0, 0, 0)" stroke-width="3.00" stroke-opacity="1.00" stroke-linejoin="round"/>
<path d="M55.50,65.50 C54.26,66.29 51.14,66.40 50.17,66.19 C49.54,65.97 45.57,64.83 43.09,62.71 C41.07,60.93 38.34,55.82 38.09,53.42 C37.86,50.87 39.31,44.97 41.27,42.42 C42.21,41.25 44.40,39.73 45.96,39.12 C47.86,38.45 50.50,38.08 52.52,38.25 C54.68,38.47 57.13,39.25 58.67,40.21 C60.23,41.24 62.25,43.24 63.17,44.73 C64.03,46.20 65.11,49.45 65.29,51.15 C65.44,52.89 64.95,56.17 64.33,57.69 C63.15,60.41 59.49,63.97 58.21,64.90 C57.82,65.17 57.32,65.43 56.72,65.68" fill="none" stroke="rgb(0, 0, 0)" stroke-width="3.00" stroke-opacity="1.00" stroke-linejoin="round"/>
<path d="M50.90,33.06 C50.98,33.07 52.23,33.02 52.68,33.06 C54.22,33.19 57.17,34.26 58.08,34.48 C58.72,34.64 60.31,34.87 61.42,35.91 C63.27,37.63 67.11,41.32 67.86,43.34 C68.25,44.42 69.50,47.98 69.69,48.57 C69.81,48.94 69.92,49.35 70.02,49.78" fill="none" stroke="rgb(0, 0, 0)" stroke-width="2.00" stroke-opacity="1.00" stroke-linejoin="round"/>
<path d="M69.30,48.27 C69.30,48.27 69.66,57.18 69.66,57.18" fill="none" stroke="rgb(0, 0, 0)" stroke-width="2.00" stroke-opacity="1.00" stroke-linejoin="round"/>
<path d="M34.37,47.33 C33.91,49.22 33.66,53.51 34.11,56.04 C34.29,57.04 35.03,60.10 35.10,60.52 C35.12,60.61 35.13,60.71 35.12,60.82" fill="none" stroke="rgb(0, 0, 0)" stroke-width="2.00" stroke-opacity="1.00" stroke-linejoin="round"/>
<path d="M35.49,45.45 C35.49,44.34 36.35,42.49 37.66,40.74 C39.90,37.80 43.84,34.77 45.17,34.51 C45.68,34.43 46.47,34.42 46.97,34.47 C47.24,34.49 47.51,34.52 47.78,34.55" fill="none" stroke="rgb(0, 0, 0)" stroke-width="2.00" stroke-opacity="1.00" stroke-linejoin="round"/>
<path d="M49.77,32.68 C50.18,32.65 50.61,32.88 50.66,32.94 C50.66,32.95 50.68,32.98 50.71,33.04" fill="none" stroke="rgb(0, 0, 0)" stroke-width="2.00" stroke-opacity="1.00" stroke-linejoin="round"/>
<path d="M36.62,61.61 C36.56,61.76 37.53,63.49 39.85,65.74 C41.23,67.06 43.30,68.12 44.78,68.73 C45.06,68.85 45.35,68.96 45.66,69.06" fill="none" stroke="rgb(0, 0, 0)" stroke-width="2.00" stroke-opacity="1.00" stroke-linejoin="round"/>
<path d="M47.14,69.87 C47.23,69.84 51.38,70.60 54.22,70.62 C55.90,70.63 58.23,70.06 60.53,69.14" fill="none" stroke="rgb(0, 0, 0)" stroke-width="2.00" stroke-opacity="1.00" stroke-linejoin="round"/>
<path d="M63.11,67.24 C63.26,66.92 65.25,64.77 66.27,63.34 C67.15,62.10 68.07,60.42 68.83,58.76 C68.95,58.49 69.04,58.28 69.09,58.12" fill="none" stroke="rgb(0, 0, 0)" stroke-width="2.00" stroke-opacity="1.00" stroke-linejoin="round"/>
<path d="M70.62,57.85 C70.62,57.85 70.43,57.95 70.43,57.95 C70.45,58.48 70.08,60.02 69.93,60.60 C69.89,60.79 69.86,60.93 69.87,61.00" fill="none" stroke="rgb(255, 255, 255)" stroke-width="2.00" stroke-opacity="1.00" stroke-linejoin="round"/>
<path d="M70.43,57.85 C70.43,57.85 70.24,57.85 70.24,57.85 C70.24,58.09 70.24,59.30 70.24,60.27 C70.24,60.54 70.24,60.80 70.24,61.07" fill="none" stroke="rgb(255, 255, 255)" stroke-width="2.00" stroke-opacity="1.00" stroke-linejoin="round"/>
</g>
</svg>
